<svg xmlns="http://www.w3.org/2000/svg" width="16" height="16" fill="none" viewBox="0 0 16 16">
    <path fill="#fff" d="M4.958 8A3.045 3.045 0 0 1 8 4.959a3.045 3.045 0 0 1 3.041 3.04A3.045 3.045 0 0 1 8 11.043 3.046 3.046 0 0 1 4.958 8z"/>
    <path fill="#fff" fill-rule="evenodd" d="M0 2.933A2.937 2.937 0 0 1 2.933 0h10.134A2.937 2.937 0 0 1 16 2.933v10.134A2.937 2.937 0 0 1 13.067 16H2.933A2.937 2.937 0 0 1 0 13.067V2.933zM2.733 8A5.273 5.273 0 0 0 8 13.267 5.273 5.273 0 0 0 13.267 8 5.273 5.273 0 0 0 8 2.733 5.273 5.273 0 0 0 2.733 8zm9.457-5.424c0 .687.56 1.246 1.246 1.246.688 0 1.247-.559 1.247-1.246a1.248 1.248 0 0 0-2.493 0z" clip-rule="evenodd"/>
</svg>
