<svg xmlns="http://www.w3.org/2000/svg" width="16" height="16" fill="none" viewBox="0 0 16 16">
    <path fill="#808792" d="M11.674 8.227c-.276-.237-.316-.696-.076-.97.545-.62.876-1.39.876-2.174C12.474 2.832 10.82 1 8.789 1H3.5a.5.5 0 0 0-.5.5v13a.5.5 0 0 0 .5.5h6.079C11.463 15 13 13.297 13 11.208c0-1.216-.522-2.29-1.326-2.981zM5.632 3.833a.5.5 0 0 1 .5-.5h2.394c.874 0 1.58.782 1.58 1.75 0 .969-.706 1.75-1.58 1.75H6.132a.5.5 0 0 1-.5-.5v-2.5zm3.42 8.834h-2.92a.5.5 0 0 1-.5-.5v-2.5a.5.5 0 0 1 .5-.5h2.92c.874 0 1.58.781 1.58 1.75 0 .968-.706 1.75-1.58 1.75z"/>
</svg>
