<svg xmlns="http://www.w3.org/2000/svg" width="16" height="16" fill="none" viewBox="0 0 16 16">
    <g fill="#808792" clip-path="url(#a)">
        <path d="M15 1H6a1 1 0 0 0 0 2h9a1 1 0 1 0 0-2zM15 7H6a1 1 0 0 0 0 2h9a1 1 0 1 0 0-2zM15 13H6a1 1 0 1 0 0 2h9a1 1 0 1 0 0-2zM.654 4a.286.286 0 0 1-.023-.57l.335-.027c.097-.007.11-.035.11-.139V.84c0-.083-.02-.125-.09-.145L.672.63A.318.318 0 0 1 .737 0h.5c.49 0 .888.398.888.889v2.375c0 .111.007.132.111.139l.308.026A.286.286 0 0 1 2.52 4H.654zM.49 10a.443.443 0 0 1-.31-.76l.774-.756c.684-.663.975-.934.975-1.32 0-.25-.122-.433-.48-.433-.19 0-.324.032-.41.127-.18.2-.35.455-.618.431-.238-.02-.431-.225-.368-.455C.245 6.128.93 6 1.536 6c1.05 0 1.422.447 1.422 1.083 0 .636-.44 1.056-.934 1.53l-.046.043a.4.4 0 0 0 .276.688c.067 0 .095-.014.108-.082L2.4 9.05a.39.39 0 0 1 .774.068v.246a.636.636 0 0 1-.636.636H.49zM2.344 13.671c.567.087.88.427.88 1.026 0 .88-.66 1.292-1.612 1.292-.514 0-.985-.14-1.33-.372-.175-.118-.174-.36-.033-.515.155-.17.415-.168.612-.05.18.109.392.178.671.178.373 0 .693-.133.693-.6 0-.406-.253-.572-.666-.572-.04 0-.078 0-.116.002-.199.009-.377-.137-.377-.336 0-.163.121-.3.283-.32l.043-.006c.48-.06.74-.293.74-.719 0-.253-.114-.46-.487-.46-.182 0-.317.032-.405.124-.185.193-.357.45-.624.426-.235-.02-.427-.223-.366-.45.184-.689.847-.819 1.442-.819 1.026 0 1.419.393 1.419 1.106 0 .555-.34.906-.756 1.035a.015.015 0 0 0-.01.015v.015z"/>
    </g>
    <defs>
        <clipPath id="a">
            <path fill="#ffffff" d="M0 0h16v16H0z"/>
        </clipPath>
    </defs>
</svg>
