<svg xmlns="http://www.w3.org/2000/svg" width="16" height="16" fill="none" viewBox="0 0 16 16">
    <path fill="#808792" fill-rule="evenodd" d="M15.871 8.492C15.744 8.716 12.707 14 8.001 14 3.268 14 .253 8.713.127 8.489a.998.998 0 0 1-.002-.975C.251 7.289 3.246 2 8 2c4.731 0 7.746 5.287 7.872 5.512a1 1 0 0 1 0 .98zM13.818 8C13.036 6.835 10.84 4 8 4 5.146 4 2.958 6.835 2.181 7.999 2.962 9.162 5.16 12 8.001 12c2.836 0 5.033-2.834 5.817-4z" clip-rule="evenodd"/>
    <path fill="#808792" d="M8 10a2 2 0 1 0 0-4 2 2 0 0 0 0 4z"/>
</svg>
