<?xml version="1.0" encoding="utf-8"?>
<!-- Generator: Adobe Illustrator 22.1.0, SVG Export Plug-In . SVG Version: 6.00 Build 0)  -->
<svg version="1.1" id="Слой_1" xmlns="http://www.w3.org/2000/svg" xmlns:xlink="http://www.w3.org/1999/xlink" x="0px" y="0px"
	 viewBox="0 0 16 16" style="enable-background:new 0 0 16 16;" xml:space="preserve">
<style type="text/css">
	.st0{fill:#F3F4F6;}
	.st1{fill:#FC2E5F;}
	.st2{fill:#0063DA;}
</style>
<path class="st0" d="M8,16c4.4,0,8-3.6,8-8c0-4.4-3.6-8-8-8C3.6,0,0,3.6,0,8C0,12.4,3.6,16,8,16z"/>
<g>
	<path class="st1" d="M14.8,3.8H7.7V1.7H13C13.7,2.3,14.3,3,14.8,3.8z"/>
	<path class="st1" d="M16,8H7.7V5.9h8.1C15.9,6.6,16,7.3,16,8z"/>
	<path class="st1" d="M8,16c1.9,0,3.6-0.7,5-1.7H3C4.4,15.3,6.1,16,8,16z"/>
	<path class="st1" d="M14.8,12.2H1.2c-0.4-0.6-0.7-1.3-0.9-2.1h15.4C15.5,10.8,15.2,11.5,14.8,12.2z"/>
</g>
<path class="st2" d="M3.7,1.2h0.7L3.8,1.7L4,2.5L3.3,2L2.7,2.5l0.2-0.7C2.3,2.3,1.8,2.9,1.3,3.6h0.2L1.1,3.9C1.1,4,1,4.1,0.9,4.2
	l0.2,0.6L0.8,4.6C0.7,4.8,0.6,5,0.5,5.2l0.2,0.7h0.8L0.9,6.4l0.3,0.8L0.5,6.7L0.1,7C0,7.3,0,7.7,0,8h8c0-4.4,0-4.9,0-8
	C6.4,0,4.9,0.5,3.7,1.2z M4,7.2L3.3,6.7L2.7,7.2l0.3-0.8L2.2,5.9h0.8l0.3-0.8l0.3,0.8h0.8L3.8,6.4L4,7.2z M3.8,4.1L4,4.9L3.3,4.4
	L2.7,4.9l0.3-0.8L2.2,3.6h0.8l0.3-0.8l0.3,0.8h0.8L3.8,4.1z M6.9,7.2L6.2,6.7L5.5,7.2l0.3-0.8L5.1,5.9h0.8l0.3-0.8l0.3,0.8h0.8
	L6.6,6.4L6.9,7.2z M6.6,4.1l0.3,0.8L6.2,4.4L5.5,4.9l0.3-0.8L5.1,3.6h0.8l0.3-0.8l0.3,0.8h0.8L6.6,4.1z M6.6,1.7l0.3,0.8L6.2,2
	L5.5,2.5l0.3-0.8L5.1,1.2h0.8l0.3-0.8l0.3,0.8h0.8L6.6,1.7z"/>
</svg>
