<svg xmlns="http://www.w3.org/2000/svg" width="94" height="14" fill="none" viewBox="0 0 94 14">
    <path fill="#fff" d="M5.708 13.813H1.486a1.447 1.447 0 0 1-1.13-.361 1.508 1.508 0 0 1-.348-1.129V1.567C.008.535.411.012 1.238.012c.828 0 1.227.523 1.227 1.59v10H5.57c1.109 0 1.633.36 1.633 1.107s-.499 1.122-1.496 1.122v-.018zM10.968 13.943c-.824 0-1.226-.505-1.226-1.533V1.567c0-1.032.402-1.555 1.226-1.555s1.226.523 1.226 1.555v10.82c0 1.029-.399 1.552-1.226 1.552v.004zM26.176 14a1.744 1.744 0 0 1-1.4-.804L18.216 4.3v8.144c0 .992-.422 1.497-1.245 1.497-.824 0-1.208-.505-1.208-1.515V1.502c0-.992.37-1.497 1.108-1.497.552.03 1.054.324 1.34.786l6.65 8.837V1.566c0-1.031.403-1.554 1.208-1.554.805 0 1.248.523 1.248 1.554v11.049c0 .916-.369 1.385-1.108 1.385h-.033zM40.006 13.964c-.37 0-.824-.245-1.304-.722l-5.64-5.77v4.98c0 1.01-.421 1.519-1.245 1.519-.824 0-1.212-.509-1.212-1.519V1.566c0-1.031.407-1.554 1.212-1.554.805 0 1.245.505 1.245 1.536v3.986L38.185.722c.499-.469.92-.721 1.245-.721.309-.012.609.102.828.315.218.213.336.505.325.807 0 .32-.27.721-.806 1.219L35.29 6.443l5.33 5.335c.325.286.524.682.558 1.107 0 .298-.125.583-.346.788-.222.205-.52.311-.825.294v-.003zM71.047.106h-.03a1.438 1.438 0 0 0-.2-.058 1.686 1.686 0 0 0-.313-.029 1.044 1.044 0 0 0-.916.422 1.842 1.842 0 0 0-.292 1.122v6.684a5.081 5.081 0 0 1-.37 2.077c0 .03-.026.062-.04.09-.062.121-.135.236-.218.343a2.339 2.339 0 0 1-.2.238l-.162.148a2.13 2.13 0 0 1-.296.206c-.063.036-.125.072-.196.104a2.746 2.746 0 0 1-.624.202c-.106.023-.213.04-.321.05-.126 0-.259.026-.395.03h-.163c-.271 0-.542-.025-.809-.072-1.038-.18-1.851-.974-2.035-1.988a6.22 6.22 0 0 1-.152-1.443V1.548c0-.757-.229-1.23-.676-1.442a1.456 1.456 0 0 0-.554-.101c-.809 0-1.208.505-1.208 1.536v6.854a5.995 5.995 0 0 0 .772 3.141l.074.123c.019.029.04.054.056.083.175.258.374.5.594.721 1.016.992 2.169 1.48 3.934 1.48 1.766 0 2.937-.488 3.934-1.461.998-.974 1.515-2.341 1.515-4.084V1.545c0-.786-.237-1.266-.706-1.443l-.003.004zM81.603 12.839a5.477 5.477 0 0 1-3.513 1.103 8.349 8.349 0 0 1-2.512-.39c-1.108-.36-1.67-.883-1.67-1.536a1.012 1.012 0 0 1 .334-.78c.22-.2.519-.299.82-.27.304.052.6.14.882.264l.957.36c.49.153 1.003.23 1.518.228a2.127 2.127 0 0 0 1.478-.599c.392-.368.613-.876.613-1.407 0-.804-.558-1.42-1.67-1.872l-3.106-1.244a3.139 3.139 0 0 1-1.666-2.886 3.384 3.384 0 0 1 1.4-2.846 5.168 5.168 0 0 1 3.165-.956c1.286 0 2.283.264 2.955.787.347.218.561.59.573.992a.87.87 0 0 1-.307.721c-.222.189-.51.288-.805.278a4.137 4.137 0 0 1-1.19-.336 4.214 4.214 0 0 0-1.362-.339 2.114 2.114 0 0 0-1.341.415 1.428 1.428 0 0 0-.536 1.198c-.017.396.188.77.536.973.483.268.99.494 1.514.675 1.056.348 2.067.813 3.014 1.385a3.3 3.3 0 0 1 1.382 2.828 3.978 3.978 0 0 1-1.478 3.246l.015.008zM92.445 13.812h-5.282c-1.072 0-1.478-.36-1.478-1.42V1.713c0-1.046.477-1.572 1.455-1.572h5.338c.998 0 1.496.375 1.496 1.125 0 .747-.499 1.122-1.514 1.122h-4.322v3.279h4.033c1.016 0 1.515.36 1.515 1.082 0 .721-.499 1.082-1.515 1.082h-4.048v3.77h4.381c.994 0 1.496.36 1.496 1.143 0 .782-.517 1.082-1.555 1.082v-.015zM57.633 1.278a.39.39 0 0 0 0-.065v-.069a.237.237 0 0 1 0-.05c0-.025 0-.054-.018-.08v-.04l-.026-.079v-.04L57.556.78V.744c0-.025-.026-.047-.037-.069l-.03-.043-.04-.058-.033-.046-.041-.047-.111-.062a.589.589 0 0 0-.048-.047l-.04-.036-.063-.047-.037-.028a.61.61 0 0 0-.082-.05h-.022l-.089-.044h-.029l-.089-.033h-.033l-.081-.021h-.684l-.077.025h-.044l-.07.032-.049.022-.059.033-.055.032-.048.032-.056.04-.04.033-.052.057-.037.036-.048.055a.53.53 0 0 0-.037.046.62.62 0 0 0-.04.05l-.041.062v.033l-4.658 9.237L45.894.701a.089.089 0 0 0 0-.033c0-.021-.026-.043-.04-.061a.618.618 0 0 0-.041-.05.53.53 0 0 0-.037-.047l-.048-.055L45.69.42l-.055-.05-.041-.033-.06-.04-.047-.032-.056-.032-.059-.033-.048-.021-.07-.033h-.044L45.133.12h-.569a.428.428 0 0 0-.066 0h-.048l-.082.022h-.033l-.088.032h-.03l-.089.043-.077.05-.04.03-.06.047-.044.036-.048.047a.253.253 0 0 0-.04.046l-.045.047-.033.047-.041.058a.272.272 0 0 0-.026.043.42.42 0 0 0-.04.069v.036L43.6.849v.04l-.026.079v.119a.25.25 0 0 1 0 .05.436.436 0 0 1 0 .069v11.401c.037.682.614 1.217 1.314 1.217.699 0 1.276-.535 1.313-1.216V6.114l3.324 6.998c.23.386.65.628 1.108.638h.085a1.32 1.32 0 0 0 1.109-.638l3.324-6.998v6.492c0 .71.589 1.285 1.315 1.285s1.315-.575 1.315-1.284V1.32v-.043h-.148z"/>
</svg>
