<svg xmlns="http://www.w3.org/2000/svg" width="16" height="16" fill="none" viewBox="0 0 16 16">
    <path fill="#282a36" d="M4.492 16c-1.184 0-2.27-.5-3.16-1.3-1.776-1.8-1.776-4.6 0-6.4a.977.977 0 0 1 1.388.004.989.989 0 0 1 .004 1.387l-.009.009c-.987 1-.987 2.6 0 3.6s2.567 1 3.554 0l2.962-3c.988-1 .988-2.6 0-3.6l-.008-.009a.989.989 0 0 1 .004-1.387.977.977 0 0 1 1.387-.004c1.777 1.8 1.777 4.6 0 6.4l-2.962 3c-.79.8-1.975 1.3-3.16 1.3z"/>
    <path fill="#282a36" d="M6.773 10.695a.977.977 0 0 1-1.387.005c-1.777-1.8-1.777-4.6 0-6.4l2.962-3C9.237.4 10.323 0 11.508 0c1.184 0 2.27.5 3.159 1.3 1.777 1.8 1.777 4.6 0 6.4a.977.977 0 0 1-1.387-.005.99.99 0 0 1-.004-1.386l.009-.009c.987-1 .987-2.6 0-3.6-.988-1-2.567-1-3.555 0l-2.962 3c-.987 1-.987 2.6 0 3.6l.01.009a.989.989 0 0 1-.005 1.386z"/>
</svg>
