<svg xmlns="http://www.w3.org/2000/svg" width="16" height="16" fill="none" viewBox="0 0 16 16">
    <path fill="#0063DA" d="M7.652.336a.5.5 0 0 1 .696 0l1.454 1.407a.5.5 0 0 0 .418.136l2.003-.283a.5.5 0 0 1 .563.408l.35 1.993a.5.5 0 0 0 .258.356l1.787.948a.5.5 0 0 1 .215.661l-.889 1.818a.5.5 0 0 0 0 .44l.889 1.818a.5.5 0 0 1-.215.66l-1.787.95a.5.5 0 0 0-.258.355l-.35 1.993a.5.5 0 0 1-.563.408l-2.003-.283a.5.5 0 0 0-.418.136l-1.454 1.407a.5.5 0 0 1-.696 0l-1.454-1.407a.5.5 0 0 0-.418-.136l-2.003.283a.5.5 0 0 1-.563-.408l-.35-1.993a.5.5 0 0 0-.258-.356L.82 10.7a.5.5 0 0 1-.215-.661l.889-1.818a.5.5 0 0 0 0-.44L.604 5.962a.5.5 0 0 1 .215-.66l1.787-.95a.5.5 0 0 0 .259-.355l.35-1.993a.5.5 0 0 1 .562-.408l2.003.283a.5.5 0 0 0 .418-.136L7.652.336z"/>
    <path fill="#fff" d="M10.947 6.854a.5.5 0 0 0 0-.708l-.343-.343a.5.5 0 0 0-.707 0L7.604 8.096a.5.5 0 0 1-.707 0l-.793-.793a.5.5 0 0 0-.707 0l-.343.343a.5.5 0 0 0 0 .708l1.843 1.842a.5.5 0 0 0 .707 0l3.343-3.342z"/>
</svg>
