<svg xmlns="http://www.w3.org/2000/svg">
  <symbol id="icon_attention" viewBox="0 0 16 16">
    <path fill-rule="evenodd"
          d="M0 8c0-4.4 3.6-8 8-8s8 3.6 8 8-3.6 8-8 8-8-3.6-8-8zm2 0c0 3.3 2.7 6 6 6s6-2.7 6-6-2.7-6-6-6-6 2.7-6 6z"
          clip-rule="evenodd"/>
    <path d="M7 4h2v5H7V4zM8 12a1 1 0 1 0 0-2 1 1 0 0 0 0 2z"/>
  </symbol>
  <symbol id="icon_info" viewBox="0 0 16 16">
    <path fill-rule="evenodd"
          d="M0 8c0-4.4 3.6-8 8-8s8 3.6 8 8-3.6 8-8 8-8-3.6-8-8zm2 0c0 3.3 2.7 6 6 6s6-2.7 6-6-2.7-6-6-6-6 2.7-6 6z"
          clip-rule="evenodd"/>
    <path d="M7 7h2v5H7V7zM8 6a1 1 0 1 0 0-2 1 1 0 0 0 0 2z"/>
  </symbol>
  <symbol id="icon_upload" viewBox="0 0 16 16">
    <path fill-rule="evenodd"
          d="M7 12V3.4l-4 4L1.6 6 7.3.3c.4-.4 1-.4 1.4 0L14.4 6 13 7.4l-4-4V12H7zm-5 2h12v-3h2v4c0 .6-.4 1-1 1H1c-.6 0-1-.4-1-1v-4h2v3z"
          clip-rule="evenodd"/>
  </symbol>
  <symbol id="icon_dropdown" viewBox="0 0 16 16">
    <path d="M8 10L4.5 6.824 5.407 6 8 8.353 10.593 6l.907.824L8 10z"/>
  </symbol>
  <symbol style="fill: #FFFFFF" id="checkbox__mark" viewBox="0 0 16 16">
    <path d="M12.4 6L11 4.6l-4 4-2-2L3.6 8l2.693 2.693a1 1 0 0 0 1.414 0L12.4 6z"/>
  </symbol>
  <symbol id="icon_loader" viewBox="0 0 16 16">
    <path d="M3.757 3.757a6 6 0 0 1 8.485 8.485l1.415 1.415A8 8 0 0 0 2.343 2.342l1.414 1.414z"/>
  </symbol>


  <symbol id="icon_back" viewBox="0 0 16 16">
    <path d="M6.7 14.4L8.1 13 3.8 8.7H16v-2H3.8l4.3-4.3L6.7 1 .707 6.993a1 1 0 0 0 0 1.414L6.7 14.4z"/>
  </symbol>
  <symbol id="icon_like" viewBox="0 0 16 16">
    <path
      d="M14.682 2.318a4.5 4.5 0 0 0-6.364 0 .438.438 0 0 1-.636 0 4.5 4.5 0 0 0-6.364 6.364l5.308 5.019a2 2 0 0 0 2.748 0l5.308-5.019a4.5 4.5 0 0 0 0-6.364z"/>
  </symbol>
  <symbol id="icon_share" viewBox="0 0 16 16">
    <path
      d="M11 6c1.654 0 3-1.346 3-3s-1.346-3-3-3-3 1.346-3 3c0 .223.029.439.075.649l-3.22 2.012A2.97 2.97 0 0 0 3 5C1.346 5 0 6.346 0 8s1.346 3 3 3a2.97 2.97 0 0 0 1.855-.661l3.22 2.012c-.046.21-.075.426-.075.649 0 1.654 1.346 3 3 3s3-1.346 3-3-1.346-3-3-3a2.97 2.97 0 0 0-1.855.661l-3.22-2.012C5.971 8.439 6 8.223 6 8c0-.223-.029-.439-.075-.649l3.22-2.012A2.97 2.97 0 0 0 11 6z"/>
  </symbol>
  <symbol id="icon_chat" viewBox="0 0 16 16">
    <path
      d="M8 0c4.4 0 8 3.1 8 7s-3.6 7-8 7c-.25 0-.502 0-.728-.025-.244-.026-.496-.022-.721.075l-3.157 1.353A1 1 0 0 1 2 14.483v-2.469c0-.265-.108-.517-.285-.715C.675 10.14 0 8.654 0 7c0-3.9 3.6-7 8-7z"/>
  </symbol>
  <symbol id="icon_options" viewBox="0 0 16 16">
    <path fill-rule="evenodd"
          d="M4 8a2 2 0 1 1-4 0 2 2 0 0 1 4 0zm6 0a2 2 0 1 1-4 0 2 2 0 0 1 4 0zm4 2a2 2 0 1 0 0-4 2 2 0 0 0 0 4z"
          clip-rule="evenodd"/>
  </symbol>

  <symbol id="icon_eye" viewBox="0 0 16 16">
    <path
      d="M8 14c3.6 0 6.4-3.1 7.6-4.9.5-.7.5-1.6 0-2.3C14.4 5.1 11.6 2 8 2 4.4 2 1.6 5.1.4 6.9c-.5.7-.5 1.6 0 2.2C1.6 10.9 4.4 14 8 14zm0-9c1.7 0 3 1.3 3 3s-1.3 3-3 3-3-1.3-3-3 1.3-3 3-3z"/>
  </symbol>

  <symbol id="icon_info" viewBox="0 0 16 16">
    <path fill-opacity=".32" fill-rule="evenodd"
          d="M0 8c0-4.4 3.6-8 8-8s8 3.6 8 8-3.6 8-8 8-8-3.6-8-8zm2 0c0 3.3 2.7 6 6 6s6-2.7 6-6-2.7-6-6-6-6 2.7-6 6z"
          clip-rule="evenodd"/>
    <path fill-opacity=".32" d="M7 7h2v5H7V7zM8 6a1 1 0 1 0 0-2 1 1 0 0 0 0 2z"/>
  </symbol>

  <symbol id="icon_invite" viewBox="0 0 64 64">
    <path fill-rule="evenodd"
          d="M2.635 18.147a1.68 1.68 0 0 1 .344-.137L58.8 2.06c2.8-.4 5.2 1.2 5.2 4v47.6c0 2.8-2.8 4.8-5.2 4l-20.26-5.686A2 2 0 0 0 36 53.9v4.16c0 2.4-1.6 4-4 4H12c-2.4 0-4-1.6-4-4V44.853a2 2 0 0 0-1.55-1.949l-3.418-.789a1.683 1.683 0 0 1-.442-.164C1.096 41.119 0 39.59 0 38.06v-16c0-1.544 1.118-3.088 2.635-3.913zM16 52.06a2 2 0 0 0 2 2h8a2 2 0 0 0 2-2v-1.312a2 2 0 0 0-1.425-1.916l-8-2.4A2 2 0 0 0 16 48.35v3.712z"
          clip-rule="evenodd"/>
  </symbol>

  <symbol id="icon_edit" viewBox="0 0 16 16">
    <path fill-rule="evenodd"
          d="M11.7.3c-.4-.4-1-.4-1.4 0l-10 10c-.2.2-.3.4-.3.7v4c0 .6.4 1 1 1h4c.3 0 .5-.1.7-.3l10-10c.4-.4.4-1 0-1.4l-4-4zM4.6 14H2v-2.6l6-6L10.6 8l-6 6zM9.4 4L12 6.6 13.6 5 11 2.4 9.4 4z"
          clip-rule="evenodd"/>
  </symbol>

  <symbol id="icon_profile" viewBox="0 0 16 16">
    <path
      d="M8 9C5.8 9 4 7.2 4 5V4c0-2.2 1.8-4 4-4s4 1.8 4 4v1c0 2.2-1.8 4-4 4zM10 11H6c-2.105 0-3.87 1.243-4.618 3.05C.96 15.07 1.895 16 3 16h10c1.105 0 2.04-.93 1.618-1.95C13.87 12.243 12.105 11 10 11z"/>
  </symbol>

  <symbol id="icon_search" viewBox="0 0 16 16">
    <path fill-rule="evenodd"
          d="M14.1 7.056c0 1.59-.5 2.981-1.4 4.174l3 3.08c.4.398.4.994 0 1.392-.2.199-.5.298-.7.298-.2 0-.5-.1-.7-.298l-3-2.982c-1.1.895-2.6 1.392-4.2 1.392-3.9 0-7.1-3.18-7.1-7.056S3.2 0 7.1 0c3.9 0 7 3.18 7 7.056zm-12.1 0c0 2.783 2.3 4.969 5.1 4.969s5.1-2.186 5.1-4.97c0-2.782-2.3-5.067-5.1-5.067S2 4.273 2 7.056z"
          clip-rule="evenodd"/>
  </symbol>

  <symbol id="icon_filter" viewBox="0 0 16 16">
    <path
      d="M15 3h-4c-.6 0-1 .4-1 1s.4 1 1 1h4c.6 0 1-.4 1-1s-.4-1-1-1zM5 1c-1.3 0-2.4.9-2.8 2H1c-.6 0-1 .4-1 1s.4 1 1 1h1.2C2.6 6.1 3.7 7 5 7c1.7 0 3-1.3 3-3S6.7 1 5 1zM1 13h4c.6 0 1-.4 1-1s-.4-1-1-1H1c-.6 0-1 .4-1 1s.4 1 1 1zM15 11h-1.2c-.4-1.2-1.5-2-2.8-2-1.7 0-3 1.3-3 3s1.3 3 3 3c1.3 0 2.4-.9 2.8-2H15c.6 0 1-.4 1-1s-.4-1-1-1z"/>
  </symbol>

  <symbol id="icon_plus" viewBox="0 0 16 16">
    <path
      d="M12.738 6.75H9.242v-3.4c0-.6-.4-1-1-1h-.399c-.599 0-.999.4-.999 1v3.4H3.348c-.599 0-.998.4-.998 1v.5c0 .6.4 1 .998 1h3.397v3.4c0 .6.4 1 .998 1h.5c.6 0 .999-.4.999-1v-3.5h3.396c.6 0 .999-.4.999-1v-.4c.1-.6-.4-1-.9-1z"/>
  </symbol>

  <symbol id="lm-wait" viewBox="0 0 64 64">
    <path fill-rule="evenodd"
          d="M32 0C14.4 0 0 14.4 0 32s14.4 32 32 32 32-14.4 32-32S49.6 0 32 0zm0 56C18.8 56 8 45.2 8 32S18.8 8 32 8s24 10.8 24 24-10.8 24-24 24zm-4-20V16h8v12h12v8H28z"
          clip-rule="evenodd"/>
  </symbol>

  <symbol id="lm-close" viewBox="0 0 16 16">
    <path
      d="M10.467 3.766L7.995 6.238 5.59 3.834c-.424-.425-.99-.425-1.413-.001l-.283.282c-.423.424-.423.99.001 1.414L6.3 7.933l-2.472 2.472c-.423.424-.423.99.001 1.413l.354.354c.424.424.99.425 1.413 0l2.402-2.4 2.404 2.403c.424.425.99.425 1.413.001l.353-.353c.424-.424.424-.989 0-1.413L9.691 7.935l2.401-2.402c.424-.423.424-.989 0-1.413l-.284-.283c-.353-.495-.99-.424-1.342-.071z"/>
  </symbol>

  <symbol id="navigation_lm-chevron-right" viewBox="0 0 16 16">
    <path
      d="M10.362 7.317a1 1 0 0 1 0 1.366L7.58 11.662a.752.752 0 0 1-1.1-1.027l1.824-1.952a1 1 0 0 0 0-1.366L6.48 5.365a.752.752 0 1 1 1.1-1.027l2.782 2.98z"/>
  </symbol>

  <symbol id="lm-language-eng" viewBox="0 0 16 16">
    <path style="fill: #F3F4F6" d="M8,16c4.4,0,8-3.6,8-8c0-4.4-3.6-8-8-8C3.6,0,0,3.6,0,8C0,12.4,3.6,16,8,16z"/>
    <g>
      <path style="fill: #FC2E5F" d="M14.8,3.8H7.7V1.7H13C13.7,2.3,14.3,3,14.8,3.8z"/>
      <path style="fill: #FC2E5F" d="M16,8H7.7V5.9h8.1C15.9,6.6,16,7.3,16,8z"/>
      <path style="fill: #FC2E5F" d="M8,16c1.9,0,3.6-0.7,5-1.7H3C4.4,15.3,6.1,16,8,16z"/>
      <path style="fill: #FC2E5F" d="M14.8,12.2H1.2c-0.4-0.6-0.7-1.3-0.9-2.1h15.4C15.5,10.8,15.2,11.5,14.8,12.2z"/>
    </g>
    <path style="fill: #0063DA" d="M3.7,1.2h0.7L3.8,1.7L4,2.5L3.3,2L2.7,2.5l0.2-0.7C2.3,2.3,1.8,2.9,1.3,3.6h0.2L1.1,3.9C1.1,4,1,4.1,0.9,4.2
			l0.2,0.6L0.8,4.6C0.7,4.8,0.6,5,0.5,5.2l0.2,0.7h0.8L0.9,6.4l0.3,0.8L0.5,6.7L0.1,7C0,7.3,0,7.7,0,8h8c0-4.4,0-4.9,0-8
			C6.4,0,4.9,0.5,3.7,1.2z M4,7.2L3.3,6.7L2.7,7.2l0.3-0.8L2.2,5.9h0.8l0.3-0.8l0.3,0.8h0.8L3.8,6.4L4,7.2z M3.8,4.1L4,4.9L3.3,4.4
			L2.7,4.9l0.3-0.8L2.2,3.6h0.8l0.3-0.8l0.3,0.8h0.8L3.8,4.1z M6.9,7.2L6.2,6.7L5.5,7.2l0.3-0.8L5.1,5.9h0.8l0.3-0.8l0.3,0.8h0.8
			L6.6,6.4L6.9,7.2z M6.6,4.1l0.3,0.8L6.2,4.4L5.5,4.9l0.3-0.8L5.1,3.6h0.8l0.3-0.8l0.3,0.8h0.8L6.6,4.1z M6.6,1.7l0.3,0.8L6.2,2
			L5.5,2.5l0.3-0.8L5.1,1.2h0.8l0.3-0.8l0.3,0.8h0.8L6.6,1.7z"/>
  </symbol>

  <symbol id="lm-language-rus" viewBox="0 0 16 16">
    <path style="fill: #FC2E5F" d="M15.5,10.7h-15C1.6,13.8,4.5,16,8,16S14.4,13.8,15.5,10.7z"/>
    <path style="fill: #0063DA"
          d="M0.5,5.3C0.2,6.2,0,7.1,0,8c0,0.9,0.2,1.9,0.5,2.7h15C15.8,9.9,16,8.9,16,8c0-0.9-0.2-1.8-0.5-2.7H0.5z"/>
    <path style="fill: #F3F4F6" d="M0.5,5.3h15.1C14.4,2.2,11.5,0,8,0S1.6,2.2,0.5,5.3z"/>
  </symbol>

  <symbol id="lm-logo" viewBox="0 0 80 12">
    <path
      d="M4.858 11.84H1.265a1.227 1.227 0 0 1-.962-.31 1.299 1.299 0 0 1-.296-.967v-9.22C.007.459.35.01 1.054.01S2.098.46 2.098 1.374v8.57h2.644c.943 0 1.39.31 1.39.95 0 .64-.425.96-1.274.96v-.014zM9.334 11.95c-.7 0-1.043-.432-1.043-1.313V1.343C8.29.459 8.633.01 9.334.01c.702 0 1.044.449 1.044 1.333v9.275c0 .881-.34 1.33-1.044 1.33v.003zM22.277 12a1.482 1.482 0 0 1-1.191-.69l-5.583-7.624v6.982c0 .85-.359 1.283-1.06 1.283-.7 0-1.028-.433-1.028-1.299V1.287c0-.85.315-1.283.943-1.283.47.026.897.278 1.141.674l5.66 7.575v-6.91c0-.885.342-1.333 1.027-1.333.686 0 1.063.448 1.063 1.333v9.47c0 .785-.314 1.187-.943 1.187h-.029zM34.048 11.969c-.315 0-.701-.21-1.11-.618l-4.8-4.947v4.27c0 .865-.359 1.301-1.06 1.301-.7 0-1.031-.436-1.031-1.301V1.343c0-.885.346-1.333 1.031-1.333.686 0 1.06.433 1.06 1.317v3.417l4.36-4.125c.424-.402.783-.618 1.06-.618a.952.952 0 0 1 .704.27.92.92 0 0 1 .276.691c0 .275-.23.619-.685 1.045l-3.82 3.516 4.537 4.572c.276.245.446.585.474.95a.92.92 0 0 1-.294.675.952.952 0 0 1-.702.252v-.003zM60.465.09h-.025a1.216 1.216 0 0 0-.437-.074.886.886 0 0 0-.78.362c-.183.287-.27.623-.248.962v5.729a4.384 4.384 0 0 1-.314 1.78c0 .025-.022.053-.035.078a1.87 1.87 0 0 1-.185.294c-.053.072-.11.14-.17.204l-.139.126a1.815 1.815 0 0 1-.25.177c-.054.03-.108.061-.168.09a2.327 2.327 0 0 1-.53.172c-.091.02-.182.034-.274.044-.107 0-.22.021-.337.024h-.138a3.92 3.92 0 0 1-.689-.061 2.12 2.12 0 0 1-1.732-1.704 5.37 5.37 0 0 1-.129-1.237V1.327c0-.649-.195-1.054-.575-1.236C53.16.03 53 0 52.839.004c-.689 0-1.029.433-1.029 1.317v5.874c-.03.94.197 1.87.657 2.693l.063.105c.016.025.035.047.047.072.15.22.32.428.507.618.864.85 1.845 1.268 3.348 1.268 1.502 0 2.5-.418 3.348-1.253.849-.834 1.289-2.006 1.289-3.5V1.325c0-.674-.201-1.085-.6-1.237l-.004.004zM69.45 11.005a4.639 4.639 0 0 1-2.99.946 7.057 7.057 0 0 1-2.138-.334c-.943-.31-1.421-.758-1.421-1.317a.87.87 0 0 1 .283-.668.902.902 0 0 1 .698-.232 3.2 3.2 0 0 1 .751.226l.815.309c.417.13.853.196 1.292.194a1.804 1.804 0 0 0 1.257-.513c.334-.315.522-.75.522-1.205 0-.69-.475-1.219-1.421-1.605l-2.644-1.067a2.694 2.694 0 0 1-1.418-2.473 2.907 2.907 0 0 1 1.192-2.44 4.376 4.376 0 0 1 2.694-.819c1.094 0 1.943.226 2.515.674.295.187.477.505.487.85a.748.748 0 0 1-.26.619c-.19.161-.435.246-.686.238a3.502 3.502 0 0 1-1.012-.288 3.565 3.565 0 0 0-1.16-.29 1.79 1.79 0 0 0-1.142.355c-.31.251-.479.633-.456 1.027-.014.339.16.66.456.834.412.23.843.424 1.29.579.898.298 1.758.696 2.565 1.187a2.837 2.837 0 0 1 1.175 2.424 3.42 3.42 0 0 1-1.257 2.782l.013.007zM78.677 11.84H74.18c-.912 0-1.258-.31-1.258-1.22V1.47c0-.897.406-1.349 1.239-1.349h4.543c.849 0 1.273.322 1.273.965 0 .64-.424.961-1.289.961h-3.678v2.81h3.433c.864 0 1.289.31 1.289.928 0 .619-.425.928-1.29.928h-3.445v3.23h3.729c.845 0 1.273.31 1.273.98 0 .672-.44.928-1.323.928v-.012zM49.05 1.095a.323.323 0 0 0 0-.055V.98a.209.209 0 0 1 0-.042c0-.022 0-.047-.016-.068V.836l-.022-.068V.734l-.028-.065V.638c0-.022-.022-.04-.032-.06l-.025-.036-.035-.05-.028-.04-.034-.04-.095-.053a.491.491 0 0 0-.04-.04L48.66.29l-.054-.04-.031-.026a.52.52 0 0 0-.07-.043h-.018l-.076-.037h-.025l-.075-.028h-.028l-.07-.018h-.581l-.066.021h-.038l-.06.028-.04.019-.05.027-.048.028-.04.028-.048.034-.034.028-.045.05-.031.03-.04.047a.46.46 0 0 0-.032.04.537.537 0 0 0-.035.043l-.035.053V.6l-3.964 7.918L39.06.6a.077.077 0 0 0 0-.028c0-.019-.022-.037-.035-.053a.537.537 0 0 0-.034-.043.442.442 0 0 0-.032-.04l-.04-.047-.032-.03-.047-.044-.035-.028-.05-.034-.041-.028L38.666.2l-.05-.028-.041-.019-.06-.028h-.038l-.066-.021h-.484a.361.361 0 0 0-.056 0h-.041l-.07.018h-.028l-.075.028h-.025l-.076.037-.066.044-.035.024-.05.04-.038.031-.04.04a.217.217 0 0 0-.035.04l-.038.041-.028.04-.035.05a.241.241 0 0 0-.022.037.364.364 0 0 0-.034.058v.031l-.028.065v.034l-.022.068V.931a.209.209 0 0 1 0 .044v9.832a1.111 1.111 0 0 0 1.117 1.042c.595 0 1.086-.458 1.118-1.043V5.241l2.83 5.998c.195.332.552.54.942.548h.073c.39-.009.747-.216.943-.548l2.83-5.998v5.566c0 .607.5 1.1 1.118 1.1a1.11 1.11 0 0 0 1.12-1.1V1.131v-.037h-.126z"/>
  </symbol>

  <symbol id="lm-home" viewBox="0 0 16 16">
    <path
      d="M0 7.078V15a1 1 0 0 0 1 1h3.5a1 1 0 0 0 1-1v-3a1 1 0 0 1 1-1h3a1 1 0 0 1 1 1v3a1 1 0 0 0 1 1H15a1 1 0 0 0 1-1V7.078a3 3 0 0 0-1.3-2.472l-5-3.438a3 3 0 0 0-3.4 0l-5 3.438A3 3 0 0 0 0 7.078z"/>
  </symbol>

  <symbol id="lm-menu" viewBox="0 0 16 16">
    <path
      d="M15 1.25H1a1 1 0 0 0-1 1v.5a1 1 0 0 0 1 1h14a1 1 0 0 0 1-1v-.5a1 1 0 0 0-1-1zM13 6.75H3a1 1 0 0 0-1 1v.5a1 1 0 0 0 1 1h10a1 1 0 0 0 1-1v-.5a1 1 0 0 0-1-1zM15 12.25H1a1 1 0 0 0-1 1v.5a1 1 0 0 0 1 1h14a1 1 0 0 0 1-1v-.5a1 1 0 0 0-1-1z"/>
  </symbol>

  <symbol id="lm-notification" viewBox="0 0 16 16">
    <path
      d="M10 14H6c0 1.1.9 2 2 2s2-.9 2-2zM15 11h-.5c-.7-.7-1.5-1.7-1.5-3V5c0-2.8-2.2-5-5-5S3 2.2 3 5v3c0 1.3-.8 2.3-1.5 3H1c-.6 0-1 .4-1 1s.4 1 1 1h14c.6 0 1-.4 1-1s-.4-1-1-1z"/>
  </symbol>

  <symbol id="lm-chest" viewBox="0 0 12 12">
    <path d="M12 0H0v2h12V0zM9.818 5H2.182v2h7.636V5zM9.818 10H2.182v2h7.636v-2z"/>
  </symbol>
  <symbol id="lm-height" viewBox="0 0 13 13">
    <path
      d="M8.286.5V0h-.5v.5h.5zM12.5.5h.5V0h-.5v.5zm0 12v.5h.5v-.5h-.5zm-4.214 0h-.5v.5h.5v-.5zM.5 5.467v-.5H0v.5h.5zm4.725 0h.5v-.5h-.5v.5zm0 3.193l.402.297.098-.132V8.66h-.5zm-1.12 1.52l-.403-.297-.098.133v.164h.5zm0 2.278v.5h.5v-.5h-.5zm-2.428 0h-.5v.5h.5v-.5zm0-2.278h.5v-.202l-.14-.146-.36.348zM.5 8.963H0v.202l.14.145.36-.347zm3.674-6.827c0 .583-.537 1.137-1.306 1.137v1c1.226 0 2.306-.912 2.306-2.137h-1zM2.868 3.273c-.769 0-1.306-.554-1.306-1.137h-1c0 1.225 1.08 2.137 2.306 2.137v-1zM1.562 2.136C1.562 1.554 2.099 1 2.868 1V0C1.642 0 .562.911.562 2.136h1zM2.868 1c.769 0 1.306.554 1.306 1.136h1C5.174.911 4.094 0 2.868 0v1zm5.418 0H12.5V0H8.286v1zM12 .5v12h1V.5h-1zm.5 11.5H8.286v1H12.5v-1zm-3.714.5V.5h-1v12h1zm-.199-9.045h2.128v-1H8.587v1zm0 4.363h2.128v-1H8.587v1zm0-2.182h1.535v-1H8.587v1zm0 4.364h1.535V9H8.587v1zM.5 5.967h4.725v-1H.5v1zm4.225-.5V8.66h1V5.467h-1zm.097 2.897l-1.12 1.52.805.593 1.12-1.52-.805-.593zM3.604 10.18v2.278h1V10.18h-1zm.5 1.778H1.677v1h2.427v-1zm-1.927.5V10.18h-1v2.278h1zm-.14-2.626L.858 8.615l-.718.695 1.176 1.218.72-.696zM1 8.962V5.468H0v3.496h1z"/>
  </symbol>
  <symbol id="lm-hips" viewBox="0 0 12 12">
    <path d="M12 10H0v2h12v-2zM9.818 0H2.182v2h7.636V0zM9.818 5H2.182v2h7.636V5z"/>
  </symbol>
  <symbol id="lm-waist" viewBox="0 0 12 12">
    <path d="M12 5H0v2h12V5zM9.818 0H2.182v2h7.636V0zM9.818 10H2.182v2h7.636v-2z"/>
  </symbol>
  <symbol id="lm-weight" viewBox="0 0 13 13">
    <path
      d="M.5.5V0H0v.5h.5zm12 0h.5V0h-.5v.5zm0 12v.5h.5v-.5h-.5zm-12 0H0v.5h.5v-.5zm9.818-6l.005.5.495-.004V6.5h-.5zm-7.636 0h-.5v.497L2.679 7l.003-.5zm4.23-2.2L5.547 6.21l.813.58 1.364-1.908-.814-.582zM.5 1h12V0H.5v1zM12 .5v12h1V.5h-1zm.5 11.5H.5v1h12v-1zM1 12.5V.5H0v12h1zm9.818-6A4.318 4.318 0 0 0 6.5 2.182v1A3.318 3.318 0 0 1 9.818 6.5h1zM6.5 2.182A4.318 4.318 0 0 0 2.182 6.5h1A3.318 3.318 0 0 1 6.5 3.182v-1zM2.679 7c4.917.031 3.22.04 7.644 0l-.01-1c-4.416.04-2.711.031-7.628 0l-.006 1z"/>
  </symbol>

  <symbol id="round_lm-verification" viewBox="0 0 16 16">
    <path fill="#0063DA"
          d="M7.652.336a.5.5 0 0 1 .696 0l1.454 1.407a.5.5 0 0 0 .418.136l2.003-.283a.5.5 0 0 1 .563.408l.35 1.993a.5.5 0 0 0 .258.356l1.787.948a.5.5 0 0 1 .215.661l-.889 1.818a.5.5 0 0 0 0 .44l.889 1.818a.5.5 0 0 1-.215.66l-1.787.95a.5.5 0 0 0-.258.355l-.35 1.993a.5.5 0 0 1-.563.408l-2.003-.283a.5.5 0 0 0-.418.136l-1.454 1.407a.5.5 0 0 1-.696 0l-1.454-1.407a.5.5 0 0 0-.418-.136l-2.003.283a.5.5 0 0 1-.563-.408l-.35-1.993a.5.5 0 0 0-.258-.356L.82 10.7a.5.5 0 0 1-.215-.661l.889-1.818a.5.5 0 0 0 0-.44L.604 5.962a.5.5 0 0 1 .215-.66l1.787-.95a.5.5 0 0 0 .259-.355l.35-1.993a.5.5 0 0 1 .562-.408l2.003.283a.5.5 0 0 0 .418-.136L7.652.336z"/>
    <path fill="#fff"
          d="M10.947 6.854a.5.5 0 0 0 0-.708l-.343-.343a.5.5 0 0 0-.707 0L7.604 8.096a.5.5 0 0 1-.707 0l-.793-.793a.5.5 0 0 0-.707 0l-.343.343a.5.5 0 0 0 0 .708l1.843 1.842a.5.5 0 0 0 .707 0l3.343-3.342z"/>
  </symbol>


  <symbol id="lm-close" viewBox="0 0 16 16">
    <path
      d="M10.466 3.766L7.995 6.238 5.59 3.834c-.424-.425-.99-.425-1.413-.001l-.283.282c-.423.424-.423.99.001 1.414L6.3 7.933l-2.472 2.472c-.424.424-.423.99.001 1.413l.354.354c.424.424.99.425 1.413 0l2.401-2.4 2.405 2.403c.424.425.99.425 1.413.001l.353-.353c.424-.424.424-.989 0-1.413L9.69 7.935l2.402-2.402c.424-.423.423-.989 0-1.413l-.284-.283c-.353-.495-.99-.424-1.342-.071z"/>
  </symbol>

  <symbol id="lm-dropdown" viewBox="0 0 16 16">
    <path d="M8 6L4.5 9.176l.907.824L8 7.647 10.593 10l.907-.824L8 6z"/>
  </symbol>

  <symbol id="lm-arrow-left" viewBox="0 0 16 16">
    <path d="M6.7 14.4L8.1 13 3.8 8.7H16v-2H3.8l4.3-4.3L6.7 1 .707 6.993a1 1 0 0 0 0 1.414L6.7 14.4z"/>
  </symbol>

  <symbol id="lm-chevron-right" viewBox="0 0 16 16">
    <path
      d="M10.362 7.317a1 1 0 0 1 0 1.366L7.58 11.662a.752.752 0 0 1-1.1-1.027l1.824-1.952a1 1 0 0 0 0-1.366L6.48 5.365a.752.752 0 1 1 1.1-1.027l2.782 2.98z"/>
  </symbol>

  <symbol id="logo__label_hr" viewBox="0 0 144 18" width="144" height="18">
    <path fill="#0063DA"
          d="M129.815 15.5a1 1 0 0 0 1-1v-11a1 1 0 0 0-1-1h-.284a1 1 0 0 0-1 1v3.405a1 1 0 0 1-1 1h-4.238a1 1 0 0 1-1-1V3.5a1 1 0 0 0-1-1H121a1 1 0 0 0-1 1v11a1 1 0 0 0 1 1h.293a1 1 0 0 0 1-1v-3.64a1 1 0 0 1 1-1h4.238a1 1 0 0 1 1 1v3.64a1 1 0 0 0 1 1h.284zM136.384 5.383a1 1 0 0 1 1-1h1.542c1.448 0 2.346.847 2.346 2.216 0 1.405-.844 2.225-2.302 2.225h-1.586a1 1 0 0 1-1-1V5.383zm0 6.225a1 1 0 0 1 1-1h.87a1 1 0 0 1 .889.542l1.965 3.809c.172.332.515.541.889.541h.336a1 1 0 0 0 .882-1.471l-1.472-2.757c-.286-.536-.017-1.195.459-1.572.908-.719 1.416-1.854 1.416-3.155 0-2.486-1.662-4.045-4.434-4.045h-4.092a1 1 0 0 0-1 1v11a1 1 0 0 0 1 1h.292a1 1 0 0 0 1-1v-2.892z"/>
    <rect width="2" height="18" x="106" fill="#0063DA" rx="1"/>
    <path fill="#0063DA"
          d="M5.708 15.813H1.486a1.447 1.447 0 0 1-1.13-.361 1.508 1.508 0 0 1-.348-1.129V3.567c0-1.032.403-1.555 1.23-1.555.828 0 1.227.523 1.227 1.59v10H5.57c1.109 0 1.633.36 1.633 1.107s-.499 1.122-1.496 1.122v-.018zM10.968 15.943c-.824 0-1.226-.505-1.226-1.533V3.567c0-1.032.402-1.555 1.226-1.555s1.226.523 1.226 1.555v10.82c0 1.029-.399 1.552-1.226 1.552v.004zM26.176 16a1.744 1.744 0 0 1-1.4-.804L18.216 6.3v8.144c0 .992-.422 1.497-1.245 1.497-.824 0-1.208-.505-1.208-1.515V3.502c0-.992.37-1.497 1.108-1.497.552.03 1.054.324 1.34.786l6.65 8.837V3.566c0-1.031.403-1.554 1.208-1.554.805 0 1.248.523 1.248 1.554v11.049c0 .916-.369 1.385-1.108 1.385h-.033zM40.006 15.964c-.37 0-.824-.245-1.304-.722l-5.64-5.77v4.98c0 1.01-.421 1.519-1.245 1.519-.824 0-1.212-.509-1.212-1.519V3.566c0-1.031.407-1.554 1.212-1.554.805 0 1.245.505 1.245 1.536v3.986l5.123-4.812c.499-.469.92-.721 1.245-.721.309-.012.609.102.828.315.218.213.336.505.325.807 0 .32-.27.721-.806 1.219L35.29 8.443l5.33 5.335c.325.286.524.682.558 1.107 0 .298-.125.583-.346.788-.222.205-.52.311-.825.294v-.003zM71.047 2.106h-.03a1.436 1.436 0 0 0-.2-.058 1.685 1.685 0 0 0-.313-.029 1.044 1.044 0 0 0-.916.422 1.842 1.842 0 0 0-.292 1.122v6.684a5.08 5.08 0 0 1-.37 2.077c0 .03-.026.062-.04.09-.062.121-.135.236-.218.343a2.339 2.339 0 0 1-.2.238l-.162.148a2.13 2.13 0 0 1-.296.206c-.063.036-.125.072-.196.104a2.746 2.746 0 0 1-.624.202c-.106.023-.213.04-.321.05-.126 0-.259.026-.395.03h-.163c-.271 0-.542-.025-.809-.072-1.038-.18-1.851-.974-2.035-1.988a6.221 6.221 0 0 1-.152-1.443V3.548c0-.757-.229-1.23-.676-1.442a1.456 1.456 0 0 0-.554-.101c-.809 0-1.208.505-1.208 1.536v6.854a5.995 5.995 0 0 0 .772 3.141l.074.123c.019.029.04.054.056.083.175.258.374.5.594.721 1.016.992 2.169 1.48 3.934 1.48 1.766 0 2.937-.488 3.934-1.461.998-.974 1.515-2.341 1.515-4.084V3.545c0-.786-.237-1.266-.706-1.443l-.003.004zM81.603 14.839a5.477 5.477 0 0 1-3.513 1.103 8.349 8.349 0 0 1-2.512-.39c-1.108-.36-1.67-.883-1.67-1.536a1.012 1.012 0 0 1 .334-.78c.22-.2.519-.299.82-.27.304.052.6.14.882.264l.957.36c.49.153 1.003.23 1.518.228a2.127 2.127 0 0 0 1.478-.599c.392-.368.613-.876.613-1.407 0-.804-.558-1.42-1.67-1.872l-3.106-1.244a3.139 3.139 0 0 1-1.666-2.886 3.384 3.384 0 0 1 1.4-2.846 5.168 5.168 0 0 1 3.165-.956c1.286 0 2.283.264 2.955.787.347.218.561.59.573.992a.87.87 0 0 1-.307.721c-.222.189-.51.288-.805.278a4.137 4.137 0 0 1-1.19-.336 4.214 4.214 0 0 0-1.362-.339 2.114 2.114 0 0 0-1.341.415 1.428 1.428 0 0 0-.536 1.198c-.017.396.188.77.536.973.483.268.99.494 1.514.675 1.056.348 2.067.813 3.014 1.385a3.3 3.3 0 0 1 1.382 2.828 3.978 3.978 0 0 1-1.478 3.246l.015.008zM92.445 15.812h-5.282c-1.072 0-1.478-.36-1.478-1.42V3.713c0-1.046.477-1.572 1.455-1.572h5.338c.998 0 1.496.375 1.496 1.125 0 .747-.499 1.122-1.514 1.122h-4.322v3.279h4.033c1.016 0 1.515.36 1.515 1.082 0 .721-.499 1.082-1.515 1.082h-4.048v3.77h4.381c.994 0 1.496.36 1.496 1.143 0 .782-.517 1.082-1.555 1.082v-.015zM57.633 3.278a.39.39 0 0 0 0-.065v-.069a.237.237 0 0 1 0-.05c0-.025 0-.054-.018-.08v-.04l-.026-.079v-.04l-.033-.075v-.036c0-.025-.026-.047-.037-.069l-.03-.043-.04-.058-.033-.046-.041-.047-.111-.062a.588.588 0 0 0-.048-.047l-.04-.036-.063-.047-.037-.028a.61.61 0 0 0-.082-.05h-.022l-.089-.044h-.029l-.089-.033h-.033l-.081-.021h-.684l-.077.025h-.044l-.07.032-.049.022-.059.033-.055.032-.048.032-.056.04-.04.033-.052.057-.037.036-.048.054a.53.53 0 0 0-.037.047.619.619 0 0 0-.04.05l-.041.062v.033l-4.658 9.237-4.662-9.237a.089.089 0 0 0 0-.033c0-.021-.026-.043-.04-.061a.617.617 0 0 0-.041-.05.53.53 0 0 0-.037-.047l-.048-.055-.037-.036-.055-.05-.041-.033-.06-.04-.047-.032-.056-.032-.059-.033-.048-.021-.07-.033h-.044l-.078-.025h-.569a.43.43 0 0 0-.066 0h-.048l-.082.022h-.033l-.088.032h-.03l-.089.043-.077.05-.04.03-.06.047-.044.036-.048.047a.253.253 0 0 0-.04.046l-.045.047-.033.047-.041.058a.272.272 0 0 0-.026.043.42.42 0 0 0-.04.069v.036l-.034.076v.04l-.026.079v.119a.25.25 0 0 1 0 .05.436.436 0 0 1 0 .069v11.401c.037.682.614 1.217 1.314 1.217.699 0 1.276-.535 1.313-1.216V8.114l3.324 6.998c.23.386.65.628 1.108.638h.085a1.32 1.32 0 0 0 1.109-.638l3.324-6.998v6.492c0 .71.589 1.285 1.315 1.285s1.315-.575 1.315-1.284V3.32v-.043h-.148z"/>
  </symbol>

  <symbol id="lm-arrow-up" viewBox="0 0 16 16">
    <path style="fill: #0063DA"
          d="M1.354 6.346a.5.5 0 0 0 0 .708l.693.692a.5.5 0 0 0 .707 0l3.093-3.092a.5.5 0 0 1 .853.353V15.5a.5.5 0 0 0 .5.5h1a.5.5 0 0 0 .5-.5V5.007a.5.5 0 0 1 .854-.353l3.093 3.092a.5.5 0 0 0 .707 0l.693-.692a.5.5 0 0 0 0-.708L8.407.707a1 1 0 0 0-1.414 0l-5.64 5.64z"/>
  </symbol>

  <symbol id="lm-favourite" viewBox="0 0 16 16">
    <path style="fill: #F5A623"
          d="M15.143 5.291l-4.315-.657L8.897.537C8.559-.18 7.44-.18 7.103.537l-1.93 4.097-4.316.657C.04 5.416-.291 6.472.303 7.08l3.123 3.19-.737 4.504c-.139.852.717 1.507 1.451 1.104L8 13.752l3.86 2.127c.728.4 1.591-.245 1.451-1.104l-.737-4.505 3.124-3.189c.593-.609.262-1.665-.555-1.79z"/>
  </symbol>

  <symbol id="lm-close-small" viewBox="0 0 16 16">
    <path
      d="M10.454 4.854a.5.5 0 0 0-.708 0L8.354 6.246a.5.5 0 0 1-.708 0L6.254 4.854a.5.5 0 0 0-.708 0l-.692.692a.5.5 0 0 0 0 .708l1.392 1.392a.5.5 0 0 1 0 .708L4.854 9.746a.5.5 0 0 0 0 .708l.692.692a.5.5 0 0 0 .708 0l1.392-1.392a.5.5 0 0 1 .708 0l1.392 1.392a.5.5 0 0 0 .708 0l.692-.692a.5.5 0 0 0 0-.708L9.754 8.354a.5.5 0 0 1 0-.708l1.392-1.392a.5.5 0 0 0 0-.708l-.692-.692z"/>
  </symbol>

  <symbol id="round-lm-check" viewBox="0 0 16 16">
    <path fill-rule="evenodd"
          d="M14.5 8c0 3.9-3.1 7-7 7s-7-3.1-7-7 3.1-7 7-7c.8 0 1.6.1 2.4.4.5.2.8.8.6 1.3-.2.5-.8.8-1.3.6-.6-.2-1.1-.3-1.7-.3-2.8 0-5 2.2-5 5s2.2 5 5 5 5-2.2 5-5c0-.6.4-1 1-1s1 .4 1 1zM4.8 6.3c.4-.4 1-.4 1.4 0l1.3 1.3 6.3-6.3c.4-.4 1-.4 1.4 0 .4.4.4 1 0 1.4l-7 7c-.2.2-.4.3-.7.3-.3 0-.5-.1-.7-.3l-2-2c-.4-.4-.4-1 0-1.4z"
          clip-rule="evenodd"/>
  </symbol>

  <symbol id="lm-eye" viewBox="0 0 16 16">
    <path fill-rule="evenodd"
          d="M15.871 8.492C15.744 8.716 12.707 14 8.001 14 3.268 14 .253 8.713.127 8.489a.998.998 0 0 1-.002-.975C.251 7.289 3.246 2 8 2c4.731 0 7.746 5.287 7.872 5.512a1 1 0 0 1 0 .98zM13.818 8C13.036 6.835 10.84 4 8 4 5.146 4 2.958 6.835 2.181 7.999 2.962 9.162 5.16 12 8.001 12c2.836 0 5.033-2.834 5.817-4z"
          clip-rule="evenodd"/>
    <path d="M8 10a2 2 0 1 0 0-4 2 2 0 0 0 0 4z"/>
  </symbol>

  <symbol id="lm-message" viewBox="0 0 16 16">
    <path
      d="M8 0c4.4 0 8 3.1 8 7s-3.6 7-8 7c-.25 0-.502 0-.728-.025-.244-.026-.496-.022-.721.075l-3.157 1.353A1 1 0 0 1 2 14.483v-2.469c0-.265-.108-.517-.285-.715C.675 10.14 0 8.654 0 7c0-3.9 3.6-7 8-7z"/>
  </symbol>

  <symbol id="lm-play" viewBox="0 0 16 16">
    <path fill="#FFFFFF" fill-rule="evenodd" d="M15.106 6.419c1.192.706 1.192 2.456 0 3.162L4.711 15.748C3.509 16.46 2 15.58 2 14.165V1.834C2 .42 3.51-.46 4.71.253l10.396 6.166z" clip-rule="evenodd"/>
  </symbol>

  <symbol id="navigation_lm-chevron-left" viewBox="0 0 16 16">
    <path
      d="M8.683 10.362a1 1 0 0 1-1.366 0L4.338 7.58a.752.752 0 0 1 1.027-1.1l1.952 1.824a1 1 0 0 0 1.366 0l1.952-1.823a.752.752 0 0 1 1.027 1.1l-2.98 2.782z"/>
  </symbol>

  <symbol id="lm-chevron-bottom" viewBox="0 0 16 16">
    <path d="M8 10L4.5 6.824 5.407 6 8 8.353 10.593 6l.907.824L8 10z"/>
  </symbol>

  <symbol id="controls_lm-plus-small" viewBox="0 0 16 16">
    <path
      d="M9 4.5a.5.5 0 0 0-.5-.5h-1a.5.5 0 0 0-.5.5v2a.5.5 0 0 1-.5.5h-2a.5.5 0 0 0-.5.5v1a.5.5 0 0 0 .5.5h2a.5.5 0 0 1 .5.5v2a.5.5 0 0 0 .5.5h1a.5.5 0 0 0 .5-.5v-2a.5.5 0 0 1 .5-.5h2a.5.5 0 0 0 .5-.5v-1a.5.5 0 0 0-.5-.5h-2a.5.5 0 0 1-.5-.5v-2z"/>
  </symbol>

  <symbol id="lm-icon-zoom-in" viewBox="0 0 16 16">
    <path d="M12.7 11.23a6.777 6.777 0 0 0 1.4-4.174C14.1 3.18 11 0 7.1 0S0 3.18 0 7.056s3.2 7.056 7.1 7.056c1.6 0 3.1-.497 4.2-1.392l3 2.982c.2.199.5.298.7.298.2 0 .5-.1.7-.298.4-.398.4-.994 0-1.391l-3-3.081zm-5.6.795c-2.8 0-5.1-2.186-5.1-4.97 0-2.782 2.3-5.067 5.1-5.067s5.1 2.285 5.1 5.068c0 2.783-2.3 4.969-5.1 4.969z"/>
    <path d="M8 4H6v2H4v2h2v2h2V8h2V6H8V4z"/>
  </symbol>

  <symbol id="lm-icon-zoom-out" viewBox="0 0 16 16">
    <path d="M12.7 11.23a6.777 6.777 0 0 0 1.4-4.174C14.1 3.18 11 0 7.1 0S0 3.18 0 7.056s3.2 7.056 7.1 7.056c1.6 0 3.1-.497 4.2-1.392l3 2.982c.2.199.5.298.7.298.2 0 .5-.1.7-.298.4-.398.4-.994 0-1.391l-3-3.081zm-5.6.795c-2.8 0-5.1-2.186-5.1-4.97 0-2.782 2.3-5.067 5.1-5.067s5.1 2.285 5.1 5.068c0 2.783-2.3 4.969-5.1 4.969z"/>
    <path d="M10 6H4v2h6V6z"/>
  </symbol>

  <symbol id="lm-icon-rotate" viewBox="0 0 16 16">
    <path d="M13 9C12.4477 9 12.0128 9.4547 11.8761 9.9898C11.4345 11.7182 9.86407 13 8 13C5.79443 13 4 11.2056 4 9C4 6.8784 5.6604 5.13723 7.74996 5.00773C7.88777 4.99919 8 5.11193 8 5.25V6.95969C8 7.37894 8.48497 7.61203 8.81235 7.35012L12.0239 4.78087C12.5243 4.38054 12.5243 3.61946 12.0239 3.21913L8.81235 0.649878C8.48497 0.387973 8 0.621059 8 1.04031V2.75C8 2.88807 7.88774 2.99946 7.74979 3.00515C4.55678 3.13675 2 5.77522 2 9C2 12.3086 4.69141 15 8 15C10.9694 15 13.4417 12.8321 13.9174 9.99577C14.0087 9.45109 13.5523 9 13 9V9Z"/>
  </symbol>

  <symbol id="lm-icon-pass" viewBox="0 0 214 68">
    <rect width="213" height="67" x=".5" y=".5" stroke="#CBD0D8" rx="7.5"/>
    <path fill="#282A36" d="M65.703 40.016l1.852-3.211-5.227-2.93 5.227-2.977-1.828-3.234-4.97 3.023.259-5.507h-4.243l.258 5.484-4.992-3-1.805 3.234 5.203 2.954-5.203 2.93 1.805 3.234 4.992-3-.281 5.507h4.266l-.258-5.507 4.945 3zM97.781 40.016l1.852-3.211-5.227-2.93 5.227-2.977-1.828-3.234-4.97 3.023.259-5.507h-4.242l.257 5.484-4.992-3-1.805 3.234 5.204 2.954-5.204 2.93 1.805 3.234 4.992-3-.28 5.507h4.265l-.258-5.507 4.945 3zM129.859 40.016l1.852-3.211-5.227-2.93 5.227-2.977-1.828-3.234-4.969 3.023.258-5.507h-4.242l.258 5.484-4.993-3-1.804 3.234 5.203 2.954-5.203 2.93 1.804 3.234 4.993-3-.282 5.507h4.266l-.258-5.507 4.945 3zM161.938 40.016l1.851-3.211-5.227-2.93 5.227-2.977-1.828-3.234-4.969 3.023.258-5.507h-4.242l.258 5.484-4.993-3-1.804 3.234 5.203 2.954-5.203 2.93 1.804 3.234 4.993-3-.282 5.507h4.266l-.258-5.507 4.946 3z"/>
  </symbol>

  <symbol id="google_play" viewBox="0 0 127 40">
    <rect y="0" style="fill: #0063da" width="127" height="40"/>
    <path class="st1" d="M17.5,9.7c0.8,0.3,10.1,5.9,11.6,6.9l-2.5,2.6L17.5,9.7z"/>
    <path class="st1" d="M16.6,12c0-0.9,0-1.5,0-1.7l9.3,9.6l-9.3,9.7C16.5,28.7,16.6,16.6,16.6,12z"/>
    <path class="st1"
          d="M30.1,22.9c0,0,2.4-1.3,3.4-1.9c1-0.5,1.3-1,0.1-1.7c-1.4-0.8-3.5-2.1-3.5-2.1L27.4,20L30.1,22.9z"/>
    <path class="st1" d="M26.7,20.8l2.5,2.6c0,0-10,6.1-11.6,6.9L26.7,20.8z"/>
    <path class="st1" d="M63.7,21.1c-2,0-3.5,1.5-3.5,3.5c0,2,1.6,3.5,3.5,3.5c2,0,3.5-1.5,3.5-3.5C67.3,22.5,65.7,21.1,63.7,21.1z
      M63.7,26.7c-1.1,0-2-0.9-2-2.1c0-1.2,0.9-2.1,2-2.1c1.1,0,2,0.8,2,2.1C65.7,25.8,64.8,26.7,63.7,26.7z M56.1,21.1
      c-2,0-3.5,1.5-3.5,3.5c0,2,1.6,3.5,3.5,3.5c2,0,3.5-1.5,3.5-3.5C59.6,22.5,58.1,21.1,56.1,21.1z M56.1,26.7c-1.1,0-2-0.9-2-2.1
      c0-1.2,0.9-2.1,2-2.1c1.1,0,2,0.8,2,2.1C58.1,25.8,57.2,26.7,56.1,26.7z M47,22.2v1.5h3.5c-0.1,0.8-0.4,1.5-0.8,1.9
      c-0.5,0.5-1.3,1.1-2.7,1.1c-2.2,0-3.9-1.7-3.9-3.9s1.7-3.9,3.9-3.9c1.1,0,2.1,0.5,2.7,1.1l1.1-1.1c-0.9-0.8-2.1-1.5-3.7-1.5
      c-3,0-5.5,2.5-5.5,5.4c0,3,2.5,5.4,5.5,5.4c1.6,0,2.8-0.5,3.8-1.6c1-1,1.3-2.4,1.3-3.4c0-0.3,0-0.7-0.1-0.9H47L47,22.2z M84.3,23.4
      c-0.3-0.8-1.1-2.2-3-2.2c-1.8,0-3.3,1.4-3.3,3.5c0,2,1.5,3.5,3.4,3.5c1.6,0,2.5-1,2.9-1.6l-1.1-0.8c-0.4,0.6-0.9,1-1.7,1
      c-0.8,0-1.3-0.3-1.7-1.1l4.7-2L84.3,23.4z M79.5,24.5c0-1.3,1.1-2.1,1.8-2.1c0.6,0,1.1,0.3,1.3,0.7L79.5,24.5z M75.6,27.9h1.6V17.6
      h-1.6V27.9z M73.2,21.9c-0.4-0.4-1.1-0.8-1.9-0.8c-1.7,0-3.4,1.6-3.4,3.5s1.6,3.4,3.4,3.4c0.8,0,1.5-0.4,1.8-0.8h0.1v0.5
      c0,1.3-0.7,2.1-1.9,2.1c-0.9,0-1.6-0.7-1.7-1.2l-1.3,0.6c0.4,0.9,1.4,2.1,3.1,2.1c1.8,0,3.3-1.1,3.3-3.6v-6.2h-1.5V21.9L73.2,21.9z
       M71.4,26.7c-1.1,0-2-0.9-2-2.1c0-1.2,0.9-2.1,2-2.1c1.1,0,1.9,0.9,1.9,2.1C73.3,25.8,72.4,26.7,71.4,26.7z M91.4,17.6h-3.7v10.3
      h1.6V24h2.1c1.7,0,3.4-1.2,3.4-3.2S93.1,17.6,91.4,17.6z M91.5,22.5h-2.2V19h2.2c1.1,0,1.8,1,1.8,1.7C93.2,21.6,92.5,22.5,91.5,22.5
      z M100.9,21.1c-1.1,0-2.3,0.5-2.7,1.6l1.4,0.6c0.3-0.6,0.8-0.7,1.4-0.7c0.8,0,1.6,0.5,1.6,1.3v0.1c-0.2-0.2-0.9-0.4-1.6-0.4
      c-1.5,0-3,0.8-3,2.3c0,1.4,1.2,2.3,2.5,2.3c1.1,0,1.6-0.5,2-1h0.1v0.8h1.5v-3.9C104,22.1,102.6,21.1,100.9,21.1z M100.7,26.7
      c-0.5,0-1.2-0.2-1.2-0.9c0-0.8,0.9-1.1,1.6-1.1c0.7,0,1,0.2,1.4,0.3C102.4,26.1,101.6,26.7,100.7,26.7z M109.4,21.3l-1.7,4.4h-0.1
      l-1.8-4.4h-1.6l2.7,6.2l-1.6,3.4h1.6l4.2-9.7H109.4z M95.6,27.9h1.6V17.6h-1.6V27.9z"/>
    <path class="st1" d="M42.7,11.8h0.6c0.1,0,0.2,0,0.3,0c0.1,0,0.2-0.1,0.3-0.2c0.1-0.1,0.2-0.2,0.2-0.3c0-0.1,0.1-0.2,0.1-0.3
      c0-0.4-0.3-0.7-0.9-0.7c-0.1,0-0.2,0-0.3,0c-0.1,0-0.2,0.1-0.3,0.2c-0.1,0.1-0.2,0.2-0.2,0.3c-0.1,0.1-0.1,0.2-0.1,0.3h-0.7
      c0-0.2,0.1-0.4,0.2-0.6c0.1-0.2,0.2-0.3,0.4-0.5c0.2-0.1,0.3-0.2,0.5-0.3c0.2-0.1,0.4-0.1,0.6,0c0.9,0,1.6,0.5,1.6,1.3
      c0,0.3-0.1,0.5-0.2,0.7c-0.2,0.2-0.4,0.3-0.6,0.4v0.1c0.3,0,0.6,0.1,0.8,0.4c0.2,0.2,0.3,0.5,0.3,0.8c0,0.2-0.1,0.4-0.2,0.6
      s-0.2,0.4-0.4,0.5c-0.2,0.1-0.4,0.2-0.6,0.3c-0.2,0.1-0.4,0.1-0.6,0c-0.2,0-0.4,0-0.6,0c-0.2-0.1-0.4-0.2-0.6-0.3
      c-0.2-0.1-0.3-0.3-0.4-0.5c-0.1-0.2-0.2-0.4-0.2-0.6h0.7c0,0.5,0.5,0.8,1.1,0.8s1-0.3,1-0.8c0-0.5-0.4-0.8-1-0.8h-0.7V11.8z"/>
    <path class="st1" d="M46,13.5c0-0.7,0.5-1,1.3-1.1l1-0.1v-0.3c0-0.4-0.3-0.6-0.7-0.6c-0.4,0-0.7,0.1-0.7,0.4h-0.7
      c0.1-0.6,0.7-1,1.5-1c0.9,0,1.4,0.5,1.4,1.2v2.5h-0.7V14h-0.1c-0.1,0.2-0.3,0.3-0.5,0.4c-0.2,0.1-0.4,0.1-0.6,0.1
      c-0.2,0-0.3,0-0.4,0c-0.1,0-0.3-0.1-0.4-0.2c-0.1-0.1-0.2-0.2-0.3-0.4C46,13.8,46,13.7,46,13.5L46,13.5z M48.3,13.2v-0.3L47.4,13
      c-0.5,0-0.7,0.2-0.7,0.5c0,0.3,0.3,0.5,0.7,0.5c0.1,0,0.2,0,0.3,0c0.1,0,0.2-0.1,0.3-0.2s0.2-0.2,0.2-0.3
      C48.3,13.4,48.3,13.3,48.3,13.2L48.3,13.2z"/>
    <path class="st1" d="M50.9,11.5v3h-0.7v-3.6h2.4v0.6H50.9z"/>
    <path class="st1" d="M56.9,12.7c0,1.2-0.6,1.9-1.5,1.9c-0.2,0-0.4,0-0.6-0.1c-0.2-0.1-0.4-0.3-0.5-0.5h-0.1v1.8h-0.7v-4.8h0.7v0.6
      h0.1c0.1-0.2,0.3-0.4,0.5-0.5c0.2-0.1,0.4-0.2,0.7-0.2C56.3,10.8,56.9,11.6,56.9,12.7z M56.1,12.7c0-0.8-0.4-1.2-1-1.2
      c-0.6,0-1,0.5-1,1.2c0,0.8,0.4,1.2,1,1.2C55.8,13.9,56.1,13.5,56.1,12.7z"/>
    <path class="st1" d="M57.8,15.8v-0.6c0.1,0,0.2,0,0.2,0c0.2,0,0.3,0,0.4-0.1c0.1-0.1,0.2-0.2,0.2-0.4l0.1-0.2l-1.3-3.6h0.8l0.9,2.9
      h0.1l0.9-2.9h0.8l-1.3,3.8c-0.3,0.9-0.6,1.2-1.4,1.2C58.1,15.8,57.9,15.8,57.8,15.8z"/>
    <path class="st1" d="M61.4,13.5h0.7c0.1,0.3,0.4,0.5,0.8,0.5c0.5,0,0.8-0.2,0.8-0.5c0-0.3-0.3-0.5-0.8-0.5h-0.5v-0.6h0.5
      c0.4,0,0.6-0.2,0.6-0.5c0-0.3-0.2-0.5-0.6-0.5c-0.4,0-0.7,0.2-0.7,0.5h-0.7c0.1-0.3,0.2-0.6,0.5-0.8c0.3-0.2,0.6-0.3,0.9-0.2
      c0.9,0,1.3,0.4,1.3,1c0,0.2-0.1,0.3-0.2,0.5c-0.1,0.1-0.2,0.2-0.4,0.3v0.1c0.2,0,0.4,0.1,0.5,0.3c0.1,0.2,0.2,0.3,0.2,0.5
      c0,0.7-0.6,1.1-1.5,1.1C62.1,14.6,61.5,14.2,61.4,13.5z"/>
    <path class="st1" d="M65.4,14.5v-3.6h0.7v2.5h0.1l1.7-2.5h0.7v3.6h-0.7V12h-0.1l-1.7,2.5L65.4,14.5z"/>
    <path class="st1" d="M72.4,11.5h-1.1v3h-0.7v-3h-1.1v-0.6h3V11.5z"/>
    <path class="st1" d="M76.2,13.6c-0.1,0.3-0.3,0.6-0.6,0.8c-0.3,0.2-0.6,0.3-1,0.2c-0.2,0-0.5,0-0.7-0.1c-0.2-0.1-0.4-0.2-0.6-0.4
      c-0.2-0.2-0.3-0.4-0.3-0.6C73,13.2,73,13,73,12.7c0-0.2,0-0.5,0.1-0.7c0.1-0.2,0.2-0.4,0.3-0.6c0.2-0.2,0.4-0.3,0.6-0.4
      c0.2-0.1,0.5-0.1,0.7-0.1c1,0,1.6,0.7,1.6,1.8v0.2h-2.5v0c0,0.1,0,0.3,0,0.4c0,0.1,0.1,0.2,0.2,0.3c0.1,0.1,0.2,0.2,0.3,0.2
      c0.1,0.1,0.3,0.1,0.4,0.1c0.2,0,0.3,0,0.5-0.1c0.2-0.1,0.3-0.2,0.4-0.4H76.2z M73.7,12.4h1.8c0-0.1,0-0.2,0-0.4
      c0-0.1-0.1-0.2-0.2-0.3c-0.1-0.1-0.2-0.2-0.3-0.2c-0.1,0-0.2-0.1-0.4-0.1c-0.1,0-0.2,0-0.4,0.1s-0.2,0.1-0.3,0.2
      c-0.1,0.1-0.2,0.2-0.2,0.3C73.7,12.1,73.7,12.3,73.7,12.4L73.7,12.4z"/>
    <path class="st1" d="M79.2,10.9h1.6c0.7,0,1.1,0.4,1.1,0.9c0,0.2-0.1,0.4-0.2,0.5c-0.1,0.1-0.3,0.2-0.4,0.3v0.1
      c0.2,0,0.4,0.1,0.6,0.3c0.1,0.2,0.2,0.4,0.2,0.6c0,0.6-0.5,1-1.3,1h-1.6V10.9z M79.9,11.5v0.9h0.7c0.4,0,0.6-0.2,0.6-0.5
      c0-0.3-0.2-0.5-0.6-0.5L79.9,11.5z M79.9,12.9V14h0.8c0.4,0,0.6-0.2,0.6-0.5c0-0.4-0.3-0.5-0.7-0.5L79.9,12.9z"/>
  </symbol>

  <symbol  id="app_store" viewBox="0 0 127 40" >
    <rect y="0" style="fill: #0063da" width="127" height="40"/>
    <path class="st1" d="M33.5,19.9c0-0.7,0.2-1.4,0.5-2c0.3-0.6,0.8-1.1,1.4-1.5c-0.4-0.5-0.9-1-1.5-1.3c-0.6-0.3-1.2-0.5-1.9-0.5
      c-1.4-0.1-2.8,0.8-3.5,0.8c-0.7,0-1.8-0.8-3-0.8c-0.8,0-1.5,0.2-2.2,0.7c-0.7,0.4-1.2,1-1.6,1.6c-1.6,2.8-0.4,7,1.1,9.2
      c0.8,1.1,1.7,2.4,2.9,2.3c1.2,0,1.6-0.7,3-0.7c1.4,0,1.8,0.7,3,0.7c1.3,0,2-1.1,2.8-2.2c0.6-0.8,1-1.7,1.3-2.6
      c-0.7-0.3-1.4-0.8-1.8-1.5C33.7,21.4,33.5,20.7,33.5,19.9L33.5,19.9z"/>
    <path class="st1" d="M31.2,13.1c0.7-0.8,1-1.9,0.9-2.9c-1,0.1-2,0.6-2.7,1.4c-0.3,0.4-0.6,0.8-0.8,1.3s-0.2,1-0.2,1.5
	    c0.5,0,1-0.1,1.5-0.3C30.4,13.8,30.9,13.5,31.2,13.1z"/>
    <path class="st1" d="M48.3,25.6h-4l-1,2.8h-1.7L45.4,18h1.8L51,28.5h-1.7L48.3,25.6z M44.7,24.3h3.2l-1.6-4.6h0L44.7,24.3z"/>
    <path class="st1" d="M59.1,24.7c0,2.4-1.3,3.9-3.2,3.9c-0.5,0-1-0.1-1.4-0.3c-0.4-0.2-0.8-0.6-1-1h0V31h-1.6V20.8h1.5v1.3h0
      c0.2-0.4,0.6-0.8,1-1c0.4-0.2,0.9-0.4,1.4-0.3C57.9,20.8,59.1,22.3,59.1,24.7z M57.5,24.7c0-1.5-0.8-2.6-2-2.6c-1.2,0-2,1-2,2.6
      c0,1.5,0.8,2.6,2,2.6C56.7,27.2,57.5,26.2,57.5,24.7z"/>
    <path class="st1" d="M67.6,24.7c0,2.4-1.3,3.9-3.2,3.9c-0.5,0-1-0.1-1.4-0.3c-0.4-0.2-0.8-0.6-1-1h0V31h-1.6V20.8h1.5v1.3h0
      c0.2-0.4,0.6-0.8,1-1c0.4-0.2,0.9-0.4,1.4-0.3C66.3,20.8,67.6,22.3,67.6,24.7z M65.9,24.7c0-1.5-0.8-2.6-2-2.6c-1.2,0-2,1-2,2.6
      c0,1.5,0.8,2.6,2,2.6C65.1,27.2,65.9,26.2,65.9,24.7L65.9,24.7z"/>
    <path class="st1" d="M73.1,25.6c0.1,1,1.1,1.7,2.5,1.7c1.3,0,2.3-0.7,2.3-1.6c0-0.8-0.6-1.3-1.9-1.6l-1.4-0.3
      c-1.9-0.5-2.8-1.4-2.8-2.8c0-1.8,1.6-3,3.8-3c2.2,0,3.7,1.2,3.8,3h-1.6c-0.1-1-1-1.7-2.2-1.7c-1.3,0-2.1,0.6-2.1,1.6
      c0,0.7,0.6,1.2,1.9,1.5l1.2,0.3c2.2,0.5,3,1.4,3,2.9c0,2-1.6,3.2-4,3.2c-2.3,0-3.9-1.2-4-3.1H73.1z"/>
    <path class="st1" d="M82.9,19v1.8h1.5v1.2h-1.5v4.2c0,0.7,0.3,1,0.9,1c0.2,0,0.3,0,0.5,0v1.2c-0.3,0.1-0.6,0.1-0.9,0.1
	    c-1.5,0-2.2-0.6-2.2-2.1v-4.4h-1.1v-1.2h1.1V19H82.9z"/>
    <path class="st1" d="M85.2,24.7c0-2.4,1.4-3.9,3.6-3.9c2.2,0,3.6,1.5,3.6,3.9c0,2.4-1.4,3.9-3.6,3.9C86.6,28.6,85.2,27.1,85.2,24.7z
	    M90.9,24.7c0-1.6-0.8-2.6-2-2.6c-1.3,0-2,1-2,2.6c0,1.7,0.8,2.6,2,2.6C90.1,27.3,90.9,26.3,90.9,24.7L90.9,24.7z"/>
    <path class="st1" d="M93.8,20.8h1.5v1.3h0c0.1-0.4,0.3-0.8,0.7-1c0.3-0.3,0.7-0.4,1.2-0.4c0.2,0,0.4,0,0.5,0.1v1.5
      c-0.2-0.1-0.5-0.1-0.7-0.1c-0.2,0-0.5,0-0.7,0.1c-0.2,0.1-0.4,0.2-0.6,0.4c-0.2,0.2-0.3,0.4-0.3,0.6c-0.1,0.2-0.1,0.4-0.1,0.7v4.5
      h-1.6V20.8z"/>
    <path class="st1" d="M104.9,26.2c-0.2,1.4-1.6,2.3-3.3,2.3c-2.2,0-3.6-1.5-3.6-3.9c0-2.4,1.4-3.9,3.5-3.9c2.1,0,3.4,1.4,3.4,3.8v0.5
      h-5.4v0.1c0,0.3,0,0.6,0.1,0.8c0.1,0.3,0.2,0.5,0.4,0.7c0.2,0.2,0.4,0.4,0.7,0.5c0.3,0.1,0.5,0.2,0.8,0.1c0.4,0,0.7-0.1,1.1-0.2
      c0.3-0.2,0.6-0.5,0.7-0.8H104.9z M99.6,24h3.8c0-0.3,0-0.5-0.1-0.7c-0.1-0.2-0.2-0.5-0.4-0.6c-0.2-0.2-0.4-0.3-0.6-0.4
      c-0.2-0.1-0.5-0.1-0.7-0.1c-0.3,0-0.5,0-0.7,0.1c-0.2,0.1-0.5,0.2-0.6,0.4c-0.2,0.2-0.3,0.4-0.4,0.6C99.7,23.5,99.6,23.7,99.6,24
      L99.6,24z"/>
    <path class="st1" d="M43.6,12.3h0.7c0.1,0,0.2,0,0.3,0c0.1,0,0.2-0.1,0.3-0.2c0.1-0.1,0.2-0.2,0.2-0.3c0.1-0.1,0.1-0.2,0.1-0.3
      c0-0.5-0.3-0.8-0.9-0.8c-0.1,0-0.2,0-0.4,0c-0.1,0-0.2,0.1-0.3,0.2c-0.1,0.1-0.2,0.2-0.2,0.3c-0.1,0.1-0.1,0.2-0.1,0.3h-0.7
      c0-0.2,0.1-0.4,0.2-0.6c0.1-0.2,0.2-0.4,0.4-0.5c0.2-0.1,0.4-0.2,0.6-0.3c0.2-0.1,0.4-0.1,0.6,0c1,0,1.7,0.6,1.7,1.4
      c0,0.3-0.1,0.5-0.3,0.7s-0.4,0.4-0.7,0.4v0.1c0.3,0,0.6,0.1,0.8,0.4c0.2,0.2,0.3,0.5,0.3,0.8c0,0.2-0.1,0.4-0.2,0.6
      s-0.3,0.4-0.4,0.5c-0.2,0.1-0.4,0.2-0.6,0.3c-0.2,0.1-0.4,0.1-0.7,0.1c-0.2,0-0.4,0-0.7,0c-0.2-0.1-0.4-0.2-0.6-0.3
      c-0.2-0.1-0.3-0.3-0.4-0.5c-0.1-0.2-0.2-0.4-0.2-0.6h0.8c0,0.5,0.5,0.8,1.1,0.8c0.7,0,1.1-0.3,1.1-0.8c0-0.5-0.4-0.8-1.1-0.8h-0.7
      V12.3z"/>
    <path class="st1" d="M47,14.1c0-0.7,0.5-1.1,1.4-1.1l1-0.1v-0.3c0-0.4-0.3-0.6-0.8-0.6c-0.4,0-0.7,0.2-0.8,0.4h-0.7
      c0.1-0.7,0.7-1.1,1.6-1.1c1,0,1.5,0.5,1.5,1.3v2.6h-0.7v-0.5h-0.1c-0.1,0.2-0.3,0.3-0.5,0.5c-0.2,0.1-0.4,0.2-0.7,0.1
      c-0.2,0-0.3,0-0.5,0c-0.2,0-0.3-0.1-0.4-0.2c-0.1-0.1-0.2-0.2-0.3-0.4C47.1,14.4,47,14.3,47,14.1L47,14.1z M49.5,13.8v-0.3l-0.9,0.1
      c-0.5,0-0.8,0.2-0.8,0.5c0,0.3,0.3,0.5,0.7,0.5c0.1,0,0.2,0,0.4,0c0.1,0,0.2-0.1,0.3-0.2c0.1-0.1,0.2-0.2,0.2-0.3
      C49.5,14,49.5,13.9,49.5,13.8L49.5,13.8z"/>
    <path class="st1" d="M52.2,12v3.2h-0.7v-3.8H54V12H52.2z"/>
    <path class="st1" d="M58.5,13.3c0,1.2-0.6,2-1.6,2c-0.2,0-0.5,0-0.7-0.1s-0.4-0.3-0.5-0.5h-0.1v1.8H55v-5.1h0.7V12h0.1
      c0.1-0.2,0.3-0.4,0.5-0.5c0.2-0.1,0.5-0.2,0.7-0.2C57.9,11.3,58.5,12.1,58.5,13.3z M57.8,13.3c0-0.8-0.4-1.3-1-1.3
      c-0.6,0-1,0.5-1,1.3c0,0.8,0.4,1.3,1,1.3C57.4,14.6,57.8,14.1,57.8,13.3z"/>
    <path class="st1" d="M59.5,16.5v-0.6c0.1,0,0.2,0,0.2,0c0.2,0,0.3,0,0.4-0.1c0.1-0.1,0.2-0.2,0.2-0.4l0.1-0.2l-1.4-3.8H60l1,3H61
	    l0.9-3h0.8l-1.4,4c-0.3,0.9-0.7,1.2-1.5,1.2C59.8,16.5,59.6,16.5,59.5,16.5z"/>
    <path class="st1" d="M63.3,14.1H64c0.1,0.3,0.4,0.5,0.8,0.5c0.5,0,0.8-0.2,0.8-0.6c0-0.4-0.3-0.5-0.8-0.5h-0.6v-0.6h0.6
      c0.5,0,0.7-0.2,0.7-0.5c0-0.3-0.2-0.5-0.7-0.5c-0.4,0-0.7,0.2-0.8,0.5h-0.7c0.1-0.3,0.2-0.7,0.5-0.9c0.3-0.2,0.6-0.3,1-0.2
      c0.9,0,1.4,0.4,1.4,1c0,0.2-0.1,0.4-0.2,0.5c-0.1,0.1-0.3,0.2-0.4,0.3v0.1c0.2,0,0.4,0.1,0.5,0.3c0.1,0.2,0.2,0.4,0.2,0.6
      c0,0.7-0.6,1.2-1.6,1.2C64,15.2,63.4,14.9,63.3,14.1z"/>
    <path class="st1" d="M67.5,15.2v-3.8h0.7V14h0.1l1.8-2.6h0.7v3.8h-0.7v-2.6H70l-1.8,2.6H67.5z"/>
    <path class="st1" d="M74.9,12h-1.2v3.2H73V12h-1.2v-0.6h3.1V12z"/>
    <path class="st1" d="M78.9,14.1c-0.1,0.3-0.3,0.6-0.6,0.8c-0.3,0.2-0.7,0.3-1,0.3c-0.3,0-0.5,0-0.7-0.1c-0.2-0.1-0.4-0.2-0.6-0.4
      c-0.2-0.2-0.3-0.4-0.4-0.6c-0.1-0.2-0.1-0.5-0.1-0.7c0-0.2,0-0.5,0.1-0.7c0.1-0.2,0.2-0.5,0.4-0.6c0.2-0.2,0.4-0.3,0.6-0.4
      c0.2-0.1,0.5-0.2,0.7-0.2c1.1,0,1.7,0.7,1.7,1.9v0.3h-2.7v0c0,0.1,0,0.3,0.1,0.4c0,0.1,0.1,0.3,0.2,0.4s0.2,0.2,0.3,0.2
      c0.1,0.1,0.3,0.1,0.4,0.1c0.2,0,0.4,0,0.5-0.1c0.2-0.1,0.3-0.2,0.4-0.4H78.9z M76.3,12.9h1.9c0-0.1,0-0.3-0.1-0.4
      c0-0.1-0.1-0.2-0.2-0.3c-0.1-0.1-0.2-0.2-0.3-0.2c-0.1,0-0.2-0.1-0.4-0.1c-0.1,0-0.3,0-0.4,0.1c-0.1,0-0.2,0.1-0.3,0.2
      c-0.1,0.1-0.2,0.2-0.2,0.3C76.3,12.7,76.3,12.8,76.3,12.9L76.3,12.9z"/>
    <path class="st1" d="M82.1,11.4h1.7c0.7,0,1.2,0.4,1.2,1c0,0.2-0.1,0.4-0.2,0.5c-0.1,0.1-0.3,0.2-0.5,0.3v0.1c0.2,0,0.4,0.1,0.6,0.3
      s0.2,0.4,0.2,0.6c0,0.7-0.5,1.1-1.3,1.1h-1.7V11.4z M82.9,11.9v1h0.7c0.5,0,0.7-0.2,0.7-0.5c0-0.3-0.2-0.5-0.6-0.5H82.9z M82.9,13.5
      v1.1h0.9c0.4,0,0.7-0.2,0.7-0.6c0-0.4-0.3-0.6-0.8-0.6L82.9,13.5z"/>
  </symbol>
</svg>
