<svg xmlns="http://www.w3.org/2000/svg" width="16" height="16" fill="none" viewBox="0 0 16 16">
    <path fill="#808792" d="M3.769 6.363c-.231-.448-.347-.96-.347-1.558 0-.568.116-1.081.356-1.557.23-.467.56-.868.986-1.203a5 5 0 0 1 1.512-.775A6.692 6.692 0 0 1 8.213 1c.72 0 1.37.103 1.965.317a4.34 4.34 0 0 1 1.502.877c.418.373.738.82.96 1.334.16.37.265.766.311 1.189.03.274-.197.499-.473.499h-1.676c-.276 0-.492-.227-.549-.497-.02-.102-.05-.2-.084-.296a1.535 1.535 0 0 0-.391-.634 1.873 1.873 0 0 0-.667-.41 2.872 2.872 0 0 0-.942-.15c-.347 0-.658.037-.916.121a1.928 1.928 0 0 0-.64.336 1.473 1.473 0 0 0-.524 1.129c0 .447.222.82.658 1.128.228.158.113.653-.165.653H4.171a.438.438 0 0 1-.402-.233zM16 8.03a.5.5 0 0 0-.5-.5H.5a.5.5 0 0 0-.5.5v.865a.5.5 0 0 0 .5.5h7.953a.53.53 0 0 1 .19.036c.138.053.288.105.397.15.329.16.587.318.773.477.187.158.311.335.383.531.062.187.097.401.097.644 0 .214-.044.42-.124.615a1.31 1.31 0 0 1-.373.495 1.87 1.87 0 0 1-.632.326c-.257.075-.56.122-.897.122-.383 0-.738-.038-1.05-.122a2.215 2.215 0 0 1-.808-.391c-.222-.178-.4-.41-.525-.7a2.817 2.817 0 0 1-.179-.631c-.046-.272-.267-.498-.543-.498h-1.64a.467.467 0 0 0-.478.5 4.045 4.045 0 0 0 .769 2.103 4.1 4.1 0 0 0 .871.858c.33.242.694.447 1.085.606.391.159.8.28 1.227.364.426.074.853.121 1.28.121.71 0 1.36-.084 1.937-.261.578-.177 1.076-.42 1.485-.737.409-.317.729-.718.95-1.184.223-.467.339-.998.339-1.595 0-.56-.09-1.064-.276-1.502-.06-.14.04-.308.192-.308H15.5a.5.5 0 0 0 .5-.5V8.03z"/>
</svg>
