<svg xmlns="http://www.w3.org/2000/svg" width="44" height="44" viewBox="0 0 44 44">
    <g fill="#808792" fill-rule="evenodd">
        <path d="M22 0C9.87 0 0 9.869 0 22s9.87 22 22 22 22-9.869 22-22S34.13 0 22 0zm0 42.308c-11.197 0-20.308-9.11-20.308-20.308 0-11.197 9.11-20.308 20.308-20.308 11.197 0 20.308 9.11 20.308 20.308 0 11.197-9.11 20.308-20.308 20.308z"/>
        <path fill-rule="nonzero" stroke="#808792" stroke-width=".5" d="M32.205 19.225H31.1V17.24a.866.866 0 0 0-.865-.865h-7.839l-1.583-2.217h-5.948a.866.866 0 0 0-.865.865v13.835h.002a.805.805 0 0 0 .81.817h14.174a.804.804 0 0 0 .776-.574L33 20.222v-.056c0-.545-.334-.941-.795-.941zm-17.572-4.202c0-.127.105-.231.232-.231h5.622l1.583 2.216h8.165c.127 0 .231.104.231.232v1.985H18.031a.798.798 0 0 0-.776.574l-2.622 7.152V15.023zM29.16 28.91a.18.18 0 0 1-.173.132H14.812a.175.175 0 0 1-.142-.07c-.02-.027-.05-.082-.039-.13l3.228-8.852a.18.18 0 0 1 .172-.132H32.205c.12 0 .151.173.16.26l-3.206 8.792z"/>
    </g>
</svg>
