<svg xmlns="http://www.w3.org/2000/svg" width="20" height="15" viewBox="0 0 20 15">
    <path fill="#FFF" fill-rule="evenodd" d="M1.67 1.9C.749 1.9 0 2.625 0 3.52v9.86C0 14.272.749 15 1.67 15h16.66c.921 0 1.67-.727 1.67-1.62V3.52c0-.894-.749-1.62-1.67-1.62h-4.047L13.826.316A.417.417 0 0 0 13.419 0H6.581a.412.412 0 0 0-.407.318l-.483 1.581H1.67zM10 13.36c-2.92 0-5.297-2.307-5.297-5.142 0-2.836 2.376-5.142 5.298-5.142 2.92 0 5.296 2.307 5.296 5.142 0 2.835-2.376 5.142-5.296 5.142zm0-9.475c-2.46 0-4.462 1.944-4.462 4.333 0 2.389 2.002 4.331 4.463 4.331 2.46 0 4.462-1.943 4.462-4.331 0-2.39-2.002-4.333-4.462-4.333zm7.792-.483a.76.76 0 0 0-.77.748c0 .413.344.748.77.748.425 0 .77-.335.77-.748a.76.76 0 0 0-.77-.748z" opacity=".929"/>
</svg>
