<svg xmlns="http://www.w3.org/2000/svg" xmlns:xlink="http://www.w3.org/1999/xlink" width="38" height="41" viewBox="0 0 38 41">
    <defs>
        <linearGradient id="c" x1="50%" x2="50%" y1="3.265%" y2="100%">
            <stop offset="0%" stop-color="#106FE3"/>
            <stop offset="100%" stop-color="#167EFB"/>
        </linearGradient>
        <path id="b" d="M5 328h28a2 2 0 0 1 2 2v31.001a2 2 0 0 1-2.769 1.847L19.77 357.66a2 2 0 0 0-1.538 0L5.77 362.848A2 2 0 0 1 3 361V330a2 2 0 0 1 2-2z"/>
        <filter id="a" width="134.4%" height="130.6%" x="-17.2%" y="-9.7%" filterUnits="objectBoundingBox">
            <feOffset dy="2" in="SourceAlpha" result="shadowOffsetOuter1"/>
            <feGaussianBlur in="shadowOffsetOuter1" result="shadowBlurOuter1" stdDeviation="1.5"/>
            <feColorMatrix in="shadowBlurOuter1" values="0 0 0 0 0 0 0 0 0 0 0 0 0 0 0 0 0 0 0.177536232 0"/>
        </filter>
    </defs>
    <g fill="none" fill-rule="evenodd">
        <g transform="translate(0 -327)">
            <use fill="#000" filter="url(#a)" xlink:href="#b"/>
            <use fill="url(#c)" xlink:href="#b"/>
        </g>
        <text fill="#FDFCFD" font-family="SFUIDisplay-Semibold, SF UI Display" font-size="15" font-weight="500" letter-spacing=".1" transform="translate(0 -327)">
            <tspan x="8" y="349">Bio</tspan>
        </text>
    </g>
</svg>
