<svg xmlns="http://www.w3.org/2000/svg" width="16" height="30" viewBox="0 0 16 30">
    <path fill="#7A7C83" fill-rule="evenodd" d="M7.578 0C3.4 0 0 3.286 0 7.325v16.48c0 3.03 2.55 5.494 5.684 5.494 3.135 0 5.684-2.464 5.684-5.493V7.325c0-2.02-1.7-3.663-3.79-3.663S3.79 5.305 3.79 7.325v13.734c0 .505.425.915.948.915.523 0 .947-.41.947-.915V7.325c0-1.011.85-1.831 1.894-1.831 1.046 0 1.895.82 1.895 1.83v16.482c0 2.02-1.7 3.662-3.79 3.662-2.088 0-3.788-1.643-3.788-3.662V7.325c0-3.03 2.549-5.494 5.683-5.494 3.135 0 5.684 2.464 5.684 5.494v13.734c0 .505.425.915.948.915.523 0 .947-.41.947-.915V7.325c0-4.039-3.4-7.325-7.579-7.325z"/>
</svg>
