<?xml version="1.0" encoding="UTF-8"?>
<svg width="15px" height="18px" viewBox="0 0 15 18" version="1.1" xmlns="http://www.w3.org/2000/svg" xmlns:xlink="http://www.w3.org/1999/xlink">
    <!-- Generator: Sketch 41.2 (35397) - http://www.bohemiancoding.com/sketch -->
    <title>Combined Shape</title>
    <desc>Created with Sketch.</desc>
    <defs>
        <path d="M9.88789515,0 L0.163695147,0 L0.163695147,18 L14.2636951,18 L14.2636951,4.3758 L9.88789515,0 Z M10.0636951,1.0242 L13.2394951,4.2 L10.0636951,4.2 L10.0636951,1.0242 Z M10.9636951,6.6 L3.46369515,6.6 C3.29809515,6.6 3.16369515,6.7341 3.16369515,6.9 C3.16369515,7.0659 3.29809515,7.2 3.46369515,7.2 L10.9636951,7.2 C11.1292951,7.2 11.2636951,7.0659 11.2636951,6.9 C11.2636951,6.7341 11.1292951,6.6 10.9636951,6.6 Z M3.46369515,4.8 L6.46369515,4.8 C6.62929515,4.8 6.76369515,4.6659 6.76369515,4.5 C6.76369515,4.3341 6.62929515,4.2 6.46369515,4.2 L3.46369515,4.2 C3.29809515,4.2 3.16369515,4.3341 3.16369515,4.5 C3.16369515,4.6659 3.29809515,4.8 3.46369515,4.8 Z M10.9636951,9 L3.46369515,9 C3.29809515,9 3.16369515,9.1341 3.16369515,9.3 C3.16369515,9.4659 3.29809515,9.6 3.46369515,9.6 L10.9636951,9.6 C11.1292951,9.6 11.2636951,9.4659 11.2636951,9.3 C11.2636951,9.1341 11.1292951,9 10.9636951,9 Z M10.9636951,11.4 L3.46369515,11.4 C3.29809515,11.4 3.16369515,11.5341 3.16369515,11.7 C3.16369515,11.8659 3.29809515,12 3.46369515,12 L10.9636951,12 C11.1292951,12 11.2636951,11.8659 11.2636951,11.7 C11.2636951,11.5341 11.1292951,11.4 10.9636951,11.4 Z M10.9636951,13.8 L3.46369515,13.8 C3.29809515,13.8 3.16369515,13.9341 3.16369515,14.1 C3.16369515,14.2659 3.29809515,14.4 3.46369515,14.4 L10.9636951,14.4 C11.1292951,14.4 11.2636951,14.2659 11.2636951,14.1 C11.2636951,13.9341 11.1292951,13.8 10.9636951,13.8 Z" id="path-1"></path>
        <mask id="mask-2" maskContentUnits="userSpaceOnUse" maskUnits="objectBoundingBox" x="0" y="0" width="14.1" height="18" fill="white">
            <use xlink:href="#path-1"></use>
        </mask>
    </defs>
    <g id="VISAMP" stroke="none" stroke-width="1" fill="none" fill-rule="evenodd">
        <g id="-Profile_messages-Activ" transform="translate(-1218.000000, -932.000000)" stroke-width="6" stroke="#FFFFFF" fill="#FFFFFF">
            <g id="Group-11" transform="translate(1112.000000, 911.000000)">
                <g id="Group-10">
                    <g id="file" transform="translate(96.000000, 13.000000)">
                        <g id="Group" transform="translate(10.000000, 8.000000)">
                            <use id="Combined-Shape" mask="url(#mask-2)" xlink:href="#path-1"></use>
                        </g>
                    </g>
                </g>
            </g>
        </g>
    </g>
</svg>