<?xml version="1.0" encoding="UTF-8" standalone="no"?>
<svg width="261px" height="139px" viewBox="0 0 261 139" version="1.1" xmlns="http://www.w3.org/2000/svg" xmlns:xlink="http://www.w3.org/1999/xlink">
    <!-- Generator: Sketch 42 (36781) - http://www.bohemiancoding.com/sketch -->
    <title>Desktop</title>
    <desc>Created with Sketch.</desc>
    <defs>
        <rect id="path-1" x="0.056455229" y="0.477699725" width="61.6953007" height="72.1380259" rx="5"></rect>
        <mask id="mask-2" maskContentUnits="userSpaceOnUse" maskUnits="objectBoundingBox" x="0" y="0" width="61.6953007" height="72.1380259" fill="white">
            <use xlink:href="#path-1"></use>
        </mask>
        <rect id="path-3" x="0.0563363054" y="0.484249677" width="61.5653388" height="73.1271423" rx="5"></rect>
        <mask id="mask-4" maskContentUnits="userSpaceOnUse" maskUnits="objectBoundingBox" x="0" y="0" width="61.5653388" height="73.1271423" fill="white">
            <use xlink:href="#path-3"></use>
        </mask>
        <rect id="path-5" x="0.0822805851" y="0.6953125" width="89.9177194" height="105" rx="5"></rect>
        <mask id="mask-6" maskContentUnits="userSpaceOnUse" maskUnits="objectBoundingBox" x="0" y="0" width="89.9177194" height="105" fill="white">
            <use xlink:href="#path-5"></use>
        </mask>
    </defs>
    <g id="Page-1" stroke="none" stroke-width="1" fill="none" fill-rule="evenodd">
        <g id="Desktop" transform="translate(-576.000000, -638.000000)">
            <g id="Group-12" transform="translate(597.468750, 661.953125)">
                <g id="Group-11-Copy" transform="translate(182.892540, 54.923253) rotate(13.000000) translate(-182.892540, -54.923253) translate(151.892540, 18.423253)">
                    <use id="Rectangle-20" stroke="#BCC4CF" mask="url(#mask-2)" stroke-width="4" fill="#F1F3F5" xlink:href="#path-1"></use>
                    <rect id="Rectangle-21" fill="#C2C9D3" x="6.56933573" y="7.557317" width="48.6130844" height="47.4049884" rx="2"></rect>
                    <rect id="Rectangle-22" fill="#E4E7EC" x="6.56933573" y="60.458536" width="32.8466787" height="3.43514409" rx="1.71757204"></rect>
                </g>
                <g id="Group-11-Copy-2" transform="translate(38.917964, 55.012715) scale(-1, 1) rotate(13.000000) translate(-38.917964, -55.012715) translate(7.917964, 18.012715)">
                    <use id="Rectangle-20" stroke="#BCC4CF" mask="url(#mask-4)" stroke-width="4" fill="#F1F3F5" xlink:href="#path-3"></use>
                    <rect id="Rectangle-21" fill="#C2C9D3" x="6.55549735" y="7.66093872" width="48.5106804" height="48.0549792" rx="2"></rect>
                    <rect id="Rectangle-22" fill="#E4E7EC" x="6.55549735" y="61.2875097" width="32.7774868" height="3.48224487" rx="1.74112244"></rect>
                </g>
                <g id="Group-11" transform="translate(66.000000, 0.000000)">
                    <use id="Rectangle-20" stroke="#BCC4CF" mask="url(#mask-6)" stroke-width="4" fill="#FFFFFF" xlink:href="#path-5"></use>
                    <rect id="Rectangle-21" fill="#C2C9D3" x="9.57446809" y="11" width="70.8510638" height="69" rx="2"></rect>
                    <rect id="Rectangle-22" fill="#EBEEF1" x="9.57446809" y="88" width="47.8723404" height="5" rx="2.5"></rect>
                </g>
                <g id="Group-13" transform="translate(91.000000, 22.000000)" fill="#EEF0F4">
                    <rect id="Rectangle-23" x="16" y="6" width="8" height="38" rx="4"></rect>
                    <rect id="Rectangle-23-Copy" transform="translate(26.918314, 13.374369) rotate(-45.000000) translate(-26.918314, -13.374369) " x="22.918314" y="-0.125631329" width="8" height="27" rx="4"></rect>
                    <rect id="Rectangle-23-Copy-2" transform="translate(13.356161, 13.286100) scale(-1, 1) rotate(-45.000000) translate(-13.356161, -13.286100) " x="9.35616105" y="-0.213900207" width="8" height="27" rx="4"></rect>
                </g>
            </g>
        </g>
    </g>
</svg>