<svg xmlns="http://www.w3.org/2000/svg" viewBox="333 112 150 32.883">
    <defs>
        <style>
            .cls-1{fill:#fff}
        </style>
    </defs>
    <g id="Group_5" data-name="Group 5" transform="translate(-100 -649)">
        <path id="Shape" d="M16.882.3a16 16 0 1 0 16 16 16 16 0 0 0-16-16m0 30.754A14.758 14.758 0 1 1 31.64 16.3a14.758 14.758 0 0 1-14.758 14.754" class="cls-1" transform="translate(432.11 760.7)"/>
        <path id="Shape-2" d="M35.088 17.589a.978.978 0 0 0-1.151.206l-7.769 8.252L18.4 17.8a.965.965 0 0 0-1.151-.206.982.982 0 0 0-.528 1.06l2.739 15.319a.644.644 0 0 0 .078.2c.524 1.543 3.8 2.249 6.63 2.249 4.019 0 6.218-1.118 6.6-2.224a.623.623 0 0 0 .083-.215L35.6 18.649a.982.982 0 0 0-.528-1.06zm-5.64 13.78l-.413-.078-.157-.025h-.058c-.2-.033-.413-.062-.6-.087h-.2a22.094 22.094 0 0 0-.78-.066h-.227c-.326 0-.6-.025-.825-.025h-.025c-.256 0-.524 0-.846.025h-.21c-.3.021-.561.041-.825.066H24.2c-.252.025-.512.062-.776.107h-.074l-.483.087 3.3-3.5zM18.069 19.276l7.231 7.683-4.914 5.223zm8.083 15.905c-3.61 0-5.471-1.011-5.471-1.444a.111.111 0 0 1 0-.05.763.763 0 0 1 .177-.215 7.276 7.276 0 0 1 3.842-1.121l.359-.025h1.081v-.1l.025.1h1.027c2.277.14 3.788.706 4.279 1.2l.041.041a.1.1 0 0 0 .025.033.338.338 0 0 1 .07.149c-.045.413-1.795 1.432-5.463 1.432zm5.764-3L27 26.959l7.229-7.682z" class="cls-1" data-name="Shape" transform="translate(422.824 750.607)"/>
        <path id="Shape-3" d="M116.353 35.656h-4.716a1.593 1.593 0 0 1-1.263-.413 1.753 1.753 0 0 1-.388-1.291v-12.3c0-1.18.45-1.778 1.374-1.778s1.37.6 1.37 1.82v11.432h3.47c1.238 0 1.824.413 1.824 1.267s-.557 1.283-1.671 1.283" class="cls-1" data-name="Shape" transform="translate(368.031 749.204)"/>
        <path id="Shape-4" d="M137.72 35.8c-.92 0-1.37-.578-1.37-1.753v-12.4c0-1.18.45-1.778 1.37-1.778s1.37.6 1.37 1.778v12.379c0 1.176-.446 1.774-1.37 1.774" class="cls-1" data-name="Shape" transform="translate(352.539 749.204)"/>
        <path id="Shape-5" d="M164.281 35.858a1.939 1.939 0 0 1-1.564-.92l-7.327-10.174v9.316c0 1.135-.47 1.712-1.39 1.712s-1.349-.578-1.349-1.733v-12.5c0-1.135.413-1.712 1.238-1.712a1.877 1.877 0 0 1 1.5.9l7.427 10.108v-9.219c0-1.18.45-1.778 1.349-1.778s1.395.6 1.395 1.778v12.638c0 1.048-.413 1.584-1.238 1.584" class="cls-1" data-name="Shape" transform="translate(342.964 749.216)"/>
        <path id="Shape-6" d="M203.33 35.81a2.28 2.28 0 0 1-1.456-.825l-6.3-6.6v5.7c0 1.155-.47 1.737-1.39 1.737s-1.353-.582-1.353-1.737V21.629c0-1.18.454-1.778 1.353-1.778s1.39.578 1.39 1.758v4.559l5.723-5.5a2.378 2.378 0 0 1 1.39-.825 1.238 1.238 0 0 1 1.287 1.283c0 .367-.3.825-.9 1.395l-5.013 4.691 5.954 6.1a1.906 1.906 0 0 1 .623 1.267 1.238 1.238 0 0 1-1.308 1.238" class="cls-1" data-name="Shape" transform="translate(319.362 749.223)"/>
        <path id="Shape-7" d="M286.133 19.965h-.033a1.577 1.577 0 0 0-.223-.066 1.84 1.84 0 0 0-.351-.033 1.155 1.155 0 0 0-1.023.483 2.145 2.145 0 0 0-.326 1.283v7.645a5.937 5.937 0 0 1-.413 2.376.282.282 0 0 1-.045.1 2.505 2.505 0 0 1-.243.392 2.673 2.673 0 0 1-.223.272l-.182.169a2.389 2.389 0 0 1-.33.235c-.07.041-.14.083-.219.12a3.019 3.019 0 0 1-.355.14 3.86 3.86 0 0 1-.342.091 3.261 3.261 0 0 1-.359.058c-.14 0-.289.029-.441.033h-.182a5.067 5.067 0 0 1-.9-.083 2.806 2.806 0 0 1-2.273-2.273 7.28 7.28 0 0 1-.169-1.65v-7.641c0-.866-.256-1.407-.755-1.65a1.593 1.593 0 0 0-.619-.116c-.9 0-1.349.578-1.349 1.758v7.839a6.99 6.99 0 0 0 .862 3.594l.083.14c.021.033.045.062.062.095a5.778 5.778 0 0 0 .664.825 6.583 6.583 0 0 0 8.788.021 6.334 6.334 0 0 0 1.692-4.67v-7.84c0-.9-.264-1.448-.788-1.65" class="cls-1" data-name="Shape" transform="translate(271.228 749.216)"/>
        <path id="Shape-8" d="M318.653 34.532a6.02 6.02 0 0 1-3.924 1.263 9.123 9.123 0 0 1-2.806-.446c-1.238-.413-1.865-1.011-1.865-1.758a1.172 1.172 0 0 1 1.287-1.2 4.15 4.15 0 0 1 .986.3l1.069.413a5.541 5.541 0 0 0 1.7.26 2.347 2.347 0 0 0 1.65-.685 2.228 2.228 0 0 0 .685-1.609c0-.92-.623-1.626-1.865-2.141l-3.47-1.423a3.606 3.606 0 0 1-1.861-3.3 3.9 3.9 0 0 1 1.564-3.255 5.677 5.677 0 0 1 3.536-1.093 5.234 5.234 0 0 1 3.3.9 1.4 1.4 0 0 1 .64 1.135 1.007 1.007 0 0 1-.342.825 1.3 1.3 0 0 1-.9.318 4.538 4.538 0 0 1-1.328-.384 4.617 4.617 0 0 0-1.522-.388 2.323 2.323 0 0 0-1.5.474 1.65 1.65 0 0 0-.6 1.37 1.238 1.238 0 0 0 .6 1.114 10.528 10.528 0 0 0 1.692.772 16.338 16.338 0 0 1 3.367 1.584 3.808 3.808 0 0 1 1.543 3.235 4.6 4.6 0 0 1-1.65 3.713" class="cls-1" data-name="Shape" transform="translate(250.5 749.214)"/>
        <path id="Shape-9" d="M349.49 35.867h-5.9c-1.2 0-1.65-.413-1.65-1.626V22.029c0-1.2.532-1.8 1.626-1.8h5.962q1.671 0 1.671 1.287c0 .854-.557 1.283-1.692 1.283h-4.827v3.75h4.505c1.135 0 1.692.413 1.692 1.238s-.557 1.238-1.692 1.238h-4.522v4.312h4.893c1.11 0 1.671.413 1.671 1.308s-.578 1.238-1.737 1.238" class="cls-1" data-name="Shape" transform="translate(231.773 748.993)"/>
        <path id="Shape-10" d="M243.643 21.483a.444.444 0 0 0 0-.074v-.079a.285.285 0 0 1 0-.058.147.147 0 0 0-.021-.091v-.045l-.029-.091V21l-.037-.087v-.041c0-.029-.029-.054-.041-.078l-.033-.05-.045-.066-.037-.054-.045-.054-.124-.07a.655.655 0 0 0-.054-.054l-.045-.041-.07-.054-.041-.033a.673.673 0 0 0-.091-.058h-.03l-.1-.05h-.033l-.1-.037h-.037l-.091-.025h-.763l-.087.029h-.049l-.078.037-.054.025-.066.037-.062.037-.054.037-.062.045-.045.037-.058.066-.041.041-.054.062a.609.609 0 0 0-.041.054.7.7 0 0 0-.045.058l-.045.07v.037l-5.2 10.566-5.207-10.566a.108.108 0 0 0 0-.037c0-.025-.029-.05-.045-.07a.717.717 0 0 0-.045-.058.609.609 0 0 0-.041-.054l-.054-.062-.043-.039-.062-.058-.045-.037-.066-.045-.054-.037-.062-.037-.066-.037-.054-.025-.078-.037h-.049l-.087-.029h-.635a.467.467 0 0 0-.074 0h-.054l-.091.025h-.037l-.1.037h-.033l-.1.05-.087.058-.045.033-.066.054-.049.041-.054.054a.285.285 0 0 0-.045.054l-.049.054-.037.054-.045.066a.31.31 0 0 0-.029.05.488.488 0 0 0-.045.078v.041l-.037.087v.045l-.029.091v.136a.281.281 0 0 1 0 .058.509.509 0 0 1 0 .078v13.04a1.469 1.469 0 0 0 2.934 0v-7.427l3.713 8a1.469 1.469 0 0 0 1.238.73h.095a1.469 1.469 0 0 0 1.238-.73l3.713-8v7.427a1.469 1.469 0 0 0 2.938 0V21.483" class="cls-1" data-name="Shape" transform="translate(298.738 749.04)"/>
        <path id="Shape-11" d="M110.92 70.831l-.413 1.1H110l1.415-3.763h.578l1.357 3.763h-.557l-.371-1.1zm1.32-.441l-.557-1.65-.6 1.65z" class="cls-1" data-name="Shape" transform="translate(368.017 720.832)"/>
        <path id="Rectangle-path" d="M0 0h.462v3.763H0z" class="cls-1" transform="translate(481.904 789.002)"/>
        <path id="Rectangle-path-2" d="M0 0h.462v3.763H0z" class="cls-1" data-name="Rectangle-path" transform="translate(483.166 789.002)"/>
        <path id="Shape-12" d="M130.193 68.17l1.069 3.181 1.077-3.181h.718v3.763h-.491v-3.16l-1.06 3.16H131l-1.056-3.16v3.16h-.5V68.17z" class="cls-1" data-name="Shape" transform="translate(356.592 720.832)"/>
        <path id="Shape-13" d="M140.737 70.634v1.819c0 .45.227.6.524.6.578 0 .755-.512.755-.912v-1.51h.462v2.744h-.437v-.413a.916.916 0 0 1-.871.487.825.825 0 0 1-.891-.85V70.63z" class="cls-1" data-name="Shape" transform="translate(350.231 719.387)"/>
        <path id="Shape-14" d="M148.865 71.295c0-.169-.062-.462-.648-.462-.14 0-.545.05-.545.388 0 .231.144.289.73.413.825.19.994.413.994.776 0 .565-.466.908-1.081.908-1.089 0-1.155-.627-1.176-.961h.446c0 .2.074.561.726.561.326 0 .627-.12.627-.437 0-.215-.161-.33-.825-.458-.59-.116-.887-.3-.887-.726 0-.6.5-.875 1.036-.875.982 0 1.044.726 1.048.858z" class="cls-1" data-name="Shape" transform="translate(346.201 719.511)"/>
        <path id="Shape-15" d="M156.266 72.416a1.151 1.151 0 0 1-1.238.941 1.242 1.242 0 0 1-1.238-1.374c0-.854.413-1.522 1.312-1.522.788 0 1.176.631 1.176 1.6h-1.989c0 .565.264.9.792.9a.689.689 0 0 0 .706-.54zm-.437-.722c-.025-.413-.206-.825-.772-.825a.825.825 0 0 0-.751.825z" class="cls-1" data-name="Shape" transform="translate(342.294 719.487)"/>
        <path id="Shape-16" d="M162.765 71.295c0-.169-.062-.462-.648-.462-.14 0-.545.05-.545.388 0 .231.149.289.734.413.8.19.994.413.994.776 0 .565-.466.908-1.085.908-1.089 0-1.155-.627-1.176-.961h.446c0 .2.074.561.726.561.326 0 .627-.12.627-.437 0-.215-.161-.33-.825-.458-.59-.116-.887-.3-.887-.726 0-.6.5-.875 1.04-.875.978 0 1.04.726 1.044.858z" class="cls-1" data-name="Shape" transform="translate(338.036 719.511)"/>
        <path id="Shape-17" d="M172.557 71.479h1.9v.454h-2.407V68.17h.507z" class="cls-1" data-name="Shape" transform="translate(331.568 720.832)"/>
        <path id="Shape-18" d="M179.26 68.17h.462v.524h-.462zm.462 3.763h-.462v-2.744h.462z" class="cls-1" data-name="Shape" transform="translate(327.333 720.832)"/>
        <path id="Shape-19" d="M182.736 70.556v.413a.978.978 0 0 1 .825-.466.866.866 0 0 1 .957.953v1.864h-.462v-1.691c0-.47-.136-.714-.586-.714-.26 0-.722.165-.722.912v1.493h-.458v-2.743z" class="cls-1" data-name="Shape" transform="translate(325.553 719.465)"/>
        <path id="Shape-20" d="M190.132 70.381l1.176-1.188h.586l-1.048 1.019 1.11 1.72h-.549l-.887-1.4-.388.363v1.036h-.462V68.17h.462z" class="cls-1" data-name="Shape" transform="translate(321.218 720.832)"/>
        <path id="Shape-21" d="M198.476 72.416a1.147 1.147 0 0 1-1.238.941A1.242 1.242 0 0 1 196 71.982c0-.854.413-1.522 1.308-1.522.788 0 1.18.631 1.18 1.6h-2c0 .565.264.9.792.9a.689.689 0 0 0 .706-.54zm-.437-.722c-.025-.413-.206-.825-.772-.825a.825.825 0 0 0-.751.825z" class="cls-1" data-name="Shape" transform="translate(317.5 719.487)"/>
        <path id="Shape-22" d="M205.7 71.933h-.413v-.38a.825.825 0 0 1-.776.458c-.932 0-1.172-.871-1.172-1.527 0-.772.384-1.37 1.11-1.37a.941.941 0 0 1 .825.466v-1.41h.458zm-1.918-1.357c0 .594.231 1.056.734 1.056.289 0 .726-.2.726-.928 0-.45-.049-1.155-.71-1.155s-.751.667-.751 1.026z" class="cls-1" data-name="Shape" transform="translate(313.188 720.832)"/>
        <path id="Rectangle-path-3" d="M0 0h.549v.553H0z" class="cls-1" data-name="Rectangle-path" transform="translate(519.808 792.208)"/>
        <path id="Rectangle-path-4" d="M0 0h.549v.553H0z" class="cls-1" data-name="Rectangle-path" transform="translate(572.438 792.208)"/>
        <path id="Shape-23" d="M221.561 71.933h-2.781V68.17h2.744v.45h-2.236v1.106h2.059v.45h-2.059v1.308h2.273z" class="cls-1" data-name="Shape" transform="translate(304.119 720.832)"/>
        <path id="Shape-24" d="M227.1 70.65l.71 2.232h.012l.772-2.232h.5l-1.044 2.74h-.491l-.994-2.74z" class="cls-1" data-name="Shape" transform="translate(299.543 719.375)"/>
        <path id="Shape-25" d="M236.015 72.416a1.147 1.147 0 0 1-1.238.941 1.227 1.227 0 0 1-1.217-1.374c0-.854.413-1.522 1.308-1.522.788 0 1.176.631 1.176 1.6h-1.993c0 .565.264.9.792.9a.689.689 0 0 0 .706-.54zm-.437-.722c-.025-.413-.206-.825-.772-.825a.825.825 0 0 0-.751.825z" class="cls-1" data-name="Shape" transform="translate(295.437 719.487)"/>
        <path id="Shape-26" d="M241.621 70.529v.458a.891.891 0 0 1 .776-.532.545.545 0 0 1 .124 0v.479h-.165a.693.693 0 0 0-.7.734v1.593h-.456v-2.744z" class="cls-1" data-name="Shape" transform="translate(290.949 719.492)"/>
        <path id="Shape-27" d="M245.782 70.64l.73 2.236.73-2.236h.512c-.322.9-.825 2.36-1.209 3.239-.2.474-.322.623-.85.623a.738.738 0 0 1-.2-.041v-.413a.825.825 0 0 0 .281.049c.235 0 .264-.07.487-.635l-1.015-2.814z" class="cls-1" data-name="Shape" transform="translate(288.57 719.381)"/>
        <path id="Shape-28" d="M257.572 71.933h-.507V68.62h-1.275v-.45h3.057v.45h-1.275z" class="cls-1" data-name="Shape" transform="translate(282.378 720.832)"/>
        <path id="Shape-29" d="M263.616 71.372c0-.66.45-.912 1.126-.912.219 0 1.019.062 1.019.767v1.564c0 .111.058.169.148.169a.672.672 0 0 0 .149-.021v.338a.825.825 0 0 1-.248.05c-.413 0-.466-.21-.487-.413a1.263 1.263 0 0 1-.99.446.784.784 0 0 1-.854-.8c0-.326.083-.825 1.048-.879.718-.058.772-.116.772-.413s-.2-.437-.64-.437c-.52 0-.594.318-.619.528zm1.683.507c-.074.058-.186.1-.755.169-.231.033-.594.095-.594.441a.442.442 0 0 0 .5.483c.413 0 .825-.276.825-.644z" class="cls-1" data-name="Shape" transform="translate(277.861 719.487)"/>
        <path id="Rectangle-path-5" d="M0 0h.462v3.763H0z" class="cls-1" data-name="Rectangle-path" transform="translate(544.526 789.002)"/>
        <path id="Shape-30" d="M276.315 72.416a1.147 1.147 0 0 1-1.238.941 1.244 1.244 0 0 1-1.238-1.374c0-.854.413-1.522 1.312-1.522.788 0 1.176.631 1.176 1.6h-1.967c0 .565.264.9.792.9a.689.689 0 0 0 .706-.54zm-.433-.722c-.025-.413-.206-.825-.772-.825a.825.825 0 0 0-.751.825z" class="cls-1" data-name="Shape" transform="translate(271.775 719.487)"/>
        <path id="Shape-31" d="M281.943 70.555v.413a.986.986 0 0 1 .825-.466.866.866 0 0 1 .961.953v1.865h-.45v-1.692c0-.47-.136-.714-.586-.714-.26 0-.722.165-.722.912v1.494h-.462v-2.744z" class="cls-1" data-name="Shape" transform="translate(267.27 719.466)"/>
        <path id="Shape-32" d="M289.059 68.81v.763h.441v.384h-.441v1.774c0 .2.182.219.276.219h.161v.359a2.775 2.775 0 0 1-.342.041c-.458 0-.557-.26-.557-.59v-1.8h-.367v-.384h.367v-.766z" class="cls-1" data-name="Shape" transform="translate(263.323 720.456)"/>
        <path id="Shape-33" d="M299.05 69.155a.978.978 0 0 0-1.05-.784c-.681 0-1.238.5-1.238 1.494 0 .887.314 1.564 1.238 1.564.33 0 .9-.153 1.073-1.031h.491a1.584 1.584 0 0 1-1.65 1.485c-.854 0-1.692-.557-1.692-2a1.75 1.75 0 0 1 1.753-1.96 1.423 1.423 0 0 1 1.543 1.238z" class="cls-1" data-name="Shape" transform="translate(258.629 720.982)"/>
        <path id="Shape-34" d="M306.921 70.46a1.309 1.309 0 0 1 1.271 1.444 1.281 1.281 0 1 1-1.271-1.444m0 2.476c.656 0 .8-.685.8-1.052s-.14-1.048-.8-1.048-.8.681-.8 1.048.14 1.052.8 1.052" class="cls-1" data-name="Shape" transform="translate(253.09 719.487)"/>
        <path id="Shape-35" d="M313.857 70.634v1.819c0 .45.227.6.524.6.578 0 .755-.512.755-.912v-1.51h.462v2.744h-.437v-.413a.916.916 0 0 1-.871.487.825.825 0 0 1-.891-.85V70.63z" class="cls-1" data-name="Shape" transform="translate(248.538 719.387)"/>
        <path id="Shape-36" d="M321.128 70.556v.413a.978.978 0 0 1 .825-.466.867.867 0 0 1 .957.953v1.864h-.425v-1.691c0-.47-.132-.714-.582-.714-.26 0-.722.165-.722.912v1.493h-.462v-2.743z" class="cls-1" data-name="Shape" transform="translate(244.238 719.465)"/>
        <path id="Shape-37" d="M328.219 68.81v.763h.441v.384h-.441v1.774c0 .2.182.219.276.219h.157v.359a2.606 2.606 0 0 1-.342.041c-.454 0-.553-.26-.553-.59v-1.8h-.367v-.384h.367v-.766z" class="cls-1" data-name="Shape" transform="translate(240.32 720.456)"/>
        <path id="Shape-38" d="M333.175 71.295c0-.169-.062-.462-.648-.462-.14 0-.545.05-.545.388 0 .231.144.289.73.413.825.19.994.413.994.776 0 .565-.466.908-1.081.908-1.089 0-1.155-.627-1.176-.961h.446c0 .2.07.561.726.561.326 0 .627-.12.627-.437 0-.215-.161-.33-.825-.458-.59-.116-.887-.3-.887-.726 0-.6.5-.875 1.036-.875.982 0 1.044.726 1.048.858z" class="cls-1" data-name="Shape" transform="translate(237.935 719.511)"/>
    </g>
</svg>
