<svg width="129" height="28" viewBox="0 0 129 28" fill="none" xmlns="http://www.w3.org/2000/svg">
<path d="M43.5323 20.5693H39.4381C39.0376 20.614 38.6369 20.4871 38.3403 20.2215C38.0866 19.9152 37.9672 19.5241 38.0078 19.1328V8.76061C38.0078 7.76582 38.3975 7.26147 39.1949 7.26147C39.9923 7.26147 40.3856 7.76582 40.3856 8.79539V18.4371H43.3928C44.4656 18.4371 44.9697 18.785 44.9697 19.505C44.9697 20.225 44.487 20.5867 43.5394 20.5867L43.5323 20.5693Z" fill="#282A36"/>
<path d="M48.6283 20.6945C47.8309 20.6945 47.4411 20.2076 47.4411 19.2163V8.76061C47.4411 7.76582 47.8309 7.26147 48.6283 7.26147C49.4257 7.26147 49.8154 7.76582 49.8154 8.76061V19.1954C49.8154 20.1867 49.4257 20.6911 48.6283 20.6911V20.6945Z" fill="#282A36"/>
<path d="M63.3494 20.7501C62.7934 20.7263 62.2857 20.4357 61.9942 19.9744L55.6437 11.397V19.2509C55.6437 20.2075 55.2361 20.6944 54.4387 20.6944C53.6413 20.6944 53.2659 20.2075 53.2659 19.2335V8.69787C53.2659 7.74135 53.6234 7.25439 54.3386 7.25439C54.8743 7.28346 55.361 7.567 55.6402 8.01266L62.0765 16.5344V8.76048C62.0765 7.7657 62.4662 7.26135 63.2457 7.26135C64.0253 7.26135 64.4508 7.7657 64.4508 8.76048V19.4144C64.4508 20.2979 64.0932 20.7501 63.378 20.7501H63.3494Z" fill="#282A36"/>
<path d="M76.7369 20.7152C76.3793 20.7152 75.9359 20.4787 75.4747 20.0196L70.0145 14.4544V19.2578C70.0145 20.2318 69.6069 20.7222 68.8059 20.7222C68.0049 20.7222 67.6366 20.2318 67.6366 19.2578V8.76043C67.6366 7.76565 68.0264 7.2613 68.8059 7.2613C69.5854 7.2613 70.0145 7.74826 70.0145 8.74304V12.5865L74.9705 7.94652C75.4532 7.49434 75.8644 7.25087 76.1791 7.25087C76.4779 7.23902 76.7682 7.34907 76.98 7.55445C77.1919 7.75983 77.3059 8.04189 77.2947 8.33261C77.2947 8.64217 77.0337 9.02826 76.5116 9.50826L72.1671 13.463L77.3412 18.6178C77.655 18.8935 77.8483 19.2756 77.8811 19.6857C77.8816 19.973 77.7603 20.2478 77.5458 20.4452C77.3312 20.6427 77.0425 20.7454 76.7476 20.7291L76.7369 20.7152Z" fill="#282A36"/>
<path d="M106.784 7.35184H106.752C106.69 7.32916 106.627 7.31057 106.562 7.29619C106.462 7.27765 106.36 7.26833 106.258 7.26837C105.91 7.2443 105.574 7.39852 105.371 7.67532C105.162 7.99792 105.064 8.37653 105.089 8.75706V15.2023C105.112 15.8869 104.99 16.5688 104.731 17.2058C104.731 17.2336 104.706 17.2649 104.692 17.2927C104.631 17.4082 104.56 17.5187 104.481 17.6232C104.419 17.7043 104.355 17.7808 104.288 17.8527L104.131 17.9953C104.041 18.0684 103.945 18.1347 103.845 18.1936L103.655 18.2945C103.555 18.3401 103.453 18.3796 103.348 18.4127C103.251 18.4406 103.151 18.4684 103.047 18.4893C102.946 18.5111 102.843 18.5274 102.74 18.5379C102.618 18.5379 102.489 18.5623 102.357 18.5658H102.196C101.934 18.5654 101.671 18.5421 101.413 18.4962C100.376 18.2945 99.7254 17.651 99.4429 16.5797C99.3428 16.1224 99.2948 15.6559 99.2999 15.1884V8.74315C99.2999 8.01272 99.0782 7.55706 98.6455 7.35184C98.474 7.28462 98.2904 7.25151 98.1056 7.25445C97.3261 7.25445 96.9363 7.74141 96.9363 8.73619V15.3449C96.901 16.4022 97.1604 17.449 97.6872 18.3745C97.7122 18.4127 97.7337 18.4545 97.7551 18.4927L97.8124 18.5727C97.9809 18.822 98.1737 19.055 98.3881 19.2684C99.3714 20.2249 100.487 20.6945 102.193 20.6945C103.898 20.6945 105.035 20.2249 106.001 19.2858C106.966 18.3466 107.47 17.0284 107.47 15.3484V8.73967C107.47 7.98141 107.242 7.5188 106.787 7.34837L106.784 7.35184Z" fill="#282A36"/>
<path d="M117 19.6301C116.032 20.3631 114.829 20.74 113.603 20.6944C112.777 20.6937 111.957 20.567 111.171 20.3188C110.099 19.9709 109.555 19.4666 109.555 18.837C109.547 18.5537 109.664 18.2805 109.876 18.0869C110.089 17.8932 110.377 17.7978 110.667 17.8249C110.962 17.8737 111.249 17.959 111.522 18.0788L112.451 18.4266C112.926 18.5732 113.42 18.6471 113.918 18.6457C114.454 18.6453 114.969 18.4376 115.348 18.0683C115.739 17.7144 115.961 17.2176 115.959 16.6979C115.959 15.9222 115.423 15.3275 114.343 14.8927L111.311 13.7066C110.274 13.151 109.649 12.0742 109.695 10.924C109.66 9.84906 110.165 8.82504 111.05 8.17962C111.937 7.549 113.016 7.2246 114.114 7.25788C115.359 7.25788 116.324 7.51179 116.993 8.01614C117.328 8.22681 117.537 8.58417 117.55 8.97267C117.567 9.23662 117.457 9.49322 117.254 9.66832C117.038 9.85017 116.759 9.94586 116.474 9.93615C116.076 9.88616 115.687 9.77707 115.323 9.61267C114.905 9.43148 114.459 9.32091 114.003 9.28571C113.536 9.26776 113.077 9.40925 112.705 9.68571C112.352 9.96737 112.158 10.3965 112.183 10.8405C112.167 11.223 112.367 11.5834 112.705 11.7796C113.173 12.0395 113.663 12.2572 114.171 12.4301C115.192 12.7647 116.17 13.2129 117.086 13.7657C117.971 14.4011 118.472 15.4237 118.423 16.4927C118.474 17.6959 117.945 18.8534 116.993 19.6231L117 19.6301Z" fill="#282A36"/>
<path d="M127.498 20.5692H122.396C121.355 20.5692 120.947 20.2213 120.947 19.1987V8.90306C120.947 7.89436 121.412 7.38654 122.36 7.38654H127.527C128.492 7.38654 128.975 7.74828 128.975 8.47175C128.975 9.19176 128.492 9.55349 127.509 9.55349H123.325V12.7152H127.23C128.213 12.7152 128.696 13.0631 128.696 13.7587C128.696 14.4544 128.213 14.8022 127.23 14.8022H123.315V18.437H127.552C128.517 18.437 129 18.7848 129 19.5396C129 20.2944 128.499 20.5831 127.498 20.5831V20.5692Z" fill="#282A36"/>
<path d="M93.7898 8.48222C93.7881 8.46139 93.7881 8.44045 93.7898 8.41961V8.35353C93.7916 8.33734 93.7916 8.32102 93.7898 8.30483C93.7898 8.28048 93.7898 8.25266 93.7898 8.22831V8.19005C93.7819 8.16402 93.7723 8.13847 93.7612 8.11353V8.07526L93.7291 8.00222V7.96744L93.6897 7.90135C93.6827 7.88671 93.6743 7.87274 93.6647 7.85961L93.6254 7.80396L93.5932 7.75874L93.5503 7.71352L93.5109 7.66831L93.4644 7.62309L93.4215 7.58831L93.3643 7.54309L93.325 7.51526L93.2499 7.46657H93.2285C93.1997 7.45058 93.1698 7.43663 93.1391 7.42483H93.114L93.0282 7.39352H92.996L92.9174 7.37265H92.8709C92.8495 7.37099 92.8279 7.37099 92.8065 7.37265H92.2559L92.1808 7.397H92.1379L92.0699 7.42831L92.0234 7.44918L91.9626 7.48048L91.9126 7.51179L91.8661 7.54309C91.8457 7.55382 91.8265 7.56665 91.8089 7.58135L91.7696 7.61266L91.6444 7.65439L91.6086 7.68918L91.5622 7.74135L91.5228 7.78657L91.4871 7.83526C91.4871 7.85266 91.462 7.87353 91.4477 7.89439L91.4263 7.9257L86.9173 16.8335L82.4083 7.9257L82.3868 7.89439C82.3758 7.87344 82.3626 7.85363 82.3475 7.83526C82.3376 7.81768 82.3256 7.80133 82.3117 7.78657C82.3007 7.77086 82.2887 7.75576 82.276 7.74135L82.2295 7.68918L82.1902 7.65439L82.1365 7.6057L82.0972 7.57439L82.0435 7.53613L81.9971 7.50483L81.9434 7.47352L81.8862 7.44222L81.8397 7.42135L81.7718 7.39005H81.7289L81.6538 7.3657H81.1031C81.0805 7.36402 81.0578 7.36402 81.0352 7.3657H80.9923L80.9136 7.38657H80.8814C80.8504 7.39331 80.8204 7.40383 80.792 7.41787H80.767L80.6812 7.45961H80.6597L80.5846 7.50831L80.5489 7.53613L80.4881 7.58135L80.4488 7.61613L80.4023 7.66135L80.3594 7.70657L80.32 7.75179L80.2843 7.797L80.245 7.85266C80.238 7.86729 80.2296 7.88126 80.2199 7.89439C80.2199 7.91526 80.1949 7.93613 80.1842 7.96048C80.1768 7.97134 80.1708 7.98302 80.1663 7.99526C80.1527 8.01834 80.1419 8.04284 80.1341 8.06831C80.1326 8.08102 80.1326 8.09386 80.1341 8.10657C80.1241 8.13155 80.1158 8.15711 80.1091 8.18309V8.22135C80.1014 8.24646 80.0954 8.27202 80.0912 8.29787C80.0912 8.29787 80.0912 8.32918 80.0912 8.34657C80.0894 8.36857 80.0894 8.39066 80.0912 8.41266C80.0894 8.43349 80.0894 8.45443 80.0912 8.47527C80.0912 8.47527 80.0912 8.50309 80.0912 8.517V19.4075C80.0912 20.0913 80.6611 20.6457 81.3642 20.6457C82.0672 20.6457 82.6371 20.0913 82.6371 19.4075V13.1466L85.8553 19.8944C86.0782 20.2674 86.4846 20.5006 86.928 20.5101H87.0067C87.4499 20.5 87.856 20.2669 88.0794 19.8944L91.2976 13.1466V19.4075C91.3334 20.0649 91.8919 20.5801 92.5687 20.5801C93.2456 20.5801 93.804 20.0649 93.8399 19.4075V8.48222H93.7898Z" fill="#282A36"/>
<path d="M28 13.9843C28.0063 19.6481 24.5993 24.7577 19.3684 26.9295C14.1376 29.1013 8.11348 27.9073 4.10635 23.9046C0.0992158 19.9019 -1.10139 13.8792 1.06459 8.6459C3.23058 3.41263 8.3364 4.88939e-06 14.0002 1.40871e-06C21.7274 -0.00342853 27.9949 6.25704 28 13.9843Z" fill="#0063DA"/>
<g clip-path="url(#clip0)">
<path opacity="0.25" d="M13.996 14.7547L7.95336 8.56258C7.86771 8.49296 7.74687 8.48024 7.64765 8.5304C7.54843 8.58056 7.49057 8.68362 7.50126 8.79113L9.51917 19.6366C9.5179 19.6136 9.5179 19.5906 9.51917 19.5676C9.53493 19.3568 9.64451 19.163 9.81964 19.036L13.996 14.7547Z" fill="white"/>
<path opacity="0.5" d="M20.041 8.56258L13.9956 14.7547L18.2712 19.1264L18.3236 19.1795C18.4187 19.2885 18.4731 19.4252 18.478 19.5676C18.4794 19.5932 18.4794 19.6189 18.478 19.6446L20.4987 8.79113C20.5093 8.68362 20.4515 8.58056 20.3523 8.5304C20.253 8.48024 20.1322 8.49296 20.0466 8.56258" fill="white"/>
<path opacity="0.8" d="M13.9931 18.0873C16.0027 18.0873 17.7036 18.5231 18.2715 19.1264L13.9959 14.7547L9.81396 19.0334C10.4618 18.4806 12.0882 18.0873 13.9931 18.0873Z" fill="white"/>
<path d="M18.4704 19.5383C18.4704 20.3356 16.469 21 13.9963 21C11.5235 21 9.5249 20.3436 9.5249 19.5383C9.5249 18.7331 11.5263 18.0767 13.9963 18.0767C16.4663 18.0767 18.4704 18.7304 18.4704 19.5383Z" fill="white"/>
</g>
<defs>
<clipPath id="clip0">
<rect width="13" height="12.5" fill="white" transform="translate(7.5 8.5)"/>
</clipPath>
</defs>
</svg>
