<?xml version="1.0" encoding="utf-8"?>
<!-- Generator: Adobe Illustrator 21.1.0, SVG Export Plug-In . SVG Version: 6.00 Build 0)  -->
<svg version="1.1" id="Layer_1" xmlns="http://www.w3.org/2000/svg" xmlns:xlink="http://www.w3.org/1999/xlink" x="0px" y="0px"
	 viewBox="0 0 173 36" style="enable-background:new 0 0 173 36;" xml:space="preserve">
<style type="text/css">
	.st0{fill:#000099;}
	.st1{fill:#008CFF;}
	.st2{fill:#CCCCFF;}
	.st3{fill:#DEFFFD;}
	.st4{fill:#FFFFFF;}
	.st5{fill:#9E9E9E;}
</style>
<g>
	<circle class="st0" cx="18.2" cy="17.6" r="15.8"/>
	<g>
		<path class="st1" d="M12.3,23.8l5.9-6.2l-8.5-9C9.5,8.3,9,8.6,9.1,8.9l2.8,15.8c0,0,0-0.1,0-0.1C11.9,24.3,12.1,24.1,12.3,23.8z"
			/>
		<path class="st2" d="M26.6,8.6l-8.5,9l6,6.4l0,0l0.1,0.1l0,0c0.1,0.2,0.2,0.4,0.2,0.6c0,0,0,0.1,0,0.1l0,0l2.8-15.8
			C27.4,8.6,26.9,8.3,26.6,8.6z"/>
		<path class="st3" d="M18.2,22.4c2.8,0,5.2,0.6,6,1.5l-6-6.4l-5.9,6.2C13.2,23,15.5,22.4,18.2,22.4z"/>
		<ellipse class="st4" cx="18.2" cy="24.2" rx="6.3" ry="2.3"/>
	</g>
</g>
<g>
	<path class="st0" d="M48.3,8.6L48.3,8.6c1,0,1.8,0.8,1.8,1.8v11.9c0,0.9,0.7,1.5,1.5,1.5h4c0.8,0,1.4,0.6,1.4,1.4v0
		c0,0.8-0.6,1.4-1.4,1.4h-6.4c-1.5,0-2.8-1.3-2.8-2.8V10.4C46.4,9.4,47.3,8.6,48.3,8.6z"/>
	<path class="st0" d="M61.1,8.6L61.1,8.6c1,0,1.8,0.8,1.8,1.8v14.4c0,1-0.8,1.8-1.8,1.8h0c-1,0-1.8-0.8-1.8-1.8V10.4
		C59.2,9.4,60.1,8.6,61.1,8.6z"/>
	<path class="st0" d="M69.3,8.6L69.3,8.6c1.1,0,2,0.6,2.5,1.5l6.1,12H78V10.3c0-1,0.8-1.7,1.7-1.7h0c1,0,1.7,0.8,1.7,1.7v13.6
		c0,1.5-1.2,2.7-2.7,2.7l0,0c-1,0-2-0.6-2.4-1.5l-6.1-12H70v11.8c0,1-0.8,1.7-1.7,1.7h0c-1,0-1.7-0.8-1.7-1.7V11.3
		C66.6,9.8,67.8,8.6,69.3,8.6z"/>
	<path class="st0" d="M87.6,8.6L87.6,8.6c1,0,1.8,0.8,1.8,1.8v6l6-7.2c0.3-0.4,0.8-0.6,1.3-0.6h0c1.4,0,2.2,1.7,1.3,2.8l-5,5.7
		l5.5,6.8c0.9,1.1,0.1,2.7-1.3,2.7h-0.4c-0.5,0-1-0.2-1.3-0.6l-6-7.7h-0.1v6.6c0,1-0.8,1.8-1.8,1.8l0,0c-1,0-1.8-0.8-1.8-1.8V10.4
		C85.8,9.4,86.6,8.6,87.6,8.6z"/>
	<path class="st0" d="M105.9,8.6L105.9,8.6c1.5,0,2.8,0.9,3.2,2.3l3.6,11.3h0.1l3.6-11.3c0.4-1.4,1.7-2.3,3.2-2.3h0
		c1.8,0,3.3,1.5,3.3,3.3v13c0,1-0.8,1.7-1.7,1.7h0c-1,0-1.7-0.8-1.7-1.7V11.7h-0.1L114.9,25c-0.3,1-1.2,1.6-2.3,1.6l0,0
		c-1,0-2-0.7-2.3-1.6l-4.3-13.3l-0.1,0.1v13.1c0,1-0.8,1.7-1.7,1.7l0,0c-1,0-1.7-0.8-1.7-1.7v-13C102.5,10.1,104,8.6,105.9,8.6z"/>
	<path class="st0" d="M128.6,8.6L128.6,8.6c1,0,1.8,0.8,1.8,1.8V19c0,3.1,1,5.1,3.8,5.1s3.8-2,3.8-5.1v-8.6c0-1,0.8-1.8,1.8-1.8l0,0
		c1,0,1.8,0.8,1.8,1.8v9.7c0,4.8-2.7,6.8-7.4,6.8c-4.6,0-7.4-2-7.4-6.8v-9.7C126.8,9.4,127.6,8.6,128.6,8.6z"/>
	<path class="st0" d="M155.6,10.1c-0.1,0.8-0.9,1.4-1.7,1.2c-0.7-0.2-1.4-0.3-2.1-0.3c-1.2,0-2.8,0.5-2.8,2.5c0,3.1,7.9,1.8,7.9,7.9
		c0,4-3.1,5.5-6.8,5.5c-1.4,0-2.6-0.3-3.7-0.6c-0.7-0.2-1.2-0.8-1.1-1.6v0c0.1-0.9,1-1.5,1.9-1.3c0.8,0.2,1.9,0.6,2.7,0.6
		c1.4,0,3.2-0.7,3.2-2.3c0-3.4-7.9-2-7.9-8c0-4,3.1-5.5,6.3-5.5c1.1,0,2.1,0.1,3.1,0.3C155.2,8.7,155.6,9.4,155.6,10.1L155.6,10.1z"
		/>
	<path class="st0" d="M160,8.6h9.6c0.8,0,1.4,0.6,1.4,1.4v0c0,0.8-0.6,1.4-1.4,1.4h-6v4.5h5.4c0.8,0,1.4,0.6,1.4,1.4v0
		c0,0.8-0.6,1.4-1.4,1.4h-5.4v5.1h6c0.8,0,1.4,0.6,1.4,1.4v0c0,0.8-0.6,1.4-1.4,1.4H160V8.6z"/>
</g>
</svg>
