<svg xmlns="http://www.w3.org/2000/svg" xmlns:xlink="http://www.w3.org/1999/xlink" width="157" height="34" viewBox="0 0 157 34">
    <defs>
        <path id="a" d="M.286.48h9.736v16.48H.286z"/>
    </defs>
    <g fill="none" fill-rule="evenodd">
        <path fill="#0092FF" d="M33.322 16.774c0 9.263-7.459 16.774-16.66 16.774C7.458 33.548 0 26.038 0 16.774 0 7.511 7.46 0 16.661 0c9.202 0 16.661 7.51 16.661 16.774"/>
        <path fill="#1A32AF" d="M32.232 16.774c0 8.658-6.97 15.677-15.57 15.677-8.6 0-15.572-7.019-15.572-15.677S8.061 1.098 16.661 1.098s15.571 7.018 15.571 15.676"/>
        <path fill="#0092FF" d="M10.897 23.28l5.764-6.17-8.327-8.912c-.25-.27-.689-.038-.624.33l2.78 15.62a.814.814 0 0 1-.007-.101c0-.27.148-.53.414-.768"/>
        <path fill="#94C5FF" d="M24.988 8.198L16.66 17.11l5.888 6.302h.001l.073.079h-.009a.902.902 0 0 1 .213.556.739.739 0 0 1-.008.114h.01l2.783-15.634c.065-.368-.373-.598-.624-.33"/>
        <path fill="#80F9FF" d="M16.655 21.915c2.77 0 5.112.63 5.894 1.497l-5.888-6.302-5.764 6.169c.893-.798 3.133-1.364 5.758-1.364"/>
        <path fill="#FFF" d="M22.825 24.02c0 1.162-2.76 2.105-6.164 2.105s-6.164-.943-6.164-2.105 2.76-2.106 6.164-2.106 6.164.944 6.164 2.106"/>
        <path fill="#061027" d="M53.732 25.008H48.8c-.628 0-1.077-.136-1.323-.43-.27-.27-.404-.721-.404-1.354v-12.98c0-1.241.47-1.873 1.435-1.873.965 0 1.435.632 1.435 1.919v12.032h3.632c1.278 0 1.906.45 1.906 1.33 0 .904-.583 1.356-1.749 1.356M59.883 25.165c-.964 0-1.435-.61-1.435-1.851v-13.07c0-1.241.47-1.873 1.435-1.873.964 0 1.435.632 1.435 1.873v13.048c0 1.242-.471 1.873-1.435 1.873M77.659 25.233c-.606 0-1.166-.316-1.636-.971L68.354 13.54v9.82c0 1.196-.493 1.805-1.457 1.805-.942 0-1.413-.61-1.413-1.828V10.154c0-1.196.426-1.805 1.279-1.805.582 0 1.098.316 1.569.948l7.757 10.654v-9.707c0-1.241.471-1.873 1.413-1.873.964 0 1.457.632 1.457 1.873v13.318c0 1.107-.426 1.671-1.3 1.671M93.822 25.188c-.449 0-.964-.294-1.525-.88l-6.591-6.975v6.003c0 1.22-.493 1.83-1.458 1.83-.942 0-1.413-.61-1.413-1.83V10.245c0-1.242.471-1.874 1.413-1.874.965 0 1.458.61 1.458 1.852v4.807l5.986-5.801c.582-.564 1.076-.858 1.457-.858s.695.135.964.384c.247.27.382.586.382.971 0 .384-.314.88-.942 1.466l-5.247 4.945 6.233 6.433c.426.451.65.902.65 1.33 0 .746-.628 1.288-1.367 1.288M130.102 8.487c-.011-.006-.024-.007-.036-.011a1.297 1.297 0 0 0-.23-.068 1.863 1.863 0 0 0-.369-.037c-.482 0-.837.172-1.07.51-.225.308-.342.755-.342 1.35v8.059c0 1.022-.134 1.853-.42 2.503-.015.036-.03.073-.046.107a2.9 2.9 0 0 1-.678.881 2.625 2.625 0 0 1-.574.373 2.97 2.97 0 0 1-.37.147 4.119 4.119 0 0 1-.736.159c-.147.018-.3.03-.46.035-.065.001-.127.006-.193.006-.346 0-.657-.032-.947-.085-1.252-.253-2.04-1.056-2.378-2.395a7.85 7.85 0 0 1-.175-1.74v-8.059c0-.91-.268-1.479-.79-1.718-.007-.002-.012-.006-.018-.009a1.595 1.595 0 0 0-.649-.124c-.942 0-1.412.61-1.412 1.851v8.262c0 1.5.303 2.753.906 3.786.03.049.053.101.083.15.021.034.047.064.069.098.202.311.43.605.692.873 1.188 1.196 2.534 1.784 4.598 1.784 2.084 0 3.432-.588 4.597-1.76 1.189-1.198 1.771-2.823 1.771-4.922v-8.261c0-.947-.275-1.524-.823-1.745M142.439 23.834c-1.077.88-2.445 1.33-4.104 1.33a9.406 9.406 0 0 1-2.937-.473c-1.3-.429-1.95-1.06-1.95-1.85 0-.791.56-1.265 1.345-1.265.157 0 .493.113 1.031.316l1.122.43c.56.18 1.166.27 1.77.27.651 0 1.234-.248 1.727-.723.47-.473.717-1.037.717-1.693 0-.97-.65-1.714-1.95-2.256l-3.632-1.49c-1.301-.791-1.951-1.942-1.951-3.477 0-1.422.538-2.573 1.637-3.43 1.009-.768 2.242-1.152 3.7-1.152 1.501 0 2.667.317 3.475.948.448.339.672.746.672 1.196 0 .384-.112.678-.358.88-.247.227-.561.34-.943.34-.246 0-.716-.136-1.39-.407-.694-.27-1.21-.406-1.59-.406-.629 0-1.145.158-1.57.497-.427.338-.628.834-.628 1.445 0 .518.201.902.628 1.174.313.202.896.473 1.77.812 1.817.7 2.983 1.263 3.52 1.67 1.077.813 1.615 1.942 1.615 3.408 0 1.648-.583 2.934-1.726 3.906"/>
        <g transform="translate(146.905 8.048)">
            <mask id="b" fill="#fff">
                <use xlink:href="#a"/>
            </mask>
            <path fill="#061027" d="M8.207 16.96H2.035c-1.255 0-1.749-.452-1.749-1.717V2.378C.286 1.113.847.48 1.99.48H8.23c1.166 0 1.749.452 1.749 1.355S9.395 3.19 8.207 3.19h-5.05v3.95H7.87c1.188 0 1.771.429 1.771 1.31 0 .88-.583 1.308-1.771 1.308H3.156v4.516h5.118c1.165 0 1.749.451 1.749 1.377 0 .88-.606 1.309-1.816 1.309" mask="url(#b)"/>
        </g>
        <path fill="#061027" d="M114.428 9.9a1.347 1.347 0 0 0-.023-.224 1.89 1.89 0 0 0-.02-.095l-.012-.049a1.434 1.434 0 0 0-.032-.097l-.016-.044a1.468 1.468 0 0 0-.038-.09l-.023-.048a1.206 1.206 0 0 0-.076-.134l-.046-.068a1.661 1.661 0 0 0-.091-.116l-.049-.053-.057-.057-.05-.045a1.527 1.527 0 0 0-.071-.058l-.045-.034-.091-.06c-.01-.004-.016-.01-.025-.016l-.01-.005a2.46 2.46 0 0 0-.106-.054l-.032-.016a1.56 1.56 0 0 0-.105-.04c-.013-.005-.026-.011-.04-.015-.03-.01-.062-.018-.093-.027l-.056-.014a2.248 2.248 0 0 0-.153-.025L113 8.41c-.029-.002-.057-.004-.085-.004h-.02c-.018 0-.034 0-.051.002a1.214 1.214 0 0 0-.16.014l-.065.009a1.91 1.91 0 0 0-.09.02l-.053.014a.927.927 0 0 0-.09.03c-.017.005-.034.01-.05.017a2.483 2.483 0 0 0-.084.037l-.056.026-.07.04-.062.037-.059.04-.066.05c-.016.012-.032.027-.048.04a1.381 1.381 0 0 0-.164.167l-.046.057-.045.06a1.578 1.578 0 0 0-.047.074l-.024.039-5.445 11.135-5.445-11.135-.024-.039a1.098 1.098 0 0 0-.048-.074l-.044-.06-.046-.057a.793.793 0 0 0-.057-.062 1.038 1.038 0 0 0-.108-.105c-.016-.013-.032-.028-.048-.04l-.066-.05a.885.885 0 0 0-.058-.04l-.062-.038-.071-.039-.055-.026a2.484 2.484 0 0 0-.084-.037l-.05-.018a.859.859 0 0 0-.09-.029l-.054-.014a1.408 1.408 0 0 0-.09-.02l-.064-.009a1.32 1.32 0 0 0-.16-.014c-.017-.001-.034-.003-.052-.003h-.019c-.029 0-.057.003-.085.005l-.069.005-.074.012a.843.843 0 0 0-.078.014l-.056.014c-.031.009-.063.016-.094.027l-.04.015c-.035.012-.07.025-.104.04l-.032.016a2.46 2.46 0 0 0-.106.054l-.01.005-.025.017c-.032.018-.062.039-.091.06-.016.01-.03.022-.045.033a1.17 1.17 0 0 0-.071.058c-.018.014-.034.03-.05.045l-.057.056-.05.054a1.66 1.66 0 0 0-.136.184c-.011.018-.022.035-.032.054a1.206 1.206 0 0 0-.067.127c-.013.03-.027.06-.039.091l-.016.044a4.3 4.3 0 0 0-.031.097l-.012.049a1.88 1.88 0 0 0-.04.24l-.004.078-.002.053v13.61c0 .855.687 1.547 1.535 1.547.849 0 1.537-.692 1.537-1.547v-7.84l3.894 8.432c.279.484.777.758 1.297.77l.048.002.049-.001a1.533 1.533 0 0 0 1.296-.771l3.894-8.432v7.84c0 .855.688 1.547 1.536 1.547.848 0 1.536-.692 1.536-1.547V9.952c0-.018-.003-.035-.003-.053"/>
    </g>
</svg>
