<svg xmlns="http://www.w3.org/2000/svg" width="44" height="44" viewBox="0 0 44 44">
    <g fill="none" fill-rule="evenodd">
        <path fill="#808792" d="M22 0C9.87 0 0 9.869 0 22s9.87 22 22 22 22-9.869 22-22S34.13 0 22 0zm0 42.308c-11.197 0-20.308-9.11-20.308-20.308 0-11.197 9.11-20.308 20.308-20.308 11.197 0 20.308 9.11 20.308 20.308 0 11.197-9.11 20.308-20.308 20.308z"/>
        <path fill="#7F8691" fill-rule="nonzero" d="M28.494 13H15.506C13.573 13 12 14.558 12 16.472v7.932c0 1.914 1.573 3.472 3.506 3.472h8.273l3.96 3.92a.704.704 0 0 0 1.197-.49v-3.458C30.66 27.632 32 26.17 32 24.404v-7.932C32 14.558 30.427 13 28.494 13zm2.103 11.404a2.096 2.096 0 0 1-2.103 2.083h-.26a.698.698 0 0 0-.701.694v2.448l-2.968-2.939a.704.704 0 0 0-.496-.203h-8.563a2.096 2.096 0 0 1-2.103-2.083v-7.932c0-1.149.943-2.083 2.103-2.083h12.988c1.16 0 2.103.934 2.103 2.083v7.932z"/>
        <path fill="#7F8691" fill-rule="nonzero" d="M27.282 18H16.718c-.397 0-.718.224-.718.5s.321.5.718.5h10.564c.397 0 .718-.224.718-.5s-.321-.5-.718-.5zM27.282 22H16.718c-.397 0-.718.224-.718.5s.321.5.718.5h10.564c.397 0 .718-.224.718-.5s-.321-.5-.718-.5z"/>
    </g>
</svg>
