<?xml version="1.0" encoding="UTF-8"?>
<svg width="16px" height="17px" viewBox="0 0 16 17" version="1.1" xmlns="http://www.w3.org/2000/svg" xmlns:xlink="http://www.w3.org/1999/xlink">
    <!-- Generator: Sketch 41.2 (35397) - http://www.bohemiancoding.com/sketch -->
    <title>Shape</title>
    <desc>Created with Sketch.</desc>
    <defs></defs>
    <g id="icons" stroke="none" stroke-width="1" fill="none" fill-rule="evenodd">
        <path d="M15.8933333,0.0752825266 C15.8255686,0.017973291 15.7361569,-0.00810392726 15.6458039,0.00220567067 L5.92031373,1.218435 C5.76407843,1.23814453 5.64705882,1.36640806 5.64705882,1.51892946 L5.64705882,3.34342507 L5.64705882,4.62060232 L5.64705882,12.3176268 C5.07419608,11.6520513 4.16407843,11.2190482 3.1372549,11.2190482 C1.40737255,11.2190482 0,12.4431614 0,13.9480594 C0,15.4529575 1.40737255,16.6770706 3.1372549,16.6770706 C4.86713725,16.6770706 6.2745098,15.4529575 6.2745098,13.9480594 C6.2745098,13.8777116 6.26854902,13.8085766 6.26227451,13.7397449 C6.26635294,13.7200354 6.2745098,13.7021452 6.2745098,13.681526 L6.2745098,4.88713575 L15.372549,3.74913807 L15.372549,9.28508893 C14.7996863,8.61981664 13.8895686,8.18681353 12.8627451,8.18681353 C11.1328627,8.18681353 9.7254902,9.41092667 9.7254902,10.9158247 C9.7254902,12.4207228 11.1328627,13.644836 12.8627451,13.644836 C14.5769412,13.644836 15.9727059,12.4422517 15.9978039,10.9561535 C15.9978039,10.9522116 16,10.9488761 16,10.9449342 L16,3.40406976 L16,2.12719574 L16,0.303003351 C16,0.215674992 15.961098,0.132591762 15.8933333,0.0752825266 Z" id="Shape" fill="#FFFFFF"></path>
    </g>
</svg>