<svg xmlns="http://www.w3.org/2000/svg" width="43" height="43" viewBox="0 0 43 43">
    <g fill="none" fill-rule="evenodd">
        <circle cx="21.5" cy="21.5" r="21.5" fill="#0A0A0E" fill-opacity=".6"/>
        <path fill="#FFF" d="M12.753 15.022c-.967 0-1.753.773-1.753 1.725V27.24c0 .952.786 1.725 1.753 1.725h17.494c.967 0 1.753-.773 1.753-1.725V16.747c0-.952-.786-1.725-1.753-1.725h-4.25l-.48-1.684A.439.439 0 0 0 25.09 13h-7.18a.434.434 0 0 0-.427.338l-.507 1.684h-4.223zm8.748 12.199c-3.068 0-5.563-2.455-5.563-5.473s2.495-5.474 5.563-5.474c3.066 0 5.561 2.456 5.561 5.474 0 3.017-2.495 5.473-5.561 5.473zm0-10.084c-2.584 0-4.687 2.068-4.687 4.61 0 2.543 2.103 4.61 4.687 4.61 2.583 0 4.685-2.067 4.685-4.61 0-2.542-2.102-4.61-4.685-4.61zm8.18-.515a.802.802 0 0 0-.808.796c0 .44.361.796.808.796a.802.802 0 0 0 .808-.796.803.803 0 0 0-.808-.796z" opacity=".7"/>
    </g>
</svg>
