<?xml version="1.0" encoding="UTF-8"?>
<svg width="19px" height="15px" viewBox="0 0 19 15" version="1.1" xmlns="http://www.w3.org/2000/svg" xmlns:xlink="http://www.w3.org/1999/xlink">
    <!-- Generator: Sketch 41.2 (35397) - http://www.bohemiancoding.com/sketch -->
    <title>Shape</title>
    <desc>Created with Sketch.</desc>
    <defs></defs>
    <g id="icons" stroke="none" stroke-width="1" fill="none" fill-rule="evenodd">
        <path d="M1.58605831,1.82915513 C0.71131078,1.82915513 7.54951657e-13,2.52915044 7.54951657e-13,3.38984718 L7.54951657e-13,12.884042 C7.54951657e-13,13.7447995 0.711372478,14.4447341 1.58605831,14.4447341 L17.4139417,14.4447341 C18.2886892,14.4447341 19,13.7447388 19,12.884042 L19,3.38984718 C19,2.52908973 18.2886275,1.82915513 17.4139417,1.82915513 L13.56852,1.82915513 L13.1343545,0.305496652 C13.0943128,0.128342592 12.93211,-5.07149878e-13 12.748128,-5.07149878e-13 L6.25150185,-5.07149878e-13 C6.06474344,-5.07149878e-13 5.9061191,0.125610607 5.86527533,0.305921627 L5.40692441,1.82915513 L1.58605831,1.82915513 L1.58605831,1.82915513 Z M9.50061698,12.8664966 C6.72540055,12.8664966 4.46757957,10.6452105 4.46757957,7.91474314 C4.46757957,5.18391148 6.72533885,2.96262542 9.50061698,2.96262542 C12.275093,2.96262542 14.5324821,5.18427575 14.5324821,7.91474314 C14.5324204,10.6448463 12.2750313,12.8664966 9.50061698,12.8664966 Z M9.50061698,3.74257682 C7.16271261,3.74257682 5.26063958,5.61386524 5.26063958,7.91437887 C5.26063958,10.2148925 7.16277431,12.0857559 9.50061698,12.0857559 C11.8380895,12.0857559 13.7394221,10.2144675 13.7394221,7.91437887 C13.7393604,5.61386524 11.8376576,3.74257682 9.50061698,3.74257682 Z M16.9020373,3.27747153 C16.49761,3.27747153 16.1704281,3.60014933 16.1704281,3.99737997 C16.1704281,4.39497488 16.4975483,4.71722771 16.9020373,4.71722771 C17.3060944,4.71722771 17.6332147,4.39491417 17.6332147,3.99737997 C17.6328445,3.60014933 17.3056625,3.27747153 16.9020373,3.27747153 Z" id="Shape" fill="#FFFFFF"></path>
    </g>
</svg>