<svg xmlns="http://www.w3.org/2000/svg" width="28" height="23" viewBox="0 0 28 23">
    <path fill="#85888E" fill-rule="evenodd" stroke="#85888E" stroke-width=".5" d="M1.002 11.661c.032.51.387.94.902 1.086l9.524 2.74.35 6.25c.016.247.191.464.44.545a.66.66 0 0 0 .7-.172l3.368-3.548 4.773 3.144c.212.142.46.217.72.217.6 0 1.12-.403 1.247-.969l3.961-19.216a.603.603 0 0 0-.222-.596.67.67 0 0 0-.658-.096l-24.341 9.43c-.493.211-.796.676-.764 1.185zm11.985 8.526l-.217-3.942 2.44 1.605-2.223 2.337zm8.772.48l-8.687-5.725L25.253 3.726l-3.494 16.94zm2.158-17.435l-12.043 11.09-9.514-2.736 21.557-8.354z"/>
</svg>
