<?xml version="1.0" encoding="UTF-8"?>
<svg width="23px" height="23px" viewBox="0 0 23 23" version="1.1" xmlns="http://www.w3.org/2000/svg" xmlns:xlink="http://www.w3.org/1999/xlink">
    <!-- Generator: Sketch 41.2 (35397) - http://www.bohemiancoding.com/sketch -->
    <title>user_L</title>
    <desc>Created with Sketch.</desc>
    <defs></defs>
    <g id="Page-1" stroke="none" stroke-width="1" fill="none" fill-rule="evenodd">
        <path d="M4.07928631,18.8775678 C5.14242169,18.4404441 7.26208325,17.6797538 8.65426186,17.2659116 C9.4638876,17.0088639 9.4638876,16.3222946 9.4638876,15.7711386 C9.4638876,15.3140592 9.43272999,14.6403185 9.16694615,14.0706323 C8.98472134,13.6805469 8.77605978,13.0115576 8.73026754,12.4874842 C8.71988167,12.3648995 8.66275939,12.2518175 8.57070282,12.1710447 C8.43663068,12.0532113 8.16470973,11.6217892 7.99145455,10.7513429 C7.85407782,10.0623979 7.91214427,9.91130512 7.96832238,9.76591398 C7.99239872,9.70367136 8.01553088,9.64237901 8.03394219,9.57300938 C8.14724259,9.15584131 8.0211959,7.78602862 7.88381917,7.02581346 C7.82386438,6.69559501 7.89939797,5.75672929 8.51358053,4.96610552 C9.06403162,4.25768002 9.89726161,3.86284327 10.960397,3.79442391 L11.8559422,3.79347364 C12.9474027,3.86284327 13.7811047,4.25768002 14.3325,4.96610552 C14.9466826,5.75672929 15.021272,6.69559501 14.9613172,7.0262886 C14.8248846,7.78602862 14.6974217,9.15584131 14.8107221,9.57253424 C14.8300776,9.64237901 14.8522656,9.70367136 14.8763419,9.76591398 C14.93252,9.91130512 14.9905865,10.0623979 14.8541539,10.7513429 C14.6808987,11.6217892 14.4080336,12.0532113 14.2744335,12.1710447 C14.1828491,12.2518175 14.1257268,12.3648995 14.1148688,12.4874842 C14.0695487,13.0115576 13.8613592,13.6805469 13.6786623,14.0706323 C13.4695287,14.518209 13.2287653,15.1145027 13.2287653,15.7516581 C13.2287653,16.3028141 13.2287653,16.9893834 14.0464165,17.2488068 C15.3791124,17.645069 17.5086877,18.3810523 18.6336663,18.8262533 C16.7557122,20.6982831 14.1748236,21.8561858 11.3300395,21.8561858 C8.51169219,21.8561858 5.9529916,20.7187139 4.07928631,18.8775678 C4.07928631,18.8775678 5.9529916,20.7187139 4.07928631,18.8775678 L4.07928631,18.8775678 L4.07928631,18.8775678 Z M11.3300395,0.950268948 C17.0569024,0.950268948 21.7159091,5.63937107 21.7159091,11.4032274 C21.7159091,13.9390201 20.8132826,16.2662287 19.3148849,18.0783916 C18.2796025,17.6431684 15.8351465,16.7893518 14.3221141,16.3398746 C14.1932349,16.299013 14.1729353,16.2923611 14.1729353,15.7516581 C14.1729353,15.3055068 14.3556322,14.8555545 14.5336082,14.4754469 C14.7262189,14.0620799 14.954708,13.3669582 15.0368508,12.7431066 C15.2662841,12.4751307 15.5788043,11.9458309 15.7799125,10.9375956 C15.9560002,10.0490941 15.8738575,9.72600268 15.7567804,9.42239175 C15.7449783,9.39055774 15.732232,9.35872373 15.7227903,9.32736486 C15.6784143,9.11878082 15.7393132,8.03642449 15.8908525,7.19638674 C15.9947112,6.62004862 15.8639437,5.39467682 15.0755618,4.38121498 C14.5775121,3.74025858 13.6253167,2.95391102 11.8852115,2.84415496 L10.9311277,2.84510523 C9.22076383,2.95391102 8.26715217,3.74025858 7.76910252,4.38121498 C6.98119269,5.39467682 6.84995306,6.62004862 6.95428384,7.19591161 C7.10629521,8.03642449 7.16625,9.11878082 7.12281818,9.32308865 C7.11384857,9.35872373 7.10063019,9.39055774 7.08788389,9.42239175 C6.97175099,9.72600268 6.88866403,10.0490941 7.0656959,10.9375956 C7.26585993,11.9458309 7.57838019,12.4751307 7.80875766,12.7431066 C7.88995627,13.3669582 8.11891749,14.0620799 8.31247233,14.4754469 C8.45362574,14.7776324 8.51971764,15.189574 8.51971764,15.7711386 C8.51971764,16.3118416 8.49941798,16.3184935 8.37856423,16.3569794 C6.8140746,16.8216609 4.32382633,17.7272672 3.39523518,18.1368331 C1.8670961,16.316593 0.94416996,13.9665779 0.94416996,11.4032274 C0.94416996,5.63937107 5.60364872,0.950268948 11.3300395,0.950268948 C11.3300395,0.950268948 5.60364872,0.950268948 11.3300395,0.950268948 L11.3300395,0.950268948 L11.3300395,0.950268948 Z M11.3300395,0 C5.07255311,0 0,5.10484479 0,11.4032274 C0,17.70161 5.07255311,22.8064547 11.3300395,22.8064547 C17.587998,22.8064547 22.6600791,17.70161 22.6600791,11.4032274 C22.6600791,5.10484479 17.587998,0 11.3300395,0 L11.3300395,0 Z" id="user_L" fill="#77788B"></path>
    </g>
</svg>