<svg xmlns="http://www.w3.org/2000/svg" width="92" height="20" fill="none" viewBox="0 0 92 20">
    <path fill="#282A36" d="M31.61 14.65h-2.893a.981.981 0 0 1-.776-.252 1.083 1.083 0 0 1-.235-.79v-7.52c0-.722.275-1.088.839-1.088.563 0 .841.366.841 1.113v6.991h2.125c.758 0 1.114.252 1.114.774s-.34.785-1.01.785M35.21 14.741c-.563 0-.839-.353-.839-1.072V6.088c0-.722.276-1.088.84-1.088.563 0 .838.366.838 1.088v7.566c0 .719-.275 1.084-.839 1.084M45.612 14.781a1.185 1.185 0 0 1-.958-.562l-4.487-6.22v5.695c0 .694-.288 1.047-.851 1.047-.564 0-.829-.353-.829-1.06V6.043c0-.694.253-1.047.758-1.047.378.021.722.227.92.55l4.548 6.18V6.086c0-.72.275-1.087.826-1.087.55 0 .851.366.851 1.087v7.726c0 .64-.253.968-.758.968M55.071 14.756c-.252 0-.565-.172-.891-.504l-3.859-4.036V13.7c0 .706-.288 1.062-.854 1.062-.565 0-.826-.356-.826-1.062V6.087c0-.72.276-1.087.826-1.087.551 0 .854.353.854 1.075v2.787l3.502-3.365c.341-.328.632-.504.854-.504a.759.759 0 0 1 .789.784c0 .225-.185.505-.554.853l-3.07 2.867 3.656 3.738c.222.2.359.477.382.774a.756.756 0 0 1-.801.757M76.302 5.066h-.022a1.037 1.037 0 0 0-.134-.04 1.149 1.149 0 0 0-.215-.02.708.708 0 0 0-.627.294 1.31 1.31 0 0 0-.2.785v4.673c.017.497-.069.991-.252 1.453 0 .02-.018.043-.028.063a1.746 1.746 0 0 1-.149.24c-.044.059-.089.114-.136.166l-.111.104a1.627 1.627 0 0 1-.202.143l-.134.074a1.854 1.854 0 0 1-.43.14 1.95 1.95 0 0 1-.217.036c-.086 0-.177.018-.27.02h-.114c-.186 0-.371-.017-.554-.05-.732-.146-1.192-.613-1.392-1.39a4.6 4.6 0 0 1-.1-1.009V6.075c0-.53-.157-.86-.463-1.01a.98.98 0 0 0-.382-.07c-.55 0-.826.353-.826 1.075v4.792a4.244 4.244 0 0 0 .53 2.197c.018.027.034.058.049.085l.04.058c.12.181.255.35.407.505.695.693 1.483 1.034 2.688 1.034s2.009-.34 2.691-1.022c.682-.68 1.038-1.637 1.038-2.855V6.072c0-.55-.161-.885-.482-1.009M83.52 13.969a3.683 3.683 0 0 1-2.4.772 5.585 5.585 0 0 1-1.718-.273c-.758-.252-1.142-.618-1.142-1.074a.716.716 0 0 1 .786-.734c.209.035.411.097.604.184l.657.252c.335.107.684.16 1.036.16.379-.001.743-.152 1.01-.42a1.35 1.35 0 0 0 .433-.993c0-.563-.38-.994-1.143-1.31l-2.142-.86a2.206 2.206 0 0 1-1.142-2.017 2.392 2.392 0 0 1 .958-1.99 3.49 3.49 0 0 1 2.165-.668c.879 0 1.561.184 2.034.55a.86.86 0 0 1 .394.693.622.622 0 0 1-.21.505.8.8 0 0 1-.55.194 2.783 2.783 0 0 1-.814-.235 2.844 2.844 0 0 0-.933-.237 1.42 1.42 0 0 0-.917.29c-.25.204-.387.516-.369.838a.756.756 0 0 0 .37.68c.33.189.676.347 1.035.472a9.903 9.903 0 0 1 2.06.969c.625.46.98 1.202.944 1.977a2.8 2.8 0 0 1-1.01 2.27M90.939 14.65h-3.606c-.735 0-1.023-.252-1.023-.994V6.191c0-.731.329-1.1.998-1.1h3.651c.682 0 1.023.263 1.023.787 0 .522-.34.785-1.036.785H87.99v2.292h2.76c.694 0 1.035.252 1.035.757 0 .504-.34.756-1.036.756h-2.766v2.636h2.994c.682 0 1.023.252 1.023.8 0 .547-.354.756-1.061.756M67.12 5.886a.275.275 0 0 1 0-.046v-.048a.17.17 0 0 0 0-.035v-.083a.502.502 0 0 0-.02-.056v-.027l-.022-.053v-.026l-.028-.047a.188.188 0 0 0-.018-.03l-.027-.041-.023-.033-.03-.033-.028-.032-.033-.033-.03-.025-.04-.033-.029-.02-.053-.036h-.015a.486.486 0 0 0-.063-.03h-.018l-.06-.023h-.023l-.056-.015h-.032a.286.286 0 0 0-.046 0H66.037l-.053.018h-.03l-.048.023-.033.015-.043.022-.036.023-.032.023a.23.23 0 0 0-.04.027l-.029.023-.088.03-.025.026-.033.037-.028.033-.025.036c0 .012-.018.027-.028.042l-.015.023-3.186 6.46-3.186-6.46-.015-.023a.252.252 0 0 0-.028-.042.179.179 0 0 0-.025-.036.371.371 0 0 0-.026-.033l-.033-.037-.027-.026-.038-.035-.028-.023-.038-.027-.033-.023-.038-.023-.04-.022-.033-.016-.048-.022h-.03l-.053-.018H58.157a.316.316 0 0 0-.048 0h-.03l-.056.015H58a.268.268 0 0 0-.063.023h-.018l-.06.03h-.016l-.053.036-.025.02-.043.032-.028.026-.033.032-.03.033-.028.033-.025.033-.028.04a.19.19 0 0 1-.018.03c0 .016-.017.03-.025.048a.118.118 0 0 0-.012.026.252.252 0 0 0-.023.053.123.123 0 0 0 0 .027.471.471 0 0 0-.018.056v.028a.438.438 0 0 0-.012.055v.035a.31.31 0 0 0 0 .048.274.274 0 0 0 0 .046V13.808a.899.899 0 0 0 1.798 0v-4.54l2.274 4.893a.9.9 0 0 0 .758.446h.056a.902.902 0 0 0 .758-.446l2.274-4.893v4.54a.899.899 0 0 0 1.796 0V5.886"/>
    <path fill="#0063DA" d="M20.035 9.989a10 10 0 0 1-6.176 9.246 10.03 10.03 0 0 1-10.92-2.16 9.987 9.987 0 0 1-2.177-10.9A10.018 10.018 0 0 1 10.018 0c5.529-.002 10.014 4.47 10.017 9.989z"/>
    <path fill="#0063DA" d="M19.124 9.989c0 5.02-4.077 9.09-9.106 9.09-5.03 0-9.107-4.07-9.107-9.09C.91 4.968 4.988.898 10.018.898c5.03 0 9.106 4.07 9.106 9.09z"/>
    <path fill="#fff" d="M10.018 10.188L5.149 5.022a.222.222 0 0 0-.364.19l1.626 9.05a.61.61 0 0 1 .242-.501l3.365-3.573z" opacity=".266"/>
    <path fill="#fff" d="M14.889 5.022l-4.871 5.166 3.445 3.648.042.044a.53.53 0 0 1 .124.388l1.629-9.055a.222.222 0 0 0-.365-.19" opacity=".494"/>
    <path fill="#fff" d="M10.015 12.969c1.62 0 2.99.364 3.448.867l-3.445-3.648-3.37 3.57c.522-.46 1.833-.79 3.367-.79z" opacity=".796"/>
    <path fill="#fff" d="M13.623 14.18c0 .665-1.613 1.219-3.605 1.219-1.993 0-3.603-.548-3.603-1.22 0-.671 1.613-1.22 3.603-1.22 1.99 0 3.605.546 3.605 1.22z"/>
</svg>
