<svg width="8" height="16" viewBox="0 0 8 16" fill="none" xmlns="http://www.w3.org/2000/svg">
<path fill-rule="evenodd" clip-rule="evenodd" d="M2.01301 3.09869C2.01301 3.5019 2.01301 5.30158 2.01301 5.30158H0.5V7.99528H2.01301V16H5.12106V7.9955H7.20671C7.20671 7.9955 7.40204 6.70389 7.49672 5.29165C7.22526 5.29165 5.13282 5.29165 5.13282 5.29165C5.13282 5.29165 5.13282 3.72454 5.13282 3.44985C5.13282 3.17458 5.47169 2.80429 5.80662 2.80429C6.14092 2.80429 6.84649 2.80429 7.5 2.80429C7.5 2.43754 7.5 1.17034 7.5 0C6.62759 0 5.63507 0 5.19758 0C1.93619 -0.000185998 2.01301 2.69619 2.01301 3.09869Z" fill="white"/>
</svg>
