<svg width="16" height="16" viewBox="0 0 16 16" fill="none" xmlns="http://www.w3.org/2000/svg">
<path d="M4.95818 7.99965C4.95818 6.32321 6.32322 4.95884 7.99966 4.95884C9.67677 4.95884 11.0411 6.32321 11.0411 7.99965C11.0411 9.67676 9.67677 11.0418 7.99966 11.0418C6.32322 11.0418 4.95818 9.67676 4.95818 7.99965Z" fill="white"/>
<path fill-rule="evenodd" clip-rule="evenodd" d="M0 2.93342C0 1.31604 1.31605 -1.52588e-05 2.93343 -1.52588e-05H13.0666C14.6839 -1.52588e-05 16 1.31604 16 2.93342V13.0665C16 14.6839 14.6839 16 13.0666 16H2.93343C1.31605 16 0 14.6839 0 13.0665V2.93342ZM2.73277 7.99965C2.73277 10.9042 5.09576 13.2672 7.99966 13.2672C10.9042 13.2672 13.2672 10.9042 13.2672 7.99965C13.2672 5.09574 10.9042 2.73276 7.99966 2.73276C5.09576 2.73276 2.73277 5.09574 2.73277 7.99965ZM12.1901 2.57571C12.1901 3.26293 12.7491 3.82197 13.4363 3.82197C14.1236 3.82197 14.6826 3.26293 14.6826 2.57571C14.6826 1.88849 14.1236 1.32946 13.4363 1.32946C12.7491 1.32946 12.1901 1.88849 12.1901 2.57571Z" fill="white"/>
</svg>
