<svg width="16" height="16" viewBox="0 0 16 16" fill="none" xmlns="http://www.w3.org/2000/svg">
<path d="M5.17161 2.04297C4.62488 2.04297 4.18166 2.48618 4.18166 3.03292C4.18166 3.57965 4.62488 4.02287 5.17161 4.02287L9.77994 4.02287C9.95812 4.02287 10.0474 4.2383 9.92136 4.36429L2.34319 11.9425C1.95266 12.333 1.95266 12.9662 2.34319 13.3567C2.73371 13.7472 3.36688 13.7472 3.7574 13.3567L11.3356 5.7785C11.4616 5.65251 11.677 5.74174 11.677 5.91992L11.677 10.5282C11.677 11.075 12.1202 11.5182 12.6669 11.5182C13.2137 11.5182 13.6569 11.075 13.6569 10.5282V3.04297C13.6569 2.49068 13.2092 2.04297 12.6569 2.04297L5.17161 2.04297Z" fill="#0063DA"/>
</svg>
