<svg xmlns="http://www.w3.org/2000/svg" width="16" height="16" fill="none" viewBox="0 0 16 16">
    <path fill="#fff" d="M10.467 3.766L7.995 6.238 5.59 3.834c-.424-.425-.99-.425-1.413-.001l-.283.282c-.423.424-.423.99.001 1.414L6.3 7.933l-2.472 2.472c-.423.424-.423.99.001 1.413l.354.354c.424.424.99.425 1.413 0l2.402-2.4 2.404 2.403c.424.425.99.425 1.413.001l.353-.353c.424-.424.424-.989 0-1.413L9.691 7.935l2.401-2.402c.424-.423.424-.989 0-1.413l-.284-.283c-.353-.495-.99-.424-1.342-.071z"/>
</svg>
