<svg xmlns="http://www.w3.org/2000/svg" width="80" height="12" fill="none" viewBox="0 0 80 12">
    <path fill="#0063DA" d="M4.858 11.84H1.265a1.227 1.227 0 0 1-.962-.31 1.299 1.299 0 0 1-.296-.967v-9.22C.007.459.35.01 1.054.01S2.098.46 2.098 1.374v8.57h2.644c.943 0 1.39.31 1.39.95 0 .64-.425.96-1.274.96v-.014zM9.334 11.95c-.7 0-1.043-.432-1.043-1.313V1.343C8.29.459 8.633.01 9.334.01c.702 0 1.044.449 1.044 1.333v9.275c0 .881-.34 1.33-1.044 1.33v.003zM22.277 12a1.482 1.482 0 0 1-1.191-.69l-5.583-7.624v6.982c0 .85-.359 1.283-1.06 1.283-.7 0-1.028-.433-1.028-1.299V1.287c0-.85.315-1.283.943-1.283.47.026.897.278 1.141.674l5.66 7.575v-6.91c0-.885.342-1.333 1.027-1.333.686 0 1.063.448 1.063 1.333v9.47c0 .785-.314 1.187-.943 1.187h-.029zM34.048 11.969c-.315 0-.701-.21-1.11-.618l-4.8-4.947v4.27c0 .865-.359 1.301-1.06 1.301-.7 0-1.031-.436-1.031-1.301V1.343c0-.885.346-1.333 1.031-1.333.686 0 1.06.433 1.06 1.317v3.417l4.36-4.125c.424-.402.783-.618 1.06-.618a.952.952 0 0 1 .704.27.92.92 0 0 1 .276.691c0 .275-.23.619-.685 1.045l-3.82 3.516 4.537 4.572c.276.245.446.585.474.95a.92.92 0 0 1-.294.675.952.952 0 0 1-.702.252v-.003zM60.465.09h-.025a1.216 1.216 0 0 0-.437-.074.886.886 0 0 0-.78.362c-.183.287-.27.623-.248.962v5.729a4.384 4.384 0 0 1-.314 1.78c0 .025-.022.053-.035.078a1.87 1.87 0 0 1-.185.294c-.053.072-.11.14-.17.204l-.139.126a1.815 1.815 0 0 1-.25.177c-.054.03-.108.061-.168.09a2.327 2.327 0 0 1-.53.172c-.091.02-.182.034-.274.044-.107 0-.22.021-.337.024h-.138a3.92 3.92 0 0 1-.689-.061 2.12 2.12 0 0 1-1.732-1.704 5.37 5.37 0 0 1-.129-1.237V1.327c0-.649-.195-1.054-.575-1.236C53.16.03 53 0 52.839.004c-.689 0-1.029.433-1.029 1.317v5.874c-.03.94.197 1.87.657 2.693l.063.105c.016.025.035.047.047.072.15.22.32.428.507.618.864.85 1.845 1.268 3.348 1.268 1.502 0 2.5-.418 3.348-1.253.849-.834 1.289-2.006 1.289-3.5V1.325c0-.674-.201-1.085-.6-1.237l-.004.004zM69.45 11.005a4.639 4.639 0 0 1-2.99.946 7.057 7.057 0 0 1-2.138-.334c-.943-.31-1.421-.758-1.421-1.317a.87.87 0 0 1 .283-.668.902.902 0 0 1 .698-.232 3.2 3.2 0 0 1 .751.226l.815.309c.417.13.853.196 1.292.194a1.804 1.804 0 0 0 1.257-.513c.334-.315.522-.75.522-1.205 0-.69-.475-1.219-1.421-1.605l-2.644-1.067a2.694 2.694 0 0 1-1.418-2.473 2.907 2.907 0 0 1 1.192-2.44 4.376 4.376 0 0 1 2.694-.819c1.094 0 1.943.226 2.515.674.295.187.477.505.487.85a.748.748 0 0 1-.26.619c-.19.161-.435.246-.686.238a3.502 3.502 0 0 1-1.012-.288 3.565 3.565 0 0 0-1.16-.29 1.79 1.79 0 0 0-1.142.355c-.31.251-.479.633-.456 1.027-.014.339.16.66.456.834.412.23.843.424 1.29.579.898.298 1.758.696 2.565 1.187a2.837 2.837 0 0 1 1.175 2.424 3.42 3.42 0 0 1-1.257 2.782l.013.007zM78.677 11.84H74.18c-.912 0-1.258-.31-1.258-1.22V1.47c0-.897.406-1.349 1.239-1.349h4.543c.849 0 1.273.322 1.273.965 0 .64-.424.961-1.289.961h-3.678v2.81h3.433c.864 0 1.289.31 1.289.928 0 .619-.425.928-1.29.928h-3.445v3.23h3.729c.845 0 1.273.31 1.273.98 0 .672-.44.928-1.323.928v-.012zM49.05 1.095a.323.323 0 0 0 0-.055V.98a.209.209 0 0 1 0-.042c0-.022 0-.047-.016-.068V.836l-.022-.068V.734l-.028-.065V.638c0-.022-.022-.04-.032-.06l-.025-.036-.035-.05-.028-.04-.034-.04-.095-.053a.491.491 0 0 0-.04-.04L48.66.29l-.054-.04-.031-.026a.52.52 0 0 0-.07-.043h-.018l-.076-.037h-.025l-.075-.028h-.028l-.07-.018h-.581l-.066.021h-.038l-.06.028-.04.019-.05.027-.048.028-.04.028-.048.034-.034.028-.045.05-.031.03-.04.047a.46.46 0 0 0-.032.04.537.537 0 0 0-.035.043l-.035.053V.6l-3.964 7.918L39.06.6a.077.077 0 0 0 0-.028c0-.019-.022-.037-.035-.053a.537.537 0 0 0-.034-.043.442.442 0 0 0-.032-.04l-.04-.047-.032-.03-.047-.044-.035-.028-.05-.034-.041-.028L38.666.2l-.05-.028-.041-.019-.06-.028h-.038l-.066-.021h-.484a.361.361 0 0 0-.056 0h-.041l-.07.018h-.028l-.075.028h-.025l-.076.037-.066.044-.035.024-.05.04-.038.031-.04.04a.217.217 0 0 0-.035.04l-.038.041-.028.04-.035.05a.241.241 0 0 0-.022.037.364.364 0 0 0-.034.058v.031l-.028.065v.034l-.022.068V.931a.209.209 0 0 1 0 .044v9.832a1.111 1.111 0 0 0 1.117 1.042c.595 0 1.086-.458 1.118-1.043V5.241l2.83 5.998c.195.332.552.54.942.548h.073c.39-.009.747-.216.943-.548l2.83-5.998v5.566c0 .607.5 1.1 1.118 1.1a1.11 1.11 0 0 0 1.12-1.1V1.131v-.037h-.126z"/>
</svg>
