<svg width="130" height="16" viewBox="0 0 130 16" fill="none" xmlns="http://www.w3.org/2000/svg">
<path d="M129.701 0.298977H117.761V5.38166H120.149V2.76557H122.239V9.26841H124.328V13.0057H121.94V15.6965H130V13.0057H127.761V9.26841H125.224V2.76557H127.313V5.38166H129.701V0.298977Z" fill="white"/>
<path d="M115.672 0.298977H105.523V2.98981H106.792V13.0057H105.523V15.6965H117.911V12.8562H109.851V9.26841H116.269V6.57758H109.851V2.98981H115.672V0.298977Z" fill="white"/>
<path fill-rule="evenodd" clip-rule="evenodd" d="M64.7776 15.6965H67.688L68.6581 13.0057H67.091L67.3149 12.2582H71.867L72.0909 13.0057H73.5088L74.4789 15.6965H77.6878L76.7923 13.0057H75.2998L72.6133 4.70895H74.1804L72.7625 0.298977H69.7775L68.285 4.70895H66.7179L64.2553 13.0057H65.6731L64.7776 15.6965ZM69.6283 4.48471L68.0611 9.79163H71.27L69.6283 4.48471Z" fill="white"/>
<path d="M50.7481 2.98981V0.298977H40.7483V4.6342H39.9275V15.6965H50.1511V12.9309H42.9871V9.26841H48.6586V6.57758H42.9871V4.70895H43.6587V2.98981H50.7481Z" fill="white"/>
<path d="M12.0923 2.98981V5.38166H9.70429V2.69083C9.70429 2.69083 5.15216 1.4949 4.48054 6.80182H3.13728V8.22198C3.13728 10.6886 4.18204 13.7531 8.65954 13.1552V10.4643H11.1968V14.9491C11.1968 14.9491 9.92817 15.9134 7.16704 15.9955C-0.370097 16.2197 0.00302836 7.99775 0.00302836 7.99775C0.00302836 7.99775 -0.295473 -6.40075e-06 7.31629 0C9.92817 0.0670777 11.0475 0.747453 11.0475 0.747453V2.98981H11.943V0.298981H22.8383V2.98981H18.9578V9.5674H20.3011V12.8562H24.1816V15.6965H13.2863V12.8562H17.1668V9.41791H15.8236V2.98981H12.0923Z" fill="white"/>
<path d="M25.6741 9.4179V15.6965H28.5098V9.5674H29.4053V6.65233L34.4798 15.6965H37.1663V4.7837H38.2111V0.298977H35.2261V4.6342H34.3306V9.5674L29.1815 0.298977H26.4949V9.4179H25.6741Z" fill="white"/>
<path d="M55.3749 12.7814V15.6965H52.3899V12.7814H50.7481V4.70895H52.3899V0.298977H55.5987L58.136 4.48471L60.7479 0.298977H63.7329V4.70895H62.2404V12.7814H63.7329V15.6965H60.7479V12.7814H59.2554V5.00793L56.7181 9.11892H56.1958L53.7331 5.23217V12.7814H55.3749Z" fill="white"/>
<path fill-rule="evenodd" clip-rule="evenodd" d="M79.1057 15.6965V13.0057H80.0012V9.56741H79.1057V0.448479C79.1057 0.448479 79.8519 0.224243 83.3593 0.149498C86.8667 0.0747523 89.2547 1.34542 89.2547 4.63422C89.2547 7.92301 86.8667 8.96945 86.8667 8.96945L87.0905 9.56741H88.0607L90.0009 13.0057H89.0308L90.5233 15.6965H87.0905L85.598 13.0057H86.5682L84.7772 9.56741H82.9862V13.0057H82.1653V15.6965H79.1057ZM82.2399 2.84032V7.2503C82.2399 7.2503 86.0458 7.77351 86.1204 4.93319C86.195 2.09287 82.2399 2.84032 82.2399 2.84032Z" fill="white"/>
<path d="M94.9262 0.298977H91.9412V2.98981H93.1352V13.0057H91.9412V15.6965H94.9262V13.0057H96.1948V9.26841H96.4933L100.225 15.6965H104.03L102.389 13.0057H103.657L100.374 7.62402L103.06 2.98981H101.941L103.433 0.298977H100.001L98.5082 2.98981H99.6276L97.6873 6.57758H96.1948V2.98981H94.9262V0.298977Z" fill="white"/>
</svg>
