<svg xmlns="http://www.w3.org/2000/svg" width="64" height="64" fill="none" viewBox="0 0 64 64">
    <path fill="#0063DA" fill-rule="evenodd" d="M2.635 18.147a1.68 1.68 0 0 1 .344-.137L58.8 2.06c2.8-.4 5.2 1.2 5.2 4v47.6c0 2.8-2.8 4.8-5.2 4l-20.26-5.686A2 2 0 0 0 36 53.9v4.16c0 2.4-1.6 4-4 4H12c-2.4 0-4-1.6-4-4V44.853a2 2 0 0 0-1.55-1.949l-3.418-.789a1.683 1.683 0 0 1-.442-.164C1.096 41.119 0 39.59 0 38.06v-16c0-1.544 1.118-3.088 2.635-3.913zM16 52.06a2 2 0 0 0 2 2h8a2 2 0 0 0 2-2v-1.312a2 2 0 0 0-1.425-1.916l-8-2.4A2 2 0 0 0 16 48.35v3.712z" clip-rule="evenodd"/>
</svg>
