<svg xmlns="http://www.w3.org/2000/svg" width="16" height="16" fill="none" viewBox="0 0 16 16">
    <path fill="#fff" fill-rule="evenodd" d="M8.785 12.71s.289-.033.436-.199c.136-.152.13-.437.13-.437s-.018-1.335.578-1.532c.587-.193 1.341 1.29 2.14 1.862.604.432 1.063.337 1.063.337l2.137-.031s1.118-.072.588-.987c-.043-.075-.309-.676-1.589-1.912-1.34-1.295-1.16-1.085.454-3.323.983-1.364 1.376-2.196 1.253-2.552-.117-.34-.84-.25-.84-.25l-2.404.015s-.178-.025-.31.057c-.13.081-.213.268-.213.268s-.38 1.056-.889 1.953c-1.071 1.893-1.5 1.993-1.675 1.875-.407-.274-.305-1.1-.305-1.688 0-1.835.267-2.6-.521-2.797-.262-.066-.454-.11-1.123-.117-.858-.01-1.585.003-1.996.212-.274.14-.485.451-.356.469.159.022.519.1.71.371.247.349.238 1.134.238 1.134s.142 2.16-.331 2.428c-.325.184-.77-.192-1.725-1.91-.49-.88-.86-1.853-.86-1.853s-.07-.18-.198-.277c-.154-.118-.37-.155-.37-.155l-2.286.014s-.343.01-.469.166c-.112.138-.009.423-.009.423s1.79 4.358 3.817 6.554c1.859 2.014 3.969 1.882 3.969 1.882h.956z" clip-rule="evenodd"/>
</svg>
