<svg width="24" height="24" viewBox="0 0 24 24" fill="none" xmlns="http://www.w3.org/2000/svg">
<path d="M20.8089 11.3412L21.7073 11.7804L20.8089 11.3413C20.6057 11.7569 20.6057 12.2431 20.8089 12.6587L21.7073 12.2196L20.8089 12.6588L22.0894 15.2783L19.5138 16.6448C19.1051 16.8617 18.8193 17.255 18.7394 17.7107L18.2356 20.5826L15.3486 20.1742C14.8905 20.1094 14.4281 20.2597 14.0956 20.5814L12 22.6086L9.9044 20.5814C9.57187 20.2597 9.10949 20.1094 8.65137 20.1742L5.76439 20.5826L5.26063 17.7107C5.18069 17.255 4.89492 16.8617 4.48622 16.6448L4.04433 17.4777L4.48622 16.6448L1.91058 15.2783L3.19107 12.6588L2.29266 12.2196L3.19107 12.6587C3.39426 12.2431 3.39426 11.7569 3.19107 11.3412L1.91058 8.72175L4.48622 7.35518C4.89492 7.13833 5.18069 6.74501 5.26063 6.2893L5.76439 3.41742L8.65138 3.82577C9.10949 3.89057 9.57187 3.74033 9.9044 3.41864L12 1.39135L14.0956 3.41864C14.4281 3.74033 14.8905 3.89057 15.3486 3.82577L18.2356 3.41742L18.7394 6.2893C18.8193 6.74501 19.1051 7.13833 19.5138 7.35518L22.0894 8.72175L20.8089 11.3412Z" stroke="white" stroke-opacity="0.64" stroke-width="2"/>
</svg>
