<svg width="24" height="24" viewBox="0 0 24 24" fill="none" xmlns="http://www.w3.org/2000/svg">
<path d="M11.6524 0.336314C11.8462 0.148797 12.1538 0.148798 12.3476 0.336315L14.7909 2.69992C14.9017 2.80715 15.0559 2.85723 15.2086 2.83563L18.5745 2.35954C18.8415 2.32177 19.0904 2.50258 19.137 2.76822L19.7243 6.11652C19.751 6.26843 19.8462 6.39953 19.9825 6.47182L22.9854 8.06509C23.2236 8.19149 23.3187 8.48406 23.2003 8.72636L21.7073 11.7804C21.6396 11.919 21.6396 12.081 21.7073 12.2196L23.2003 15.2736C23.3187 15.5159 23.2236 15.8085 22.9854 15.9349L19.9825 17.5282C19.8462 17.6005 19.751 17.7316 19.7243 17.8835L19.137 21.2318C19.0904 21.4974 18.8415 21.6782 18.5745 21.6405L15.2086 21.1644C15.0559 21.1428 14.9017 21.1929 14.7909 21.3001L12.3476 23.6637C12.1538 23.8512 11.8462 23.8512 11.6524 23.6637L9.2091 21.3001C9.09826 21.1929 8.94413 21.1428 8.79143 21.1644L5.42551 21.6405C5.15847 21.6782 4.9096 21.4974 4.86301 21.2318L4.27567 17.8835C4.24902 17.7316 4.15376 17.6005 4.01753 17.5282L1.01461 15.9349C0.776368 15.8085 0.681307 15.5159 0.799747 15.2736L2.29266 12.2196C2.36039 12.081 2.36039 11.919 2.29266 11.7804L0.799747 8.72636C0.681307 8.48406 0.776368 8.19149 1.01461 8.06509L4.01753 6.47182C4.15376 6.39953 4.24902 6.26843 4.27567 6.11652L4.86301 2.76822C4.9096 2.50258 5.15847 2.32177 5.42551 2.35954L8.79143 2.83563C8.94413 2.85723 9.09826 2.80715 9.2091 2.69992L11.6524 0.336314Z" fill="#42AC48"/>
</svg>
