<svg xmlns="http://www.w3.org/2000/svg">
	<symbol id="icon_attention" viewBox="0 0 16 16">
		<path fill-rule="evenodd" d="M0 8c0-4.4 3.6-8 8-8s8 3.6 8 8-3.6 8-8 8-8-3.6-8-8zm2 0c0 3.3 2.7 6 6 6s6-2.7 6-6-2.7-6-6-6-6 2.7-6 6z" clip-rule="evenodd"/>
		<path d="M7 4h2v5H7V4zM8 12a1 1 0 1 0 0-2 1 1 0 0 0 0 2z"/>
	</symbol>
	<symbol id="icon_info" viewBox="0 0 16 16">
		<path fill-rule="evenodd" d="M0 8c0-4.4 3.6-8 8-8s8 3.6 8 8-3.6 8-8 8-8-3.6-8-8zm2 0c0 3.3 2.7 6 6 6s6-2.7 6-6-2.7-6-6-6-6 2.7-6 6z" clip-rule="evenodd"/>
		<path d="M7 7h2v5H7V7zM8 6a1 1 0 1 0 0-2 1 1 0 0 0 0 2z"/>
	</symbol>
	<symbol id="icon_upload" viewBox="0 0 16 16">
		<path fill="#808792" fill-rule="evenodd" d="M7 12V3.4l-4 4L1.6 6 7.3.3c.4-.4 1-.4 1.4 0L14.4 6 13 7.4l-4-4V12H7zm-5 2h12v-3h2v4c0 .6-.4 1-1 1H1c-.6 0-1-.4-1-1v-4h2v3z" clip-rule="evenodd"/>
	</symbol>
	<symbol id="icon_dropdown" viewBox="0 0 16 16">
		<path d="M8 10L4.5 6.824 5.407 6 8 8.353 10.593 6l.907.824L8 10z"/>
	</symbol>
	<symbol id="checkbox__mark" viewBox="0 0 16 16">
		<path fill="#fff" d="M12.4 6L11 4.6l-4 4-2-2L3.6 8l2.693 2.693a1 1 0 0 0 1.414 0L12.4 6z"/>
	</symbol>
</svg>
