<?xml version="1.0" standalone="no"?>
<!DOCTYPE svg PUBLIC "-//W3C//DTD SVG 1.1//EN" "http://www.w3.org/Graphics/SVG/1.1/DTD/svg11.dtd" >
<svg xmlns="http://www.w3.org/2000/svg">
<metadata>Generated by IcoMoon</metadata>
<defs>
<font id="icomoon" horiz-adv-x="1024">
<font-face units-per-em="1024" ascent="960" descent="-64" />
<missing-glyph horiz-adv-x="1024" />
<glyph unicode="&#x20;" horiz-adv-x="512" d="" />
<glyph unicode="&#x2f;" glyph-name="share" d="M1024 453.998l-433.592 433.594v-288.776c-326.072 0-590.408-264.336-590.408-590.408 119.786 218.342 357.448 330.924 590.408 302.066v-290.068l433.592 433.592z" />
<glyph unicode="&#xe900;" glyph-name="Add" d="M1010.404 485.134h-473.642v474.376h-63.089v-474.376h-473.673v-63.252h473.673v-474.376h63.089v474.376h473.642z" />
<glyph unicode="&#xe901;" glyph-name="Cast" horiz-adv-x="1132" d="M1001.622 908.8c-50.391 0-91.387-40.898-91.387-91.169v-41.354l-713.474-225.68c-3.345 37.161-34.361 66.462-72.451 66.462-40.32 0-73.109-32.711-73.109-72.935v-200.572c0-40.224 32.79-72.935 73.109-72.935 38.090 0 69.107 29.302 72.451 66.462l61.558-19.474c-9.248-8.296-16.687-18.781-20.8-31.399-5.995-18.489-4.405-38.236 4.496-55.631 8.883-17.395 23.998-30.268 42.513-36.231l260.818-84.295c7.366-2.389 14.951-3.556 22.481-3.556 11.423 0 22.774 2.699 33.246 8.041 17.437 8.862 30.34 23.941 36.335 42.412 4.295 13.256 4.551 27.15 1.151 40.37l271.674-85.918v-41.354c0-50.271 40.996-91.169 91.387-91.169s91.387 40.898 91.387 91.169v747.587c0 50.271-40.996 91.169-91.387 91.169zM602.664 168.215c-2.997-9.226-9.468-16.757-18.186-21.188-8.718-4.449-18.625-5.233-27.836-2.279l-260.836 84.295c-9.23 2.99-16.779 9.427-21.22 18.143-4.46 8.716-5.282 18.58-2.285 27.77 5.008 15.426 19.392 25.236 34.818 25.236 3.71 0 7.494-0.565 11.204-1.769l260.836-84.295c19.173-6.2 29.719-26.786 23.505-45.913zM160.864 343.551c0-20.112-16.395-36.468-36.555-36.468s-36.555 16.356-36.555 36.468v200.572c0 20.112 16.395 36.468 36.555 36.468s36.555-16.356 36.555-36.468v-200.572zM197.419 375.132v137.392l712.816 225.48v-588.369l-712.816 225.498zM1056.454 70.044c0-30.159-24.601-54.702-54.832-54.702s-54.832 24.543-54.832 54.702v747.587c0 30.159 24.601 54.701 54.832 54.701s54.832-24.543 54.832-54.701v-747.587z" />
<glyph unicode="&#xe902;" glyph-name="Media" horiz-adv-x="1229" d="M21.403 960h838.017c11.5 0 20.827-9.327 20.827-20.827v-60.392c0-11.5-9.327-20.827-20.827-20.827s-20.827 9.327-20.827 20.827v39.565h-796.363v-796.363h39.565c11.5 0 20.827-9.327 20.827-20.827s-9.327-20.827-20.827-20.827h-60.392c-11.5 0-20.827 9.327-20.827 20.827v838.017c0 11.5 9.327 20.827 20.827 20.827zM165.156 816.248h838.017c11.5 0 20.827-9.327 20.827-20.827v-838.017c0-11.5-9.327-20.827-20.827-20.827h-838.017c-11.5 0-20.827 9.327-20.827 20.827v838.017c0 11.5 9.327 20.827 20.827 20.827zM185.983-21.77h796.363v796.363h-796.363v-796.363z" />
<glyph unicode="&#xe903;" glyph-name="heard" horiz-adv-x="1138" d="M1110.757 657.885c5.677-28.253 2.838-64.578-8.515-108.976-22.707-92.831-73.087-172.208-151.141-238.132l-387.431-326.927-378.916 326.927c-78.054 65.924-128.434 145.301-151.141 238.132-11.353 44.397-14.192 80.723-8.515 108.976 7.096 83.413 38.672 152.028 94.729 205.843s122.403 80.723 199.037 80.723c51.090 0 98.277-12.108 141.561-36.325s78.409-57.851 105.373-100.903c25.545 43.052 60.669 76.687 105.373 100.903s93.31 36.325 145.819 36.325c76.635 0 142.98-26.908 199.037-80.723s87.633-122.429 94.729-205.843zM1061.796 558.999c8.515 36.325 11.353 67.269 8.515 92.831-7.096 73.996-34.415 134.538-81.957 181.626s-104.663 70.632-171.364 70.632c-51.090 0-97.567-13.454-139.433-40.361s-72.732-63.233-92.6-108.976l-19.159-42.379-21.287 42.379c-19.868 47.088-50.025 83.75-90.472 109.985s-85.504 39.352-135.175 39.352c-65.281 0-122.048-23.544-170.299-70.632s-75.925-106.958-83.021-179.608v-2.018c-2.838-28.253 0-59.197 8.515-92.831 21.287-84.759 67.41-158.082 138.368-219.969l353.371-302.71 357.628 302.71c70.958 61.887 117.081 135.211 138.368 219.969z" />
<glyph unicode="&#xe904;" glyph-name="komment" d="M225.963-49.961c-2.513 0-5.058 0.623-7.354 1.87-5.027 2.711-8.161 8.008-8.161 13.71v221.984c-135.82 70.92-210.448 195.093-210.448 350.676 0 240.431 220.098 421.721 512 421.721s512-181.289 512-421.721c0-240.4-220.098-421.689-512-421.689-9.588 0-18.991 0.53-28.424 1.028l-0.621 0.031-248.46-165.024c-2.576-1.714-5.554-2.586-8.533-2.586z" />
<glyph unicode="&#xe905;" glyph-name="Mess" horiz-adv-x="1071" d="M259.054-41.512c-2.454 0-4.938 0.608-7.18 1.825-4.908 2.647-7.967 7.818-7.967 13.385v216.72c-132.599 69.238-205.457 190.467-205.457 342.359 0 234.729 214.878 411.719 499.858 411.719s499.858-176.99 499.858-411.719c0-234.699-214.878-411.689-499.858-411.689-9.361 0-18.54 0.517-27.75 1.004l-0.606 0.030-242.567-161.11c-2.514-1.673-5.423-2.525-8.331-2.525zM538.308 914.076c-267.681 0-469.563-163.939-469.563-381.298 0-101.089 34.172-238.562 197.005-319.391 5.15-2.555 8.422-7.849 8.422-13.629v-197.768l223.239 148.273c2.726 1.825 6.029 2.89 9.149 2.495l5.635-0.304c8.664-0.487 17.298-0.943 26.083-0.943 267.681 0 469.563 163.909 469.563 381.268s-201.852 381.298-469.533 381.298z" />
<glyph unicode="&#xe906;" glyph-name="more" horiz-adv-x="4096" d="M462.452 29.091c255.405 0 462.452 208.391 462.452 465.455s-207.047 465.455-462.452 465.455c-255.405 0-462.452-208.391-462.452-465.455s207.047-465.455 462.452-465.455zM2048 29.091c255.405 0 462.452 208.391 462.452 465.455s-207.047 465.455-462.452 465.455c-255.405 0-462.452-208.391-462.452-465.455s207.047-465.455 462.452-465.455zM3633.548 29.091c255.405 0 462.452 208.391 462.452 465.455s-207.047 465.455-462.452 465.455c-255.405 0-462.452-208.391-462.452-465.455s207.047-465.455 462.452-465.455z" />
<glyph unicode="&#xe907;" glyph-name="Notic" horiz-adv-x="846" d="M831.861 144.506c4.947-4.967 6.492-10.556 4.638-16.765s-6.492-9.935-13.912-11.177l-163.239-29.804c-29.68-4.967-58.123-9.314-85.33-13.039-14.84-29.804-36.172-53.399-63.997-70.785s-57.814-26.078-89.967-26.078c-32.153 0-62.142 8.693-89.967 26.078s-49.157 40.981-63.997 70.785c-27.207 3.725-55.65 8.072-85.33 13.039l-163.239 29.804c-7.42 1.242-12.057 4.967-13.912 11.177s-0.309 11.797 4.637 16.765c76.673 76.994 115.009 171.373 115.009 283.138v156.471c0 50.915 15.149 96.863 45.447 137.844s66.471 71.405 108.517 91.275c17.313 7.451 35.245 13.66 53.795 18.627v11.177c0 24.837 8.347 45.637 25.042 62.402s37.1 25.147 61.215 25.147c24.115 0 44.52-8.382 61.215-25.147s25.042-37.565 25.042-62.402v-9.314c21.023-4.967 40.81-11.797 59.36-20.49 40.81-18.628 75.745-47.811 104.807-87.549s43.592-86.928 43.592-141.569v-156.471c0-108.040 40.191-202.419 120.574-283.138zM364.403 843.038v-3.726c34.627 6.209 69.253 6.83 103.88 1.863v1.863c0 14.902-4.947 27.32-14.84 37.255s-21.951 14.902-36.172 14.902c-14.222 0-26.588-4.967-37.1-14.902s-15.767-22.353-15.767-37.255zM420.053 12.251c45.756 0 82.856 19.248 111.299 57.745-38.336-4.967-75.436-7.451-111.299-7.451-34.627 0-71.726 1.863-111.299 5.588 28.443-37.255 65.543-55.883 111.299-55.883zM653.782 122.153l131.704 22.353c-72.963 83.203-109.444 177.582-109.444 283.138v156.471c0 44.706-12.367 84.755-37.1 120.147s-54.413 61.16-89.040 77.304c-21.023 9.935-43.283 16.765-66.78 20.49-44.52 9.935-88.421 9.935-131.704 0-21.023-4.967-41.428-11.797-61.215-20.49-35.863-17.386-66.78-43.775-92.75-79.167s-38.955-74.82-38.955-118.285v-156.471c0-109.281-34.627-203.661-103.88-283.138l131.704-22.353c34.627-6.209 65.543-11.176 92.75-14.902 13.603-1.242 25.97-2.484 37.1-3.725h1.855c9.893-1.242 20.405-2.484 31.535-3.725h5.565c8.657 0 17.932-0.621 27.825-1.863h74.2c9.893 1.242 19.168 1.863 27.825 1.863h5.565c12.367 1.242 23.497 2.484 33.39 3.725 12.367 1.242 24.733 2.484 37.1 3.725 28.443 3.726 59.36 8.693 92.75 14.902z" />
<glyph unicode="&#xe908;" glyph-name="placeholder-2" horiz-adv-x="753" d="M379.573 420.653c-94.298 0-171.038 76.74-171.038 171.068s76.71 171.068 171.038 171.068c94.328 0 171.038-76.74 171.038-171.068s-76.74-171.068-171.038-171.068zM379.573 732.642c-77.704 0-140.92-63.217-140.92-140.951s63.217-140.951 140.92-140.951c77.704 0 140.92 63.217 140.92 140.951s-63.217 140.951-140.92 140.951zM379.573-40.056c-4.457 0-8.674 1.958-11.535 5.391-14.577 17.378-356.713 428.122-356.713 626.357 0 203.083 165.195 368.309 368.248 368.309s368.248-165.225 368.248-368.309c0-198.264-342.136-608.979-356.683-626.387-2.891-3.403-7.138-5.361-11.565-5.361zM379.573 929.882c-186.458 0-338.131-151.703-338.131-338.191 0-167.785 277.564-518.475 338.131-592.956 60.536 74.511 338.131 425.201 338.131 592.956-0.030 186.488-151.703 338.191-338.131 338.191z" />
<glyph unicode="&#xe909;" glyph-name="plus_L" d="M469.333 490.667v469.333h85.333v-469.333h469.333v-85.333h-469.333v-469.333h-85.333v469.333h-469.333v85.333h469.333z" />
<glyph unicode="&#xe90a;" glyph-name="send-fill" d="M1023.421 774.725c0 0.034-0.017 0.085-0.017 0.119-0.392 2.13-1.125 4.073-2.25 5.846-0.017 0.017-0.017 0.051-0.017 0.068-0.017 0.034-0.051 0.051-0.068 0.085-1.074 1.67-2.369 3.102-3.954 4.312-0.324 0.256-0.665 0.443-1.006 0.682-1.278 0.835-2.591 1.534-4.073 1.994-0.937 0.324-1.892 0.426-2.863 0.579-0.75 0.102-1.415 0.443-2.199 0.443h-0.068c-0.665 0.017-1.125-0.051-1.602-0.102-0.153-0.017-0.29 0-0.443-0.017s-0.324 0-0.494-0.034c-0.46-0.068-0.92-0.136-1.363-0.239l-989.403-204.466c-7.039-1.466-12.424-7.175-13.43-14.299s2.556-14.112 8.914-17.469l283.461-149.519 49.715-275.877c-0.034-0.205 0.017-0.426 0-0.631-0.17-1.363-0.187-2.693-0.017-4.039 0.085-0.682 0.17-1.329 0.341-1.994 0.392-1.619 1.023-3.136 1.875-4.568 0.17-0.273 0.17-0.597 0.358-0.869 0.051-0.085 0.136-0.153 0.205-0.222 0.222-0.324 0.528-0.579 0.784-0.903 0.801-0.988 1.636-1.892 2.591-2.659 0.153-0.119 0.256-0.307 0.426-0.426 0.256-0.187 0.545-0.239 0.801-0.409 1.040-0.682 2.113-1.244 3.255-1.687 0.46-0.17 0.886-0.375 1.363-0.511 1.534-0.443 3.119-0.75 4.721-0.75 0.017 0 0.034 0 0.051 0v0c0 0 0 0 0 0 0.068 0 0.136 0.034 0.205 0.034 0.29-0.017 0.579-0.034 0.869-0.034 4.721 0 8.982 2.113 12.135 5.369l188.82 125.88 197.7-128.505c2.795-1.807 6.033-2.744 9.288-2.744 1.79 0 3.613 0.29 5.369 0.869 4.908 1.636 8.828 5.42 10.618 10.294l237.513 644.655c1.585 2.574 2.488 5.624 2.488 8.879-0.017 0.988-0.426 1.892-0.597 2.863zM825.976 660.144l-408.915-300.674c-0.665-0.494-1.193-1.108-1.772-1.687-0.222-0.205-0.443-0.375-0.631-0.597-0.358-0.392-0.682-0.784-1.006-1.21-0.307-0.409-0.545-0.835-0.818-1.261-0.631-1.023-1.159-2.079-1.568-3.204-0.085-0.222-0.222-0.392-0.29-0.614-0.017-0.068-0.085-0.102-0.102-0.17l-46.868-152.314-37.137 206.068 499.107 255.663zM390.423 165.622l46.459 153.456 93.021-60.469-139.481-92.987z" />
<glyph unicode="&#xe90b;" glyph-name="settings" d="M969.391 561.778c29.014 0 52.614-23.646 52.614-52.717v-122.121c0-29.070-23.6-52.717-52.614-52.717h-95.614c-15.368 0-28.068-8.477-33.934-22.699s-2.897-29.203 7.947-40.088l67.604-67.717c9.936-9.975 15.405-23.211 15.405-37.281 0-14.090-5.47-27.344-15.405-37.299l-86.17-86.34c-19.873-19.91-54.526-19.949-74.437 0l-67.585 67.736c-10.864 10.865-25.795 13.881-40.010 7.965-14.195-5.898-22.653-18.584-22.653-33.982v-95.801c0-29.070-23.602-52.717-52.616-52.717h-121.864c-29.014 0-52.614 23.646-52.614 52.717v95.801c0 15.398-8.46 28.084-22.655 33.982-14.212 5.896-29.146 2.9-40.010-7.965l-67.585-67.736c-19.91-19.967-54.544-19.93-74.435 0l-86.171 86.34c-9.936 9.975-15.405 23.209-15.405 37.299 0 14.070 5.47 27.326 15.405 37.281l67.604 67.717c10.844 10.885 13.834 25.865 7.949 40.088-5.887 14.223-18.548 22.699-33.916 22.699h-95.614c-29.014 0-52.614 23.646-52.614 52.736v122.102c0 29.070 23.6 52.717 52.614 52.717h95.614c15.368 0 28.049 8.477 33.916 22.699s2.895 29.203-7.949 40.088l-67.604 67.717c-9.936 9.975-15.405 23.211-15.405 37.281 0 14.090 5.47 27.344 15.405 37.299l86.171 86.34c19.871 19.91 54.524 19.949 74.435 0l67.585-67.717c10.864-10.867 25.854-13.92 40.010-7.984 14.195 5.898 22.655 18.584 22.655 33.982v95.801c0 29.070 23.6 52.717 52.614 52.717h121.883c29.014 0 52.614-23.646 52.614-52.717v-95.801c0-15.398 8.46-28.084 22.655-33.982 14.156-5.916 29.146-2.883 40.010 7.984l67.585 67.717c19.91 19.949 54.563 19.91 74.435 0l86.171-86.34c9.936-9.975 15.405-23.209 15.405-37.299 0-14.070-5.47-27.326-15.405-37.281l-67.604-67.717c-10.844-10.885-13.834-25.865-7.949-40.088 5.887-14.223 18.548-22.699 33.916-22.699h95.614zM984.152 386.94v122.121c0 8.154-6.624 14.791-14.762 14.771h-95.614c-30.737 0-57.138 17.674-68.891 46.119-11.772 28.443-5.563 59.656 16.162 81.426l67.604 67.717c5.772 5.766 5.772 15.152 0 20.936l-86.17 86.338c-5.735 5.785-15.103 5.785-20.895 0l-67.585-67.717c-21.727-21.77-52.842-27.988-81.267-16.193-28.39 11.775-46.029 38.229-46.029 69.025v95.801c0 8.154-6.624 14.791-14.782 14.791h-121.864c-8.138 0-14.762-6.637-14.762-14.791v-95.801c0-30.797-17.639-57.25-46.029-69.006-28.427-11.795-59.559-5.557-81.267 16.193l-67.585 67.717c-5.772 5.783-15.14 5.783-20.895 0l-86.169-86.338c-5.772-5.766-5.772-15.152 0-20.936l67.604-67.717c21.745-21.77 27.934-52.982 16.162-81.426-11.752-28.445-38.154-46.119-68.891-46.119h-95.614c-8.138 0-14.762-6.637-14.762-14.791v-122.121c0-8.154 6.624-14.791 14.762-14.791h95.614c30.737 0 57.138-17.674 68.891-46.1 11.772-28.443 5.565-59.656-16.162-81.426l-67.604-67.717c-5.772-5.766-5.772-15.152 0-20.936l86.169-86.338c5.735-5.766 15.103-5.803 20.895 0l67.585 67.734c14.46 14.488 33.064 22.074 52.255 22.074 9.69 0 19.493-1.936 29.012-5.898 28.39-11.775 46.029-38.229 46.029-69.025v-95.801c0-8.154 6.624-14.791 14.762-14.791h121.883c8.138 0 14.762 6.637 14.762 14.791v95.801c0 30.797 17.639 57.25 46.029 69.025 28.388 11.758 59.521 5.594 81.267-16.193l67.585-67.736c5.772-5.803 15.14-5.766 20.895 0l86.17 86.338c5.772 5.766 5.772 15.152 0 20.936l-67.602 67.717c-21.747 21.77-27.936 52.982-16.164 81.426 11.752 28.445 38.154 46.119 68.891 46.119h95.614c8.138 0 14.762 6.637 14.762 14.791v0zM511.002 618.666c93.93 0 170.333-76.553 170.333-170.666s-76.404-170.666-170.333-170.666c-93.93 0-170.333 76.553-170.333 170.666s76.404 170.666 170.333 170.666zM511.002 315.26c73.035 0 132.481 59.562 132.481 132.74s-59.446 132.74-132.481 132.74c-73.035 0-132.481-59.562-132.481-132.74s59.446-132.74 132.481-132.74z" />
<glyph unicode="&#xe90c;" glyph-name="Shape" horiz-adv-x="1097" d="M1094.289 671.909c5.707-28.403 2.853-64.922-8.56-109.556-22.827-93.325-73.476-173.125-151.945-239.399l-389.493-328.667-380.933 328.667c-78.469 66.274-129.118 146.074-151.945 239.399-11.414 44.634-14.267 81.152-8.56 109.556 7.134 83.857 38.878 152.837 95.233 206.938s123.054 81.152 200.097 81.152c51.362 0 98.8-12.173 142.315-36.519s78.826-58.159 105.933-101.44c25.681 43.281 60.992 77.095 105.934 101.44s93.806 36.519 146.595 36.519c77.043 0 143.741-27.051 200.097-81.152s88.1-123.081 95.233-206.938z" />
<glyph unicode="&#xe90d;" glyph-name="star" d="M1001.776 510.854l-179.396-176.664c-7.649-7.539-11.154-18.373-9.352-28.997l42.363-249.431c4.758-28.025-6.418-55.8-29.199-72.537-12.877-9.466-27.967-14.251-43.121-14.251-11.666 0-23.395 2.839-34.221 8.596l-221.759 117.776c-9.453 5.011-20.731 5.011-30.184 0l-221.737-117.776c-24.955-13.276-54.584-11.102-77.344 5.655-22.781 16.737-33.955 44.513-29.199 72.537l42.344 249.451c1.803 10.605-1.703 21.458-9.352 28.999l-179.396 176.643c-20.156 19.842-27.272 48.966-18.576 76.037 8.715 27.074 31.412 46.399 59.278 50.479l247.946 36.414c10.559 1.553 19.705 8.243 24.42 17.917l110.87 226.956c12.445 25.497 37.707 41.342 65.84 41.342 28.153 0 53.414-15.845 65.862-41.342l110.848-226.956c4.717-9.674 13.84-16.364 24.401-17.917l247.944-36.394c27.887-4.1 50.586-23.425 59.299-50.499 8.695-27.072 1.58-56.195-18.576-76.037h-0.001z" />
<glyph unicode="&#xe90e;" glyph-name="user_L" d="M187.424 119.538c47.333 19.462 141.704 53.329 203.686 71.754 36.046 11.444 36.046 42.011 36.046 66.55 0 20.35-1.387 50.346-13.22 75.709-8.113 17.367-17.403 47.152-19.442 70.485-0.462 5.458-3.006 10.492-7.104 14.088-5.969 5.246-18.076 24.454-25.789 63.208-6.116 30.673-3.531 37.4-1.030 43.873 1.072 2.771 2.102 5.5 2.922 8.588 5.044 18.573-0.567 79.559-6.684 113.406-2.669 14.702 0.694 56.502 28.038 91.702 24.507 31.54 61.604 49.119 108.937 52.165l39.871 0.042c48.594-3.088 85.712-20.667 110.261-52.208 27.344-35.2 30.665-77 27.996-91.723-6.074-33.825-11.749-94.811-6.705-113.363 0.862-3.11 1.85-5.838 2.922-8.61 2.501-6.473 5.086-13.2-0.988-43.873-7.714-38.754-19.862-57.961-25.81-63.208-4.078-3.596-6.621-8.631-7.104-14.088-2.018-23.333-11.287-53.117-19.421-70.485-9.311-19.927-20.030-46.475-20.030-74.842 0-24.538 0-55.106 36.403-66.656 59.334-17.642 154.146-50.41 204.232-70.231-83.61-83.346-198.515-134.898-325.17-134.898-125.478 0-239.396 50.642-322.816 132.613 0 0 83.421-81.971 0 0v0 0zM510.24 917.692c254.97 0 462.397-208.767 462.397-465.384 0-112.898-40.187-216.509-106.898-297.19-46.093 19.377-154.924 57.39-222.287 77.402-5.738 1.819-6.642 2.115-6.642 26.188 0 19.863 8.134 39.896 16.058 56.819 8.575 18.404 18.748 49.352 22.405 77.127 10.215 11.931 24.129 35.496 33.082 80.384 7.84 39.558 4.183 53.942-1.030 67.46-0.525 1.417-1.093 2.835-1.513 4.231-1.976 9.287 0.736 57.475 7.482 94.875 4.624 25.66-1.198 80.215-36.298 125.336-22.174 28.536-64.567 63.546-142.040 68.433l-42.477-0.042c-76.148-4.844-118.605-39.854-140.779-68.39-35.079-45.121-40.922-99.677-36.277-125.315 6.768-37.421 9.437-85.609 7.503-94.706-0.399-1.587-0.988-3.004-1.555-4.421-5.17-13.517-8.87-27.902-0.988-67.46 8.912-44.888 22.826-68.454 33.082-80.384 3.615-27.775 13.809-58.723 22.426-77.127 6.284-13.454 9.227-31.794 9.227-57.686 0-24.073-0.904-24.369-6.284-26.083-69.654-20.688-180.524-61.008-221.866-79.242-68.035 81.040-109.126 185.667-109.126 299.792 0 256.617 207.448 465.384 462.397 465.384 0 0-254.949 0 0 0v0 0zM510.24 960c-278.594 0-504.433-227.277-504.433-507.692s225.839-507.692 504.433-507.692c278.615 0 504.433 227.277 504.433 507.692s-225.818 507.692-504.433 507.692v0z" />
<glyph unicode="&#xe90f;" glyph-name="Send" horiz-adv-x="1190" d="M1023.727 769.119c0.068 0.409 0.188 0.818 0.222 1.228 0.119 1.262-0.017 2.54-0.17 3.819-0.034 0.324 0.017 0.631-0.034 0.955-0.307 1.688-0.87 3.342-1.705 4.927-0.136 0.273-0.324 0.529-0.477 0.801-0.034 0.034-0.034 0.085-0.051 0.136-0.017 0.034-0.068 0.051-0.085 0.102-0.119 0.188-0.222 0.392-0.341 0.563-1.057 1.551-2.336 2.83-3.768 3.921-0.324 0.239-0.699 0.375-1.040 0.597-1.262 0.835-2.591 1.517-4.024 1.978-0.631 0.205-1.262 0.307-1.909 0.426-1.245 0.256-2.489 0.375-3.785 0.341-0.682-0.017-1.33-0.051-2.012-0.153-0.443-0.068-0.87 0-1.313-0.102l-989.629-204.52c-7.041-1.466-12.429-7.178-13.435-14.304s2.557-14.117 8.917-17.475l283.56-149.571 49.732-275.973c-0.034-0.205 0.017-0.426 0-0.631-0.17-1.364-0.188-2.694-0.017-4.041 0.085-0.682 0.17-1.33 0.341-1.995 0.392-1.62 1.023-3.137 1.875-4.569 0.17-0.273 0.17-0.597 0.358-0.87 0.051-0.085 0.136-0.153 0.205-0.222 0.222-0.324 0.529-0.58 0.784-0.904 0.801-0.989 1.637-1.892 2.591-2.66 0.153-0.119 0.256-0.307 0.426-0.426 0.256-0.188 0.546-0.239 0.801-0.409 1.040-0.682 2.114-1.245 3.256-1.688 0.46-0.17 0.887-0.375 1.364-0.511 1.534-0.443 3.12-0.75 4.723-0.75 0.017 0 0.034 0 0.051 0v0c0 0 0 0 0 0 0.068 0 0.136 0.034 0.205 0.034 0.29-0.017 0.58-0.034 0.87-0.034 4.723 0 8.985 2.114 12.139 5.37l188.886 125.924 197.769-128.55c2.796-1.807 6.035-2.745 9.292-2.745 1.79 0 3.614 0.29 5.37 0.87 4.91 1.637 8.831 5.422 10.622 10.298l238.618 647.676c0.222 0.58 0.409 1.176 0.563 1.79 0.068 0.256 0.085 0.511 0.136 0.75 0.051 0.188 0.085 0.392 0.119 0.597zM826.265 660.295l-409.058-300.762c-0.665-0.494-1.193-1.108-1.773-1.688-0.222-0.205-0.443-0.375-0.631-0.597-0.358-0.392-0.682-0.784-1.006-1.21-0.307-0.409-0.546-0.835-0.818-1.262-0.631-1.023-1.159-2.080-1.569-3.205-0.085-0.222-0.222-0.392-0.29-0.614-0.017-0.068-0.085-0.102-0.102-0.17l-46.885-152.367-37.15 206.14 499.281 255.736zM390.56 165.617l46.476 153.51 93.054-60.49-139.529-93.020zM887.301 729.872l-579.207-296.671-241.074 127.152 820.281 169.519zM759.689 150.102l-302.416 196.558 514.097 378.012-211.681-574.57z" />
<glyph unicode="&#xe910;" glyph-name="search_L2" d="M996.4 3.624l-244.28 244.904c65.528 75.527 105.201 174.069 105.201 281.773 0 237.083-192.348 429.699-428.605 429.699-236.479 0-428.605-192.839-428.605-429.699s192.348-429.699 428.605-429.699c107.43 0 205.721 39.775 281.056 105.469l244.28-244.904c5.795-5.81 13.596-8.938 21.174-8.938s15.379 2.905 21.174 8.938c11.59 11.62 11.59 30.836 0 42.456zM60.067 530.301c0 203.788 165.379 369.367 368.426 369.367 203.27 0 368.426-165.802 368.426-369.367s-165.157-369.59-368.426-369.59c-203.047 0-368.426 165.802-368.426 369.59z" />
<glyph unicode="&#xe911;" glyph-name="play-button" d="M512 960c-282.317 0-512-229.683-512-512s229.683-512 512-512 512 229.683 512 512-229.683 512-512 512zM777.609 433.903l-375.467-256c-2.884-1.963-6.246-2.97-9.609-2.97-2.731 0-5.478 0.649-7.97 1.98-5.598 2.953-9.097 8.755-9.097 15.087v512c0 6.332 3.499 12.134 9.097 15.087 5.598 2.97 12.356 2.56 17.596-0.99l375.467-256c4.642-3.174 7.441-8.448 7.441-14.097s-2.799-10.923-7.458-14.097z" />
<glyph unicode="&#xe912;" glyph-name="repeat-full" d="M512 960c282.317 0 512-229.683 512-512s-229.683-512-512-512c-282.317 0-512 229.683-512 512s229.683 512 512 512zM596.053 618.667l-145.289-105.66c-7.629-5.53-9.318-16.213-3.772-23.825 3.328-4.608 8.533-7.031 13.824-7.031 3.482 0 6.98 1.075 10.018 3.26l206.711 150.323-206.711 150.34c-7.646 5.547-18.313 3.874-23.825-3.772-5.547-7.612-3.874-18.295 3.772-23.825l145.271-105.677h-203.52c-122.334 0-221.867-99.533-221.867-221.867 0-9.438 7.629-17.067 17.067-17.067s17.067 7.629 17.067 17.067c0 103.509 84.224 187.733 187.733 187.733h203.52zM819.2 482.133c-9.438 0-17.067-7.629-17.067-17.067 0-103.509-84.224-187.733-187.733-187.733h-203.52l145.289 105.66c7.629 5.53 9.318 16.213 3.772 23.825-5.53 7.629-16.196 9.318-23.825 3.772l-206.729-150.323 206.711-150.34c3.038-2.202 6.537-3.26 10.018-3.26 5.291 0 10.479 2.441 13.824 7.031 5.547 7.612 3.874 18.295-3.772 23.825l-145.289 105.677h203.52c122.334 0 221.867 99.533 221.867 221.867 0 9.438-7.629 17.067-17.067 17.067z" />
<glyph unicode="&#xe913;" glyph-name="close" d="M512 960c-282.309 0-512-229.671-512-512s229.691-512 512-512 512 229.671 512 512-229.691 512-512 512zM512-24.615c-260.588 0-472.615 212.027-472.615 472.615s212.027 472.615 472.615 472.615 472.615-212.027 472.615-472.615-212.027-472.615-472.615-472.615zM703.153 639.153c-7.7 7.7-20.145 7.7-27.845 0l-163.308-163.308-163.308 163.308c-7.7 7.7-20.145 7.7-27.845 0s-7.7-20.145 0-27.845l163.308-163.308-163.308-163.308c-7.7-7.7-7.7-20.145 0-27.845 3.84-3.84 8.881-5.77 13.922-5.77s10.082 1.93 13.922 5.77l163.308 163.308 163.308-163.308c3.84-3.84 8.881-5.77 13.922-5.77s10.082 1.93 13.922 5.77c7.7 7.7 7.7 20.145 0 27.845l-163.308 163.308 163.308 163.308c7.7 7.7 7.7 20.145 0 27.845z" />
<glyph unicode="&#xe914;" d="M512 960c-282.309 0-512-229.671-512-512s229.691-512 512-512c282.309 0 512 229.671 512 512s-229.691 512-512 512z" />
<glyph unicode="&#xe915;" d="M703.153 639.153c-7.7 7.7-20.145 7.7-27.845 0l-163.308-163.308-163.308 163.308c-7.7 7.7-20.145 7.7-27.845 0s-7.7-20.145 0-27.845l163.308-163.308-163.308-163.308c-7.7-7.7-7.7-20.145 0-27.845 3.84-3.84 8.881-5.77 13.922-5.77s10.082 1.93 13.922 5.77l163.308 163.308 163.308-163.308c3.84-3.84 8.881-5.77 13.922-5.77s10.082 1.93 13.922 5.77c7.7 7.7 7.7 20.145 0 27.845l-163.308 163.308 163.308 163.308c7.7 7.7 7.7 20.145 0 27.845z" />
<glyph unicode="&#xe916;" glyph-name="repeat" d="M596.053 618.667l-145.289-105.66c-7.629-5.53-9.318-16.213-3.772-23.825 3.328-4.608 8.533-7.031 13.824-7.031 3.482 0 6.98 1.075 10.018 3.26l206.711 150.323-206.711 150.34c-7.646 5.547-18.313 3.874-23.825-3.772-5.547-7.612-3.874-18.295 3.772-23.825l145.271-105.677h-203.52c-122.334 0-221.867-99.533-221.867-221.867 0-9.438 7.629-17.067 17.067-17.067s17.067 7.629 17.067 17.067c0 103.509 84.224 187.733 187.733 187.733h203.52zM512 960c-282.317 0-512-229.683-512-512s229.683-512 512-512 512 229.683 512 512-229.683 512-512 512zM512-29.867c-263.492 0-477.867 214.374-477.867 477.867s214.374 477.867 477.867 477.867 477.867-214.374 477.867-477.867-214.374-477.867-477.867-477.867zM819.2 482.133c-9.438 0-17.067-7.629-17.067-17.067 0-103.509-84.224-187.733-187.733-187.733h-203.52l145.289 105.66c7.629 5.53 9.318 16.213 3.772 23.825-5.53 7.629-16.196 9.318-23.825 3.772l-206.729-150.323 206.711-150.34c3.038-2.202 6.537-3.26 10.018-3.26 5.291 0 10.479 2.441 13.824 7.031 5.547 7.612 3.874 18.295-3.772 23.825l-145.289 105.677h203.52c122.334 0 221.867 99.533 221.867 221.867 0 9.438-7.629 17.067-17.067 17.067z" />
<glyph unicode="&#xe917;" glyph-name="Capa-full" d="M512 960c282.309 0 512-229.671 512-512s-229.691-512-512-512c-282.309 0-512 229.671-512 512s229.691 512 512 512zM758.154 467.692h-226.462v216.615c0 10.89-8.822 19.692-19.692 19.692s-19.692-8.802-19.692-19.692v-216.615h-226.462c-10.87 0-19.692-8.802-19.692-19.692s8.822-19.692 19.692-19.692h226.462v-236.308c0-10.89 8.822-19.692 19.692-19.692s19.692 8.802 19.692 19.692v236.308h226.462c10.87 0 19.692 8.802 19.692 19.692s-8.822 19.692-19.692 19.692z" />
<glyph unicode="&#xe918;" glyph-name="success-full" d="M512 960c282.309 0 512-229.671 512-512s-229.691-512-512-512c-282.309 0-512 229.671-512 512s229.691 512 512 512zM753.27 657.999l-302.651-340.48-182.331 145.861c-8.468 6.794-20.894 5.396-27.668-3.072-6.794-8.507-5.415-20.894 3.072-27.687l196.923-157.538c3.623-2.895 7.975-4.313 12.308-4.313 5.435 0 10.85 2.245 14.73 6.617l315.077 354.462c7.227 8.113 6.498 20.578-1.634 27.786-8.153 7.247-20.578 6.518-27.825-1.634z" />
<glyph unicode="&#xe919;" glyph-name="plus" d="M512 960c-282.309 0-512-229.671-512-512s229.691-512 512-512 512 229.671 512 512-229.691 512-512 512zM512-24.615c-260.588 0-472.615 212.027-472.615 472.615s212.027 472.615 472.615 472.615 472.615-212.027 472.615-472.615-212.027-472.615-472.615-472.615zM758.154 467.692h-226.462v216.615c0 10.89-8.822 19.692-19.692 19.692s-19.692-8.802-19.692-19.692v-216.615h-226.462c-10.87 0-19.692-8.802-19.692-19.692s8.822-19.692 19.692-19.692h226.462v-236.308c0-10.89 8.822-19.692 19.692-19.692s19.692 8.802 19.692 19.692v236.308h226.462c10.87 0 19.692 8.802 19.692 19.692s-8.822 19.692-19.692 19.692z" />
<glyph unicode="&#xe91a;" glyph-name="success" d="M512 960c-282.309 0-512-229.671-512-512s229.691-512 512-512 512 229.671 512 512-229.691 512-512 512zM512-24.615c-260.588 0-472.615 212.027-472.615 472.615s212.027 472.615 472.615 472.615 472.615-212.027 472.615-472.615-212.027-472.615-472.615-472.615zM753.27 657.999l-302.651-340.48-182.331 145.861c-8.468 6.794-20.894 5.396-27.668-3.072-6.794-8.507-5.415-20.894 3.072-27.687l196.923-157.538c3.623-2.895 7.975-4.313 12.308-4.313 5.435 0 10.85 2.245 14.73 6.617l315.077 354.462c7.227 8.113 6.498 20.578-1.634 27.786-8.153 7.247-20.578 6.518-27.825-1.634z" />
<glyph unicode="&#xe91b;" d="M959.906 221.22c0 117.134-95.295 212.43-212.43 212.43s-212.43-95.295-212.43-212.43 95.295-212.428 212.43-212.428 212.43 95.293 212.43 212.428zM879.117 189.172h-99.594v-99.594h-64.094v99.594h-99.594v64.094h99.594v99.594h64.094v-99.594h99.594v-64.094z" />
<glyph unicode="&#xe91c;" d="M885.815 460.577l125.779 125.71-347.972 51.547-159.618 313.468-156.552-315.011-347.451-54.939 251.217-246.233-55.119-347.423 287.683 150.231c35.423-111.896 140.234-193.229 263.695-193.229 152.476 0 276.524 124.048 276.524 276.522 0 102.111-55.638 191.462-138.185 239.358zM535.048 221.22c0 117.134 95.295 212.43 212.43 212.43s212.43-95.295 212.43-212.43-95.295-212.428-212.43-212.428-212.43 95.293-212.43 212.428zM279.366 103.485l40.337 254.256-183.848 180.201 254.277 40.206 114.569 230.536 116.814-229.406 254.655-37.722-54.076-54.049c-23.747 6.664-48.771 10.238-74.616 10.238-152.476 0-276.524-124.048-276.524-276.524 0-5.843 0.203-11.637 0.562-17.391l-192.148-100.346z" />
<glyph unicode="&#xe91d;" d="M779.523 352.861h-64.094v-99.594h-99.594v-64.094h99.594v-99.594h64.094v99.594h99.594v64.094h-99.594z" />
<glyph unicode="&#xe91e;" glyph-name="edit" d="M910.2 684.2l-64.8-64.8-162 162.2 64.8 64.8c13.2 13.2 36.2 13.2 49.4 0l112.6-112.8c13.6-13.6 13.6-35.8 0-49.4zM368.8 142.2l-162 162.2 418.8 419.4 162-162.2-418.8-419.4zM169.4 226.2l121.2-121.4-168.8-47.6 47.6 169zM968 791.4l-112.6 112.8c-22 22-101.4 63.6-164.8 0l-570.6-571c-5-5-8.6-11-10.4-17.8l-86-306.2c-4-14.2 0.2-29.4 10.4-40 10.4-10.6 31.2-12.4 40-10.4l306 86.2c6.8 1.8 12.8 5.4 17.8 10.4l570.2 571c45.4 45.4 45.4 119.4 0 165z" />
<glyph unicode="&#xe91f;" glyph-name="file" d="M725.333 584.533h-426.667c-9.421 0-17.067-7.629-17.067-17.067s7.646-17.067 17.067-17.067h426.667c9.421 0 17.067 7.629 17.067 17.067s-7.646 17.067-17.067 17.067zM298.667 686.933h170.667c9.421 0 17.067 7.629 17.067 17.067s-7.646 17.067-17.067 17.067h-170.667c-9.421 0-17.067-7.629-17.067-17.067s7.646-17.067 17.067-17.067zM725.333 448h-426.667c-9.421 0-17.067-7.629-17.067-17.067s7.646-17.067 17.067-17.067h426.667c9.421 0 17.067 7.629 17.067 17.067s-7.646 17.067-17.067 17.067zM725.333 311.467h-426.667c-9.421 0-17.067-7.629-17.067-17.067s7.646-17.067 17.067-17.067h426.667c9.421 0 17.067 7.629 17.067 17.067s-7.646 17.067-17.067 17.067zM725.333 174.933h-426.667c-9.421 0-17.067-7.629-17.067-17.067s7.646-17.067 17.067-17.067h426.667c9.421 0 17.067 7.629 17.067 17.067s-7.646 17.067-17.067 17.067zM664.132 960h-553.199v-1024h802.133v775.066l-248.934 248.934zM674.133 901.734l180.668-180.668h-180.668v180.668zM145.067-29.867v955.733h494.933v-238.933h238.933v-716.8h-733.867z" />
<glyph unicode="&#xe920;" glyph-name="garbage" d="M512 74.847c9.58 0 17.356 7.758 17.356 17.356v572.746c0 9.598-7.775 17.356-17.356 17.356s-17.356-7.758-17.356-17.356v-572.746c0-9.598 7.775-17.356 17.356-17.356zM338.441 74.847c9.58 0 17.356 7.758 17.356 17.356v572.746c0 9.598-7.775 17.356-17.356 17.356s-17.356-7.758-17.356-17.356v-572.746c0-9.598 7.775-17.356 17.356-17.356zM685.559 74.847c9.58 0 17.356 7.758 17.356 17.356v572.746c0 9.598-7.775 17.356-17.356 17.356s-17.356-7.758-17.356-17.356v-572.746c0-9.598 7.775-17.356 17.356-17.356zM911.186 855.864h-243.747c-1.909 21.695-8.591 58.281-31.466 81.764-14.475 14.839-32.837 22.372-54.567 22.372h-173.542c-21.73 0-40.092-7.532-54.567-22.372-22.875-23.483-29.557-60.069-31.466-81.764h-209.017c-9.58 0-17.356-7.758-17.356-17.356s7.775-17.356 17.356-17.356h35.423l33.237-798.737c0.642-29.887 19.248-86.415 85.183-86.415h490.687c65.935 0 84.541 56.528 85.166 86.051l33.254 799.102h35.423c9.58 0 17.356 7.758 17.356 17.356s-7.775 17.356-17.356 17.356zM378.22 913.469c7.775 7.949 17.477 11.819 29.644 11.819h173.542c12.167 0 21.868-3.87 29.644-11.819 13.972-14.284 19.577-39.415 21.521-57.604h-275.855c1.944 18.189 7.55 43.32 21.504 57.604zM807.815 23.144c-0.104-5.363-2.499-52.432-50.471-52.432h-490.687c-47.451 0-50.297 47.156-50.488 52.797l-33.202 797.644h658.050l-33.202-798.008z" />
<glyph unicode="&#xe921;" glyph-name="magnet" d="M460.8 908.8c-254.089 0-460.8-206.711-460.8-460.8s206.711-460.8 460.8-460.8h358.4v273.067h-358.4c-103.509 0-187.733 84.224-187.733 187.733s84.224 187.733 187.733 187.733h358.4v273.067h-358.4zM785.067 21.333h-119.467v204.8h119.467v-204.8zM238.933 448c0-122.334 99.533-221.867 221.867-221.867h170.667v-204.8h-170.667c-235.264 0-426.667 191.403-426.667 426.667s191.403 426.667 426.667 426.667h170.667v-204.8h-170.667c-122.334 0-221.867-99.533-221.867-221.867zM785.067 669.867h-119.467v204.8h119.467v-204.8zM921.6 823.467h17.067c9.421 0 17.067 7.629 17.067 17.067s-7.646 17.067-17.067 17.067h-17.067c-9.421 0-17.067-7.629-17.067-17.067s7.646-17.067 17.067-17.067zM853.333 823.467h17.067c9.421 0 17.067 7.629 17.067 17.067s-7.646 17.067-17.067 17.067h-17.067c-9.421 0-17.067-7.629-17.067-17.067s7.646-17.067 17.067-17.067zM989.867 823.467h17.067c9.421 0 17.067 7.629 17.067 17.067s-7.646 17.067-17.067 17.067h-17.067c-9.421 0-17.067-7.629-17.067-17.067s7.646-17.067 17.067-17.067zM938.667 721.067h-17.067c-9.421 0-17.067-7.629-17.067-17.067s7.646-17.067 17.067-17.067h17.067c9.421 0 17.067 7.629 17.067 17.067s-7.646 17.067-17.067 17.067zM853.333 686.933h17.067c9.421 0 17.067 7.629 17.067 17.067s-7.646 17.067-17.067 17.067h-17.067c-9.421 0-17.067-7.629-17.067-17.067s7.646-17.067 17.067-17.067zM1006.933 721.067h-17.067c-9.421 0-17.067-7.629-17.067-17.067s7.646-17.067 17.067-17.067h17.067c9.421 0 17.067 7.629 17.067 17.067s-7.646 17.067-17.067 17.067zM870.4 772.267c0-9.438 7.646-17.067 17.067-17.067h17.067c9.421 0 17.067 7.629 17.067 17.067s-7.646 17.067-17.067 17.067h-17.067c-9.421 0-17.067-7.629-17.067-17.067zM938.667 772.267c0-9.438 7.646-17.067 17.067-17.067h17.067c9.421 0 17.067 7.629 17.067 17.067s-7.646 17.067-17.067 17.067h-17.067c-9.421 0-17.067-7.629-17.067-17.067zM938.667 192h-17.067c-9.421 0-17.067-7.629-17.067-17.067s7.646-17.067 17.067-17.067h17.067c9.421 0 17.067 7.629 17.067 17.067s-7.646 17.067-17.067 17.067zM853.333 157.867h17.067c9.421 0 17.067 7.629 17.067 17.067s-7.646 17.067-17.067 17.067h-17.067c-9.421 0-17.067-7.629-17.067-17.067s7.646-17.067 17.067-17.067zM1006.933 192h-17.067c-9.421 0-17.067-7.629-17.067-17.067s7.646-17.067 17.067-17.067h17.067c9.421 0 17.067 7.629 17.067 17.067s-7.646 17.067-17.067 17.067zM938.667 55.467h-17.067c-9.421 0-17.067-7.629-17.067-17.067s7.646-17.067 17.067-17.067h17.067c9.421 0 17.067 7.629 17.067 17.067s-7.646 17.067-17.067 17.067zM870.4 55.467h-17.067c-9.421 0-17.067-7.629-17.067-17.067s7.646-17.067 17.067-17.067h17.067c9.421 0 17.067 7.629 17.067 17.067s-7.646 17.067-17.067 17.067zM1006.933 55.467h-17.067c-9.421 0-17.067-7.629-17.067-17.067s7.646-17.067 17.067-17.067h17.067c9.421 0 17.067 7.629 17.067 17.067s-7.646 17.067-17.067 17.067zM921.6 106.667c0 9.438-7.646 17.067-17.067 17.067h-17.067c-9.421 0-17.067-7.629-17.067-17.067s7.646-17.067 17.067-17.067h17.067c9.421 0 17.067 7.629 17.067 17.067zM989.867 106.667c0 9.438-7.646 17.067-17.067 17.067h-17.067c-9.421 0-17.067-7.629-17.067-17.067s7.646-17.067 17.067-17.067h17.067c9.421 0 17.067 7.629 17.067 17.067z" />
<glyph unicode="&#xe922;" glyph-name="music-player" d="M980.433 955.364c-4.022 3.519-9.328 5.12-14.69 4.487l-577.164-74.678c-9.272-1.21-16.216-9.086-16.216-18.451v-663.049c-33.997 40.867-88.008 67.454-148.945 67.454-102.661 0-186.182-75.162-186.182-167.564s83.521-167.564 186.182-167.564 186.182 75.162 186.182 167.564c0 4.319-0.354 8.564-0.726 12.791 0.242 1.21 0.726 2.309 0.726 3.575v539.983l539.927 69.874v-339.912c-33.997 40.848-88.008 67.435-148.945 67.435-102.661 0-186.182-75.162-186.182-167.564s83.521-167.564 186.182-167.564c101.73 0 184.562 73.84 186.051 165.087 0 0.242 0.13 0.447 0.13 0.689v653.424c0 5.362-2.309 10.463-6.33 13.982zM223.418-26.764c-82.125 0-148.945 58.48-148.945 130.327s66.821 130.327 148.945 130.327 148.945-58.48 148.945-130.327-66.821-130.327-148.945-130.327zM800.582 159.418c-82.125 0-148.945 58.48-148.945 130.327s66.821 130.327 148.945 130.327 148.945-58.48 148.945-130.327-66.821-130.327-148.945-130.327zM409.6 697.465v152.893l539.927 69.855v-152.874l-539.927-69.874z" />
<glyph unicode="&#xe923;" glyph-name="photo-camera" d="M905.641 43.47h-787.3c-65.264 0-118.341 53.077-118.341 118.341v479.933c0 65.264 53.077 118.341 118.341 118.341h160.649l14.062 47.436c5.739 25.957 29.468 45.009 57.377 45.009h323.148c27.12 0 51.122-18.954 57.475-45.245l0.374-1.617 12.819-45.58h161.416c65.264 0 118.341-53.077 118.341-118.341v-479.93c-0.018-65.27-53.114-118.347-118.359-118.347zM118.341 720.637c-43.511 0-78.893-35.385-78.893-78.893v-479.93c0-43.511 35.385-78.893 78.893-78.893h787.3c43.511 0 78.893 35.385 78.893 78.893v479.93c0 43.511-35.385 78.893-78.893 78.893h-191.277l-21.596 77.021c-1.992 8.955-10.060 15.443-19.211 15.443h-323.151c-9.29 0-17.18-6.35-19.211-15.464l-22.799-76.999h-190.055zM512.021 162.701c-138.043 0-250.35 112.286-250.35 250.31 0 138.043 112.304 250.329 250.35 250.329 138.006 0 250.292-112.304 250.292-250.329-0.003-138.006-112.289-250.31-250.292-250.31zM512.021 623.913c-116.291 0-210.902-94.593-210.902-210.884s94.615-210.862 210.902-210.862c116.269 0 210.844 94.593 210.844 210.862-0.003 116.291-94.596 210.884-210.844 210.884zM880.178 647.424c-20.117 0-36.391-16.311-36.391-36.391 0-20.098 16.271-36.388 36.391-36.388 20.098 0 36.37 16.293 36.37 36.388-0.018 20.080-16.293 36.391-36.37 36.391z" />
<glyph unicode="&#xe924;" glyph-name="smiling-emoticon-face" d="M655.257 591.471c0 22.484 18.416 40.9 40.9 40.9s40.902-18.416 40.902-40.9-18.418-40.9-40.902-40.9-40.9 18.416-40.9 40.9zM327.629 550.571c22.484 0 40.9 18.416 40.9 40.9s-18.416 40.9-40.9 40.9-40.9-18.416-40.9-40.9 18.416-40.9 40.9-40.9zM286.729 304.743v-40.9c0 0 81.8-81.8 225.271-81.8s225.271 81.8 225.271 81.8v40.9c0 0-81.8-81.8-225.271-81.8s-225.271 81.8-225.271 81.8zM1024 448c0-282.66-229.34-512-512-512s-512 229.34-512 512c0 282.66 229.34 512 512 512 282.446 0 512-229.34 512-512zM982.886 448c0 262.103-208.783 470.886-470.886 470.886s-470.886-208.783-470.886-470.886c0-262.103 208.783-470.886 470.886-470.886s470.886 208.783 470.886 470.886z" />
<glyph unicode="&#xe925;" d="M959.906 221.22c0 117.134-95.295 212.43-212.43 212.43s-212.43-95.295-212.43-212.43 95.295-212.428 212.43-212.428 212.43 95.293 212.43 212.428zM879.117 189.172h-263.282v64.094h263.282v-64.094z" />
<glyph unicode="&#xe926;" d="M885.815 460.577l125.779 125.71-347.972 51.547-159.618 313.468-156.552-315.011-347.451-54.939 251.217-246.233-55.119-347.423 287.683 150.231c35.423-111.896 140.234-193.229 263.695-193.229 152.476 0 276.524 124.048 276.524 276.522 0 102.111-55.638 191.462-138.185 239.358zM535.048 221.22c0 117.134 95.295 212.43 212.43 212.43s212.43-95.295 212.43-212.43-95.295-212.428-212.43-212.428-212.43 95.293-212.43 212.428zM279.366 103.485l40.337 254.256-183.848 180.201 254.277 40.206 114.569 230.536 116.814-229.406 254.655-37.722-54.076-54.049c-23.747 6.664-48.771 10.238-74.616 10.238-152.476 0-276.524-124.048-276.524-276.524 0-5.843 0.203-11.637 0.562-17.391l-192.148-100.346z" />
<glyph unicode="&#xe927;" d="M615.835 253.267h263.282v-64.094h-263.282v64.094z" />
<glyph unicode="&#xe928;" glyph-name="video-player" d="M645.067 462.901l-194.207 123.586c-5.438 3.443-12.323 3.672-17.991 0.583-5.632-3.107-9.145-9.039-9.145-15.484v-247.172c0-6.444 3.513-12.376 9.163-15.484 2.648-1.448 5.561-2.172 8.492-2.172 3.302 0 6.603 0.936 9.481 2.754l194.207 123.586c5.085 3.249 8.174 8.863 8.174 14.901s-3.090 11.652-8.174 14.901zM459.034 356.564v182.872l143.66-91.436-143.66-91.436zM1006.345 854.069h-988.69c-9.746 0-17.655-7.892-17.655-17.655v-776.828c0-9.763 7.91-17.655 17.655-17.655h988.69c9.746 0 17.655 7.892 17.655 17.655v776.828c0 9.763-7.91 17.655-17.655 17.655zM176.552 465.655h-141.241v158.897h141.241v-158.897zM35.31 430.345h141.241v-158.897h-141.241v158.897zM211.862 253.793v564.966h600.276v-741.517h-600.276v176.552zM988.69 465.655h-141.241v158.897h141.241v-158.897zM847.448 430.345h141.241v-158.897h-141.241v158.897zM988.69 818.759v-158.897h-141.241v158.897h141.241zM35.31 818.759h141.241v-158.897h-141.241v158.897zM35.31 77.241v158.897h141.241v-158.897h-141.241zM988.69 77.241h-141.241v158.897h141.241v-158.897z" />
<glyph unicode="&#xe929;" glyph-name="chat" d="M752.128 704h-650.923c-55.808 0-101.205-45.397-101.205-101.188v-360.806c0-55.808 45.397-101.205 101.205-101.205h103.595v-170.667c0-7.049 4.335-13.38 10.923-15.923 1.997-0.768 4.079-1.143 6.144-1.143 4.71 0 9.335 1.963 12.629 5.581l165.581 182.153h352.051c55.808 0 101.205 45.397 101.205 101.188v360.806c0 55.808-45.397 101.205-101.205 101.205zM922.795 942.933h-650.923c-55.893 0-101.205-45.312-101.205-101.205v-86.528c0-9.421 7.646-17.067 17.067-17.067h574.43c69.205 0 125.303-56.098 125.303-125.303v-216.030c0-9.421 7.646-17.067 17.067-17.067h69.461c27.614 0 50.005 22.391 50.005 50.005v411.989c0 55.893-45.312 101.205-101.205 101.205z" />
<glyph unicode="&#xe92a;" glyph-name="document-fill" d="M682.667 694.519h189.63l-227.556 265.481v-227.556c0-22.756 18.964-37.926 37.926-37.926zM606.815 732.444v227.556h-379.259c-41.72 0-75.852-34.132-75.852-75.852v-872.296c0-41.718 34.132-75.852 75.852-75.852h568.889c41.718 0 75.852 34.134 75.852 75.852v644.741h-189.63c-41.718 0-75.852 34.132-75.852 75.852zM265.481 808.296h265.481v-37.926h-265.481v37.926zM265.481 694.519h265.481v-37.926h-265.481v37.926zM758.519 87.704h-493.037v37.926h493.037v-37.926zM758.519 201.481h-493.037v37.926h493.037v-37.926zM758.519 315.259h-493.037v37.926h493.037v-37.926zM758.519 429.037h-493.037v37.926h493.037v-37.926zM758.519 542.815h-493.037v37.926h493.037v-37.926z" />
<glyph unicode="&#xe92b;" glyph-name="Music-fill" d="M987.457 955.465c-4.082 3.452-9.468 5.023-14.91 4.402l-585.818-73.26c-9.411-1.187-16.46-8.913-16.46-18.1v-650.463c-34.507 40.091-89.328 66.173-151.179 66.173-104.2 0-188.973-73.735-188.973-164.383s84.773-164.383 188.973-164.383c104.2 0 188.973 73.735 188.973 164.383 0 4.237-0.359 8.402-0.737 12.548 0.246 1.187 0.737 2.265 0.737 3.507v529.733l548.023 68.548v-333.46c-34.507 40.073-89.328 66.155-151.179 66.155-104.2 0-188.973-73.735-188.973-164.383s84.773-164.383 188.973-164.383c103.255 0 187.329 72.438 188.841 161.954 0 0.237 0.132 0.438 0.132 0.676v641.020c0 5.26-2.343 10.265-6.425 13.717z" />
<glyph unicode="&#xe92c;" glyph-name="download" d="M511.989 181.171c-5.547 0-11.095 2.124-15.32 6.349l-490.32 490.32c-8.473 8.473-8.473 22.168 0 30.641s22.168 8.473 30.641 0l474.999-474.999 474.999 474.999c8.473 8.473 22.168 8.473 30.641 0s8.473-22.168 0-30.641l-490.32-490.32c-4.226-4.247-9.773-6.349-15.32-6.349z" />
<glyph unicode="&#xe92d;" glyph-name="Photo-fill" d="M85.48 753.629c-47.144 0-85.48-37.726-85.48-84.113v-511.687c0-46.39 38.339-84.113 85.48-84.113h853.040c47.144 0 85.48 37.726 85.48 84.113v511.687c0 46.39-38.339 84.113-85.48 84.113h-207.248l-23.399 82.117c-2.158 9.548-10.9 16.465-20.816 16.465h-350.134c-10.065 0-18.614-6.77-20.816-16.488l-24.703-82.094h-205.925zM512.033 158.774c-149.57 0-271.254 119.716-271.254 266.873 0 147.177 121.681 266.893 271.254 266.893 149.53 0 271.191-119.735 271.191-266.893-0.003-147.138-121.665-266.873-271.191-266.873zM512.033 650.505c125.954 0 228.446-100.853 228.449-224.838 0-123.963-102.472-224.815-228.449-224.815-125.997 0-228.512 100.83-228.512 224.815s102.512 224.838 228.512 224.838zM910.931 675.572c21.753 0 39.387-17.391 39.407-38.799 0-21.425-17.63-38.796-39.407-38.796-21.8 0-39.43 17.368-39.43 38.796 0 21.409 17.633 38.799 39.43 38.799z" />
<glyph unicode="&#xe92e;" glyph-name="play" d="M864.396 447.211l-670.476-457.143c-5.15-3.505-11.154-5.303-17.158-5.303-4.876 0-9.783 1.158-14.232 3.535-9.996 5.272-16.244 15.634-16.244 26.941v914.286c0 11.307 6.248 21.669 16.244 26.941 9.996 5.303 22.065 4.571 31.421-1.768l670.476-457.143c8.29-5.669 13.288-15.086 13.288-25.173s-4.998-19.505-13.318-25.173z" />
<glyph unicode="&#xe92f;" glyph-name="star-outline" d="M1001.773 493.91c20.156 19.643 27.271 48.473 18.577 75.272-8.714 26.8-31.413 45.93-59.299 49.99l-247.942 36.027c-10.56 1.538-19.684 8.161-24.4 17.736l-110.848 224.669c-12.446 25.241-37.708 40.927-65.861 40.927-28.132 0-53.394-15.686-65.84-40.927l-110.868-224.669c-4.716-9.576-13.861-16.199-24.421-17.736l-247.942-36.047c-27.866-4.039-50.564-23.17-59.279-49.97-8.694-26.8-1.579-55.629 18.577-75.272l179.395-174.863c7.648-7.464 11.155-18.208 9.35-28.706l-42.342-246.937c-4.757-27.743 6.418-55.239 29.199-71.807 22.76-16.588 52.389-18.741 77.343-5.598l221.737 116.589c9.453 4.962 20.73 4.962 30.183 0l221.757-116.589c10.826-5.7 22.555-8.509 34.222-8.509 15.153 0 30.244 4.737 43.121 14.107 22.781 16.568 33.956 44.064 29.199 71.807l-42.363 246.916c-1.804 10.519 1.702 21.243 9.35 28.706l179.395 174.884zM772.634 283.389l42.342-246.916c2.132-12.426-2.686-24.298-12.897-31.721-10.232-7.402-22.965-8.304-34.14-2.481l-221.757 116.61c-10.683 5.598-22.453 8.427-34.181 8.427s-23.478-2.83-34.181-8.448l-221.716-116.589c-11.216-5.823-23.949-4.921-34.161 2.481-10.211 7.423-15.009 19.274-12.897 31.721l42.342 246.916c4.080 23.826-3.814 48.145-21.12 65l-179.415 174.884c-9.043 8.817-12.118 21.243-8.202 33.238 3.896 12.016 13.677 20.259 26.164 22.083l247.921 36.027c23.929 3.465 44.618 18.475 55.301 40.169l110.868 224.669c5.577 11.319 16.465 18.065 29.076 18.065 12.631 0 23.498-6.746 29.096-18.065l110.868-224.669c10.683-21.694 31.352-36.703 55.28-40.169l247.942-36.027c12.487-1.825 22.268-10.068 26.164-22.083 3.896-11.995 0.841-24.421-8.202-33.238l-179.395-174.863c-17.306-16.875-25.2-41.173-21.099-65.020z" />
<glyph unicode="&#xe930;" glyph-name="id-card" d="M952.030 823.467h-880.060c-39.68 0-71.97-32.29-71.97-71.97v-606.993c0-39.68 32.29-71.97 71.97-71.97h880.060c39.68 0 71.97 32.29 71.97 71.97v606.993c0 39.68-32.29 71.97-71.97 71.97zM989.867 144.503c0-20.873-16.964-37.837-37.837-37.837h-880.060c-20.873 0-37.837 16.964-37.837 37.837v606.993c0 20.873 16.964 37.837 37.837 37.837h880.060c20.873 0 37.837-16.964 37.837-37.837v-606.993zM386.355 341.402l-62.089 31.71v6.605c27.785 15.172 47.326 40.158 58.231 74.479 16.538 8.772 27.102 25.856 27.102 45.005v17.067c0 15.804-7.356 30.464-19.644 40.090-10.65 64.512-55.671 97.212-133.956 97.212-3.703 0-7.322-0.137-10.854-0.41-14.746-1.212-36.335 0.068-55.023 12.629-6.98 4.71-12.254 9.284-15.616 13.534-5.734 7.322-15.377 9.882-23.927 6.366-8.567-3.516-13.602-12.083-12.527-21.282 0.717-6.383 1.792-13.807 3.413-21.948 3.294-16.64 3.294-16.64-1.331-26.59-1.741-3.772-3.891-8.363-6.417-14.558-5.649-13.841-9.66-28.996-11.964-45.175-12.117-9.643-19.354-24.218-19.354-39.868v-17.067c0-19.149 10.564-36.233 27.102-45.005 10.906-34.338 30.447-59.324 58.231-74.479v-6.417l-64.324-31.71c-23.484-12.8-38.076-37.376-38.076-64.137v-22.613c0-13.705 0-45.773 170.667-45.773s170.667 32.068 170.667 45.773v21.248c0 27.836-15.445 52.838-40.311 65.314zM392.533 258.697c-10.65-6.485-53.965-15.497-136.533-15.497s-125.884 9.011-136.533 15.497v18.756c0 14.251 7.765 27.358 19.661 33.826l65.826 32.444c10.274 5.018 16.896 15.65 16.896 27.102v30.771l-10.308 4.437c-25.89 11.162-42.718 32.444-51.456 65.092l-2.441 9.097-8.977 2.799c-7.134 2.236-12.134 8.875-12.134 16.179v17.067c0 6.178 3.533 11.913 9.233 14.95l8.004 4.267 0.939 9.028c1.69 16.009 5.257 30.771 10.615 43.861 2.27 5.547 4.198 9.694 5.769 13.090 5.786 12.425 7.885 18.842 6.434 32 20.070-11.469 44.186-16.35 70.349-14.353 2.645 0.222 5.359 0.324 8.141 0.324 63.898 0 95.095-23.142 101.188-75.059l1.058-8.909 7.936-4.198c5.7-3.038 9.267-8.789 9.267-15.002v-17.067c0-7.305-5.001-13.943-12.151-16.162l-8.977-2.799-2.441-9.097c-8.738-32.649-25.566-53.931-51.456-65.092l-10.308-4.454v-30.908c0-11.418 6.315-21.709 16.452-26.88l64.427-32.922c13.278-6.622 21.521-19.968 21.521-34.799v-17.391zM512 567.467h170.667c9.438 0 17.067 7.629 17.067 17.067s-7.629 17.067-17.067 17.067h-170.667c-9.438 0-17.067-7.629-17.067-17.067s7.629-17.067 17.067-17.067zM750.933 567.467h17.067c9.438 0 17.067 7.629 17.067 17.067s-7.629 17.067-17.067 17.067h-17.067c-9.438 0-17.067-7.629-17.067-17.067s7.629-17.067 17.067-17.067zM529.067 311.467h-17.067c-9.438 0-17.067-7.629-17.067-17.067s7.629-17.067 17.067-17.067h17.067c9.438 0 17.067 7.629 17.067 17.067s-7.629 17.067-17.067 17.067zM631.467 311.467h-34.133c-9.438 0-17.067-7.629-17.067-17.067s7.629-17.067 17.067-17.067h34.133c9.438 0 17.067 7.629 17.067 17.067s-7.629 17.067-17.067 17.067zM716.8 311.467h-17.067c-9.438 0-17.067-7.629-17.067-17.067s7.629-17.067 17.067-17.067h17.067c9.438 0 17.067 7.629 17.067 17.067s-7.629 17.067-17.067 17.067zM819.2 311.467h-34.133c-9.438 0-17.067-7.629-17.067-17.067s7.629-17.067 17.067-17.067h34.133c9.438 0 17.067 7.629 17.067 17.067s-7.629 17.067-17.067 17.067zM875.349 306.517c-3.089-3.226-4.949-7.68-4.949-12.117s1.86-8.875 4.949-12.117c3.226-3.072 7.68-4.949 12.117-4.949s8.875 1.877 12.117 4.949c3.072 3.243 4.949 7.68 4.949 12.117s-1.877 8.892-4.949 12.117c-6.485 6.315-17.92 6.315-24.235 0zM887.467 499.2h-375.467c-9.438 0-17.067-7.629-17.067-17.067s7.629-17.067 17.067-17.067h375.467c9.438 0 17.067 7.629 17.067 17.067s-7.629 17.067-17.067 17.067zM887.467 396.8h-375.467c-9.438 0-17.067-7.629-17.067-17.067s7.629-17.067 17.067-17.067h375.467c9.438 0 17.067 7.629 17.067 17.067s-7.629 17.067-17.067 17.067z" />
<glyph unicode="&#xe931;" glyph-name="left-arrow" d="M757.16-64c-5.547 0-11.095 2.124-15.32 6.349l-490.32 490.341c-8.473 8.473-8.473 22.168 0 30.641l490.32 490.32c8.473 8.473 22.168 8.473 30.641 0s8.473-22.168 0-30.641l-474.999-474.999 474.999-474.999c8.473-8.473 8.473-22.168 0-30.641-4.226-4.247-9.773-6.371-15.32-6.371z" />
<glyph unicode="&#xe932;" glyph-name="pointing-finger" d="M945.279 632.754c35.539 0.614 67.279 27.093 75.258 63.026 0.701 3.317 1.666 6.605 2.543 9.937l0.921 3.536v10.127c-0.672 2.148-1.301 4.369-1.929 6.576l-0.395 1.593c-2.046 7.131-3.872 13.692-6.532 19.392-15.636 32.982-43.401 49.1-84.873 49.1-150.077 0.278-300.212 0.395-450.23-0.219-16.542-0.058-34.37-2.323-54.58-6.912-52.695-11.954-103.212-38.345-159.020-83.017-96.987-77.713-178.865-176.234-250.294-301.162-5.845-10.229-11.106-20.765-16.148-31.068l25.982-26.070c33.040 64.999 72.423 126.287 117.139 182.269 62.983 78.882 122.034 135.098 185.806 176.98 37.819 24.857 89.345 53.353 152.605 53.455 148.791 0.19 297.479 0.146 446.212-0.132 10.726 0 21.16-1.768 30.132-5.012 18.193-6.649 28.525-21.7 28.525-41.297 0-20.415-10.755-35.758-29.665-42.115-9.557-3.259-19.918-4.983-29.869-5.027-17.989-0.058-215.807-0.585-244.258 0.307l-5.305 0.073c-95.672 0-194.238-82.301-210.838-176.103-4.676-26.479-4.778-54.858-4.852-82.286-0.029-12.48-0.073-24.608-0.438-36.679l203.415-0.029c28.671 0 45.213-11.296 55.471-37.658 8.739-22.68 10.2-46.367 4.34-70.435-9.104-37.030-25.88-50.167-64.181-50.167 0 0-202.918-0.073-234.219 0.058-53.557 0-99.837-16.966-141.484-51.833-15.315-12.83-26.684-24.828-35.539-37.337l25.018-24.93c42.466 53.075 93.626 78.896 156.229 78.896l5.699-0.073c27.473-0.701 212.723-0.424 236.718-0.424 26.757 0 46.923 9.396 63.392 29.621 23.439 28.642 31.404 63.202 25.208 108.795-4.939 36.679-20.195 62.603-46.543 79.349-14.321 9.060-16.104 20.97-16.060 30.293 0.205 40.698 0.205 81.41 0.205 122.093v49.67c0 27.984 5.597 34.852 33.289 34.955-0.058-0.117 164.135-0.994 213.147-0.117zM655.866 415.252c-6.327-6.43-14.862-7.102-20.663-7.102-16.703 0.336-103.534 0.205-103.534 0.205-16.703 0-25.602 7.73-26.596 23.030-5.348 82.71 49.626 164.412 127.938 190.117 2.499 0.789 4.998 1.301 8.359 1.885l19.567 3.858c0 0-0.395-153.336 0-190.088 0.058-6.912 1.257-15.519-5.071-21.905z" />
<glyph unicode="&#xe933;" glyph-name="right-arrow" d="M266.84-64c-5.547 0-11.095 2.124-15.32 6.349-8.473 8.473-8.473 22.168 0 30.641l474.999 474.999-474.999 474.999c-8.473 8.473-8.473 22.168 0 30.641s22.168 8.473 30.641 0l490.32-490.298c8.473-8.473 8.473-22.168 0-30.641l-490.32-490.341c-4.247-4.226-9.773-6.349-15.32-6.349z" />
<glyph unicode="&#xe934;" glyph-name="target" d="M1006.933 465.067h-34.56c-8.823 240.521-202.786 434.483-443.307 443.307v34.56c0 9.438-7.629 17.067-17.067 17.067s-17.067-7.629-17.067-17.067v-34.56c-240.521-8.823-434.483-202.786-443.307-443.307h-34.56c-9.438 0-17.067-7.629-17.067-17.067s7.629-17.067 17.067-17.067h34.56c8.823-240.521 202.786-434.483 443.307-443.307v-34.56c0-9.438 7.629-17.067 17.067-17.067s17.067 7.629 17.067 17.067v34.56c240.521 8.823 434.483 202.786 443.307 443.307h34.56c9.438 0 17.067 7.629 17.067 17.067s-7.629 17.067-17.067 17.067zM529.067 21.76v33.707c0 9.438-7.629 17.067-17.067 17.067s-17.067-7.629-17.067-17.067v-33.707c-221.696 8.789-400.384 187.477-409.173 409.173h33.707c9.438 0 17.067 7.629 17.067 17.067s-7.629 17.067-17.067 17.067h-33.707c8.789 221.696 187.477 400.384 409.173 409.173v-33.707c0-9.438 7.629-17.067 17.067-17.067s17.067 7.629 17.067 17.067v33.707c221.696-8.789 400.384-187.477 409.173-409.173h-33.707c-9.438 0-17.067-7.629-17.067-17.067s7.629-17.067 17.067-17.067h33.707c-8.789-221.696-187.477-400.384-409.173-409.173zM716.8 465.067h-86.699c-7.526 52.207-48.828 93.508-101.035 101.035v86.699c0 9.438-7.629 17.067-17.067 17.067s-17.067-7.629-17.067-17.067v-86.699c-52.207-7.526-93.508-48.845-101.035-101.035h-86.699c-9.438 0-17.067-7.629-17.067-17.067s7.629-17.067 17.067-17.067h86.699c7.526-52.207 48.828-93.508 101.035-101.035v-86.699c0-9.438 7.629-17.067 17.067-17.067s17.067 7.629 17.067 17.067v86.699c52.207 7.526 93.508 48.845 101.035 101.035h86.699c9.438 0 17.067 7.629 17.067 17.067s-7.629 17.067-17.067 17.067zM512 362.667c-47.053 0-85.333 38.281-85.333 85.333s38.281 85.333 85.333 85.333 85.333-38.281 85.333-85.333-38.281-85.333-85.333-85.333z" />
<glyph unicode="&#xe935;" glyph-name="list" d="M196.020 927.161h-174.237c-12.040 0-21.782-9.754-21.782-21.782v-130.678c0-12.029 9.743-21.782 21.782-21.782h174.237c12.040 0 21.782 9.754 21.782 21.782v130.678c0 12.029-9.743 21.782-21.782 21.782zM174.237 796.478h-130.678v87.124h130.678v-87.124zM196.020 535.122h-174.237c-12.040 0-21.782-9.754-21.782-21.782v-130.678c0-12.029 9.743-21.782 21.782-21.782h174.237c12.040 0 21.782 9.754 21.782 21.782v130.678c0 12.029-9.743 21.782-21.782 21.782zM174.237 404.443h-130.678v87.119h130.678v-87.119zM196.020 143.082h-174.237c-12.040 0-21.782-9.754-21.782-21.782v-130.678c0-12.029 9.743-21.782 21.782-21.782h174.237c12.040 0 21.782 9.754 21.782 21.782v130.678c0 12.029-9.743 21.782-21.782 21.782zM174.237 12.404h-130.678v87.119h130.678v-87.119zM283.139 861.82h740.861v-43.559h-740.861v43.559zM283.139 469.78h740.861v-43.559h-740.861v43.559zM283.139 77.74h740.861v-43.559h-740.861v43.559z" />
<glyph unicode="&#xe936;" glyph-name="menu" d="M78.702 684.307h866.595c43.392 0 78.702 35.336 78.702 78.768s-35.311 78.768-78.702 78.768h-866.595c-43.392 0.005-78.702-35.331-78.702-78.768s35.311-78.768 78.702-78.768zM78.702 802.464h866.595c21.681 0 39.318-17.663 39.318-39.384s-17.633-39.384-39.318-39.384h-866.595c-21.681 0-39.318 17.663-39.318 39.384s17.633 39.384 39.318 39.384zM945.298 526.771h-866.595c-43.392 0-78.702-35.336-78.702-78.768s35.311-78.768 78.702-78.768h866.595c43.392 0 78.702 35.336 78.702 78.768s-35.311 78.768-78.702 78.768zM945.298 408.618h-866.595c-21.681 0-39.318 17.663-39.318 39.384s17.633 39.384 39.318 39.384h866.595c21.681 0 39.318-17.663 39.318-39.384s-17.638-39.384-39.318-39.384zM945.298 211.693h-866.595c-43.392 0-78.702-35.336-78.702-78.768s35.311-78.768 78.702-78.768h866.595c43.392 0 78.702 35.336 78.702 78.768s-35.311 78.768-78.702 78.768zM945.298 93.541h-866.595c-21.681 0-39.318 17.663-39.318 39.384s17.633 39.384 39.318 39.384h866.595c21.681 0 39.318-17.663 39.318-39.384s-17.638-39.384-39.318-39.384z" />
<glyph unicode="&#xe937;" glyph-name="thumbnails-2" d="M463.695 960h-444.372c-10.68 0-19.323-8.652-19.323-19.323v-444.377c0-10.67 8.643-19.323 19.323-19.323h444.377c10.68 0 19.323 8.652 19.323 19.323v444.377c-0.005 10.67-8.647 19.323-19.328 19.323zM444.377 515.623h-405.736v405.736h405.736v-405.736zM1004.677 960h-444.377c-10.68 0-19.323-8.652-19.323-19.323v-444.377c0-10.67 8.643-19.323 19.323-19.323h444.377c10.68 0 19.323 8.652 19.323 19.323v444.377c-0.005 10.67-8.647 19.323-19.323 19.323zM985.354 515.623h-405.736v405.736h405.736v-405.736zM463.695 419.023h-444.372c-10.68 0-19.323-8.652-19.323-19.323v-444.377c0-10.67 8.643-19.323 19.323-19.323h444.377c10.68 0 19.323 8.652 19.323 19.323v444.377c-0.005 10.67-8.647 19.323-19.328 19.323zM444.377-25.354h-405.736v405.736h405.736v-405.736zM1004.677 419.023h-444.377c-10.68 0-19.323-8.652-19.323-19.323v-444.377c0-10.67 8.643-19.323 19.323-19.323h444.377c10.68 0 19.323 8.652 19.323 19.323v444.377c-0.005 10.67-8.647 19.323-19.323 19.323zM985.354-25.354h-405.736v405.736h405.736v-405.736z" />
<glyph unicode="&#xe938;" glyph-name="thumbnails" d="M216.619 960h-196.924c-10.886 0-19.689-8.819-19.689-19.694v-196.924c0-10.876 8.809-19.694 19.694-19.694h196.924c10.886 0 19.694 8.819 19.694 19.694v196.924c-0.010 10.876-8.819 19.694-19.699 19.694zM39.389 763.076v157.54h157.535v-157.54h-157.535zM610.462 960h-196.919c-10.886 0-19.694-8.819-19.694-19.694v-196.924c0-10.876 8.809-19.694 19.694-19.694h196.924c10.886 0 19.694 8.819 19.694 19.694v196.924c-0.005 10.876-8.814 19.694-19.699 19.694zM433.232 763.076v157.54h157.535v-157.54h-157.535zM1004.306 960h-196.924c-10.886 0-19.694-8.819-19.694-19.694v-196.924c0-10.876 8.809-19.694 19.694-19.694h196.924c10.886 0 19.694 8.819 19.694 19.694v196.924c0 10.876-8.814 19.694-19.694 19.694zM984.616 763.076h-157.535v157.54h157.535v-157.54zM216.619 566.157h-196.924c-10.886 0-19.694-8.819-19.694-19.694v-196.924c0-10.876 8.809-19.694 19.694-19.694h196.924c10.886 0 19.694 8.819 19.694 19.694v196.924c-0.005 10.876-8.814 19.694-19.694 19.694zM39.389 369.232v157.54h157.535v-157.54h-157.535zM610.462 566.157h-196.919c-10.886 0-19.694-8.819-19.694-19.694v-196.924c0-10.876 8.809-19.694 19.694-19.694h196.924c10.886 0 19.694 8.819 19.694 19.694v196.924c-0.005 10.876-8.814 19.694-19.699 19.694zM433.232 369.232v157.54h157.535v-157.54h-157.535zM1004.306 566.157h-196.924c-10.886 0-19.694-8.819-19.694-19.694v-196.924c0-10.876 8.809-19.694 19.694-19.694h196.924c10.886 0 19.694 8.819 19.694 19.694v196.924c0 10.876-8.814 19.694-19.694 19.694zM984.616 369.232h-157.535v157.54h157.535v-157.54zM216.619 172.313h-196.924c-10.886 0-19.694-8.819-19.694-19.694v-196.924c0-10.876 8.809-19.694 19.694-19.694h196.924c10.886 0 19.694 8.819 19.694 19.694v196.924c-0.005 10.876-8.814 19.694-19.694 19.694zM39.389-24.611v157.535h157.535v-157.535h-157.535zM610.462 172.313h-196.919c-10.886 0-19.694-8.819-19.694-19.694v-196.924c0-10.876 8.809-19.694 19.694-19.694h196.924c10.886 0 19.694 8.819 19.694 19.694v196.924c-0.005 10.876-8.814 19.694-19.699 19.694zM433.232-24.611v157.535h157.535v-157.535h-157.535zM1004.306 172.313h-196.924c-10.886 0-19.694-8.819-19.694-19.694v-196.924c0-10.876 8.809-19.694 19.694-19.694h196.924c10.886 0 19.694 8.819 19.694 19.694v196.924c0 10.876-8.814 19.694-19.694 19.694zM984.616-24.611h-157.535v157.535h157.535v-157.535z" />
<glyph unicode="&#xe939;" glyph-name="pause-button" horiz-adv-x="646" d="M133.276 960c-61.485 0-111.304-49.842-111.304-111.304v-800.835c0-61.507 49.82-111.304 111.304-111.304s111.304 49.82 111.304 111.304v800.835c0 61.485-49.798 111.304-111.304 111.304zM533.971 960c-61.485 0-111.304-49.842-111.304-111.304v-800.835c0-61.485 49.82-111.304 111.304-111.304s111.304 49.82 111.304 111.304v800.835c0 61.462-49.82 111.304-111.304 111.304z" />
<glyph unicode="&#xe93a;" glyph-name="ok" horiz-adv-x="1434" d="M1344.102 942.797l-786.893-885.248-474.061 379.238c-22.016 17.664-54.323 14.029-71.936-7.987-17.664-22.118-14.080-54.323 7.987-71.987l512-409.6c9.421-7.526 20.736-11.213 32-11.213 14.131 0 28.211 5.837 38.298 17.203l819.2 921.6c18.79 21.094 16.896 53.504-4.25 72.243-21.197 18.842-53.504 16.947-72.346-4.25z" />
<glyph unicode="&#xe93c;" d="M510.694 960c-282.049 0-510.694-228.655-510.694-510.694s228.645-510.694 510.694-510.694c282.049 0 510.694 228.655 510.694 510.694s-228.645 510.694-510.694 510.694z" />
<glyph unicode="&#xe93d;" glyph-name="compact-disc" d="M494.934-29.866c-99.852 3.306-191.492 36.864-266.31 91.802l208.158 233.012c22.728-11.254 48.262-17.614 75.218-17.614 93.866 0 170.666 76.8 170.666 170.666 0 27.786-6.772 54.052-18.682 77.298l234.724 205.19c54.554-74.654 87.866-165.962 91.158-265.42 0-10.24 8.534-17.066 17.066-17.066 10.24 0 17.066 6.826 17.066 17.066-10.238 278.186-233.812 494.932-511.998 494.932-281.6 0-512-230.4-512-512 0-278.186 216.746-501.76 494.934-512 8.534 0 17.066 6.826 17.066 17.066 0 8.534-6.826 17.068-17.066 17.068zM203.094 84.48c-18.774 17.066-37.546 34.134-54.614 54.614l230.116 202.842c1.886-2.366 3.828-4.684 5.834-6.946 0.096-0.11 0.188-0.218 0.284-0.328 6.49-7.276 13.594-13.982 21.222-20.066l-202.842-230.116zM512 311.466c-75.094 0-136.534 61.44-136.534 136.534s61.44 136.534 136.534 136.534c75.094 0 136.534-61.44 136.534-136.534s-61.44-136.534-136.534-136.534zM645.404 554.066c-1.888 2.366-3.83 4.688-5.838 6.95-0.092 0.106-0.184 0.212-0.276 0.318-6.49 7.276-13.596 13.984-21.224 20.070l204.548 230.116c18.774-15.36 35.84-34.134 52.906-52.906l-230.116-204.548zM512 925.866c106.626 0 204.874-34.334 284.23-92.646l-206.844-233.282c-23.268 11.938-49.564 18.728-77.386 18.728-93.866 0-170.666-76.8-170.666-170.666 0-27.786 6.772-54.052 18.682-77.298l-234.606-205.086c-57.488 79.030-91.276 176.588-91.276 282.384 0 262.826 215.040 477.866 477.866 477.866zM1003.52 413.866l-307.2-51.2c-6.826-1.706-13.654-8.534-13.654-17.066v-260.52c-18.152 13.472-42.1 21.586-68.266 21.586-56.32 0-102.4-37.546-102.4-85.334 0-47.786 46.080-85.332 102.4-85.332s102.4 37.546 102.4 85.334v224.142l273.066 45.512v-120.572c-18.15 13.47-42.098 21.584-68.266 21.584-56.32 0-102.4-37.546-102.4-85.334s46.080-85.334 102.4-85.334c56.32 0 102.4 37.546 102.4 85.334v290.134c0 5.12-3.414 10.24-6.826 13.654-3.414 3.412-8.534 3.412-13.654 3.412zM614.4-29.866c-37.546 0-68.266 22.186-68.266 51.2s30.72 51.2 68.266 51.2 68.266-22.186 68.266-51.2c0-29.014-30.72-51.2-68.266-51.2zM716.8 331.946l273.066 46.080v-51.2l-273.066-46.080v51.2zM921.6 55.466c-37.546 0-68.266 22.186-68.266 51.2s30.72 51.2 68.266 51.2c37.546 0 68.266-22.186 68.266-51.2s-30.72-51.2-68.266-51.2zM512 533.334c-47.786 0-85.334-37.546-85.334-85.334 0-47.786 37.546-85.334 85.334-85.334 47.786 0 85.334 37.546 85.334 85.334 0 47.786-37.548 85.334-85.334 85.334zM512 396.8c-29.014 0-51.2 22.186-51.2 51.2s22.186 51.2 51.2 51.2c29.014 0 51.2-22.186 51.2-51.2s-22.186-51.2-51.2-51.2z" />
<glyph unicode="&#xe93e;" d="M712.903 374.262c-21.995-22.58-48.473-38.922-77.876-50.322-27.794-10.773-58.253-16.196-88.409-19.811 4.566-4.953 6.708-7.387 9.55-10.23 40.918-41.138 82.035-82.066 122.817-123.319 13.897-14.064 16.792-31.493 9.143-47.825-8.349-17.868-27.084-29.612-45.464-28.348-11.64 0.805-20.72 6.583-28.776 14.702-30.887 31.075-62.36 61.597-92.599 93.257-8.829 9.216-13.051 7.461-20.835-0.543-31.065-31.995-62.642-63.478-94.396-94.793-14.263-14.064-31.232-16.614-47.783-8.568-17.586 8.505-28.766 26.467-27.909 44.534 0.606 12.184 6.604 21.525 14.984 29.863 40.511 40.427 80.896 80.98 121.292 121.501 2.685 2.685 5.172 5.538 9.070 9.718-55.097 5.757-104.782 19.32-147.32 52.579-5.287 4.138-10.731 8.129-15.538 12.769-18.631 17.878-20.501 38.369-5.778 59.455 12.612 18.056 33.761 22.883 55.756 12.507 4.263-1.996 8.317-4.524 12.204-7.199 79.266-54.471 188.165-55.965 267.745-2.435 7.879 6.019 16.311 10.971 26.081 13.469 18.975 4.89 36.697-2.1 46.874-18.714 11.651-18.986 11.515-37.501-2.832-52.245z" />
<glyph unicode="&#xe93f;" glyph-name="whatsapp-normal2" d="M243.81 204.19l46.129 138.377c-23.407 39.369-36.881 85.312-36.881 134.437 0 145.563 118.004 263.567 263.567 263.567s263.567-118.004 263.567-263.567c0-145.563-118.004-263.567-263.567-263.567-44.288 0-85.997 10.977-122.628 30.269l-150.187-39.516zM684.779 389.288c-12.17 23-57.051 49.301-57.051 49.301-10.154 5.789-22.408 6.437-28.197-3.884 0 0-14.584-17.488-18.292-20.003-16.942-11.477-32.636-11.033-48.478 4.809l-73.632 73.632c-15.842 15.842-16.286 31.536-4.809 48.478 2.515 3.708 20.003 18.292 20.003 18.292 10.321 5.798 9.673 18.043 3.884 28.197 0 0-26.301 44.88-49.301 57.051-9.784 5.179-21.797 3.366-29.621-4.458l-16.258-16.258c-51.576-51.576-26.181-109.801 25.395-161.377l94.274-94.274c51.576-51.576 109.801-76.971 161.377-25.395l16.258 16.258c7.824 7.842 9.627 19.855 4.448 29.63z" />
<glyph unicode="&#xe940;" glyph-name="shopping-cart" d="M429.371 154.342c-49.658 0-90.058-40.4-90.058-90.058s40.4-90.058 90.058-90.058 90.058 40.4 90.058 90.058c-0.002 49.658-40.402 90.058-90.058 90.058zM429.371 24.514c-21.932 0-39.774 17.844-39.774 39.774 0 21.932 17.844 39.774 39.774 39.774s39.774-17.844 39.774-39.774c0-21.934-17.844-39.774-39.774-39.774zM745.261 154.342c-49.658 0-90.058-40.4-90.058-90.058s40.4-90.058 90.058-90.058 90.058 40.4 90.058 90.058c-0.002 49.658-40.402 90.058-90.058 90.058zM745.261 24.514c-21.932 0-39.774 17.844-39.774 39.774 0 21.932 17.844 39.774 39.774 39.774 21.932 0 39.774-17.844 39.774-39.774 0-21.934-17.844-39.774-39.774-39.774zM767.433 628.489h-360.299c-13.886 0-25.142-11.256-25.142-25.142s11.258-25.142 25.142-25.142h360.299c13.886 0 25.142 11.256 25.142 25.142 0 13.888-11.256 25.142-25.142 25.142zM747.823 497.929h-321.077c-13.886 0-25.142-11.256-25.142-25.142s11.256-25.142 25.142-25.142h321.075c13.886 0 25.142 11.256 25.142 25.142 0 13.884-11.256 25.142-25.14 25.142zM1012.684 740.512c-9.588 11.768-23.796 18.516-38.978 18.516h-783.15l-15.816 76.778c-3.302 16.016-14.226 29.464-29.228 35.978l-110.354 47.9c-12.74 5.534-27.546-0.312-33.072-13.048-5.532-12.74 0.314-27.548 13.048-33.074l110.356-47.902 121.652-590.523c4.792-23.256 25.504-40.136 49.25-40.136h602.333c13.886 0 25.142 11.256 25.142 25.142s-11.256 25.142-25.142 25.142h-602.331l-14.798 71.832h621.785c23.744 0 44.458 16.88 49.248 40.136l70.326 341.351c3.062 14.864-0.682 30.142-10.272 41.908zM903.382 367.397h-632.143l-70.322 341.349 772.788-0.002-70.322-341.347z" />
<glyph unicode="&#xe941;" glyph-name="basket-active" horiz-adv-x="1165" d="M955.11-33.421h-744.978c-34.957 0-63.912 26.236-67.372 61.016l-48.87 489.719c-0.494 4.979 1.13 9.922 4.484 13.594 3.354 3.708 8.086 5.826 13.1 5.826h942.362c4.979 0 9.746-2.119 13.1-5.826 3.354-3.672 4.979-8.651 4.484-13.594l-48.834-489.719c-3.531-34.781-32.521-61.016-67.478-61.016zM326.797 110.857c9.781 0 17.655 7.874 17.655 17.655v256c0 9.746-7.91 17.655-17.655 17.655s-17.655-7.91-17.655-17.655v-256c0-9.746 7.91-17.655 17.655-17.655zM497.346 110.857c9.781 0 17.655 7.874 17.655 17.655v256c0 9.746-7.91 17.655-17.655 17.655s-17.655-7.91-17.655-17.655v-256c0-9.746 7.91-17.655 17.655-17.655zM667.895 110.857c9.746 0 17.655 7.874 17.655 17.655v256c0 9.746-7.91 17.655-17.655 17.655s-17.655-7.91-17.655-17.655v-256c0-9.746 7.91-17.655 17.655-17.655zM838.444 110.857c9.746 0 17.655 7.874 17.655 17.655v256c0 9.746-7.91 17.655-17.655 17.655s-17.655-7.91-17.655-17.655v-256c0-9.746 7.91-17.655 17.655-17.655zM268.5 709.085c-5.049 0-10.063 2.154-13.524 6.321-6.321 7.45-5.332 18.609 2.154 24.858l220.548 185.026c7.521 6.25 18.644 5.297 24.858-2.189 6.285-7.45 5.297-18.609-2.189-24.858l-220.548-185.026c-3.284-2.754-7.309-4.131-11.299-4.131zM896.777 709.085c-3.99 0-8.015 1.377-11.335 4.131l-220.584 185.026c-7.45 6.285-8.439 17.408-2.189 24.894 6.321 7.45 17.408 8.439 24.894 2.189l220.584-185.026c7.45-6.285 8.439-17.408 2.189-24.894-3.496-4.167-8.51-6.321-13.559-6.321zM1104.331 501.389h-1043.421c-33.58 0-60.91 27.33-60.91 60.91v112.922c0 33.58 27.33 60.91 60.91 60.91h1043.421c33.58 0 60.91-27.33 60.91-60.91v-112.922c0-33.58-27.295-60.91-60.91-60.91z" />
<glyph unicode="&#xe942;" glyph-name="levels" d="M119.466 770.616v172.318c0 10.24-6.826 17.066-17.066 17.066s-17.066-6.826-17.066-17.066v-172.318c-39.362-7.72-68.266-41.756-68.266-83.682v-102.4c0-41.926 28.904-75.962 68.266-83.682v-547.784c0-10.24 6.826-17.066 17.066-17.066s17.066 6.826 17.066 17.066v547.782c39.362 7.72 68.266 41.756 68.266 83.682v102.4c0.002 41.928-28.904 75.964-68.266 83.684zM153.6 584.534c0-29.014-22.186-51.2-51.2-51.2s-51.2 22.186-51.2 51.2v102.4c0 29.014 22.186 51.2 51.2 51.2s51.2-22.186 51.2-51.2v-102.4zM392.534 480.482v462.452c0 10.24-6.826 17.066-17.066 17.066s-17.068-6.826-17.068-17.066v-462.45c-39.362-7.72-68.266-41.756-68.266-83.682v-102.4c0-41.926 28.904-75.962 68.266-83.682v-257.65c0-10.24 6.826-17.066 17.066-17.066s17.066 6.826 17.066 17.066v257.648c39.362 7.72 68.266 41.756 68.266 83.682v102.4c0.002 41.926-28.902 75.962-68.264 83.682zM426.666 294.4c0-29.014-22.186-51.2-51.2-51.2s-51.2 22.186-51.2 51.2v102.4c0 29.014 22.186 51.2 51.2 51.2s51.2-22.186 51.2-51.2v-102.4zM665.6 429.282v513.652c0 10.24-6.826 17.066-17.066 17.066s-17.066-6.826-17.066-17.066v-513.65c-39.362-7.72-68.266-41.756-68.266-83.682v-102.4c0-41.926 28.904-75.962 68.266-83.682v-206.45c0-10.24 6.826-17.066 17.066-17.066s17.066 6.826 17.066 17.066v206.448c39.362 7.72 68.266 41.756 68.266 83.682v102.4c0 41.926-28.904 75.962-68.266 83.682zM699.734 243.2c0-29.014-22.186-51.2-51.2-51.2s-51.2 22.186-51.2 51.2v102.4c0 29.014 22.186 51.2 51.2 51.2s51.2-22.186 51.2-51.2v-102.4zM938.666 821.816v121.118c0 10.24-6.826 17.066-17.066 17.066s-17.066-6.826-17.066-17.066v-121.118c-39.362-7.72-68.266-41.756-68.266-83.682v-102.4c0-41.926 28.904-75.962 68.266-83.682v-598.984c0-10.24 6.826-17.066 17.066-17.066s17.066 6.826 17.066 17.066v598.982c39.362 7.72 68.266 41.756 68.266 83.682v102.4c0.002 41.928-28.904 75.964-68.266 83.684zM972.8 635.734c0-29.014-22.186-51.2-51.2-51.2s-51.2 22.186-51.2 51.2v102.4c0 29.014 22.186 51.2 51.2 51.2s51.2-22.186 51.2-51.2v-102.4zM102.4 704c-10.24 0-17.066-6.826-17.066-17.066v-102.4c0-10.24 6.826-17.066 17.066-17.066s17.066 6.826 17.066 17.066v102.4c0 10.24-6.826 17.066-17.066 17.066zM375.466 413.866c-10.24 0-17.066-6.826-17.066-17.066v-102.4c0-10.24 6.826-17.066 17.066-17.066s17.066 6.826 17.066 17.066v102.4c0.002 10.24-6.826 17.066-17.066 17.066zM648.534 362.666c-10.24 0-17.066-6.826-17.066-17.066v-102.4c0-10.24 6.826-17.066 17.066-17.066s17.066 6.826 17.066 17.066v102.4c0 10.24-6.826 17.066-17.066 17.066zM921.6 755.2c-10.24 0-17.066-6.826-17.066-17.066v-102.4c0-10.24 6.826-17.066 17.066-17.066s17.066 6.826 17.066 17.066v102.4c0 10.24-6.826 17.066-17.066 17.066z" />
<glyph unicode="&#xe943;" glyph-name="basket" horiz-adv-x="1165" d="M955.11-33.421h-744.978c-34.957 0-63.912 26.236-67.372 61.016l-48.87 489.719c-0.494 4.979 1.13 9.922 4.484 13.594 3.354 3.708 8.086 5.826 13.1 5.826h942.362c4.979 0 9.746-2.119 13.1-5.826 3.354-3.672 4.979-8.651 4.484-13.594l-48.834-489.719c-3.531-34.781-32.521-61.016-67.478-61.016zM130.931 501.389l46.927-470.298c1.66-16.666 15.501-29.202 32.238-29.202h745.013c16.737 0 30.614 12.535 32.274 29.202l46.927 470.298h-903.38zM268.5 709.085c-5.049 0-10.063 2.154-13.524 6.321-6.321 7.45-5.332 18.609 2.154 24.858l220.548 185.026c7.521 6.25 18.644 5.297 24.858-2.189 6.285-7.45 5.297-18.609-2.189-24.858l-220.548-185.026c-3.284-2.754-7.309-4.131-11.299-4.131zM896.777 709.085c-3.99 0-8.015 1.377-11.335 4.131l-220.584 185.026c-7.45 6.285-8.439 17.408-2.189 24.894 6.321 7.45 17.408 8.439 24.894 2.189l220.584-185.026c7.45-6.285 8.439-17.408 2.189-24.894-3.496-4.167-8.51-6.321-13.559-6.321zM1104.331 501.389h-1043.421c-33.58 0-60.91 27.33-60.91 60.91v112.922c0 33.58 27.33 60.91 60.91 60.91h1043.421c33.58 0 60.91-27.33 60.91-60.91v-112.922c0-33.58-27.295-60.91-60.91-60.91zM60.91 700.857c-14.124 0-25.6-11.476-25.6-25.6v-112.922c0-14.124 11.476-25.6 25.6-25.6h1043.421c14.089 0 25.6 11.476 25.6 25.6v112.922c0 14.124-11.476 25.6-25.6 25.6h-1043.421zM326.797 110.857c-9.746 0-17.655 7.91-17.655 17.655v256c0 9.746 7.91 17.655 17.655 17.655s17.655-7.91 17.655-17.655v-256c0-9.781-7.874-17.655-17.655-17.655zM497.346 110.857c-9.746 0-17.655 7.91-17.655 17.655v256c0 9.746 7.91 17.655 17.655 17.655s17.655-7.91 17.655-17.655v-256c0-9.781-7.874-17.655-17.655-17.655zM667.895 110.857c-9.746 0-17.655 7.91-17.655 17.655v256c0 9.746 7.91 17.655 17.655 17.655s17.655-7.91 17.655-17.655v-256c0-9.781-7.91-17.655-17.655-17.655zM838.444 110.857c-9.746 0-17.655 7.91-17.655 17.655v256c0 9.746 7.91 17.655 17.655 17.655s17.655-7.91 17.655-17.655v-256c0-9.781-7.91-17.655-17.655-17.655z" />
<glyph unicode="&#xe944;" glyph-name="layout" d="M0 960h469.334v-469.334h-469.334v469.334zM554.666 960h469.334v-469.334h-469.334v469.334zM0 405.334h469.334v-469.334h-469.334v469.334zM554.666 405.334h469.334v-469.334h-469.334v469.334z" />
<glyph unicode="&#xe945;" glyph-name="list2" horiz-adv-x="1365" d="M1278.579-39.357h-899.867c-37.088 0-67.148 29.896-67.148 66.783s30.060 66.783 67.148 66.783h899.844c37.088 0 67.148-29.896 67.148-66.783s-30.037-66.783-67.125-66.783zM1278.579 379.837h-899.867c-37.088 0-67.148 29.896-67.148 66.783s30.060 66.783 67.148 66.783h899.844c37.088 0 67.148-29.896 67.148-66.783 0.022-36.886-30.037-66.783-67.125-66.783zM1278.579 799.032h-899.867c-37.088 0-67.148 29.896-67.148 66.783s30.060 66.783 67.148 66.783h899.844c37.088 0 67.148-29.896 67.148-66.783s-30.037-66.783-67.125-66.783zM180.358 860.65c0-49.534-40.375-89.689-90.179-89.689s-90.179 40.155-90.179 89.689c0 49.534 40.375 89.689 90.179 89.689s90.179-40.155 90.179-89.689zM180.358 446.62c0-49.534-40.375-89.689-90.179-89.689s-90.179 40.155-90.179 89.689c0 49.534 40.375 89.689 90.179 89.689s90.179-40.155 90.179-89.689zM180.358 32.59c0-49.534-40.375-89.689-90.179-89.689s-90.179 40.155-90.179 89.689c0 49.534 40.375 89.689 90.179 89.689s90.179-40.155 90.179-89.689z" />
<glyph unicode="&#xe946;" glyph-name="shopping-active" horiz-adv-x="1116" d="M461.857 121.485c-50.754 0-92.045-41.291-92.045-92.045s41.291-92.045 92.045-92.045c50.754 0 92.045 41.291 92.045 92.045-0.002 50.754-41.293 92.045-92.045 92.045zM806.142 121.485c-50.754 0-92.045-41.291-92.045-92.045s41.291-92.045 92.045-92.045c50.754 0 92.045 41.291 92.045 92.045-0.002 50.754-41.293 92.045-92.045 92.045zM1103.71 761.76c10.452-12.852 14.533-29.54 11.195-45.776l-76.647-372.858c-5.221-25.403-27.796-43.841-53.675-43.841h-677.675l16.128-78.462h656.472c15.134 0 27.402-12.295 27.402-27.463s-12.268-27.463-27.402-27.463h-656.474c-25.88 0-48.454 18.438-53.677 43.841l-132.587 645.030-120.276 52.324c-13.879 6.036-20.25 22.211-14.221 36.127 6.023 13.912 22.16 20.297 36.045 14.252l120.273-52.321c16.35-7.115 28.256-21.805 31.855-39.299l17.238-83.865h853.543c16.547 0 32.032-7.371 42.482-20.225zM815.042 496.786h-349.937c-15.134 0-27.402-12.295-27.402-27.463s12.268-27.463 27.402-27.463h349.935c15.134 0 27.402 12.295 27.402 27.463 0 15.166-12.268 27.463-27.4 27.463zM836.415 639.397h-392.684c-15.134 0-27.402-12.295-27.402-27.463s12.27-27.463 27.402-27.463h392.684c15.134 0 27.402 12.295 27.402 27.463 0 15.17-12.268 27.463-27.402 27.463z" />
<glyph unicode="&#xe947;" glyph-name="facebook-normal" d="M624.087 476.656h-72.316v-264.934h-109.565v264.934h-52.11v93.108h52.11v60.252c0 43.086 20.467 110.555 110.541 110.555l81.159-0.34v-90.377h-58.886c-9.659 0-23.241-4.826-23.241-25.379v-54.797h81.882l-9.572-93.022z" />
<glyph unicode="&#xe948;" glyph-name="Doc-download" d="M511.985 197.652v0c-8.489 0-15.379 6.89-15.379 15.379l0.031 346.911c0 8.489 6.89 15.379 15.379 15.379v0c8.489 0 15.379-6.89 15.379-15.379l-0.031-346.911c0-8.489-6.89-15.379-15.379-15.379zM511.985 197.652c-3.937 0-7.874 1.507-10.888 4.491l-132.656 132.656c-5.998 5.998-5.998 15.748 0 21.745s15.748 5.998 21.745 0l121.768-121.768 121.768 121.768c5.998 5.998 15.748 5.998 21.745 0s5.998-15.748 0-21.745l-132.656-132.656c-2.953-2.983-6.89-4.491-10.827-4.491zM848.223-64h-672.445c-42.383 0-76.893 34.479-76.893 76.893v870.214c0 42.414 34.51 76.893 76.893 76.893h488.332c8.489 0 15.379-6.89 15.379-15.379s-6.89-15.379-15.379-15.379h-488.332c-25.436 0-46.136-20.7-46.136-46.136v-870.214c0-25.436 20.7-46.136 46.136-46.136h672.445c25.436 0 46.136 20.7 46.136 46.136v679.396c0 8.489 6.89 15.379 15.379 15.379s15.379-6.89 15.379-15.379v-679.427c0-42.383-34.479-76.862-76.893-76.862zM909.737 676.911h-245.627c-8.489 0-15.379 6.89-15.379 15.379v245.658c0 8.489 6.89 15.379 15.379 15.379s15.379-6.89 15.379-15.379v-230.249h230.249c8.489 0 15.379-6.89 15.379-15.379s-6.859-15.409-15.379-15.409zM909.737 676.911c-3.998 0-7.997 1.569-11.011 4.644l-245.627 252.301c-5.905 6.059-5.782 15.84 0.308 21.745 6.059 5.936 15.809 5.782 21.745-0.308l245.627-252.301c5.905-6.059 5.782-15.84-0.308-21.745-2.983-2.891-6.859-4.337-10.734-4.337z" />
<glyph unicode="&#xe949;" glyph-name="group" d="M687.492 240.829l-9.021 9.021c-0.42 0.42-0.629 0.629-1.049 1.049-49.931-29.581-107.414-45.525-166.366-45.525-74.057 0-144.547 24.546-201.821 69.861-15.525-10.699-31.469-22.658-46.994-35.455-12.378-10.070-19.511-25.385-19.511-41.329v-75.735h538.119v24.965l-79.092 79.092-14.266 14.056zM523.853 703.423h-23.916c-54.966 0-99.652-44.686-99.652-99.652v-110.561c0-17.413 8.811-32.518 22.238-41.539v-94.407c27.063-13.846 57.274-21.399 88.742-21.399 31.889 0 62.518 7.553 89.791 21.818v93.778c13.427 9.021 22.238 24.126 22.238 41.539v110.561c0.21 55.385-44.476 99.862-99.442 99.862zM1007.636 314.467c-57.483 47.203-119.372 78.463-131.96 84.756-1.469 0.629-2.308 2.098-2.308 3.776v89.372c11.329 7.553 18.672 20.35 18.672 34.826v92.729c0 46.154-37.343 83.498-83.498 83.498h-19.301c29.371-47.623 46.364-102.169 48.462-159.023 2.518-63.358-13.427-125.456-45.315-179.163 0.42-0.42 0.629-0.629 1.049-1.049l148.324-148.324h82.239v63.567c0 13.637-6.084 26.434-16.364 35.035zM952.251 146.632l-188.394 188.394-11.119-11.119-23.916 23.916c94.826 111.82 89.582 279.654-16.154 385.39-55.595 55.595-128.603 83.498-201.401 83.498s-145.806-27.902-201.401-83.498c-111.19-111.19-111.19-291.612 0-402.803 55.595-55.595 128.603-83.498 201.401-83.498 65.455 0 130.911 22.448 183.989 67.344l23.916-23.916-11.119-11.119 188.394-188.394c7.762-7.762 17.832-11.539 27.902-11.539s20.14 3.776 27.902 11.539c15.315 15.315 15.315 40.28 0 55.805 0-0.21 0 0 0 0zM679.1 363.768c-46.364-46.364-107.204-69.442-167.834-69.442-60.84 0-121.47 23.077-167.834 69.442-92.729 92.729-92.729 242.94 0 335.669 46.364 46.364 107.204 69.442 167.834 69.442 60.84 0 121.47-23.077 167.834-69.442 92.729-92.519 92.729-242.94 0-335.669zM233.709 703.423h-18.252c-46.154 0-83.498-37.343-83.498-83.498v-92.729c0-14.476 7.343-27.273 18.672-34.826v-89.372c0-1.678-0.839-2.937-2.308-3.776-12.588-6.084-74.477-37.553-131.96-84.756-10.28-8.602-16.364-21.399-16.364-34.826v-63.567h203.919c4.196 21.609 15.525 41.119 32.728 55.176 13.846 11.329 27.902 22.028 41.749 31.889-107.204 109.092-122.1 275.249-44.686 400.285z" />
<glyph unicode="&#xe94a;" glyph-name="google-plus-normal" d="M219.546 435.755c-3.753 94.184 82.802 181.221 181.719 182.35 50.415 4.098 99.464-14.561 137.617-44.995-15.651-16.401-31.575-32.613-48.584-47.791-33.588 19.449-74.028 34.272-113.284 21.108-63.316-17.183-101.66-88.435-78.229-147.47 19.404-61.657 98.089-95.494 159.755-69.593 31.931 10.897 52.984 38.978 62.222 69.151-36.596 0.695-73.2 0.261-109.796 1.224-0.091 20.752-0.182 41.426-0.091 62.178 61.029 0.087 122.149 0.261 183.269-0.261 3.753-50.847-4.118-105.263-38.8-146.073-47.491-58.254-135.231-75.35-206.608-52.497-75.752 23.714-130.84 96.45-129.191 172.668zM695.622 523.866h54.149c0.099-17.266 0.272-34.619 0.371-51.877 18.107-0.173 36.314-0.259 54.429-0.346v-51.704c-18.107-0.086-36.314-0.173-54.429-0.259-0.181-17.352-0.272-34.611-0.371-51.963-18.107 0.086-36.231 0-54.248 0-0.173 17.352-0.173 34.611-0.363 51.877-18.107 0.181-36.314 0.259-54.429 0.353v51.704c18.116 0.086 36.231 0.173 54.429 0.346 0.091 17.25 0.272 34.603 0.462 51.869z" />
<glyph unicode="&#xe94b;" glyph-name="speech-bubble" d="M225.963-54.877c-2.513 0-5.058 0.621-7.354 1.862-5.027 2.7-8.161 7.975-8.161 13.653v221.060c-135.82 70.625-210.448 194.281-210.448 349.215 0 239.43 220.098 419.964 512 419.964s512-180.534 512-419.964c0-239.399-220.098-419.933-512-419.933-9.588 0-18.991 0.528-28.424 1.024l-0.621 0.031-248.46-164.336c-2.576-1.707-5.554-2.576-8.533-2.576zM512 919.847c-274.184 0-480.97-167.222-480.97-388.934 0-103.114 35.002-243.34 201.79-325.787 5.275-2.607 8.626-8.006 8.626-13.902v-201.728l228.662 151.242c2.793 1.862 6.175 2.948 9.371 2.544l5.772-0.31c8.875-0.496 17.718-0.962 26.717-0.962 274.184 0 480.97 167.191 480.97 388.903s-206.755 388.934-480.939 388.934zM773.337 525.7c0-17.36-14.073-31.434-31.434-31.434s-31.434 14.073-31.434 31.434c0 17.36 14.073 31.434 31.434 31.434s31.434-14.073 31.434-31.434zM543.434 525.7c0-17.36-14.073-31.434-31.434-31.434s-31.434 14.073-31.434 31.434c0 17.36 14.073 31.434 31.434 31.434s31.434-14.073 31.434-31.434zM313.53 525.7c0-17.36-14.073-31.434-31.434-31.434s-31.434 14.073-31.434 31.434c0 17.36 14.073 31.434 31.434 31.434s31.434-14.073 31.434-31.434z" />
<glyph unicode="&#xe94c;" glyph-name="shopping-bag-2-active" horiz-adv-x="776" d="M754.44-64h-733.091c-4.251 0-8.316 1.738-11.233 4.81s-4.468 7.199-4.282 11.45l34.909 733.091c0.403 8.285 7.199 14.77 15.515 14.77h663.273c8.285 0 15.112-6.485 15.515-14.77l34.909-733.091c0.186-4.251-1.334-8.378-4.282-11.45s-7.013-4.81-11.233-4.81zM555.598 607.030c-8.564 0-15.515 6.951-15.515 15.515v154.221c0 83.906-68.267 152.204-152.204 152.204s-152.204-68.298-152.204-152.204v-154.221c0-8.564-6.951-15.515-15.515-15.515s-15.515 6.951-15.515 15.515v154.221c0 101.035 82.199 183.234 183.234 183.234s183.234-82.199 183.234-183.234v-154.221c0-8.564-6.92-15.515-15.515-15.515z" />
<glyph unicode="&#xe94d;" glyph-name="instagram-normal" d="M632.166 716.19h-240.337c-81.617 0-148.019-66.404-148.019-148.022v-240.337c0-81.621 66.401-148.022 148.019-148.022h240.337c81.624 0 148.025 66.404 148.025 148.022v240.337c0.003 81.617-66.401 148.022-148.025 148.022zM735.492 326.256c0-56.105-45.646-101.748-101.75-101.748h-243.49c-56.102-0.003-101.744 45.643-101.744 101.748v243.488c0 56.102 45.642 101.748 101.744 101.748h243.486c56.105 0 101.75-45.646 101.75-101.748v-243.488h0.003zM512 582.095c-73.941 0-134.095-60.155-134.095-134.098 0-73.94 60.154-134.092 134.095-134.092s134.095 60.152 134.095 134.092c0 73.943-60.154 134.098-134.095 134.098zM512 358.603c-49.291 0-89.397 40.101-89.397 89.394 0 49.296 40.102 89.4 89.397 89.4s89.397-40.104 89.397-89.4c0-49.293-40.105-89.394-89.397-89.394zM657.27 626.794c-8.808 0-17.46-3.566-23.68-9.813-6.251-6.217-9.844-14.872-9.844-23.71 0-8.811 3.596-17.463 9.844-23.71 6.217-6.217 14.872-9.813 23.68-9.813 8.838 0 17.463 3.596 23.71 9.813 6.248 6.248 9.813 14.903 9.813 23.71 0 8.838-3.566 17.493-9.813 23.71-6.217 6.248-14.872 9.813-23.71 9.813z" />
<glyph unicode="&#xe94e;" glyph-name="shopping-bag2" horiz-adv-x="776" d="M754.44-64h-733.091c-4.251 0-8.316 1.738-11.233 4.81s-4.468 7.199-4.282 11.45l34.909 733.091c0.403 8.285 7.199 14.77 15.515 14.77h663.273c8.285 0 15.112-6.485 15.515-14.77l34.909-733.091c0.186-4.251-1.334-8.378-4.282-11.45s-7.013-4.81-11.233-4.81zM37.609-32.97h700.54l-33.42 702.061h-633.701l-33.42-702.061zM555.598 607.030c-8.564 0-15.515 6.951-15.515 15.515v154.221c0 83.906-68.267 152.204-152.204 152.204s-152.204-68.298-152.204-152.204v-154.221c0-8.564-6.951-15.515-15.515-15.515s-15.515 6.951-15.515 15.515v154.221c0 101.035 82.199 183.234 183.234 183.234s183.234-82.199 183.234-183.234v-154.221c0-8.564-6.92-15.515-15.515-15.515z" />
<glyph unicode="&#xe94f;" glyph-name="close2" d="M1024 901.486l-58.511 58.514-453.489-453.486-453.486 453.486-58.514-58.514 453.486-453.486-453.486-453.489 58.514-58.511 453.486 453.486 453.489-453.486 58.511 58.511-453.486 453.489z" />
<glyph unicode="&#xe950;" glyph-name="calendar" d="M706.76 851.576v60.235h-72.282v-60.235h-244.955v60.235h-72.282v-60.235h-317.24v-867.388h1024v867.388h-317.24zM317.24 779.294v-60.235h72.282v60.235h244.958v-48.188h72.282v48.188h244.955v-120.471h-879.435v120.471h244.958zM72.282 56.471v530.071h879.435v-530.071h-879.435zM234.918 273.318h120.471v-120.471h-120.471v120.471zM451.765 273.318h120.471v-120.471h-120.471v120.471zM668.612 273.318h120.471v-120.471h-120.471v120.471zM451.765 490.165h120.471v-120.471h-120.471v120.471zM668.612 490.165h120.471v-120.471h-120.471v120.471zM234.918 490.165h120.471v-120.471h-120.471v120.471z" />
<glyph unicode="&#xe951;" glyph-name="skype-mini" d="M982.534 385.596c-16.244 22.69-23.772 50.402-23.741 78.409 0.003 0.163 0.003 0.325 0.003 0.49 0 249.428-200.076 451.63-446.88 451.63-53.991 0-105.725-9.711-153.631-27.459-25.917-9.6-54.308-11.446-80.878-3.881-23.47 6.682-48.542 9.5-74.515 7.693-109.103-7.587-196.937-97.953-202.591-208.329-2.699-52.684 12.934-101.555 40.993-140.752 16.244-22.69 23.772-50.402 23.738-78.409v-0.49c0-249.428 200.073-451.63 446.88-451.63 53.994 0 105.727 9.711 153.631 27.459 25.917 9.6 54.308 11.446 80.878 3.881 23.47-6.682 48.539-9.5 74.515-7.693 109.103 7.587 196.935 97.95 202.591 208.324 2.699 52.684-12.934 101.558-40.993 140.757zM528.274 545.464c90.107-21.655 226.271-54.379 226.271-205.96 0-74.672-36.386-131.634-102.461-160.392-47.15-20.522-100.513-23.291-146.496-23.291-141.307 0-230.556 111.045-234.287 115.773-23.141 29.333-18.378 72.075 10.649 95.462 29.019 23.397 71.312 18.571 94.458-10.754 0.207-0.25 53.58-62.199 129.18-64.622 91.036-2.919 111.836 24.455 114.525 47.821 3.287 28.538-21.833 49.489-122.946 73.789-85.704 20.6-215.237 51.729-215.237 191.33 0 43.473 17.495 185.317 242.627 185.317 142.155 0 226.064-113.112 229.568-117.928 21.987-30.228 15.567-72.749-14.344-94.967-29.78-22.122-71.588-15.792-93.659 14.070-1.583 2.057-49.614 56.062-121.565 62.965-54.443 5.226-108.197-14.615-108.197-43.925 0-31.054 15.437-41.501 111.915-64.689z" />
<glyph unicode="&#xe952;" glyph-name="linkedin-normal" d="M755.81 433.038v-178.722h-104.535v166.745c0 41.868-15.093 70.46-52.942 70.46-28.884 0-46.043-19.249-53.62-37.888-2.752-6.661-3.461-15.911-3.461-25.254v-174.055h-104.543c0 0 1.403 282.41 0 311.644h104.551v-44.163c-0.21-0.348-0.507-0.688-0.694-1.020h0.694v1.020c13.892 21.189 38.668 51.481 94.214 51.481 68.776 0 120.338-44.541 120.338-140.247v0zM327.346 716.19c-35.76 0-59.155-23.268-59.155-53.838 0-29.921 22.717-53.861 57.783-53.861h0.678c36.462 0 59.132 23.94 59.132 53.861-0.694 30.57-22.671 53.838-58.438 53.838v0zM274.404 254.316h104.504v311.651h-104.504v-311.651z" />
<glyph unicode="&#xe953;" glyph-name="pinterest-normal" d="M548.656 331.433c-34.34 2.656-48.769 19.684-75.699 36.032-14.801-77.659-32.89-152.103-86.468-190.993-16.558 117.375 24.275 205.536 43.238 299.113-32.323 54.412 3.887 163.933 72.064 136.945 83.91-33.182-72.647-202.321 32.453-223.446 109.723-22.056 154.516 190.386 86.468 259.486-98.314 99.764-286.174 2.267-263.073-140.549 5.627-34.914 41.708-45.514 14.413-93.691-62.922 13.935-81.691 63.562-79.278 129.723 3.895 108.298 97.31 184.127 191.009 194.621 118.5 13.263 229.721-43.514 245.073-154.978 17.271-125.804-53.497-262.045-180.2-252.264v0z" />
<glyph unicode="&#xe955;" d="M511.425 804.697c99.474-0.272 179.315-81.638 178.803-182.209-0.502-98.252-81.648-177.883-180.955-177.549-98.294 0.334-178.907 81.826-178.322 180.276 0.554 99.527 81.209 179.754 180.475 179.482z" />
<glyph unicode="&#xe956;" d="M511.175 536.743c48.765 0.178 87.604 39.351 87.427 88.221-0.178 48.891-39.1 87.792-87.886 87.834-49.194 0.052-88.482-39.57-88.106-88.9 0.366-48.692 39.643-87.333 88.566-87.155z" />
<glyph unicode="&#xe957;" glyph-name="error" d="M512 960c-282.752 0-512-229.248-512-512s229.248-512 512-512 512 229.248 512 512-229.248 512-512 512zM512 121.173c-40.021 0-67.413 30.848-67.413 70.827 0 41.131 28.544 70.827 67.413 70.827 41.088 0 67.413-29.696 67.413-70.827 0-40.021-26.325-70.827-67.413-70.827zM538.539 391.637c-10.197-34.773-42.325-35.371-53.035 0-12.331 40.789-56.149 195.627-56.149 296.192 0 132.693 166.016 133.333 166.016 0-0.043-101.163-46.208-260.011-56.832-296.192z" />
<glyph unicode="&#xe959;" d="M510.694 960c-282.049 0-510.694-228.655-510.694-510.694s228.645-510.694 510.694-510.694c282.049 0 510.694 228.655 510.694 510.694s-228.645 510.694-510.694 510.694z" />
<glyph unicode="&#xe95a;" d="M712.903 374.262c-21.995-22.58-48.473-38.922-77.876-50.322-27.794-10.773-58.253-16.196-88.409-19.811 4.566-4.953 6.708-7.387 9.55-10.23 40.918-41.138 82.035-82.066 122.817-123.319 13.897-14.064 16.792-31.493 9.143-47.825-8.349-17.868-27.084-29.612-45.464-28.348-11.64 0.805-20.72 6.583-28.776 14.702-30.887 31.075-62.36 61.597-92.599 93.257-8.829 9.216-13.051 7.461-20.835-0.543-31.065-31.995-62.642-63.478-94.396-94.793-14.263-14.064-31.232-16.614-47.783-8.568-17.586 8.505-28.766 26.467-27.909 44.534 0.606 12.184 6.604 21.525 14.984 29.863 40.511 40.427 80.896 80.98 121.292 121.501 2.685 2.685 5.172 5.538 9.070 9.718-55.097 5.757-104.782 19.32-147.32 52.579-5.287 4.138-10.731 8.129-15.538 12.769-18.631 17.878-20.501 38.369-5.778 59.455 12.612 18.056 33.761 22.883 55.756 12.507 4.263-1.996 8.317-4.524 12.204-7.199 79.266-54.471 188.165-55.965 267.745-2.435 7.879 6.019 16.311 10.971 26.081 13.469 18.975 4.89 36.697-2.1 46.874-18.714 11.651-18.986 11.515-37.501-2.832-52.245z" />
<glyph unicode="&#xe95b;" glyph-name="telegram-normal" d="M180.547 457.129l128.9-48.319 49.893-161.151c3.193-10.321 15.759-14.136 24.1-7.288l71.851 58.829c7.531 6.164 18.26 6.471 26.131 0.732l129.594-94.497c8.922-6.514 21.564-1.603 23.801 9.225l94.934 458.638c2.443 11.828-9.13 21.697-20.344 17.34l-529.011-204.962c-13.054-5.057-12.941-23.62 0.151-28.548zM351.3 434.532l251.919 155.831c4.528 2.793 9.186-3.356 5.298-6.978l-207.907-194.1c-7.307-6.832-12.022-15.975-13.357-25.9l-7.082-52.713c-0.937-7.038-10.782-7.736-12.716-0.925l-27.238 96.123c-3.119 10.965 1.427 22.675 11.082 28.661z" />
<glyph unicode="&#xe95c;" d="M511.425 804.697c99.474-0.272 179.315-81.638 178.803-182.209-0.502-98.252-81.648-177.883-180.955-177.549-98.294 0.334-178.907 81.826-178.322 180.276 0.554 99.527 81.209 179.754 180.475 179.482z" />
<glyph unicode="&#xe95d;" d="M511.175 536.743c48.765 0.178 87.604 39.351 87.427 88.221-0.178 48.891-39.1 87.792-87.886 87.834-49.194 0.052-88.482-39.57-88.106-88.9 0.366-48.692 39.643-87.333 88.566-87.155z" />
<glyph unicode="&#xe95e;" d="M1024 448c0-282.77-229.23-512-512-512s-512 229.23-512 512c0 282.77 229.23 512 512 512s512-229.23 512-512z" />
<glyph unicode="&#xe95f;" d="M1024 448c0-282.77-229.23-512-512-512s-512 229.23-512 512c0 282.77 229.23 512 512 512s512-229.23 512-512z" />
<glyph unicode="&#xe960;" d="M787.418 611.778l-0.177 0.68c-14.329 55.611-78.93 115.284-138.255 127.699l-0.669 0.132c-95.956 17.573-193.251 17.573-289.187 0l-0.689-0.132c-59.306-12.415-123.906-72.088-138.255-127.699l-0.157-0.68c-17.715-77.662-17.715-156.421 0-234.083l0.157-0.68c13.737-53.237 73.527-110.169 130.638-125.826v-62.077c0-22.467 28.521-33.503 44.74-17.29l65.516 65.378c14.209-0.763 28.427-1.189 42.644-1.189 48.303 0 96.625 4.384 144.593 13.17l0.669 0.132c59.325 12.415 123.926 72.088 138.255 127.699l0.177 0.68c17.715 77.664 17.715 156.423 0 234.085zM735.572 388.957c-9.566-36.28-58.617-81.385-97.59-89.718-51.021-9.314-102.446-13.295-153.819-11.929-1.022 0.026-2.004-0.353-2.716-1.056-7.291-7.184-47.836-47.142-47.836-47.142l-50.881-50.131c-3.72-3.723-10.255-1.19-10.255 3.949v102.836c0 1.699-1.264 3.142-3.002 3.469-0.010 0.002-0.020 0.004-0.030 0.006-38.973 8.333-88.004 53.438-97.59 89.718-15.943 70.199-15.943 141.361 0 211.559 9.586 36.28 58.617 81.385 97.59 89.718 89.106 16.269 179.453 16.269 268.539 0 38.993-8.333 88.024-53.438 97.59-89.718 15.961-70.2 15.961-141.363 0-211.561z" />
<glyph unicode="&#xe961;" glyph-name="vk-normal" d="M481.335 286.249h34.976c0 0 10.565 1.16 15.959 6.975 4.965 5.338 4.806 15.363 4.806 15.363s-0.683 46.931 21.099 53.843c21.472 6.808 49.045-45.359 78.269-65.417 22.099-15.18 38.892-11.852 38.892-11.852l78.142 1.088c0 0 40.878 2.518 21.496 34.658-1.589 2.629-11.288 23.776-58.1 67.228-48.997 45.478-42.435 38.122 16.586 116.789 35.945 47.909 50.316 77.157 45.827 89.685-4.282 11.931-30.718 8.778-30.718 8.778l-87.985-0.548c0 0-6.522 0.89-11.36-2.002-4.727-2.836-7.769-9.445-7.769-9.445s-13.925-37.073-32.498-68.602c-39.178-66.529-54.843-70.040-61.246-65.909-14.894 9.628-11.177 38.678-11.177 59.316 0 64.471 9.779 91.353-19.041 98.311-9.564 2.312-16.602 3.837-41.061 4.083-31.394 0.326-57.965-0.095-73.011-7.467-10.009-4.901-17.73-15.824-13.028-16.451 5.815-0.778 18.985-3.551 25.968-13.059 9.016-12.265 8.698-39.814 8.698-39.814s5.179-75.894-12.098-85.323c-11.86-6.466-28.129 6.736-63.057 67.093-17.897 30.917-31.409 65.091-31.409 65.091s-2.606 6.387-7.253 9.803c-5.64 4.139-13.52 5.457-13.52 5.457l-83.608-0.548c0 0-12.551-0.35-17.158-5.807-4.099-4.854-0.326-14.894-0.326-14.894s65.456-153.139 139.571-230.312c67.959-70.755 145.132-66.108 145.132-66.108v0z" />
<glyph unicode="&#xe962;" d="M1024 448c0-282.77-229.23-512-512-512s-512 229.23-512 512c0 282.77 229.23 512 512 512s512-229.23 512-512z" />
<glyph unicode="&#xe963;" d="M230.4 192l48.435 145.296c-24.577 41.337-38.725 89.578-38.725 141.159 0 152.841 123.904 276.745 276.745 276.745s276.745-123.904 276.745-276.745c0-152.841-123.904-276.745-276.745-276.745-46.503 0-90.296 11.526-128.759 31.782l-157.696-41.492z" />
<glyph unicode="&#xe964;" d="M693.418 386.353c-12.779 24.15-59.903 51.766-59.903 51.766-10.662 6.079-23.528 6.758-29.607-4.078 0 0-15.313-18.362-19.207-21.003-17.789-12.051-34.268-11.584-50.902 5.049l-77.314 77.314c-16.634 16.634-17.1 33.112-5.049 50.902 2.641 3.894 21.003 19.207 21.003 19.207 10.837 6.088 10.157 18.945 4.078 29.607 0 0-27.616 47.124-51.766 59.903-10.274 5.438-22.887 3.535-31.102-4.68l-17.071-17.071c-54.155-54.155-27.49-115.291 26.665-169.446l98.987-98.987c54.155-54.155 115.291-80.819 169.446-26.665l17.071 17.071c8.215 8.234 10.108 20.848 4.671 31.112z" />
<glyph unicode="&#xe965;" d="M0-64l88.064 264.174c-44.685 75.158-70.409 162.869-70.409 256.653 0 277.892 225.28 503.172 503.172 503.172s503.172-225.28 503.172-503.172c0-277.892-225.28-503.172-503.172-503.172-84.551 0-164.175 20.957-234.108 57.785l-286.72-75.441z" />
<glyph unicode="&#xe966;" d="M841.852 289.368c-23.234 43.908-108.915 94.12-108.915 94.12-19.385 11.052-42.778 12.288-53.831-7.415 0 0-27.842-33.386-34.922-38.188-32.344-21.91-62.305-21.063-92.548 9.181l-140.57 140.57c-30.243 30.243-31.091 60.204-9.181 92.548 4.802 7.080 38.188 34.922 38.188 34.922 19.703 11.070 18.467 34.445 7.415 53.831 0 0-50.211 85.681-94.12 108.915-18.679 9.887-41.613 6.426-56.55-8.51l-31.038-31.038c-98.463-98.463-49.982-209.62 48.481-308.083l179.977-179.977c98.463-98.463 209.62-146.944 308.083-48.481l31.038 31.038c14.936 14.972 18.379 37.906 8.492 56.567z" />
<glyph unicode="&#xe967;" glyph-name="star-butt-ful" horiz-adv-x="1069" d="M821.718 263.254c-4.606 27.056 4.26 54.621 23.695 73.766l201.479 198.385c10.154 10.005 13.587 24.102 9.211 37.709-4.376 13.632-15.361 22.985-29.385 25.055l-278.462 40.874c-26.875 3.931-50.087 20.96-62.086 45.571l-124.514 254.89c-6.287 12.843-18.494 20.497-32.679 20.497-14.162 0-26.39-7.654-32.653-20.497l-124.517-254.89c-11.996-24.612-35.233-41.64-62.108-45.571l-278.44-40.874c-14.023-2.070-25.009-11.423-29.383-25.055-4.4-13.608-0.945-27.705 9.211-37.709l201.501-198.407c19.435-19.123 28.301-46.712 23.719-73.744l-47.554-280.13c-2.373-14.122 3.016-27.567 14.484-35.988 11.468-8.398 25.77-9.422 38.365-2.814l249.008 132.271c12.021 6.375 25.217 9.586 38.389 9.586s26.39-3.211 38.389-9.561l249.053-132.295c12.551-6.608 26.853-5.584 38.343 2.814 11.468 8.42 16.882 21.89 14.486 35.988l-47.552 280.13z" />
<glyph unicode="&#xe968;" glyph-name="Notic-active" horiz-adv-x="878" d="M375.719 886.761v-4.080c37.924 6.801 75.849 7.481 113.773 2.040v2.040c0 16.321-5.418 29.922-16.253 40.803s-24.041 16.321-39.617 16.321c-15.576 0-29.12-5.44-40.633-16.321s-17.269-24.482-17.269-40.803zM436.669-23.148c50.114 0 90.747 21.082 121.899 63.245-41.988-5.44-82.621-8.161-121.899-8.161-37.924 0-78.557 2.040-121.899 6.12 31.152-40.803 71.785-61.205 121.899-61.205zM692.657 97.221l144.248 24.482c-79.912 91.127-119.868 194.495-119.868 310.103v171.373c0 48.964-13.544 92.827-40.633 131.59s-59.595 66.985-97.52 84.666c-23.025 10.881-47.405 18.361-73.14 22.442-48.76 10.881-96.842 10.881-144.248 0-23.025-5.44-45.374-12.921-67.045-22.442-39.279-19.041-73.14-47.944-101.583-86.707s-42.665-81.946-42.665-129.55v-171.373c0-119.689-37.924-223.057-113.773-310.103l144.248-24.482c37.924-6.8 71.785-12.241 101.583-16.321 14.899-1.36 28.443-2.72 40.633-4.080h2.032c10.836-1.36 22.348-2.72 34.538-4.080h6.095c9.481 0 19.639-0.68 30.475-2.040h81.266c10.836 1.36 20.994 2.040 30.475 2.040h6.095c13.544 1.36 25.734 2.72 36.57 4.080 13.544 1.36 27.089 2.72 40.633 4.080 31.152 4.080 65.013 9.521 101.583 16.321z" />
<glyph unicode="&#xe969;" glyph-name="Cast-active" horiz-adv-x="1138" d="M612.738 137.127c-3.331-10.251-10.52-18.619-20.207-23.542-9.687-4.943-20.694-5.815-30.929-2.532l-289.818 93.661c-10.256 3.323-18.643 10.474-23.578 20.159-4.955 9.684-5.869 20.645-2.539 30.856 5.564 17.14 21.547 28.040 38.687 28.040 4.123 0 8.326-0.628 12.449-1.965l289.818-93.661c21.303-6.888 33.021-29.762 26.116-51.014zM121.849 331.946c0-22.347-18.216-40.52-40.616-40.52s-40.616 18.173-40.616 40.52v222.858c0 22.347 18.216 40.52 40.616 40.52s40.616-18.173 40.616-40.52v-222.858zM162.465 367.036v152.658l792.018 250.533v-653.744l-792.018 250.553zM1116.949 28.049c0-33.51-27.335-60.779-60.924-60.779s-60.924 27.27-60.924 60.779v830.652c0 33.51 27.335 60.779 60.924 60.779s60.924-27.27 60.924-60.779v-830.652z" />
<glyph unicode="&#xe96a;" glyph-name="Shape-active" d="M523.66 928.13c-280.428 0-491.923-171.746-491.923-399.455 0-105.903 35.799-249.922 206.386-334.6 5.395-2.677 8.823-8.222 8.823-14.278v-207.185l233.87 155.333c2.856 1.912 6.316 3.028 9.585 2.613l5.903-0.319c9.077-0.51 18.122-0.988 27.326-0.988 280.428 0 491.923 171.714 491.923 399.423s-211.464 399.455-491.892 399.455z" />
<glyph unicode="&#xe96b;" glyph-name="follow-active" horiz-adv-x="1216" d="M1169.477 526.368c9.579 40.866 12.772 75.678 9.579 104.435-7.983 83.245-38.716 151.355-92.201 204.329s-117.746 79.461-192.784 79.461c-57.476 0-109.763-15.135-156.862-45.406s-81.823-71.137-104.175-122.598l-21.554-47.677-23.948 47.677c-22.352 52.974-56.279 94.219-101.78 123.733s-96.192 44.271-152.072 44.271c-73.442 0-137.304-26.487-191.587-79.461s-85.416-120.327-93.398-202.059v-2.27c-3.193-31.785 0-66.596 9.579-104.435 23.948-95.354 75.836-177.842 155.664-247.466l397.542-340.549 402.332 340.549c79.828 69.623 131.716 152.112 155.664 247.466z" />
<glyph unicode="&#xe96c;" glyph-name="media-active" horiz-adv-x="1229" d="M21.403 960h838.017c11.5 0 20.827-9.327 20.827-20.827v-60.392c0-11.5-9.327-20.827-20.827-20.827s-20.827 9.327-20.827 20.827v39.565h-796.363v-796.363h39.565c11.5 0 20.827-9.327 20.827-20.827s-9.327-20.827-20.827-20.827h-60.392c-11.5 0-20.827 9.327-20.827 20.827v838.017c0 11.5 9.327 20.827 20.827 20.827zM165.156 816.248h838.017c11.5 0 20.827-9.327 20.827-20.827v-838.017c0-11.5-9.327-20.827-20.827-20.827h-838.017c-11.5 0-20.827 9.327-20.827 20.827v838.017c0 11.5 9.327 20.827 20.827 20.827z" />
<glyph unicode="&#xe96d;" glyph-name="user_L-active" d="M504.433 917.692c254.97 0 462.397-208.767 462.397-465.384 0-112.898-40.187-216.509-106.898-297.19-46.093 19.377-154.924 57.39-222.287 77.402-5.738 1.819-6.642 2.115-6.642 26.188 0 19.863 8.134 39.896 16.058 56.819 8.575 18.404 18.748 49.352 22.405 77.127 10.215 11.931 24.129 35.496 33.082 80.384 7.84 39.558 4.183 53.942-1.030 67.46-0.525 1.417-1.093 2.835-1.513 4.231-1.976 9.287 0.736 57.475 7.482 94.875 4.624 25.66-1.198 80.215-36.298 125.336-22.174 28.536-64.567 63.546-142.040 68.433l-42.477-0.042c-76.148-4.844-118.605-39.854-140.779-68.39-35.079-45.121-40.922-99.677-36.277-125.315 6.768-37.421 9.437-85.609 7.503-94.706-0.399-1.587-0.988-3.004-1.555-4.421-5.17-13.517-8.87-27.902-0.988-67.46 8.912-44.888 22.826-68.454 33.082-80.384 3.615-27.775 13.809-58.723 22.426-77.127 6.284-13.454 9.227-31.794 9.227-57.686 0-24.073-0.904-24.369-6.284-26.083-69.654-20.688-180.524-61.008-221.866-79.242-68.035 81.040-109.126 185.667-109.126 299.792 0 256.617 207.448 465.384 462.397 465.384 0 0-254.949 0 0 0v0 0zM504.433 960c-278.594 0-504.433-227.277-504.433-507.692s225.839-507.692 504.433-507.692c278.615 0 504.433 227.277 504.433 507.692s-225.818 507.692-504.433 507.692v0z" />
<glyph unicode="&#xe96e;" d="M588.5 341.488c-5.992 1.746-11.702 2.919-17.004 5.032-54.948 21.885-105.518 50.12-145.576 93.401-22.779 24.612-40.609 52.399-55.68 81.804-7.147 13.945-13.17 28.437-19.309 42.833-5.598 13.129 2.647 26.692 11.33 36.584 8.147 9.284 18.63 16.388 29.984 21.625 8.861 4.087 17.603 1.731 24.075-5.48 13.991-15.589 26.842-31.976 37.249-50.046 6.399-11.115 4.643-24.701-6.954-32.265-2.819-1.839-5.387-3.996-8.013-6.073-2.303-1.82-4.47-3.658-6.049-6.122-2.886-4.509-3.023-9.826-1.165-14.728 14.302-37.731 38.408-67.071 77.967-82.874 6.33-2.528 12.688-5.472 19.981-4.656 12.213 1.37 16.168 14.231 24.726 20.95 8.365 6.566 19.055 6.653 28.066 1.179 9.013-5.476 17.75-11.355 26.435-17.295 8.525-5.831 17.012-11.536 24.876-18.184 7.56-6.393 10.164-14.779 5.907-23.454-7.795-15.888-19.136-29.105-35.497-37.542-4.62-2.379-10.137-3.15-15.347-4.69-5.992 1.748 5.21 1.54 0 0z" />
<glyph unicode="&#xe96f;" d="M503.872 640.934c71.874-1.933 130.906-47.724 143.556-115.938 2.155-11.623 2.923-23.507 3.882-35.303 0.404-4.962-2.523-9.677-8.102-9.741-5.761-0.066-8.354 4.561-8.728 9.522-0.74 9.818-1.254 19.68-2.663 29.417-7.44 51.399-50.133 93.922-103.426 103.047-8.019 1.374-16.227 1.735-24.35 2.553-5.135 0.518-11.861 0.816-12.999 6.944-0.955 5.138 3.563 9.229 8.659 9.491 1.386 0.074 2.779 0.013 4.171 0.008 71.874-1.933-1.392 0.006 0 0z" />
<glyph unicode="&#xe970;" d="M613.098 505.004c-0.118-0.862-0.181-2.887-0.707-4.796-1.907-6.927-12.847-7.795-15.367-0.803-0.746 2.075-0.858 4.435-0.862 6.668-0.026 14.614-3.334 29.213-11.011 41.928-7.891 13.068-19.947 24.055-34.088 30.702-8.55 4.019-17.798 6.517-27.169 8.006-4.096 0.65-8.235 1.045-12.351 1.595-4.988 0.665-7.651 3.717-7.415 8.435 0.22 4.422 3.586 7.602 8.606 7.33 16.495-0.899 32.426-4.322 47.090-11.776 29.82-15.16 46.854-39.090 51.826-71.043 0.224-1.447 0.587-2.882 0.701-4.335 0.281-3.588 0.459-7.18 0.746-11.912-0.118-0.862-0.287 4.732 0 0z" />
</font>
</defs>
</svg>
