<svg width="111" height="36" viewBox="0 0 111 36" fill="none" xmlns="http://www.w3.org/2000/svg">
<path d="M7.12759 35.9981C6.84079 35.9981 6.56091 35.9944 6.27636 35.988C5.68688 35.9804 5.09878 35.9291 4.51688 35.8345C3.97428 35.7411 3.44866 35.5673 2.95733 35.3189C2.47052 35.0725 2.0265 34.7495 1.64229 34.3622C1.25253 33.9794 0.928028 33.5354 0.681656 33.0479C0.432569 32.5572 0.260187 32.0312 0.170513 31.4882C0.0736727 30.9048 0.0212782 30.3149 0.0137811 29.7236C0.00781308 29.5251 0 28.8643 0 28.8643V7.12371C0 7.12371 0.00832141 6.47301 0.0138282 6.28184C0.0210066 5.69145 0.0730965 5.10247 0.169647 4.51998C0.259486 3.97556 0.432002 3.44805 0.681223 2.95573C0.926689 2.46852 1.24939 2.02423 1.63681 1.64008C2.02379 1.25228 2.46923 0.927579 2.95687 0.677809C3.44707 0.430183 3.9717 0.257617 4.5132 0.165893C5.09701 0.0704303 5.68715 0.0188189 6.27867 0.0114912L7.12805 0H103.867L104.727 0.0119523C105.313 0.0189159 105.898 0.0700669 106.476 0.16497C107.023 0.257845 107.553 0.431616 108.049 0.680567C109.026 1.18393 109.821 1.98029 110.322 2.95803C110.568 3.44695 110.738 3.97015 110.826 4.50987C110.924 5.09714 110.979 5.69075 110.99 6.28598C110.993 6.55251 110.993 6.8388 110.993 7.12371C111 7.47663 111 7.81255 111 8.15123V27.8478C111 28.1897 111 28.5233 110.993 28.8597C110.993 29.1657 110.993 29.4461 110.989 29.7346C110.978 30.3192 110.924 30.9023 110.828 31.479C110.74 32.0259 110.569 32.556 110.32 33.0507C110.072 33.5329 109.749 33.9731 109.364 34.3548C108.979 34.7442 108.534 35.0692 108.046 35.3171C107.552 35.5675 107.023 35.7419 106.476 35.8345C105.894 35.9296 105.306 35.9809 104.717 35.988C104.441 35.9944 104.152 35.9981 103.872 35.9981L102.852 36L7.12759 35.9981Z" fill="#0063DA"/>
<path d="M22.4917 18.2823C22.5018 17.4968 22.7105 16.7266 23.0983 16.0434C23.4862 15.3601 24.0406 14.7861 24.71 14.3747C24.2847 13.7675 23.7238 13.2678 23.0716 12.9153C22.4194 12.5628 21.694 12.3672 20.953 12.344C19.3723 12.1781 17.8398 13.2897 17.0343 13.2897C16.2132 13.2897 14.973 12.3605 13.6375 12.388C12.7737 12.4159 11.9318 12.667 11.1939 13.1169C10.456 13.5668 9.84729 14.2002 9.42701 14.9552C7.60648 18.1065 8.96443 22.7379 10.7084 25.2851C11.5809 26.5324 12.6006 27.9257 13.9349 27.8763C15.2406 27.8222 15.7282 27.0439 17.3043 27.0439C18.8657 27.0439 19.3232 27.8763 20.6846 27.8449C22.0857 27.8222 22.9684 26.5921 23.8103 25.3329C24.4372 24.4442 24.9196 23.4619 25.2397 22.4225C24.4257 22.0783 23.731 21.5021 23.2424 20.7659C22.7537 20.0297 22.4926 19.1659 22.4917 18.2823Z" fill="white"/>
<path d="M19.9187 10.6689C20.6825 9.75205 21.0587 8.57359 20.9676 7.38379C19.8008 7.50634 18.7229 8.06402 17.9489 8.94569C17.5704 9.37641 17.2805 9.8775 17.0958 10.4203C16.9112 10.9631 16.8353 11.537 16.8725 12.1092C17.4561 12.1152 18.0335 11.9887 18.5612 11.7392C19.0888 11.4897 19.553 11.1238 19.9187 10.6689Z" fill="white"/>
<path d="M38.9989 24.7185H34.5432L33.4732 27.8773H31.5859L35.8063 16.1904H37.7671L41.9875 27.8773H40.068L38.9989 24.7185ZM35.0047 23.2609H38.5366L36.7955 18.1343H36.7467L35.0047 23.2609Z" fill="white"/>
<path d="M51.1022 23.6172C51.1022 26.265 49.6847 27.9662 47.5456 27.9662C47.0037 27.9945 46.4648 27.8697 45.9905 27.6061C45.5163 27.3424 45.1259 26.9506 44.8641 26.4755H44.8236V30.6958H43.0742V19.3563H44.7675V20.7736H44.7997C45.0736 20.3007 45.4706 19.9109 45.9484 19.6456C46.4263 19.3804 46.9671 19.2496 47.5134 19.2672C49.6764 19.2672 51.1022 20.9767 51.1022 23.6172ZM49.3041 23.6172C49.3041 21.8921 48.4124 20.7579 47.0519 20.7579C45.7153 20.7579 44.8163 21.916 44.8163 23.6172C44.8163 25.334 45.7153 26.4837 47.0519 26.4837C48.4124 26.4837 49.3041 25.3579 49.3041 23.6172Z" fill="white"/>
<path d="M60.4811 23.6172C60.4811 26.265 59.0636 27.9662 56.9245 27.9662C56.3826 27.9945 55.8437 27.8697 55.3694 27.6061C54.8952 27.3424 54.5048 26.9506 54.243 26.4754H54.2025V30.6958H52.4531V19.3563H54.1464V20.7735H54.1786C54.4525 20.3007 54.8495 19.9109 55.3273 19.6456C55.8052 19.3804 56.346 19.2496 56.8923 19.2672C59.0553 19.2672 60.4811 20.9767 60.4811 23.6172ZM58.683 23.6172C58.683 21.8921 57.7913 20.7579 56.4308 20.7579C55.0942 20.7579 54.1952 21.916 54.1952 23.6172C54.1952 25.334 55.0942 26.4837 56.4308 26.4837C57.7913 26.4837 58.683 25.3579 58.683 23.6172H58.683Z" fill="white"/>
<path d="M66.6814 24.6206C66.811 25.7796 67.9371 26.5405 69.476 26.5405C70.9505 26.5405 72.0113 25.7795 72.0113 24.7346C72.0113 23.8274 71.3715 23.2843 69.8565 22.912L68.3416 22.5472C66.1951 22.0288 65.1986 21.0252 65.1986 19.3966C65.1986 17.3802 66.9563 15.9951 69.4521 15.9951C71.9221 15.9951 73.6154 17.3802 73.6724 19.3966H71.9065C71.8008 18.2303 70.8365 17.5263 69.4272 17.5263C68.018 17.5263 67.0537 18.2386 67.0537 19.2753C67.0537 20.1015 67.6696 20.5877 69.1763 20.9599L70.4642 21.2761C72.8625 21.8431 73.859 22.8063 73.859 24.5158C73.859 26.7022 72.117 28.0717 69.3463 28.0717C66.754 28.0717 65.0037 26.7344 64.8906 24.6205L66.6814 24.6206Z" fill="white"/>
<path d="M77.6335 17.3398V19.3563H79.2542V20.7413H77.6335V25.4387C77.6335 26.1684 77.958 26.5085 78.6705 26.5085C78.8629 26.5051 79.0549 26.4916 79.2459 26.468V27.8448C78.9256 27.9046 78.6001 27.9317 78.2743 27.9257C76.5488 27.9257 75.8759 27.2777 75.8759 25.6252V20.7413H74.6367V19.3563H75.8759V17.3398H77.6335Z" fill="white"/>
<path d="M80.1953 23.6166C80.1953 20.9356 81.7746 19.251 84.2373 19.251C86.7083 19.251 88.2803 20.9356 88.2803 23.6166C88.2803 26.3048 86.7166 27.9821 84.2373 27.9821C81.7589 27.9821 80.1953 26.3048 80.1953 23.6166ZM86.4978 23.6166C86.4978 21.7775 85.6548 20.6921 84.2373 20.6921C82.8198 20.6921 81.9778 21.7858 81.9778 23.6166C81.9778 25.463 82.8198 26.5401 84.2373 26.5401C85.6548 26.5401 86.4978 25.463 86.4978 23.6166H86.4978Z" fill="white"/>
<path d="M89.7227 19.3563H91.3908V20.8065H91.4312C91.5441 20.3536 91.8095 19.9533 92.1827 19.673C92.5559 19.3926 93.0143 19.2493 93.4808 19.2671C93.6823 19.2664 93.8833 19.2883 94.08 19.3324V20.9683C93.8256 20.8906 93.5601 20.8549 93.2942 20.8626C93.0401 20.8523 92.7868 20.8971 92.5516 20.9939C92.3165 21.0908 92.1051 21.2373 91.932 21.4236C91.7588 21.6098 91.628 21.8313 91.5486 22.0729C91.4691 22.3144 91.4429 22.5703 91.4716 22.823V27.877H89.7227L89.7227 19.3563Z" fill="white"/>
<path d="M102.145 25.3738C101.91 26.9206 100.403 27.9821 98.4752 27.9821C95.9959 27.9821 94.457 26.3214 94.457 23.657C94.457 20.9843 96.0042 19.251 98.4016 19.251C100.76 19.251 102.242 20.8704 102.242 23.4539V24.0531H96.223V24.1588C96.1952 24.4724 96.2344 24.7883 96.3381 25.0855C96.4419 25.3828 96.6077 25.6546 96.8245 25.8828C97.0413 26.1111 97.3043 26.2906 97.5958 26.4095C97.8874 26.5284 98.2009 26.5839 98.5156 26.5723C98.929 26.611 99.3439 26.5153 99.6985 26.2993C100.053 26.0834 100.328 25.7588 100.484 25.3738L102.145 25.3738ZM96.2312 22.8308H100.492C100.508 22.5488 100.465 22.2666 100.366 22.002C100.268 21.7373 100.116 21.4959 99.9194 21.2928C99.7231 21.0898 99.487 20.9295 99.2258 20.822C98.9646 20.7145 98.684 20.6621 98.4016 20.6682C98.1167 20.6665 97.8343 20.7212 97.5707 20.8292C97.3071 20.9372 97.0675 21.0963 96.8657 21.2973C96.6639 21.4984 96.504 21.7374 96.3951 22.0006C96.2862 22.2638 96.2305 22.5459 96.2312 22.8308V22.8308Z" fill="white"/>
<path d="M33.761 9.7673H34.5118C34.6411 9.7834 34.7723 9.77255 34.8971 9.73543C35.022 9.6983 35.1378 9.63572 35.2373 9.55162C35.3368 9.46752 35.4177 9.36372 35.4751 9.24678C35.5325 9.12983 35.565 9.00227 35.5706 8.87213C35.5706 8.35424 35.1809 8.0197 34.5201 8.0197C34.3877 8.00119 34.2529 8.00941 34.1237 8.04386C33.9945 8.07832 33.8735 8.13831 33.7679 8.22029C33.6622 8.30228 33.5741 8.4046 33.5087 8.52121C33.4432 8.63783 33.4018 8.76637 33.3869 8.89925H32.5625C32.5767 8.65804 32.6403 8.42233 32.7496 8.2068C32.8588 7.99127 33.0112 7.80054 33.1974 7.64647C33.3835 7.4924 33.5994 7.3783 33.8315 7.31128C34.0637 7.24425 34.3071 7.22573 34.5467 7.25687C35.6524 7.25687 36.4309 7.87586 36.4309 8.7669C36.4335 9.0654 36.3336 9.35576 36.1479 9.58952C35.9623 9.82327 35.702 9.98627 35.4107 10.0513V10.1175C35.7561 10.1328 36.0814 10.2842 36.3154 10.5387C36.5495 10.7932 36.6733 11.1299 36.6597 11.4754C36.6342 11.7238 36.5593 11.9645 36.4395 12.1835C36.3196 12.4026 36.1573 12.5955 35.962 12.751C35.7666 12.9065 35.5422 13.0214 35.3019 13.0891C35.0616 13.1567 34.8102 13.1757 34.5624 13.1449C34.3141 13.1787 34.0616 13.1623 33.8198 13.0964C33.578 13.0306 33.352 12.9167 33.1551 12.7617C32.9583 12.6066 32.7947 12.4135 32.6741 12.1938C32.5535 11.9742 32.4783 11.7325 32.4531 11.4832H33.2904C33.3409 12.0204 33.8345 12.3669 34.5624 12.3669C35.2903 12.3669 35.7655 11.9777 35.7655 11.429C35.7655 10.8725 35.3179 10.5297 34.5357 10.5297H33.761V9.7673Z" fill="white"/>
<path d="M37.6133 11.8106C37.6133 11.0478 38.1822 10.608 39.1895 10.5455L40.3374 10.4793V10.1135C40.3374 9.66596 40.0424 9.41322 39.4698 9.41322C39.0029 9.41322 38.6803 9.58463 38.5866 9.88424H37.7769C37.8623 9.15634 38.548 8.68945 39.5093 8.68945C40.5718 8.68945 41.171 9.21837 41.171 10.1135V13.0091H40.365V12.4135H40.2988C40.1645 12.6272 39.9759 12.8013 39.7523 12.9182C39.5286 13.0351 39.278 13.0906 39.0259 13.0789C38.848 13.0974 38.6682 13.0784 38.4981 13.0232C38.3279 12.9679 38.1713 12.8777 38.0382 12.7582C37.9051 12.6387 37.7985 12.4926 37.7253 12.3294C37.6522 12.1662 37.614 11.9895 37.6133 11.8106ZM40.3374 11.4485V11.0942L39.3025 11.1604C38.7189 11.1994 38.4542 11.3979 38.4542 11.7715C38.4542 12.153 38.785 12.3749 39.24 12.3749C39.3733 12.3884 39.508 12.375 39.636 12.3353C39.764 12.2957 39.8827 12.2308 39.9851 12.1443C40.0875 12.0579 40.1715 11.9518 40.232 11.8322C40.2925 11.7127 40.3283 11.5822 40.3374 11.4485Z" fill="white"/>
<path d="M43.391 9.47549V13.0093H42.5547V8.77148H45.345V9.47545L43.391 9.47549Z" fill="white"/>
<path d="M50.4145 10.888C50.4145 12.2344 49.7335 13.0786 48.6637 13.0786C48.4011 13.0965 48.1388 13.0391 47.9078 12.913C47.6767 12.7869 47.4865 12.5974 47.3596 12.3668H47.2934V14.4177H46.457V8.77093H47.2621V9.47128H47.3246C47.4539 9.23265 47.6466 9.03439 47.8814 8.8984C48.1163 8.7624 48.3841 8.69396 48.6554 8.70064C49.7335 8.70061 50.4145 9.5411 50.4145 10.888ZM49.5543 10.888C49.5543 9.99283 49.1306 9.45195 48.422 9.45195C47.718 9.45195 47.2778 10.0043 47.2778 10.8917C47.2778 11.7749 47.718 12.3277 48.4183 12.3277C49.1306 12.3277 49.5543 11.7868 49.5543 10.888Z" fill="white"/>
<path d="M51.5297 14.5272V13.8071C51.6202 13.8186 51.7114 13.8238 51.8026 13.8227C51.9808 13.8359 52.1576 13.7828 52.299 13.6737C52.4405 13.5645 52.5367 13.407 52.5691 13.2313L52.6316 13.0249L51.0977 8.77148H52.0085L53.0709 12.1376H53.1371L54.1959 8.77148H55.0828L53.5029 13.1844C53.1408 14.2156 52.7401 14.5465 51.8762 14.5465C51.8063 14.5465 51.6078 14.5386 51.5297 14.5272Z" fill="white"/>
<path d="M55.7344 11.8067H56.5671C56.6488 12.1803 56.999 12.3751 57.4889 12.3751C58.0458 12.3751 58.3877 12.1297 58.3877 11.7483C58.3877 11.3398 58.0808 11.145 57.4889 11.145H56.8547V10.4952H57.4779C57.9833 10.4952 58.2407 10.3008 58.2407 9.94651C58.2407 9.6354 57.9916 9.39784 57.4779 9.39784C57.01 9.39784 56.6682 9.59636 56.6139 9.9309H55.8079C55.8682 9.54649 56.0769 9.20108 56.3892 8.96896C56.7015 8.73685 57.0924 8.63657 57.4779 8.68969C58.4851 8.68969 59.0614 9.1451 59.0614 9.86105C59.0661 10.0604 59.0022 10.2554 58.8804 10.4133C58.7587 10.5712 58.5863 10.6825 58.3923 10.7287V10.7948C58.6233 10.8246 58.8353 10.9382 58.9882 11.1139C59.141 11.2897 59.2239 11.5155 59.2213 11.7484C59.2213 12.554 58.5357 13.087 57.4889 13.087C56.5634 13.087 55.8116 12.6628 55.7344 11.8067Z" fill="white"/>
<path d="M60.4258 13.0093V8.77148H61.2548V11.6863H61.321L63.274 8.77149H64.103V13.0093H63.274V10.0789H63.2115L61.2548 13.0093L60.4258 13.0093Z" fill="white"/>
<path d="M68.6704 9.47545H67.3359V13.0093H66.4986V9.47545H65.1641V8.77148H68.6704V9.47545Z" fill="white"/>
<path d="M73.1801 11.8649C73.0661 12.2522 72.8197 12.5872 72.4839 12.8112C72.1481 13.0353 71.7443 13.1343 71.3429 13.091C71.0637 13.0983 70.7862 13.0448 70.5298 12.9342C70.2733 12.8236 70.044 12.6585 69.8577 12.4504C69.6715 12.2423 69.5327 11.9961 69.4511 11.729C69.3696 11.4619 69.3471 11.1802 69.3853 10.9036C69.3481 10.626 69.371 10.3438 69.4524 10.0759C69.5338 9.80794 69.6718 9.56064 69.857 9.3507C70.0423 9.14076 70.2705 8.97308 70.5263 8.85901C70.782 8.74494 71.0592 8.68714 71.3392 8.68952C72.5184 8.68952 73.2307 9.49513 73.2307 10.8259V11.1177H70.2382V11.1646C70.2249 11.3201 70.2444 11.4767 70.2952 11.6243C70.3461 11.7719 70.4273 11.9072 70.5336 12.0216C70.6399 12.1359 70.7689 12.2268 70.9124 12.2882C71.0559 12.3497 71.2107 12.3805 71.3668 12.3786C71.5667 12.4026 71.7692 12.3665 71.9486 12.275C72.128 12.1835 72.2761 12.0408 72.3741 11.8649L73.1801 11.8649ZM70.2381 10.4992H72.3777C72.3883 10.357 72.369 10.2142 72.3211 10.08C72.2732 9.94569 72.1978 9.82293 72.0997 9.71955C72.0015 9.61616 71.8828 9.53445 71.7512 9.47965C71.6196 9.42486 71.478 9.39818 71.3355 9.40136C71.1908 9.39939 71.0472 9.42644 70.9131 9.48092C70.7791 9.5354 70.6573 9.6162 70.555 9.71854C70.4527 9.82089 70.372 9.9427 70.3176 10.0768C70.2631 10.2109 70.2361 10.3545 70.2382 10.4992H70.2381Z" fill="white"/>
<path d="M76.7266 8.77148H78.6373C79.4663 8.77148 79.9525 9.1915 79.9525 9.84907C79.9538 10.0577 79.8834 10.2605 79.7531 10.4235C79.6227 10.5864 79.4404 10.6997 79.2365 10.7442V10.8104C79.484 10.8261 79.7161 10.9362 79.8847 11.118C80.0534 11.2998 80.1457 11.5394 80.1428 11.7874C80.1428 12.5268 79.5867 13.0093 78.6566 13.0093H76.7266V8.77148ZM77.5556 9.41346V10.5108H78.3846C78.8901 10.5108 79.1318 10.3164 79.1318 9.95799C79.1318 9.62759 78.9213 9.41345 78.4774 9.41345L77.5556 9.41346ZM77.5556 11.1257V12.3674H78.5473C79.0417 12.3674 79.3064 12.1491 79.3064 11.7484C79.3064 11.3242 79.0068 11.1257 78.4425 11.1257L77.5556 11.1257Z" fill="white"/>
</svg>
