<svg width="26" height="26" viewBox="0 0 26 26" fill="none" xmlns="http://www.w3.org/2000/svg">
<path d="M11.7615 11.3441V9.99229C11.7615 9.98728 11.7615 9.9817 11.7615 9.97556C11.7605 9.6789 11.7549 8.09071 13.7467 8.09082H15.182V9.81164H14.1264C13.9176 9.81164 13.7063 10.0389 13.7063 10.2078V11.338H15.18C15.1209 12.2046 14.9992 12.9972 14.9992 12.9972H13.699V17.909H11.7615V12.997H10.8184V11.3441H11.7615Z" fill="#808792"/>
<path fill-rule="evenodd" clip-rule="evenodd" d="M13 0.5C6.09644 0.5 0.5 6.09644 0.5 13C0.5 19.9036 6.09644 25.5 13 25.5C19.9036 25.5 25.5 19.9036 25.5 13C25.5 6.09644 19.9036 0.5 13 0.5ZM1.5 13C1.5 6.64873 6.64873 1.5 13 1.5C19.3513 1.5 24.5 6.64873 24.5 13C24.5 19.3513 19.3513 24.5 13 24.5C6.64873 24.5 1.5 19.3513 1.5 13Z" fill="#808792"/>
</svg>
