<svg width="6" height="10" viewBox="0 0 6 10" fill="none" xmlns="http://www.w3.org/2000/svg">
<path fill-rule="evenodd" clip-rule="evenodd" d="M1.76349 1.99229C1.76349 2.23971 1.76349 3.34406 1.76349 3.34406H0.820312V4.99701H1.76349V9.909H3.70097V4.99715H5.00112C5.00112 4.99715 5.12288 4.20457 5.18191 3.33797C5.01268 3.33797 3.7083 3.33797 3.7083 3.33797C3.7083 3.33797 3.7083 2.37633 3.7083 2.20778C3.7083 2.03886 3.91955 1.81164 4.12833 1.81164C4.33673 1.81164 4.77657 1.81164 5.18395 1.81164C5.18395 1.58658 5.18395 0.808982 5.18395 0.0908203C4.64011 0.0908203 4.0214 0.0908203 3.74867 0.0908203C1.7156 0.0907062 1.76349 1.7453 1.76349 1.99229Z" fill="white"/>
</svg>
