<svg width="124" height="36" viewBox="0 0 124 36" fill="none" xmlns="http://www.w3.org/2000/svg">
<rect width="124" height="36" rx="4" fill="#0063DA"/>
<path d="M62.278 19.2415C60.0533 19.2415 58.292 20.897 58.292 23.1962C58.292 25.4035 60.0533 27.1509 62.278 27.1509C64.5027 27.1509 66.2639 25.4955 66.2639 23.1962C66.2639 20.805 64.5027 19.2415 62.278 19.2415ZM62.278 25.4955C61.0729 25.4955 60.0533 24.4838 60.0533 23.1043C60.0533 21.7247 61.0729 20.713 62.278 20.713C63.483 20.713 64.5027 21.6327 64.5027 23.1043C64.5027 24.4838 63.483 25.4955 62.278 25.4955ZM53.6572 19.2415C51.4325 19.2415 49.6713 20.897 49.6713 23.1962C49.6713 25.4035 51.4325 27.1509 53.6572 27.1509C55.8819 27.1509 57.6432 25.4955 57.6432 23.1962C57.6432 20.805 55.8819 19.2415 53.6572 19.2415ZM53.6572 25.4955C52.4522 25.4955 51.4325 24.4838 51.4325 23.1043C51.4325 21.7247 52.4522 20.713 53.6572 20.713C54.8623 20.713 55.8819 21.6327 55.8819 23.1043C55.8819 24.4838 54.8623 25.4955 53.6572 25.4955ZM43.368 20.4371V22.0926H47.3539C47.2612 23.0123 46.8904 23.748 46.4269 24.2079C45.8707 24.7597 44.9438 25.4035 43.368 25.4035C40.8652 25.4035 39.0112 23.4721 39.0112 20.9889C39.0112 18.5058 40.9579 16.5744 43.368 16.5744C44.6657 16.5744 45.6854 17.1262 46.4269 17.77L47.632 16.5744C46.6123 15.6547 45.3146 14.9189 43.4606 14.9189C40.1236 14.9189 37.25 17.678 37.25 20.9889C37.25 24.2999 40.1236 27.0589 43.4606 27.0589C45.3146 27.0589 46.6123 26.5071 47.7247 25.3115C48.837 24.2079 49.2078 22.6444 49.2078 21.4488C49.2078 21.0809 49.2078 20.713 49.1151 20.4371H43.368ZM85.452 21.7247C85.0812 20.805 84.1543 19.2415 82.115 19.2415C80.0756 19.2415 78.4071 20.805 78.4071 23.1962C78.4071 25.4035 80.0756 27.1509 82.3004 27.1509C84.0616 27.1509 85.1739 26.0473 85.5447 25.4035L84.247 24.4838C83.7835 25.1276 83.2273 25.5874 82.3004 25.5874C81.3734 25.5874 80.8172 25.2196 80.3537 24.3918L85.6374 22.1846L85.452 21.7247ZM80.0757 23.0123C80.0757 21.5408 81.2807 20.713 82.115 20.713C82.7638 20.713 83.4127 21.0809 83.5981 21.5408L80.0757 23.0123ZM75.7189 26.783H77.4802V15.2868H75.7189V26.783ZM72.938 20.0693C72.4746 19.6094 71.733 19.1496 70.806 19.1496C68.8594 19.1496 67.0055 20.897 67.0055 23.1043C67.0055 25.3115 68.7667 26.967 70.806 26.967C71.733 26.967 72.4746 26.5071 72.8453 26.0473H72.938V26.5991C72.938 28.0706 72.1038 28.8983 70.806 28.8983C69.7864 28.8983 69.0448 28.1626 68.8594 27.5188L67.3763 28.1626C67.8397 29.1743 68.9521 30.4618 70.8987 30.4618C72.938 30.4618 74.6066 29.2662 74.6066 26.4152V19.4255H72.938V20.0693ZM70.8987 25.4955C69.6937 25.4955 68.674 24.4838 68.674 23.1043C68.674 21.7247 69.6937 20.713 70.8987 20.713C72.1038 20.713 73.0307 21.7247 73.0307 23.1043C73.0307 24.4838 72.1038 25.4955 70.8987 25.4955ZM93.5166 15.2868H89.3453V26.783H91.1065V22.4605H93.5166C95.4632 22.4605 97.3171 21.0809 97.3171 18.8736C97.3171 16.6664 95.4632 15.2868 93.5166 15.2868ZM93.6093 20.805H91.1065V16.8503H93.6093C94.907 16.8503 95.6486 17.9539 95.6486 18.7817C95.5559 19.7933 94.8143 20.805 93.6093 20.805ZM104.269 19.1496C102.972 19.1496 101.674 19.7014 101.21 20.897L102.786 21.5408C103.157 20.897 103.713 20.713 104.362 20.713C105.289 20.713 106.123 21.2649 106.216 22.1846V22.2765C105.938 22.0926 105.196 21.8167 104.455 21.8167C102.786 21.8167 101.118 22.7364 101.118 24.3918C101.118 25.9553 102.508 26.967 103.991 26.967C105.196 26.967 105.753 26.4152 106.216 25.8633H106.309V26.783H107.977V22.3685C107.792 20.3452 106.216 19.1496 104.269 19.1496ZM104.084 25.4955C103.528 25.4955 102.694 25.2196 102.694 24.4838C102.694 23.5641 103.713 23.2882 104.547 23.2882C105.289 23.2882 105.66 23.4721 106.123 23.6561C105.938 24.7597 105.011 25.4955 104.084 25.4955ZM113.817 19.4255L111.87 24.3918H111.778L109.738 19.4255H107.885L110.943 26.4152L109.182 30.2779H110.943L115.671 19.4255H113.817ZM98.2441 26.783H100.005V15.2868H98.2441V26.783Z" fill="white"/>
<path d="M8.79161 6.08984C8.51352 6.36575 8.32812 6.8256 8.32812 7.37742V27.7027C8.32812 28.2545 8.51352 28.7144 8.79161 28.9903L8.8843 29.0823L20.3786 17.678V17.5861V17.4941L8.79161 6.08984Z" fill="url(#paint0_linear)"/>
<path d="M24.1794 21.5411L20.3789 17.7703V17.5864V17.4944L24.1794 13.7236L24.2721 13.8156L28.8143 16.3908C30.112 17.1265 30.112 18.3221 28.8143 19.0579L24.1794 21.5411Z" fill="url(#paint1_linear)"/>
<path d="M24.2693 21.4487L20.3761 17.5859L8.78906 29.0822C9.25254 29.542 9.90142 29.542 10.7357 29.1741L24.2693 21.4487Z" fill="url(#paint2_linear)"/>
<path d="M24.2693 13.7239L10.7357 6.09041C9.90142 5.63056 9.25254 5.72254 8.78906 6.18238L20.3761 17.5866L24.2693 13.7239Z" fill="url(#paint3_linear)"/>
<path d="M38.1762 12.3446H37.5273V10.5053H38.0835C38.547 10.1374 38.8251 9.40162 38.8251 8.38995V5.63086H42.5329V10.5053H43.1818V12.3446H42.5329V11.149H38.2689V12.3446H38.1762ZM39.474 8.38995C39.474 9.21768 39.2886 9.95344 38.9178 10.5053H41.6987V6.36662H39.3813V8.38995H39.474Z" fill="white" stroke="white" stroke-width="0.2" stroke-miterlimit="10"/>
<path d="M48.6512 10.4125C48.095 10.9643 47.4461 11.2402 46.6119 11.2402C45.7776 11.2402 45.1287 10.9643 44.5725 10.4125C44.0164 9.86066 43.7383 9.21688 43.7383 8.38915C43.7383 7.56142 44.0164 6.91763 44.5725 6.36581C45.1287 5.81399 45.7776 5.53809 46.6119 5.53809C47.4461 5.53809 48.095 5.81399 48.6512 6.36581C49.2074 6.91763 49.4855 7.56142 49.4855 8.38915C49.4855 9.21688 49.2074 9.86066 48.6512 10.4125ZM45.1287 9.95263C45.4995 10.3205 46.0557 10.5964 46.6119 10.5964C47.168 10.5964 47.7242 10.4125 48.095 9.95263C48.4658 9.58475 48.7439 9.03294 48.7439 8.38915C48.7439 7.74536 48.5585 7.19354 48.095 6.82566C47.7242 6.45778 47.168 6.18187 46.6119 6.18187C46.0557 6.18187 45.4995 6.36581 45.1287 6.82566C44.7579 7.19354 44.4799 7.74536 44.4799 8.38915C44.4799 9.03294 44.6652 9.58475 45.1287 9.95263Z" fill="white" stroke="white" stroke-width="0.2" stroke-miterlimit="10"/>
<path d="M53.1001 11.2402C52.2659 11.2402 51.617 10.9643 51.0608 10.4125C50.5047 9.86066 50.2266 9.21688 50.2266 8.38915C50.2266 7.56142 50.5047 6.91763 51.0608 6.36581C51.617 5.81399 52.2659 5.53809 53.1001 5.53809C53.9344 5.53809 54.5833 5.814 55.1395 6.45778L54.676 6.91763C54.3052 6.45778 53.749 6.18187 53.1001 6.18187C52.4513 6.18187 51.9878 6.36581 51.5243 6.82566C51.0608 7.19354 50.8754 7.74536 50.8754 8.38915C50.8754 9.03294 51.0608 9.58475 51.5243 9.95263C51.8951 10.3205 52.4513 10.5964 53.1001 10.5964C53.749 10.5964 54.3052 10.3205 54.7687 9.76869L55.2322 10.2285C54.9541 10.5045 54.676 10.7804 54.3052 10.9643C53.9344 11.1482 53.5636 11.2402 53.1001 11.2402Z" fill="white" stroke="white" stroke-width="0.2" stroke-miterlimit="10"/>
<path d="M58.2002 11.1481H57.4587V6.27367H55.8828V5.62988H59.6834V6.27367H58.1075V11.1481H58.2002Z" fill="white" stroke="white" stroke-width="0.2" stroke-miterlimit="10"/>
<path d="M64.5939 5.62988L62.4619 10.3203C62.1838 10.9641 61.7204 11.332 61.1642 11.332C60.9788 11.332 60.7934 11.332 60.608 11.24L60.7934 10.5962C60.8861 10.6882 61.0715 10.6882 61.1642 10.6882C61.3496 10.6882 61.4423 10.6882 61.535 10.5962C61.6277 10.5043 61.7204 10.4123 61.8131 10.2284L61.9985 9.76852L60.1445 5.72185H60.9788L62.3692 8.84882L63.667 5.72185H64.5939V5.62988Z" fill="white" stroke="white" stroke-width="0.2" stroke-miterlimit="10"/>
<path d="M65.4297 11.1481V5.62988H69.4156V11.1481H68.674V6.27367H66.0786V11.1481H65.4297Z" fill="white" stroke="white" stroke-width="0.2" stroke-miterlimit="10"/>
<path d="M70.7109 11.1481V5.62988H71.4525V8.0211H74.2334V5.62988H74.975V11.1481H74.2334V8.66488H71.4525V11.1481H70.7109Z" fill="white" stroke="white" stroke-width="0.2" stroke-miterlimit="10"/>
<path d="M80.8152 10.4125C80.2591 10.9643 79.6102 11.2402 78.7759 11.2402C77.9417 11.2402 77.2928 10.9643 76.7366 10.4125C76.1804 9.86066 75.9023 9.21688 75.9023 8.38915C75.9023 7.56142 76.1804 6.91763 76.7366 6.36581C77.2928 5.81399 77.9417 5.53809 78.7759 5.53809C79.6102 5.53809 80.2591 5.81399 80.8152 6.36581C81.3714 6.91763 81.6495 7.56142 81.6495 8.38915C81.5568 9.21688 81.2787 9.86066 80.8152 10.4125ZM77.2001 9.95263C77.5709 10.3205 78.127 10.5964 78.6832 10.5964C79.2394 10.5964 79.7956 10.4125 80.1664 9.95263C80.5371 9.58475 80.8152 9.03294 80.8152 8.38915C80.8152 7.74536 80.6298 7.19354 80.1664 6.82566C79.7956 6.45778 79.2394 6.18187 78.6832 6.18187C78.127 6.18187 77.5709 6.36581 77.2001 6.82566C76.8293 7.19354 76.5512 7.74536 76.5512 8.38915C76.5512 9.03294 76.8293 9.58475 77.2001 9.95263Z" fill="white" stroke="white" stroke-width="0.2" stroke-miterlimit="10"/>
<path d="M84.5234 11.1481V5.62988H86.5628C87.0262 5.62988 87.397 5.81382 87.6751 6.08973C87.9532 6.36564 88.1386 6.73352 88.1386 7.19337C88.1386 7.46928 88.0459 7.65322 87.9532 7.92913C87.8605 8.11307 87.6751 8.297 87.397 8.38897C87.6751 8.48094 87.8605 8.66488 88.0459 8.84882C88.2313 9.03276 88.324 9.30867 88.324 9.67655C88.324 10.1364 88.1386 10.5043 87.8605 10.7802C87.4897 11.0561 87.1189 11.24 86.6554 11.24H84.5234V11.1481ZM85.265 8.0211H86.5628C86.8408 8.0211 87.0262 7.92912 87.2116 7.74519C87.397 7.56125 87.4897 7.37731 87.4897 7.19337C87.4897 7.00943 87.397 6.82549 87.2116 6.64155C87.0262 6.45761 86.8408 6.36564 86.5628 6.36564H85.265V8.0211ZM85.265 10.5043H86.7481C87.0262 10.5043 87.2116 10.4123 87.397 10.2284C87.5824 10.0444 87.6751 9.86049 87.6751 9.58458C87.6751 9.40064 87.5824 9.12473 87.397 8.94079C87.2116 8.75685 87.0262 8.66488 86.7481 8.66488H85.3577V10.5043H85.265Z" fill="white" stroke="white" stroke-width="0.2" stroke-miterlimit="10"/>
<defs>
<linearGradient id="paint0_linear" x1="19.3587" y1="7.2024" x2="3.92445" y2="22.7586" gradientUnits="userSpaceOnUse">
<stop stop-color="#00A0FF"/>
<stop offset="0.00657445" stop-color="#00A1FF"/>
<stop offset="0.2601" stop-color="#00BEFF"/>
<stop offset="0.5122" stop-color="#00D2FF"/>
<stop offset="0.7604" stop-color="#00DFFF"/>
<stop offset="1" stop-color="#00E3FF"/>
</linearGradient>
<linearGradient id="paint1_linear" x1="30.5147" y1="17.5876" x2="8.08508" y2="17.5876" gradientUnits="userSpaceOnUse">
<stop stop-color="#FFE000"/>
<stop offset="0.4087" stop-color="#FFBD00"/>
<stop offset="0.7754" stop-color="#FFA500"/>
<stop offset="1" stop-color="#FF9C00"/>
</linearGradient>
<linearGradient id="paint2_linear" x1="22.1623" y1="19.6977" x2="1.23225" y2="40.7931" gradientUnits="userSpaceOnUse">
<stop stop-color="#FF3A44"/>
<stop offset="1" stop-color="#C31162"/>
</linearGradient>
<linearGradient id="paint3_linear" x1="5.91298" y1="-0.645266" x2="15.2592" y2="8.77469" gradientUnits="userSpaceOnUse">
<stop stop-color="#32A071"/>
<stop offset="0.0685" stop-color="#2DA771"/>
<stop offset="0.4762" stop-color="#15CF74"/>
<stop offset="0.8009" stop-color="#06E775"/>
<stop offset="1" stop-color="#00F076"/>
</linearGradient>
</defs>
</svg>
