<svg width="26" height="26" viewBox="0 0 26 26" fill="none" xmlns="http://www.w3.org/2000/svg">
<path fill-rule="evenodd" clip-rule="evenodd" d="M13.0004 9.89636C14.7117 9.89636 16.104 11.2886 16.104 13C16.104 14.7113 14.7117 16.1036 13.0004 16.1036C11.289 16.1036 9.89675 14.7113 9.89675 13C9.89675 11.2886 11.289 9.89636 13.0004 9.89636ZM13.0004 14.8964C14.0478 14.8964 14.8968 14.0474 14.8968 13C14.8968 11.9526 14.0477 11.1036 13.0004 11.1036C11.953 11.1036 11.1039 11.9526 11.1039 13C11.1039 14.0473 11.953 14.8964 13.0004 14.8964Z" fill="#808792"/>
<path d="M9.14689 9.91972C9.14689 10.3304 9.47985 10.6634 9.89058 10.6634C10.3013 10.6634 10.6343 10.3304 10.6343 9.91972C10.6343 9.50899 10.3013 9.17603 9.89058 9.17603C9.47985 9.17603 9.14689 9.50899 9.14689 9.91972Z" fill="#808792"/>
<path fill-rule="evenodd" clip-rule="evenodd" d="M19 10.5749C19 8.60368 17.3963 7 15.4251 7H10.5749C8.6037 7 7.00002 8.60368 7 10.5749V15.4251C7 17.3963 8.60368 19 10.5749 19H15.4251C17.3963 19 19 17.3963 19 15.4251V10.5749ZM10.5749 17.7928C9.26725 17.7928 8.2072 16.7327 8.2072 15.4251V10.5749C8.2072 9.26723 9.26725 8.2072 10.5749 8.2072H15.4251C16.7327 8.2072 17.7928 9.26723 17.7928 10.5749V15.4251C17.7928 16.7327 16.7327 17.7928 15.4251 17.7928H10.5749Z" fill="#808792"/>
<path fill-rule="evenodd" clip-rule="evenodd" d="M13 0.5C6.09644 0.5 0.5 6.09644 0.5 13C0.5 19.9036 6.09644 25.5 13 25.5C19.9036 25.5 25.5 19.9036 25.5 13C25.5 6.09644 19.9036 0.5 13 0.5ZM1.5 13C1.5 6.64873 6.64873 1.5 13 1.5C19.3513 1.5 24.5 6.64873 24.5 13C24.5 19.3513 19.3513 24.5 13 24.5C6.64873 24.5 1.5 19.3513 1.5 13Z" fill="#808792"/>
</svg>
