<svg width="359" height="81" viewBox="0 0 359 81" fill="none" xmlns="http://www.w3.org/2000/svg">
<path opacity="0.4" fill-rule="evenodd" clip-rule="evenodd" d="M240.883 81H85.0586C85.3678 67.3645 95.5878 55.1812 107.214 55.1812H107.283C110.666 55.1812 113.911 56.647 116.742 58.3221C121.298 53.855 127.167 51.6913 133.588 51.6913H133.657C133.657 51.6913 133.726 52.0403 133.795 52.0403C135.659 30.4725 151.193 14 170.111 14H170.249C184.678 14 197.175 23.702 203.113 37.9409C203.458 37.9177 203.803 37.8866 204.148 37.8556C204.839 37.7936 205.529 37.7315 206.219 37.7315H206.288C225.068 37.7315 241.016 55.3906 241.016 77.3772V77.5168C241.016 78.6888 240.971 79.8507 240.883 81Z" fill="#1888ED"/>
<path opacity="0.8" fill-rule="evenodd" clip-rule="evenodd" d="M129.626 81H0C1.19502 78.7858 3.39098 77.1076 5.98389 76.6624C6.33497 68.5612 13.2863 62.0127 21.7824 62.0127H21.8527C22.7867 62.0127 23.4109 62.1781 24.1349 62.37C24.4452 62.4522 24.7737 62.5393 25.1528 62.6203C25.1211 62.4068 24.9891 62.2072 24.8539 62.0026C24.6898 61.7543 24.5208 61.4987 24.5208 61.2025V61.135C24.5208 48.8481 35.966 39.1266 48.7453 39.1266H48.8155C50.7113 39.1266 52.6071 39.4641 54.4327 39.8692C59.5585 33.2532 67.8439 29 77.1826 29H77.2528C90.8044 29 102.179 37.9114 104.988 50.1308C105.096 50.1048 105.205 50.0785 105.314 50.0522C106.908 49.667 108.62 49.2532 110.395 49.2532C122.893 49.2532 131.881 59.1097 132.021 70.924V70.9916C132.021 74.5914 131.164 77.9966 129.626 81Z" fill="url(#paint0_linear)"/>
<path opacity="0.7" fill-rule="evenodd" clip-rule="evenodd" d="M359.002 22.2787V81H212.02C212.136 72.2764 218.366 64.6383 226.85 64.6383H226.92C228.058 64.6383 229.247 64.9981 230.311 65.3199C230.484 65.3723 230.654 65.4237 230.82 65.4724C230.82 65.1943 230.837 65.0032 230.854 64.8121C230.872 64.6209 230.889 64.4298 230.889 64.1518V64.0823C230.889 51.2241 240.708 41.7021 253.173 41.7021H253.242C256.794 41.7021 260.206 42.2582 263.2 43.7872C268.005 39.617 274.203 36.8369 280.958 36.8369H281.027C281.027 36.8369 281.097 36.2114 281.166 36.2114C283.186 16.1943 299.55 0 319.397 0H319.536C334.717 0 347.808 9.10497 354.075 22.3106C355.19 22.2411 356.234 22.2411 357.348 22.2411H357.418C357.949 22.2411 358.477 22.2538 359.002 22.2787Z" fill="url(#paint1_linear)"/>
<path opacity="0.4" d="M11.6232 8L16.5319 14.1971L24.0312 15.2186L20.2134 20.1219L23.4859 27L15.782 23.7312L9.85068 27L9.5098 20.1219L3.03308 15.2186L10.0552 14.1971L11.6232 8Z" fill="#1888ED"/>
<defs>
<linearGradient id="paint0_linear" x1="42.9879" y1="184.01" x2="76.4357" y2="14.0844" gradientUnits="userSpaceOnUse">
<stop stop-color="#2F54BF"/>
<stop offset="1" stop-color="#E93667"/>
</linearGradient>
<linearGradient id="paint1_linear" x1="290.779" y1="160.921" x2="312.181" y2="-2.44608" gradientUnits="userSpaceOnUse">
<stop stop-color="#2F54BF"/>
<stop offset="1" stop-color="#E93667"/>
</linearGradient>
</defs>
</svg>
