<?xml version="1.0" encoding="utf-8"?>
<!-- Generator: Adobe Illustrator 22.1.0, SVG Export Plug-In . SVG Version: 6.00 Build 0)  -->
<svg version="1.1" id="Слой_1" xmlns="http://www.w3.org/2000/svg" xmlns:xlink="http://www.w3.org/1999/xlink" x="0px" y="0px"
	 viewBox="0 0 1391 666" style="enable-background:new 0 0 1391 666;" xml:space="preserve">
<style type="text/css">
	.st0{fill:#174EA5;}
	.st1{opacity:0.7;fill:url(#SVGID_1_);}
	.st2{opacity:0.3;fill:#1888ED;}
	.st3{opacity:0.4;fill:#1888ED;}
	.st4{opacity:0.6;}
	.st5{opacity:0.4;}
	.st6{fill:#AF2F7C;}
	.st7{opacity:0.8;fill:url(#SVGID_2_);}
	.st8{opacity:0.3;}
	.st9{fill:#1888ED;}
	.st10{opacity:0.2;fill:#083C87;}
	.st11{fill:#294896;}
	.st12{fill:url(#SVGID_3_);}
	.st13{opacity:0.2;fill:#1D56C0;}
	.st14{fill:#F83461;}
	.st15{fill:#F1EDE1;}
	.st16{fill:#D82A57;}
	.st17{fill:#39D8A8;}
	.st18{fill:#26346D;}
	.st19{fill:#121728;}
	.st20{opacity:0.2;fill:#213D75;}
	.st21{opacity:0.2;fill:#3760BF;}
	.st22{clip-path:url(#SVGID_5_);}
	.st23{opacity:0.6;fill:#F4F4F2;}
	.st24{clip-path:url(#SVGID_7_);}
	.st25{opacity:0.3;fill:#F4F4F2;}
	.st26{fill:#1F4084;}
	.st27{fill:#893D7A;}
	.st28{fill:none;stroke:#000000;stroke-miterlimit:10;}
	.st29{fill:#2C2E38;}
	.st30{fill:#F38040;}
	.st31{fill:#F2A136;}
	.st32{fill:#36C696;}
	.st33{fill:#9B4789;}
	.st34{fill:#212E4F;}
	.st35{fill:#DB8A2A;}
	.st36{fill:none;stroke:url(#SVGID_8_);stroke-miterlimit:10;}
	.st37{opacity:0.8;fill:#F9215A;}
	.st38{fill:#D8D5CE;}
	.st39{fill:#2A3C77;}
	.st40{opacity:0.7;fill:url(#SVGID_9_);}
	.st41{opacity:0.8;fill:url(#SVGID_10_);}
	.st42{opacity:0.4;fill-rule:evenodd;clip-rule:evenodd;fill:#1888ED;}
	.st43{fill:none;stroke:#2A3C77;stroke-miterlimit:10;}
	.st44{fill:none;stroke:#2A3C77;stroke-width:10;stroke-miterlimit:10;}
	.st45{fill:none;stroke:#2A3C77;stroke-width:10;stroke-linecap:round;stroke-miterlimit:10;}
	.st46{opacity:0.7;fill:none;stroke:#2A3C77;stroke-width:10;stroke-miterlimit:10;}
	.st47{opacity:0.5;clip-path:url(#SVGID_12_);}
	.st48{fill:none;stroke:#F2A136;stroke-linecap:round;stroke-linejoin:round;stroke-miterlimit:10;}
</style>
<g>
	<path class="st0" d="M1359.1,631.8c0,5.6-55.8,10.1-124.6,10.1s-124.6-4.5-124.6-10.1c0-5.6,55.8-10.1,124.6-10.1
		S1359.1,626.2,1359.1,631.8z"/>
	<linearGradient id="SVGID_1_" gradientUnits="userSpaceOnUse" x1="879.1038" y1="240.5287" x2="909.9526" y2="5.4956">
		<stop  offset="0" style="stop-color:#2F54BF"/>
		<stop  offset="1" style="stop-color:#E93667"/>
	</linearGradient>
	<path class="st1" d="M974.8,41h-0.1c-1.6,0-3.1,0-4.7,0.1C961,22.2,942.1,9,920.3,9h-0.2c-28.5,0-52,23.3-54.9,52.1
		c-0.1,0-0.2,0.9-0.2,0.9h-0.1c-9.7,0-18.6,4-25.5,10c-4.3-2.2-9.2-3-14.3-3H825c-17.9,0-32,13.7-32,32.2v0.1c0,0.8-0.1,1.1-0.1,1.9
		c-1.7-0.5-3.7-1.2-5.6-1.2h-0.1c-12.3,0-21.3,11.2-21.3,23.9v0.1c0,12.7,9,24,21.3,24h0.1c0.3,0,0.7,0,1,0c0.2,0,0.5,0,0.7,0h85.8
		h10.1h85.8c0.4,0,0.8,0,1.2-0.1c0.9,0,1.7,0.1,2.6,0.1h0.1c28.4,0,51.2-24.9,51.2-54.3v-0.1C1026,66.2,1003.2,41,974.8,41z"/>
	<path class="st2" d="M967.3,107h0.1c1.5,0,3,0.2,4.5,0.3c8.6-20.4,26.7-34.3,47.6-34.3h0.2c27.4,0,49.9,23.6,52.6,54.5
		c0.1,0,0.2-0.5,0.2-0.5h0.1c9.3,0,17.8,3.1,24.4,9.5c4.1-2.4,8.8-4.5,13.7-4.5h0.1c17.1,0,32.1,18,32.1,37.9v0.1
		c0,0.8-0.6,2.3-0.6,3.1c1.7-0.5,2.9-0.1,4.7-0.1h0.1c11.8,0,21.9,9.8,21.9,23.4v0.1c0,13.6-10.2,25.5-21.9,25.5h-0.1
		c-0.3,0-0.6,0-1,0c-0.2,0-0.5,0-0.7,0h-82.3h-9.6h-82.3c-0.4,0-0.8,0-1.2-0.1c-0.8,0-1.7,0.1-2.5,0.1h-0.1
		c-27.2,0-50.3-26.4-50.3-58v-0.2C917,132.3,940.1,107,967.3,107z"/>
	<path class="st2" d="M1032.6,307.9c3.6-7.6,3.7-12.2,7.4-25.5c-5.5-1.8-16.5-6.6-26.4-17.4c-10.1,10.6-15.4,13.4-20.2,20.7
		c-31.4,48.1-96.3,206-91.7,208.6C906.5,497.1,1007.7,359.6,1032.6,307.9z"/>
	<path class="st3" d="M1049.1,268.9c19.2-2.2,33.8-19.2,37.2-51.7c3.4-32.5,21.4-50.5,25.8-51.1c-24.9-1.4-99.6-1.7-92.9,82.6
		C1032.2,265.5,1049.1,268.9,1049.1,268.9z"/>
	<g class="st4">
		<path class="st2" d="M1195.8,324.2h-27.5l-0.3-23.4h-104.9l-11.1,23.4H929.5c-11.7,0-23.4,9.5-26.3,21.5l-36.8,149.5
			c-2.9,12,4.2,21.8,16.1,21.8h271.6c12,0,23.9-9.9,26.5-21.8l31.9-149.5C1215.1,333.7,1207.5,324.2,1195.8,324.2z M1070,501.1
			c-44.7,0-72.5-36.3-62.1-81.1c10.5-44.8,54.6-81.1,98.6-81.1s71.8,36.3,62.1,81.1C1158.9,464.8,1114.7,501.1,1070,501.1z
			 M1074,483.1c-34.8,0-56.5-28.3-48.3-63.2c8.1-34.9,42.5-63.2,76.8-63.2s55.9,28.3,48.3,63.2
			C1143.2,454.8,1108.9,483.1,1074,483.1z"/>
	</g>
	<g class="st5">
		<path class="st2" d="M208.4,323c15.9,0,32.8,11.6,37.7,26.7l24.9,78.1c4.8,15.2-4.2,27.2-20.1,27.2H149.4
			c-15.9,0-32.5-12.6-37-27.8L89.8,350c-4.4-15.3,5-27,20.9-27H208.4z"/>
	</g>
	<path class="st3" d="M249.5,411.7l29.7-0.7l6.9-22.1l-46.9,1.2c-10.5,0.3-7.1,9.3-7.1,9.3l19,63.2c-1.9-0.6-3.9-0.8-6-0.8
		c-10.6,0.3-18.9,9.1-18.7,19.6c0.3,10.6,9.1,18.9,19.6,18.7c10.6-0.3,18.9-9.1,18.7-19.6c-0.1-3.2-0.9-6.2-2.4-8.8l-16.7-53.7
		C243.5,412.1,249.5,411.7,249.5,411.7z"/>
	<path class="st0" d="M457.5,543.9c0,3.5-51.2,6.3-114.3,6.3c-63.1,0-114.3-2.8-114.3-6.3c0-3.5,51.2-6.3,114.3-6.3
		C406.3,537.6,457.5,540.4,457.5,543.9z"/>
	<path class="st0" d="M1142.4,555.8c0,3.1-43.4,5.7-96.9,5.7c-53.5,0-96.9-2.5-96.9-5.7c0-3.1,43.4-5.7,96.9-5.7
		C1099,550.2,1142.4,552.7,1142.4,555.8z"/>
	<polygon class="st6" points="578.7,525 371.3,666 1072.1,666 841.7,525 	"/>
	<linearGradient id="SVGID_2_" gradientUnits="userSpaceOnUse" x1="303.969" y1="259.0528" x2="317.7943" y2="89.6905">
		<stop  offset="0" style="stop-color:#2F54BF"/>
		<stop  offset="1" style="stop-color:#E93667"/>
	</linearGradient>
	<path class="st7" d="M429,223H186.2c0,0-8.1-49.4,42.8-57.5c0,0,1.2-50.7,69.4-46.1c0,0,8.1-32.3,52-32.3
		c43.9,0,48.6,34.7,48.6,34.7s27.9-1.8,32.7,19.1L429,223z"/>
	<path class="st2" d="M621.6,205H350.6c0,0-9-61.1,47.7-71.1c0,0,1.3-62.6,77.4-56.9c0,0,9-39.8,58.1-39.8c49,0,54.2,42.7,54.2,42.7
		s52.3-22.8,66.1,24.8L621.6,205z"/>
	<g class="st8">
		<path class="st9" d="M413.5,517c27.5,0,46.6-22.1,42.5-49.3l-29.4-194.3c-4.1-27.2-30-49.5-57.5-49.5l-92.2-0.2
			c-27.5-0.1-43.4,21.4-35.3,47.6l61.1,198.1c8.1,26.3,37.2,47.6,64.7,47.6H413.5z"/>
	</g>
	<path class="st2" d="M408.8,377.6c10.5,31.2-3.8,64.1-32,73.6c-28.1,9.5-59.5-8.1-70-39.3c-10.5-31.2,3.8-64.1,32-73.6
		C367,328.8,398.3,346.4,408.8,377.6z"/>
	<path class="st10" d="M385,385.6c5.6,16.6-2,34.1-17,39.2c-15,5-31.7-4.3-37.3-20.9c-5.6-16.6,2-34.1,17-39.2
		C362.7,359.6,379.4,369,385,385.6z"/>
	<path class="st2" d="M1090.1,314l32.8-109.2c0,0,5.6-33.3,42.3-36.3c36.7-3,108.1-0.5,108.1-0.5s23,6.9,10.5,44.8l-10.5,32.1
		c0,0-11.4,30-46.6,32.9l-84.3-0.2L1090.1,314z"/>
	<path class="st3" d="M1242.3,218c0.8-4.8-2.4-7.3-7.6-7.3H1213c1.8-4,3.1-7.9,3.7-11.2c2.4-13-0.7-15.7-3.8-15.7
		c-2.1,0-3.5,0.2-5.8,1.5c-0.6,0.3-1,0.9-1.3,1.5l-4.5,12.1c-3.1,5.7-9,10.7-14.2,14.3c-0.4-1.5-1.7-2.5-3.5-2.5h-13.3
		c-2.5,0-4.8,1.9-5.3,4.5l-6.2,31.5c-0.5,2.5,1.1,4.5,3.6,4.5h13.5c2.4,0,4.6-1.7,5.3-4.1c1.1,0.4,2.1,0.9,3.2,1.5
		c2.2,1.2,4.5,2.4,7.3,2.4h28.2c4.5,0,8.4-3.6,9-6.7c0.1-0.6,0.2-1.2,0.1-1.6c3-1,5.2-3.4,5.7-6.1c0.2-1.3,0.1-2.5-0.1-3.4
		c1.8-1.2,4-3.2,4.4-5.5c0.2-1.2-0.1-2.7-0.8-3.8C1240.2,222.2,1241.9,220.1,1242.3,218z"/>
	<path class="st11" d="M993,484c-46,0-512,0-582,0V127.2c0-13.6,12.4-24.2,26.1-24.2h532.8c13.6,0,23.1,10.6,23.1,24.2V484z"/>
	<linearGradient id="SVGID_3_" gradientUnits="userSpaceOnUse" x1="702.5" y1="602.4722" x2="702.5" y2="122.0253">
		<stop  offset="0" style="stop-color:#2F54BF"/>
		<stop  offset="1" style="stop-color:#E93667"/>
	</linearGradient>
	<rect x="438" y="128" class="st12" width="529" height="356"/>
	<polygon class="st13" points="438,128 438,484 601.2,484 668,128 	"/>
	<polygon class="st13" points="967,128 967,484 816.1,484 749.4,128 	"/>
	<g>
		<path class="st14" d="M523.9,230.5h-19.1c-1.9,0.2-3.7-0.4-5.1-1.7c-1.2-1.5-1.8-3.4-1.6-5.4v-51.1c0-4.9,1.8-7.4,5.6-7.4
			c3.7,0,5.5,2.5,5.5,7.6V220h14c5,0,7.4,1.7,7.4,5.3C530.6,228.8,528.4,230.6,523.9,230.5L523.9,230.5z"/>
		<path class="st14" d="M547.6,231.2c-3.7,0-5.5-2.4-5.5-7.3v-51.5c0-4.9,1.8-7.4,5.5-7.4c3.7,0,5.5,2.5,5.5,7.4v51.4
			C553.2,228.7,551.4,231.1,547.6,231.2L547.6,231.2z"/>
		<path class="st14" d="M616.4,231.4c-2.6-0.1-5-1.5-6.3-3.8l-29.7-42.2V224c0,4.7-1.9,7.1-5.6,7.1c-3.7,0-5.5-2.4-5.5-7.2v-51.9
			c0-4.7,1.7-7.1,5-7.1c2.5,0.1,4.8,1.5,6.1,3.7l30.1,42v-38.3c0-4.9,1.8-7.4,5.5-7.4c3.6,0,5.6,2.5,5.6,7.4v52.5
			c0,4.4-1.7,6.6-5,6.6H616.4z"/>
		<path class="st14" d="M678.9,231.3c-1.7,0-3.7-1.2-5.9-3.4l-25.5-27.4v23.7c0,4.8-1.9,7.2-5.6,7.2c-3.7,0-5.5-2.4-5.5-7.2v-51.7
			c0-4.9,1.8-7.4,5.5-7.4c3.6,0,5.6,2.4,5.6,7.3v18.9l23.2-22.8c2.3-2.2,4.2-3.4,5.6-3.4c1.4-0.1,2.8,0.5,3.7,1.5
			c1,1,1.5,2.4,1.5,3.8c0,1.5-1.2,3.4-3.6,5.8l-20.3,19.5l24.1,25.3c1.5,1.4,2.4,3.2,2.5,5.3c0,1.4-0.6,2.8-1.6,3.7
			C681.6,230.9,680.3,231.4,678.9,231.3L678.9,231.3z"/>
		<path class="st14" d="M819.2,165.5h-0.1c-0.3-0.1-0.6-0.2-0.9-0.3c-0.5-0.1-0.9-0.1-1.4-0.1c-1.6-0.1-3.2,0.6-4.1,2
			c-1,1.6-1.4,3.5-1.3,5.3v31.7c0.1,3.4-0.5,6.7-1.7,9.9c0,0.1-0.1,0.3-0.2,0.4c-0.3,0.6-0.6,1.1-1,1.6c-0.3,0.4-0.6,0.8-0.9,1.1
			l-0.7,0.7c-0.4,0.4-0.9,0.7-1.3,1c-0.3,0.2-0.6,0.3-0.9,0.5c-0.5,0.2-1,0.4-1.4,0.6c-0.4,0.1-0.9,0.3-1.4,0.4
			c-0.5,0.1-1,0.2-1.5,0.2c-0.6,0-1.2,0.1-1.8,0.1h-0.7c-1.2,0-2.5-0.1-3.7-0.3c-4.7-0.9-8.4-4.6-9.2-9.4c-0.5-2.3-0.7-4.5-0.7-6.9
			v-31.7c0-3.6-1-5.8-3.1-6.8c-0.8-0.3-1.6-0.5-2.5-0.5c-3.7,0-5.5,2.4-5.5,7.3v32.5c-0.2,5.2,1,10.4,3.5,14.9l0.3,0.6
			c0.1,0.1,0.2,0.3,0.2,0.4c0.8,1.2,1.7,2.4,2.7,3.4c4.6,4.7,9.8,7,17.8,7c8,0,13.3-2.3,17.8-6.9c4.5-4.6,6.8-11.1,6.8-19.4v-32.5
			C822.4,168.6,821.3,166.3,819.2,165.5L819.2,165.5z"/>
		<path class="st14" d="M866.9,225.9c-4.5,3.6-10.1,5.5-15.9,5.2c-3.9,0-7.7-0.6-11.4-1.8c-5-1.7-7.6-4.2-7.6-7.3
			c0-1.4,0.5-2.7,1.5-3.7c1-1,2.3-1.4,3.7-1.3c1.4,0.2,2.7,0.7,4,1.3l4.3,1.7c2.2,0.7,4.5,1.1,6.9,1.1c2.5,0,4.9-1,6.7-2.8
			c1.8-1.7,2.8-4.2,2.8-6.7c0-3.8-2.5-6.7-7.6-8.9l-14-5.9c-4.8-2.7-7.7-8-7.5-13.7c-0.2-5.3,2.2-10.3,6.3-13.5
			c4.1-3.1,9.2-4.7,14.3-4.5c5.8,0,10.3,1.3,13.4,3.7c1.6,1,2.5,2.8,2.6,4.7c0.1,1.3-0.4,2.6-1.4,3.4c-1,0.9-2.3,1.4-3.6,1.3
			c-1.9-0.2-3.7-0.8-5.4-1.6c-1.9-0.9-4-1.4-6.2-1.6c-2.2-0.1-4.3,0.6-6.1,2c-1.6,1.4-2.5,3.5-2.4,5.7c-0.1,1.9,0.9,3.7,2.4,4.6
			c2.2,1.3,4.5,2.3,6.8,3.2c4.8,1.7,9.3,3.9,13.6,6.6c4.1,3.1,6.5,8.2,6.2,13.4C873.7,216.4,871.3,222.1,866.9,225.9L866.9,225.9z"
			/>
		<path class="st14" d="M915.9,230.5H892c-4.8,0-6.7-1.7-6.7-6.7v-50.7c0-5,2.2-7.5,6.6-7.5h24.1c4.5,0,6.8,1.8,6.8,5.3
			c0,3.5-2.2,5.3-6.8,5.3h-19.5v15.6h18.2c4.6,0,6.8,1.7,6.8,5.1c0,3.4-2.3,5.1-6.8,5.1h-18.3V220h19.8c4.5,0,6.8,1.7,6.8,5.4
			C922.9,229.2,920.6,230.6,915.9,230.5L915.9,230.5z"/>
		<path class="st14" d="M758.6,171c0-0.1,0-0.2,0-0.3c0-0.1,0-0.2,0-0.3c0-0.1,0-0.2,0-0.2c0-0.1,0-0.3-0.1-0.4v-0.2l-0.1-0.4
			c0,0,0-0.1,0-0.2l-0.2-0.4v-0.2c0-0.1-0.1-0.2-0.2-0.3l-0.1-0.2l-0.2-0.3l-0.1-0.2l-0.2-0.2l-0.5-0.3c-0.1-0.1-0.1-0.2-0.2-0.2
			l-0.2-0.2l-0.3-0.2l-0.2-0.1c-0.1-0.1-0.2-0.2-0.4-0.2h-0.1l-0.4-0.2H755l-0.4-0.2h-0.2l-0.4-0.1H751l-0.3,0.1h-0.2l-0.3,0.2
			l-0.2,0.1l-0.3,0.2l-0.2,0.2l-0.2,0.2l-0.3,0.2l-0.2,0.2l-0.2,0.3l-0.2,0.2l-0.2,0.3c-0.1,0.1-0.1,0.1-0.2,0.2
			c-0.1,0.1-0.1,0.2-0.2,0.2l-0.2,0.3c0,0.1,0,0.1,0,0.2l-21.1,43.8l-21.1-43.8c0-0.1,0-0.1,0-0.2c0-0.1-0.1-0.2-0.2-0.3
			c-0.1-0.1-0.1-0.2-0.2-0.2c-0.1-0.1-0.1-0.2-0.2-0.2l-0.2-0.3l-0.2-0.2l-0.3-0.2l-0.2-0.2l-0.3-0.2l-0.2-0.2l-0.2-0.2l-0.3-0.2
			l-0.2-0.1l-0.3-0.2h-0.2l-0.3-0.1h-2.6c-0.1,0-0.2,0-0.3,0H699l-0.4,0.1h-0.1l-0.4,0.2h-0.1l-0.4,0.2l-0.4,0.2l-0.2,0.1l-0.3,0.2
			l-0.2,0.2l-0.2,0.2c-0.1,0.1-0.1,0.1-0.2,0.2l-0.2,0.2l-0.2,0.2l-0.2,0.3c-0.1,0.1-0.1,0.1-0.1,0.2c-0.1,0.1-0.1,0.2-0.2,0.3v0.2
			l-0.1,0.4c0,0,0,0.1,0,0.2l-0.1,0.4v0.2c0,0.1,0,0.3,0,0.4c0,0.1,0,0.2,0,0.2c0,0.1,0,0.2,0,0.3c0,0.1,0,0.2,0,0.3v53.8
			c0.2,3.2,2.8,5.8,5.9,5.8c3.2,0,5.8-2.5,5.9-5.8V194l15,33.2c1,1.8,2.9,3,5,3h0.4c2.1,0,4-1.2,5-3l15-33.2v30.8
			c0,3.4,2.7,6.1,5.9,6.1c3.3,0,5.9-2.7,5.9-6.1v-53.6c0,0,0-0.1,0-0.2H758.6z"/>
	</g>
	<g>
		<path class="st14" d="M566.2,323.9l2.2,2.2c-11.8,3.5-12.2,14-12.2,14c-0.4,20.8,17.7,27.3,17.7,27.3c17.7,20.5,48,42.6,48,42.6
			c12.5,31.5,43.3,42.8,43.3,42.8l0.6,3.3l12.9,5.5c0,0-25.8-23.6-42.9-53.3c-17.2-29.7-43.5-69.2-43.5-69.2
			c-5.2-17.3-7.6-20.7-7.6-20.7L566.2,323.9z"/>
		<path class="st15" d="M636.6,410c-0.9,1.1-1.7,2.1-2.6,3.1c-2.3,2.5-4.8,4.4-7.5,6.4c12.8,23.4,38.6,33.4,38.6,33.4l0.6,3.3
			l12.9,5.5C678.6,461.6,653.8,439,636.6,410z"/>
		<path class="st16" d="M573.9,367.4c0,0-49.1,10.2-56.6,12.1c0,0-9.7,4.2-17.4,6.6c-7.7,2.5-55.8,11.6-79.8,24l13.2-11.1
			c0,0,2.2,1.9,6.6-0.6c4.4-2.5,32.5-27.3,54.8-25.9c0,0,33.9-26.6,54.1-33.2c0,0,2.5-9.2,14.4-13.7l3-1.8l2.2,2.2
			c0,0-12.5,2.7-12,18.2C556.4,344.3,558.4,359.8,573.9,367.4z"/>
		<path class="st15" d="M489,375c0-0.8,0-1.6,0.1-2.3c-21,1.9-45.2,23.5-49.3,25.8c-4.4,2.5-6.6,0.6-6.6,0.6L420,410.1
			c20.5-10.6,57-18.2,73.6-22.3C490.8,384.3,489,379.8,489,375z"/>
		<path class="st15" d="M546.8,280.3c0,0-2.4,11.1,8.4,23.5c9.2,10.5,10.9,20,10.9,20l18.4-5.3c0,0-5.5-14.6-8.7-20.3l3.1-7.2
			c0,0-11.6-19.9-22.9-15.9c-11.2,4.1-7.2,1.3-7.2,1.3S547,278.5,546.8,280.3z"/>
		<path class="st14" d="M563.3,316c6.3-1.1,12.5-2.5,18.5-4.6c-1.8-4.5-4.2-10.1-5.8-13.1l3.1-7.2c0,0-11.6-19.9-22.9-15.9
			c-6.1,2.2-7.7,2.4-7.9,2.1c-0.6,0.8-1.4,1.9-1.5,3.1c0,0-2.4,11.1,8.4,23.5C559.1,308.2,561.6,312.5,563.3,316z"/>
		<path class="st17" d="M548.3,277.3c0.4-0.5,0.7-0.8,0.7-0.8S548.2,277,548.3,277.3z"/>
		<path class="st15" d="M622.8,265.4c0,0-28.1,17.2-61.3,9.5c0,0-2.2,3,0,7.3c2.2,4.2,6.2,7,11.7,6.6c5.5-0.4,43.9-9.7,50.7-20.8
			c5.9-9.7,4.8-12.5,4.8-12.5l-1-0.6c0,0-1-0.2-1.1,0.6l-1.2,4l0.5-5c0,0,0-0.3-0.3-0.3c-0.3,0-1.7,5.5-1.7,5.5s-0.5-1.9-0.8-2.5
			L622.8,265.4z"/>
		<path class="st18" d="M547.8,249.4c0,0-8-17.3-27.3-10.9c0,0-30.2-1.8-41.8,6.6c0,0-34.6,2-33.8,18.6
			c0.7,16.6,52.1,12.5,52.1,12.5s5.3,4.3,28,0.4c0,0,11.2,1.6,20.4-6.6L547.8,249.4z"/>
		<path class="st15" d="M548.3,277.2c0,0-22,21-31.4,36.3l-5,0c0,0-0.2,0.6,1,0.9c0,0-7,2.3-4.6,2.8c0,0,7.1,1.4,10.4-1.3
			c0,0,7.9-11.5,30.1-22.4C548.7,293.5,544,283.4,548.3,277.2z"/>
		<path class="st15" d="M549,276.5l-6.7-11.9c0,0-4.9-0.9-4.2-4.2c0,0,0.1-1.1,1.7-0.6c0,0-1.8-10.1,2.7-12.5
			c4.5-2.4,12.4,10.5,12.4,10.5l-1.2,1.2c0,0,4.5,7.7,0.4,10.8l2.9,5.1C556.9,274.9,545.4,279.3,549,276.5z"/>
		<path class="st19" d="M550.4,256.4c0,0-0.4,1.2-3.4,1.3v-0.7c0,0,2.2-0.5,2.6-1.2L550.4,256.4z"/>
		<path class="st20" d="M579.1,291l-10.2-2.6c0,0-6.2-1.9-8-7.8c0,0-0.6-0.4-0.3-3.7l-6.2-1c0,0-4,1.8-6.2,1.6c0,0-7.2,10,9.1,28.9
			c0,0,4.8,7,6.1,9.7l14.5-3.3c0,0-3.2-11.6-5.7-14.7l3.8,0.2L579.1,291z"/>
		<path class="st21" d="M577.8,312.6l2.1,7.2l-13.7,4c0,0-1.9-6.1-2.9-7.9L577.8,312.6z"/>
		<path class="st21" d="M540.6,249.3c0,0,7.8,6.2,10.3,14.9c0,0,1.8,5.3,4.3,4.3c0,0-0.5,0.9-1.2,1.4l-0.8,6.4c0,0-4.4,1.7-4.9,1
			l0.7-0.8l-6.7-11.9c0,0-4.4-0.6-4.2-4c0,0-0.1-1.4,1.7-0.8C539.8,259.8,538.5,253.7,540.6,249.3z"/>
		<g class="st5">
			<defs>
				<path id="SVGID_4_" class="st5" d="M566.2,323.9l2.2,2.2c-11.8,3.5-11.9,15-11.9,15c0.5,18.6,17.4,26.3,17.4,26.3
					c17.7,20.5,48,42.6,48,42.6c12.5,31.5,43.3,42.8,43.3,42.8l0.6,3.3l12.9,5.5c0,0-25.8-23.6-42.9-53.3
					c-17.2-29.7-43.5-69.2-43.5-69.2c-5.2-17.3-7.6-20.7-7.6-20.7L566.2,323.9z"/>
			</defs>
			<clipPath id="SVGID_5_">
				<use xlink:href="#SVGID_4_"  style="overflow:visible;"/>
			</clipPath>
			<g class="st22">
				<path class="st23" d="M607.7,341.1c0,7.8-6.4,14.2-14.2,14.2c-7.8,0-14.2-6.4-14.2-14.2c0-7.8,6.4-14.2,14.2-14.2
					C601.4,326.9,607.7,333.3,607.7,341.1z"/>
				<path class="st23" d="M605,378.2c0,5.7-4.6,10.4-10.4,10.4c-5.7,0-10.4-4.6-10.4-10.4s4.6-10.4,10.4-10.4
					C600.4,367.9,605,372.5,605,378.2z"/>
				<path class="st23" d="M577.5,357.2c0,4.5-3.7,8.2-8.2,8.2c-4.5,0-8.2-3.7-8.2-8.2c0-4.5,3.7-8.2,8.2-8.2
					C573.8,349,577.5,352.7,577.5,357.2z"/>
				<path class="st23" d="M624.3,385.2c0,3.2-2.6,5.9-5.9,5.9c-3.2,0-5.9-2.6-5.9-5.9c0-3.2,2.6-5.9,5.9-5.9
					C621.7,379.3,624.3,381.9,624.3,385.2z"/>
				<path class="st23" d="M571.2,335.8c0,2.9-2.4,5.3-5.3,5.3c-2.9,0-5.3-2.4-5.3-5.3c0-2.9,2.4-5.3,5.3-5.3
					C568.8,330.5,571.2,332.9,571.2,335.8z"/>
				<path class="st23" d="M624.9,399.2c0,1.8-1.5,3.3-3.3,3.3c-1.8,0-3.3-1.5-3.3-3.3c0-1.8,1.5-3.3,3.3-3.3
					C623.5,395.9,624.9,397.4,624.9,399.2z"/>
			</g>
		</g>
		<g>
			<defs>
				<path id="SVGID_6_" d="M573.9,367.4c0,0-49.1,10.2-56.6,12.1c0,0-9.7,4.2-17.4,6.6c-7.7,2.5-55.8,11.6-79.8,24l13.2-11.1
					c0,0,2.2,1.9,6.6-0.6c4.4-2.5,32.5-27.3,54.8-25.9c0,0,33.9-26.6,54.1-33.2c0,0,2.5-9.2,14.4-13.7l3-1.8l2.2,2.2
					c0,0-12.5,2.7-12,18.2C556.4,344.3,558.4,359.8,573.9,367.4z"/>
			</defs>
			<clipPath id="SVGID_7_">
				<use xlink:href="#SVGID_6_"  style="overflow:visible;"/>
			</clipPath>
			<g class="st24">
				<path class="st25" d="M555.7,341.1c0,4.4-3.5,7.9-7.9,7.9s-7.9-3.5-7.9-7.9s3.5-7.9,7.9-7.9S555.7,336.7,555.7,341.1z"/>
				<path class="st25" d="M554.3,364.4c0,6.2-5,11.2-11.2,11.2c-6.2,0-11.2-5-11.2-11.2c0-6.2,5-11.2,11.2-11.2
					C549.3,353.2,554.3,358.2,554.3,364.4z"/>
				<path class="st25" d="M522,358.3c0,5.2-4.2,9.5-9.5,9.5c-5.2,0-9.5-4.2-9.5-9.5c0-5.2,4.2-9.5,9.5-9.5
					C517.7,348.9,522,353.1,522,358.3z"/>
				<path class="st25" d="M526.4,372.7c0,1.8-1.4,3.2-3.2,3.2c-1.8,0-3.2-1.4-3.2-3.2c0-1.8,1.4-3.2,3.2-3.2
					C524.9,369.5,526.4,370.9,526.4,372.7z"/>
				<path class="st25" d="M507.5,375.7c0,1.8-1.4,3.2-3.2,3.2c-1.8,0-3.2-1.4-3.2-3.2c0-1.8,1.4-3.2,3.2-3.2
					C506,372.5,507.5,373.9,507.5,375.7z"/>
			</g>
		</g>
	</g>
	<path class="st11" d="M1041,496.8c0-8.6,0,5.2,0-12.8H363c0,18,0,4.2,0,12.8v5.2c0,8.6,7.6,17,16.2,17h647.5
		c8.6,0,14.4-8.4,14.4-17V496.8z"/>
	<path class="st26" d="M362.5,502.7c0.4,8.3,8.3,15.8,16.7,15.8h647.5c8.4,0,14.2-7.5,14.5-15.8H362.5z"/>
	<rect x="580" y="499" class="st27" width="261" height="26"/>
	<rect x="580" y="499" class="st14" width="261" height="3"/>
	<rect x="600" y="483" class="st6" width="219" height="16"/>
	<rect x="600" y="483" class="st14" width="219" height="3"/>
	<g>
		<path class="st18" d="M835.1,219.9c0,0-11.8,4.7,0.8,30.3l3.3-1.2l4.7-2.9c0,0,8.4,7.2,17,16.6c0,0-11.3-36-17-39.8
			C844,222.9,837.5,218.3,835.1,219.9z"/>
		<path class="st28" d="M833.5,249.2"/>
		<path class="st14" d="M833.5,263.5l6.8,32.2c0,0-13.9,7.1-17.9,29.1c0,0-8.7,51.8-8.5,82.7c0,0,18.1,12.8,33.2,15l3.8-43.2
			c0,0,12.1,33.1,23.7,45.7l26.1-6.2c0,0-32.1-110.8-46.3-143.5c0,0,4.2-4.2,4.8-7.2l-11.3-18.3l-4-3.6l-5.1,1.2l-2.9,2.8
			C835.9,250.2,830.9,251.4,833.5,263.5z"/>
		<path class="st21" d="M845.5,295c0,0-13.5,9.1-15.5,21.2c0,0-6.4,24.7-4.4,98.2c0,0-8.1-4.6-11.8-7.1c0,0-1-26.2,8.1-80.8
			c0,0,0.8-16.5,17.4-31.5H845.5z"/>
		<path class="st23" d="M848.8,290h-2.7c0,0-1.6,0-3.7,0.3c0,0-2,0.5-3,0.9l0.8,3.8h9.4C849.7,295,848.4,292,848.8,290z"/>
		<path class="st21" d="M852.8,340.9c0,0,10,39.3,34.3,81.2l-12.6,3c0,0-12.8-15.2-23.7-45.7L852.8,340.9z"/>
		<path class="st15" d="M834.6,221.7c0,0,5.8,8.2,10.6,29.6c0,0,2.1,11.1,0,11.4c-2.1,0.3-8.2-21.9-8.2-21.9s-6.2,0.1-5.5-9
			l-0.8-0.7C830.6,231.2,832,224.7,834.6,221.7z"/>
		<polygon points="834.7,230 833.1,231 837.3,231 		"/>
		<path class="st15" d="M922.4,481.6l-7.1-5.3l-0.3-1.6c0,0-17.6-31.2-27.6-52.8l13.3-3.1l17,55.4l4.7,6.5c0,0,0.4,0.4,0.3,0.8
			C922.7,481.8,922.4,481.6,922.4,481.6z"/>
		<path class="st19" d="M919.6,476.7c-1.8-0.1-3.5-0.9-4.6-2.2c0,0,0,0,0,0c0.1,0.2,0.1,0.2,0.1,0.2l0.3,1.6l7.1,5.3
			c0,0,0.2,0.2,0.3-0.2c0.1-0.3-0.3-0.8-0.3-0.8L919.6,476.7z"/>
		<path class="st15" d="M850.4,477.2c0,0-4.8-37.2-3.3-54.6c0,0-8-1.8-17.1-5.7c0,0,7.9,37.5,17.6,61l-1.1,10.8c0,0-0.4,0.8,0.8,0.9
			c1.2,0.1,3.6-10.9,3.6-10.9L850.4,477.2z"/>
		<path class="st29" d="M850.4,477.3c0,0-0.1,0-0.1,0.1c0,0.1,0,0.2,0,0.4c0,1.8-1.3,3.4-3.1,3.8l-0.7,7.2c0,0-0.4,0.8,0.8,0.9
			c1.2,0.1,3.6-10.9,3.6-10.9L850.4,477.3z"/>
		<path class="st30" d="M852.8,340.9c0,0-1.2,30.7-1.9,38.4l0.7,1.8C851.6,381.1,854.5,351.1,852.8,340.9z"/>
		<path class="st25" d="M849,400.4c0,0-19.5-5.3-34.2-15.6l-0.5,7.8c0,0,23.9,12.9,34.1,15.3L849,400.4z"/>
		<path class="st25" d="M847.7,415.8c0,0-20.3-7.6-33.7-16.9l-0.1,8.5c0,0,18.7,13.3,33.2,15L847.7,415.8z"/>
		<path class="st25" d="M816.1,371c0,0,20.8,11.9,34.1,16.3l-0.5,5.8c0,0-21.5-7.2-34.2-15.6L816.1,371z"/>
		<path class="st25" d="M851.5,369.1c0,0-25.9-14.6-33.1-17.7l-1.5,12.4c0,0,21,11.1,34,14.6L851.5,369.1z"/>
		<path class="st25" d="M852.8,342.8c0,0-17.8-12-31-14.4c0,0-1.6,10.7-1.9,12.5c0,0,12.2,5.6,32.2,15.4L852.8,342.8z"/>
		<path class="st23" d="M852.1,286.5c0,0,2.9-0.2,4,5.8c1.1,6-0.5,8.2-1.5,8.3c-1,0.1-4.8-1.8-5.8-7.7
			C847.9,286.9,852.1,286.5,852.1,286.5z"/>
		<path class="st23" d="M859.4,287.8c0,0-0.9,1.1-4,1.7c0,0,1,3.1,1.1,4.5c0,0,2.9-1.1,4.5-2L859.4,287.8z"/>
		<g>
			<path class="st31" d="M878.6,292.1c-2.9-9.9-8.2-7.1-8.2-7.1c-1.6,18.1,0.7,37,8.7,35.6C887.1,319.1,881.5,302,878.6,292.1z
				 M872.4,308.5c0,0-1.8-7-1.4-15.4c0,0,3.3-3.7,3.8-6.2c0,0,3.3,2.7,6.6,20.9C881.4,307.8,875.9,308.8,872.4,308.5z"/>
		</g>
		<path class="st15" d="M847.9,249.8c0,0,20.7,17.4,27.1,35.4c0,0,1.6,4-11.1,15.4l-1.4-4.1c0,0,5.9-5.6,7.9-11.4
			c0,0-6.6-8.9-12.8-13.6c0,0,1.5-1.7,1.6-3.3L847.9,249.8z"/>
		<path class="st21" d="M835.9,250.2c0,0,3.2-2.2,5.4,22.6c0,0,10.8,1.2,17.9-4.7c0,0-1.2,3.8-4.8,7.2c0,0-6.5,3.4-11.5,3.4
			l3.1,11.9c0,0-3.3-0.9-6.7,1.1l-5.9-28.2l1.7-0.7L835.9,250.2z"/>
		<path class="st15" d="M835.9,250.2c0,0-22.8,14.2-33.2,30.3c0,0-0.9,1.6,1,2.8c1.9,1.2,20.1,12.6,33.6,14.4c0,0,3-2.8,6.8-2.8
			c0,0,0.7,0.1,1-0.7l0.5-1.6c0,0,0.8-1.8-6,0.1c0,0,2.8-1.2,4.8-1.5c0,0,0.2-0.1,0.3-0.3c0-0.2-3.3-0.8-8.4,2.9
			c0,0-16.1-4.1-25.1-14.5c0,0,9.7-10.4,24.2-16.5c0,0,1.2,9.5,3.2,9.6C840.3,272.4,839.1,249.5,835.9,250.2z"/>
		<path class="st21" d="M860.9,292.1c0,0,7.5,21-3.6,44.3c0,0-0.9,1.9-1.9,1.4C854.3,337.3,865.5,319.3,860.9,292.1z"/>
		<path class="st25" d="M875.1,334.3c0,0-15.5,5.3-22,8l0.3,9.1c0,0,19.9-8.1,24.2-9.1L875.1,334.3z"/>
		<path class="st25" d="M880,349.9c0,0-15.8,6.5-27,11.6l-0.6,9.5c0,0,23.3-9,30.3-12.2L880,349.9z"/>
		<path class="st25" d="M885,366.3c0,0-22.8,9.6-33.5,14.8l2.9,7.3c0,0,30.9-11.3,33.2-13.3L885,366.3z"/>
		<path class="st25" d="M890.1,382.9c0,0-17.3,8.4-31.6,14.6l3.3,6.9c0,0,25.3-8.8,30.8-13.2L890.1,382.9z"/>
		<path class="st25" d="M895.2,400.1c0,0-18.5,9.6-28.6,13.5c0,0,5.9,9.6,7.9,11.4l26.1-6.2L895.2,400.1z"/>
		<path class="st17" d="M875.1,285.8c0,0-1.7-1.4-4.7-0.7l-0.5,1.2c0,0,2.7-1,5.1,0.8l0.2-0.7L875.1,285.8z"/>
		<path class="st32" d="M872.4,308.5c0,0,0.9,7.6,5.6,7c4.7-0.6,3.4-7.7,3.4-7.7S877,308.7,872.4,308.5z"/>
	</g>
	<g>
		<path class="st14" d="M884.3,573.2c0,15.4-69.8,28-155.8,28c-86,0-155.8-12.5-155.8-28c0-15.5,69.8-28,155.8-28
			C814.6,545.2,884.3,557.7,884.3,573.2z"/>
		<path class="st33" d="M842.3,568.4c0,2.6-49.1,4.8-109.6,4.8c-60.5,0-109.6-2.1-109.6-4.8c0-2.6,49.1-4.8,109.6-4.8
			C793.2,563.7,842.3,565.8,842.3,568.4z"/>
		<path class="st18" d="M716.5,229.6c0,14.2-11.5,25.8-25.8,25.8c-14.2,0-25.8-11.5-25.8-25.8c0-14.2,11.5-25.8,25.8-25.8
			C705,203.8,716.5,215.3,716.5,229.6z"/>
		<path class="st18" d="M710.3,238c-1.9-3.3-2.2-6.7-1.5-10.3c0-0.7,0-1.5,0-2.2c-0.2-0.9-0.4-1.8-0.7-2.7c-0.6-1.1-1.2-2.2-1.9-3.2
			c-0.9-1.1-1.9-2.1-3-3c-1.1-0.7-2.2-1.4-3.3-2c-2.2-0.8-4.4-1.3-6.6-1.7c-6.2-0.6-12.5-0.3-18.6,0.5c-1.4,0.2-2.8,0.4-4.2,0.6
			c1.3-0.2,2.5-0.3,3.8-0.5c-1.4,0.2-2.8,0.4-4.1,0.8c-3.1,4.3-5,9.5-5,15.3c0,14.2,11.5,25.8,25.8,25.8c9.8,0,18.4-5.5,22.7-13.6
			C712.2,240.7,711.1,239.4,710.3,238z"/>
		<path class="st14" d="M771.3,382.6c0,0,47.5,135.8,62.1,176.3c0,0,6.6,6.6,8.9,11.6c0,0-5.4,1.9-12.7-9.6l-1.2-4.6
			c0,0-36.6-37.8-47.8-89.1c0,0-42-35.2-52.4-83C728.1,384.1,747.7,379.9,771.3,382.6z"/>
		<path class="st14" d="M728.1,384.1c0,0-10.8,61-27.4,96.1l-68.7,98c0,0,0-16.3,8.9-20.8c0,0,15.8-66.3,42.8-93.3
			c0,0-7-20.8-7.7-65.4C676,398.6,699,386.2,728.1,384.1z"/>
		<path class="st15" d="M771.3,382.6c0,0,47.5,135.8,62.1,176.3c0,0,6.6,6.6,8.9,11.6c0,0-5.4,1.9-12.7-9.6l-1.2-4.6
			c0,0-36.6-37.8-47.8-89.1c0,0-42-35.2-52.4-83C728.1,384.1,747.7,379.9,771.3,382.6z"/>
		<path class="st15" d="M728.1,384.1c0,0-10.8,61-27.4,96.1l-68.7,98c0,0,0-16.3,8.9-20.8c0,0,15.8-66.3,42.8-93.3
			c0,0-7-20.8-7.7-65.4C676,398.6,699,386.2,728.1,384.1z"/>
		<path class="st31" d="M687.1,270l23.2,40.1c0,0-36.2,3.3-34.3,88.4c0,0,42.1-20.2,95.3-15.9c0,0-26.6-77.9-39.7-100.3
			c0,0,5.5-9.2,3.5-15.3C733,260.8,706,248,706,248h-19.5C686.4,248,674.3,250.9,687.1,270z"/>
		<path class="st18" d="M833.4,558.9c-10.5-29.1-37.9-107.2-52.6-149c-4.1-1-8.2-1.8-12.4-2.4c-10.1-1.2-22.8-0.6-33-0.2
			c15.1,36,45.1,59.8,45.1,59.8c11.2,51.3,48.1,90.4,48.1,90.4l0.8,3.4c7.3,11.6,12.7,9.6,12.7,9.6
			C839.9,565.4,833.4,558.9,833.4,558.9z"/>
		<path class="st18" d="M717.2,408c-13.5,1.9-26.9,5-39.6,10.1c-0.3,0.1-0.5,0.2-0.8,0.4c2,30.9,6.9,45.6,6.9,45.6
			c-27,27-42.8,93.3-42.8,93.3c-8.9,4.5-8.9,20.8-8.9,20.8l68.7-98c10-21.2,18-52,22.7-72.9C721.3,407.5,719.2,407.7,717.2,408z"/>
		<path class="st15" d="M640.7,197c0,0,5.7,51.3,45.8,52c0,0,5.7-2.6,14.4,21.8c0,0,2.6,5.7-1,8.5c-3.6,2.8-6.2,2.4-13.8-10.4
			c0,0-54.9-5.8-49.5-69.6c0,0-5.3,0.6-10.5-1.8c0,0,1.4-0.9,5.4-0.5c0,0-6.4-4.9-7.1-6.7c0,0-1.5-1.3-1.3-2.2
			C623,188.1,639.9,193.6,640.7,197z"/>
		<path class="st15" d="M704.7,249l-3-6.2c0,0,1.4-19.8-9.6-22.6c0,0-11.8,1.8-1.8,20.6l11.4,20.8c0,0,1.7,4.6,9.9,2.8
			C719.9,262.5,704.7,249,704.7,249z"/>
		<path class="st15" d="M707.1,249.5c0,0,39.7-1.2,38-19.9c-1.7-18.8-21.5-17.4-21.5-17.4l-3.8-4.3c0,0,1.4-1.3,5,2l2.6-2.7
			c0,0,26.7,4.6,25.4,26.5c-1.4,21.9-24.1,27.7-24.1,27.7S712.5,251.3,707.1,249.5z"/>
		<path class="st34" d="M699.5,234.6c0.6,1.5,0.4,3-0.4,3.3c-0.8,0.3-1.9-0.6-2.5-2.1c-0.6-1.5-0.4-3,0.4-3.3
			C697.7,232.1,698.9,233.1,699.5,234.6z"/>
		<path class="st35" d="M697,261.3c0,0,6,15.8,12,15.2c6-0.6,25.8-1.3,26.4-7.6c0,0,0.8,6.6-3.8,13.4l2.2,3.9c0,0-10.4-2-22.2,5.7
			l14.1,19.7c0,0-36-14.3-9,74.4c0,0-19.5,2.7-40.5,12.6c0,0-4.6-77,34.3-88.3l-21.1-36.2c0,0,5.7,9.8,10.6,5.1S697,261.3,697,261.3
			z"/>
		<path class="st14" d="M720.1,216.2c0,2.4-1.9,4.3-4.3,4.3c-2.4,0-4.3-1.9-4.3-4.3c0-2.4,1.9-4.3,4.3-4.3
			C718.1,211.8,720.1,213.8,720.1,216.2z"/>
		<path class="st18" d="M731.5,202.7l-12.6,14.1c0,0-1.7,1.3-3.2-0.4c-1.5-1.7,0-3.2,0-3.2l12.5-13.5c0,0,1.4-1.6,3.3,0
			C733.5,201.2,731.5,202.7,731.5,202.7z"/>
		<linearGradient id="SVGID_8_" gradientUnits="userSpaceOnUse" x1="719.4668" y1="216.0615" x2="719.4668" y2="216.0615">
			<stop  offset="0" style="stop-color:#2F54BF"/>
			<stop  offset="1" style="stop-color:#E93667"/>
		</linearGradient>
		<path class="st36" d="M719.5,216.1"/>
	</g>
	<path class="st26" d="M708.3,117.3c0,3.4-2.8,6.2-6.2,6.2c-3.4,0-6.2-2.8-6.2-6.2c0-3.4,2.8-6.2,6.2-6.2
		C705.5,111.1,708.3,113.9,708.3,117.3z"/>
	<path class="st37" d="M705.3,117.3c0,1.8-1.5,3.3-3.3,3.3c-1.8,0-3.3-1.5-3.3-3.3c0-1.8,1.5-3.3,3.3-3.3
		C703.8,114,705.3,115.5,705.3,117.3z"/>
	<path class="st2" d="M363.5,283.3c4.5,13.3-1.6,27.4-13.7,31.5c-12,4.1-25.4-3.5-29.9-16.8c-4.5-13.3,1.6-27.4,13.7-31.5
		C345.6,262.5,359,270,363.5,283.3z"/>
	<path class="st2" d="M329.3,343l18.5,22c0,0-17.1-0.4-19.2,29.7l-25.2,2.3C303.4,397,299.5,360.7,329.3,343z"/>
	<g>
		<polygon class="st18" points="960.7,481.1 938.5,476.5 967.7,489.5 		"/>
		<path class="st16" d="M1009.4,409.8c0,0-57.5-18.5-86.1,0c0,0-6.1,4.9,3.5,15.9c0,0,23.4,29.2,35,57.8l6.1,6.1
			c0,0-9.8-46.2-15.6-59.3c0,0,16.8,15.3,65,17.9C1017.2,448.2,1011.7,426.8,1009.4,409.8z"/>
		<polygon class="st15" points="1084.5,327.4 1078.9,344.2 1077.8,349.1 1086.1,346.9 1092,329.2 		"/>
		<path class="st15" d="M1074.8,322.6l-7.4,6l3.7,3.1l-1,3.2c0,0-2.9,12.6,4.7,14.4c0,0,7-4,7-22.4
			C1081.8,326.9,1077.2,320.7,1074.8,322.6z"/>
		<path class="st18" d="M1078.8,325.4c0,0-6.8-0.8-7.9-15.2c0,0,6.5,5,16.2,8.7c0,0,9,2.9,8.1,11.6c0,0,2.1-1,2.3-3.1
			c0,0,2,5.2-0.9,8.3c0,0,0.1,6.4-8.7,13.4h-5.1l1-9.2c0,0,5.7-7.1,0.7-7.4c0,0-1.7-0.3-2.6,6.5c-0.9,6.8-2.6,18.1-8.8,17.4
			c-6.2-0.7-7.9-6-7.5-10c0.4-4,2.3-7.8,2.3-7.8s-0.7-3.3,2.2-3.5c2.9-0.1,6.4,5.1,6.5,8.8C1076.6,343.7,1084.4,333.2,1078.8,325.4z
			"/>
		<path class="st14" d="M1017.7,432.9c0,0-39.6,16.8-73.1,54.6c0,0-11,12.7,14.7,29.8l46,37.3l7.5,2.9c0,0-19.4-30.4-37.9-48.6
			c0,0,39.3-23.4,58.1-41C1033.1,467.9,1036,449.9,1017.7,432.9z"/>
		<polygon class="st18" points="1012.8,557 981,557 1003.6,552.7 		"/>
		<polygon class="st18" points="1075.9,328.5 1074.6,330 1079.3,330 		"/>
		<path class="st18" d="M1009.4,409.8c0,0,0.3,44.8,25.4,66.8c0,0,84.3-78.9,69.5-122.1c0,0-2.6-8.3-15.2-7.4l-16.4,2.3
			c0,0-20.6,45.4-64.3,60.2"/>
		<path class="st31" d="M1069.9,340.1c-0.3,1.1-1,1.9-1.5,1.8c-0.6-0.1-0.8-1.2-0.5-2.3c0.3-1.1,0.9-1.9,1.5-1.8
			C1070,338,1070.2,339,1069.9,340.1z"/>
		<path class="st35" d="M1066.6,352.3c0,0-24.4,28.7-45.9,31.2c0,0-4-23.5-3.5-32.5h-8h-1c0,0-3.3,32.5,0,52c0,0,0.3,2.3,4.8,2.5
			l6.9-0.9c0,0,24.5-9.5,50.1-49.3L1066.6,352.3z"/>
		<path class="st31" d="M1081.8,362.4c0,0-18.7,30.6-39.2,40.5c0,0-12.7-16.8-18.8-38.2l-8.4,2c0,0,5.2,43.9,22.8,67.6
			c0,0,5.2,4.9,12.4,0c7.2-4.9,46.2-39.3,52.6-62.1c6.4-22.8-5.2-22.9-5.2-22.9S1090.1,346.8,1081.8,362.4z"/>
		<path class="st31" d="M997,315.4c0,0,1.5,5.5,8.2,7.2l63.7,16.3l-0.4,1.7l-64.1-14.5c0,0-6.8-0.1-10.4,2.7
			C994,328.9,996.9,325.2,997,315.4z"/>
		<path class="st31" d="M996.8,322.3c-1.6,8.6-5.1,15.1-7.9,14.6c-2.8-0.5-3.8-7.9-2.2-16.4c1.6-8.6,5.1-15.1,7.9-14.6
			C997.4,306.4,998.4,313.8,996.8,322.3z"/>
		<path class="st35" d="M995.1,322c-1,5.6-3.3,9.8-5.1,9.5c-1.8-0.3-2.5-5.1-1.5-10.7c1-5.6,3.3-9.8,5.1-9.5
			C995.4,311.7,996.1,316.5,995.1,322z"/>
		<path class="st38" d="M1009,351v-3.7c0,0-1.8-2.5-1.7-4.8c0.1-2.3,0.7-8.6,1.8-13.6c0,0,1.2-6.6,2.8-8.6c0,0,1.5,1.5,0.7,5.5
			c0,0,0.9-5.9,1.6-6.8c0,0,1.2,0.7,1,2.4l-0.1,2.4l1.3-4.8c0,0,0.9,0.9,0.8,2.4l-0.1,3.6l0.9-3.6c0,0,0.9-1.3,1.5-1.2
			c0,0-0.5,10.2-1.6,15.5c0,0,1.8-3.9,2.8-4.3c0,0-3.1,13.8-5.2,19.4"/>
		<path class="st31" d="M1053.2,345.4c-1,4.6-5.6,7.4-10.3,6.4l-33.5-7.6c-4.6-1.1-7.5-5.6-6.5-10.2l0,0c1-4.6,5.6-7.4,10.3-6.4
			l33.5,7.6C1051.3,336.3,1054.3,340.8,1053.2,345.4L1053.2,345.4z M1051.5,344.9c0.8-3.5-2-7.1-6.3-8.1l-31.1-7.1
			c-4.3-1-8.4,1.1-9.2,4.6l0,0c-0.8,3.5,2,7.1,6.3,8.1l31.1,7.1C1046.6,350.4,1050.7,348.4,1051.5,344.9L1051.5,344.9z"/>
		<path class="st15" d="M1016.3,366.5l-0.9-5.3c0,0-1.6-3,0-14.3c0,0,1.1-8.5-1.3-15.3c0,0-0.6-1.3,0-1.9c0,0,3.2,2.7,4.2,9.9
			c0,0-0.7-8.4-1.8-11.8c0,0-0.6-1.9,1-2.6c0,0,1.5,3.8,1.9,5.5c0,0-0.3-4-0.5-4.6c0,0,0-1,0.7-1.3c0,0,1.1,1.9,1.8,6.2
			c0,0-0.1-3.2-0.3-4.2c0,0-0.3-1.5,0.7-1.8c0,0,1.2-0.6,2.8,14.6c0,0,0.4-2.8,1.3-3.1c0,0,0.7,10.3-4.3,21.5l1.4,6.6L1016.3,366.5z
			"/>
		<path class="st31" d="M1088.4,347.1l-15.8,2.2l1.9,9.3C1074.6,358.6,1083.4,349,1088.4,347.1z"/>
	</g>
	<g>
		<path class="st31" d="M336.9,439.2c0,0,48.6-11.4,107.9,17.7c0,0,5.5,2.2,0,9.9c0,0-29.3,50.4-34.9,71l-4.8,3.8
			c0,0,3.6-46.9,15.5-68.7c0,0-25.1-5.7-45.7-2.8c-20.6,2.9-27.4,0.8-27.4,0.8S344.7,453.1,336.9,439.2z"/>
		<polygon class="st14" points="409.9,537.7 425.8,543 405.1,541.6 		"/>
		<path class="st35" d="M332.2,546.5c-9.1-0.6-47.8-6.1-78.7-3.6l6.1-2.6c0,0,30.9-14.2,59.6-9.2c0,0-0.3-51.7-12.1-63
			c0,0-6-1.9-11.5-16.3c0,0,19.8-12.4,41.3-14.9c0,0,25.4,42.9,4,104.6C341,541.6,341.3,547.1,332.2,546.5"/>
		<polygon class="st18" points="330.7,427.6 343.6,438.1 296.9,465.9 294.4,449.9 		"/>
		<path class="st18" d="M314.8,360.7c0,0-11.6-4.1-16.6,1.7c0,0-3.6,2.8-2.5,6.1c0,0,10.5-7.8,20.4-4.6L314.8,360.7z"/>
		<path class="st14" d="M295,453.5c0,0-23.7-22.6,0.8-85c0,0,13.8-9.7,23.7-3l22.4,60.7c0,0,0.9,6.2-3,8.1
			C335,436.2,314.5,440.3,295,453.5z"/>
		<path class="st18" d="M338.9,345.3c0,0-10.2,13.6-22.6,15.6c0,0-7.5-2-10.3-1.6c0,0,2.3-19,19.6-19.5
			C325.5,339.8,337.3,339.8,338.9,345.3z"/>
		<path class="st18" d="M295.8,368.5c0,0-20.3,5.2-27.9,32.2c-7.5,27.1,16.7,23.4,16.7,23.4s23.1-15.1,31.6-27.7
			c0,0-2.4-3.9-2.9-3.4c-0.5,0.6-20.1,20.8-28.7,23.4C284.6,416.3,284.7,396.1,295.8,368.5z"/>
		<polyline class="st14" points="233.1,547.9 253.6,543 261.1,539.7 255.2,537.4 233.1,547.9 		"/>
		<path class="st18" d="M307.9,363.9c0,0-17.4,24.7,0,30c0,0,14.5,2.7,15.5-17.7l-4-10.7C319.5,365.4,315.7,361.8,307.9,363.9z"/>
		<path class="st15" d="M338.9,345.8c0,0,0,8.2-0.9,11.2h-2.2l-0.8,4.7v5.2c0,0-3.3,1.8-6.3,0c-2.9-1.8-9.3-6.5-9.3-6.5l5.5-2.4
			C324.9,357.9,331.6,353.9,338.9,345.8z"/>
		<path class="st18" d="M335,361.7l-2.5,1.6l-1.2,1.6l-1.7-2.6l-2.8-5.7l-2.1,1.2l-5.7,2.5l9.7,6.5c0,0,2.2,1.9,6.2,0V361.7z"/>
		<path class="st15" d="M319.5,365.4l3.5-2.2l-4-3l-2.8,0.6l-1.7-0.6l1.3,3.3C315.8,363.6,318.2,364.1,319.5,365.4z"/>
		<path class="st18" d="M363.3,370.4l-4.8-1.8c0,0-9.1,19.6-11.3,23.9c0,0-20.3-9.5-27.7-27.1c0,0-10.6-1-12.1,8
			c-1.5,9-1,18,3.9,20.4c4.9,2.5,31.4,7.2,40.8,6.9c0,0,4.8,0,6-4.4C359.4,392.1,362.5,378.6,363.3,370.4z"/>
		<path class="st15" d="M358.6,368.6l0.4-2.6c0,0-1.3-4.5-5.7-7c0,0,2.3-0.9,4.6,0.8c0,0-1.7-6.3,0.6-10.7c0,0,0.6-0.6,0.5,1.9
			c0,0,0.1,3.9,0.5,5c0,0-0.4-4.9,1-7.7c0,0,0.3-0.3,0.7,1.8c0,0-0.1,4.4,0.5,6.1c0.6,1.7-0.1-4.6,0.3-5.7c0,0,2.6,0.9,2.6,3.7
			c0,0,0.8,8.4-0.7,13.2l-0.5,3C363.3,370.4,361.8,369.9,358.6,368.6z"/>
		<path class="st18" d="M339.7,344.5c0,0,1.8-1.4,4.5-0.5l2.6,3.2c0,0,3.5-1.1,4.3,1.9h6.2l2.5-2.7l1.2-4.3h4.6c0,0,1.4,1.5,1.4,2.2
			v2.6l4-1.5v16.4l-4-1.5v2.1c0,0,0,2.6-1.1,2.6c-1.2,0-0.2,0-0.2,0h-4.4l-1.6-2.8L357,360h-5.2c0,0-0.3,2.2-2.2,2.4l-11.6-0.3
			C338,362.1,338,348.3,339.7,344.5z"/>
		<path class="st15" d="M344.2,365.9l0.4-2.6c0,0-1.3-4.5-5.7-7c0,0,2.3-0.9,4.6,0.8c0,0-1.7-6.3,0.6-10.7c0,0,0.6-0.6,0.5,1.9
			c0,0,0.1,3.9,0.5,5c0,0-0.4-4.9,1-7.7c0,0,0.3-0.3,0.7,1.8c0,0-0.1,4.4,0.5,6.1c0.6,1.7-0.1-4.6,0.3-5.7c0,0,2.6,0.9,2.6,3.7
			c0,0,0.8,8.4-0.7,13.2l-0.5,3C349,367.7,347.3,365.6,344.2,365.9z"/>
		<path class="st18" d="M349.5,368.5c0,0-1.5-3.3-6.2-2.5c0,0-5.2,20.9-11,28c0,0-9.1-17-12.7-28.6c0,0-12.1-6.6-16.3,10.8
			c-4.1,17.4,31.5,35.1,31.5,35.1s6.3,3.5,8.8-4.3C346,399.1,349.4,374.8,349.5,368.5z"/>
	</g>
	<path class="st2" d="M311.3,322.1l-36.9-122.9c0,0-6.3-37.5-47.5-40.9c-41.3-3.4-121.6-0.6-121.6-0.6s-25.8,7.7-11.8,50.4
		l11.8,36.1c0,0,12.8,33.7,52.4,37l94.8-0.2L311.3,322.1z"/>
	<path class="st3" d="M197.6,257.3c0,0,35.8-18,31.1-50.7c0,0-4.2-17.8-20.4-20.2c-16.2-2.4-20.5,11.2-20.5,11.2s-10.2-11.8-24.7-14
		c0,0-18.2-0.8-16,19.3C149.8,229.6,197.6,257.3,197.6,257.3z"/>
	<polygon class="st3" points="170.7,342.4 192.2,369.8 225.2,374.2 208.3,395.6 222.7,425.8 189.1,411.5 163,425.8 161.4,395.6 
		133.2,374.2 163.9,369.8 	"/>
	<polygon class="st3" points="249.9,50.9 258.5,61.9 271.6,63.6 264.9,72.2 270.7,84.2 257.2,78.5 246.8,84.2 246.2,72.2 
		234.9,63.6 247.1,61.9 	"/>
	<polygon class="st3" points="1324.6,235.8 1317.4,244.9 1306.4,246.4 1312,253.6 1307.2,263.7 1318.5,258.9 1327.2,263.7 
		1327.7,253.6 1337.2,246.4 1326.9,244.9 	"/>
	<g>
		<path class="st18" d="M560,74.9c1.2,0.3,37.2,4.2,61.7,22c0,0,3,2.1,0,7.2c0,0-15.1,32.9-11.5,48.9h-3.6c0,0-4.5-28,0.3-50h-44.5
			l24.8,39.1c0,0,2.9,5.5,4.3,9c0.8,2.1,0.8,39.4,3.3,48.8l-3.3-1.7c0,0-11-27-8.1-47c0,0-51.2-39.5-58.7-57.7L560,74.9z"/>
		<polygon class="st18" points="594.8,199.9 602.5,212.9 593,203.4 591.5,198.2 		"/>
		<polygon class="st18" points="610.2,153 620.7,160.8 606.3,156 606.5,153 		"/>
		<path class="st18" d="M562.6,34.9c0.6-1.2,4.8,22.2,19.5,25.2c0,0,5.4-18.3,2.2-27.2l2.7-3.3c0,0,5.6,19.8,1.2,36.6
			c0,0-19.6,1.5-30.5-11.8C557.8,54.4,557,46.3,562.6,34.9z"/>
		<path class="st14" d="M542.8,18.3c0,0-6.2-1.2-9.1,2.2c0,0-38.7,17.3-9.1,73L560,74.9c0,0-6.5-23.8,2.6-38.6
			C562.6,36.3,564.2,22.4,542.8,18.3z"/>
		<path class="st31" d="M551.3,65.7c0,0,4.2-1.6,4-5.5c-0.2-3.8,2.7-17.7,18.3-13.8c15.6,3.9,9.7,17.3,5.4,21
			c-4.3,3.7-2.4,10.1-2.4,10.1s5.1,32.4-29.4,22C512.6,89.2,551.3,65.7,551.3,65.7z"/>
		<path class="st18" d="M567.3,75.3c-1.8,4.2-6.2,6.2-9.8,4.7c-3.6-1.6-5-6.2-3.1-10.4c1.8-4.2,6.2-6.2,9.8-4.7
			C567.7,66.4,569.1,71.1,567.3,75.3z"/>
		<path class="st18" d="M537,38.7c0,0-19.6,6.7-28.4,18.1c0,0,19.2,8.1,40.3,11.7c0,0-1.4,2.8-2.2,3.8c-0.8,1-37.5-2.6-47.2-11.1
			c0,0,10.3-35.5,34.3-40.7c0,0,8.3,0.8,7.7,9.3C540.8,38.3,537,38.7,537,38.7z"/>
		<path class="st18" d="M558.4,0.6c0,0-14.4,1.4-16.4,12.5c-1.9,11.1,8.1,21.2,15.3,21.8c7.3,0.6,19.8-3,21-14.3
			C579.5,9.3,570.7-0.2,558.4,0.6z"/>
		<path class="st18" d="M557.5,6.6c0,0-6.7,7.8-4.2,12.3c2.5,4.5,11.3,7.5,16.4,3.8l3.2-10.9L557.5,6.6z"/>
		<path class="st39" d="M564,3.5c0,0-6.5,0.6-7.4,5.2c-0.9,4.6,3.6,8.8,6.9,9.1c3.3,0.3,8.9-1.3,9.4-6C573.5,7.2,569.5,3.2,564,3.5z
			"/>
		<path class="st15" d="M547.1,28.9c0,0,0.7,6.3,3.2,7.7c2.6,1.4,7.1-1.7,7.1-1.7S550.5,34,547.1,28.9z"/>
		<path class="st18" d="M558.4,70.6l23.4-48.4l7.7-17.6c0,0,3.4-1.5,6,0.2l-9.9,15.8l-21.9,49.4L558.4,70.6z"/>
		<path class="st15" d="M548.9,68.6c0,0,7.5-2.3,11.8-2.3c0,0-1.3,1.1-1.7,1.6c-0.4,0.5,5.5-1.5,10.3-1c0,0,1.2,1.2-0.6,1.7
			l-2.4,0.4c0,0,0.3,2-0.6,3.6c-0.9,1.6-12.6,1.4-18.7,0l1.4-4.1"/>
		<path class="st15" d="M587,29.6l-5.1-6.9c0,0-1.8-0.7-3.7-0.6l-0.5,1l2.4,1.2l-0.8,3.6c0,0,0.8,2.2,4.9,4.9L587,29.6z"/>
	</g>
	<linearGradient id="SVGID_9_" gradientUnits="userSpaceOnUse" x1="6.2056" y1="427.0812" x2="112.1413" y2="277.0056">
		<stop  offset="0" style="stop-color:#2F54BF"/>
		<stop  offset="1" style="stop-color:#E93667"/>
	</linearGradient>
	<path class="st40" d="M25.9,290L25.9,290c2.3,0,4.4,1.1,6.4,1.6c3.4-15.1,16.9-25.6,33-25.6h0.1c11.1,0,20.9,5,27.1,13.2
		c2.1-0.5,4.4-1.2,6.7-1.2h0.1c15.1,0,27.7,13.2,27.7,28.4v0.1c0,0.6-0.2,1.4-0.2,2c1.5-0.4,2.9-0.5,4.5-0.5h0.1
		c10.1,0,18.4,7.9,18.8,17.9c4.7,0.8,8.2,4.6,8.2,9.5c0,5.5-4.4,9.6-9.9,9.6h-17.1h-0.1h-24.6H67.1H26h-0.1h-0.6
		c-0.3,0-0.1,0.2-0.4,0.2C10.8,344.5,0,333,0,318.7v-0.1C0,303.8,11.1,290,25.9,290z"/>
	<linearGradient id="SVGID_10_" gradientUnits="userSpaceOnUse" x1="1264.4023" y1="509.6086" x2="1315.7754" y2="258.6714">
		<stop  offset="0" style="stop-color:#2F54BF"/>
		<stop  offset="1" style="stop-color:#E93667"/>
	</linearGradient>
	<path class="st41" d="M1360.4,310L1360.4,310c-2.7,0-5.3,0.7-7.7,1.3c-4-18.1-20.2-31.3-39.5-31.3h-0.1c-13.3,0-25.1,6.3-32.4,16.1
		c-2.6-0.6-5.3-1.1-8-1.1h-0.1c-18.2,0-34.5,14.4-34.5,32.6v0.1c0,0.8,0.8,1.4,0.9,2.1c-1.8-0.4-2.8-0.9-4.7-0.9h-0.1
		c-12.1,0-22,9.7-22.5,21.7c-5.6,1-9.9,6.2-9.9,12c0,6.6,5.3,12.2,11.9,12.2h20.5h0.1h29.5h47.4h49.3h0.1h0.7c0.3,0-0.1-0.2,0.2-0.3
		c17-0.9,29.7-15.1,29.7-32.3v-0.1C1391,324.6,1378.2,310,1360.4,310z"/>
	<path class="st42" d="M1135,385.4l-17.7,47.8l0,0c-1.6,4.4-6.6,9.3-14.5,12.3c-11,4.4-20.1,2.2-21.7-3c-1.6-5.3,3.1-15.9,14-20.1
		c7.3-2.7,14.8-0.1,18.7,2l14.4-38.5l9.3-24.8l66.5,0l-1.9,6l-5.7,16.2l-16.3,46.4l0,0c-1.3,3.8-6,8.1-13.7,10.7
		c-10.7,3.8-19.8,1.7-21.7-3c-1.8-4.8,3.4-12.1,14-15.7c7.1-2.3,13.4-1.9,17.3,0l13.5-36.6L1135,385.4z"/>
	<path class="st43" d="M1179.9,469.1"/>
	<g>
		<path class="st16" d="M1296.4,511.9c0,0-0.3,28.3,0,55.3c0,0,5.7,34.6,25.5,67.9l3.5,2.8c0,0-0.4-59.8-14.3-71.7
			c0,0,24.5-32.8,32.2-68.8l-40.5,4.7L1296.4,511.9z"/>
		<line class="st44" x1="1247.1" y1="469.5" x2="1286.1" y2="633.9"/>
		<path class="st31" d="M1247.1,500.9c0,0-35.2,109.4-39.3,131.1l2.2,3.1c0,0,37.1-43.7,37.1-67.1c0,0,27.3-22.3,45.3-56l-37.4-32.7
			C1254.9,479.4,1249.8,492.5,1247.1,500.9z"/>
		<line class="st45" x1="1194.3" y1="251" x2="1214.4" y2="458.1"/>
		<line class="st46" x1="1204.3" y1="469.5" x2="1184.2" y2="624.5"/>
		<path class="st44" d="M1178.6,469.5c-0.6,0-42.1,162.8-42.1,162.8"/>
		<polygon class="st26" points="1271.3,473 1156.9,473 1139.5,278 1253.9,278 		"/>
		<g>
			<defs>
				<polygon id="SVGID_11_" points="1271.3,473 1156.9,473 1139.5,278 1253.9,278 				"/>
			</defs>
			<clipPath id="SVGID_12_">
				<use xlink:href="#SVGID_11_"  style="overflow:visible;"/>
			</clipPath>
			<g class="st47">
				<path class="st48" d="M1208.5,319c0,8.7-7.1,15.8-15.8,15.8c-8.7,0-15.8-7.1-15.8-15.8c0-8.7,7.1-15.8,15.8-15.8
					C1201.4,303.1,1208.5,310.2,1208.5,319z"/>
				<path class="st48" d="M1204.6,324.1c-1.2-2-1.3-4.1-0.9-6.3c0-0.4,0-0.9,0-1.3c-0.1-0.5-0.3-1.1-0.5-1.6c-0.3-0.7-0.7-1.3-1.2-2
					c-0.6-0.7-1.2-1.3-1.8-1.8c-0.7-0.4-1.3-0.8-2-1.2c-1.3-0.5-2.7-0.8-4.1-1c-3.8-0.4-7.6-0.2-11.4,0.3c-0.9,0.1-1.7,0.2-2.6,0.3
					c0.8-0.1,1.5-0.2,2.3-0.3c-0.9,0.1-1.7,0.3-2.5,0.5c-1.9,2.6-3.1,5.9-3.1,9.4c0,8.7,7.1,15.8,15.8,15.8c6,0,11.3-3.4,13.9-8.3
					C1205.8,325.8,1205.1,325,1204.6,324.1z"/>
				<path class="st48" d="M1242.1,412.9c0,0,29.1,83.3,38.1,108.1c0,0,4,4,5.4,7.1c0,0-3.3,1.2-7.8-5.9l-0.7-2.8
					c0,0-22.5-23.2-29.3-54.7c0,0-25.8-21.6-32.2-50.9C1215.6,413.8,1227.6,411.2,1242.1,412.9z"/>
				<path class="st48" d="M1215.6,413.8c0,0-6.7,37.4-16.8,59l-42.1,60.1c0,0,0-10,5.4-12.8c0,0,9.7-40.7,26.3-57.3
					c0,0-4.3-12.8-4.7-40.1C1183.6,422.7,1197.7,415.1,1215.6,413.8z"/>
				<path class="st48" d="M1242.1,412.9c0,0,29.1,83.3,38.1,108.1c0,0,4,4,5.4,7.1c0,0-3.3,1.2-7.8-5.9l-0.7-2.8
					c0,0-22.5-23.2-29.3-54.7c0,0-25.8-21.6-32.2-50.9C1215.6,413.8,1227.6,411.2,1242.1,412.9z"/>
				<path class="st48" d="M1215.6,413.8c0,0-6.7,37.4-16.8,59l-42.1,60.1c0,0,0-10,5.4-12.8c0,0,9.7-40.7,26.3-57.3
					c0,0-4.3-12.8-4.7-40.1C1183.6,422.7,1197.7,415.1,1215.6,413.8z"/>
				<path class="st48" d="M1190.4,344.4l14.2,24.3c0,0-22.2,1.9-21,54.1c0,0,25.8-12.5,58.5-9.9c0,0-16.3-47.8-24.4-61.5
					c0,0,3.4-5,2.1-8.8c-1.3-3.8-17.8-11-17.8-11h-12C1190,331.5,1182.6,332.7,1190.4,344.4z"/>
				<path class="st48" d="M1280.2,521c-6.5-17.8-23.3-65.8-32.3-91.4c-2.5-0.6-5-1.1-7.6-1.5c-6.2-0.8-14-0.3-20.2-0.1
					c9.3,22.1,27.7,36.7,27.7,36.7c6.9,31.5,29.5,55.4,29.5,55.4l0.5,2.1c4.5,7.1,7.8,5.9,7.8,5.9C1284.2,525,1280.2,521,1280.2,521
					z"/>
				<path class="st48" d="M1208.9,428.4c-8.3,1.2-16.5,3-24.3,6.2c-0.2,0.1-0.3,0.1-0.5,0.2c1.2,19,4.3,28,4.3,28
					c-16.6,16.6-26.3,57.3-26.3,57.3c-5.4,2.8-5.4,12.8-5.4,12.8l42.1-60.1c6.2-13,11-31.9,13.9-44.7
					C1211.4,428.1,1210.1,428.3,1208.9,428.4z"/>
				<path class="st48" d="M1161.9,299c0,0,3.5,31.5,28.1,31.9c0,0,3.5-1.6,8.8,13.4c0,0,1.6,3.5-0.6,5.2c-2.2,1.7-3.8,1.5-8.4-6.4
					c0,0-33.7-3.6-30.4-42.7c0,0-3.2,0.4-6.5-1.1c0,0,0.9-0.6,3.3-0.3c0,0-3.9-3-4.3-4.1c0,0-0.9-0.8-0.8-1.3
					C1151.1,293.5,1161.5,296.9,1161.9,299z"/>
				<path class="st48" d="M1201.2,330.9l-1.8-3.8c0,0,0.9-12.1-5.9-13.9c0,0-7.3,1.1-1.1,12.6l7,12.8c0,0,1,2.8,6.1,1.7
					C1210.5,339.2,1201.2,330.9,1201.2,330.9z"/>
				<path class="st48" d="M1202.7,331.2c0,0,24.4-0.7,23.3-12.2c-1.1-11.5-13.2-10.7-13.2-10.7l-2.3-2.7c0,0,0.9-0.8,3.1,1.2
					l1.6-1.7c0,0,16.4,2.8,15.6,16.3c-0.8,13.4-14.8,17-14.8,17S1206,332.3,1202.7,331.2z"/>
				<path class="st48" d="M1198,322c0.4,0.9,0.3,1.8-0.2,2c-0.5,0.2-1.2-0.4-1.6-1.3c-0.4-0.9-0.3-1.8,0.2-2
					C1196.9,320.5,1197.6,321.1,1198,322z"/>
				<path class="st48" d="M1196.5,338.5c0,0,3.7,9.7,7.3,9.3c3.7-0.4,15.8-0.8,16.2-4.7c0,0,0.5,4.1-2.3,8.2l1.3,2.4
					c0,0-6.4-1.2-13.6,3.5l8.6,12.1c0,0-22.1-8.8-5.5,45.6c0,0-11.9,1.7-24.9,7.7c0,0-2.8-47.2,21-54.1l-12.9-22.2
					c0,0,3.5,6,6.5,3.1C1201.2,346.5,1196.5,338.5,1196.5,338.5z"/>
				<path class="st48" d="M1210.7,310.8c0,1.5-1.2,2.7-2.7,2.7s-2.7-1.2-2.7-2.7c0-1.5,1.2-2.7,2.7-2.7S1210.7,309.3,1210.7,310.8z"
					/>
				<path class="st48" d="M1217.6,302.5l-7.7,8.6c0,0-1.1,0.8-2-0.3c-0.9-1,0-2,0-2l7.7-8.3c0,0,0.8-1,2,0
					C1218.9,301.6,1217.6,302.5,1217.6,302.5z"/>
				<path class="st48" d="M1210.3,310.7"/>
			</g>
		</g>
		<polygon class="st15" points="1340.3,348.3 1327.7,358.4 1340.7,362.8 1347,353.5 		"/>
		<path class="st18" d="M1301.5,385.6c0,0-30.8,45.9-54.4,114.8c0,0,6,4,11,5.3l11.6-12.3l7,19.3c0,0,36.7,4.9,66.5-15.2
			c0,0,20.1-66,7.2-132.6c0,0-25.8-11.6-39.9-6.3C1310.6,358.5,1309.2,372.9,1301.5,385.6z"/>
		<path class="st18" d="M1242,343.6c0,0,36.2,21.7,71.6,14.1c0,0,5.4,5.9,0,18.2c-5.4,12.3-15.5,14.6-15.5,14.6
			s-41.1-17.5-57.8-41.3l0.4-6.2L1242,343.6z"/>
		<path class="st15" d="M1240.9,342.9c0,0-8.6-4-15.4-2.3c0,0-0.2,1.7,3.8,2.3c0,0-1.6,1.7-0.5,3c0,0,0.5,1.7,1.5,2.4l10.1,0.7
			L1240.9,342.9z"/>
		<polygon class="st18" points="1207.1,631.9 1189.1,635 1210,635 		"/>
		<path class="st18" d="M1350.2,364.7c0,0,24.2,14.6,23.6,58c0,0-1.7,23.3-23.1,36.8l2.1-17.3c0,0,10.8-18.6,1.5-35.9
			C1354.2,406.3,1353,372.9,1350.2,364.7z"/>
		<path class="st15" d="M1338.5,337.2l-8.5,1v3.9c0,0-3.6,3.9-3.7,5.3c0,0,9.3-0.3,12.3-2.9C1338.5,344.7,1338.4,340,1338.5,337.2z"
			/>
		<path class="st18" d="M1338.4,344.7c0,0-3.8,2.3-12.3,2.9c0,0-7.1,2.9-5.3,9.6c0,0,4.6,0.1,8.7,1c0,0,5.5-1.4,11.4-7.5l1.3,3.5
			c0,0-4.9,3.9-3.8,6.3l5.8,1.9l2.5-2.5C1346.7,359.8,1343.1,353.7,1338.4,344.7z"/>
		<path class="st14" d="M1338,337.2c0,0,3.2-6.1,9.9-2c6.8,4.1,10.7,22.7,3.7,27.1c0,0-2.7,2.1-5.6-2.5l-8.1-15.1V337.2z"/>
		<polygon class="st18" points="1302.8,638 1325,638 1321.1,634.4 		"/>
		<polygon class="st39" points="1334.7,340 1335.6,342.9 1335.8,340 		"/>
	</g>
</g>
</svg>
