<?xml version="1.0" encoding="utf-8"?>
<!-- Generator: Adobe Illustrator 22.1.0, SVG Export Plug-In . SVG Version: 6.00 Build 0)  -->
<svg version="1.1" id="Слой_1" xmlns="http://www.w3.org/2000/svg" xmlns:xlink="http://www.w3.org/1999/xlink" x="0px" y="0px"
	 viewBox="0 0 954 883" style="enable-background:new 0 0 954 883;" xml:space="preserve">
<style type="text/css">
	.st0{fill:#1888ED;}
	.st1{fill:#F83461;}
	.st2{fill:#F1EDE1;}
	.st3{fill:#26346D;}
	.st4{fill:#1D56C0;}
	.st5{fill:#CACFD6;}
	.st6{opacity:0.5;fill:#1888ED;}
	.st7{fill:#F2A136;}
	.st8{opacity:0.2;fill:#1888ED;}
	.st9{clip-path:url(#SVGID_2_);fill:url(#SVGID_3_);}
	.st10{clip-path:url(#SVGID_2_);fill:#F83461;}
	.st11{clip-path:url(#SVGID_2_);fill:#CACFD6;}
	.st12{clip-path:url(#SVGID_2_);fill:#F1EDE1;}
	.st13{clip-path:url(#SVGID_2_);fill:#26346D;}
	.st14{clip-path:url(#SVGID_2_);fill:#D82A57;}
	.st15{clip-path:url(#SVGID_2_);fill:#F2A136;}
	.st16{opacity:0.2;clip-path:url(#SVGID_2_);fill:#3760BF;}
	.st17{clip-path:url(#SVGID_2_);fill:#AF2F7C;}
	.st18{clip-path:url(#SVGID_2_);fill:#DB8A2A;}
	.st19{opacity:0.2;fill:#3760BF;}
	.st20{opacity:0.4;fill:#1888ED;}
</style>
<g>
	<path class="st0" d="M339.9,782.5c0-3.1-0.7-5.5-4.2-5.5H232.5c-3.5,0-6.6,2.5-6.6,5.5v0.3c0,3.1,3.1,6.2,6.6,6.2h103.3
		c3.5,0,4.2-3.1,4.2-6.2V782.5z"/>
	<rect x="280.9" y="777" class="st0" width="5" height="94"/>
	<path class="st1" d="M281.4,576.2l2.7,16.2l-3,1.5c0,0-1,10.9-4.4,17l-6.1,2.3l-15.1,22.5l-16.6,5.9l20.8-43.6l-2.1-14.1
		C257.6,583.8,275.5,574.3,281.4,576.2z"/>
	<path class="st2" d="M232.6,767.2c0,0-24.8-29.2-27.8-76.8c-3-47.6,44.6-59.8,44.6-59.8s34.5,0.8,83.6,122.7l-99.9,15.3"/>
	<path class="st2" d="M211.7,659.9c0,0-12.8,17.1-15.6,69.1h19c0,0-0.8-27.7,4.1-38.9C219.2,690.1,222.5,666.9,211.7,659.9z"/>
	<path class="st3" d="M241.8,636.6l3.7-22.3l2-23.3c0,0,0-2.8,1.9-3.9l-1.3-3.2h2.9c0,0,2.1-11.7,18.9-16.7c0,0,14.1-3.2,15.1-6.2
		c0,0,1.5,8.6-3.4,15.1l-15.6,7.1l-1.3,8l-0.8,1.7L262,587c0,0-0.2-1.9-2.3-0.6c-2.1,1.3,0,11.4,0,11.4L241.8,636.6z"/>
	<path class="st4" d="M476.3,649.5c-142.2-38.9-225.9-185.6-187-327.7c38.9-142.2,185.6-225.9,327.7-187
		c142.1,38.8,225.9,185.6,187,327.7C765.2,604.6,618.4,688.3,476.3,649.5z"/>
	<path class="st4" d="M476.3,649.5c-142.2-38.9-225.9-185.6-187-327.7c38.9-142.2,185.6-225.9,327.7-187
		c142.1,38.8,225.9,185.6,187,327.7C765.2,604.6,618.4,688.3,476.3,649.5z"/>
	<rect x="121.9" y="729" class="st0" width="329" height="8"/>
	<path class="st5" d="M287.5,695c0,3.4-2.7,6.1-6.1,6.1c-3.4,0-6.1-2.7-6.1-6.1c0-3.4,2.7-6.1,6.1-6.1
		C284.8,688.9,287.5,691.7,287.5,695z"/>
	<rect x="134.9" y="732" class="st0" width="71" height="150"/>
	<rect x="384.9" y="732" class="st0" width="49" height="150"/>
	<polygon class="st0" points="479.9,883 458.6,883 451,849 487.5,849 	"/>
	<path class="st0" d="M491.9,846.4c0,2-1.6,3.6-3.6,3.6h-38.8c-2,0-3.6-1.6-3.6-3.6v-0.8c0-2,1.6-3.6,3.6-3.6h38.8
		c2,0,3.6,1.6,3.6,3.6V846.4z"/>
	<rect x="147.9" y="702" class="st1" width="21" height="27"/>
	<path class="st6" d="M309.4,576c0,6.4-5.2,11.5-11.5,11.5c-6.4,0-11.5-5.2-11.5-11.5c0-6.4,5.2-11.5,11.5-11.5
		C304.2,564.5,309.4,569.7,309.4,576z"/>
	<path class="st7" d="M462,842c0,0-18.7-48.5-14.9-81.4c0,0,17.4,20.4,19.4,81.4H462z"/>
	<path class="st1" d="M465.3,737.3c0,0-19.6,57.7,0,104.7h6.6C471.9,842,477.8,761,465.3,737.3z"/>
	<path class="st7" d="M497.1,728.1c0,0-35.8,49.9-29,113.9h6.9C475,842,507,765.2,497.1,728.1z"/>
	<path class="st1" d="M506,768.7c0,0-2,18.3-24.9,73.3H475C475,842,485.9,777.8,506,768.7z"/>
	<rect x="36.9" y="557" class="st0" width="83" height="325"/>
	<rect x="43.9" y="564" class="st4" width="69" height="315"/>
	<rect x="46.9" y="765" class="st0" width="63" height="111"/>
	<path class="st4" d="M82,678.9l8.3-26l-8.3-3.4l-9.8,29.9l-24.9,99c-3-0.9-8.5-3.2-7.8-8.7c0.7-5.5,1.2-11.1-1.5-13.3v126
		c21.6-1.4,41.3-17,39.4-35.4c-1.8-17.8-12.5-26.1-4-43.9c0,0,14.4-18.2,2.1-26.8c-11.2-8-18.3,2.4-19.4,4.1l22-101.1L82,678.9z"/>
	<rect x="41.9" y="614" class="st0" width="71" height="5"/>
	<rect x="41.9" y="675" class="st0" width="71" height="7"/>
	<rect x="41.9" y="757" class="st0" width="72" height="6"/>
	<path class="st8" d="M169.8,610.2c0,0-17.9,32.5-6.1,52.1c11.8,19.5-4,35.8-4,35.8s5.6-12.5-8.5-28.4
		C137,653.9,152.6,625.1,169.8,610.2z"/>
	<path class="st1" d="M165.7,724.8l-0.2-3c0.6,0,5.9-0.6,5.9-5.7c0-5-5.3-5.3-5.9-5.3l0.1-3c3.1,0.1,8.9,1.9,8.9,8.4
		C174.5,722.4,168.7,724.5,165.7,724.8z"/>
	<path class="st3" d="M355.2,861.9c0,0-93.9-48.3-120.3-88.6c0,0-8.1-15.4,1.1-19.4h98.8c0,0,7.9,8.2-0.3,23.4l-41,13.1l-25.7-14.9
		c0,0,50.9,20.3,90,84.3L355.2,861.9z"/>
	<polygon class="st0" points="330.2,869.8 280.9,856.9 280.9,864.4 328.3,873.5 	"/>
	<path class="st0" d="M333.8,873.5c0,3.5-2.8,6.3-6.3,6.3c-3.5,0-6.3-2.8-6.3-6.3c0-3.5,2.8-6.3,6.3-6.3
		C331,867.3,333.8,870.1,333.8,873.5z"/>
	<path class="st3" d="M294.5,754c0,0-6.2,3.4-3.6,19.7C293.5,790,310.6,879,310.6,879h5.8c0,0,7.9-66.3,0-95.8c0,0,16.4-2.4,18-6
		c1.7-3.6,6.1-17.3,0.3-23.5c-5.8-6.2-1.8,0.2-1.8,0.2H294.5z"/>
	<polygon class="st1" points="292.7,882 309.8,874.3 316.8,875.4 316.5,881.4 	"/>
	<polygon class="st1" points="357.7,859.9 362.4,865.1 349.6,881 342.5,881 346.9,877.1 355.2,861.7 	"/>
	<polygon class="st0" points="236.6,869.8 285.9,856.9 285.9,864.4 238.6,873.5 	"/>
	<path class="st0" d="M244.1,873.5c0,3.5-2.8,6.3-6.3,6.3c-3.5,0-6.3-2.8-6.3-6.3c0-3.5,2.8-6.3,6.3-6.3
		C241.3,867.3,244.1,870.1,244.1,873.5z"/>
	<path class="st0" d="M288.9,874.9c0,2.7-3.2,5-6.5,5l0,0c-3.3,0-6.5-2.2-6.5-5v-3c0-2.7,3.2-5,6.5-5l0,0c3.3,0,6.5,2.2,6.5,5V874.9
		z"/>
	<polygon class="st3" points="279.9,584.9 275.3,586.2 279.4,586.8 	"/>
	<path class="st2" d="M196.1,729c0,0-0.5-15.9,15.5-16.9c0,0,7.9,0.3,11.4,5.3c0,0-8,0.6-7.9,11.6H196.1z"/>
	<path class="st1" d="M223,717.2c0,0,11.4-2.5,13.7,4.4c0,0-5.3,1.7-10,4.4c0,0-6,3-12.1,3C214.6,729,216.4,719.7,223,717.2z"/>
	<path class="st2" d="M236.7,721.6c0,0,6,2.4,6.4,7.4h-28.5c0,0,10.8-1.8,15.5-5.1L236.7,721.6z"/>
	<path class="st2" d="M315.5,715.3c0,0,13.6,2.7,13.8,13.7h-30.2C299.1,729,298.9,715.3,315.5,715.3z"/>
	<path class="st1" d="M324.3,729c0,0-4.5-9.3-17.6-7.6c0,0-8.8,2.6-8.5,7.6H324.3z"/>
	<path class="st2" d="M43.5,768.7c0,0-8.9-1.8-8.1-10c0.8-8.3,1.3-16.6-4.8-15.6c-6.1,1-10.7,20.8-7.9,39.6
		c2.8,18.8-9.1,31.3-9.1,31.8c0,0.5-11.2,13.4-13.2,26.9c-2,13.5,4.8,36.8,25.7,40.8c20.8,3.9,42.7-15.2,40.9-38.5
		c-1.5-19.6-10.4-28.7-3.3-48.3c0,0,11.9-19.9,1.8-29.5c-10.2-9.5-16.2,4.8-16.2,4.8L43.5,768.7z"/>
	<polygon class="st3" points="45.9,840.8 21.9,837.9 21.9,833.3 45.9,835.5 	"/>
	<rect x="72.9" y="629" class="st0" width="10" height="46"/>
	<rect x="58.9" y="629" class="st0" width="11" height="46"/>
	<path class="st4" d="M67.3,668.4c0,1.4-1.1,2.5-2.5,2.5c-1.4,0-2.5-1.1-2.5-2.5c0-1.4,1.1-2.5,2.5-2.5
		C66.2,665.9,67.3,667,67.3,668.4z"/>
	<path class="st4" d="M80.8,668.4c0,1.4-1.1,2.5-2.5,2.5s-2.5-1.1-2.5-2.5c0-1.4,1.1-2.5,2.5-2.5S80.8,667,80.8,668.4z"/>
	<rect x="99.9" y="629" class="st0" width="10" height="46"/>
	<rect x="85.9" y="629" class="st0" width="11" height="46"/>
	<path class="st4" d="M94.3,668.4c0,1.4-1.1,2.5-2.5,2.5c-1.4,0-2.5-1.1-2.5-2.5c0-1.4,1.1-2.5,2.5-2.5
		C93.2,665.9,94.3,667,94.3,668.4z"/>
	<path class="st4" d="M107.8,668.4c0,1.4-1.1,2.5-2.5,2.5c-1.4,0-2.5-1.1-2.5-2.5c0-1.4,1.1-2.5,2.5-2.5
		C106.7,665.9,107.8,667,107.8,668.4z"/>
	<rect x="99.9" y="712" class="st0" width="10" height="46"/>
	<rect x="85.9" y="712" class="st0" width="11" height="46"/>
	<path class="st4" d="M94.3,752c0,1.4-1.1,2.5-2.5,2.5c-1.4,0-2.5-1.1-2.5-2.5c0-1.4,1.1-2.5,2.5-2.5
		C93.2,749.5,94.3,750.6,94.3,752z"/>
	<path class="st4" d="M107.8,752c0,1.4-1.1,2.5-2.5,2.5c-1.4,0-2.5-1.1-2.5-2.5c0-1.4,1.1-2.5,2.5-2.5
		C106.7,749.5,107.8,750.6,107.8,752z"/>
	<rect x="60.9" y="568" class="st0" width="11" height="46"/>
	<rect x="46.9" y="568" class="st0" width="12" height="46"/>
	<path class="st4" d="M55.5,607.1c0,1.4-1.1,2.5-2.5,2.5c-1.4,0-2.5-1.1-2.5-2.5c0-1.4,1.1-2.5,2.5-2.5
		C54.4,604.7,55.5,605.8,55.5,607.1z"/>
	<path class="st4" d="M69,607.1c0,1.4-1.1,2.5-2.5,2.5c-1.4,0-2.5-1.1-2.5-2.5c0-1.4,1.1-2.5,2.5-2.5C67.9,604.7,69,605.8,69,607.1z
		"/>
	<rect x="87.9" y="568" class="st0" width="11" height="46"/>
	<rect x="73.9" y="568" class="st0" width="12" height="46"/>
	<path class="st4" d="M82.5,607.1c0,1.4-1.1,2.5-2.5,2.5c-1.4,0-2.5-1.1-2.5-2.5c0-1.4,1.1-2.5,2.5-2.5
		C81.4,604.7,82.5,605.8,82.5,607.1z"/>
	<path class="st4" d="M96,607.1c0,1.4-1.1,2.5-2.5,2.5c-1.4,0-2.5-1.1-2.5-2.5c0-1.4,1.1-2.5,2.5-2.5C94.9,604.7,96,605.8,96,607.1z
		"/>
	<path class="st4" d="M106.9,812.8c0,2.2-1.8,4-4,4c-2.2,0-4-1.8-4-4c0-2.2,1.8-4,4-4C105.1,808.8,106.9,810.6,106.9,812.8z"/>
	<polygon class="st3" points="67.5,659.4 41.8,814.9 33.5,808.8 62.6,659.4 70.7,626.5 77.6,630.2 70.7,658.8 	"/>
	<rect x="251.9" y="727" class="st4" width="55" height="2"/>
	<g>
		<g>
			<defs>
				<path id="SVGID_1_" d="M476.2,649.5c-142.2-38.9-225.9-185.6-187.1-327.7c38.9-142.2,185.6-225.9,327.7-187
					c142.2,38.8,225.9,185.6,187,327.7C765.1,604.6,618.4,688.3,476.2,649.5z"/>
			</defs>
			<clipPath id="SVGID_2_">
				<use xlink:href="#SVGID_1_"  style="overflow:visible;"/>
			</clipPath>
			
				<linearGradient id="SVGID_3_" gradientUnits="userSpaceOnUse" x1="-401.5132" y1="185.5456" x2="20.8277" y2="185.5456" gradientTransform="matrix(0.7167 -0.6974 0.6974 0.7167 564.3742 -6.1404)">
				<stop  offset="0" style="stop-color:#2F54BF"/>
				<stop  offset="1" style="stop-color:#E93667"/>
			</linearGradient>
			<circle class="st9" cx="557.4" cy="259.6" r="211.2"/>
			<path class="st10" d="M444.2,149.4c0,0,23.1,205.1,83.5,223.8c60.3,18.7,84.2,22.6,79.7,74.8l-1,184.5l-173.2,58.7l12.3-207.1
				c0,0-46.1-203.5-39.6-311.9C405.8,172.2,438.4,164.2,444.2,149.4z"/>
			<path class="st10" d="M607.4,448c0,0,1.6,80.8,67,93.3L622.5,597l-42.4-74.5L607.4,448z"/>
			<path class="st11" d="M564.5,481.1l42.8-33.1c0,0,1.1-21.7,0-25.4c-1.1-3.7-47.4,34.5-47.4,34.5L564.5,481.1z"/>
			<path class="st12" d="M547,258c0,0-2.9,45.6-19.4,115.2c0,0,21.1,40.2,29.6,68.1c0,0,30.2-102.6,33.6-115.6
				c0,0,20.8-5.3,26.6-23.2c0,0,20.7-76.7,20.2-110.8c0,0-45.2-9.8-86.4,23.3C551.3,214.9,547.9,232.1,547,258z"/>
			<path class="st12" d="M608.3,221.5c0,0-11.3-13.8-24.8,0l23.9,0.7L608.3,221.5z"/>
			<path class="st10" d="M583.4,221.5l-2.8-0.8c0,0,4.9-7.3,15.2-7.3c8.8,0,13.6,7.2,13.6,7.2l-1.1,1c0,0-5.4-6.2-11.9-6.1
				C596.4,215.3,589.8,214.6,583.4,221.5z"/>
			<path class="st13" d="M612.1,208.8l-3.5,2.5c0,0-0.2,0.7-2.2,0.3c-2-0.4-13.3-4.5-23.7-0.4c0,0,11-8.1,27.8-3.7
				C610.5,207.6,611.9,207.9,612.1,208.8z"/>
			<path class="st10" d="M621.5,223.3c0,0,8.3-4.3,13.4,0.1l0.3-2.1c0,0-5.8-6.8-14.5,0.3L621.5,223.3z"/>
			<path class="st12" d="M621.5,223.3c0,0,2.3,3,12.9,3l0.5-2.9C634.9,223.4,630.1,218.5,621.5,223.3z"/>
			<path class="st13" d="M631,221.4c0,0,1.8,0.9,0,4.8c0,0-6.2-1.2-6.9-1.5c0,0-0.7-1.2-0.4-2.6C623.7,222.2,626.9,220.5,631,221.4z
				"/>
			<path class="st10" d="M619.8,211.8c0,0,3.8-0.4,4,6.6l3,29.5c0,0,0.9,5.3-4.7,5.3c-4.6,0-6.1-2.6-6.1-6.7
				c0-4.1,0.7-28.9,0.7-28.9S616.8,211.8,619.8,211.8z"/>
			<path class="st14" d="M618.8,212.1c0,0-4.9,2.4-6.9,8.8l-8.6,28.7c0,0-1.3,7.2,8.9,7.5c10.2,0.3,13.2-2,14.7-7
				c0,0-0.5,3.1-4.6,3.2c-4.1,0.1-6.1-2.6-6.1-5.5l0.8-31C616.9,216.6,616.9,213,618.8,212.1z"/>
			<path class="st15" d="M587.5,239.9c0.9,2.4,0.3,4.8-1.4,5.4c-1.7,0.6-3.7-0.8-4.7-3.1c-0.9-2.4-0.3-4.8,1.4-5.4
				C584.5,236.1,586.6,237.5,587.5,239.9z"/>
			<path class="st16" d="M562.7,240.5c0,0-4.4-1.1-3.3-11.1c0,0,0.9-6.4,4.4-6.4c0,0,1.4,0.1,1.2,1.1L562.7,240.5z"/>
			<path class="st17" d="M590.2,265.5l10.2,1.9c0,0,8.8,0.6,11.8-1c0,0,3,1.8,8.5,1.1l5.2,1.1l-0.7,2.9c0,0-2,1.7-9.2,1.4
				c-7.3-0.2-23.3-4.2-26.7-6.5L590.2,265.5z"/>
			<path class="st16" d="M602.2,279.3c0,0,5.9,3.5,14.6,3c0,0,4.6,0.1,6.5-3l-3.6,14.7c0,0-1.5-6.1-8.1-6.1
				c-6.7,0-12.7,4.5-12.7,4.5L602.2,279.3z"/>
			<path class="st13" d="M595,215.3c0,0,2.4,2.5,0,6.5l-6.8-0.2c0,0-1.4-0.4-1.5-2.9C586.7,218.7,590.7,215.4,595,215.3z"/>
			<path class="st16" d="M582.1,210.2c0,0-18.3,69.2-3.8,87.4c14.5,18.3,35.5,12.2,35.5,12.2s-7.2,11.7-22.9,15.7L529.2,376
				l-1.5-2.8c0,0,15.2-65.4,19.4-115.2c0,0,11.5,1.7,12.5-11.2c0,0,1.3,2.2,3.6,3l1.1-8c0,0,1.8-0.2,2.6-3.2l5.6-21.5
				C572.5,217.1,579.1,211.9,582.1,210.2z"/>
			<path class="st13" d="M624.5,210.2c0,0-1,0.7-0.2,1.8c0,0,1.1,3.2,4,2.6c2.9-0.6,5.9-2.1,7.9-1.2l0.4-3.6
				C636.6,209.7,632.6,207.7,624.5,210.2z"/>
			<path class="st16" d="M496.9,343.1l27.5,19.2l12.6,56.5l33.4,124.7l-8.2-2.3c-12.2-37.4-93.4-101.2-93.4-101.2
				c-14.5-9-7.9-18.1-7.9-18.1l47.5-42l-38.5-16.5c0,0,12.6-18.4,25.9-20.8"/>
			<path class="st15" d="M632.3,237.6c0,0-5,4.2-3.5,7.3c0,0,0.5,1.2,1.9,1L632.3,237.6z"/>
			<path class="st18" d="M527.7,373.2l-41.8-12.7c0,0,14.3-39.2,51.7-35.8L527.7,373.2z"/>
			<path class="st18" d="M586.5,341.4c0,0,32.1,31.1,42,64.9l-65.4,64.9l-5.8-30.1L586.5,341.4z"/>
			<path class="st15" d="M522.2,371.5L475.3,403c0,0-10.2,6.8,0,15c0,0,86.5,82.2,95.5,136.4l10.3,10.6l-23.7-123.9
				c0,0-14.2-49.1-29.6-68.1C527.7,373.2,525.5,372.5,522.2,371.5z"/>
			<path class="st10" d="M757.8,530.7c0,0,4.2,20.1-20.8,48.3c0,0-16.9-28.8-39.9-39.7c0,0,25.3-7.2,30-10.2
				C727.1,529.2,730.3,531.4,757.8,530.7z"/>
			<path class="st12" d="M688.4,518.5c0,0-6.4-12.7,5.1-37.3c9.5-20.4-0.4-30.1-12-30.1c-5.5,0-25.5,12.6-42.6,44.2
				c-17.1,31.6-41,49.6-72.1,44.1c-52.7-9.4-174.8,47-122.8,155.7c51.8,108.3,169.7,51.6,193.5-0.6c19.6-42.9,33.8-61.1,80.4-71
				c0,0,34-9,31.2-48.9c-2.5-35-46.6-44.1-46.6-44.1S695.9,528.4,688.4,518.5z"/>
			<path class="st13" d="M614.9,419.9l73.8,32.5c0,0-6-6.6-25.5,10.2l-56.8-34.4L614.9,419.9z"/>
			<path class="st13" d="M432.9,424.3l10.6,185.4c0,0-15.4,30.4-8.8,54.6l-7.3-274.1C427.4,390.2,432.6,419.5,432.9,424.3z"/>
			<polygon class="st13" points="534.8,615.2 581.8,682.1 564.2,693.8 525.4,634.3 			"/>
			<path class="st10" d="M504.2,540.8c0,0,25.4-12.3,26.2-31.8c0,0-0.5-10.4-10.5-11.9c-9.9-1.5-12.7,6.6-12.7,6.6
				s-0.8-10.6-12.8-9.6c0,0-12.6,2.5-11.3,14.8C484.8,525.4,504.2,540.8,504.2,540.8z"/>
		</g>
		<path class="st2" d="M444.2,149.4c0,0,3.3-94.8-29.3-149.1c0,0-7.5,6.4-5.2,15.7c0,0,7.3,19.9,7.3,25.4c0,0-10.6-1.7-13.6,8.9
			c0,0-9.3,5.1-11,12.3c0,0-9.7,5.5-9.7,13.6c0,0-2.5,20.8,11,36c0,0,1,21.6,16,28.8l0.4,30C410.1,171,439.8,162.6,444.2,149.4z"/>
		<path class="st19" d="M443.3,152.9c0,0,5.3-98.4-27.4-152.6c0,0-7.5,6.4-5.2,15.7c0,0,7.3,19.9,7.3,25.4c0,0-10.6-1.7-13.6,8.9
			c0,0-9.3,5.1-11,12.3c0,0-9.7,5.5-9.7,13.6c0,0-2.5,20.8,11,36c0,0,1,21.6,16,28.8l0.2,30.1C410.8,171.1,439.7,163.8,443.3,152.9z
			"/>
		<path class="st2" d="M419.1,44.4c0,0,9.3,13.5,19.7,30.1c0,0,5.1,38.2,3.3,57.7c0,0-32.4-22.1-17.1-48.6
			C425.1,83.5,408.1,53.5,419.1,44.4z"/>
		<path class="st3" d="M859.9,355L580.1,615.2l16.5,34.3l274.9-282.8c0,0,6.8-1.5,16-4.4c9.2-2.9,66.3-59.7,66.3-59.7l-6.3-25.5
			c0,0-3.4-7.9-8.7-3.8L859.9,355z"/>
		<path class="st2" d="M757.8,530.7c0,0,25.6-43.1,22.7-62.4c-2.9-19.3-22.3-40.3-26.8-43.2c0,0-5.2,9,1.6,16.1
			c0,0,9.6,14.8,12.6,27.5c0,0-1.9,3.4-4.2,0c0,0-6.8-18.2-17.7-22.4c0,0-3.2-1-8.4,4.7c0,0-1.3,3.7,1.3,5.6c0,0,10,13.7,12.7,20.5
			c0,0,0.6,0.8-0.5,1.6c0,0-8.2-16.1-13.9-21.3c0,0-3.5-2.6-5.6-0.3c-2.1,2.3-5.5,6.3-2.9,13.1c0,0,9,13.4,11.1,17.3l-0.2,1
			l-11.9-17.9c0,0-3.4-2.5-6.5,0.7c-3.1,3.2-1.5,11.5,3.9,23.6c5.3,12.1,4.8,10.5,4.8,10.5s-2.4,15.3-3.2,26.3c0,0,4.4,13.2,20,8.5
			C754.9,537.8,757.8,530.7,757.8,530.7z"/>
	</g>
	<path class="st3" d="M652.4,116.3c0,0,25.1,50.2-17.1,76.5c0,0-43,5.9-63.3,23.9l-5.8,23.7c0,0-1.4,2.3-3.3,3l2.1-22.6
		c0,0-1.1-3.9-5.3-1.1c-4.2,2.7-8,15.5,0.3,28.8c0,0-2.6,13.9-14.6,13.1c0,0-2-49.5,6.1-62.7c0,0,1.5-2.8,4.8-3.1
		c0,0-4.4-3.1-6.8-2.7c0,0,5-8.1,10.3-5.9c0,0,1.9-7.4,6.2-12.6C574.5,164.6,646.2,140.6,652.4,116.3z"/>
	<path class="st6" d="M423,529.5c0,31.9-25.8,57.7-57.7,57.7c-31.9,0-57.7-25.8-57.7-57.7c0-31.9,25.8-57.7,57.7-57.7
		C397.2,471.8,423,497.7,423,529.5z"/>
	<g>
		<path class="st0" d="M353.5,705.4c0,5.5-4.5,10-10,10H219.1c-5.5,0-10-4.5-10-10v-80.2c0-5.5,4.5-10,10-10h124.4
			c5.5,0,10,4.5,10,10V705.4z"/>
	</g>
	<rect x="265.9" y="670" class="st4" width="30" height="59"/>
	<rect x="225.9" y="705" class="st4" width="17" height="4"/>
	<path class="st0" d="M287.1,698.3c0,3.6-2.9,6.6-6.6,6.6c-3.6,0-6.6-2.9-6.6-6.6c0-3.6,3-6.6,6.6-6.6
		C284.2,691.7,287.1,694.7,287.1,698.3z"/>
	<polygon class="st20" points="310.4,240.5 315.8,275.7 351.3,285.7 323.5,302.6 329.5,356.3 292,314 251.6,327.4 273.5,292 
		251.6,259.1 290.3,267.9 	"/>
	<polygon class="st20" points="776.8,360.8 779,375.3 793.5,379.4 782.1,386.3 784.6,408.4 769.2,391 752.6,396.5 761.6,382 
		752.6,368.5 768.5,372.1 	"/>
	<polygon class="st1" points="712.7,236.4 716.4,275.1 741.8,279.5 723.7,293.3 727.1,321.8 702.6,303.5 675.4,315.8 688.1,289.5 
		670.4,268.2 698,271.5 	"/>
	<rect x="134.9" y="737" class="st0" width="299" height="20"/>
	<rect x="134.9" y="737" class="st4" width="299" height="11"/>
</g>
</svg>
