<svg width="1020" height="361" viewBox="0 0 1020 361" fill="none" xmlns="http://www.w3.org/2000/svg">
<path opacity="0.05" fill-rule="evenodd" clip-rule="evenodd" d="M0 291.747V38.8492C41.2883 53.9068 86.3706 60.8335 131 50.9999C164.138 43.6983 195.585 35.4629 224.882 27.7906C325.989 1.31292 401.487 -18.4585 432.5 29.9999C435.647 34.9168 438.695 39.7717 441.687 44.5387C476.734 100.367 504.21 144.135 594.5 134C608.798 132.395 622.638 130.609 635.895 128.899C713.503 118.885 771.116 111.451 783.5 158C798 212.5 849.5 242 920 237C990.5 232 1048.5 283.5 1003.5 317C977.88 336.072 935.081 322.569 888.759 307.955C853.718 296.899 816.662 285.208 783.5 286.5C746.77 287.931 739.507 304.721 732.078 321.891C723.934 340.717 715.592 360 668 360C625.689 360 610.725 344.11 594.713 327.107C576.287 307.541 556.472 286.5 492 286.5C427.264 286.5 385.329 310.888 349.448 331.754C318.54 349.729 292.126 365.09 259.5 360C225.423 354.683 209.219 325.769 193.272 297.311C176.226 266.895 159.473 237 121.5 237C82.8104 237 49.3854 259.167 17.7246 280.164C11.7616 284.118 5.8612 288.031 0 291.747Z" fill="#0063DA"/>
</svg>
