<svg width="436" height="533" viewBox="0 0 436 533" fill="none" xmlns="http://www.w3.org/2000/svg">
<path opacity="0.4" d="M323.944 247.168H324C324.833 247.168 325.667 247.281 326.5 247.337C331.278 235.836 341.333 228 352.944 228H353.056C368.278 228 380.778 241.305 382.278 258.725C382.333 258.725 382.389 258.443 382.389 258.443H382.444C387.611 258.443 392.333 260.191 396 263.799C398.278 262.446 400.889 261.262 403.611 261.262H403.667C413.167 261.262 421.5 271.409 421.5 282.628V282.685C421.5 283.136 421.167 283.981 421.167 284.432C422.111 284.15 422.778 284.376 423.778 284.376H423.833C430.389 284.376 436 289.901 436 297.568V297.624C436 305.291 430.333 312 423.833 312H423.778C423.611 312 423.444 312 423.222 312C423.111 312 422.944 312 422.833 312H377.111H371.778H326.056C325.833 312 325.611 312 325.389 311.944C324.944 311.944 324.444 312 324 312H323.944C308.833 312 296 297.117 296 279.302V279.189C296 261.431 308.833 247.168 323.944 247.168Z" fill="#1888ED"/>
<path opacity="0.5" d="M136.372 59.2532C134.476 59.2532 132.65 59.7257 130.965 60.1308C128.156 47.9114 116.78 39 103.227 39H103.157C93.8173 39 85.5311 43.2532 80.4049 49.8692C78.5792 49.4641 76.6832 49.1266 74.7872 49.1266H74.717C61.9366 49.1266 50.4905 58.8481 50.4905 71.135V71.2025C50.4905 71.7426 51.0522 72.1477 51.1225 72.6203C49.8585 72.3502 49.1563 72.0127 47.8221 72.0127H47.7518C39.255 72.0127 32.303 78.5612 31.9519 86.6624C28.0195 87.3375 25 90.8481 25 94.7637C25 99.2194 28.7217 103 33.3563 103H47.7518H47.8221H68.5375H101.823H136.442H136.512H137.004C137.214 103 136.933 102.865 137.144 102.797C149.082 102.19 158 92.6034 158 80.9916V80.924C157.86 69.1097 148.871 59.2532 136.372 59.2532Z" fill="#F83461"/>
<path opacity="0.4" d="M29.5932 254L32.3109 271.716L50.1776 276.749L36.1862 285.254L39.2059 312.28L20.3327 290.991L0 297.736L11.022 279.919L0 263.361L19.4771 267.79L29.5932 254Z" fill="#1888ED"/>
<path opacity="0.5" d="M414.289 164L416.151 183.477L428.935 185.692L419.825 192.637L421.536 207.031L409.206 197.77L395.516 203.961L401.908 190.724L393 180.004L406.891 181.665L414.289 164Z" fill="#F83461"/>
<path opacity="0.5" d="M52.4914 439.373C54.0378 444.115 51.9415 449.142 47.7835 450.603C43.6598 452.065 39.055 449.356 37.5086 444.614C35.9623 439.872 38.0584 434.845 42.2165 433.383C46.3402 431.957 50.945 434.631 52.4914 439.373Z" fill="#F83461"/>
<path fill-rule="evenodd" clip-rule="evenodd" d="M128.916 0H310.982C333.082 0 350.998 17.8887 350.998 39.9551V122.861C351.557 122.861 352.104 122.978 352.605 123.197C353.057 123.395 353.473 123.676 353.828 124.031C354.578 124.781 355 125.797 355 126.857V178.799C355 179.858 354.578 180.874 353.828 181.624C353.078 182.373 352.061 182.794 350.998 182.794V493.045C350.998 515.111 333.082 533 310.982 533H128.916C106.816 533 88.9004 515.111 88.9004 493.045V195.778C87.875 195.752 86.8984 195.335 86.1719 194.609C85.4219 193.859 85 192.844 85 191.784V160.818C85 159.759 85.4219 158.743 86.1719 157.993C86.8984 157.268 87.875 156.851 88.9004 156.824V147.832C87.875 147.806 86.8984 147.389 86.1719 146.663C85.4219 145.914 85 144.897 85 143.838V112.873C85 111.813 85.4219 110.797 86.1719 110.048C86.8984 109.322 87.875 108.904 88.9004 108.878V91.8955C87.875 91.8691 86.8984 91.4512 86.1719 90.7256C85.8223 90.377 85.543 89.9697 85.3457 89.5273C85.1191 89.0205 85 88.4668 85 87.9004V74.915C85 73.8555 85.4219 72.8398 86.1719 72.0898C86.8984 71.3643 87.875 70.9473 88.9004 70.9209V39.9551C88.9004 17.8887 106.816 0 128.916 0Z" fill="url(#paint0_linear)"/>
<path fill-rule="evenodd" clip-rule="evenodd" d="M160.615 30.1787C163.617 33.1768 167.688 34.8604 171.934 34.8604H267.969C272.213 34.8604 276.285 33.1768 279.287 30.1787C282.289 27.1816 283.975 23.1172 283.975 18.8779V17.8857C284.008 16.832 284.443 15.832 285.191 15.0879C285.746 14.5352 286.443 14.1553 287.199 13.9844H310.982C325.348 13.9844 336.992 25.6123 336.992 39.9551V493.088C336.992 507.432 325.348 519.059 310.982 519.059H128.916C114.551 519.059 102.906 507.432 102.906 493.088V39.9551C102.906 25.6123 114.551 13.9844 128.916 13.9844H152.822C153.074 14.042 153.318 14.124 153.555 14.2285C153.982 14.4189 154.375 14.6846 154.715 15.0176C155.461 15.7373 155.896 16.7197 155.928 17.7549V18.8779C155.928 23.1172 157.613 27.1816 160.615 30.1787Z" fill="#FBFBFB"/>
<defs>
<linearGradient id="paint0_linear" x1="355" y1="0" x2="4.20211" y2="59.9122" gradientUnits="userSpaceOnUse">
<stop stop-color="#FC2E5F"/>
<stop offset="1" stop-color="#0063DA"/>
</linearGradient>
</defs>
</svg>
