<svg width="26" height="26" viewBox="0 0 26 26" fill="none" xmlns="http://www.w3.org/2000/svg">
<path d="M13.287 16.1075C13.1867 16.2215 12.9897 16.2444 12.9897 16.2444H12.3378C12.3378 16.2444 10.8991 16.3355 9.63148 14.948C8.25002 13.4344 7.02947 10.4322 7.02947 10.4322C7.02947 10.4322 6.95924 10.2357 7.03561 10.1404C7.12152 10.0335 7.35541 10.0263 7.35541 10.0263L8.91416 10.0163C8.91416 10.0163 9.06144 10.0421 9.16645 10.1231C9.25305 10.1898 9.30146 10.3146 9.30146 10.3146C9.30146 10.3146 9.55375 10.985 9.88718 11.5909C10.5384 12.7747 10.8418 13.0336 11.0634 12.9067C11.3859 12.7217 11.2891 11.2338 11.2891 11.2338C11.2891 11.2338 11.2952 10.6932 11.1268 10.453C10.9966 10.2665 10.7511 10.2121 10.6427 10.197C10.5547 10.1848 10.6986 9.97041 10.8854 9.87433C11.1657 9.73021 11.6614 9.7216 12.2464 9.72806C12.7026 9.73308 12.8335 9.76319 13.0122 9.80836C13.426 9.91329 13.4131 10.25 13.3853 10.9767C13.3771 11.1936 13.3674 11.4452 13.3674 11.7357C13.3674 11.8013 13.3656 11.8712 13.3637 11.9432C13.354 12.3149 13.3429 12.7408 13.5754 12.8988C13.6947 12.9798 13.9873 12.911 14.7175 11.6067C15.0639 10.9886 15.3237 10.2615 15.3237 10.2615C15.3237 10.2615 15.3803 10.1325 15.4683 10.0765C15.559 10.0199 15.6803 10.0371 15.6803 10.0371L17.3195 10.0271C17.3195 10.0271 17.8125 9.96539 17.8923 10.1991C17.9762 10.4444 17.7082 11.018 17.0379 11.9573C16.3997 12.8517 16.0903 13.1788 16.1212 13.4696C16.1436 13.6803 16.3445 13.8721 16.7284 14.2468C17.5386 15.0375 17.753 15.4514 17.803 15.548C17.8069 15.5554 17.8098 15.561 17.8119 15.5647C18.1732 16.195 17.4109 16.2444 17.4109 16.2444L15.9538 16.266C15.9538 16.266 15.6408 16.3312 15.2289 16.0336C15.0136 15.878 14.803 15.6242 14.6024 15.3823C14.2955 15.0122 14.0118 14.6702 13.7697 14.7509C13.3633 14.8864 13.3763 15.8063 13.3763 15.8063C13.3763 15.8063 13.3797 16.0028 13.287 16.1075Z" fill="#808792"/>
<path fill-rule="evenodd" clip-rule="evenodd" d="M13 0.5C6.09644 0.5 0.5 6.09644 0.5 13C0.5 19.9036 6.09644 25.5 13 25.5C19.9036 25.5 25.5 19.9036 25.5 13C25.5 6.09644 19.9036 0.5 13 0.5ZM1.5 13C1.5 6.64873 6.64873 1.5 13 1.5C19.3513 1.5 24.5 6.64873 24.5 13C24.5 19.3513 19.3513 24.5 13 24.5C6.64873 24.5 1.5 19.3513 1.5 13Z" fill="#808792"/>
</svg>
