<svg width="11" height="8" viewBox="0 0 11 8" fill="none" xmlns="http://www.w3.org/2000/svg">
<path fill-rule="evenodd" clip-rule="evenodd" d="M5.98968 7.24444C5.98968 7.24444 6.18674 7.2215 6.28698 7.10749C6.37971 7.0028 6.3763 6.80634 6.3763 6.80634C6.3763 6.80634 6.36335 5.88638 6.76974 5.75087C7.17 5.6175 7.68412 6.63999 8.22894 7.03364C8.64079 7.3312 8.95376 7.26595 8.95376 7.26595L10.4109 7.24444C10.4109 7.24444 11.1732 7.19497 10.8119 6.5647C10.7825 6.51307 10.6012 6.09863 9.72837 5.24679C8.81466 4.3548 8.9374 4.49964 10.0379 2.95731C10.7082 2.018 10.9762 1.44437 10.8923 1.19915C10.8125 0.965395 10.3195 1.02706 10.3195 1.02706L8.68033 1.0371C8.68033 1.0371 8.55896 1.01989 8.46827 1.07653C8.38031 1.13246 8.32372 1.26153 8.32372 1.26153C8.32372 1.26153 8.06393 1.9886 7.71754 2.60668C6.98726 3.91096 6.69473 3.9798 6.57541 3.89877C6.29789 3.71019 6.36744 3.14015 6.36744 2.73575C6.36744 1.47162 6.5495 0.944601 6.01218 0.808365C5.83353 0.763192 5.70262 0.733077 5.24645 0.728057C4.6614 0.721604 4.16568 0.730208 3.88544 0.874332C3.69861 0.970414 3.55473 1.18481 3.64269 1.197C3.75111 1.21205 3.99658 1.26655 4.12682 1.45298C4.29524 1.69318 4.2891 2.23382 4.2891 2.23382C4.2891 2.23382 4.38593 3.72167 4.0634 3.90666C3.8418 4.03357 3.53837 3.77473 2.88718 2.59091C2.55375 1.98501 2.30146 1.31459 2.30146 1.31459C2.30146 1.31459 2.25304 1.18983 2.16645 1.12314C2.06144 1.04212 1.91416 1.0163 1.91416 1.0163L0.355406 1.02634C0.355406 1.02634 0.121525 1.03351 0.0356094 1.14035C-0.0407599 1.23572 0.0294726 1.43218 0.0294726 1.43218C0.0294726 1.43218 1.25002 4.4344 2.63148 5.94805C3.89907 7.33551 5.33782 7.24444 5.33782 7.24444H5.98968Z" fill="white"/>
</svg>
