<?xml version="1.0" encoding="utf-8"?>
<!-- Generator: Adobe Illustrator 22.1.0, SVG Export Plug-In . SVG Version: 6.00 Build 0)  -->
<svg version="1.1" id="Слой_1" xmlns="http://www.w3.org/2000/svg" xmlns:xlink="http://www.w3.org/1999/xlink" x="0px" y="0px"
	 viewBox="0 0 24 24" style="enable-background:new 0 0 24 24;" xml:space="preserve">
<style type="text/css">
	.st0{fill:#808792;}
</style>
<path class="st0" d="M6,13.9c0,1.5,1.1,2.6,2.5,2.6h7c1.4,0,2.5-1.2,2.5-2.6v-3.7c0-1.5-1.1-2.6-2.5-2.6h-7C7.1,7.5,6,8.7,6,10.1
	V13.9z M10.5,10.2l3.3,1.7c0.1,0,0.1,0.2,0,0.3l-3.3,1.8c-0.1,0-0.2,0-0.2-0.1v-3.4C10.4,10.2,10.5,10.1,10.5,10.2z"/>
<path class="st0" d="M12,0C5.4,0,0,5.4,0,12c0,6.6,5.4,12,12,12c6.6,0,12-5.4,12-12C24,5.4,18.6,0,12,0z M12,23C5.9,23,1,18.1,1,12
	C1,5.9,5.9,1,12,1c6.1,0,11,4.9,11,11C23,18.1,18.1,23,12,23z"/>
</svg>
