<svg xmlns="http://www.w3.org/2000/svg" width="19" height="20" viewBox="0 0 19 20">
    <g fill="none" fill-rule="evenodd" opacity=".7">
        <path fill="#7F7F80" d="M13.246.832H5.049A5.054 5.054 0 0 0 0 5.88v8.198a5.054 5.054 0 0 0 5.049 5.048h8.197a5.054 5.054 0 0 0 5.049-5.048V5.88a5.054 5.054 0 0 0-5.05-5.048zm3.524 13.3a3.474 3.474 0 0 1-3.47 3.47H4.995a3.474 3.474 0 0 1-3.47-3.47V5.826a3.474 3.474 0 0 1 3.47-3.47H13.3a3.474 3.474 0 0 1 3.47 3.47v8.304z"/>
        <path fill="#7F7F80" d="M9.147 5.405A4.579 4.579 0 0 0 4.574 9.98a4.579 4.579 0 0 0 4.573 4.574 4.579 4.579 0 0 0 4.574-4.574 4.579 4.579 0 0 0-4.574-4.574zm0 7.623A3.053 3.053 0 0 1 6.098 9.98a3.053 3.053 0 0 1 3.05-3.05 3.053 3.053 0 0 1 3.048 3.05 3.053 3.053 0 0 1-3.049 3.05z"/>
        <path fill="#606062" d="M14.102 3.88a1.148 1.148 0 0 0-1.143 1.144c0 .3.122.596.336.809.212.212.507.335.807.335.302 0 .596-.123.809-.335a1.148 1.148 0 0 0 0-1.617 1.148 1.148 0 0 0-.809-.335z"/>
    </g>
</svg>
