<svg xmlns="http://www.w3.org/2000/svg" width="17" height="15" viewBox="0 0 17 15">
    <path fill="#7F7F80" fill-rule="evenodd" d="M16.926 2.133a6.808 6.808 0 0 1-1.96.536A3.421 3.421 0 0 0 16.467.782a6.83 6.83 0 0 1-2.167.828 3.413 3.413 0 0 0-5.815 3.113 9.686 9.686 0 0 1-7.033-3.566 3.412 3.412 0 0 0 1.056 4.556 3.388 3.388 0 0 1-1.545-.428v.043A3.414 3.414 0 0 0 3.7 8.674a3.4 3.4 0 0 1-1.541.059 3.416 3.416 0 0 0 3.187 2.37 6.846 6.846 0 0 1-5.051 1.412 9.652 9.652 0 0 0 5.23 1.534c6.276 0 9.708-5.2 9.708-9.71 0-.147-.003-.294-.01-.44a6.92 6.92 0 0 0 1.703-1.766z" opacity=".715"/>
</svg>
