<svg xmlns="http://www.w3.org/2000/svg" width="21" height="13" viewBox="0 0 21 13">
    <path fill="#7F7F80" fill-rule="evenodd" d="M10.165 12.123h1.193s.36-.04.544-.238c.17-.182.164-.524.164-.524s-.023-1.6.72-1.836c.732-.233 1.672 1.547 2.669 2.23.754.519 1.327.405 1.327.405l2.665-.037s1.394-.086.733-1.182c-.054-.09-.385-.811-1.982-2.293-1.67-1.551-1.447-1.3.566-3.983 1.226-1.635 1.716-2.632 1.563-3.06-.146-.406-1.048-.299-1.048-.299l-3 .019s-.223-.03-.388.068c-.161.097-.265.322-.265.322s-.475 1.265-1.108 2.34c-1.337 2.27-1.871 2.39-2.09 2.248-.507-.328-.38-1.319-.38-2.023 0-2.199.333-3.116-.65-3.353-.326-.079-.566-.131-1.4-.14-1.071-.01-1.978.004-2.49.255-.342.167-.606.54-.445.561.198.027.647.122.886.446.307.418.296 1.358.296 1.358s.177 2.588-.412 2.91c-.405.22-.96-.23-2.151-2.288-.61-1.055-1.071-2.22-1.071-2.22s-.09-.218-.248-.335a1.244 1.244 0 0 0-.46-.186l-2.853.019s-.428.012-.585.198c-.14.165-.011.508-.011.508s2.233 5.223 4.76 7.855c2.318 2.414 4.95 2.255 4.95 2.255z" opacity=".715"/>
</svg>
