<svg width="360" height="97" viewBox="0 0 360 97" fill="none" xmlns="http://www.w3.org/2000/svg">
<path opacity="0.75" fill-rule="evenodd" clip-rule="evenodd" d="M307.923 97H114.728C113.64 93.8477 113 90.2059 113 86C113 58 139.5 59.0044 139.5 59.0044C142.837 44.2406 162.233 45.5121 162.233 45.5121C162.233 45.5121 165.5 21 196.02 21C226.539 21 232.17 43.8168 232.17 43.8168C279.583 40.5673 280.417 76.3819 280.417 76.3819C296.967 79.058 304.545 88.1155 307.923 97Z" fill="url(#paint0_linear)"/>
<path opacity="0.4" fill-rule="evenodd" clip-rule="evenodd" d="M174.429 97H0V26.5358C6.71322 27.597 11.6578 29.7729 11.6578 29.7729C11.6578 29.7729 15.2496 0 49.0958 0C83.011 0 89.2277 27.7509 89.2277 27.7509C141.793 23.7765 142.691 67.4249 142.691 67.4249C163.512 71.1317 171.507 84.908 174.429 97Z" fill="#1888ED"/>
<path opacity="0.4" d="M292.373 17L286.281 24.5976L277 25.7718L281.747 31.7117L277.638 40L287.202 36.0631L294.569 40L294.995 31.7117L303 25.7718L294.357 24.5976L292.373 17Z" fill="#1888ED"/>
<path opacity="0.7" fill-rule="evenodd" clip-rule="evenodd" d="M356.298 97H251.008C251.155 93.8136 253.511 91.3689 256.64 90.8409C256.915 84.0227 262.623 78.6364 269.568 78.6364H269.637C270.737 78.6364 271.7 78.7045 272.732 78.9773C272.732 78.7727 272.697 78.5341 272.663 78.2954C272.629 78.0568 272.594 77.8182 272.594 77.6136V77.5454C272.594 67.1818 281.259 58.1818 291.643 58.1818H291.712C293.015 58.1818 294.318 58.5056 295.544 58.8103C295.806 58.8755 296.065 58.9399 296.32 59C300.583 53.4091 307.323 50 314.956 50H315.025C326.097 50 335.381 57.1591 337.719 67.4545C338.168 67.3433 338.624 67.1886 339.09 67.0305C340.051 66.7041 341.055 66.3636 342.12 66.3636C352.298 66.3636 359.932 75.7727 360 85.8636V85.9318C360 90.1167 358.632 93.9499 356.298 97Z" fill="url(#paint1_linear)"/>
<defs>
<linearGradient id="paint0_linear" x1="228.299" y1="142.468" x2="218.377" y2="22.8557" gradientUnits="userSpaceOnUse">
<stop stop-color="#2F54BF"/>
<stop offset="1" stop-color="#E93667"/>
</linearGradient>
<linearGradient id="paint1_linear" x1="355.664" y1="159.828" x2="283.644" y2="56.9212" gradientUnits="userSpaceOnUse">
<stop stop-color="#2F54BF"/>
<stop offset="1" stop-color="#E93667"/>
</linearGradient>
</defs>
</svg>
