<?xml version="1.0" encoding="utf-8"?>
<!-- Generator: Adobe Illustrator 22.1.0, SVG Export Plug-In . SVG Version: 6.00 Build 0)  -->
<svg version="1.1" id="Слой_1" xmlns="http://www.w3.org/2000/svg" xmlns:xlink="http://www.w3.org/1999/xlink" x="0px" y="0px"
	 viewBox="0 0 856 620" style="enable-background:new 0 0 856 620;" xml:space="preserve">
<style type="text/css">
	.st0{fill:#D5842A;}
	.st1{opacity:0.9;fill:url(#SVGID_1_);enable-background:new    ;}
	.st2{opacity:0.37;fill:#174E9F;enable-background:new    ;}
	.st3{opacity:0.8;fill:url(#SVGID_2_);enable-background:new    ;}
	.st4{opacity:0.4;}
	.st5{fill:#1882E7;}
	.st6{fill:#0063DA;}
	.st7{fill:#EBE7DB;}
	.st8{fill:#F23461;}
	.st9{fill:#26346D;}
	.st10{opacity:0.4;fill:#26346D;enable-background:new    ;}
	.st11{opacity:0.2;fill:#3760B9;enable-background:new    ;}
	.st12{opacity:0.2;fill:#213D75;enable-background:new    ;}
	.st13{fill:none;stroke:#1D56BC;stroke-miterlimit:10;}
	.st14{fill:#EC9B36;}
	.st15{fill:none;stroke:#1882E7;stroke-miterlimit:10;}
	.st16{fill:#182754;}
	.st17{fill:#F1E8C0;}
</style>
<g>
	<path class="st0" d="M854.1,332.3c-16.2,3-86-17-86-17l3,7c0,0,22.5,5.9,41.7,10.4C841.1,339.3,854.1,335.3,854.1,332.3z"/>
	
		<linearGradient id="SVGID_1_" gradientUnits="userSpaceOnUse" x1="427.9491" y1="550.3344" x2="427.9491" y2="-14.1662" gradientTransform="matrix(1 0 0 -1 0 621)">
		<stop  offset="0" style="stop-color:#0063DA"/>
		<stop  offset="1" style="stop-color:#E33667"/>
	</linearGradient>
	<path class="st1" d="M211.1,0.3V303c0,0-1.1,68.3-30.5,95.4L0.4,575.3l-0.1,44l855.3,0.2v-21.8l-281-209.5c0,0-20.5-8.9-24.5-77.9
		V0.3H211.1z"/>
	<polygon class="st2" points="171.1,547.3 333.1,536.3 452.1,541.3 492.1,504.3 364.1,501.3 198.2,536 	"/>
	
		<linearGradient id="SVGID_2_" gradientUnits="userSpaceOnUse" x1="382.3033" y1="74.1265" x2="382.3033" y2="452.1506" gradientTransform="matrix(1 0 0 -1 0 621)">
		<stop  offset="0" style="stop-color:#0063DA"/>
		<stop  offset="0.9988" style="stop-color:#E33667"/>
	</linearGradient>
	<path class="st3" d="M382.3,183c-34.9,0-63.2,28.3-63.2,63.2s28.3,63.2,63.2,63.2s63.2-28.3,63.2-63.2S417.2,183,382.3,183z
		 M382.3,341.1c-52.4,0-94.8-42.5-94.8-94.8s42.5-94.8,94.8-94.8c52.4,0,94.8,42.5,94.8,94.8C477.1,298.6,434.7,341.1,382.3,341.1z
		 M524.5,104c-22.2,0-45.3,0-45.3,0l-14.7-31.6c-3.4-7.9-17-15.8-28.9-15.8H331.1c-11.9,0-25.5,7.9-28.8,15.8L287.5,104
		c0,0-24,0-47.4,0c-50.7,0-47.4,42.2-47.4,42.2v210.6c0,0-0.6,31.6,38.4,31.6c23.7,0,274.2,0,299.4,0c44.6,0,41.4-31.6,41.4-31.6
		V135.6C571.9,135.6,572.1,104,524.5,104z"/>
	<g>
		<g class="st4">
			<path class="st5" d="M328.7,250.3c0,5.5-4.6,10-10.1,9.9l-83-0.5c-5.5,0-10-4.6-9.9-10.1l0.6-109.3c0-5.5,4.6-10,10.1-9.9l83,0.5
				c5.5,0,10,4.6,9.9,10.1L328.7,250.3z"/>
		</g>
	</g>
	<g>
		<g class="st4">
			<path class="st5" d="M161.3,221.3c0,5.5-4.5,10-10,10H95.6c-5.5,0-10-4.5-10-10v-71.8c0-5.5,4.5-10,10-10h55.6
				c5.5,0,10,4.5,10,10v71.8H161.3z"/>
		</g>
	</g>
	<g class="st4">
		<path class="st5" d="M204.4,250c0,5.5-4.5,10-10,10h-30.5c-5.5,0-10-4.5-10-10v-30.5c0-5.5,4.5-10,10-10h30.5c5.5,0,10,4.5,10,10
			V250z"/>
	</g>
	<path class="st6" d="M186.8,222c-4.1,0-6.9,4.3-7.5,5.4c-0.6-1.1-3.4-5.4-7.5-5.4c-3.2,0-8.4,2.5-7.2,11.4s14.7,16.3,14.7,16.3
		s13.5-7.4,14.7-16.3C195.3,224.5,190,222,186.8,222z"/>
	<g class="st4">
		<path class="st5" d="M220.9,156.8c0,5.5-4.6,10-10.1,9.9l-29.6-0.2c-5.5,0-10-4.6-9.9-10.1l0.3-52.2c0-5.5,4.6-10,10.1-9.9
			l29.6,0.2c5.5,0,10,4.6,9.9,10.1L220.9,156.8z"/>
	</g>
	<g>
		<path class="st7" d="M247.6,285.6c0,0-48.5,18.4-43.1,35.9s36.5,34.4,36.5,34.4l118.8,80.8L344.1,458l24.3-20.2c0,0,2.2-1.5-2-5.1
			l-28-33.8c0,0-61.8-69.7-93.4-74c0,0,46.1,9.8,57,8.3c0,0-11.2,0.2-24.2-20.7C277.7,312.5,262.9,285.5,247.6,285.6z"/>
		<path class="st8" d="M358.6,438.1L344.1,458l24.3-20.2c0,0,1.9-1.3-1.1-4.3C364.6,435.4,361.7,436.9,358.6,438.1z"/>
		<polygon class="st9" points="393.5,336.5 416.4,336.5 446.3,536 449,536 451.4,536 430.3,333.5 439.1,329.7 481.3,518.1 
			484.1,517.6 448.4,323.1 450,315.4 450,311 448.4,311 368.8,311 329,527.7 334.4,527.2 352.2,447.8 377.2,336.7 		"/>
		<polygon class="st9" points="351.7,447.8 433.4,452 432.8,447.8 351.7,443.7 		"/>
		<polygon class="st10" points="380.7,435.8 351.7,443.7 351.7,447.8 380.4,439.5 		"/>
		<polygon class="st9" points="463.5,438 442.6,446.8 442.6,451.3 464.1,441.6 		"/>
		<polygon class="st10" points="399.6,336.1 380,511.4 377.2,511.4 384.8,340.6 393.5,335.8 		"/>
		<path class="st9" d="M427.4,98.8c0,0-0.5-1.3-1.8-2.8c-3.3-3.6-11.6-8.2-29.5,3.8c-25.2,16.8-27.9,48.5-19.2,58.9l7.2-3.7
			c0,0,7.2-7.6,9.2-9.6L427.4,98.8z"/>
		<path class="st9" d="M423.6,94.3c0,0,14.7,6.8,6.4,22.5c0,0-2.9,4.5-7.9,6.2c0,0,42-3.9,42,34.7c0,38.5-24.9,55.4-35.6,58
			c0,0,0.3-8.3,0.7-17.9s-1.2-35-15.2-44.3l-6.6-4.8v-18.2c0,0,8.7-3.9,14.9-11.6c6.2-7.7,8.6-14.7,4.8-19.9
			C427.2,98.8,425.4,95.4,423.6,94.3z"/>
		<path class="st8" d="M384.2,153.5c0,0-17.3,32-19.9,36.6c0,0-0.3,9.5,8.7,14.3c0,0-0.3,40.5,12.4,60.9c0,0-81.4-2.3-137.7,20.3
			c0,0,10.8,0,19.9,13.3c9,13.3,22.6,34.1,34.4,34.4c0,0,10.9-13,16-17.8c0,0,12.7-6.3,34.4,42.8c0,0,92.5-44.6,90.7-76.3
			c-1.8-31.6-19-34.4-19-34.4l-9.5-42.8c0,0-11.8,3.7-12.3-14.2c0,0-2.5-13.6,12.3-37.2l-6.2-4.8l-15-3.2L384.2,153.5z"/>
		<path class="st7" d="M425.8,97.6c0,0-8-4.1-19.1,7.6s-12.2,15.3-13.1,39.6c0,0-22.2,36-15.6,37.5s29.4-33.6,29.4-33.6v-18.2
			c0,0,9.2-3.8,15.5-12.4C429.3,109.5,431.5,100.8,425.8,97.6z"/>
		<path class="st11" d="M397.5,117.4c0,0-1.7,11.2,4.7,13c0,0,2.5,0.8,5.3-0.1v3c0,0-11.9,5.1-14.1,8.5
			C393.3,141.9,394.2,122.8,397.5,117.4z"/>
		<path class="st7" d="M317.8,315.4c0,0-24.2,24-39.9,44.7c-15.7,20.8-73.9,165-73.9,165l-33.4,22.5l35.8-10.9c0,0,4.7-2.6,7.1-10.1
			c2.4-7.5,23.8-38.2,34.1-51.7c10.2-13.6,36.7-49.9,41.9-72c4.6-19.6,19-22.4,19-22.4s36.7-18.8,43.7-22.3
			C352.2,358.2,335.6,313.6,317.8,315.4z"/>
		<path class="st8" d="M204.1,531.7c-2.7,0-4.9-0.8-6.7-2l-26.8,18l35.8-10.9c0,0,4.6-2.6,7-9.9l0,0
			C211.6,529.7,208.5,531.7,204.1,531.7z"/>
		<path class="st9" d="M368.4,200.7c0,0-30.9,4.4-23.1,35.7c0,0,4.2-20.8,28.2-19c0,0-0.5-5.1-0.5-13.1
			C373,204.4,370.3,203.5,368.4,200.7z"/>
		<path class="st12" d="M413.8,152.9c0,0-15.4,25.3-20,42.2c0,0-14.9,4.7-29.5-4.2c0,0,1.1,9.5,8.7,13.5c0,0,20.1,5.4,23.7,9.4
			c0,0-1,27.5,9.2,39.8c0,0,17.2,7.8-3.9,30.5c-21,22.7-58.1,56.2-58.1,56.2s7.7,16.3,8.2,17.9c0,0,59.2-27.9,82.6-56.9
			c0,0,13.4-10.6,4.9-36.8c0,0-4.6-13.1-15.7-16.9l-9.5-42.8c0,0-16.1,3.3-11.5-23.8c0,0,2.3-12.5,11.5-27.6L413.8,152.9z"/>
		<path class="st12" d="M272.5,304.4c0,0,30.6-7.6,72.8-10c0,0-15.8,9.1-27.4,21.1l-17,17.7C300.9,333.1,284,327.9,272.5,304.4z"/>
		<path class="st7" d="M379.7,252.6l-17.7,8.8c0,0-8.2,5.6-15.5,22.9c0,0-2.5,6.5-2.5,10.8c0,0,18.3-11.6,22.4-14.6l3.4-13.1
			c0,0-0.1-1.1,2.1-2.2l11.4-3.8C383.3,261.5,381.2,257.8,379.7,252.6z"/>
		<path class="st7" d="M414.4,153.4c0,0-12.4,16.4-12.4,36s12.4,15.4,12.4,15.4s-4.8,59.8,11.1,96.5c0,0,1.8,20.3,0.8,24.9
			c0,0,4.7-2.1,4.4-11c0,0-0.2-2.6,3.6,0.2c3.8,2.7,1.4,13.4,1.4,13.4s-0.6,2.6,2.6,1.5s7.3-9.4,9-14c0,0-0.4,2.7-0.2,0.4
			c0,0,0-2.1-3.3-5.6l-10.9-11.5c0,0-6.5-58-4.3-84l0.7-16.3C429.2,199.4,431,164,414.4,153.4z"/>
		<path class="st12" d="M403.2,256.5c0,0-10.1,4.2-14.5,9.8l-22.3,14.1l3.4-13.1c0,0,0.2-1.8,2.8-2.1c0.3,0,0.6-0.1,0.9-0.1
			c3.5,0,11.8,0,11.8,0S389.4,257.2,403.2,256.5z"/>
		<path class="st13" d="M433.6,450.5"/>
		<path class="st11" d="M272.5,304.4c0,0-30,6.2-39.4,14.4c0,0-5.7,5.7,10.2,8.4c15.9,2.8,20.6,5.4,20.6,5.4s-11.3-6.1-18.4-7.7
			c0,0,47.2,9.7,55.3,8.3C300.9,333.1,283.9,328,272.5,304.4z"/>
		<path class="st11" d="M344,340.3c0,0-32.5,25.8-47.3,34.5c0,0-9.9,8.7-12.7,21.4c-2.7,12.7-41.6,86.2-62.1,112.1
			c0,0-11.7,15.2-15.1,22.3l-36.3,17.1l35.8-10.9c0,0,6.8-3.9,7.6-11.3c0,0,19.4-30.9,24.3-37.5c0,0,39.8-49.7,51.2-83.1
			c0,0-0.4-15.6,19-24.4c0,0,41.3-20.8,43.7-22.3C352.2,358.2,346.4,343.5,344,340.3z"/>
		<polyline class="st10" points="463.5,438 462.9,438 388.4,435.8 388,438.9 457.1,440.7 		"/>
		<path class="st11" d="M415,191.4l-0.4,13.4c0,0-19.6,5.3-9.4-32.8c0,0-1.3,26.7,6.2,26.5l3.6-12.1L415,191.4L415,191.4z"/>
		<path class="st9" d="M306.1,113.6"/>
		<path class="st7" d="M384.2,153.5c0,0-9.3,3.7-9.6,10.2l0.3,6.8L384.2,153.5z"/>
	</g>
	<g class="st4">
		<path class="st5" d="M582.8,268.8c0,5.5-4.5,10-10,10h-74c-5.5,0-10-4.5-10-10V167.6c0-5.5,4.5-10,10-10h74c5.5,0,10,4.5,10,10
			V268.8z"/>
	</g>
	<g>
		<g class="st4">
			<path class="st5" d="M701.4,205.5c0,5.5-4.6,10-10.1,9.9l-53.3-0.3c-5.5,0-10-4.6-9.9-10.1l0.3-60.2c0-5.5,4.6-10,10.1-9.9
				l53.3,0.3c5.5,0,10,4.6,9.9,10.1L701.4,205.5z"/>
		</g>
	</g>
	<g class="st4">
		<path class="st5" d="M621.9,172c0,5.5-4.6,10-10.1,9.9l-35.3-0.2c-5.5,0-10-4.6-9.9-10.1l0.3-52.7c0-5.5,4.6-10,10.1-9.9l35.3,0.2
			c5.5,0,10,4.6,9.9,10.1L621.9,172z"/>
	</g>
	<g class="st4">
		<path class="st5" d="M347.8,136.8c0,5.5-4.6,10-10.1,9.9l-13.2-0.1c-5.5,0-10-4.6-9.9-10.1l0.1-23.7c0-5.5,4.6-10,10.1-9.9
			L338,103c5.5,0,10,4.6,9.9,10.1L347.8,136.8z"/>
	</g>
	<g class="st4">
		<path class="st5" d="M518.4,122c0,5.5-4.5,10-10,10h-30.5c-5.5,0-10-4.5-10-10V91.4c0-5.5,4.5-10,10-10h30.5c5.5,0,10,4.5,10,10
			V122z"/>
	</g>
	<path class="st6" d="M511.7,102c0.3-2-1-3.1-3.2-3.1h-9.1c0.8-1.7,1.3-3.4,1.6-4.8c1-5.5-0.3-6.7-1.6-6.7c-0.9,0-1.5,0.1-2.5,0.6
		c-0.3,0.1-0.4,0.4-0.6,0.6l-1.9,5.1c-1.3,2.4-3.8,4.5-6,6.1c-0.2-0.6-0.7-1.1-1.5-1.1h-5.6c-1.1,0-2,0.8-2.3,1.9l-2.6,13.3
		c-0.2,1.1,0.5,1.9,1.5,1.9h5.7c1,0,2-0.7,2.2-1.7c0.4,0.2,0.9,0.4,1.3,0.7c0.9,0.5,1.9,1,3.1,1h11.9c1.9,0,3.6-1.5,3.8-2.9
		c0-0.3,0.1-0.5,0.1-0.7c1.3-0.4,2.2-1.5,2.4-2.6c0.1-0.6,0.1-1.1-0.1-1.5c0.8-0.5,1.7-1.3,1.9-2.3c0.1-0.5-0.1-1.1-0.4-1.6
		C510.9,103.8,511.6,102.9,511.7,102z"/>
	<g>
		<path class="st9" d="M621.1,249.3v-9c0,0-0.9-6.7,7.4-7.3l31.8-1.8l9.8,27.6v10.5l-38.9,3.3c0,0-9.1,1.7-9.5-7.3L621.1,249.3z"/>
		<path class="st9" d="M609.1,246.3v-9c0,0-0.9-6.7,7.4-7.3l45.3-1.5l-3.7,27.3v10.5l-38.9,3.3c0,0-9.1,1.7-9.5-7.3L609.1,246.3z"/>
		<path class="st7" d="M668.8,282.7l5-1.4l-2-6.4c-7.7-0.8-13.5-2.5-13.5-2.5c-4-4-1.2-17.5-1.2-17.5c-6-1.5-4.5-5-4.5-5l10.2-23.8
			c0.2-3.2,3.5-9.8,3.5-9.8s34,27.8,43.7,70S707.1,313,668.8,282.7z"/>
		<path class="st14" d="M795.1,260.3c0,0,61,49,60.5,65.5s-30.5,8.5-33.5-0.5l-36-61c0,0-2-3,3-5
			C789.1,259.3,792.1,258.3,795.1,260.3z"/>
		<path class="st14" d="M653.6,336l-145.8,53.3c-10.7,2-19.3,4.7-28.7-1.3c-9.3-6-7.3-10.7-7.3-10.7
			c28-50.7,124.7-102.6,124.7-102.6c8.7,1.4,9.3,14.6,9.3,14.6c-12.7,8.7-62,47.7-62,47.7s31.3-19.7,111.3-49.7
			s148.7,4.3,177.3,18.3c28.7,14,22.7,25.3,22.7,25.3c-4.7,15.3-84-8.7-84-8.7c51.5,94.6,50.5,140.1,50.5,140.1
			c-13.5,29.7-113.2,25.8-113.2,14.4c0-8.1-7.3-8.4-7.3-8.4c14-93.3-46-132.9-46-132.9L653.6,336z"/>
		<path class="st8" d="M708.7,268.8l-16.8,6c0,0-39.8-51-25.3-67c0,0,65-48.5,86.5,40c0,0,4.4,15-20,18l-0.8,5.7
			C732.3,271.5,722.8,267.2,708.7,268.8z"/>
		<path class="st12" d="M722.8,258c-26.4,0-49.5-16.6-59.3-39.7c0.8,21.1,28.4,56.5,28.4,56.5l16.8-6c14.1-1.5,23.6,2.7,23.6,2.7
			l0.8-5.7c16.7-2,19.9-9.7,20.3-14.4c-5.6,2.7-11.6,4.5-17.9,5.3C731.4,257.6,727.1,258,722.8,258z"/>
		<path class="st14" d="M673.9,282.2c0,0,17.3-22.4,46.3-22.4c0,0,23.8-1.7,29.4,18.9C749.5,278.7,717.1,271.1,673.9,282.2z"/>
		<path class="st0" d="M544.6,336.3c0,0-13.2,5.4-28.5,11.3c-2.7,1.1,49.6-47.6,88.3-65c0,0,1.7,2.6,1.4,6.6
			C605.8,289.3,564.5,320,544.6,336.3z"/>
		<path class="st0" d="M472.8,375.5c0,0-1,9.6,27.3,2.8c29-7,107.5-36,165.5-60c0,0,74.9,117.5,43.7,229.8c0,0-8.2-71.7-8.2-79.8
			c0-32,19.7-27.9-46-132.9c0,0-136.3,49.6-145.5,53.3c0,0-20.8,7.5-32.3-1.9C477.3,386.7,469.4,380.9,472.8,375.5z"/>
		<ellipse class="st9" cx="608.9" cy="247.2" rx="11.8" ry="20.5"/>
		<ellipse class="st9" cx="587.9" cy="247.2" rx="11.8" ry="20.5"/>
		<path class="st7" d="M605.8,289.3c0,0,15.8-13.2,16.3-24c0,0,5-8,12.8-12.8c0,0,5.2-4,2.8-6.5c0,0-1.2-2-10,1.2c0,0-20.5,9-18.5-1
			c0,0,0-3.6,0-7.7c0,0-0.5-0.4-5.5,1.8c0,0-5.9,2.6-7.1,6.1s-0.7,12.3-0.7,12.3l0.3,10.2c0,0,0.8,2.4,1.8,2.9s1,0.5,1,0.5l-2.4,2.2
			C596.5,274.7,604.7,275.6,605.8,289.3z"/>
		<path class="st9" d="M708.4,468.6c0,0-158,8.9-215,23.4c0,0-16.6,7.9-13.3,23.2c5,23.2,1.2,69.6,25,104.1h43c0,0-14-58.5-25.5-75
			c0,0,152.3,23,215.5,22l111.8,28.5c0,0-20.8-104.2-28.3-132.4c0,0-10.3,13.5-37.4,16.3C784.2,478.7,732.1,484,708.4,468.6z"/>
		<path class="st15" d="M620.1,249.5"/>
		<path class="st11" d="M601.3,241.7c0,0-8,6.1,3.5,14c0,0,5,3.2,2.5,6c0,0-2.8,5.7-8.4,10.9l-2.5-2.8l-0.6-12.6
			C595.7,257.1,593.5,245,601.3,241.7z"/>
		<path class="st15" d="M844.1,389.3"/>
		<path class="st8" d="M660.9,230.6l-3.8,24.2c0,0-6.3-0.2-4.7-4.2L660.9,230.6z"/>
		<path class="st9" d="M657.1,254.8l3.8,9.4c0,0,2.2,4.6,6-0.4s9.6-11.8,9.6-11.8l5.6,9c0,0-9.7,20.9-23.4,18.6
			C658.6,279.6,647.6,267.8,657.1,254.8z"/>
		<path class="st16" d="M738.1,566.3c0,0,96,0.3,98.4-36.6l19.1,89.8l-82.9,0C772.8,619.5,746,587.2,738.1,566.3z"/>
		<path class="st0" d="M673.9,281.4c0,0,14.8,0.9,30.1,14.8c15.6,14.2,26.2,19.3,38.5,11.2s6.7-29.8,6.7-29.8s11.6,37.7-13.2,42.3
			s-45.9-39-62.9-38.2"/>
		<path class="st9" d="M587.9,226.7l20.1,0.1c0,0-10.7,0.5-10.9,22.1l1.8,18.4h-10c0,0-13.2,0-12.8-21
			C576.4,225.3,587.9,226.7,587.9,226.7z"/>
		<g>
			<g>
				<path class="st17" d="M700,354.3c-1,0.6-1.9,1.2-2.9,1.7c-0.3,0.2-0.6,0.3-0.9,0.2c-0.3-0.1-0.6-0.3-0.8-0.7
					c-1.7-2.5-3.5-5.1-5.3-7.5c-0.5-0.7-0.5-1.3,0.1-1.6c0.6-0.4,1.2-0.2,1.7,0.5c1.7,2.3,3.3,4.7,4.8,7.1c0.7-0.4,1.4-0.9,2.1-1.3
					c0.8-0.5,1.3-0.4,1.6,0.1C700.9,353.5,700.7,353.9,700,354.3L700,354.3z"/>
				<path class="st17" d="M703.7,352.3c-0.6,0.3-1.1,0.1-1.5-0.7c-1.6-2.7-3.2-5.3-4.9-7.9c-0.5-0.7-0.4-1.3,0.2-1.6
					c0.6-0.3,1.2-0.1,1.7,0.6c1.7,2.6,3.2,5.3,4.8,7.9C704.4,351.5,704.3,352,703.7,352.3L703.7,352.3z"/>
				<path class="st17" d="M714.8,347c-0.4,0.2-0.9,0.1-1.3-0.2c-2.7-1.6-5.6-3.1-8.5-4.4c1.2,2,2.3,4.1,3.4,6.1
					c0.4,0.8,0.3,1.3-0.3,1.6c-0.6,0.3-1.1,0.1-1.5-0.7c-1.5-2.7-3-5.4-4.7-8.1c-0.4-0.7-0.4-1.2,0.2-1.5c0.4-0.2,1-0.2,1.4,0.1
					c3,1.3,5.9,2.8,8.8,4.3c-1-2.1-2.1-4.1-3.2-6.2c-0.4-0.8-0.3-1.3,0.3-1.6c0.7-0.3,1.2,0,1.6,0.8c1.5,2.8,2.9,5.7,4.2,8.5
					C715.5,346.3,715.4,346.8,714.8,347L714.8,347z"/>
				<path class="st17" d="M725.5,343c-0.3,0.1-0.7,0-1.3-0.2c-2.1-1-4.2-2-6.4-3c0.6,1.3,1.2,2.6,1.7,3.9c0.3,0.8,0.2,1.3-0.5,1.6
					c-0.6,0.2-1.1,0-1.5-0.8c-1.3-2.8-2.6-5.7-4-8.5c-0.4-0.8-0.3-1.3,0.4-1.6c0.7-0.3,1.2,0,1.6,0.8c0.5,1,1,2.1,1.5,3.1
					c0.8-1.8,1.7-3.5,2.5-5.3c0.3-0.5,0.5-0.8,0.8-0.9s0.6-0.1,0.8,0c0.3,0.1,0.5,0.3,0.6,0.5c0.1,0.3,0,0.6-0.3,1.2
					c-0.8,1.5-1.6,3-2.3,4.5c2.1,0.9,4.1,1.8,6.1,2.8c0.3,0.1,0.6,0.4,0.8,0.8c0.1,0.2,0.1,0.5,0,0.7C726,342.8,725.8,343,725.5,343
					L725.5,343z"/>
				<path class="st17" d="M748.9,325.8L748.9,325.8c-0.1,0-0.2,0-0.2,0c-0.1,0-0.2,0-0.3,0c-0.3,0-0.6,0.2-0.8,0.5
					c-0.1,0.3-0.1,0.7,0,1c0.5,1.9,0.9,3.8,1.3,5.6c0.2,0.6,0.2,1.2,0.1,1.8v0.1c0,0.1-0.1,0.2-0.1,0.3c0,0.1-0.1,0.2-0.1,0.2
					l-0.1,0.1c-0.1,0.1-0.1,0.1-0.2,0.2c0,0-0.1,0.1-0.2,0.1c-0.1,0.1-0.2,0.1-0.3,0.1s-0.2,0.1-0.3,0.1s-0.2,0.1-0.3,0.1
					s-0.2,0.1-0.3,0.1H747c-0.2,0-0.5,0-0.7,0c-0.9,0-1.8-0.6-2.2-1.4c-0.2-0.4-0.3-0.8-0.4-1.2c-0.5-1.9-1-3.7-1.5-5.6
					c-0.2-0.6-0.5-1-1-1.1c-0.2,0-0.4,0-0.5,0c-0.7,0.1-1,0.6-0.7,1.5c0.6,1.9,1.1,3.8,1.6,5.7c0.2,0.9,0.7,1.8,1.4,2.5l0.1,0.1
					c0,0,0,0,0.1,0.1c0.2,0.2,0.4,0.4,0.7,0.5c1.1,0.7,2.2,0.9,3.7,0.7c1.5-0.2,2.5-0.7,3.2-1.7c0.7-0.9,0.9-2.1,0.6-3.6
					c-0.4-1.9-0.8-3.9-1.3-5.8C749.8,326.3,749.4,325.9,748.9,325.8C749,325.8,748.9,325.8,748.9,325.8z"/>
				<path class="st17" d="M760.7,335.9c-0.8,0.7-1.9,1.1-3,1.1c-0.8,0-1.5,0-2.3-0.2c-1-0.2-1.6-0.6-1.7-1.2c-0.1-0.2,0-0.5,0.2-0.7
					s0.4-0.3,0.7-0.3s0.6,0.1,0.8,0.2c0.3,0.1,0.6,0.2,0.9,0.2c0.5,0.1,0.9,0.1,1.4,0.1s0.9-0.2,1.3-0.6c0.3-0.3,0.4-0.8,0.4-1.2
					c-0.1-0.7-0.7-1.2-1.8-1.5c-1-0.3-2-0.6-3-0.9c-1.1-0.4-1.9-1.3-2-2.3c-0.2-0.9,0-1.9,0.8-2.5c0.7-0.6,1.7-1,2.8-1.1
					c1.2-0.1,2.2,0.1,3,0.5c0.4,0.2,0.6,0.5,0.7,0.8c0.1,0.2,0,0.5-0.2,0.6c-0.2,0.2-0.4,0.3-0.7,0.3c-0.4,0-0.8-0.1-1.2-0.2
					s-0.9-0.2-1.3-0.2c-0.5,0-0.9,0.2-1.2,0.4c-0.3,0.3-0.4,0.7-0.3,1.1c0.1,0.3,0.3,0.6,0.7,0.8c0.5,0.2,1,0.4,1.5,0.5
					c1,0.2,2,0.6,3,1c0.9,0.5,1.6,1.4,1.6,2.4C761.9,334.1,761.5,335.1,760.7,335.9L760.7,335.9z"/>
				<path class="st17" d="M770.7,336.7c-1.6-0.1-3.2-0.1-4.8-0.1c-1,0-1.4-0.3-1.5-1.2c-0.3-3.1-0.8-6.1-1.2-9.2
					c-0.1-0.9,0.2-1.4,1.2-1.4c1.7,0,3.5,0,5.2,0c1,0,1.5,0.4,1.6,1c0.1,0.7-0.4,1-1.4,0.9c-1.4,0-2.8,0-4.2,0
					c0.1,0.9,0.3,1.9,0.4,2.8c1.3,0,2.5,0,3.8,0c1,0,1.5,0.4,1.5,1c0.1,0.6-0.4,0.9-1.3,0.9c-1.3,0-2.5,0-3.8,0
					c0.1,1.1,0.2,2.2,0.4,3.3c1.3,0,2.7,0,4,0.1c0.9,0,1.4,0.4,1.5,1C772.1,336.5,771.6,336.7,770.7,336.7L770.7,336.7z"/>
				<path class="st17" d="M736.9,328.8C736.9,328.7,736.9,328.7,736.9,328.8c0-0.1,0-0.1,0-0.1l0,0c0,0,0,0,0-0.1l0,0c0,0,0,0,0-0.1
					l0,0c0,0,0,0-0.1-0.1l0,0c0,0,0,0-0.1-0.1l0,0c0,0,0,0-0.1,0l0,0c0,0,0,0-0.1,0h-0.1c0,0,0,0-0.1,0l0,0c0,0,0,0-0.1,0l0,0h-0.1
					l0,0H736l0,0h-0.1l0,0h-0.1c-0.2,0-0.4,0.1-0.6,0.1c0,0,0,0-0.1,0l0,0c0,0,0,0-0.1,0l0,0l0,0l0,0l0,0l0,0l0,0c0,0,0,0,0,0.1l0,0
					c0,0,0,0,0,0.1l0,0c0,0,0,0,0,0.1c0,0,0,0,0,0.1l0,0c-0.5,2.8-1,5.7-1.5,8.5c-2.1-2.2-4.4-4.3-6.7-6.4l0,0c0,0,0,0-0.1,0l0,0
					l0,0c0,0,0,0-0.1,0l0,0c0,0,0,0-0.1,0l0,0c0,0,0,0-0.1,0c0,0,0,0-0.1,0c0,0,0,0-0.1,0c0,0,0,0-0.1,0c0,0,0,0-0.1,0
					c0,0,0,0-0.1,0l0,0h-0.1c-0.2,0-0.3,0.1-0.5,0.1c0,0,0,0-0.1,0l0,0c0,0,0,0-0.1,0l0,0c0,0,0,0-0.1,0.1l0,0c0,0,0,0-0.1,0.1
					c0,0,0,0,0,0.1l0,0c0,0,0,0,0,0.1l0,0l0,0l0,0l0,0l0,0c0,0,0,0,0,0.1l0,0c0,0,0,0,0,0.1l0,0c0,0,0,0,0,0.1l0,0c0,0,0,0,0,0.1
					l0,0c0,0,0,0,0,0.1l0,0c0,0,0,0,0,0.1c0,0,0,0,0,0.1c1.2,3,2.4,6.1,3.5,9.1c0.2,0.5,0.8,0.8,1.4,0.7c0.6-0.2,0.9-0.7,0.7-1.3
					c-0.6-1.8-1.2-3.5-1.9-5.3c1.6,1.6,3.2,3.3,4.7,4.9c0.3,0.3,0.7,0.4,1.1,0.3c0,0,0,0,0.1,0c0.4-0.1,0.7-0.4,0.8-0.7
					c0.3-2.1,0.7-4.3,1-6.4c0.6,1.8,1.1,3.6,1.6,5.4c0.2,0.6,0.8,1,1.4,0.8c0.6-0.1,1-0.7,0.8-1.3c-0.8-3.1-1.8-6.2-2.8-9.4l0,0
					C737,328.7,736.9,328.8,736.9,328.8z"/>
			</g>
		</g>
		<path class="st16" d="M522.1,544.3c0,0-9-1-19-8c0,0,30.5,54,22.2,83h22.8C548.1,619.3,533.1,557.3,522.1,544.3z"/>
		<path class="st0" d="M785.9,262l43.3,42.1c0,0-22.3-11.1-26.7-11.9l-16.4-27.8C786.1,264.3,785.7,263.6,785.9,262z"/>
	</g>
	<path class="st9" d="M408.7,107.7c0,0-0.5,3.9,4.6,4.2l0,0L408.7,107.7z"/>
	<path class="st9" d="M417.2,115.3c0,0-0.5,3.4,4.1,3.6l0,0L417.2,115.3z"/>
	<path class="st7" d="M786.1,264.3c0,0-14-12-15-27c0,0,3,0,4,3l6,8c0,0,1-21-2-26c0,0-1-1,1-2s5,8,6,14c0,0,6,2,9,6
		c0,0,3,4.5-2,18.8L786.1,264.3z"/>
</g>
</svg>
