<?xml version="1.0" encoding="utf-8"?>
<!-- Generator: Adobe Illustrator 22.1.0, SVG Export Plug-In . SVG Version: 6.00 Build 0)  -->
<svg version="1.1" id="Слой_1" xmlns="http://www.w3.org/2000/svg" xmlns:xlink="http://www.w3.org/1999/xlink" x="0px" y="0px"
	 viewBox="0 0 2560 220" style="enable-background:new 0 0 2560 220;" xml:space="preserve">
<style type="text/css">
	.st0{fill:#294896;}
	.st1{fill:#1D56C0;}
	.st2{fill:none;stroke:#294896;stroke-width:5;stroke-miterlimit:10;}
	.st3{fill:#F83461;}
	.st4{opacity:0.3;fill:#1888ED;}
	.st5{fill:#294896;stroke:#294896;stroke-width:5;stroke-miterlimit:10;}
	.st6{fill:#F2A136;}
</style>
<g>
	<g>
		<polygon class="st0" points="-0.6,0 2560.6,0 2560.6,108 -0.6,24 		"/>
		<polygon class="st1" points="2485,84 2455.3,18 2395.5,81.5 		"/>
		<polygon class="st1" points="2353.8,81.5 2324,15.5 2264.2,79.1 		"/>
		<polygon class="st1" points="2346.8,15.5 2376.5,81.5 2436.3,18 		"/>
		<polygon class="st1" points="2215.9,77.4 2186.2,11.4 2126.4,74.9 		"/>
		<polygon class="st1" points="2209,11.4 2238.7,77.4 2298.5,13.8 		"/>
		<polygon class="st1" points="2080.6,73.3 2050.9,7.3 1991.1,70.8 		"/>
		<polygon class="st1" points="2073.6,7.3 2103.3,73.3 2163.1,9.7 		"/>
		<polygon class="st1" points="1950.2,69.1 1920.5,3.1 1860.7,66.7 		"/>
		<polygon class="st1" points="1943.2,3.1 1972.9,69.1 2032.7,5.6 		"/>
		<polygon class="st1" points="2470.6,15.5 2500.3,81.5 2560.1,18 		"/>
		<polygon class="st1" points="1814.9,67 1785.2,1 1725.4,64.5 		"/>
		<polygon class="st1" points="1807.9,1 1837.6,67 1897.4,3.5 		"/>
		<polygon class="st1" points="1644,0.7 1591.4,56.5 1680.9,59 1654.6,0.7 		"/>
		<polygon class="st1" points="1677.3,0.7 1703.6,59 1758.5,0.7 		"/>
		<polygon class="st1" points="1499.2,0.7 1450.4,52.5 1539.9,55 1515.4,0.7 		"/>
		<polygon class="st1" points="1538.1,0.7 1562.6,55 1613.7,0.7 		"/>
		<polygon class="st1" points="1358.6,0.7 1316.4,45.5 1405.9,48 1384.6,0.7 		"/>
		<polygon class="st1" points="1407.3,0.7 1428.6,48 1473.2,0.7 		"/>
		<polygon class="st1" points="1217.8,0.7 1179.4,41.5 1268.9,44 1249.4,0.7 		"/>
		<polygon class="st1" points="1272.1,0.7 1291.6,44 1332.4,0.7 		"/>
		<polygon class="st1" points="1073.2,0.7 1040.4,35.5 1129.9,38 1113.1,0.7 		"/>
		<polygon class="st1" points="1135.8,0.7 1152.6,38 1187.7,0.7 		"/>
		<polygon class="st1" points="925.3,0.7 894.4,33.5 983.9,36 968,0.7 		"/>
		<polygon class="st1" points="990.7,0.7 1006.6,36 1039.9,0.7 		"/>
		<polygon class="st1" points="778.5,0.7 751.4,29.5 840.9,32 826.8,0.7 		"/>
		<polygon class="st1" points="849.5,0.7 863.6,32 893.1,0.7 		"/>
		<polygon class="st1" points="628.7,0.7 604.4,26.5 693.9,29 681.1,0.7 		"/>
		<polygon class="st1" points="703.8,0.7 716.6,29 743.3,0.7 		"/>
		<polygon class="st1" points="485.9,0.7 464.4,23.5 553.9,26 542.5,0.7 		"/>
		<polygon class="st1" points="565.2,0.7 576.6,26 600.5,0.7 		"/>
		<polygon class="st1" points="345.1,0.7 327.4,19.5 416.9,22 407.3,0.7 		"/>
		<polygon class="st1" points="430,0.7 439.6,22 459.7,0.7 		"/>
	</g>
	<path class="st2" d="M292.2,7.3c0,0,122.5,94.3,410.7,36.8c288.2-57.5,565,11,565,11s407.2,105.5,599.2-4
		c191.9-109.5,551.9,43.5,551.9,43.5s101.4,61.1,141.5-21.2"/>
	<g>
		<path class="st3" d="M1331,91.7c0.1,9.7-16.8,23.8-37.6,24.1c-20.8,0.3-37.5-13.3-37.6-23c-0.1-9.7,16.3-11.8,37.1-12.1
			C1313.7,80.4,1330.9,82,1331,91.7z"/>
		<path class="st0" d="M1331,91.7c0.1,9.7-16.6,17.8-37.3,18.1c-20.8,0.3-37.7-7.3-37.9-17c-0.1-9.7,16.6-17.8,37.3-18.1
			C1314,74.4,1330.9,82,1331,91.7z"/>
		<path class="st0" d="M1257.2,88l17.4-21.1c0,0,2.7,1.7,20,2c17.3,0.3,19.9-4.1,19.9-4.1l15.7,23.3L1257.2,88z"/>
		<path class="st0" d="M1277.4,41.7l-2.7,25.1c0,0,25.8,11.3,39.9-2.1l-2-23.1C1312.5,41.7,1296.8,29.5,1277.4,41.7z"/>
		<path class="st0" d="M1312.5,41.1c0.1,4.5-7.8,8.3-17.5,8.5c-9.7,0.1-17.7-3.4-17.7-7.9c-0.1-4.5,7.8-8.3,17.5-8.5
			C1304.5,33,1312.5,36.6,1312.5,41.1z"/>
	</g>
	<g>
		<path class="st4" d="M1663.6,81.1c4.9,8.8-3.8,30.1-22.7,40.5c-18.9,10.4-40.9,6.1-45.7-2.7c-4.9-8.8,9.2-18.8,28.1-29.2
			C1642.2,79.2,1658.8,72.3,1663.6,81.1z"/>
		<path class="st0" d="M1663.6,81.1c4.9,8.8-6.5,24.4-25.4,34.8c-18.9,10.4-38.2,11.7-43,2.9c-4.9-8.8,6.5-24.4,25.4-34.8
			C1639.5,73.6,1658.8,72.3,1663.6,81.1z"/>
		<path class="st0" d="M1594.1,113.7l5.7-27.9c0,0,3.4,0.3,19.3-7.9c16-8.2,16.2-13.4,16.2-13.4l25.8,13.7L1594.1,113.7z"/>
		<path class="st0" d="M1590,61.4l9.8,24.4c0,0,29.2-2.2,35.6-21.3l-13.1-20.3C1622.3,44.2,1601.8,40.8,1590,61.4z"/>
		<path class="st0" d="M1622,43.8c2.3,4.1-3.1,11.4-11.9,16.3c-8.8,4.9-17.9,5.5-20.1,1.4c-2.3-4.1,3.1-11.4,11.9-16.3
			C1610.7,40.2,1619.7,39.6,1622,43.8z"/>
	</g>
	<line class="st5" x1="1904.1" y1="2" x2="1904.1" y2="179"/>
	<line class="st5" x1="1897.1" y1="1" x2="1897.1" y2="223"/>
	<g>
		<path class="st6" d="M1043.8,87.6c-3.2,9.1-24,16.5-43.6,9.7c-19.6-6.9-30.6-25.4-27.4-34.5c3.2-9.1,19.4-5.4,39,1.4
			C1031.4,71,1047,78.4,1043.8,87.6z"/>
		<path class="st0" d="M1043.8,87.6c-3.2,9.1-21.7,11-41.3,4.1c-19.6-6.9-32.9-19.8-29.7-29c3.2-9.1,21.7-11,41.3-4.1
			C1033.7,65.5,1047,78.4,1043.8,87.6z"/>
		<path class="st0" d="M975.8,58.6l23.6-13.8c0,0,2,2.6,18.1,8.8c16.1,6.2,20,3,20,3l6.7,27.3L975.8,58.6z"/>
		<path class="st0" d="M1010.7,22.2l-11.2,22.6c0,0,20.4,19.5,38.1,11.8l6.1-22.4C1043.7,34.3,1033.1,17.4,1010.7,22.2z"/>
		<path class="st0" d="M1043.9,33.8c-1.5,4.3-10.2,5.1-19.3,1.9c-9.2-3.2-15.4-9.3-13.9-13.6c1.5-4.3,10.2-5.1,19.3-1.9
			C1039.1,23.4,1045.4,29.5,1043.9,33.8z"/>
	</g>
	<line class="st5" x1="905.1" y1="9" x2="905.1" y2="165"/>
	<line class="st5" x1="897.1" y1="7" x2="897.1" y2="121"/>
</g>
</svg>
