<svg width="16" height="10" viewBox="0 0 16 10" fill="none" xmlns="http://www.w3.org/2000/svg">
<path d="M0.692634 5.69263L13.6354 5.69263L10.5471 8.78116C10.2765 9.05156 10.2765 9.4902 10.5471 9.76055C10.8176 10.0311 11.2562 10.0311 11.5264 9.76055L15.7971 5.48979C16.0676 5.2194 16.0676 4.78072 15.7971 4.5104L11.5264 0.239447C11.3912 0.104128 11.2139 0.0365696 11.0367 0.0365696C10.8595 0.0365696 10.6823 0.104128 10.5471 0.239447C10.2765 0.509844 10.2765 0.948481 10.5471 1.2188L13.6354 4.30749L0.692634 4.30749C0.310157 4.30749 0 4.6176 0 5.00008C0 5.38256 0.310117 5.69263 0.692634 5.69263Z" fill="black"/>
</svg>
