<svg width="16" height="10" viewBox="0 0 16 10" fill="none" xmlns="http://www.w3.org/2000/svg">
<path fill-rule="evenodd" clip-rule="evenodd" d="M8.78487 9.70998C8.78487 9.70998 9.07389 9.67668 9.2209 9.51121C9.35691 9.35926 9.35191 9.07411 9.35191 9.07411C9.35191 9.07411 9.33291 7.73891 9.92895 7.54222C10.516 7.34865 11.2701 8.83267 12.0691 9.40401C12.6732 9.8359 13.1322 9.7412 13.1322 9.7412L15.2693 9.70998C15.2693 9.70998 16.3874 9.63817 15.8574 8.7234C15.8144 8.64847 15.5484 8.04695 14.2683 6.81061C12.9282 5.51599 13.1082 5.72621 14.7223 3.48768C15.7054 2.12437 16.0984 1.29182 15.9754 0.935904C15.8584 0.596639 15.1353 0.686138 15.1353 0.686138L12.7312 0.700708C12.7312 0.700708 12.5531 0.675731 12.4201 0.757946C12.2911 0.83912 12.2081 1.02644 12.2081 1.02644C12.2081 1.02644 11.8271 2.08171 11.3191 2.97878C10.248 4.8718 9.81894 4.97171 9.64393 4.85411C9.2369 4.58041 9.33891 3.75306 9.33891 3.16611C9.33891 1.33137 9.60593 0.566458 8.81787 0.368727C8.55585 0.303163 8.36384 0.259454 7.69479 0.25217C6.83673 0.242803 6.10967 0.255292 5.69864 0.464471C5.42462 0.603923 5.21361 0.91509 5.34262 0.932782C5.50163 0.954637 5.86165 1.03373 6.05267 1.30431C6.29969 1.65294 6.29068 2.43762 6.29068 2.43762C6.29068 2.43762 6.4327 4.59706 5.95966 4.86556C5.63464 5.04976 5.1896 4.67407 4.23453 2.95589C3.7455 2.0765 3.37547 1.10346 3.37547 1.10346C3.37547 1.10346 3.30447 0.922375 3.17746 0.825591C3.02345 0.707993 2.80743 0.670528 2.80743 0.670528L0.521262 0.685097C0.521262 0.685097 0.178236 0.695504 0.0522271 0.850567C-0.0597811 0.988979 0.0432264 1.27413 0.0432264 1.27413C0.0432264 1.27413 1.83336 5.63151 3.85951 7.82841C5.71864 9.84214 7.8288 9.70998 7.8288 9.70998H8.78487Z" fill="white"/>
</svg>
