<svg width="14" height="14" viewBox="0 0 14 14" fill="none" xmlns="http://www.w3.org/2000/svg">
<path d="M13.2759 0.724C13.0259 0.474039 12.6868 0.333618 12.3333 0.333618C11.9797 0.333618 11.6406 0.474039 11.3906 0.724L6.99994 5.11467L2.60928 0.724C2.35781 0.481123 2.02101 0.34673 1.67141 0.349768C1.32181 0.352806 0.987398 0.493031 0.740187 0.740242C0.492976 0.987453 0.352751 1.32187 0.349713 1.67147C0.346676 2.02106 0.481068 2.35786 0.723945 2.60933L5.11461 7L0.723945 11.3907C0.596598 11.5137 0.495022 11.6608 0.425144 11.8235C0.355265 11.9861 0.318483 12.1611 0.316945 12.3381C0.315406 12.5152 0.349142 12.6907 0.416183 12.8546C0.483224 13.0185 0.582228 13.1673 0.707419 13.2925C0.832609 13.4177 0.981478 13.5167 1.14534 13.5838C1.3092 13.6508 1.48477 13.6845 1.66181 13.683C1.83885 13.6815 2.01381 13.6447 2.17648 13.5748C2.33916 13.5049 2.48628 13.4033 2.60928 13.276L6.99994 8.88533L11.3906 13.276C11.6421 13.5189 11.9789 13.6533 12.3285 13.6502C12.6781 13.6472 13.0125 13.507 13.2597 13.2598C13.5069 13.0125 13.6471 12.6781 13.6502 12.3285C13.6532 11.9789 13.5188 11.6421 13.2759 11.3907L8.88528 7L13.2759 2.60933C13.5259 2.3593 13.6663 2.02022 13.6663 1.66667C13.6663 1.31311 13.5259 0.974037 13.2759 0.724Z" fill="white"/>
</svg>
