<svg width="16" height="14" viewBox="0 0 16 14" fill="none" xmlns="http://www.w3.org/2000/svg">
<path d="M14.6667 5.66667H1.33333C0.979711 5.66667 0.640573 5.80715 0.390524 6.0572C0.140476 6.30724 0 6.64638 0 7.00001C0 7.35363 0.140476 7.69277 0.390524 7.94281C0.640573 8.19286 0.979711 8.33334 1.33333 8.33334H14.6667C15.0203 8.33334 15.3594 8.19286 15.6095 7.94281C15.8595 7.69277 16 7.35363 16 7.00001C16 6.64638 15.8595 6.30724 15.6095 6.0572C15.3594 5.80715 15.0203 5.66667 14.6667 5.66667Z" fill="white"/>
<path d="M14.6667 0.333344H1.33333C0.979711 0.333344 0.640573 0.473819 0.390524 0.723868C0.140476 0.973916 0 1.31305 0 1.66668C0 2.0203 0.140476 2.35944 0.390524 2.60949C0.640573 2.85953 0.979711 3.00001 1.33333 3.00001H14.6667C15.0203 3.00001 15.3594 2.85953 15.6095 2.60949C15.8595 2.35944 16 2.0203 16 1.66668C16 1.31305 15.8595 0.973916 15.6095 0.723868C15.3594 0.473819 15.0203 0.333344 14.6667 0.333344Z" fill="white"/>
<path d="M14.6667 11H9.33333C8.97971 11 8.64057 11.1405 8.39052 11.3905C8.14048 11.6406 8 11.9797 8 12.3333C8 12.687 8.14048 13.0261 8.39052 13.2762C8.64057 13.5262 8.97971 13.6667 9.33333 13.6667H14.6667C15.0203 13.6667 15.3594 13.5262 15.6095 13.2762C15.8595 13.0261 16 12.687 16 12.3333C16 11.9797 15.8595 11.6406 15.6095 11.3905C15.3594 11.1405 15.0203 11 14.6667 11Z" fill="white"/>
</svg>
