<svg xmlns="http://www.w3.org/2000/svg">
  <symbol id="icon_attention" viewBox="0 0 16 16">
    <path fill-rule="evenodd"
          d="M0 8c0-4.4 3.6-8 8-8s8 3.6 8 8-3.6 8-8 8-8-3.6-8-8zm2 0c0 3.3 2.7 6 6 6s6-2.7 6-6-2.7-6-6-6-6 2.7-6 6z"
          clip-rule="evenodd"/>
    <path d="M7 4h2v5H7V4zM8 12a1 1 0 1 0 0-2 1 1 0 0 0 0 2z"/>
  </symbol>
  <symbol id="icon_info" viewBox="0 0 16 16">
    <path fill-rule="evenodd"
          d="M0 8c0-4.4 3.6-8 8-8s8 3.6 8 8-3.6 8-8 8-8-3.6-8-8zm2 0c0 3.3 2.7 6 6 6s6-2.7 6-6-2.7-6-6-6-6 2.7-6 6z"
          clip-rule="evenodd"/>
    <path d="M7 7h2v5H7V7zM8 6a1 1 0 1 0 0-2 1 1 0 0 0 0 2z"/>
  </symbol>
  <symbol id="icon_upload" viewBox="0 0 16 16">
    <path fill-rule="evenodd"
          d="M7 12V3.4l-4 4L1.6 6 7.3.3c.4-.4 1-.4 1.4 0L14.4 6 13 7.4l-4-4V12H7zm-5 2h12v-3h2v4c0 .6-.4 1-1 1H1c-.6 0-1-.4-1-1v-4h2v3z"
          clip-rule="evenodd"/>
  </symbol>
  <symbol id="icon_dropdown" viewBox="0 0 16 16">
    <path d="M8 10L4.5 6.824 5.407 6 8 8.353 10.593 6l.907.824L8 10z"/>
  </symbol>
  <symbol id="checkbox__mark" viewBox="0 0 16 16">
    <path d="M12.4 6L11 4.6l-4 4-2-2L3.6 8l2.693 2.693a1 1 0 0 0 1.414 0L12.4 6z"/>
  </symbol>
  <symbol id="icon_loader" viewBox="0 0 16 16">
    <path d="M3.757 3.757a6 6 0 0 1 8.485 8.485l1.415 1.415A8 8 0 0 0 2.343 2.342l1.414 1.414z"/>
  </symbol>


  <symbol id="icon_back" viewBox="0 0 16 16">
    <path d="M6.7 14.4L8.1 13 3.8 8.7H16v-2H3.8l4.3-4.3L6.7 1 .707 6.993a1 1 0 0 0 0 1.414L6.7 14.4z"/>
  </symbol>
  <symbol id="icon_like" viewBox="0 0 16 16">
    <path
      d="M14.682 2.318a4.5 4.5 0 0 0-6.364 0 .438.438 0 0 1-.636 0 4.5 4.5 0 0 0-6.364 6.364l5.308 5.019a2 2 0 0 0 2.748 0l5.308-5.019a4.5 4.5 0 0 0 0-6.364z"/>
  </symbol>
  <symbol id="icon_share" viewBox="0 0 16 16">
    <path
      d="M11 6c1.654 0 3-1.346 3-3s-1.346-3-3-3-3 1.346-3 3c0 .223.029.439.075.649l-3.22 2.012A2.97 2.97 0 0 0 3 5C1.346 5 0 6.346 0 8s1.346 3 3 3a2.97 2.97 0 0 0 1.855-.661l3.22 2.012c-.046.21-.075.426-.075.649 0 1.654 1.346 3 3 3s3-1.346 3-3-1.346-3-3-3a2.97 2.97 0 0 0-1.855.661l-3.22-2.012C5.971 8.439 6 8.223 6 8c0-.223-.029-.439-.075-.649l3.22-2.012A2.97 2.97 0 0 0 11 6z"/>
  </symbol>
  <symbol id="icon_chat" viewBox="0 0 16 16">
    <path
      d="M8 0c4.4 0 8 3.1 8 7s-3.6 7-8 7c-.25 0-.502 0-.728-.025-.244-.026-.496-.022-.721.075l-3.157 1.353A1 1 0 0 1 2 14.483v-2.469c0-.265-.108-.517-.285-.715C.675 10.14 0 8.654 0 7c0-3.9 3.6-7 8-7z"/>
  </symbol>
  <symbol id="icon_options" viewBox="0 0 16 16">
    <path fill-rule="evenodd"
          d="M4 8a2 2 0 1 1-4 0 2 2 0 0 1 4 0zm6 0a2 2 0 1 1-4 0 2 2 0 0 1 4 0zm4 2a2 2 0 1 0 0-4 2 2 0 0 0 0 4z"
          clip-rule="evenodd"/>
  </symbol>

  <symbol id="icon_eye" viewBox="0 0 16 16">
    <path
      d="M8 14c3.6 0 6.4-3.1 7.6-4.9.5-.7.5-1.6 0-2.3C14.4 5.1 11.6 2 8 2 4.4 2 1.6 5.1.4 6.9c-.5.7-.5 1.6 0 2.2C1.6 10.9 4.4 14 8 14zm0-9c1.7 0 3 1.3 3 3s-1.3 3-3 3-3-1.3-3-3 1.3-3 3-3z"/>
  </symbol>

  <symbol id="icon_info" viewBox="0 0 16 16">
    <path fill-opacity=".32" fill-rule="evenodd"
          d="M0 8c0-4.4 3.6-8 8-8s8 3.6 8 8-3.6 8-8 8-8-3.6-8-8zm2 0c0 3.3 2.7 6 6 6s6-2.7 6-6-2.7-6-6-6-6 2.7-6 6z"
          clip-rule="evenodd"/>
    <path fill-opacity=".32" d="M7 7h2v5H7V7zM8 6a1 1 0 1 0 0-2 1 1 0 0 0 0 2z"/>
  </symbol>

  <symbol id="icon_invite" viewBox="0 0 64 64">
    <path fill-rule="evenodd"
          d="M2.635 18.147a1.68 1.68 0 0 1 .344-.137L58.8 2.06c2.8-.4 5.2 1.2 5.2 4v47.6c0 2.8-2.8 4.8-5.2 4l-20.26-5.686A2 2 0 0 0 36 53.9v4.16c0 2.4-1.6 4-4 4H12c-2.4 0-4-1.6-4-4V44.853a2 2 0 0 0-1.55-1.949l-3.418-.789a1.683 1.683 0 0 1-.442-.164C1.096 41.119 0 39.59 0 38.06v-16c0-1.544 1.118-3.088 2.635-3.913zM16 52.06a2 2 0 0 0 2 2h8a2 2 0 0 0 2-2v-1.312a2 2 0 0 0-1.425-1.916l-8-2.4A2 2 0 0 0 16 48.35v3.712z"
          clip-rule="evenodd"/>
  </symbol>

  <symbol id="icon_edit" viewBox="0 0 16 16">
    <path fill-rule="evenodd"
          d="M11.7.3c-.4-.4-1-.4-1.4 0l-10 10c-.2.2-.3.4-.3.7v4c0 .6.4 1 1 1h4c.3 0 .5-.1.7-.3l10-10c.4-.4.4-1 0-1.4l-4-4zM4.6 14H2v-2.6l6-6L10.6 8l-6 6zM9.4 4L12 6.6 13.6 5 11 2.4 9.4 4z"
          clip-rule="evenodd"/>
  </symbol>

  <symbol id="icon_profile" viewBox="0 0 16 16">
    <path
      d="M8 9C5.8 9 4 7.2 4 5V4c0-2.2 1.8-4 4-4s4 1.8 4 4v1c0 2.2-1.8 4-4 4zM10 11H6c-2.105 0-3.87 1.243-4.618 3.05C.96 15.07 1.895 16 3 16h10c1.105 0 2.04-.93 1.618-1.95C13.87 12.243 12.105 11 10 11z"/>
  </symbol>

  <symbol id="icon_search" viewBox="0 0 16 16">
    <path fill-rule="evenodd"
          d="M14.1 7.056c0 1.59-.5 2.981-1.4 4.174l3 3.08c.4.398.4.994 0 1.392-.2.199-.5.298-.7.298-.2 0-.5-.1-.7-.298l-3-2.982c-1.1.895-2.6 1.392-4.2 1.392-3.9 0-7.1-3.18-7.1-7.056S3.2 0 7.1 0c3.9 0 7 3.18 7 7.056zm-12.1 0c0 2.783 2.3 4.969 5.1 4.969s5.1-2.186 5.1-4.97c0-2.782-2.3-5.067-5.1-5.067S2 4.273 2 7.056z"
          clip-rule="evenodd"/>
  </symbol>

  <symbol id="icon_filter" viewBox="0 0 16 16">
    <path
      d="M15 3h-4c-.6 0-1 .4-1 1s.4 1 1 1h4c.6 0 1-.4 1-1s-.4-1-1-1zM5 1c-1.3 0-2.4.9-2.8 2H1c-.6 0-1 .4-1 1s.4 1 1 1h1.2C2.6 6.1 3.7 7 5 7c1.7 0 3-1.3 3-3S6.7 1 5 1zM1 13h4c.6 0 1-.4 1-1s-.4-1-1-1H1c-.6 0-1 .4-1 1s.4 1 1 1zM15 11h-1.2c-.4-1.2-1.5-2-2.8-2-1.7 0-3 1.3-3 3s1.3 3 3 3c1.3 0 2.4-.9 2.8-2H15c.6 0 1-.4 1-1s-.4-1-1-1z"/>
  </symbol>

  <symbol id="icon_plus" viewBox="0 0 16 16">
    <path
      d="M12.738 6.75H9.242v-3.4c0-.6-.4-1-1-1h-.399c-.599 0-.999.4-.999 1v3.4H3.348c-.599 0-.998.4-.998 1v.5c0 .6.4 1 .998 1h3.397v3.4c0 .6.4 1 .998 1h.5c.6 0 .999-.4.999-1v-3.5h3.396c.6 0 .999-.4.999-1v-.4c.1-.6-.4-1-.9-1z"/>
  </symbol>

  <symbol id="lm-wait" viewBox="0 0 64 64">
    <path fill-rule="evenodd"
          d="M32 0C14.4 0 0 14.4 0 32s14.4 32 32 32 32-14.4 32-32S49.6 0 32 0zm0 56C18.8 56 8 45.2 8 32S18.8 8 32 8s24 10.8 24 24-10.8 24-24 24zm-4-20V16h8v12h12v8H28z"
          clip-rule="evenodd"/>
  </symbol>

  <symbol id="lm-close" viewBox="0 0 16 16">
    <path
      d="M10.467 3.766L7.995 6.238 5.59 3.834c-.424-.425-.99-.425-1.413-.001l-.283.282c-.423.424-.423.99.001 1.414L6.3 7.933l-2.472 2.472c-.423.424-.423.99.001 1.413l.354.354c.424.424.99.425 1.413 0l2.402-2.4 2.404 2.403c.424.425.99.425 1.413.001l.353-.353c.424-.424.424-.989 0-1.413L9.691 7.935l2.401-2.402c.424-.423.424-.989 0-1.413l-.284-.283c-.353-.495-.99-.424-1.342-.071z"/>
  </symbol>

  <symbol id="lm-language-eng" viewBox="0 0 16 16">
    <path style="fill: #F3F4F6" d="M8,16c4.4,0,8-3.6,8-8c0-4.4-3.6-8-8-8C3.6,0,0,3.6,0,8C0,12.4,3.6,16,8,16z"/>
    <g>
      <path style="fill: #FC2E5F" d="M14.8,3.8H7.7V1.7H13C13.7,2.3,14.3,3,14.8,3.8z"/>
      <path style="fill: #FC2E5F" d="M16,8H7.7V5.9h8.1C15.9,6.6,16,7.3,16,8z"/>
      <path style="fill: #FC2E5F" d="M8,16c1.9,0,3.6-0.7,5-1.7H3C4.4,15.3,6.1,16,8,16z"/>
      <path style="fill: #FC2E5F" d="M14.8,12.2H1.2c-0.4-0.6-0.7-1.3-0.9-2.1h15.4C15.5,10.8,15.2,11.5,14.8,12.2z"/>
    </g>
    <path style="fill: #0063DA" d="M3.7,1.2h0.7L3.8,1.7L4,2.5L3.3,2L2.7,2.5l0.2-0.7C2.3,2.3,1.8,2.9,1.3,3.6h0.2L1.1,3.9C1.1,4,1,4.1,0.9,4.2
			l0.2,0.6L0.8,4.6C0.7,4.8,0.6,5,0.5,5.2l0.2,0.7h0.8L0.9,6.4l0.3,0.8L0.5,6.7L0.1,7C0,7.3,0,7.7,0,8h8c0-4.4,0-4.9,0-8
			C6.4,0,4.9,0.5,3.7,1.2z M4,7.2L3.3,6.7L2.7,7.2l0.3-0.8L2.2,5.9h0.8l0.3-0.8l0.3,0.8h0.8L3.8,6.4L4,7.2z M3.8,4.1L4,4.9L3.3,4.4
			L2.7,4.9l0.3-0.8L2.2,3.6h0.8l0.3-0.8l0.3,0.8h0.8L3.8,4.1z M6.9,7.2L6.2,6.7L5.5,7.2l0.3-0.8L5.1,5.9h0.8l0.3-0.8l0.3,0.8h0.8
			L6.6,6.4L6.9,7.2z M6.6,4.1l0.3,0.8L6.2,4.4L5.5,4.9l0.3-0.8L5.1,3.6h0.8l0.3-0.8l0.3,0.8h0.8L6.6,4.1z M6.6,1.7l0.3,0.8L6.2,2
			L5.5,2.5l0.3-0.8L5.1,1.2h0.8l0.3-0.8l0.3,0.8h0.8L6.6,1.7z"/>
  </symbol>

  <symbol id="lm-language-rus" viewBox="0 0 16 16">
    <path style="fill: #FC2E5F" d="M15.5,10.7h-15C1.6,13.8,4.5,16,8,16S14.4,13.8,15.5,10.7z"/>
    <path style="fill: #0063DA"
          d="M0.5,5.3C0.2,6.2,0,7.1,0,8c0,0.9,0.2,1.9,0.5,2.7h15C15.8,9.9,16,8.9,16,8c0-0.9-0.2-1.8-0.5-2.7H0.5z"/>
    <path style="fill: #F3F4F6" d="M0.5,5.3h15.1C14.4,2.2,11.5,0,8,0S1.6,2.2,0.5,5.3z"/>
  </symbol>

  <symbol id="lm-logo" viewBox="0 0 80 12">
    <path
      d="M4.858 11.84H1.265a1.227 1.227 0 0 1-.962-.31 1.299 1.299 0 0 1-.296-.967v-9.22C.007.459.35.01 1.054.01S2.098.46 2.098 1.374v8.57h2.644c.943 0 1.39.31 1.39.95 0 .64-.425.96-1.274.96v-.014zM9.334 11.95c-.7 0-1.043-.432-1.043-1.313V1.343C8.29.459 8.633.01 9.334.01c.702 0 1.044.449 1.044 1.333v9.275c0 .881-.34 1.33-1.044 1.33v.003zM22.277 12a1.482 1.482 0 0 1-1.191-.69l-5.583-7.624v6.982c0 .85-.359 1.283-1.06 1.283-.7 0-1.028-.433-1.028-1.299V1.287c0-.85.315-1.283.943-1.283.47.026.897.278 1.141.674l5.66 7.575v-6.91c0-.885.342-1.333 1.027-1.333.686 0 1.063.448 1.063 1.333v9.47c0 .785-.314 1.187-.943 1.187h-.029zM34.048 11.969c-.315 0-.701-.21-1.11-.618l-4.8-4.947v4.27c0 .865-.359 1.301-1.06 1.301-.7 0-1.031-.436-1.031-1.301V1.343c0-.885.346-1.333 1.031-1.333.686 0 1.06.433 1.06 1.317v3.417l4.36-4.125c.424-.402.783-.618 1.06-.618a.952.952 0 0 1 .704.27.92.92 0 0 1 .276.691c0 .275-.23.619-.685 1.045l-3.82 3.516 4.537 4.572c.276.245.446.585.474.95a.92.92 0 0 1-.294.675.952.952 0 0 1-.702.252v-.003zM60.465.09h-.025a1.216 1.216 0 0 0-.437-.074.886.886 0 0 0-.78.362c-.183.287-.27.623-.248.962v5.729a4.384 4.384 0 0 1-.314 1.78c0 .025-.022.053-.035.078a1.87 1.87 0 0 1-.185.294c-.053.072-.11.14-.17.204l-.139.126a1.815 1.815 0 0 1-.25.177c-.054.03-.108.061-.168.09a2.327 2.327 0 0 1-.53.172c-.091.02-.182.034-.274.044-.107 0-.22.021-.337.024h-.138a3.92 3.92 0 0 1-.689-.061 2.12 2.12 0 0 1-1.732-1.704 5.37 5.37 0 0 1-.129-1.237V1.327c0-.649-.195-1.054-.575-1.236C53.16.03 53 0 52.839.004c-.689 0-1.029.433-1.029 1.317v5.874c-.03.94.197 1.87.657 2.693l.063.105c.016.025.035.047.047.072.15.22.32.428.507.618.864.85 1.845 1.268 3.348 1.268 1.502 0 2.5-.418 3.348-1.253.849-.834 1.289-2.006 1.289-3.5V1.325c0-.674-.201-1.085-.6-1.237l-.004.004zM69.45 11.005a4.639 4.639 0 0 1-2.99.946 7.057 7.057 0 0 1-2.138-.334c-.943-.31-1.421-.758-1.421-1.317a.87.87 0 0 1 .283-.668.902.902 0 0 1 .698-.232 3.2 3.2 0 0 1 .751.226l.815.309c.417.13.853.196 1.292.194a1.804 1.804 0 0 0 1.257-.513c.334-.315.522-.75.522-1.205 0-.69-.475-1.219-1.421-1.605l-2.644-1.067a2.694 2.694 0 0 1-1.418-2.473 2.907 2.907 0 0 1 1.192-2.44 4.376 4.376 0 0 1 2.694-.819c1.094 0 1.943.226 2.515.674.295.187.477.505.487.85a.748.748 0 0 1-.26.619c-.19.161-.435.246-.686.238a3.502 3.502 0 0 1-1.012-.288 3.565 3.565 0 0 0-1.16-.29 1.79 1.79 0 0 0-1.142.355c-.31.251-.479.633-.456 1.027-.014.339.16.66.456.834.412.23.843.424 1.29.579.898.298 1.758.696 2.565 1.187a2.837 2.837 0 0 1 1.175 2.424 3.42 3.42 0 0 1-1.257 2.782l.013.007zM78.677 11.84H74.18c-.912 0-1.258-.31-1.258-1.22V1.47c0-.897.406-1.349 1.239-1.349h4.543c.849 0 1.273.322 1.273.965 0 .64-.424.961-1.289.961h-3.678v2.81h3.433c.864 0 1.289.31 1.289.928 0 .619-.425.928-1.29.928h-3.445v3.23h3.729c.845 0 1.273.31 1.273.98 0 .672-.44.928-1.323.928v-.012zM49.05 1.095a.323.323 0 0 0 0-.055V.98a.209.209 0 0 1 0-.042c0-.022 0-.047-.016-.068V.836l-.022-.068V.734l-.028-.065V.638c0-.022-.022-.04-.032-.06l-.025-.036-.035-.05-.028-.04-.034-.04-.095-.053a.491.491 0 0 0-.04-.04L48.66.29l-.054-.04-.031-.026a.52.52 0 0 0-.07-.043h-.018l-.076-.037h-.025l-.075-.028h-.028l-.07-.018h-.581l-.066.021h-.038l-.06.028-.04.019-.05.027-.048.028-.04.028-.048.034-.034.028-.045.05-.031.03-.04.047a.46.46 0 0 0-.032.04.537.537 0 0 0-.035.043l-.035.053V.6l-3.964 7.918L39.06.6a.077.077 0 0 0 0-.028c0-.019-.022-.037-.035-.053a.537.537 0 0 0-.034-.043.442.442 0 0 0-.032-.04l-.04-.047-.032-.03-.047-.044-.035-.028-.05-.034-.041-.028L38.666.2l-.05-.028-.041-.019-.06-.028h-.038l-.066-.021h-.484a.361.361 0 0 0-.056 0h-.041l-.07.018h-.028l-.075.028h-.025l-.076.037-.066.044-.035.024-.05.04-.038.031-.04.04a.217.217 0 0 0-.035.04l-.038.041-.028.04-.035.05a.241.241 0 0 0-.022.037.364.364 0 0 0-.034.058v.031l-.028.065v.034l-.022.068V.931a.209.209 0 0 1 0 .044v9.832a1.111 1.111 0 0 0 1.117 1.042c.595 0 1.086-.458 1.118-1.043V5.241l2.83 5.998c.195.332.552.54.942.548h.073c.39-.009.747-.216.943-.548l2.83-5.998v5.566c0 .607.5 1.1 1.118 1.1a1.11 1.11 0 0 0 1.12-1.1V1.131v-.037h-.126z"/>
  </symbol>

  <symbol id="lm-home" viewBox="0 0 16 16">
    <path
      d="M0 7.078V15a1 1 0 0 0 1 1h3.5a1 1 0 0 0 1-1v-3a1 1 0 0 1 1-1h3a1 1 0 0 1 1 1v3a1 1 0 0 0 1 1H15a1 1 0 0 0 1-1V7.078a3 3 0 0 0-1.3-2.472l-5-3.438a3 3 0 0 0-3.4 0l-5 3.438A3 3 0 0 0 0 7.078z"/>
  </symbol>

  <symbol id="lm-menu" viewBox="0 0 16 16">
    <path
      d="M15 1.25H1a1 1 0 0 0-1 1v.5a1 1 0 0 0 1 1h14a1 1 0 0 0 1-1v-.5a1 1 0 0 0-1-1zM13 6.75H3a1 1 0 0 0-1 1v.5a1 1 0 0 0 1 1h10a1 1 0 0 0 1-1v-.5a1 1 0 0 0-1-1zM15 12.25H1a1 1 0 0 0-1 1v.5a1 1 0 0 0 1 1h14a1 1 0 0 0 1-1v-.5a1 1 0 0 0-1-1z"/>
  </symbol>

  <symbol id="lm-notification" viewBox="0 0 16 16">
    <path
      d="M10 14H6c0 1.1.9 2 2 2s2-.9 2-2zM15 11h-.5c-.7-.7-1.5-1.7-1.5-3V5c0-2.8-2.2-5-5-5S3 2.2 3 5v3c0 1.3-.8 2.3-1.5 3H1c-.6 0-1 .4-1 1s.4 1 1 1h14c.6 0 1-.4 1-1s-.4-1-1-1z"/>
  </symbol>

  <symbol id="round_lm-verification" viewBox="0 0 16 16">
    <path style="fill: #0063DA"
          d="M7.652.336a.5.5 0 0 1 .696 0l1.454 1.407a.5.5 0 0 0 .418.136l2.003-.283a.5.5 0 0 1 .563.408l.35 1.993a.5.5 0 0 0 .258.356l1.787.948a.5.5 0 0 1 .215.661l-.889 1.818a.5.5 0 0 0 0 .44l.889 1.818a.5.5 0 0 1-.215.66l-1.787.95a.5.5 0 0 0-.258.355l-.35 1.993a.5.5 0 0 1-.563.408l-2.003-.283a.5.5 0 0 0-.418.136l-1.454 1.407a.5.5 0 0 1-.696 0l-1.454-1.407a.5.5 0 0 0-.418-.136l-2.003.283a.5.5 0 0 1-.563-.408l-.35-1.993a.5.5 0 0 0-.258-.356L.82 10.7a.5.5 0 0 1-.215-.661l.889-1.818a.5.5 0 0 0 0-.44L.604 5.962a.5.5 0 0 1 .215-.66l1.787-.95a.5.5 0 0 0 .259-.355l.35-1.993a.5.5 0 0 1 .562-.408l2.003.283a.5.5 0 0 0 .418-.136L7.652.336z"/>
    <path style="fill :#fff"
          d="M10.947 6.854a.5.5 0 0 0 0-.708l-.343-.343a.5.5 0 0 0-.707 0L7.604 8.096a.5.5 0 0 1-.707 0l-.793-.793a.5.5 0 0 0-.707 0l-.343.343a.5.5 0 0 0 0 .708l1.843 1.842a.5.5 0 0 0 .707 0l3.343-3.342z"/>
  </symbol>

  <symbol id="logo__label_hr" viewBox="0 0 144 18" width="144" height="18">
    <path fill="#0063DA"
          d="M129.815 15.5a1 1 0 0 0 1-1v-11a1 1 0 0 0-1-1h-.284a1 1 0 0 0-1 1v3.405a1 1 0 0 1-1 1h-4.238a1 1 0 0 1-1-1V3.5a1 1 0 0 0-1-1H121a1 1 0 0 0-1 1v11a1 1 0 0 0 1 1h.293a1 1 0 0 0 1-1v-3.64a1 1 0 0 1 1-1h4.238a1 1 0 0 1 1 1v3.64a1 1 0 0 0 1 1h.284zM136.384 5.383a1 1 0 0 1 1-1h1.542c1.448 0 2.346.847 2.346 2.216 0 1.405-.844 2.225-2.302 2.225h-1.586a1 1 0 0 1-1-1V5.383zm0 6.225a1 1 0 0 1 1-1h.87a1 1 0 0 1 .889.542l1.965 3.809c.172.332.515.541.889.541h.336a1 1 0 0 0 .882-1.471l-1.472-2.757c-.286-.536-.017-1.195.459-1.572.908-.719 1.416-1.854 1.416-3.155 0-2.486-1.662-4.045-4.434-4.045h-4.092a1 1 0 0 0-1 1v11a1 1 0 0 0 1 1h.292a1 1 0 0 0 1-1v-2.892z"/>
    <rect width="2" height="18" x="106" fill="#0063DA" rx="1"/>
    <path fill="#0063DA"
          d="M5.708 15.813H1.486a1.447 1.447 0 0 1-1.13-.361 1.508 1.508 0 0 1-.348-1.129V3.567c0-1.032.403-1.555 1.23-1.555.828 0 1.227.523 1.227 1.59v10H5.57c1.109 0 1.633.36 1.633 1.107s-.499 1.122-1.496 1.122v-.018zM10.968 15.943c-.824 0-1.226-.505-1.226-1.533V3.567c0-1.032.402-1.555 1.226-1.555s1.226.523 1.226 1.555v10.82c0 1.029-.399 1.552-1.226 1.552v.004zM26.176 16a1.744 1.744 0 0 1-1.4-.804L18.216 6.3v8.144c0 .992-.422 1.497-1.245 1.497-.824 0-1.208-.505-1.208-1.515V3.502c0-.992.37-1.497 1.108-1.497.552.03 1.054.324 1.34.786l6.65 8.837V3.566c0-1.031.403-1.554 1.208-1.554.805 0 1.248.523 1.248 1.554v11.049c0 .916-.369 1.385-1.108 1.385h-.033zM40.006 15.964c-.37 0-.824-.245-1.304-.722l-5.64-5.77v4.98c0 1.01-.421 1.519-1.245 1.519-.824 0-1.212-.509-1.212-1.519V3.566c0-1.031.407-1.554 1.212-1.554.805 0 1.245.505 1.245 1.536v3.986l5.123-4.812c.499-.469.92-.721 1.245-.721.309-.012.609.102.828.315.218.213.336.505.325.807 0 .32-.27.721-.806 1.219L35.29 8.443l5.33 5.335c.325.286.524.682.558 1.107 0 .298-.125.583-.346.788-.222.205-.52.311-.825.294v-.003zM71.047 2.106h-.03a1.436 1.436 0 0 0-.2-.058 1.685 1.685 0 0 0-.313-.029 1.044 1.044 0 0 0-.916.422 1.842 1.842 0 0 0-.292 1.122v6.684a5.08 5.08 0 0 1-.37 2.077c0 .03-.026.062-.04.09-.062.121-.135.236-.218.343a2.339 2.339 0 0 1-.2.238l-.162.148a2.13 2.13 0 0 1-.296.206c-.063.036-.125.072-.196.104a2.746 2.746 0 0 1-.624.202c-.106.023-.213.04-.321.05-.126 0-.259.026-.395.03h-.163c-.271 0-.542-.025-.809-.072-1.038-.18-1.851-.974-2.035-1.988a6.221 6.221 0 0 1-.152-1.443V3.548c0-.757-.229-1.23-.676-1.442a1.456 1.456 0 0 0-.554-.101c-.809 0-1.208.505-1.208 1.536v6.854a5.995 5.995 0 0 0 .772 3.141l.074.123c.019.029.04.054.056.083.175.258.374.5.594.721 1.016.992 2.169 1.48 3.934 1.48 1.766 0 2.937-.488 3.934-1.461.998-.974 1.515-2.341 1.515-4.084V3.545c0-.786-.237-1.266-.706-1.443l-.003.004zM81.603 14.839a5.477 5.477 0 0 1-3.513 1.103 8.349 8.349 0 0 1-2.512-.39c-1.108-.36-1.67-.883-1.67-1.536a1.012 1.012 0 0 1 .334-.78c.22-.2.519-.299.82-.27.304.052.6.14.882.264l.957.36c.49.153 1.003.23 1.518.228a2.127 2.127 0 0 0 1.478-.599c.392-.368.613-.876.613-1.407 0-.804-.558-1.42-1.67-1.872l-3.106-1.244a3.139 3.139 0 0 1-1.666-2.886 3.384 3.384 0 0 1 1.4-2.846 5.168 5.168 0 0 1 3.165-.956c1.286 0 2.283.264 2.955.787.347.218.561.59.573.992a.87.87 0 0 1-.307.721c-.222.189-.51.288-.805.278a4.137 4.137 0 0 1-1.19-.336 4.214 4.214 0 0 0-1.362-.339 2.114 2.114 0 0 0-1.341.415 1.428 1.428 0 0 0-.536 1.198c-.017.396.188.77.536.973.483.268.99.494 1.514.675 1.056.348 2.067.813 3.014 1.385a3.3 3.3 0 0 1 1.382 2.828 3.978 3.978 0 0 1-1.478 3.246l.015.008zM92.445 15.812h-5.282c-1.072 0-1.478-.36-1.478-1.42V3.713c0-1.046.477-1.572 1.455-1.572h5.338c.998 0 1.496.375 1.496 1.125 0 .747-.499 1.122-1.514 1.122h-4.322v3.279h4.033c1.016 0 1.515.36 1.515 1.082 0 .721-.499 1.082-1.515 1.082h-4.048v3.77h4.381c.994 0 1.496.36 1.496 1.143 0 .782-.517 1.082-1.555 1.082v-.015zM57.633 3.278a.39.39 0 0 0 0-.065v-.069a.237.237 0 0 1 0-.05c0-.025 0-.054-.018-.08v-.04l-.026-.079v-.04l-.033-.075v-.036c0-.025-.026-.047-.037-.069l-.03-.043-.04-.058-.033-.046-.041-.047-.111-.062a.588.588 0 0 0-.048-.047l-.04-.036-.063-.047-.037-.028a.61.61 0 0 0-.082-.05h-.022l-.089-.044h-.029l-.089-.033h-.033l-.081-.021h-.684l-.077.025h-.044l-.07.032-.049.022-.059.033-.055.032-.048.032-.056.04-.04.033-.052.057-.037.036-.048.054a.53.53 0 0 0-.037.047.619.619 0 0 0-.04.05l-.041.062v.033l-4.658 9.237-4.662-9.237a.089.089 0 0 0 0-.033c0-.021-.026-.043-.04-.061a.617.617 0 0 0-.041-.05.53.53 0 0 0-.037-.047l-.048-.055-.037-.036-.055-.05-.041-.033-.06-.04-.047-.032-.056-.032-.059-.033-.048-.021-.07-.033h-.044l-.078-.025h-.569a.43.43 0 0 0-.066 0h-.048l-.082.022h-.033l-.088.032h-.03l-.089.043-.077.05-.04.03-.06.047-.044.036-.048.047a.253.253 0 0 0-.04.046l-.045.047-.033.047-.041.058a.272.272 0 0 0-.026.043.42.42 0 0 0-.04.069v.036l-.034.076v.04l-.026.079v.119a.25.25 0 0 1 0 .05.436.436 0 0 1 0 .069v11.401c.037.682.614 1.217 1.314 1.217.699 0 1.276-.535 1.313-1.216V8.114l3.324 6.998c.23.386.65.628 1.108.638h.085a1.32 1.32 0 0 0 1.109-.638l3.324-6.998v6.492c0 .71.589 1.285 1.315 1.285s1.315-.575 1.315-1.284V3.32v-.043h-.148z"/>
  </symbol>

  <symbol id="lm-arrow-left" viewBox="0 0 16 16">
    <path d="M6.7 14.4L8.1 13 3.8 8.7H16v-2H3.8l4.3-4.3L6.7 1 .707 6.993a1 1 0 0 0 0 1.414L6.7 14.4z"/>
  </symbol>

  <symbol id="lm-arrow-up" viewBox="0 0 16 16">
    <path style="fill: #0063DA"
          d="M1.354 6.346a.5.5 0 0 0 0 .708l.693.692a.5.5 0 0 0 .707 0l3.093-3.092a.5.5 0 0 1 .853.353V15.5a.5.5 0 0 0 .5.5h1a.5.5 0 0 0 .5-.5V5.007a.5.5 0 0 1 .854-.353l3.093 3.092a.5.5 0 0 0 .707 0l.693-.692a.5.5 0 0 0 0-.708L8.407.707a1 1 0 0 0-1.414 0l-5.64 5.64z"/>
  </symbol>

  <symbol id="lm-favourite" viewBox="0 0 16 16">
    <path style="fill: #F5A623"
          d="M15.143 5.291l-4.315-.657L8.897.537C8.559-.18 7.44-.18 7.103.537l-1.93 4.097-4.316.657C.04 5.416-.291 6.472.303 7.08l3.123 3.19-.737 4.504c-.139.852.717 1.507 1.451 1.104L8 13.752l3.86 2.127c.728.4 1.591-.245 1.451-1.104l-.737-4.505 3.124-3.189c.593-.609.262-1.665-.555-1.79z"/>
  </symbol>

  <symbol id="social-lm-phone" viewBox="0 0 16 16">
    <path fill="#fff"
          d="M15.701 12.207l-2.648-2.663a1.027 1.027 0 0 0-1.455-.002l-2.353 2.352L4.109 6.76l2.356-2.355c.4-.4.402-1.05.001-1.451L3.816.3a1.028 1.028 0 0 0-1.453 0L.004 2.657 0 2.654C0 10.025 5.978 16 13.354 16l2.345-2.344c.4-.4.402-1.048.002-1.45z"/>
  </symbol>
  <symbol id="lm-chevron" viewBox="0 0 16 16">
    <path d="M8.683 10.362a1 1 0 0 1-1.366 0L4.338 7.58a.752.752 0 0 1 1.027-1.1l1.952 1.824a1 1 0 0 0 1.366 0l1.952-1.823a.752.752 0 0 1 1.027 1.1l-2.98 2.782z"/>
  </symbol>

  <symbol id="lm-heart" viewBox="0 0 16 16">
    <path d="M14.682 2.318a4.5 4.5 0 0 0-6.364 0 .438.438 0 0 1-.636 0 4.5 4.5 0 0 0-6.364 6.364l5.308 5.019a2 2 0 0 0 2.748 0l5.308-5.019a4.5 4.5 0 0 0 0-6.364z"/>
  </symbol>

  <symbol id="lm-media" viewBox="0 0 16 16">
    <path fill="#fff" fill-rule="evenodd" d="M15.106 6.419c1.192.706 1.192 2.456 0 3.162L4.711 15.748C3.509 16.46 2 15.58 2 14.165V1.834C2 .42 3.51-.46 4.71.253l10.396 6.166z" clip-rule="evenodd"/>
  </symbol>

  <symbol id="lm-icon-zoom-in" viewBox="0 0 16 16">
    <path d="M12.7 11.23a6.777 6.777 0 0 0 1.4-4.174C14.1 3.18 11 0 7.1 0S0 3.18 0 7.056s3.2 7.056 7.1 7.056c1.6 0 3.1-.497 4.2-1.392l3 2.982c.2.199.5.298.7.298.2 0 .5-.1.7-.298.4-.398.4-.994 0-1.391l-3-3.081zm-5.6.795c-2.8 0-5.1-2.186-5.1-4.97 0-2.782 2.3-5.067 5.1-5.067s5.1 2.285 5.1 5.068c0 2.783-2.3 4.969-5.1 4.969z"/>
    <path d="M8 4H6v2H4v2h2v2h2V8h2V6H8V4z"/>
  </symbol>

  <symbol id="lm-icon-zoom-out" viewBox="0 0 16 16">
    <path d="M12.7 11.23a6.777 6.777 0 0 0 1.4-4.174C14.1 3.18 11 0 7.1 0S0 3.18 0 7.056s3.2 7.056 7.1 7.056c1.6 0 3.1-.497 4.2-1.392l3 2.982c.2.199.5.298.7.298.2 0 .5-.1.7-.298.4-.398.4-.994 0-1.391l-3-3.081zm-5.6.795c-2.8 0-5.1-2.186-5.1-4.97 0-2.782 2.3-5.067 5.1-5.067s5.1 2.285 5.1 5.068c0 2.783-2.3 4.969-5.1 4.969z"/>
    <path d="M10 6H4v2h6V6z"/>
  </symbol>

  <symbol id="lm-icon-rotate" viewBox="0 0 16 16">
    <path d="M13 9C12.4477 9 12.0128 9.4547 11.8761 9.9898C11.4345 11.7182 9.86407 13 8 13C5.79443 13 4 11.2056 4 9C4 6.8784 5.6604 5.13723 7.74996 5.00773C7.88777 4.99919 8 5.11193 8 5.25V6.95969C8 7.37894 8.48497 7.61203 8.81235 7.35012L12.0239 4.78087C12.5243 4.38054 12.5243 3.61946 12.0239 3.21913L8.81235 0.649878C8.48497 0.387973 8 0.621059 8 1.04031V2.75C8 2.88807 7.88774 2.99946 7.74979 3.00515C4.55678 3.13675 2 5.77522 2 9C2 12.3086 4.69141 15 8 15C10.9694 15 13.4417 12.8321 13.9174 9.99577C14.0087 9.45109 13.5523 9 13 9V9Z"/>
  </symbol>

  <symbol id="lm-chevron-bottom" viewBox="0 0 16 16">
    <path d="M8 10L4.5 6.824 5.407 6 8 8.353 10.593 6l.907.824L8 10z"/>
  </symbol>

  <symbol id="lm-icon-pass" viewBox="0 0 214 68">
    <rect width="213" height="67" x=".5" y=".5" stroke="#CBD0D8" rx="7.5"/>
    <path fill="#282A36" d="M65.703 40.016l1.852-3.211-5.227-2.93 5.227-2.977-1.828-3.234-4.97 3.023.259-5.507h-4.243l.258 5.484-4.992-3-1.805 3.234 5.203 2.954-5.203 2.93 1.805 3.234 4.992-3-.281 5.507h4.266l-.258-5.507 4.945 3zM97.781 40.016l1.852-3.211-5.227-2.93 5.227-2.977-1.828-3.234-4.97 3.023.259-5.507h-4.242l.257 5.484-4.992-3-1.805 3.234 5.204 2.954-5.204 2.93 1.805 3.234 4.992-3-.28 5.507h4.265l-.258-5.507 4.945 3zM129.859 40.016l1.852-3.211-5.227-2.93 5.227-2.977-1.828-3.234-4.969 3.023.258-5.507h-4.242l.258 5.484-4.993-3-1.804 3.234 5.203 2.954-5.203 2.93 1.804 3.234 4.993-3-.282 5.507h4.266l-.258-5.507 4.945 3zM161.938 40.016l1.851-3.211-5.227-2.93 5.227-2.977-1.828-3.234-4.969 3.023.258-5.507h-4.242l.258 5.484-4.993-3-1.804 3.234 5.203 2.954-5.203 2.93 1.804 3.234 4.993-3-.282 5.507h4.266l-.258-5.507 4.946 3z"/>
  </symbol>

  <symbol id="lm-icon-apple" viewBox="0 0 16 16">
    <g fill="#000" clip-path="url(#a)">
      <path d="M2.138 5.882C.785 8.229 1.645 11.79 3.14 13.95 3.887 15.03 4.643 16 5.679 16l.059-.001c.486-.02.838-.17 1.178-.314.381-.163.776-.33 1.395-.33.589 0 .965.162 1.328.32.358.154.727.314 1.272.304 1.167-.022 1.883-1.067 2.514-1.99.66-.964.99-1.899 1.102-2.256l.005-.015a.131.131 0 0 0-.07-.16l-.01-.005c-.205-.084-2.007-.883-2.026-3.061-.017-1.77 1.352-2.707 1.627-2.877l.012-.008a.131.131 0 0 0 .037-.184c-.944-1.383-2.393-1.591-2.976-1.616a2.624 2.624 0 0 0-.26-.013c-.685 0-1.34.259-1.868.466-.364.144-.678.268-.895.268-.243 0-.56-.126-.925-.27-.49-.195-1.045-.415-1.632-.415h-.041c-1.366.02-2.656.801-3.367 2.039z"/>
      <path d="M11.127 0C10.3.034 9.308.543 8.715 1.237c-.503.584-.996 1.557-.866 2.538a.131.131 0 0 0 .12.114c.056.004.113.006.17.006.808 0 1.68-.447 2.276-1.167.627-.76.944-1.737.848-2.611A.132.132 0 0 0 11.127 0z"/>
    </g>
    <defs>
      <clipPath id="a">
        <path fill="#fff" d="M0 0h16v16H0V0z"/>
      </clipPath>
    </defs>
  </symbol>

  <symbol id="lm-icon-fb" viewBox="0 0 16 16">
    <path fill="#1A32AF" fill-rule="evenodd" d="M6.013 3.099v2.203H4.5v2.693h1.513V16h3.108V7.995h2.086s.195-1.291.29-2.703H9.133V3.45c0-.275.339-.646.674-.646H11.5V0H9.198C5.936 0 6.013 2.696 6.013 3.099z" clip-rule="evenodd"/>
  </symbol>

  <symbol id="lm-icon-vk" viewBox="0 0 16 16">
    <path fill="#007BED" fill-rule="evenodd" d="M8.785 12.71s.289-.033.436-.199c.136-.152.13-.437.13-.437s-.018-1.335.578-1.532c.587-.193 1.341 1.29 2.14 1.862.604.432 1.063.337 1.063.337l2.137-.031s1.118-.072.588-.987c-.043-.075-.309-.676-1.589-1.912-1.34-1.295-1.16-1.085.454-3.323.983-1.364 1.376-2.196 1.253-2.552-.117-.34-.84-.25-.84-.25l-2.404.015s-.178-.025-.31.057c-.13.081-.213.268-.213.268s-.38 1.056-.889 1.953c-1.071 1.893-1.5 1.993-1.675 1.875-.407-.274-.305-1.1-.305-1.688 0-1.835.267-2.6-.521-2.797-.262-.066-.454-.11-1.123-.117-.858-.01-1.585.003-1.996.212-.274.14-.485.451-.356.469.159.022.519.1.71.371.247.349.238 1.134.238 1.134s.142 2.16-.331 2.428c-.325.184-.77-.192-1.725-1.91-.49-.88-.86-1.853-.86-1.853s-.07-.18-.198-.277c-.154-.118-.37-.155-.37-.155l-2.286.014s-.343.01-.469.166c-.112.138-.009.423-.009.423s1.79 4.358 3.817 6.554c1.859 2.014 3.969 1.882 3.969 1.882h.956z" clip-rule="evenodd"/>
  </symbol>

  <symbol id="lm-icon-google" viewBox="0 0 16 16">
    <g clip-path="url(#a)">
      <path fill="#FBBB00" d="M3.546 9.669l-.557 2.08-2.036.042A7.964 7.964 0 0 1 0 8a7.96 7.96 0 0 1 .894-3.68l1.813.333.794 1.801a4.756 4.756 0 0 0 .045 3.215z"/>
      <path fill="#518EF8" d="M15.86 6.505a8.007 8.007 0 0 1-.035 3.165 7.999 7.999 0 0 1-2.817 4.569l-2.283-.117-.323-2.017a4.768 4.768 0 0 0 2.052-2.435H8.176V6.505H15.86z"/>
      <path fill="#28B446" d="M13.008 14.238A7.966 7.966 0 0 1 8 16 7.999 7.999 0 0 1 .953 11.79L3.546 9.67a4.757 4.757 0 0 0 6.856 2.436l2.606 2.133z"/>
      <path fill="#F14336" d="M13.106 1.842l-2.591 2.121A4.758 4.758 0 0 0 3.5 6.454L.895 4.322A7.998 7.998 0 0 1 8 0c1.941 0 3.72.691 5.106 1.842z"/>
    </g>
    <defs>
      <clipPath id="a">
        <path fill="#fff" d="M0 0h16v16H0z"/>
      </clipPath>
    </defs>
  </symbol>

  <symbol id="lm-icon-amateur-logo" viewBox="0 0 95 22">
    <path fill="#909090" d="M0 21.88h.464c1.44 0 2.153-.72 2.284-2.47l.167-2.242h1.582v4.688h1.737v-6.199H1.392l-.286 3.633c-.047.78-.297 1.08-.892 1.08H0v1.51zM9.795 21.856v-2.422h.856C10.913 21.004 12.08 22 13.673 22c1.808 0 3.057-1.283 3.057-3.237 0-1.955-1.249-3.25-3.057-3.25-1.535 0-2.677.936-2.986 2.41h-.892v-2.266H8.058v6.2h1.737zm3.878-1.367c-.845 0-1.32-.72-1.32-1.726 0-1.007.475-1.739 1.32-1.739.845 0 1.32.732 1.32 1.739 0 1.007-.475 1.726-1.32 1.726zM21.607 15.765c-.856 0-1.558.324-2.01.947.119-1.162.583-1.738 1.748-1.918l2.344-.348v-1.522l-2.51.42c-2.427.407-3.176 2.038-3.176 4.76 0 2.445 1.177 3.896 3.26 3.896 1.867 0 3.02-1.439 3.02-3.165 0-1.859-1.07-3.07-2.676-3.07zm-.428 4.772c-.904 0-1.404-.731-1.404-1.714 0-.948.524-1.63 1.416-1.63.868 0 1.356.706 1.356 1.642 0 .935-.476 1.702-1.368 1.702zM31.507 15.657h-1.641l-2.38 3.61v-3.61h-1.7v6.2h1.64l2.38-3.622v3.621h1.701v-6.199zM32.902 17.168h1.844v4.688h1.736v-4.688h1.844v-1.51h-5.424v1.51zM45.118 19.254v-.6c0-1.918-1.13-3.14-2.89-3.14-1.785 0-3.01 1.246-3.01 3.273 0 2.014 1.237 3.213 3.105 3.213 1.748 0 2.57-1.055 2.736-1.918H43.38c-.083.24-.428.54-1.023.54-.832 0-1.392-.588-1.392-1.344v-.024h4.152zM42.24 16.88c.69 0 1.142.444 1.19 1.151h-2.45c.095-.719.559-1.15 1.26-1.15zM46.014 21.88h.463c1.44 0 2.154-.72 2.285-2.47l.166-2.242h1.582v4.688h1.737v-6.199h-4.841l-.286 3.633c-.048.78-.297 1.08-.892 1.08h-.214v1.51zM55.785 15.657h-1.713v6.2h2.771c1.452 0 2.356-.96 2.356-2.231 0-1.27-.892-2.206-2.356-2.206h-1.058v-1.763zm.844 3.166c.536 0 .869.323.869.803 0 .468-.333.827-.869.827h-.844v-1.63h.844z"/>
    <path fill="#181818" d="M.099 9.904H.82c2.239 0 3.35-1.12 3.553-3.842l.259-3.488h2.461v7.292h2.702V.224H2.264L1.82 5.875C1.746 7.087 1.357 7.554.432 7.554H.099v2.35zM21.351.224h-2.554l-3.7 5.614V.224H12.45v9.642h2.554l3.7-5.632v5.632h2.647V.224zM26.723 9.866V6.1h3.386v3.767h2.702V.224H30.11v3.525h-3.386V.224H24.02v9.642h2.702zM38.167 9.866v-4.27l3.11 4.27h3.145l-3.793-5.11 3.72-4.532h-3.054l-3.128 3.823V.224h-2.701v9.642h2.701zM46.007.224v9.642h2.572V3.767l2.517 6.025h1.813l2.517-6.043v6.117h2.572V.224h-3.386l-2.572 6.21-2.573-6.21h-3.46zM63.333.224h-2.665v9.642h4.312c2.258 0 3.664-1.492 3.664-3.469 0-1.977-1.388-3.432-3.664-3.432h-1.647V.224zm1.314 4.924c.833 0 1.35.503 1.35 1.25 0 .727-.517 1.286-1.35 1.286h-1.314V5.148h1.314zM73.46 9.866V6.1h1.332c.407 2.443 2.22 3.991 4.7 3.991 2.813 0 4.756-1.996 4.756-5.036 0-3.04-1.943-5.054-4.756-5.054-2.387 0-4.164 1.455-4.645 3.749H73.46V.224h-2.702v9.642h2.702zm6.032-2.126c-1.314 0-2.054-1.119-2.054-2.686 0-1.566.74-2.704 2.054-2.704 1.314 0 2.054 1.138 2.054 2.704 0 1.567-.74 2.686-2.054 2.686zM90.651 7.74c-1.258 0-2.073-1.044-2.073-2.686 0-1.622.796-2.704 2.055-2.704 1.054 0 1.573.709 1.758 1.324h2.59C94.778 1.734 93.28 0 90.633 0c-2.924 0-4.756 2.163-4.756 5.054 0 2.91 1.832 5.036 4.756 5.036 2.553 0 4.2-1.604 4.367-3.693h-2.572c-.167.653-.667 1.343-1.777 1.343z"/>
  </symbol>

  <symbol id="lm-icon-standard-logo" viewBox="0 0 95 24">
    <path fill="#006AC6" d="M3.211 20.365c-.81 0-1.333-.667-1.333-1.716 0-1.037.512-1.728 1.321-1.728.68 0 1.013.453 1.132.846h1.667c-.13-1.24-1.096-2.347-2.799-2.347-1.881 0-3.06 1.382-3.06 3.23 0 1.858 1.179 3.217 3.06 3.217 1.644 0 2.704-1.025 2.811-2.36H4.355c-.108.417-.43.858-1.144.858zM6.968 17.064h1.846v4.66h1.739v-4.66h1.846v-1.501h-5.43v1.501zM16.052 21.867c.905 0 1.488-.393 1.798-.87v.727h1.667v-6.161H17.85v.726c-.274-.488-.882-.87-1.75-.87-1.513 0-2.716 1.192-2.716 3.23 0 2.05 1.203 3.218 2.668 3.218zm.416-4.946c.81 0 1.346.656 1.346 1.704v.048c0 1.025-.536 1.692-1.346 1.692s-1.345-.68-1.345-1.716c0-1.049.536-1.728 1.345-1.728zM23.09 21.724v-2.407h2.18v2.407h1.738v-6.161H25.27v2.252h-2.18v-2.252h-1.738v6.16h1.738zM35.444 20.222h-.87v-4.66h-4.989l-.226 2.968c-.072.798-.215 1.454-.62 1.692h-.476v3.027h1.667v-1.525h3.847v1.525h1.667v-3.027zm-4.454-1.609l.107-1.549h1.74v3.158h-2.3c.322-.393.394-.953.453-1.609zM39.164 21.867c.905 0 1.488-.393 1.798-.87v.727h1.667v-6.161h-1.667v.726c-.274-.488-.881-.87-1.75-.87-1.513 0-2.716 1.192-2.716 3.23 0 2.05 1.203 3.218 2.668 3.218zm.416-4.946c.81 0 1.346.656 1.346 1.704v.048c0 1.025-.536 1.692-1.346 1.692s-1.345-.68-1.345-1.716c0-1.049.536-1.728 1.346-1.728zM47.93 15.42c-.906 0-1.49.393-1.799.858v-.715h-1.667V24h1.739v-2.872c.297.429.88.739 1.679.739 1.512 0 2.715-1.192 2.715-3.218 0-2.062-1.203-3.23-2.668-3.23zm-.417 4.945c-.81 0-1.346-.655-1.346-1.692v-.048c0-1.037.536-1.704 1.346-1.704s1.333.68 1.333 1.728c0 1.049-.524 1.716-1.333 1.716zM51.53 17.064h1.845v4.66h1.74v-4.66h1.845v-1.501h-5.43v1.501z"/>
    <path fill="#181818" d="M0 9.844h.722c2.242 0 3.353-1.113 3.557-3.82l.26-3.466h2.463v7.249h2.705V.222h-7.54L1.723 5.84C1.649 7.044 1.26 7.508.333 7.508H0v2.336zM21.274.222h-2.556l-3.705 5.58V.222h-2.65v9.585h2.557l3.705-5.599v5.599h2.65V.222zM26.652 9.807V6.062h3.39v3.745h2.704V.222h-2.704v3.504h-3.39V.222h-2.705v9.585h2.705zM38.108 9.807V5.56l3.113 4.246h3.149l-3.798-5.08L44.296.222h-3.057l-3.13 3.8v-3.8h-2.705v9.585h2.704zM45.956.222v9.585h2.575V3.745l2.52 5.987h1.814l2.52-6.006v6.08h2.575V.223h-3.39l-2.575 6.174L49.42.222h-3.464zM63.3.222h-2.667v9.585h4.316c2.26 0 3.668-1.483 3.668-3.449 0-1.965-1.39-3.41-3.668-3.41H63.3V.222zm1.315 4.894c.834 0 1.353.501 1.353 1.243 0 .722-.519 1.279-1.353 1.279H63.3V5.116h1.315zM73.437 9.807V6.062h1.334c.407 2.428 2.223 3.967 4.705 3.967 2.816 0 4.76-1.984 4.76-5.005 0-3.022-1.944-5.024-4.76-5.024-2.39 0-4.168 1.446-4.65 3.726h-1.39V.222h-2.704v9.585h2.705zm6.039-2.114c-1.315 0-2.056-1.112-2.056-2.67 0-1.556.74-2.687 2.056-2.687 1.315 0 2.056 1.13 2.056 2.688 0 1.557-.74 2.67-2.056 2.67zM90.647 7.693c-1.26 0-2.075-1.038-2.075-2.67 0-1.612.796-2.687 2.056-2.687 1.056 0 1.575.704 1.76 1.316h2.593C94.778 1.724 93.278 0 90.629 0c-2.927 0-4.76 2.15-4.76 5.024 0 2.892 1.833 5.005 4.76 5.005 2.557 0 4.205-1.594 4.372-3.67h-2.575c-.167.648-.667 1.334-1.778 1.334z"/>
  </symbol>

  <symbol id="lm-icon-premium-logo" viewBox="0 0 96 24">
    <path fill="#181818" d="M0 9.815h.73c2.265 0 3.388-1.109 3.594-3.808l.262-3.456h2.49v7.227H9.81V.222H2.19l-.449 5.6C1.666 7.025 1.273 7.487.337 7.487H0v2.33zM21.498.222h-2.583L15.17 5.786V.222h-2.677v9.556h2.583l3.744-5.582v5.582h2.677V.222zM26.932 9.778V6.044h3.426v3.734h2.733V.222h-2.733v3.493h-3.426V.222H24.2v9.556h2.733zM38.51 9.778V5.545l3.144 4.233h3.183l-3.838-5.065L44.762.222h-3.089l-3.163 3.79V.221h-2.734v9.556h2.733zM46.44.222v9.556h2.602V3.734l2.545 5.97h1.835l2.546-5.989v6.063h2.602V.222h-3.426l-2.602 6.155L49.94.222h-3.5zM63.966.222h-2.695v9.556h4.361c2.284 0 3.707-1.479 3.707-3.438 0-1.96-1.404-3.401-3.707-3.401h-1.666V.222zm1.33 4.88c.842 0 1.366.499 1.366 1.238 0 .721-.524 1.276-1.367 1.276h-1.329V5.102h1.33zM74.21 9.778V6.044h1.348C75.97 8.466 77.804 10 80.313 10c2.845 0 4.81-1.978 4.81-4.99 0-3.014-1.965-5.01-4.81-5.01-2.415 0-4.212 1.442-4.7 3.715H74.21V.222h-2.733v9.556h2.733zm6.103-2.107c-1.33 0-2.078-1.11-2.078-2.662 0-1.552.749-2.68 2.078-2.68 1.329 0 2.078 1.128 2.078 2.68 0 1.553-.75 2.662-2.078 2.662zM91.6 7.671c-1.272 0-2.096-1.035-2.096-2.662 0-1.608.805-2.68 2.078-2.68 1.067 0 1.591.702 1.779 1.312h2.62C95.775 1.72 94.26 0 91.582 0c-2.958 0-4.81 2.144-4.81 5.01 0 2.883 1.852 4.99 4.81 4.99 2.583 0 4.25-1.59 4.418-3.66h-2.602c-.168.647-.674 1.331-1.797 1.331z"/>
    <path fill="#E56910" d="M0 15.478V21.7h1.79v-4.707h2.205v4.707h1.79v-6.223H0zM11.23 15.333c-.93 0-1.531.397-1.85.867v-.722H7.665V24h1.789v-2.901c.306.433.907.746 1.728.746 1.556 0 2.794-1.203 2.794-3.25 0-2.082-1.238-3.262-2.745-3.262zm-.428 4.996c-.833 0-1.385-.663-1.385-1.71v-.048c0-1.047.552-1.721 1.385-1.721s1.372.686 1.372 1.745c0 1.06-.539 1.734-1.372 1.734zM21.256 19.089v-.602c0-1.926-1.164-3.154-2.978-3.154-1.838 0-3.1 1.252-3.1 3.286 0 2.023 1.274 3.226 3.198 3.226 1.801 0 2.647-1.059 2.819-1.926h-1.728c-.086.241-.441.542-1.054.542-.858 0-1.434-.59-1.434-1.348v-.024h4.277zm-2.966-2.384c.711 0 1.177.446 1.226 1.156H16.99c.098-.722.576-1.156 1.3-1.156zM22.802 15.478V21.7h1.704v-3.936l1.666 3.888h1.201l1.667-3.9V21.7h1.703v-6.223h-2.242l-1.704 4.008-1.703-4.008h-2.292zM38.528 15.478h-1.692l-2.45 3.623v-3.623h-1.753V21.7h1.691l2.451-3.635V21.7h1.753v-6.223zM44.425 15.478l-1.41 4.008-1.397-4.008h-1.924l2.365 6.054L41.104 24h1.9l3.332-8.522h-1.911zM47.495 15.478V21.7H49.2v-3.936l1.667 3.888h1.2l1.667-3.9V21.7h1.704v-6.223h-2.243l-1.703 4.008-1.704-4.008h-2.291z"/>
  </symbol>
</svg>
