<svg xmlns="http://www.w3.org/2000/svg" width="13" height="13" fill="none" viewBox="0 0 13 13">
    <path fill="#808792" d="M8.286.5V0h-.5v.5h.5zM12.5.5h.5V0h-.5v.5zm0 12v.5h.5v-.5h-.5zm-4.214 0h-.5v.5h.5v-.5zM.5 5.467v-.5H0v.5h.5zm4.725 0h.5v-.5h-.5v.5zm0 3.193l.402.297.098-.132V8.66h-.5zm-1.12 1.52l-.403-.297-.098.133v.164h.5zm0 2.278v.5h.5v-.5h-.5zm-2.428 0h-.5v.5h.5v-.5zm0-2.278h.5v-.202l-.14-.146-.36.348zM.5 8.963H0v.202l.14.145.36-.347zm3.674-6.827c0 .583-.537 1.137-1.306 1.137v1c1.226 0 2.306-.912 2.306-2.137h-1zM2.868 3.273c-.769 0-1.306-.554-1.306-1.137h-1c0 1.225 1.08 2.137 2.306 2.137v-1zM1.562 2.136C1.562 1.554 2.099 1 2.868 1V0C1.642 0 .562.911.562 2.136h1zM2.868 1c.769 0 1.306.554 1.306 1.136h1C5.174.911 4.094 0 2.868 0v1zm5.418 0H12.5V0H8.286v1zM12 .5v12h1V.5h-1zm.5 11.5H8.286v1H12.5v-1zm-3.714.5V.5h-1v12h1zm-.199-9.045h2.128v-1H8.587v1zm0 4.363h2.128v-1H8.587v1zm0-2.182h1.535v-1H8.587v1zm0 4.364h1.535V9H8.587v1zM.5 5.967h4.725v-1H.5v1zm4.225-.5V8.66h1V5.467h-1zm.097 2.897l-1.12 1.52.805.593 1.12-1.52-.805-.593zM3.604 10.18v2.278h1V10.18h-1zm.5 1.778H1.677v1h2.427v-1zm-1.927.5V10.18h-1v2.278h1zm-.14-2.626L.858 8.615l-.718.695 1.176 1.218.72-.696zM1 8.962V5.468H0v3.496h1z"/>
</svg>
