<svg xmlns="http://www.w3.org/2000/svg" width="13" height="13" fill="none" viewBox="0 0 13 13">
    <path fill="#808792" d="M.5.5V0H0v.5h.5zm12 0h.5V0h-.5v.5zm0 12v.5h.5v-.5h-.5zm-12 0H0v.5h.5v-.5zm9.818-6l.005.5.495-.004V6.5h-.5zm-7.636 0h-.5v.497L2.679 7l.003-.5zm4.23-2.2L5.547 6.21l.813.58 1.364-1.908-.814-.582zM.5 1h12V0H.5v1zM12 .5v12h1V.5h-1zm.5 11.5H.5v1h12v-1zM1 12.5V.5H0v12h1zm9.818-6A4.318 4.318 0 0 0 6.5 2.182v1A3.318 3.318 0 0 1 9.818 6.5h1zM6.5 2.182A4.318 4.318 0 0 0 2.182 6.5h1A3.318 3.318 0 0 1 6.5 3.182v-1zM2.679 7c4.917.031 3.22.04 7.644 0l-.01-1c-4.416.04-2.711.031-7.628 0l-.006 1z"/>
</svg>
