<svg xmlns="http://www.w3.org/2000/svg" width="28" height="28" viewBox="0 0 28 28">
  <g fill="none" fill-rule="evenodd">
    <rect width="28" height="28"/>
    <path stroke="#222222" stroke-width="2" d="M13.9998588,21.5874335 C15.1178772,20.4805732 17.1799534,18.4528077 17.9179557,17.7155984 C18.0758862,17.5577442 18.0758862,17.5577442 18.2335541,17.3997554 C19.145402,16.4854431 19.9247535,15.6881684 20.5689832,15.0072927 C22.4358839,13.0319629 22.4633882,10.136143 20.7280946,8.31157089 C19.060162,6.55622673 16.3878963,6.56365317 14.7286158,8.32891906 L13.9999738,9.10410256 L13.2713319,8.32891906 C11.6120385,6.56363942 8.93923481,6.55621246 7.27075011,8.3117346 C5.53658492,10.1359571 5.56444659,13.0319557 7.43070488,15.0070181 C8.0751131,15.6883375 8.85436209,16.4856691 9.76593461,17.3997871 C9.92448666,17.5586747 9.92448666,17.5586747 10.0833057,17.7174254 C10.8273705,18.4607245 12.8840595,20.4830131 13.9998588,21.5874335 Z"/>
  </g>
</svg>
