<svg xmlns="http://www.w3.org/2000/svg" width="28" height="84" viewBox="0 0 28 84">
  <g fill="none" fill-rule="evenodd">
    <rect width="28" height="28"/>
    <rect width="24" height="24" x="2" y="2" opacity=".2"/>
    <polygon fill="#222222" points="3 17 7.057 17 15 22 15 6 7.028 11 3 11"/>
    <path fill="#222222" fill-rule="nonzero" d="M19.3161896,4.3676207 C19.6740854,4.56556808 20.0197782,4.78288244 20.351854,5.01814981 C23.1642896,7.01068989 25,10.2909684 25,14 C25,17.7543646 23.119142,21.0694314 20.2482943,23.054332 C19.9480793,23.2619002 19.6370382,23.4549223 19.3161896,23.6323793 L18.4208576,21.8417153 C18.6566445,21.7083928 18.8868635,21.5641365 19.1108853,21.4092481 C21.5292145,19.7372183 23,16.9942772 23,14 C23,11.0422606 21.5652403,8.32887413 19.1956655,6.65008977 C18.9450987,6.47256951 18.686531,6.3084824 18.420867,6.158266 L19.3161896,4.3676207 Z"/>
    <path fill="#222222" fill-rule="nonzero" d="M17.5246106,7.95077877 C19.6033359,9.16457561 21,11.4191836 21,14 C21,16.5808164 19.6033359,18.8354244 17.5246106,20.0492212 L16.6274168,18.2548335 C18.0513732,17.3736508 19,15.7976072 19,14 C19,12.2023928 18.0513732,10.6263492 16.6274168,9.74516647 L17.5246106,7.95077877 Z"/>
    <g transform="translate(0 28)">
      <rect width="28" height="28"/>
      <rect width="24" height="24" x="2" y="2" opacity=".2"/>
      <polygon fill="#222222" points="3 17 7.057 17 15 22 15 6 7.028 11 3 11"/>
      <path fill="#222222" fill-rule="nonzero" d="M17.5246106,7.95077877 C19.6033359,9.16457561 21,11.4191836 21,14 C21,16.5808164 19.6033359,18.8354244 17.5246106,20.0492212 L16.6274168,18.2548335 C18.0513732,17.3736508 19,15.7976072 19,14 C19,12.2023928 18.0513732,10.6263492 16.6274168,9.74516647 L17.5246106,7.95077877 Z"/>
    </g>
    <g transform="translate(0 56)">
      <rect width="28" height="28"/>
      <rect width="24" height="24" x="2" y="2" opacity=".2"/>
      <polygon fill="#222222" points="3 17 7.057 17 15 22 15 6 7.028 11 3 11"/>
      <polygon fill="#222222" points="21 15.414 23.828 18.243 25.243 16.828 22.414 14 25.243 11.172 23.828 9.757 21 12.586 18.172 9.757 16.757 11.172 19.586 14 16.757 16.828 18.172 18.243 21 15.414"/>
    </g>
  </g>
</svg>
