<svg width="16" height="16" viewBox="0 0 16 16" fill="none" xmlns="http://www.w3.org/2000/svg">
<path d="M10.4666 3.76573L7.99452 6.23778L5.59036 3.83362C5.16609 3.40936 4.60073 3.40904 4.17695 3.83282L3.89443 4.11534C3.47065 4.53912 3.47097 5.10448 3.89523 5.52875L6.2994 7.93291L3.82734 10.405C3.40356 10.8287 3.40388 11.3941 3.82814 11.8184L4.1817 12.1719C4.60596 12.5962 5.17132 12.5965 5.5951 12.1727L7.99653 9.77131L10.4007 12.1755C10.825 12.5997 11.3903 12.6001 11.8141 12.1763L12.1673 11.8231C12.591 11.3993 12.5907 10.834 12.1665 10.4097L9.69158 7.93484L12.093 5.53341C12.5168 5.10963 12.5165 4.54427 12.0922 4.12L11.8094 3.83716C11.4557 3.34227 10.8197 3.41258 10.4666 3.76573Z" fill="#808792"/>
</svg>
