<svg xmlns="http://www.w3.org/2000/svg" width="18" height="18" viewBox="0 0 18 18">
    <g fill="#BD10E0" fill-rule="evenodd">
        <path d="M13.033 0H4.967A4.973 4.973 0 0 0 0 4.967v8.066A4.973 4.973 0 0 0 4.967 18h8.066A4.973 4.973 0 0 0 18 13.033V4.967A4.973 4.973 0 0 0 13.033 0zM16.5 13.086a3.418 3.418 0 0 1-3.415 3.414h-8.17A3.418 3.418 0 0 1 1.5 13.086V4.914A3.418 3.418 0 0 1 4.914 1.5h8.171A3.418 3.418 0 0 1 16.5 4.914v8.172z"/>
        <path d="M9 5C6.794 5 5 6.794 5 9s1.794 4 4 4 4-1.794 4-4-1.794-4-4-4zm0 6.667A2.67 2.67 0 0 1 6.333 9 2.67 2.67 0 0 1 9 6.333 2.67 2.67 0 0 1 11.667 9 2.67 2.67 0 0 1 9 11.667zM13 3a1.004 1.004 0 0 0-1 1c0 .263.107.52.294.707.185.186.443.293.706.293.264 0 .52-.107.707-.293a1.004 1.004 0 0 0 0-1.415A1.004 1.004 0 0 0 13 3z"/>
    </g>
</svg>
