<svg xmlns="http://www.w3.org/2000/svg" width="11" height="18" viewBox="0 0 11 18">
    <g fill="#F58220" fill-rule="nonzero">
        <path d="M4.598 12.507c-1.42-.149-2.7-.501-3.797-1.366-.136-.107-.276-.21-.4-.33-.48-.465-.528-.998-.149-1.546.325-.469.87-.594 1.437-.325.11.052.214.117.315.187 2.043 1.415 4.85 1.454 6.9.064.203-.157.42-.285.672-.35.49-.127.946.054 1.209.486.3.493.296.974-.074 1.357-.567.586-1.249 1.01-2.007 1.307-.716.28-1.501.421-2.278.515.117.128.172.192.246.266 1.055 1.068 2.114 2.132 3.165 3.204.359.365.433.817.236 1.242-.216.464-.698.77-1.172.737-.3-.02-.533-.171-.741-.382-.796-.808-1.607-1.6-2.387-2.423-.227-.24-.336-.194-.536.014-.801.83-1.615 1.649-2.434 2.463-.367.365-.805.43-1.231.222-.453-.221-.742-.688-.72-1.156.016-.317.17-.56.386-.777 1.044-1.05 2.085-2.104 3.127-3.156.069-.07.133-.144.233-.253z"/>
        <path d="M5.65 9.167C3.142 9.158 1.085 7.082 1.1 4.573A4.594 4.594 0 0 1 5.705 0c2.537.007 4.574 2.08 4.562 4.643-.013 2.503-2.084 4.532-4.617 4.524zm2.279-4.588a2.234 2.234 0 0 0-2.242-2.238 2.237 2.237 0 0 0-2.248 2.265 2.234 2.234 0 0 0 2.26 2.221 2.23 2.23 0 0 0 2.23-2.248z"/>
    </g>
</svg>
