<svg xmlns="http://www.w3.org/2000/svg" width="18" height="16" viewBox="0 0 18 16">
    <path fill="#1DA1F2" fill-rule="evenodd" d="M18 1.794a7.168 7.168 0 0 1-2.121.602A3.816 3.816 0 0 0 17.503.28a7.238 7.238 0 0 1-2.345.928A3.63 3.63 0 0 0 12.462 0c-2.04 0-3.693 1.714-3.693 3.827 0 .3.032.592.096.872-3.07-.16-5.79-1.683-7.612-3.999a3.916 3.916 0 0 0-.5 1.924c0 1.327.652 2.5 1.642 3.185A3.57 3.57 0 0 1 .723 5.33v.049c0 1.854 1.273 3.4 2.962 3.751a3.56 3.56 0 0 1-1.667.067c.47 1.52 1.833 2.626 3.45 2.657A7.247 7.247 0 0 1 0 13.438a10.183 10.183 0 0 0 5.66 1.72c6.793 0 10.508-5.831 10.508-10.888 0-.166-.004-.331-.011-.495A7.645 7.645 0 0 0 18 1.795z"/>
</svg>
