<svg xmlns="http://www.w3.org/2000/svg" width="18" height="22" viewBox="0 0 18 22">
    <path fill="#CD2227" fill-rule="nonzero" d="M15.225 15.8H14.04l.006-.689c0-.306.25-.556.558-.556h.075c.308 0 .56.25.56.556l-.014.689zm-4.446-1.476c-.3 0-.547.202-.547.45v3.348c0 .247.246.449.547.449.302 0 .548-.202.548-.449v-3.348c0-.248-.246-.45-.548-.45zM18 12.451v6.37c0 1.529-1.325 2.779-2.945 2.779H2.945C1.325 21.6 0 20.35 0 18.822V12.45c0-1.528 1.325-2.779 2.945-2.779h12.11c1.62 0 2.945 1.25 2.945 2.779zM3.753 19.513l-.001-6.71h1.501v-.994l-4.002-.006v.977l1.25.004v6.73h1.252zm4.5-5.71H7v3.583c0 .518.032.777-.002.869-.101.278-.559.573-.737.03-.03-.095-.004-.382-.004-.875l-.005-3.608H5.008l.004 3.552c0 .544-.012.95.004 1.135.03.325.02.705.322.922.563.406 1.642-.06 1.912-.64l-.002.74h1.005v-5.709zm4.004 4.103l-.003-2.983c0-1.136-.851-1.817-2.005-.897l.005-2.218-1.25.002-.006 7.654 1.028-.015.093-.477c1.314 1.205 2.14.38 2.138-1.066zm3.917-.396l-.939.005-.002.127v.524c0 .28-.232.509-.513.509h-.184a.512.512 0 0 1-.513-.509V16.79h2.149v-.81c0-.59-.015-1.181-.064-1.519-.154-1.069-1.654-1.239-2.412-.691-.238.17-.42.4-.526.706-.106.308-.16.728-.16 1.261v1.779c.001 2.956 3.592 2.538 3.164-.005zM11.36 7.856a.852.852 0 0 0 .3.38.872.872 0 0 0 .513.142c.18 0 .34-.049.48-.15.138-.1.255-.249.35-.448l-.023.49h1.395V2.339h-1.098v4.617a.458.458 0 0 1-.915 0V2.338h-1.146v4.001c0 .51.01.85.024 1.022.016.171.055.336.12.495zM7.132 4.505c0-.57.048-1.014.142-1.335a1.49 1.49 0 0 1 .513-.77c.246-.195.562-.292.946-.292.322 0 .599.063.83.187.232.125.41.287.535.487.126.2.212.407.258.618.047.214.07.536.07.971v1.5c0 .551-.022.956-.065 1.213a1.921 1.921 0 0 1-.275.721c-.14.222-.319.388-.537.493-.22.107-.472.16-.757.16-.318 0-.586-.044-.806-.136a1.107 1.107 0 0 1-.515-.411 1.826 1.826 0 0 1-.262-.666c-.053-.26-.078-.65-.078-1.17l.001-1.57zm1.093 2.357c0 .336.25.61.554.61.305 0 .554-.274.554-.61V3.703c0-.335-.249-.61-.554-.61-.304 0-.554.275-.554.61v3.159zM4.364 8.456H5.68l.001-4.55L7.236.008H5.797L4.97 2.903 4.132 0H2.707l1.655 3.908.002 4.548z"/>
</svg>
