<svg xmlns="http://www.w3.org/2000/svg">
	<symbol id="icon_attention" viewBox="0 0 16 16">
		<path fill-rule="evenodd" d="M0 8c0-4.4 3.6-8 8-8s8 3.6 8 8-3.6 8-8 8-8-3.6-8-8zm2 0c0 3.3 2.7 6 6 6s6-2.7 6-6-2.7-6-6-6-6 2.7-6 6z" clip-rule="evenodd"/>
		<path d="M7 4h2v5H7V4zM8 12a1 1 0 1 0 0-2 1 1 0 0 0 0 2z"/>
	</symbol>
	<symbol id="icon_close" viewBox="0 0 16 16">
      <path d="M10.4666 3.76573L7.99452 6.23778L5.59036 3.83362C5.16609 3.40936 4.60073 3.40904 4.17695 3.83282L3.89443 4.11534C3.47065 4.53912 3.47097 5.10448 3.89523 5.52875L6.2994 7.93291L3.82734 10.405C3.40356 10.8287 3.40388 11.3941 3.82814 11.8184L4.1817 12.1719C4.60596 12.5962 5.17132 12.5965 5.5951 12.1727L7.99653 9.77131L10.4007 12.1755C10.825 12.5997 11.3903 12.6001 11.8141 12.1763L12.1673 11.8231C12.591 11.3993 12.5907 10.834 12.1665 10.4097L9.69158 7.93484L12.093 5.53341C12.5168 5.10963 12.5165 4.54427 12.0922 4.12L11.8094 3.83716C11.4557 3.34227 10.8197 3.41258 10.4666 3.76573Z" fill="#808792"/>
  </symbol>
	<symbol id="icon_info" viewBox="0 0 16 16">
		<path fill-rule="evenodd" d="M0 8c0-4.4 3.6-8 8-8s8 3.6 8 8-3.6 8-8 8-8-3.6-8-8zm2 0c0 3.3 2.7 6 6 6s6-2.7 6-6-2.7-6-6-6-6 2.7-6 6z" clip-rule="evenodd"/>
		<path d="M7 7h2v5H7V7zM8 6a1 1 0 1 0 0-2 1 1 0 0 0 0 2z"/>
	</symbol>
	<symbol id="icon_upload" viewBox="0 0 16 16">
		<path fill-rule="evenodd" d="M7 12V3.4l-4 4L1.6 6 7.3.3c.4-.4 1-.4 1.4 0L14.4 6 13 7.4l-4-4V12H7zm-5 2h12v-3h2v4c0 .6-.4 1-1 1H1c-.6 0-1-.4-1-1v-4h2v3z" clip-rule="evenodd"/>
	</symbol>
	<symbol id="icon_dropdown" viewBox="0 0 16 16">
		<path d="M8 10L4.5 6.824 5.407 6 8 8.353 10.593 6l.907.824L8 10z"/>
	</symbol>
	<symbol id="checkbox__mark" viewBox="0 0 16 16">
		<path d="M12.4 6L11 4.6l-4 4-2-2L3.6 8l2.693 2.693a1 1 0 0 0 1.414 0L12.4 6z"/>
	</symbol>
	<symbol id="icon_loader" viewBox="0 0 16 16">
		<path d="M3.757 3.757a6 6 0 0 1 8.485 8.485l1.415 1.415A8 8 0 0 0 2.343 2.342l1.414 1.414z"/>
	</symbol>


	<symbol id="icon_back" viewBox="0 0 16 16">
		<path d="M6.7 14.4L8.1 13 3.8 8.7H16v-2H3.8l4.3-4.3L6.7 1 .707 6.993a1 1 0 0 0 0 1.414L6.7 14.4z"/>
	</symbol>
	<symbol id="icon_like" viewBox="0 0 16 16">
		<path d="M14.682 2.318a4.5 4.5 0 0 0-6.364 0 .438.438 0 0 1-.636 0 4.5 4.5 0 0 0-6.364 6.364l5.308 5.019a2 2 0 0 0 2.748 0l5.308-5.019a4.5 4.5 0 0 0 0-6.364z"/>
	</symbol>
	<symbol id="icon_share" viewBox="0 0 16 16">
		<path d="M11 6c1.654 0 3-1.346 3-3s-1.346-3-3-3-3 1.346-3 3c0 .223.029.439.075.649l-3.22 2.012A2.97 2.97 0 0 0 3 5C1.346 5 0 6.346 0 8s1.346 3 3 3a2.97 2.97 0 0 0 1.855-.661l3.22 2.012c-.046.21-.075.426-.075.649 0 1.654 1.346 3 3 3s3-1.346 3-3-1.346-3-3-3a2.97 2.97 0 0 0-1.855.661l-3.22-2.012C5.971 8.439 6 8.223 6 8c0-.223-.029-.439-.075-.649l3.22-2.012A2.97 2.97 0 0 0 11 6z"/>
	</symbol>
	<symbol id="icon_chat" viewBox="0 0 16 16">
		<path d="M8 0c4.4 0 8 3.1 8 7s-3.6 7-8 7c-.25 0-.502 0-.728-.025-.244-.026-.496-.022-.721.075l-3.157 1.353A1 1 0 0 1 2 14.483v-2.469c0-.265-.108-.517-.285-.715C.675 10.14 0 8.654 0 7c0-3.9 3.6-7 8-7z"/>
	</symbol>
	<symbol id="icon_options" viewBox="0 0 16 16">
		<path fill-rule="evenodd" d="M4 8a2 2 0 1 1-4 0 2 2 0 0 1 4 0zm6 0a2 2 0 1 1-4 0 2 2 0 0 1 4 0zm4 2a2 2 0 1 0 0-4 2 2 0 0 0 0 4z" clip-rule="evenodd"/>
	</symbol>

	<symbol id="icon_eye" viewBox="0 0 16 16">
		<path d="M8 14c3.6 0 6.4-3.1 7.6-4.9.5-.7.5-1.6 0-2.3C14.4 5.1 11.6 2 8 2 4.4 2 1.6 5.1.4 6.9c-.5.7-.5 1.6 0 2.2C1.6 10.9 4.4 14 8 14zm0-9c1.7 0 3 1.3 3 3s-1.3 3-3 3-3-1.3-3-3 1.3-3 3-3z"/>
	</symbol>

	<symbol id="icon_info" viewBox="0 0 16 16">
		<path fill-opacity=".32" fill-rule="evenodd" d="M0 8c0-4.4 3.6-8 8-8s8 3.6 8 8-3.6 8-8 8-8-3.6-8-8zm2 0c0 3.3 2.7 6 6 6s6-2.7 6-6-2.7-6-6-6-6 2.7-6 6z" clip-rule="evenodd"/>
		<path fill-opacity=".32" d="M7 7h2v5H7V7zM8 6a1 1 0 1 0 0-2 1 1 0 0 0 0 2z"/>
	</symbol>

	<symbol id="icon_invite" viewBox="0 0 64 64">
		<path fill-rule="evenodd" d="M2.635 18.147a1.68 1.68 0 0 1 .344-.137L58.8 2.06c2.8-.4 5.2 1.2 5.2 4v47.6c0 2.8-2.8 4.8-5.2 4l-20.26-5.686A2 2 0 0 0 36 53.9v4.16c0 2.4-1.6 4-4 4H12c-2.4 0-4-1.6-4-4V44.853a2 2 0 0 0-1.55-1.949l-3.418-.789a1.683 1.683 0 0 1-.442-.164C1.096 41.119 0 39.59 0 38.06v-16c0-1.544 1.118-3.088 2.635-3.913zM16 52.06a2 2 0 0 0 2 2h8a2 2 0 0 0 2-2v-1.312a2 2 0 0 0-1.425-1.916l-8-2.4A2 2 0 0 0 16 48.35v3.712z" clip-rule="evenodd"/>
	</symbol>

	<symbol id="icon_edit" viewBox="0 0 16 16">
		<path fill-rule="evenodd" d="M11.7.3c-.4-.4-1-.4-1.4 0l-10 10c-.2.2-.3.4-.3.7v4c0 .6.4 1 1 1h4c.3 0 .5-.1.7-.3l10-10c.4-.4.4-1 0-1.4l-4-4zM4.6 14H2v-2.6l6-6L10.6 8l-6 6zM9.4 4L12 6.6 13.6 5 11 2.4 9.4 4z" clip-rule="evenodd"/>
	</symbol>

	<symbol id="icon_profile" viewBox="0 0 16 16">
		<path d="M8 9C5.8 9 4 7.2 4 5V4c0-2.2 1.8-4 4-4s4 1.8 4 4v1c0 2.2-1.8 4-4 4zM10 11H6c-2.105 0-3.87 1.243-4.618 3.05C.96 15.07 1.895 16 3 16h10c1.105 0 2.04-.93 1.618-1.95C13.87 12.243 12.105 11 10 11z"/>
	</symbol>

  <symbol id="social_lm-chat_gray" viewBox="0 0 16 16">
    <path fill="#808792" d="M14.682 2.318a4.5 4.5 0 0 0-6.364 0 .438.438 0 0 1-.636 0 4.5 4.5 0 0 0-6.364 6.364l5.308 5.019a2 2 0 0 0 2.748 0l5.308-5.019a4.5 4.5 0 0 0 0-6.364z"/>
  </symbol>
</svg>
