<svg width="12" height="12" viewBox="0 0 12 12" fill="none" xmlns="http://www.w3.org/2000/svg">
<path d="M3.57487 0H8.42514C10.3963 0 12 1.60368 12 3.57486V8.42513C12 10.3963 10.3963 12 8.42514 12H3.57487C1.60368 12 0 10.3963 0 8.42513V3.57486C2.19345e-05 1.60368 1.6037 0 3.57487 0ZM1.2072 8.42513C1.2072 9.73275 2.26725 10.7928 3.57487 10.7928H8.42514C9.73275 10.7928 10.7928 9.73275 10.7928 8.42513V3.57486C10.7928 2.26723 9.73275 1.2072 8.42514 1.2072H3.57487C2.26725 1.2072 1.2072 2.26723 1.2072 3.57486V8.42513Z" fill="white"/>
<path d="M6.00184 2.89648C7.71318 2.89648 9.10547 4.28877 9.10547 6.00009C9.10547 7.71141 7.71318 9.10372 6.00184 9.10372C4.2905 9.10372 2.89821 7.71143 2.89821 6.00009C2.89821 4.28875 4.2905 2.89648 6.00184 2.89648ZM6.00184 7.89654C7.04922 7.89654 7.89827 7.04749 7.89827 6.00011C7.89827 4.95274 7.0492 4.10368 6.00184 4.10368C4.95447 4.10368 4.10541 4.95274 4.10541 6.00011C4.10541 7.04747 4.95449 7.89654 6.00184 7.89654Z" fill="white"/>
<path d="M2.88912 3.66317C2.47839 3.66317 2.14543 3.3302 2.14543 2.91947C2.14543 2.50874 2.47839 2.17578 2.88912 2.17578C3.29985 2.17578 3.63281 2.50874 3.63281 2.91947C3.63281 3.3302 3.29985 3.66317 2.88912 3.66317Z" fill="white"/>
</svg>
