<?xml version="1.0" encoding="utf-8"?>
<!-- Generator: Adobe Illustrator 22.1.0, SVG Export Plug-In . SVG Version: 6.00 Build 0)  -->
<svg version="1.1" id="Слой_1" xmlns="http://www.w3.org/2000/svg" xmlns:xlink="http://www.w3.org/1999/xlink" x="0px" y="0px"
	 viewBox="0 0 702 659" style="enable-background:new 0 0 702 659;" xml:space="preserve">
<style type="text/css">
	.st0{fill:#0055C3;}
	.st1{clip-path:url(#SVGID_2_);fill:url(#SVGID_3_);}
	.st2{clip-path:url(#SVGID_5_);fill:#FF3162;}
	.st3{clip-path:url(#SVGID_7_);fill:#FF3162;}
	.st4{clip-path:url(#SVGID_9_);fill:#C8CFD6;}
	.st5{clip-path:url(#SVGID_11_);fill:#F2EDE0;}
	.st6{clip-path:url(#SVGID_13_);fill:#F2EDE0;}
	.st7{clip-path:url(#SVGID_15_);fill:#FF3162;}
	.st8{clip-path:url(#SVGID_17_);fill:#18316F;}
	.st9{clip-path:url(#SVGID_19_);fill:#FF3162;}
	.st10{clip-path:url(#SVGID_21_);fill:#F2EDE0;}
	.st11{clip-path:url(#SVGID_23_);fill:#18316F;}
	.st12{clip-path:url(#SVGID_25_);fill:#FF3162;}
	.st13{clip-path:url(#SVGID_27_);fill:#FA2558;}
	.st14{clip-path:url(#SVGID_29_);fill:#FFA125;}
	.st15{opacity:0.2;clip-path:url(#SVGID_31_);fill:#0560C2;enable-background:new    ;}
	.st16{clip-path:url(#SVGID_33_);fill:#CB2B7F;}
	.st17{opacity:0.2;clip-path:url(#SVGID_35_);fill:#0560C2;enable-background:new    ;}
	.st18{clip-path:url(#SVGID_37_);fill:#18316F;}
	.st19{opacity:0.2;clip-path:url(#SVGID_39_);fill:#0560C2;enable-background:new    ;}
	.st20{clip-path:url(#SVGID_41_);fill:#18316F;}
	.st21{opacity:0.2;clip-path:url(#SVGID_43_);fill:#0560C2;enable-background:new    ;}
	.st22{clip-path:url(#SVGID_45_);fill:#FFA125;}
	.st23{clip-path:url(#SVGID_47_);fill:#F28A17;}
	.st24{clip-path:url(#SVGID_49_);fill:#F28A17;}
	.st25{clip-path:url(#SVGID_51_);fill:#FFA125;}
	.st26{clip-path:url(#SVGID_53_);fill:#FF3162;}
	.st27{clip-path:url(#SVGID_55_);fill:#F2EDE0;}
	.st28{clip-path:url(#SVGID_57_);fill:#18316F;}
	.st29{clip-path:url(#SVGID_59_);fill:#18316F;}
	.st30{clip-path:url(#SVGID_61_);fill:#18316F;}
	.st31{clip-path:url(#SVGID_63_);fill:#FF3162;}
	.st32{fill:#F2EDE0;}
	.st33{opacity:0.2;fill:#0560C2;enable-background:new    ;}
	.st34{fill:#18316F;}
	.st35{opacity:0.5;fill:#0088F0;enable-background:new    ;}
	.st36{opacity:0.4;fill:#0088F0;enable-background:new    ;}
	.st37{fill:#FF3162;}
</style>
<g>
	<path class="st0" d="M224.6,649.5C82.4,610.6-1.3,463.9,37.6,321.8c38.9-142.2,185.6-225.9,327.7-187
		c142.1,38.8,225.9,185.6,187,327.7C513.5,604.6,366.7,688.3,224.6,649.5z"/>
	<path class="st0" d="M224.6,649.5C82.4,610.6-1.3,463.9,37.6,321.8c38.9-142.2,185.6-225.9,327.7-187
		c142.1,38.8,225.9,185.6,187,327.7C513.5,604.6,366.7,688.3,224.6,649.5z"/>
	<g>
		<g>
			<g>
				<defs>
					<path id="SVGID_1_" d="M224.5,649.5C82.3,610.6-1.4,463.9,37.4,321.8C76.3,179.6,223,95.9,365.1,134.8
						c142.2,38.8,225.9,185.6,187,327.7C513.4,604.6,366.7,688.3,224.5,649.5z"/>
				</defs>
				<clipPath id="SVGID_2_">
					<use xlink:href="#SVGID_1_"  style="overflow:visible;"/>
				</clipPath>
				
					<linearGradient id="SVGID_3_" gradientUnits="userSpaceOnUse" x1="-681.4685" y1="410.886" x2="-259.0737" y2="410.886" gradientTransform="matrix(0.7167 -0.6974 -0.6974 -0.7167 929.2952 226.1261)">
					<stop  offset="0" style="stop-color:#0053C2"/>
					<stop  offset="1" style="stop-color:#FF3369"/>
				</linearGradient>
				<circle class="st1" cx="305.7" cy="259.6" r="211.2"/>
			</g>
			<g>
				<defs>
					<path id="SVGID_4_" d="M224.5,649.5C82.3,610.6-1.4,463.9,37.4,321.8C76.3,179.6,223,95.9,365.1,134.8
						c142.2,38.8,225.9,185.6,187,327.7C513.4,604.6,366.7,688.3,224.5,649.5z"/>
				</defs>
				<clipPath id="SVGID_5_">
					<use xlink:href="#SVGID_4_"  style="overflow:visible;"/>
				</clipPath>
				<path class="st2" d="M192.5,149.4c0,0,23.1,205.1,83.5,223.8c60.3,18.7,84.2,22.6,79.7,74.8l-1,184.5l-173.2,58.7l12.3-207.1
					c0,0-46.1-203.5-39.6-311.9C154.1,172.2,186.7,164.2,192.5,149.4z"/>
			</g>
			<g>
				<defs>
					<path id="SVGID_6_" d="M224.5,649.5C82.3,610.6-1.4,463.9,37.4,321.8C76.3,179.6,223,95.9,365.1,134.8
						c142.2,38.8,225.9,185.6,187,327.7C513.4,604.6,366.7,688.3,224.5,649.5z"/>
				</defs>
				<clipPath id="SVGID_7_">
					<use xlink:href="#SVGID_6_"  style="overflow:visible;"/>
				</clipPath>
				<path class="st3" d="M355.7,448c0,0,1.6,80.8,67,93.3L370.8,597l-42.4-74.5L355.7,448z"/>
			</g>
			<g>
				<defs>
					<path id="SVGID_8_" d="M224.5,649.5C82.3,610.6-1.4,463.9,37.4,321.8C76.3,179.6,223,95.9,365.1,134.8
						c142.2,38.8,225.9,185.6,187,327.7C513.4,604.6,366.7,688.3,224.5,649.5z"/>
				</defs>
				<clipPath id="SVGID_9_">
					<use xlink:href="#SVGID_8_"  style="overflow:visible;"/>
				</clipPath>
				<path class="st4" d="M312.8,481.1l42.8-33.1c0,0,1.1-21.7,0-25.4c-1.1-3.7-47.4,34.5-47.4,34.5L312.8,481.1z"/>
			</g>
			<g>
				<defs>
					<path id="SVGID_10_" d="M224.5,649.5C82.3,610.6-1.4,463.9,37.4,321.8C76.3,179.6,223,95.9,365.1,134.8
						c142.2,38.8,225.9,185.6,187,327.7C513.4,604.6,366.7,688.3,224.5,649.5z"/>
				</defs>
				<clipPath id="SVGID_11_">
					<use xlink:href="#SVGID_10_"  style="overflow:visible;"/>
				</clipPath>
				<path class="st5" d="M295.3,258c0,0-2.9,45.6-19.4,115.2c0,0,21.1,40.2,29.6,68.1c0,0,30.2-102.6,33.6-115.6
					c0,0,20.8-5.3,26.6-23.2c0,0,20.7-76.7,20.2-110.8c0,0-45.2-9.8-86.4,23.3C299.6,214.9,296.2,232.1,295.3,258z"/>
			</g>
			<g>
				<defs>
					<path id="SVGID_12_" d="M224.5,649.5C82.3,610.6-1.4,463.9,37.4,321.8C76.3,179.6,223,95.9,365.1,134.8
						c142.2,38.8,225.9,185.6,187,327.7C513.4,604.6,366.7,688.3,224.5,649.5z"/>
				</defs>
				<clipPath id="SVGID_13_">
					<use xlink:href="#SVGID_12_"  style="overflow:visible;"/>
				</clipPath>
				<path class="st6" d="M356.6,221.5c0,0-11.3-13.8-24.8,0l23.9,0.7L356.6,221.5z"/>
			</g>
			<g>
				<defs>
					<path id="SVGID_14_" d="M224.5,649.5C82.3,610.6-1.4,463.9,37.4,321.8C76.3,179.6,223,95.9,365.1,134.8
						c142.2,38.8,225.9,185.6,187,327.7C513.4,604.6,366.7,688.3,224.5,649.5z"/>
				</defs>
				<clipPath id="SVGID_15_">
					<use xlink:href="#SVGID_14_"  style="overflow:visible;"/>
				</clipPath>
				<path class="st7" d="M331.7,221.5l-2.8-0.8c0,0,4.9-7.3,15.2-7.3c8.8,0,13.6,7.2,13.6,7.2l-1.1,1c0,0-5.4-6.2-11.9-6.1
					C344.7,215.3,338.1,214.6,331.7,221.5z"/>
			</g>
			<g>
				<defs>
					<path id="SVGID_16_" d="M224.5,649.5C82.3,610.6-1.4,463.9,37.4,321.8C76.3,179.6,223,95.9,365.1,134.8
						c142.2,38.8,225.9,185.6,187,327.7C513.4,604.6,366.7,688.3,224.5,649.5z"/>
				</defs>
				<clipPath id="SVGID_17_">
					<use xlink:href="#SVGID_16_"  style="overflow:visible;"/>
				</clipPath>
				<path class="st8" d="M360.4,208.8l-3.5,2.5c0,0-0.2,0.7-2.2,0.3s-13.3-4.5-23.7-0.4c0,0,11-8.1,27.8-3.7
					C358.8,207.6,360.2,207.9,360.4,208.8z"/>
			</g>
			<g>
				<defs>
					<path id="SVGID_18_" d="M224.5,649.5C82.3,610.6-1.4,463.9,37.4,321.8C76.3,179.6,223,95.9,365.1,134.8
						c142.2,38.8,225.9,185.6,187,327.7C513.4,604.6,366.7,688.3,224.5,649.5z"/>
				</defs>
				<clipPath id="SVGID_19_">
					<use xlink:href="#SVGID_18_"  style="overflow:visible;"/>
				</clipPath>
				<path class="st9" d="M369.8,223.3c0,0,8.3-4.3,13.4,0.1l0.3-2.1c0,0-5.8-6.8-14.5,0.3L369.8,223.3z"/>
			</g>
			<g>
				<defs>
					<path id="SVGID_20_" d="M224.5,649.5C82.3,610.6-1.4,463.9,37.4,321.8C76.3,179.6,223,95.9,365.1,134.8
						c142.2,38.8,225.9,185.6,187,327.7C513.4,604.6,366.7,688.3,224.5,649.5z"/>
				</defs>
				<clipPath id="SVGID_21_">
					<use xlink:href="#SVGID_20_"  style="overflow:visible;"/>
				</clipPath>
				<path class="st10" d="M369.8,223.3c0,0,2.3,3,12.9,3l0.5-2.9C383.2,223.4,378.4,218.5,369.8,223.3z"/>
			</g>
			<g>
				<defs>
					<path id="SVGID_22_" d="M224.5,649.5C82.3,610.6-1.4,463.9,37.4,321.8C76.3,179.6,223,95.9,365.1,134.8
						c142.2,38.8,225.9,185.6,187,327.7C513.4,604.6,366.7,688.3,224.5,649.5z"/>
				</defs>
				<clipPath id="SVGID_23_">
					<use xlink:href="#SVGID_22_"  style="overflow:visible;"/>
				</clipPath>
				<path class="st11" d="M379.3,221.4c0,0,1.8,0.9,0,4.8c0,0-6.2-1.2-6.9-1.5c0,0-0.7-1.2-0.4-2.6
					C372,222.2,375.2,220.5,379.3,221.4z"/>
			</g>
			<g>
				<defs>
					<path id="SVGID_24_" d="M224.5,649.5C82.3,610.6-1.4,463.9,37.4,321.8C76.3,179.6,223,95.9,365.1,134.8
						c142.2,38.8,225.9,185.6,187,327.7C513.4,604.6,366.7,688.3,224.5,649.5z"/>
				</defs>
				<clipPath id="SVGID_25_">
					<use xlink:href="#SVGID_24_"  style="overflow:visible;"/>
				</clipPath>
				<path class="st12" d="M368.1,211.8c0,0,3.8-0.4,4,6.6l3,29.5c0,0,0.9,5.3-4.7,5.3c-4.6,0-6.1-2.6-6.1-6.7
					c0-4.1,0.7-28.9,0.7-28.9S365.1,211.8,368.1,211.8z"/>
			</g>
			<g>
				<defs>
					<path id="SVGID_26_" d="M224.5,649.5C82.3,610.6-1.4,463.9,37.4,321.8C76.3,179.6,223,95.9,365.1,134.8
						c142.2,38.8,225.9,185.6,187,327.7C513.4,604.6,366.7,688.3,224.5,649.5z"/>
				</defs>
				<clipPath id="SVGID_27_">
					<use xlink:href="#SVGID_26_"  style="overflow:visible;"/>
				</clipPath>
				<path class="st13" d="M367.1,212.1c0,0-4.9,2.4-6.9,8.8l-8.6,28.7c0,0-1.3,7.2,8.9,7.5s13.2-2,14.7-7c0,0-0.5,3.1-4.6,3.2
					c-4.1,0.1-6.1-2.6-6.1-5.5l0.8-31C365.2,216.6,365.2,213,367.1,212.1z"/>
			</g>
			<g>
				<defs>
					<path id="SVGID_28_" d="M224.5,649.5C82.3,610.6-1.4,463.9,37.4,321.8C76.3,179.6,223,95.9,365.1,134.8
						c142.2,38.8,225.9,185.6,187,327.7C513.4,604.6,366.7,688.3,224.5,649.5z"/>
				</defs>
				<clipPath id="SVGID_29_">
					<use xlink:href="#SVGID_28_"  style="overflow:visible;"/>
				</clipPath>
				<path class="st14" d="M335.8,239.9c0.9,2.4,0.3,4.8-1.4,5.4c-1.7,0.6-3.7-0.8-4.7-3.1c-0.9-2.4-0.3-4.8,1.4-5.4
					C332.8,236.1,334.9,237.5,335.8,239.9z"/>
			</g>
			<g>
				<defs>
					<path id="SVGID_30_" d="M224.5,649.5C82.3,610.6-1.4,463.9,37.4,321.8C76.3,179.6,223,95.9,365.1,134.8
						c142.2,38.8,225.9,185.6,187,327.7C513.4,604.6,366.7,688.3,224.5,649.5z"/>
				</defs>
				<clipPath id="SVGID_31_">
					<use xlink:href="#SVGID_30_"  style="overflow:visible;"/>
				</clipPath>
				<path class="st15" d="M311,240.5c0,0-4.4-1.1-3.3-11.1c0,0,0.9-6.4,4.4-6.4c0,0,1.4,0.1,1.2,1.1L311,240.5z"/>
			</g>
			<g>
				<defs>
					<path id="SVGID_32_" d="M224.5,649.5C82.3,610.6-1.4,463.9,37.4,321.8C76.3,179.6,223,95.9,365.1,134.8
						c142.2,38.8,225.9,185.6,187,327.7C513.4,604.6,366.7,688.3,224.5,649.5z"/>
				</defs>
				<clipPath id="SVGID_33_">
					<use xlink:href="#SVGID_32_"  style="overflow:visible;"/>
				</clipPath>
				<path class="st16" d="M338.5,265.5l10.2,1.9c0,0,8.8,0.6,11.8-1c0,0,3,1.8,8.5,1.1l5.2,1.1l-0.7,2.9c0,0-2,1.7-9.2,1.4
					c-7.3-0.2-23.3-4.2-26.7-6.5L338.5,265.5z"/>
			</g>
			<g>
				<defs>
					<path id="SVGID_34_" d="M224.5,649.5C82.3,610.6-1.4,463.9,37.4,321.8C76.3,179.6,223,95.9,365.1,134.8
						c142.2,38.8,225.9,185.6,187,327.7C513.4,604.6,366.7,688.3,224.5,649.5z"/>
				</defs>
				<clipPath id="SVGID_35_">
					<use xlink:href="#SVGID_34_"  style="overflow:visible;"/>
				</clipPath>
				<path class="st17" d="M350.5,279.3c0,0,5.9,3.5,14.6,3c0,0,4.6,0.1,6.5-3L368,294c0,0-1.5-6.1-8.1-6.1c-6.7,0-12.7,4.5-12.7,4.5
					L350.5,279.3z"/>
			</g>
			<g>
				<defs>
					<path id="SVGID_36_" d="M224.5,649.5C82.3,610.6-1.4,463.9,37.4,321.8C76.3,179.6,223,95.9,365.1,134.8
						c142.2,38.8,225.9,185.6,187,327.7C513.4,604.6,366.7,688.3,224.5,649.5z"/>
				</defs>
				<clipPath id="SVGID_37_">
					<use xlink:href="#SVGID_36_"  style="overflow:visible;"/>
				</clipPath>
				<path class="st18" d="M343.3,215.3c0,0,2.4,2.5,0,6.5l-6.8-0.2c0,0-1.4-0.4-1.5-2.9C335,218.7,339,215.4,343.3,215.3z"/>
			</g>
			<g>
				<defs>
					<path id="SVGID_38_" d="M224.5,649.5C82.3,610.6-1.4,463.9,37.4,321.8C76.3,179.6,223,95.9,365.1,134.8
						c142.2,38.8,225.9,185.6,187,327.7C513.4,604.6,366.7,688.3,224.5,649.5z"/>
				</defs>
				<clipPath id="SVGID_39_">
					<use xlink:href="#SVGID_38_"  style="overflow:visible;"/>
				</clipPath>
				<path class="st19" d="M330.4,210.2c0,0-18.3,69.2-3.8,87.4c14.5,18.3,35.5,12.2,35.5,12.2s-7.2,11.7-22.9,15.7L277.5,376
					l-1.5-2.8c0,0,15.2-65.4,19.4-115.2c0,0,11.5,1.7,12.5-11.2c0,0,1.3,2.2,3.6,3l1.1-8c0,0,1.8-0.2,2.6-3.2l5.6-21.5
					C320.8,217.1,327.4,211.9,330.4,210.2z"/>
			</g>
			<g>
				<defs>
					<path id="SVGID_40_" d="M224.5,649.5C82.3,610.6-1.4,463.9,37.4,321.8C76.3,179.6,223,95.9,365.1,134.8
						c142.2,38.8,225.9,185.6,187,327.7C513.4,604.6,366.7,688.3,224.5,649.5z"/>
				</defs>
				<clipPath id="SVGID_41_">
					<use xlink:href="#SVGID_40_"  style="overflow:visible;"/>
				</clipPath>
				<path class="st20" d="M372.8,210.2c0,0-1,0.7-0.2,1.8c0,0,1.1,3.2,4,2.6c2.9-0.6,5.9-2.1,7.9-1.2l0.4-3.6
					C384.9,209.7,380.9,207.7,372.8,210.2z"/>
			</g>
			<g>
				<defs>
					<path id="SVGID_42_" d="M224.5,649.5C82.3,610.6-1.4,463.9,37.4,321.8C76.3,179.6,223,95.9,365.1,134.8
						c142.2,38.8,225.9,185.6,187,327.7C513.4,604.6,366.7,688.3,224.5,649.5z"/>
				</defs>
				<clipPath id="SVGID_43_">
					<use xlink:href="#SVGID_42_"  style="overflow:visible;"/>
				</clipPath>
				<path class="st21" d="M245.2,343.1l27.5,19.2l12.6,56.5l33.4,124.7l-8.2-2.3C298.3,503.8,217.1,440,217.1,440
					c-14.5-9-7.9-18.1-7.9-18.1l47.5-42l-38.5-16.5c0,0,12.6-18.4,25.9-20.8"/>
			</g>
			<g>
				<defs>
					<path id="SVGID_44_" d="M224.5,649.5C82.3,610.6-1.4,463.9,37.4,321.8C76.3,179.6,223,95.9,365.1,134.8
						c142.2,38.8,225.9,185.6,187,327.7C513.4,604.6,366.7,688.3,224.5,649.5z"/>
				</defs>
				<clipPath id="SVGID_45_">
					<use xlink:href="#SVGID_44_"  style="overflow:visible;"/>
				</clipPath>
				<path class="st22" d="M380.6,237.6c0,0-5,4.2-3.5,7.3c0,0,0.5,1.2,1.9,1L380.6,237.6z"/>
			</g>
			<g>
				<defs>
					<path id="SVGID_46_" d="M224.5,649.5C82.3,610.6-1.4,463.9,37.4,321.8C76.3,179.6,223,95.9,365.1,134.8
						c142.2,38.8,225.9,185.6,187,327.7C513.4,604.6,366.7,688.3,224.5,649.5z"/>
				</defs>
				<clipPath id="SVGID_47_">
					<use xlink:href="#SVGID_46_"  style="overflow:visible;"/>
				</clipPath>
				<path class="st23" d="M276,373.2l-41.8-12.7c0,0,14.3-39.2,51.7-35.8L276,373.2z"/>
			</g>
			<g>
				<defs>
					<path id="SVGID_48_" d="M224.5,649.5C82.3,610.6-1.4,463.9,37.4,321.8C76.3,179.6,223,95.9,365.1,134.8
						c142.2,38.8,225.9,185.6,187,327.7C513.4,604.6,366.7,688.3,224.5,649.5z"/>
				</defs>
				<clipPath id="SVGID_49_">
					<use xlink:href="#SVGID_48_"  style="overflow:visible;"/>
				</clipPath>
				<path class="st24" d="M334.8,341.4c0,0,32.1,31.1,42,64.9l-65.4,64.9l-5.8-30.1L334.8,341.4z"/>
			</g>
			<g>
				<defs>
					<path id="SVGID_50_" d="M224.5,649.5C82.3,610.6-1.4,463.9,37.4,321.8C76.3,179.6,223,95.9,365.1,134.8
						c142.2,38.8,225.9,185.6,187,327.7C513.4,604.6,366.7,688.3,224.5,649.5z"/>
				</defs>
				<clipPath id="SVGID_51_">
					<use xlink:href="#SVGID_50_"  style="overflow:visible;"/>
				</clipPath>
				<path class="st25" d="M270.5,371.5L223.6,403c0,0-10.2,6.8,0,15c0,0,86.5,82.2,95.5,136.4l10.3,10.6l-23.7-123.9
					c0,0-14.2-49.1-29.6-68.1C276,373.2,273.8,372.5,270.5,371.5z"/>
			</g>
			<g>
				<defs>
					<path id="SVGID_52_" d="M224.5,649.5C82.3,610.6-1.4,463.9,37.4,321.8C76.3,179.6,223,95.9,365.1,134.8
						c142.2,38.8,225.9,185.6,187,327.7C513.4,604.6,366.7,688.3,224.5,649.5z"/>
				</defs>
				<clipPath id="SVGID_53_">
					<use xlink:href="#SVGID_52_"  style="overflow:visible;"/>
				</clipPath>
				<path class="st26" d="M506.1,530.7c0,0,4.2,20.1-20.8,48.3c0,0-16.9-28.8-39.9-39.7c0,0,25.3-7.2,30-10.2
					C475.4,529.2,478.6,531.4,506.1,530.7z"/>
			</g>
			<g>
				<defs>
					<path id="SVGID_54_" d="M224.5,649.5C82.3,610.6-1.4,463.9,37.4,321.8C76.3,179.6,223,95.9,365.1,134.8
						c142.2,38.8,225.9,185.6,187,327.7C513.4,604.6,366.7,688.3,224.5,649.5z"/>
				</defs>
				<clipPath id="SVGID_55_">
					<use xlink:href="#SVGID_54_"  style="overflow:visible;"/>
				</clipPath>
				<path class="st27" d="M436.7,518.5c0,0-6.4-12.7,5.1-37.3c9.5-20.4-0.4-30.1-12-30.1c-5.5,0-25.5,12.6-42.6,44.2
					s-41,49.6-72.1,44.1c-52.7-9.4-174.8,47-122.8,155.7c51.8,108.3,169.7,51.6,193.5-0.6c19.6-42.9,33.8-61.1,80.4-71
					c0,0,34-9,31.2-48.9c-2.5-35-46.6-44.1-46.6-44.1S444.2,528.4,436.7,518.5z"/>
			</g>
			<g>
				<defs>
					<path id="SVGID_56_" d="M224.5,649.5C82.3,610.6-1.4,463.9,37.4,321.8C76.3,179.6,223,95.9,365.1,134.8
						c142.2,38.8,225.9,185.6,187,327.7C513.4,604.6,366.7,688.3,224.5,649.5z"/>
				</defs>
				<clipPath id="SVGID_57_">
					<use xlink:href="#SVGID_56_"  style="overflow:visible;"/>
				</clipPath>
				<path class="st28" d="M363.2,419.9l73.8,32.5c0,0-6-6.6-25.5,10.2l-56.8-34.4L363.2,419.9z"/>
			</g>
			<g>
				<defs>
					<path id="SVGID_58_" d="M224.5,649.5C82.3,610.6-1.4,463.9,37.4,321.8C76.3,179.6,223,95.9,365.1,134.8
						c142.2,38.8,225.9,185.6,187,327.7C513.4,604.6,366.7,688.3,224.5,649.5z"/>
				</defs>
				<clipPath id="SVGID_59_">
					<use xlink:href="#SVGID_58_"  style="overflow:visible;"/>
				</clipPath>
				<path class="st29" d="M181.2,424.3l10.6,185.4c0,0-15.4,30.4-8.8,54.6l-7.3-274.1C175.7,390.2,180.9,419.5,181.2,424.3z"/>
			</g>
			<g>
				<defs>
					<path id="SVGID_60_" d="M224.5,649.5C82.3,610.6-1.4,463.9,37.4,321.8C76.3,179.6,223,95.9,365.1,134.8
						c142.2,38.8,225.9,185.6,187,327.7C513.4,604.6,366.7,688.3,224.5,649.5z"/>
				</defs>
				<clipPath id="SVGID_61_">
					<use xlink:href="#SVGID_60_"  style="overflow:visible;"/>
				</clipPath>
				<polygon class="st30" points="283.1,615.2 330.1,682.1 312.5,693.8 273.7,634.3 				"/>
			</g>
			<g>
				<defs>
					<path id="SVGID_62_" d="M224.5,649.5C82.3,610.6-1.4,463.9,37.4,321.8C76.3,179.6,223,95.9,365.1,134.8
						c142.2,38.8,225.9,185.6,187,327.7C513.4,604.6,366.7,688.3,224.5,649.5z"/>
				</defs>
				<clipPath id="SVGID_63_">
					<use xlink:href="#SVGID_62_"  style="overflow:visible;"/>
				</clipPath>
				<path class="st31" d="M252.5,540.8c0,0,25.4-12.3,26.2-31.8c0,0-0.5-10.4-10.5-11.9c-9.9-1.5-12.7,6.6-12.7,6.6
					s-0.8-10.6-12.8-9.6c0,0-12.6,2.5-11.3,14.8C233.1,525.4,252.5,540.8,252.5,540.8z"/>
			</g>
		</g>
		<path class="st32" d="M192.5,149.4c0,0,3.3-94.8-29.3-149.1c0,0-7.5,6.4-5.2,15.7c0,0,7.3,19.9,7.3,25.4c0,0-10.6-1.7-13.6,8.9
			c0,0-9.3,5.1-11,12.3c0,0-9.7,5.5-9.7,13.6c0,0-2.5,20.8,11,36c0,0,1,21.6,16,28.8l0.4,30C158.4,171,188.1,162.6,192.5,149.4z"/>
		<path class="st33" d="M191.6,152.9c0,0,5.3-98.4-27.4-152.6c0,0-7.5,6.4-5.2,15.7c0,0,7.3,19.9,7.3,25.4c0,0-10.6-1.7-13.6,8.9
			c0,0-9.3,5.1-11,12.3c0,0-9.7,5.5-9.7,13.6c0,0-2.5,20.8,11,36c0,0,1,21.6,16,28.8l0.2,30.1C159.1,171.1,188,163.8,191.6,152.9z"
			/>
		<path class="st32" d="M167.4,44.4c0,0,9.3,13.5,19.7,30.1c0,0,5.1,38.2,3.3,57.7c0,0-32.4-22.1-17.1-48.6
			C173.4,83.5,156.4,53.5,167.4,44.4z"/>
		<path class="st34" d="M608.2,355L328.4,615.2l16.5,34.3l274.9-282.8c0,0,6.8-1.5,16-4.4s66.3-59.7,66.3-59.7l-6.3-25.5
			c0,0-3.4-7.9-8.7-3.8L608.2,355z"/>
		<path class="st32" d="M506.1,530.7c0,0,25.6-43.1,22.7-62.4c-2.9-19.3-22.3-40.3-26.8-43.2c0,0-5.2,9,1.6,16.1
			c0,0,9.6,14.8,12.6,27.5c0,0-1.9,3.4-4.2,0c0,0-6.8-18.2-17.7-22.4c0,0-3.2-1-8.4,4.7c0,0-1.3,3.7,1.3,5.6c0,0,10,13.7,12.7,20.5
			c0,0,0.6,0.8-0.5,1.6c0,0-8.2-16.1-13.9-21.3c0,0-3.5-2.6-5.6-0.3c-2.1,2.3-5.5,6.3-2.9,13.1c0,0,9,13.4,11.1,17.3l-0.2,1
			L476,470.6c0,0-3.4-2.5-6.5,0.7s-1.5,11.5,3.9,23.6c5.3,12.1,4.8,10.5,4.8,10.5s-2.4,15.3-3.2,26.3c0,0,4.4,13.2,20,8.5
			C503.2,537.8,506.1,530.7,506.1,530.7z"/>
	</g>
	<path class="st34" d="M400.7,116.3c0,0,25.1,50.2-17.1,76.5c0,0-43,5.9-63.3,23.9l-5.8,23.7c0,0-1.4,2.3-3.3,3l2.1-22.6
		c0,0-1.1-3.9-5.3-1.1c-4.2,2.7-8,15.5,0.3,28.8c0,0-2.6,13.9-14.6,13.1c0,0-2-49.5,6.1-62.7c0,0,1.5-2.8,4.8-3.1
		c0,0-4.4-3.1-6.8-2.7c0,0,5-8.1,10.3-5.9c0,0,1.9-7.4,6.2-12.6C322.8,164.6,394.5,140.6,400.7,116.3z"/>
	<path class="st35" d="M171.3,529.5c0,31.9-25.8,57.7-57.7,57.7s-57.7-25.8-57.7-57.7s25.8-57.7,57.7-57.7S171.3,497.7,171.3,529.5z
		"/>
	<polygon class="st36" points="58.7,240.5 64.1,275.7 99.6,285.7 71.8,302.6 77.8,356.3 40.3,314 -0.1,327.4 21.8,292 -0.1,259.1 
		38.6,267.9 	"/>
	<polygon class="st36" points="525.1,360.8 527.3,375.3 541.8,379.4 530.4,386.3 532.9,408.4 517.5,391 500.9,396.5 509.9,382 
		500.9,368.5 516.8,372.1 	"/>
	<polygon class="st37" points="461,236.4 464.7,275.1 490.1,279.5 472,293.3 475.4,321.8 450.9,303.5 423.7,315.8 436.4,289.5 
		418.7,268.2 446.3,271.5 	"/>
</g>
</svg>
