<?xml version="1.0" encoding="utf-8"?>
<!-- Generator: Adobe Illustrator 22.1.0, SVG Export Plug-In . SVG Version: 6.00 Build 0)  -->
<svg version="1.1" id="Слой_1" xmlns="http://www.w3.org/2000/svg" xmlns:xlink="http://www.w3.org/1999/xlink" x="0px" y="0px"
	 viewBox="0 0 754 822" style="enable-background:new 0 0 754 822;" xml:space="preserve">
<style type="text/css">
	.st0{fill:url(#SVGID_1_);}
	.st1{opacity:0.4;}
	.st2{fill:#1888ED;}
	.st3{opacity:0.8;}
	.st4{fill:#F83461;}
	.st5{opacity:0.7;}
	.st6{clip-path:url(#SVGID_3_);}
	.st7{fill:#1D56C0;}
	.st8{fill:#F38040;}
	.st9{fill:#121728;}
	.st10{fill:#212E4F;}
	.st11{opacity:0.2;fill:#3760BF;}
	.st12{fill:none;stroke:url(#SVGID_4_);stroke-miterlimit:10;}
	.st13{fill:#CACFD6;}
	.st14{fill:#F1EDE1;}
	.st15{fill:#F2A136;}
	.st16{fill:#DB8A2A;}
	.st17{fill:#26346D;}
	.st18{fill:#AF2F7C;}
	.st19{fill:none;stroke:#1D56C0;stroke-miterlimit:10;}
	.st20{clip-path:url(#SVGID_6_);}
	.st21{opacity:0.3;fill:#1D56C0;}
	.st22{opacity:0.6;fill:#1D56C0;}
	.st23{fill:#1F4084;}
	.st24{opacity:0.8;fill:#F9215A;}
	.st25{opacity:0.4;fill:#1888ED;}
	.st26{clip-path:url(#SVGID_8_);fill:#1888ED;}
	.st27{clip-path:url(#SVGID_8_);fill:#1D56C0;}
	.st28{clip-path:url(#SVGID_8_);fill:#26346D;}
	.st29{clip-path:url(#SVGID_10_);}
	.st30{clip-path:url(#SVGID_10_);fill:#1D56C0;}
	.st31{clip-path:url(#SVGID_12_);}
	.st32{fill:#39D8A8;}
</style>
<g>
	<g>
		
			<linearGradient id="SVGID_1_" gradientUnits="userSpaceOnUse" x1="-563.1956" y1="471.6198" x2="-332.2062" y2="-174.5247" gradientTransform="matrix(0.7167 -0.6974 0.6974 0.7167 556.9662 -84.3794)">
			<stop  offset="0" style="stop-color:#2F54BF"/>
			<stop  offset="1" style="stop-color:#E93667"/>
		</linearGradient>
		<path class="st0" d="M631.5,165.9c137.2,141,134.1,366.5-6.9,503.6c-141,137.2-366.5,134.1-503.6-6.9
			c-137.2-141-134.1-366.5,6.9-503.6C268.8,21.8,494.3,24.9,631.5,165.9z"/>
	</g>
	<g class="st1">
		<path class="st2" d="M474.9,258.1c0,5.5-4.5,10-10,10H286.4c-5.5,0-10-4.5-10-10V10.3c0-5.5,4.5-10,10-10h178.6
			c5.5,0,10,4.5,10,10V258.1z"/>
	</g>
	<g class="st3">
		<path class="st4" d="M635.2,264.3c0,5.5-4.5,10-10,10H499.4c-5.5,0-10-4.5-10-10V96.1c0-5.5,4.5-10,10-10h125.8
			c5.5,0,10,4.5,10,10V264.3z"/>
	</g>
	<g>
		<g class="st1">
			<path class="st2" d="M310.5,170.1c0,5.5-4.5,10-10,10h-90.7c-5.5,0-10-4.5-10-10V49.6c0-5.5,4.5-10,10-10h90.7
				c5.5,0,10,4.5,10,10V170.1z"/>
		</g>
		<g class="st5">
			<defs>
				<rect id="SVGID_2_" x="199.7" y="39.8" class="st5" width="111" height="140"/>
			</defs>
			<clipPath id="SVGID_3_">
				<use xlink:href="#SVGID_2_"  style="overflow:visible;"/>
			</clipPath>
			<g class="st6">
				<path class="st7" d="M290.2,102.3c0,18.1-14.7,32.8-32.8,32.8c-18.1,0-32.8-14.7-32.8-32.8c0-18.1,14.7-32.8,32.8-32.8
					C275.5,69.5,290.2,84.2,290.2,102.3z"/>
				<path class="st8" d="M360,297.2c0,0,60.4,172.9,79.1,224.4c0,0,8.3,8.3,11.3,14.7c0,0-6.9,2.5-16.2-12.3l-1.5-5.9
					c0,0-46.7-48.1-60.9-113.4c0,0-53.5-44.9-66.7-105.7C305,299.1,330,293.8,360,297.2z"/>
				<path class="st8" d="M305,299.1c0,0-13.8,77.7-34.9,122.4l-87.4,124.7c0,0,0-20.8,11.3-26.5c0,0,20.1-84.5,54.5-118.8
					c0,0-8.9-26.5-9.9-83.3C238.6,317.6,267.9,301.8,305,299.1z"/>
				<path class="st7" d="M252.8,154.9l29.5,50.5c0,0-46.1,3.9-43.7,112.3c0,0,53.5-25.8,121.3-20.4c0,0-33.9-99.2-50.6-127.7
					c0,0,7-10.7,4.4-18.6c-2.6-7.9-37-23.1-37-23.1h-24.9C251.9,127.8,236.5,130.6,252.8,154.9z"/>
				<path class="st9" d="M439,521.7c-13.4-37-48.3-136.5-66.9-189.7c-5.2-1.3-10.5-2.3-15.8-3.1c-12.8-1.6-29.1-0.7-42-0.2
					c19.2,45.8,57.4,76.2,57.4,76.2c14.2,65.3,61.3,115.1,61.3,115.1l1.1,4.3c9.3,14.7,16.2,12.3,16.2,12.3
					C447.4,530,439,521.7,439,521.7z"/>
				<path class="st4" d="M439,521.7c-6.5-18-18.1-50.7-30.4-85.7c-6.7,5.1-14.4,8.9-22.5,11.7c19.3,43,46.9,72.2,46.9,72.2l1.1,4.3
					c9.3,14.7,16.2,12.3,16.2,12.3C447.4,530,439,521.7,439,521.7z"/>
				<path class="st9" d="M291.1,329.5c-17.2,2.5-34.3,6.3-50.4,12.9c-0.3,0.1-0.7,0.3-1,0.5c2.6,39.4,8.8,58,8.8,58
					C214.1,435.2,194,519.7,194,519.7c-11.3,5.7-11.3,26.5-11.3,26.5l87.4-124.7c12.8-27,22.9-66.2,28.9-92.9
					C296.3,328.9,293.7,329.2,291.1,329.5z"/>
				<path class="st4" d="M242.1,459.8c-9.4,0-18-4.3-23.9-10.9c-15.6,34.6-24.2,70.8-24.2,70.8c-11.3,5.7-11.3,26.5-11.3,26.5
					l60.6-86.4C242.9,459.8,242.5,459.8,242.1,459.8z"/>
				<path class="st2" d="M193.6,60.8c0,0,7.2,65.3,58.3,66.2c0,0,7.2-3.4,18.3,27.7c0,0,3.3,7.2-1.3,10.8
					c-4.6,3.6-7.9,3.1-17.5-13.2c0,0-69.9-7.4-63-88.6c0,0-6.7,0.8-13.4-2.3c0,0,1.8-1.1,6.9-0.7c0,0-8.2-6.2-9-8.5
					c0,0-2-1.6-1.6-2.8C171.2,49.5,192.7,56.6,193.6,60.8z"/>
				<path class="st2" d="M275.2,127l-3.8-7.9c0,0,1.8-25.2-12.3-28.8c0,0-15.1,2.3-2.3,26.2l14.6,26.5c0,0,2.1,5.9,12.6,3.6
					C294.5,144.3,275.2,127,275.2,127z"/>
				<path class="st2" d="M278.2,127.7c0,0,50.5-1.5,48.3-25.4c-2.2-23.9-27.3-22.2-27.3-22.2l-4.8-5.5c0,0,1.8-1.7,6.4,2.6l3.3-3.4
					c0,0,34,5.9,32.3,33.8c-1.7,27.9-30.7,35.2-30.7,35.2S285.2,130,278.2,127.7z"/>
				<path class="st10" d="M268.5,108.7c0.8,1.9,0.5,3.8-0.5,4.2c-1,0.4-2.5-0.8-3.2-2.7c-0.8-1.9-0.5-3.8,0.5-4.2
					C266.3,105.6,267.8,106.8,268.5,108.7z"/>
				<path class="st11" d="M265.4,142.8c0,0,7.6,20.1,15.2,19.4c7.6-0.7,32.8-1.7,33.6-9.7c0,0,1,8.5-4.9,17.1l2.7,5
					c0,0-13.3-2.6-28.3,7.3l17.9,25.1c0,0-45.9-18.3-11.5,94.7c0,0-24.8,3.5-51.6,16c0,0-5.9-98,43.7-112.4l-26.8-46.1
					c0,0,7.3,12.5,13.5,6.5C275.2,159.5,265.4,142.8,265.4,142.8z"/>
				<path class="st7" d="M294.8,85.3c0,3-2.5,5.5-5.5,5.5c-3.1,0-5.5-2.5-5.5-5.5c0-3.1,2.5-5.5,5.5-5.5
					C292.3,79.8,294.8,82.3,294.8,85.3z"/>
				<path class="st7" d="M309.3,68.1L293.2,86c0,0-2.2,1.6-4.1-0.6c-1.9-2.1,0-4.1,0-4.1L305,64.2c0,0,1.7-2,4.3,0
					C311.8,66.2,309.3,68.1,309.3,68.1z"/>
				<linearGradient id="SVGID_4_" gradientUnits="userSpaceOnUse" x1="293.9923" y1="85.1511" x2="293.9923" y2="85.1511">
					<stop  offset="0" style="stop-color:#2F54BF"/>
					<stop  offset="1" style="stop-color:#E93667"/>
				</linearGradient>
				<path class="st12" d="M294,85.2"/>
				<path class="st2" d="M299.4,70.2c0,0-2-1.4-3.7,0c-1.7,1.4-4.8,6.3-4.8,6.3s-0.4,1.1,1.3,1.4L299.4,70.2z"/>
			</g>
		</g>
	</g>
	<path class="st13" d="M710.8,806.6c0,7.4-149.3,14.1-333.6,15.1c-184.3,0.9-333.7-4.3-333.7-11.7c0-7.4,149.3-14.2,333.6-15.1
		C561.3,793.9,710.7,799.2,710.8,806.6z"/>
	<path class="st14" d="M355.6,285.2c5,1.7,10,3.1,15.2,4.1c6.7,0.6,13.4,0.8,20.1,0.8c1.3-1,2.7-1.9,4-2.9
		c6.4-5.2,12.5-10.8,18.3-16.7c5.1-5.2,11-9.1,17.5-11.7c-19.4-15.3-34.3-21.9-34.3-21.9v-29.8l-22.7,17.4l-22.7-17.4v29.8
		c0,0-14.6,6.5-33.6,21.5c4.8,4.2,9.7,8.3,14.6,12.3C339.4,276.1,347.3,281.1,355.6,285.2z"/>
	<path class="st11" d="M345.3,284c1.3-1.7,2.5-3.3,3.8-5c17.8-23.4,25.8-33.8,37.9-49.4c3-3.9,6.1-7.8,9.3-11.6v-11l-22.7,17.4
		l-22.7-17.4v29.8c0,0-14.6,6.5-33.6,21.5c4.8,4.2,9.7,8.3,14.6,12.3C336.3,273.8,340.7,281.3,345.3,284z"/>
	<path class="st15" d="M351.2,237c0,0,1.6,42.3,22.4,44c20.8,1.7,23.2-44.1,23.2-44.1s26.6,12.8,42.7,28.9l-9.1,60.5
		c0,0,16.9,23.9,22.6,34.8c5.6,10.8,0.8,33-15.3,45.7l14.3,99.2H302.8l14.9-99.3c0,0-27.8-4.9-24.7-41.5l24.7-38.8l-9.1-60.5
		C308.6,265.8,331.6,243.9,351.2,237z"/>
	<path class="st16" d="M436.4,393.9H315.5c6.5,16.8,2.2,12.8,2.2,12.8L302.8,506H452l-14.3-99.2
		C444.6,401.4,433.6,401.1,436.4,393.9z"/>
	<path class="st15" d="M308.6,265.7l9.8,63.6c0,0-60.4,70.4-48.8,145c0,0,67.1-35.1,84.1-57.2l12.5,14.6c0,0-52.9,81-93.3,83.1
		c0,0-39.9,4.3-43.5-63.7C229.6,451.1,221.6,345,308.6,265.7z"/>
	<path class="st15" d="M439.6,265.7l-10.7,61.5c0,0,61.2,72.5,49.6,147.1c0,0-67.1-35.1-84.1-57.2l-12.5,14.6c0,0,52.9,81,93.3,83.1
		c0,0,39.9,4.3,43.5-63.7C518.6,451.1,526.6,345,439.6,265.7z"/>
	<path class="st16" d="M292.6,367.7c0,0-2.3,20,28.4,21.8l60.1-8l46,10.1c0,0,22.6-5.3,27.8-23.9c0,0,3.7,22.7-17.3,39.1l-120-0.1
		C317.7,406.7,288.3,399.3,292.6,367.7z"/>
	<g>
		<path class="st17" d="M405.2,383.9c0,5.5-4.5,10-10,10H352c-5.5,0-10-4.5-10-10V314c0-5.5,4.5-10,10-10h43.2c5.5,0,10,4.5,10,10
			V383.9z"/>
	</g>
	<path class="st14" d="M353.8,417.1c0,0-16.5-26.8-16.3-51.7c0,0,3.8,2.8,4.6,7.2l1.4,5.8c0,0-2.2-27.2,2.2-34.7c0,0,2,1.9,1.5,5.8
		c0,0-0.4,15.5,1,24.2c0,0,0-27.4,2.3-33.6c0,0,2.1,0,2.3,7.3c0,0,1.2-9.3,2.3-12.2c0,0,2.5,0.6,2.7,11c0,0,1.6,40.2,8.6,50.8
		c0,0,2.6-22.2,5.9-24.5c0,0,2,38.6-5.9,59.2l-13.1-13.9"/>
	<path class="st14" d="M394.4,417.1c0,0,16.5-26.8,16.3-51.7c0,0-3.8,2.8-4.6,7.2l-1.4,5.8c0,0,2.2-27.2-2.2-34.7c0,0-2,1.9-1.5,5.8
		c0,0,0.4,15.5-1,24.2c0,0,0-27.4-2.3-33.6c0,0-2.1,0-2.3,7.3c0,0-1.2-9.3-2.3-12.2c0,0-2.5,0.6-2.7,11c0,0-1.6,40.2-8.6,50.8
		c0,0-2.6-22.2-5.9-24.5c0,0-2,38.6,5.9,59.2l13.1-13.9"/>
	<path class="st14" d="M340.4,137.1c0,0-4.2,18.2,1.3,44.9c5.5,26.7,21.5,50.5,37.5,50c16.1-0.5,28.8-53.9,28.8-53.9
		s6.8-45.9-34.6-48.9C373.5,129.2,344.2,126.3,340.4,137.1z"/>
	<path class="st4" d="M339,159.7c0,0-4.9-8.1-7.5,2.4c-2.6,10.5,12.3,23.2,12.3,23.2S339.3,168.7,339,159.7z"/>
	<path class="st17" d="M369.7,160.1l-2.2,3.7c0,0-19.1-4.4-24.6-2.7C342.9,161,349.2,155.2,369.7,160.1z"/>
	<path class="st17" d="M377.5,160.1l2.2,3.7c0,0,19.1-4.4,24.6-2.7C404.3,161,398.1,155.2,377.5,160.1z"/>
	<path class="st17" d="M346.6,167.3l3.2,3.6c0,0,10.3,0.6,16.6-1.3C366.3,169.6,356.1,168.8,346.6,167.3z"/>
	<path class="st17" d="M401.2,167.3l-3.1,3.6c0,0-10.3,0.6-16.6-1.3C381.5,169.6,391.7,168.8,401.2,167.3z"/>
	<path class="st4" d="M368.5,186.6c0,0-1,0.9,5.8,0.9c6.9,0,6.1-0.7,6.1-0.7s-1.2-3.4-6-3.5C369.7,183.2,368.5,186.6,368.5,186.6z"
		/>
	<path class="st4" d="M360.7,200.7c0,0,6.6,2.4,14.9,2.4c8.3,0,15.3-1.9,15.3-1.9s-8.1-1.8-12.4-2.2c0,0-1.5,1.1-3.1,1.1
		c-1.5,0-3.1-1.1-3.1-1.1S364.9,199.6,360.7,200.7z"/>
	<path class="st11" d="M367.2,206.7c0,0,3.1,2.6,9.8,2.6c0,0,5.8-0.2,8.2-2.6c0,0-2.3,4.4,0,7.7c0,0-5.6-2.4-8.2-2.3
		c-2.6,0.1-4.8,0.8-8.5,2.3C368.4,214.4,370.4,210.9,367.2,206.7z"/>
	<path class="st4" d="M353.5,181.7c1.1,1.2,1,3-0.2,4.1l-0.1,0c-1.2,1.1-3,1-4.1-0.2l-0.6-0.7c-1.1-1.2-1-3,0.2-4.1l0.1,0
		c1.2-1.1,3-1,4.1,0.2L353.5,181.7z"/>
	<path class="st4" d="M394.7,182.3c-1.1,1.2-1,3,0.2,4.1l0.1,0c1.2,1.1,3,1,4.1-0.2l0.6-0.7c1.1-1.2,1-3-0.2-4.1l-0.1,0
		c-1.2-1.1-3-1-4.1,0.2L394.7,182.3z"/>
	<path class="st18" d="M339.3,163.7c0,0-1.3-2.4-3-1.5c-1.8,0.9-1.9,8.7,5.5,16.1C341.8,178.3,339.3,164.3,339.3,163.7z"/>
	<polygon class="st14" points="302.9,505.9 300.6,520.8 456.7,520.8 454.9,506.4 	"/>
	<polygon class="st11" points="302.9,505.9 300.6,520.8 456.7,520.8 454.9,506.4 	"/>
	<path class="st4" d="M752.1,606.5c-28.1-87.7-284.2-51.8-284.2-51.8c-2-11.4-11.2-33.8-11.2-33.8h-80.5h-75.6
		c0,0-12.5,15.7-17.1,32.8c0,0-253.1-34.5-281.2,53.2c-14.8,46,68.7,83,190.1,105l-19.8,5.9L184,729c62.9,4.9,129.1,5.5,193.2,2.6
		c64.1,3,130.3,2.3,193.2-2.6l11.4-11.4l-19.8-6C683.4,689.7,766.8,652.5,752.1,606.5z"/>
	<path class="st19" d="M562,711.6"/>
	<path class="st18" d="M562,711.6c0,0-138-38.2-179.9-48.9c0,0-114-55.2-220.8-30.3c0,0,78.3-35.6,215.8,17.8
		c0,0,104.6-42.9,208.7-25.4c0,0-117.1,1.4-195.6,32.6C390.3,657.4,499.9,682.2,562,711.6z"/>
	<path class="st18" d="M283.5,553.2c0,0,23.5,1.3,69.8,35.7c0,0-20.9-42.1-65.8-46.8L283.5,553.2z"/>
	<path class="st18" d="M467.8,554.2c0,0-19.6,0.2-65.9,34.6c0,0,18.3-40.3,63.2-44.9L467.8,554.2z"/>
	<path class="st18" d="M192.4,711.6c0,0,131.3,22,336,19.9c0,0-290.6,5.8-344.4-2.6l-11.4-11.4L192.4,711.6z"/>
	<path class="st17" d="M581.8,717.6c0,0,7.7-3,40.3,0c0,0,29.1,4.6,40.3,15.9c11.3,11.4-69.6,6.8-92-4.6L581.8,717.6z"/>
	<path class="st17" d="M184,728.9l-11.4-11.4c0,0-45.4-0.6-76.2,24.9C96.4,742.5,113.1,758.7,184,728.9z"/>
	<path class="st19" d="M317.7,304.1"/>
	<path class="st4" d="M343.5,193.3c0,3.6-2.9,6.5-6.5,6.5c-3.6,0-6.5-2.9-6.5-6.5c0-3.6,2.9-6.5,6.5-6.5
		C340.6,186.9,343.5,189.8,343.5,193.3z"/>
	<path class="st4" d="M417.4,193.3c0,3.6-2.9,6.5-6.5,6.5s-6.5-2.9-6.5-6.5c0-3.6,2.9-6.5,6.5-6.5S417.4,189.8,417.4,193.3z"/>
	<g class="st1">
		<path class="st2" d="M186.4,356.4c0,5.5-4.5,10-10,10H10.2c-5.5,0-10-4.5-10-10V142.6c0-5.5,4.5-10,10-10h166.2
			c5.5,0,10,4.5,10,10V356.4z"/>
	</g>
	<path class="st17" d="M321.8,99.2c0,0-19.5,37.9,9.9,61.8c0,0,1.1-4.4,4.2-4.4c0,0,1.7,0.9,3.1,3.1c0,0-1-12.6,1.5-23.2
		c0,0,9.9-1.5,16.9,5.3c0,0,0.6-4.7-2.6-7c0,0,37,14.8,42.6,43.7c0,0,6-16.6,4.8-24.8c0,0,6.3,9.9,3.1,30.4c0,0,24.1-25.3,24.1-58.2
		c0-32.9-27.8-49.3-47.3-49.3c-19.5,0-35.5,9.2-41.8,17.3c0,0-2-4.8-0.2-9c0,0-17.2,8.8-14.1,23.5
		C325.9,108.3,321.8,105.8,321.8,99.2z"/>
	<g class="st5">
		<defs>
			<rect id="SVGID_5_" x="0.7" y="132.8" class="st5" width="186" height="234"/>
		</defs>
		<clipPath id="SVGID_6_">
			<use xlink:href="#SVGID_5_"  style="overflow:visible;"/>
		</clipPath>
		<g class="st20">
			<ellipse class="st21" cx="137.8" cy="1265.5" rx="310.9" ry="9.5"/>
			<path class="st7" d="M199.5,397.1c0,0,2.4,20-22.1,32.2c0,0-45.1-104.2-60.2-162.4C117.3,266.9,195.8,275.3,199.5,397.1z"/>
			<path class="st7" d="M79.4,153.3c0,0-51,20.4,3.3,131.2l14.3-5l20.4-12.5c0,0,36.3,31.2,73.6,71.8c0,0-49-155.8-73.3-172.1
				C117.6,166.6,89.6,146.6,79.4,153.3z"/>
			<path class="st7" d="M72.3,280"/>
			<path class="st7" d="M72.3,342l29.3,139.2c0,0-60.2,30.9-77.4,125.8c0,0-37.7,224-36.8,357.5c0,0,78.3,55.2,143.6,65l16.6-186.9
				c0,0,52.5,143.3,102.4,197.6l113-26.7c0,0-138.8-478.8-200.3-620.4c0,0,18.2-18.2,20.9-31.2l-48.9-79.2l-17.5-15.7l-22,5.3
				l-12.6,12.3C82.6,284.5,61.3,289.8,72.3,342z"/>
			<path class="st7" d="M124.3,481.8c0,0-58.6,37.5-67,90c0,0-27.8,105.8-19,423.6c0,0-34.8-20.4-50.8-31.1
				c0,0-4.4-111.8,35.2-347.9c0,0,3.5-77.7,75.4-134.7H124.3z"/>
			<path class="st22" d="M138.3,459.2l-11.5,0.1c0,0-6.7-1.6-16.1-0.2c0,0-8.7,3.2-12.8,5.2l3.6,17.5h40.7
				C142.3,481.8,136.6,468.3,138.3,459.2z"/>
			<path class="st7" d="M155.9,676.3c0,0,43.3,169.8,148.5,350.9l-54.4,12.9c0,0-55.2-65.9-102.4-197.6L155.9,676.3z"/>
			<path class="st2" d="M77,161.3c0,0,24.9,35.6,45.7,128.2c0,0,9.2,48.1,0,49.2c-9.2,1.2-35.6-94.6-35.6-94.6s-27,0.6-23.7-38.9
				l-3.6-3C59.8,202.2,65.7,174.4,77,161.3z"/>
			<polygon class="st7" points="77.4,189.7 70.5,193.8 88.9,193.8 			"/>
			<path class="st7" d="M456.8,1284.8L426,1262l-1.1-6.8c0,0-76-134.7-119.4-228.3l57.6-13.6l73.4,239.4l20.3,27.9
				c0,0,1.7,1.9,1.4,3.4C457.8,1285.5,456.8,1284.8,456.8,1284.8z"/>
			<path class="st7" d="M444.4,1263.7c-7.9-0.3-15-3.9-20-9.4c0,0-0.1,0-0.1-0.1c0.4,0.7,0.6,1.1,0.6,1.1l1.1,6.8l30.8,22.8
				c0,0,1,0.7,1.4-0.8c0.3-1.4-1.4-3.4-1.4-3.4L444.4,1263.7z"/>
			<path class="st7" d="M145.2,1265.5c0,0-20.9-160.8-14.2-236.2c0,0-34.7-7.8-73.7-24.7c0,0,34,162.3,76.1,263.8l-4.7,46.9
				c0,0-1.9,3.3,3.4,3.7c5.3,0.4,15.6-47.2,15.6-47.2L145.2,1265.5z"/>
			<path class="st7" d="M145.4,1266.1c-0.2,0.1-0.3,0.2-0.5,0.3c0.1,0.5,0.1,1,0.1,1.6c0,7.9-5.8,14.7-13.2,16.3l-3.2,31.2
				c0,0-1.9,3.3,3.4,3.7c5.3,0.4,15.6-47.2,15.6-47.2L145.4,1266.1z"/>
			<path class="st7" d="M155.9,676.3c0,0-5.3,132.8-8.3,166.1l2.9,7.7C150.5,850.1,163.3,720.7,155.9,676.3z"/>
			<path class="st22" d="M139.5,933.7c0,0-84.4-23.1-147.9-67.6l-2.3,33.8c0,0,103.4,55.6,147.3,66.3L139.5,933.7z"/>
			<path class="st22" d="M133.6,1000.4c0,0-87.6-32.9-145.6-73l-0.6,36.9c0,0,80.7,57.4,143.6,65L133.6,1000.4z"/>
			<path class="st22" d="M-2.9,806.9c0,0,90,51.6,147.4,70.3l-2.2,24.9c0,0-92.9-31.1-147.9-67.6L-2.9,806.9z"/>
			<path class="st22" d="M150.4,798.6c0,0-112-63-143.1-76.6l-6.6,53.4c0,0,90.6,48.1,147,62.9L150.4,798.6z"/>
			<path class="st22" d="M155.6,684.7c0,0-77.1-52.1-133.9-62.2c0,0-7,46.1-8.1,53.9c0,0,52.7,24.3,139.4,66.5L155.6,684.7z"/>
			<path class="st22" d="M152.9,441.5c0,0,12.5-0.9,17.4,24.9c4.9,25.8-2.2,35.6-6.7,36c-4.4,0.4-20.9-7.6-24.9-33.4
				C134.7,443.3,152.9,441.5,152.9,441.5z"/>
			<path class="st22" d="M184.2,447.2c0,0-3.9,4.7-17.2,7.5c0,0,4.1,13.4,4.6,19.7c0,0,12.6-4.8,19.4-8.6L184.2,447.2z"/>
			<g>
				<path class="st7" d="M267.3,465.7c-12.5-42.6-35.5-30.5-35.5-30.5c-7,78.2,3.1,160,37.7,153.7
					C304.1,582.5,279.8,508.3,267.3,465.7z M240.5,536.6c0,0-7.8-30.3-5.9-66.6c0,0,14.2-15.8,16.4-26.9c0,0,14.1,11.8,28.3,90.4
					C279.3,533.6,255.6,537.8,240.5,536.6z"/>
			</g>
			<path class="st7" d="M134.7,282.6c0,0,89.4,75.2,117,153.1c0,0,6.8,17.2-47.8,66.8l-6.3-17.9c0,0,25.6-24.3,34.2-49.5
				c0,0-28.6-38.5-55.2-58.9c0,0,6.6-7.3,7-14.4L134.7,282.6z"/>
			<path class="st7" d="M82.6,284.5c0,0,13.9-9.5,23.4,97.6c0,0,46.6,5,77.6-20.2c0,0-5.2,16.3-20.9,31.2c0,0-27.9,14.8-49.5,14.8
				l13.6,51.3c0,0-14.4-4-28.8,4.8L72.3,342l7.4-3.2L82.6,284.5z"/>
			<path class="st2" d="M82.6,284.5c0,0-98.3,61.4-143.7,130.8c0,0-4,6.9,4.2,12c8.2,5.1,87,54.3,145.1,62.3c0,0,12.9-12,29.4-12
				c0,0,3.1,0.4,4.4-3.1l2.3-6.9c0,0,3.3-7.6-26.1,0.4c0,0,12-5.3,20.7-6.7c0,0,1-0.4,1.1-1.3c0.1-0.9-14.5-3.7-36.5,12.7
				c0,0-69.7-17.7-108.6-62.7c0,0,42.1-45.1,104.7-71.2c0,0,5.3,41.1,13.6,41.4C101.6,380.4,96.6,281.5,82.6,284.5z"/>
			<path class="st7" d="M190.9,465.7c0,0,32.6,90.8-15.7,191.7c0,0-3.8,8.3-8.3,5.9C162.4,660.9,210.5,583.1,190.9,465.7z"/>
			<path class="st22" d="M252,648.1c0,0-66.9,22.8-95.2,34.5l1.5,39.4c0,0,86.1-35,104.7-39.4L252,648.1z"/>
			<path class="st22" d="M273.3,715.6c0,0-68.2,28.3-116.5,50.2l-2.6,41.1c0,0,100.9-38.9,131.1-52.8L273.3,715.6z"/>
			<path class="st22" d="M295.1,786.3c0,0-98.6,41.6-144.7,63.8l12.6,31.6c0,0,133.5-48.7,143.6-57.6L295.1,786.3z"/>
			<path class="st22" d="M317,858.3c0,0-74.6,36.1-136.7,63.1l14.2,30c0,0,109.4-38.2,133.3-56.9L317,858.3z"/>
			<path class="st22" d="M339.2,932.6c0,0-80.1,41.3-123.6,58.4c0,0,25.4,41.5,34.3,49.1l113-26.7L339.2,932.6z"/>
			<path class="st7" d="M252,438.4c0,0-7.5-6-20.1-3.2l-2.1,5.3c0,0,11.6-4.4,21.9,3.4l0.7-3.1L252,438.4z"/>
			<path class="st7" d="M240.5,536.6c0,0,3.9,33,24.2,30.4c20.3-2.6,14.7-33.3,14.7-33.3S260.3,537.4,240.5,536.6z"/>
		</g>
	</g>
	<rect x="153.7" y="436.8" class="st4" width="63" height="81"/>
	<path class="st23" d="M355.2,314.1c0,1.9-1.5,3.4-3.4,3.4c-1.9,0-3.4-1.5-3.4-3.4c0-1.9,1.5-3.4,3.4-3.4
		C353.7,310.7,355.2,312.2,355.2,314.1z"/>
	<path class="st24" d="M353.6,314.1c0,1-0.8,1.8-1.8,1.8c-1,0-1.8-0.8-1.8-1.8c0-1,0.8-1.8,1.8-1.8
		C352.8,312.3,353.6,313.1,353.6,314.1z"/>
	<g>
		<rect x="32.7" y="383.8" class="st25" width="85" height="109"/>
		<path class="st2" d="M66.8,410.4c0,0-7.1,8.8-6.5,13.4l-11.5,14.4l7.5,3.6c0,0-1.6,16.5,1.6,23.3c0,0,3.1,5.7,21.4-1.4l4.3,11.3
			l12.7-10.8l-7.1-24.6c0,0,10.2-13.4,2.2-14C91.3,425.6,89.1,412.2,66.8,410.4z"/>
		<polygon class="st7" points="72.7,484 99.5,462.1 106.7,469.4 117.7,478.4 117.7,492.8 67.7,492.8 72.5,489 		"/>
		<path class="st7" d="M66.9,410.2c0,0-4.6-0.1-5.7-10.3c0,0,9.5-0.9,14.5,3.3v-3.7l5.6,4.7c0,0,14.2-0.2,18,12.1l3.8-1.2
			c0,0,0.3,3.7-3.2,5.3c0,0,7.4,19.7-6,35.5l-4.7-16.2c0,0,4.9-5.5,5.2-11.9c0,0-1-2-3-2l-5,8.9l-4.1-0.2l2.4-9c0,0,3.1-7.3-5-8.2
			c0,0-11,1.9-12-6.6"/>
		<polygon class="st7" points="62.7,423.9 63.9,427 68.5,427.7 		"/>
	</g>
	<path class="st2" d="M181.9,457.1c0,0,7.1,1.4,11,7.3l10.3,5.4c0,0,1,1.1,0,2.5l-3.4,5.3l-3.5,33.1l-18.7-6.4l-1.1-10.4l-5.7-15.3
		v-11.9C170.7,466.9,169.1,456.5,181.9,457.1z"/>
	<path class="st7" d="M182,457.3c0,0-10.5,5.2,0,15.2c0,0,7.2,14,14,9.7l2.5-4.2c0,0,3-1.9,3.6,2.7l9.7,9.3c0,0-4,15.8-19.9,6.7
		c0,0-7.9-6.3-10.3-14.3c0,0-3-4.2-6-2.8c0,0-3.6,2.2,0.7,5.8c0,0,2.7,4.2,0,8.7l-12.2-12.8c0,0-6.6-8.1,3.6-19.9
		C167.8,461.3,178.6,447.9,182,457.3z"/>
	<path class="st7" d="M206.5,517.8l1.9-4.8l-34-9.3l-3.4,5c0,0-8.5,4.1-9.7,9.1H206.5z"/>
	<path class="st2" d="M357.9,267.5"/>
	<path class="st16" d="M311.6,263l46.3,4.5c0,0-6.1-12.7-6.7-30.5C351.2,237,339.6,239.2,311.6,263z"/>
	<g class="st5">
		<defs>
			<rect id="SVGID_7_" x="489.7" y="85.8" class="st5" width="146" height="188"/>
		</defs>
		<clipPath id="SVGID_8_">
			<use xlink:href="#SVGID_7_"  style="overflow:visible;"/>
		</clipPath>
		<path class="st26" d="M596.8,121.8l4,24.8l-4.6,2.3c0,0-2.9,21.9-8.1,31.3l-11.1-1.9l-19.4,34.6l-25.1,9.1l31.4-66.9l-3.2-21.6
			C560.8,133.5,587.9,118.9,596.8,121.8z"/>
		<path class="st27" d="M523.1,414.8c0,0-37.4-44.7-42-117.7c-4.6-73,67.4-91.7,67.4-91.7s52.2,1.2,126.3,188.1l-151,23.5"/>
		<path class="st27" d="M550.5,184.7l-8-4.3l3-35.7c0,0,0-4.2,2.9-6l-2-4.8h4.3c0,0,3.2-18,28.5-25.6c0,0,21.3-4.9,22.7-9.6
			c0,0,3.2,19-4.3,28.9l-24.5,5l1.2,16.5l-4.4-1.6l-2.6-9.1c0,0-0.3-2.9-3.5-0.9c-3.2,2,0,17.5,0,17.5L550.5,184.7z"/>
		<polygon class="st28" points="594.4,135.3 587.6,137.2 593.8,138.2 		"/>
		<path class="st27" d="M540.5,213.3l-5.9-15.1c0,0,26.7-6.2,51.9,6.2l-18.1,15.1L540.5,213.3z"/>
		<path class="st27" d="M595,157.7c0,0-7.7,7.7-9.5-1.6c0,0,0.9,1.9,4.1,0.8c0,0,3.5-4.5,6.2-5.3L595,157.7z"/>
	</g>
	<g class="st1">
		<path class="st2" d="M732.5,392.6c0,5.5-4.5,10-10,10H607c-5.5,0-10-4.5-10-10V236.7c0-5.5,4.5-10,10-10h115.5c5.5,0,10,4.5,10,10
			V392.6z"/>
	</g>
	<rect x="205.7" y="258.8" class="st25" width="48" height="62"/>
	<g class="st5">
		<path class="st2" d="M242.9,274.3l1.2,5.6l2.9,4.2c0,0,1.2,1.7-2,2c0,0,0.4,9.2-3.2,11.6l-5.6,3.3l-2,6.8h-14.3l1.6-8.9l-2.2-20.2
			l15.1-7C234.4,271.8,229.8,260.9,242.9,274.3z"/>
		<path class="st7" d="M221.3,302.2c0,0-10.5-15.3-5.3-29.3h-1.7c0,0,1.1-2.9,3.3-1.8c0,0,1.4-3.8,7.1-4.9
			c9.3-1.7,17.3,5.7,20.6,0.6c0,0,3.2,5.8-2.5,7.8c0,0-11.3-0.3-11.3,4.2l0.3,5.4c0,0-1.7-4.5-4.3-3.9c-2.5,0.6-0.2,5.5,0.9,6.5
			C228.5,286.7,225.9,302.1,221.3,302.2z"/>
		<path class="st7" d="M218.7,304.1c0,0,13.6-1,20.2,3.6l2,6.3l4.4,6.9h-33.7c0,0,1.9-5.3,4.6-9.6L218.7,304.1z"/>
	</g>
	<rect x="535.7" y="402.8" class="st25" width="75" height="95"/>
	<g class="st5">
		<defs>
			<rect id="SVGID_9_" x="596.7" y="226.8" class="st5" width="136" height="175"/>
		</defs>
		<clipPath id="SVGID_10_">
			<use xlink:href="#SVGID_9_"  style="overflow:visible;"/>
		</clipPath>
		<g class="st29">
			<path class="st2" d="M655.3,341.4l9,17.5l32.3-19.2l-9-16.6C687.6,323.1,646.8,312.2,655.3,341.4z"/>
			<path class="st2" d="M643.4,272.3c0,0-10.4,4.9-12,21.8l-8.2,24c0,0-2.2,3.3,7.1,3.8l9.3,24c0,0,30.5-2.2,36-31.1l12-21.8
				C687.6,293,652.8,261.2,643.4,272.3z"/>
			<path class="st7" d="M644.4,271.4c0,0,21.9-17,40.5-9.7c30.3,11.9,22.6,42.8,22.6,42.8s21,1.1,15,18.3c0,0-19.6-4.4-18.8-13.4
				c0,0-6.6,17.3-32.9,18.2c0,0,6.1-24.5,0.7-31.3c0,0-5.1-0.2-8.8,7.6l-2-1l-1.4-15.7C659.2,287.1,654,270.7,644.4,271.4z"/>
			<path class="st7" d="M640.1,297.2l-1.9,2.7h7C645.1,299.8,644.5,297.2,640.1,297.2z"/>
			<path class="st7" d="M696.9,332.1c0,0-41.2,14.1-41.2,37v9l-7.1,23.7h68.5c0,0,0-47.4-13.7-55.5L696.9,332.1z"/>
		</g>
		<path class="st30" d="M638.2,361.6c0,0-3.9-0.3-3.5,8.5c0,0-6.5-22.5-6.9-24.7c-0.5-2.1-1.9-3.1-2.6-2.9c-0.7,0.2-2.7,0.7-1.4,6.8
			l4.4,19c0,0-0.4,1.3-1,0c-0.6-1.3-7.5-22.8-7.5-22.8s-1.1-3.5-2.8-3c-1.7,0.5-2.3,3-1.4,5.6l6.3,22.2c0,0-0.1,0.5-0.8,0.2
			l-3.2-8.9c0,0-0.9-3-2.8-2.3c0,0-2.4,0.8-1.3,4.1l3.4,9.8l-0.4,0.2l-3.3-9.8c0,0-0.8-2.2-2.3-1.5c0,0-2.1,1.1-0.6,5.9
			c0,0,5.1,17.3,18,40.6l3.1,6.4l13.3-8.4c0,0-3.9-21-4.7-25.8C639.3,375.9,638.3,364.8,638.2,361.6z"/>
	</g>
	<g class="st5">
		<defs>
			<rect id="SVGID_11_" x="535.7" y="402.8" class="st5" width="75" height="95"/>
		</defs>
		<clipPath id="SVGID_12_">
			<use xlink:href="#SVGID_11_"  style="overflow:visible;"/>
		</clipPath>
		<g class="st31">
			<path class="st2" d="M597.5,504c0.6,0,1.3,0,1.9-0.1l20.1-5.8c0,0-6.6-17.3-10.3-24.1l3.7-8.5c0,0-13.8-23.6-27.1-18.8
				c-7.3,2.6-9.1,2.8-9.3,2.5c-0.7,0.9-1.6,2.3-1.8,3.6c0,0-2.8,13.1,10,27.9C594.2,491.7,597,501.8,597.5,504z"/>
			<path class="st7" d="M594.2,495.1c7.4-1.3,14.8-2.9,21.9-5.5c-2.2-5.4-5-12-6.9-15.6l3.7-8.5c0,0-13.8-23.6-27.1-18.8
				c-7.3,2.6-9.1,2.8-9.3,2.5c-0.7,0.9-1.6,2.3-1.8,3.6c0,0-2.8,13.1,10,27.9C589.2,486,592.2,491,594.2,495.1z"/>
			<path class="st32" d="M576.4,449.2c0.5-0.6,0.8-1,0.8-1S576.2,448.9,576.4,449.2z"/>
			<path class="st2" d="M664.7,435.1c0,0-33.3,20.4-72.7,11.3c0,0-2.7,3.6,0,8.6c2.7,5,7.4,8.3,13.9,7.9
				c6.6-0.4,52.1-11.5,60.1-24.7c7-11.6,5.7-14.9,5.7-14.9l-1.2-0.7c0,0-1.1-0.2-1.3,0.7l-1.4,4.7l0.5-5.9c0,0,0-0.3-0.3-0.4
				c-0.4,0-2,6.6-2,6.6s-0.6-2.3-0.9-2.9L664.7,435.1z"/>
			<path class="st7" d="M575.9,416.2c0,0-9.5-20.6-32.4-13c0,0-35.8-2.2-49.6,7.9c0,0-41,2.3-40.1,22c0.9,19.7,61.8,14.9,61.8,14.9
				s6.2,5.1,33.2,0.5c0,0,13.3,1.9,24.2-7.8L575.9,416.2z"/>
			<path class="st2" d="M576.4,449.2c0,0-26.1,24.9-37.3,43l-5.9,0c0,0-0.3,0.7,1.2,1.1c0,0-8.3,2.7-5.4,3.3c0,0,8.4,1.7,12.3-1.5
				c0,0,9.3-13.7,35.7-26.6C576.9,468.5,571.3,456.5,576.4,449.2z"/>
			<path class="st2" d="M577.2,448.3l-8-14.1c0,0-5.8-1.1-4.9-5c0,0,0.1-1.3,2-0.7c0,0-2.2-11.9,3.2-14.8
				c5.4-2.8,14.7,12.5,14.7,12.5l-1.5,1.4c0,0,5.4,9.2,0.5,12.8l3.4,6.1C586.6,446.5,572.9,451.6,577.2,448.3z"/>
			<path class="st7" d="M578.8,424.5c0,0-0.1,1.4-4.1,1.5v-0.8c0,0,2.7-0.6,3.1-1.4L578.8,424.5z"/>
		</g>
	</g>
	<g>
		<path class="st14" d="M359.2,329.2h-1.7c-0.2,0-0.3,0-0.5-0.2c-0.1-0.1-0.2-0.3-0.1-0.5v-4.5c0-0.4,0.2-0.7,0.5-0.7
			c0.3,0,0.5,0.2,0.5,0.7v4.2h1.2c0.4,0,0.7,0.2,0.7,0.5C359.8,329.1,359.6,329.2,359.2,329.2L359.2,329.2z"/>
		<path class="st14" d="M361.3,329.3c-0.3,0-0.5-0.2-0.5-0.6v-4.5c0-0.4,0.2-0.7,0.5-0.7c0.3,0,0.5,0.2,0.5,0.7v4.5
			C361.8,329,361.6,329.3,361.3,329.3L361.3,329.3z"/>
		<path class="st14" d="M367.3,329.3c-0.2,0-0.4-0.1-0.6-0.3l-2.6-3.7v3.4c0,0.4-0.2,0.6-0.5,0.6c-0.3,0-0.5-0.2-0.5-0.6v-4.6
			c0-0.4,0.1-0.6,0.4-0.6c0.2,0,0.4,0.1,0.5,0.3l2.7,3.7v-3.4c0-0.4,0.2-0.7,0.5-0.7c0.3,0,0.5,0.2,0.5,0.7v4.6
			C367.8,329.1,367.7,329.3,367.3,329.3L367.3,329.3z"/>
		<path class="st14" d="M372.9,329.3c-0.1,0-0.3-0.1-0.5-0.3l-2.2-2.4v2.1c0,0.4-0.2,0.6-0.5,0.6c-0.3,0-0.5-0.2-0.5-0.6v-4.6
			c0-0.4,0.2-0.7,0.5-0.7c0.3,0,0.5,0.2,0.5,0.6v1.7l2-2c0.2-0.2,0.4-0.3,0.5-0.3c0.1,0,0.2,0,0.3,0.1c0.1,0.1,0.1,0.2,0.1,0.3
			c0,0.1-0.1,0.3-0.3,0.5l-1.8,1.7l2.1,2.2c0.1,0.1,0.2,0.3,0.2,0.5c0,0.1,0,0.2-0.1,0.3C373.1,329.2,373,329.3,372.9,329.3
			L372.9,329.3z"/>
		<path class="st14" d="M385.2,323.5L385.2,323.5C385.2,323.5,385.2,323.5,385.2,323.5c-0.1,0-0.2,0-0.2,0c-0.1,0-0.3,0.1-0.4,0.2
			c-0.1,0.1-0.1,0.3-0.1,0.5v2.8c0,0.3,0,0.6-0.1,0.9c0,0,0,0,0,0c0,0-0.1,0.1-0.1,0.1c0,0-0.1,0.1-0.1,0.1l-0.1,0.1
			c0,0-0.1,0.1-0.1,0.1c0,0,0,0-0.1,0c0,0-0.1,0-0.1,0c0,0-0.1,0-0.1,0c0,0-0.1,0-0.1,0c0,0-0.1,0-0.2,0h-0.1c-0.1,0-0.2,0-0.3,0
			c-0.4-0.1-0.7-0.4-0.8-0.8c0-0.2-0.1-0.4-0.1-0.6v-2.8c0-0.3-0.1-0.5-0.3-0.6c-0.1,0-0.1,0-0.2,0c-0.3,0-0.5,0.2-0.5,0.6v2.9
			c0,0.5,0.1,0.9,0.3,1.3l0,0.1c0,0,0,0,0,0c0.1,0.1,0.1,0.2,0.2,0.3c0.4,0.4,0.9,0.6,1.6,0.6s1.2-0.2,1.6-0.6
			c0.4-0.4,0.6-1,0.6-1.7v-2.9C385.5,323.7,385.4,323.5,385.2,323.5L385.2,323.5z"/>
		<path class="st14" d="M389.4,328.8c-0.4,0.3-0.9,0.5-1.4,0.5c-0.3,0-0.7-0.1-1-0.2c-0.4-0.2-0.7-0.4-0.7-0.6c0-0.1,0-0.2,0.1-0.3
			c0.1-0.1,0.2-0.1,0.3-0.1c0.1,0,0.2,0.1,0.4,0.1l0.4,0.2c0.2,0.1,0.4,0.1,0.6,0.1c0.2,0,0.4-0.1,0.6-0.2c0.2-0.2,0.2-0.4,0.2-0.6
			c0-0.3-0.2-0.6-0.7-0.8l-1.2-0.5c-0.4-0.2-0.7-0.7-0.7-1.2c0-0.5,0.2-0.9,0.6-1.2c0.4-0.3,0.8-0.4,1.3-0.4c0.5,0,0.9,0.1,1.2,0.3
			c0.1,0.1,0.2,0.2,0.2,0.4c0,0.1,0,0.2-0.1,0.3c-0.1,0.1-0.2,0.1-0.3,0.1c-0.2,0-0.3-0.1-0.5-0.1c-0.2-0.1-0.4-0.1-0.5-0.1
			c-0.2,0-0.4,0.1-0.5,0.2c-0.1,0.1-0.2,0.3-0.2,0.5c0,0.2,0.1,0.3,0.2,0.4c0.2,0.1,0.4,0.2,0.6,0.3c0.4,0.1,0.8,0.3,1.2,0.6
			c0.4,0.3,0.6,0.7,0.6,1.2C390,328,389.8,328.5,389.4,328.8L389.4,328.8z"/>
		<path class="st14" d="M393.8,329.2h-2.1c-0.4,0-0.6-0.2-0.6-0.6v-4.5c0-0.4,0.2-0.7,0.6-0.7h2.1c0.4,0,0.6,0.2,0.6,0.5
			c0,0.3-0.2,0.5-0.6,0.5H392v1.4h1.6c0.4,0,0.6,0.2,0.6,0.5c0,0.3-0.2,0.5-0.6,0.5H392v1.6h1.7c0.4,0,0.6,0.2,0.6,0.5
			C394.4,329.1,394.2,329.2,393.8,329.2L393.8,329.2z"/>
		<path class="st14" d="M379.9,324C379.9,324,379.9,323.9,379.9,324C379.9,323.9,379.9,323.9,379.9,324
			C379.9,323.9,379.9,323.9,379.9,324c0-0.1,0-0.1,0-0.1v0l0,0c0,0,0,0,0,0l0,0v0c0,0,0,0,0,0l0,0l0,0l0,0l0,0l0,0c0,0,0,0,0,0l0,0
			l0,0l0,0c0,0,0,0,0,0h0l0,0h0l0,0h0l0,0h-0.3l0,0h0l0,0l0,0l0,0l0,0l0,0l0,0l0,0l0,0l0,0l0,0c0,0,0,0,0,0c0,0,0,0,0,0l0,0
			c0,0,0,0,0,0l-1.9,3.9l-1.9-3.9c0,0,0,0,0,0c0,0,0,0,0,0c0,0,0,0,0,0c0,0,0,0,0,0l0,0l0,0l0,0l0,0l0,0l0,0l0,0l0,0l0,0l0,0h0l0,0
			h-0.2c0,0,0,0,0,0h0l0,0h0l0,0h0l0,0l0,0l0,0l0,0l0,0l0,0c0,0,0,0,0,0l0,0l0,0l0,0c0,0,0,0,0,0c0,0,0,0,0,0v0l0,0c0,0,0,0,0,0l0,0
			v0c0,0,0,0,0,0c0,0,0,0,0,0c0,0,0,0,0,0c0,0,0,0,0,0v4.7c0,0.3,0.2,0.5,0.5,0.5c0.3,0,0.5-0.2,0.5-0.5V326l1.3,2.9
			c0.1,0.2,0.3,0.3,0.4,0.3h0c0.2,0,0.3-0.1,0.4-0.3l1.3-2.9v2.7c0,0.3,0.2,0.5,0.5,0.5c0.3,0,0.5-0.2,0.5-0.5L379.9,324
			C379.9,324,379.9,324,379.9,324L379.9,324z"/>
	</g>
</g>
</svg>
