<?xml version="1.0" encoding="utf-8"?>
<!-- Generator: Adobe Illustrator 22.1.0, SVG Export Plug-In . SVG Version: 6.00 Build 0)  -->
<svg version="1.1" id="Слой_1" xmlns="http://www.w3.org/2000/svg" xmlns:xlink="http://www.w3.org/1999/xlink" x="0px" y="0px"
	 viewBox="0 0 876 802" style="enable-background:new 0 0 876 802;" xml:space="preserve">
<style type="text/css">
	.st0{fill:#1D56C0;}
	.st1{clip-path:url(#SVGID_2_);fill:url(#SVGID_3_);}
	.st2{fill:#174EA5;}
	.st3{fill:#F2A136;}
	.st4{fill:#DB8A2A;}
	.st5{fill:#26346D;}
	.st6{fill:#F1EDE1;}
	.st7{opacity:0.7;fill:#1888ED;}
	.st8{opacity:0.4;}
	.st9{fill:#1888ED;}
	.st10{fill:#F83461;}
	.st11{fill-rule:evenodd;clip-rule:evenodd;fill:#174EA5;}
	.st12{opacity:0.4;fill:#1888ED;}
	.st13{fill:#AF2F7C;}
	.st14{fill-rule:evenodd;clip-rule:evenodd;fill:#1888ED;}
	.st15{opacity:0.2;fill:#3760BF;}
	.st16{opacity:0.7;fill-rule:evenodd;clip-rule:evenodd;fill:#1888ED;}
	.st17{clip-path:url(#SVGID_5_);fill:#F83461;}
	.st18{clip-path:url(#SVGID_5_);fill:#F1EDE1;}
	.st19{clip-path:url(#SVGID_5_);fill:#26346D;}
	.st20{opacity:0.7;clip-path:url(#SVGID_5_);fill:#1888ED;}
	.st21{clip-path:url(#SVGID_5_);}
	.st22{clip-path:url(#SVGID_7_);}
	.st23{opacity:0.3;fill:#1D56C0;}
	.st24{opacity:0.6;fill:#1D56C0;}
</style>
<g>
	<path class="st0" d="M814,341.2c0,0-90-14.7-88-68s51.3-61.3,51.3-61.3s38-11.9,31.3-50.3s-71.3-79.7-169.3-62.4
		s-229.3,34.7-283.3,6s-156.7-22.6-195.3,61s21.3,133-12,178.3S0,435.2,35.4,548.6C70.7,661.9,179,567.2,178,652.2s25,145,165,97
		s194-52,235,0s262.4,9.8,191-182c0,0-9.5-36,14-50.5c23.5-14.5,96.5-31.5,92.5-94S839.7,347.8,814,341.2z"/>
	<g>
		<defs>
			<path id="SVGID_1_" d="M814,341.2c0,0-90-14.7-88-68s51.3-61.3,51.3-61.3s38-11.9,31.3-50.3s-71.3-79.7-169.3-62.4
				s-229.3,34.7-283.3,6s-156.7-22.6-195.3,61s21.3,133-12,178.3S0,435.2,35.4,548.6S179,567.2,178,652.2s25,145,165,97
				s194-52,235,0s262.4,9.8,191-182c0,0-9.5-36,14-50.5c23.5-14.5,96.5-31.5,92.5-94S839.7,347.8,814,341.2z"/>
		</defs>
		<clipPath id="SVGID_2_">
			<use xlink:href="#SVGID_1_"  style="overflow:visible;"/>
		</clipPath>
		
			<linearGradient id="SVGID_3_" gradientUnits="userSpaceOnUse" x1="-680.5607" y1="79.423" x2="105.4122" y2="79.423" gradientTransform="matrix(0.7167 -0.6974 0.6974 0.7167 581.2215 -44.671)">
			<stop  offset="0" style="stop-color:#2F54BF"/>
			<stop  offset="1" style="stop-color:#E93667"/>
		</linearGradient>
		<path class="st1" d="M712.2-61.3c151.4,155.6,148,404.4-7.6,555.7c-155.6,151.4-404.4,148-555.7-7.6S0.9,82.5,156.4-68.9
			C312-220.2,560.8-216.8,712.2-61.3z"/>
	</g>
	<g>
		<path class="st2" d="M493.1,271.3c-118.2,0-214,95.8-214,214c0,118.2,95.8,214,214,214c118.2,0,214-95.8,214-214
			C707,367.1,611.2,271.3,493.1,271.3z M493.1,575.2c-49.7,0-90-40.3-90-90c0-49.7,40.3-90,90-90c49.7,0,90,40.3,90,90
			C583,534.9,542.8,575.2,493.1,575.2z"/>
	</g>
	<g>
		<path class="st3" d="M493.1,221.3c-118.2,0-214,95.8-214,214c0,118.2,95.8,214,214,214c118.2,0,214-95.8,214-214
			C707,317.1,611.2,221.3,493.1,221.3z M493.1,525.2c-49.7,0-90-40.3-90-90c0-49.7,40.3-90,90-90c49.7,0,90,40.3,90,90
			C583,484.9,542.8,525.2,493.1,525.2z"/>
	</g>
	<path class="st4" d="M479.8,283c0,0-2.8,19.4-10.2,20.1l-24.5,2.7l62.5,40.7c0,0,36.3,6.8,51.9,30c15.6,23.2,0,2.2,0,2.2l35.6-58
		l-10.2-24.3l-60.6-7C524.3,289.4,486,284.7,479.8,283z"/>
	<path class="st4" d="M524.3,521.7c0,0,81.6-6.8,101.4-32.9c0,0,61.5-70.9,50.8-151.6l-58.1-19C618.4,318.2,605.1,500.7,524.3,521.7
		z"/>
	<path class="st4" d="M363.8,605.2c0,0-1.7-45,4.3-83.5s33.7-38.7,57.8-26.6c0,0-16.9-21.2-19.8-40.5l-63.4-29.7l-19.1,141
		C323.6,565.9,350,596.2,363.8,605.2z"/>
	<path class="st4" d="M661,438.9c0,0-22.3,93.7-71.7,125.3S382,607.6,331.2,509.1l-7.7,56.8c0,0,60.5,83.4,164.5,83.4
		s182.5-65,205.9-140.1c0,0,42.7-103.2-23.9-190.9L661,438.9z"/>
	<path class="st4" d="M421.6,429.7l-64.5-8.5c0,0-25.2-0.3-25.1,22.4L300,534.2c0,0-23.4-48.4-21-90s-0.2-5.3-0.2-5.3L406,310
		C406,310,437.1,397.2,421.6,429.7z"/>
	<path class="st5" d="M643.3,223.7c0,0-19.8-26.2-79.2-8c0,0,0.2,3,3.5,4.5c0,0-27.5,4.5-33,26.8l5.2,1.7c0,0-37.5,6.7-43.2,40.7
		c0,0,180.2,36.3,206.8-56.2c0,0,10.2-53-29.2-52.8c0,0-7.5,0.4-11,4.9c0,0-14.8,1.9-10.4,23.2c0,0-3.1,10.6,0.4,17.1
		C653.1,225.6,649,230.1,643.3,223.7z"/>
	<path class="st6" d="M669.6,265.8c0,0,57.5,137.8-57.5,282.5c0,0-7.9,36.3-5.6,49.6c0,0,0.1,2.7-2.6,2.8c0,0-3-14.8-2.5-18.5
		c0,0-3.7,14.3-1.8,24.8c0,0-3.1,3.7-4.4,0.7l-1.2-3.3v5.8c0,0-3.8,4-4.6,0c0,0-1.4-4.5-2.4-7.2v5.2c0,0-4.1,0.3-3.9-4.8
		c0,0-3.2-41.7,14.3-61.2c0,0,69.8-106.7,55.9-197.6C653.3,344.6,650.7,303.4,669.6,265.8z"/>
	<path class="st6" d="M631.1,251.3c0,0-88.6,39.9-121.6,21.4c0,0,5-33.5,47.5-72.5c0,0,8.3-9.6,9.5-16.8c0,0-0.6,0.7-3.6,3.8
		l-9.5,6.8l7.8-31.1c0,0,1.5-4-1.1-4.2c0,0-12.3,20.8-16.8,40.6c0,0-50.5,36.2-63.5,83.8c0,0,29.2,26.8,82.8,18.5"/>
	<g>
		<path class="st6" d="M536.7,210.7c2.2,0.9,4.5,1.7,6.8,2.6c3.6-3.9,7.6-7.8,11.9-11.8c0,0,9.7-9.7,10.9-16.9c0,0-2,0.7-5,3.8
			l-9.5,6.8l7.8-31.2c0,0,1.5-4-1.1-4.3c0,0-12.4,20.9-16.8,40.7c0,0-3.9,2.8-9.7,7.8C533.4,209.2,535,210,536.7,210.7z"/>
		<path class="st6" d="M553.3,163.2c0,0-3.7,8.4-5.5,17.7l-1.4,4.6l7.5-16.7c0,0,1.8-5.8-0.1-6.8L553.3,163.2z"/>
	</g>
	<path class="st5" d="M560.8,153l-9.8,34.3c0,0-2.6,7.6,3.2,6.1l17.4-5.4c0,0,1.8-0.2,2.5-2.9l10.3-36.8c0,0,1.6-5-1.4-4.8
		l-18.8,3.9C564.2,147.5,562.3,147.8,560.8,153z"/>
	<path class="st7" d="M561.6,154.7l-8.7,30.5c0,0-2.3,6.8,2.8,5.4l15.5-4.8c0,0,1.6-0.1,2.2-2.6l9.2-32.7c0,0,1.4-4.4-1.3-4.2
		l-16.7,3.5C564.6,149.8,562.9,150.1,561.6,154.7z"/>
	<path class="st6" d="M563,185.5l-10.2,8.8c0.5,2.2,0.8,4.5,0.8,6.9c0,1-2.9,3.9-2.9,4.9c0.9-0.8,2.8-2.3,5.5-4.5
		c0,0,8.5-10.7,12.5-18.6C568.6,183,565.5,183,563,185.5z"/>
	<path class="st6" d="M551.4,185.8c0,0,0.2,5.4,2,5.6c2,0.3,4.2-0.5,4.2-0.5l-4.2,8l-5.6-2.7l1.2-9.4l1.9-3.4L551.4,185.8z"/>
	<g class="st8">
		<path class="st9" d="M124,487c0,5.5-4.5,10-10,10H10.3c-5.5,0-10-4.5-10-10V383.2c0-5.5,4.5-10,10-10H114c5.5,0,10,4.5,10,10V487z
			"/>
	</g>
	<g class="st8">
		<path class="st9" d="M853,334.6c0,5.5-4.5,10-10,10h-76.7c-5.5,0-10-4.5-10-10v-53.4c0-5.5,4.5-10,10-10H843c5.5,0,10,4.5,10,10
			V334.6z"/>
	</g>
	<path class="st10" d="M81,404c-10.1,0-16.8,10.6-18.4,13.3C61,414.6,54.2,404,44.2,404c-7.8,0-20.6,6.2-17.7,27.8
		c2.9,21.7,36,39.9,36,39.9s33.1-18.2,36.1-39.9C101.6,410.1,88.7,404,81,404z"/>
	<g class="st8">
		<path class="st9" d="M771.5,158.6c0,5.5-4.5,10-10,10h-89.8c-5.5,0-10-4.5-10-10V68.8c0-5.5,4.5-10,10-10h89.8c5.5,0,10,4.5,10,10
			V158.6z"/>
	</g>
	<g class="st8">
		<path class="st9" d="M418,791.6c0,5.5-4.5,10-10,10H297c-5.5,0-10-4.5-10-10V680.7c0-5.5,4.5-10,10-10H408c5.5,0,10,4.5,10,10
			V791.6z"/>
	</g>
	<g class="st8">
		<path class="st9" d="M825.6,683.4c0,5.5-4.5,10-10,10h-97.8c-5.5,0-10-4.5-10-10v-97.8c0-5.5,4.5-10,10-10h97.8
			c5.5,0,10,4.5,10,10V683.4z"/>
	</g>
	<path class="st11" d="M776.8,429.9c0,0,28.1,17.2,5.1,36.2s-56.7,5.6-42.6-7.6C739.3,458.6,768.3,453.9,776.8,429.9z"/>
	<path class="st3" d="M757.2,416.7c0,0-9.4,7.6-4,16.7c0,0,2.5,4.4,9.5,4.8c0,0-4.4,3.3-8.9-1c0,0-8.7,12.2-16.2,6.8
		c0,0-9.7-2.9-1.9,10.2c0,0,15.6,24.1,39.2,3.7c0,0,19.1-13.9,1.9-28c0,0,0.5-7.5-2.6-11.7C771.3,414.2,765.2,411.6,757.2,416.7z"/>
	<path class="st6" d="M560,402.2c0,0-78-47-224-14c0,0-7.5,1-10.5,18c0,0-48,171.5-61.5,255l-17.5,39c0,0,12.8-7.3,15.5-14.7
		c0,0,12.3-12.3,13.7-20l1.3-8.7c0,0,35.7-72.7,44.3-87.3c8.7-14.7,46-75.3,30.7-136.7c0,0,125.3,89.3,208,78
		c0,0,52.7-6.7,59.3-66.7C619.4,444.2,591.1,415,560,402.2z"/>
	<path class="st12" d="M270.2,628.1c-2.4,12-4.5,23.2-6.2,33.1l-17.5,39c0,0,12.8-7.3,15.5-14.7c0,0,12.3-12.3,13.7-20l1.3-8.7
		c0,0,5.4-11,12.5-25.3C282.8,631.5,276.3,630.3,270.2,628.1z"/>
	<path class="st10" d="M644,248.7c0,0-10.5-0.5-17.5,5.5L564,292.7c0,0-5,22,15.5,33.5c0,0-15.2,17.4-24.8,73.2
		c2.4,1.2,34.5,12.3,64.7,44.8c0,0,1.2-19.5-5.8-29c0,0,5-48.5,24.5-64c0,0,4.5,2.5,15.5-4.8c0,0-4.5-42.2,16.5-80.7l-3-4.2
		C667,261.6,655,250.2,644,248.7z"/>
	<path class="st13" d="M595,313.9c0,0-25.7-1.3-31-21.2c0,0-6.3,18.5,15.5,34.5C579.5,327.2,592,328.6,595,313.9z"/>
	<path class="st13" d="M613.7,329.9c0,0,6.3,18.8,24.3,21.3c0,0,8.2,0.7,15.6-4.8c0,0,0.1-11.5,0-14.2
		C653.7,332.2,646,351.3,613.7,329.9z"/>
	<path class="st10" d="M770.9,418l7-4.1c0,0,2.5-2.3,3.8,0c1.3,2.3-2.5,4.1-2.5,4.1l-5.4,5.6L770.9,418z"/>
	<path class="st14" d="M346.2,719.8L331,760.8l0,0c-1.3,3.7-5.7,7.9-12.5,10.6c-9.5,3.8-17.2,1.9-18.6-2.6
		c-1.3-4.6,2.6-13.7,12-17.3c6.2-2.3,12.7-0.1,16,1.7l12.3-33l7.9-21.3l57,0l-1.6,5.1l-4.9,13.9l-13.9,39.8l0,0
		c-1.1,3.3-5.2,6.9-11.7,9.2c-9.2,3.3-17,1.5-18.6-2.6c-1.6-4.1,2.9-10.4,12-13.4c6.1-2,11.5-1.6,14.9,0l11.6-31.4L346.2,719.8z"/>
	<path class="st6" d="M658.7,230.8c0,0-4.3,11.6-9.3,19.3c0,0-4-1.4-5.4-1.4s-33.5,24-23.8,37.3c9.7,13.3,39.5-16.5,44.3-26.7
		c4.8-10.2,27.7-65.8,8.2-71.5c0,0-13.2-5.7-19.2,17C648.7,223.3,653.4,228.3,658.7,230.8z"/>
	<path class="st5" d="M656.9,196.1c0,0,10.7-3,23.6,7.1l0,0.9l-3.7-1c0,0-3.9,7.4-11.3,4.8c-6.8-2.4-2.8-10-5.9-10.4
		c0,0-1.6-0.2-2.7,2.8c0,0-2.1,5.4-3.6,5.9C653.3,205.9,653.3,198.8,656.9,196.1z"/>
	<path class="st15" d="M652.6,209.7c0,0,0.4-1.3,7.3,2.9c0,0-3.7,0.3-5.8,0c0,0-2.7-0.5-1.7-3"/>
	<path class="st16" d="M716.6,105.6c-6.8,0-12.3,5.5-12.3,12.3c0,6.8,5.5,12.3,12.3,12.3c6.8,0,12.3-5.5,12.3-12.3
		C729,111.1,723.4,105.6,716.6,105.6z M716.6,136.4c-10.2,0-18.5-8.3-18.5-18.5c0-10.2,8.3-18.5,18.5-18.5
		c10.2,0,18.5,8.3,18.5,18.5C735.1,128.1,726.8,136.4,716.6,136.4z M744.3,90.2c-4.3,0-8.8,0-8.8,0l-2.9-6.2
		c-0.7-1.5-3.3-3.1-5.6-3.1h-20.4c-2.3,0-5,1.5-5.6,3.1l-2.9,6.2c0,0-4.7,0-9.2,0c-7.4,0-9.2,6.2-9.2,6.2v43.1c0,0,4.6,6.2,9.2,6.2
		c4.6,0,50.5,0,55.4,0c4.9,0,9.2-6.2,9.2-6.2V96.4C753.6,96.4,752,90.2,744.3,90.2z"/>
	<path class="st7" d="M784.7,644c3.5-3.1,8.8-2.8,11.8,0.6c3.1,3.5,2.8,8.8-0.6,11.9c-3.4,3.1-8.8,2.8-11.8-0.6
		C781,652.4,781.3,647.1,784.7,644z M740,646.5c2.9-2.6,7.3-2.3,9.9,0.5c2.6,2.9,2.3,7.3-0.5,9.9c-2.9,2.6-7.3,2.3-9.9-0.5
		C736.9,653.5,737.1,649.1,740,646.5z M784.2,599.4c2.9-2.6,7.3-2.3,9.9,0.5c2.6,2.9,2.3,7.3-0.5,9.9c-2.9,2.6-7.3,2.3-9.9-0.5
		C781,606.4,781.3,602,784.2,599.4z M760,606c2.9-2.6,7.3-2.3,9.9,0.5c2.6,2.9,2.3,7.3-0.5,9.9c-2.9,2.6-7.3,2.3-9.9-0.5
		C756.9,613,757.2,608.6,760,606z M743.4,620.9c2.9-2.6,7.3-2.3,9.9,0.5c2.6,2.9,2.3,7.3-0.5,9.9c-2.9,2.6-7.3,2.3-9.9-0.5
		C740.3,627.9,740.5,623.5,743.4,620.9z M739.6,608.4c-18.3,16.4-14.3,42.9-6.8,51.2c7.5,8.3,16.7,11.3,24,4.8
		c7.3-6.5,12.8-7.7,18.4-1.5c7.5,8.3,18.5,9.7,25.9,3.1c23.7-21.3,21.6-45.7,8.5-60.3C787.2,580.7,761.5,588.8,739.6,608.4
		L739.6,608.4z"/>
	<g>
		<defs>
			<path id="SVGID_4_" d="M527.2,105.8c0,58.2-47.2,105.4-105.4,105.4c-58.2,0-105.4-47.2-105.4-105.4
				c0-58.2,47.2-105.4,105.4-105.4C480,0.4,527.2,47.6,527.2,105.8z"/>
		</defs>
		<clipPath id="SVGID_5_">
			<use xlink:href="#SVGID_4_"  style="overflow:visible;"/>
		</clipPath>
		<path class="st17" d="M540.6,105.5c0,65.4-53,118.4-118.4,118.4c-65.4,0-118.4-53-118.4-118.4c0-65.4,53-118.4,118.4-118.4
			C487.6-12.9,540.6,40.1,540.6,105.5z"/>
		<path class="st18" d="M338.4,202.1c6.6,2.9,13.6,5.3,20.5,8c10.9-11.7,22.9-23.6,36.1-35.7c0,0,33.9-26.8,37.5-48.6
			c0,0-10.5-0.4-19.6,9.1L384,155.3l23.5-94.5c0,0,4.6-12.1-3.4-12.9c0,0-37.5,63.3-50.9,123.4c0,0-11.7,8.4-29.5,23.6
			C328.5,197.5,333.4,199.9,338.4,202.1z"/>
		<path class="st19" d="M404,53.7l-29.6,104.1c0,0-7.9,23.2,9.7,18.6L437,160c0,0,4.8-0.8,8.2-13.9l29.1-106.9
			c0,0,3.7-15.5-7.4-13.1l-49.8,10.4C417.2,36.4,407.3,37.2,404,53.7z"/>
		<path class="st20" d="M412,53.6l-23.7,100.6c0,0-15.3,17.8,0.4,13.8l45.5-13.8c0,0,4.8-0.5,6.6-7.9l27.8-104.1
			c0,0,4.5-12.1-2.5-10.5l-42,9.1C423.9,40.8,414.5,41.7,412,53.6z"/>
		<g class="st21">
			<defs>
				<polygon id="SVGID_6_" points="443.4,136.4 388.3,154.3 411.7,55 468.5,42.2 				"/>
			</defs>
			<clipPath id="SVGID_7_">
				<use xlink:href="#SVGID_6_"  style="overflow:visible;"/>
			</clipPath>
			<g class="st22">
				<path class="st23" d="M486.3,536.6c-0.4,2.2-52.7-6.6-116.6-19.7c-64-13-115.5-25.4-115-27.5c0.4-2.2,52.7,6.6,116.6,19.7
					C435.2,522.1,486.7,534.4,486.3,536.6z"/>
				<path class="st0" d="M466.3,160.1c0,0-0.8,8.4-10.9,11.6c0,0-8.1-46.3-8.8-71.4C446.6,100.2,475.1,109.6,466.3,160.1z"/>
				<path class="st0" d="M442,50.6c0,0-20.7,4.5-9.8,54.3l5.7-1l8.6-3.6c0,0,10.9,15.6,21.4,35.2c0,0-5.2-67.9-12.9-76.4
					C455.1,59,446.4,48.6,442,50.6z"/>
				<path class="st0" d="M428.7,102.2"/>
				<path class="st0" d="M423.5,127.7l-0.8,59.5c0,0-25,8.1-39.4,45.9c0,0-32.8,89.4-43.7,144.4c0,0,24.5,28.7,48,37.7l21.9-75.7
					c0,0,7.5,63,21.5,89.1l44.3-2.4c0,0-11.5-207.7-22.5-270.6c0,0,8.3-6.1,10.4-11.2L451.8,108l-5.2-7.8l-8.6,0.5l-5.7,4.1
					C432.2,104.8,423.8,105.4,423.5,127.7z"/>
				<path class="st0" d="M431.2,189.3c0,0-25,11-32.5,31.9c0,0-19.2,41.4-42.6,173c0,0-11.3-11-16.3-16.7c0,0,7.7-46.3,42.3-140.5
					c0,0,7.8-31.5,39.4-49.7L431.2,189.3z"/>
				<path class="st24" d="M438.3,181l-4.3-0.8c0,0-2.4-1.2-6-1.3c0,0-3.5,0.7-5.2,1.2l-0.1,7.5l15.2,3.1
					C437.9,190.7,436.9,184.6,438.3,181z"/>
				<path class="st0" d="M426.6,271.7c0,0,1.9,73.2,25.9,155.8l-21.3,1.2c0,0-15-31.3-21.5-89.1L426.6,271.7z"/>
				<path class="st9" d="M440.4,53.7c0,0,6.3,16.6,6.3,56.2c0,0-0.6,20.5-4.1,20.3c-3.5-0.2-5.3-41.7-5.3-41.7s-10.1-1.8-5.6-17.8
					l-1.1-1.5C430.6,69.2,435.2,58.2,440.4,53.7z"/>
				<polygon class="st0" points="438.3,64.8 435.4,65.9 442.3,67.3 				"/>
				<path class="st0" d="M487.6,545.1l-9.6-11.7l0.2-2.9c0,0-17-61.2-25.3-103.1l22.6-1.2l7.3,104.2l5.2,13c0,0,0.5,0.9,0.2,1.5
					C488,545.5,487.6,545.1,487.6,545.1z"/>
				<path class="st0" d="M484.8,535.5c-2.9-0.7-5.3-2.7-6.7-5.4c0,0,0,0,0,0c0.1,0.3,0.1,0.5,0.1,0.5l-0.2,2.9l9.6,11.7
					c0,0,0.3,0.4,0.6-0.2c0.2-0.6-0.2-1.5-0.2-1.5L484.8,535.5z"/>
				<path class="st0" d="M373.2,513.6c0,0,5.7-67.8,14.5-98.3c0,0-12.3-5.8-25.4-15.8c0,0-1,69.4,6.2,114.4l-5.7,18.9
					c0,0-1,1.2,1,1.8c2,0.6,9.8-18.2,9.8-18.2L373.2,513.6z"/>
				<path class="st0" d="M373.2,513.8c-0.1,0-0.1,0.1-0.2,0.1c0,0.2-0.1,0.4-0.1,0.6c-0.7,3.3-3.4,5.6-6.3,5.7l-3.8,12.6
					c0,0-1,1.2,1,1.8c2,0.6,9.8-18.2,9.8-18.2L373.2,513.8z"/>
				<path class="st0" d="M426.6,271.7c0,0-13.1,54.3-17,67.8l0.4,3.4C410,342.9,425.7,290.6,426.6,271.7z"/>
				<path class="st24" d="M398.9,376.5c0,0-29.5-15.9-49.4-39.1l-3.7,13.7c0,0,33.8,30.8,49.3,38.5L398.9,376.5z"/>
				<path class="st24" d="M391.1,403.5c0,0-29.9-20.2-48.1-41.1l-3.3,15.2c0,0,25.2,29.8,48,37.7L391.1,403.5z"/>
				<path class="st24" d="M356.5,313.4c0,0,29.2,28.1,49,40.1l-2.9,10.1c0,0-32-19.8-49.4-39.1L356.5,313.4z"/>
				<path class="st24" d="M414.3,321.7c0,0-36.4-34.4-46.9-42.4l-7,21.5c0,0,29.7,26.7,49.5,37.1L414.3,321.7z"/>
				<path class="st24" d="M425.8,275.1c0,0-24.3-27.3-44.7-35.8c0,0-6.5,18.5-7.6,21.6c0,0,17.6,14,46.3,37.9L425.8,275.1z"/>
				<path class="st24" d="M445.2,174.8c0,0,4.7,0.6,4.4,11.6c-0.3,11-3.8,14.5-5.5,14.3c-1.7-0.2-7.2-4.7-6.5-15.6
					C438.3,174.2,445.2,174.8,445.2,174.8z"/>
				<path class="st24" d="M456.4,179.5c0,0-1.8,1.7-7,1.8c0,0,0.4,5.9,0.1,8.4c0,0,5.1-1,8-2.1L456.4,179.5z"/>
				<g>
					<path class="st0" d="M485.8,193.5c-1.1-18.5-10.6-15.3-10.6-15.3c-9.2,31.7-12.3,66.1,1.1,66.1
						C489.7,244.4,486.9,211.9,485.8,193.5z M469.8,220.6c0,0-0.3-13.1,3.4-27.9c0,0,6.6-5.4,8.4-9.8c0,0,4.3,5.9,3,39.4
						C484.6,222.4,475.4,222.3,469.8,220.6z"/>
				</g>
				<path class="st0" d="M451.8,108c0,0,27,37.8,30.7,71.9c0,0,1.1,7.6-23.4,23.9l-0.8-7.8c0,0,11.6-8.1,16.9-17.8
					c0,0-7.4-18-15.6-28.4c0,0,3.1-2.5,3.8-5.4L451.8,108z"/>
				<path class="st0" d="M432.2,104.8c0,0,6-2.9,0.5,42c0,0,16.9,5.6,30.6-2.4c0,0-3.3,6.3-10.4,11.2c0,0-11.6,4-19.7,2.3l0.8,22.2
					c0,0-5-2.7-11.1-0.2l0.7-52.2l3-0.8L432.2,104.8z"/>
				<path class="st9" d="M432.2,104.8c0,0-41.8,17.8-64.5,42.9c0,0-2.1,2.5,0.6,5.3c2.6,2.7,27.9,29,48.8,36.7c0,0,5.8-4,11.9-2.7
					c0,0,1.1,0.4,1.9-0.9l1.4-2.7c0,0,1.9-2.9-9.8-1.8c0,0,4.9-1.3,8.3-1.2c0,0,0.4-0.1,0.5-0.5c0.1-0.4-5.1-2.6-14.7,2.5
					c0,0-24.5-12.6-35.2-34.1c0,0,19.5-15.4,45-21.4c0,0-1.5,17.3,1.6,18.1C431.2,145.8,437.6,104.7,432.2,104.8z"/>
				<path class="st0" d="M457.3,187.7c0,0,4.5,39.9-21.9,77.7c0,0-2.1,3.1-3.6,1.8C430.4,265.9,454.8,237.5,457.3,187.7z"/>
				<path class="st24" d="M464.8,267.4c0,0-26.9,4.3-38.4,7l-2.8,16.3c0,0,35-7.9,42.3-8.3L464.8,267.4z"/>
				<path class="st24" d="M467.1,296.8c0,0-27.8,6.5-47.6,11.8l-4.4,16.7c0,0,40.8-8.3,53.3-11.8L467.1,296.8z"/>
				<path class="st24" d="M469.3,327.6c0,0-40.2,9.7-59.2,15.3l2,14c0,0,53.8-9.9,58.3-12.8L469.3,327.6z"/>
				<path class="st24" d="M471.4,358.9c0,0-30.8,9.2-56.2,15.6l2.8,13.4c0,0,43.9-7.4,54.4-13.3L471.4,358.9z"/>
				<path class="st24" d="M473.4,391.2c0,0-33.3,10.9-50.9,14.6c0,0,6,19,8.7,22.8l44.3-2.4L473.4,391.2z"/>
				<path class="st0" d="M482.4,181c0,0-2.3-3.1-7.2-2.9l-1.2,2c0,0,4.7-0.9,7.9,3.1l0.5-1.2L482.4,181z"/>
				<path class="st0" d="M469.8,220.6c0,0-1.3,13.9,6.5,14.3c7.8,0.5,8.3-12.6,8.3-12.6S477.2,222.4,469.8,220.6z"/>
			</g>
		</g>
		<path class="st18" d="M338.4,202.1c6.7,2.9,13.9,5.4,20.9,8.2c11.2-12,23.6-24.4,37.2-36.9c0,0,22-24.9,33.2-47
			c0,0-6.4-1.4-15,5.1l-29.3,22.9l0.4-1.5c-0.8,0.4-1.8,0.6-2.9,0.6c-4.4,0-6.5-3.4-6.5-6.8c-0.2-0.4-0.4-0.8-0.5-1.3
			c-1.2-4.1-1.7-8.3-2-12.6c-3.7,3.1-7.5,6.1-11.3,9c-3.1,9.4-5.8,19-7.9,28.5c0,0-12.3,8.8-30.8,24.7
			C328.7,197.6,333.5,199.9,338.4,202.1z"/>
		<path class="st18" d="M386.1,131.9c0,0-3.6,11.3,0,15.8c3.6,4.4,11.7-1.3,11.7-1.3l-11.6,22.2l-15.7-7.5L374,135l10.9-9.6
			L386.1,131.9z"/>
		<path class="st18" d="M396.8,79.2l-13.6,65.3c0,0-0.5,6.2,6.8,5c0,0,8.9,4.9,8.3,5.1c-0.6,0.2-28.2,6.7-28.2,6.7l-3.7-17l9-31.6
			L396.8,79.2z"/>
		<path class="st18" d="M388.8,58.1c0,0-11.1,25.6-16.6,53.6l-4.1,14L390.8,75c0,0,5.5-17.5-0.4-20.5L388.8,58.1z"/>
	</g>
	<path class="st15" d="M392.1,378.9c0,0-9,43.7-31.2,60l-8.8-6c0,0,2,8.8,2.5,13.3c0,0-20.8,23-48.2,31l19.5-73
		c0,0,3.9-14.6,10.1-16C336,388.2,378.6,378.5,392.1,378.9z"/>
	<path class="st6" d="M182,564.2c0,0,53.3-68.7,59.3-79.3c6-10.7,134.7-184.7,148.7-210c0,0,17.3-30,45.3,0
		c0,0,75.5,65.6,110.1,120.5c0,0-53.5-24.1-142.8-17.5c0,0-4-23-8.6-37.6c0,0-10,89.3-153.3,171.3c0,0-3.6,2.3-4.4,7
		C236.3,518.5,238.5,536.2,182,564.2z"/>
	<path class="st0" d="M520.6,180.7c0,15-12.1,27.1-27.1,27.1c-15,0-27.1-12.1-27.1-27.1c0-15,12.1-27.1,27.1-27.1
		C508.4,153.7,520.6,165.8,520.6,180.7z"/>
	<path class="st15" d="M394,340.2l0.7-5c0,0,16,30.6,28.5,41.3c0,0-10,0.4-20.6,1.4C402.7,377.9,398.5,353.4,394,340.2z"/>
	<g class="st8">
		<path class="st9" d="M242.4,235.1c0,5.5-4.5,10-10,10H122c-5.5,0-10-4.5-10-10V124.8c0-5.5,4.5-10,10-10h110.3c5.5,0,10,4.5,10,10
			V235.1z"/>
	</g>
	<path class="st7" d="M132,228.2l19.4-18h58.3c0,0,12.3-0.5,12.3-13v-44.5c0,0,1.3-9.5-14.9-9.5h-59.2c0,0-15.9-2.7-15.9,14.4V228.2
		z"/>
	<g>
		<path class="st9" d="M785.6,295c0-5.5,3.9-7.8,8.7-5.1l23.4,13.1c4.8,2.7,4.8,7.1,0,9.8l-23.4,13.1c-4.8,2.7-8.7,0.4-8.7-5.1V295z
			"/>
	</g>
</g>
</svg>
