<svg xmlns="http://www.w3.org/2000/svg" width="35" height="24" viewBox="0 0 35 24">
    <g fill="none" fill-rule="nonzero">
        <path fill="#44423E" d="M35 21.917a2.06 2.06 0 0 1-2.069 2.052H2.07A2.06 2.06 0 0 1 0 21.917V2.083A2.06 2.06 0 0 1 2.069.03H32.93A2.06 2.06 0 0 1 35 2.083v19.834z"/>
        <ellipse cx="23.555" cy="12.029" fill="#E7E8E3" rx="8.37" ry="8.301"/>
        <path fill="#202121" d="M1.47 21.917V2.083A2.06 2.06 0 0 1 3.54.03H2.069A2.06 2.06 0 0 0 0 2.083v19.834a2.06 2.06 0 0 0 2.069 2.052H3.54a2.06 2.06 0 0 1-2.07-2.052z" opacity=".15"/>
        <path fill="#F7931A" d="M23.448 17.766l.415-1.65c1.702.3 2.987.187 3.517-1.35.453-1.238 0-1.95-.908-2.4.68-.15 1.172-.6 1.286-1.462.189-1.2-.756-1.838-2.08-2.25l.416-1.613-.983-.262-.378 1.575c-.265-.075-.53-.113-.794-.188l.416-1.575-.983-.262-.416 1.612c-.227-.037-.454-.112-.643-.15l-1.36-.337-.266 1.05.719.187c.378.075.453.338.453.562l-.453 1.838c.038 0 .076 0 .113.037-.037 0-.075-.037-.113-.037l-.643 2.587a.361.361 0 0 1-.454.225l-.718-.187-.492 1.125 1.286.337c.265.075.491.113.718.188l-.416 1.65.983.262.416-1.612c.265.037.53.112.794.187l-.415 1.612.983.3zm.264-8.437c.567.15 2.344.412 2.08 1.574-.265 1.125-2.004.563-2.571.413l.491-1.987zm-1.285 5.137l.529-2.175c.68.187 2.836.487 2.533 1.762-.302 1.238-2.382.563-3.062.413z"/>
        <g fill="#E7E8E3">
            <path d="M11.685 5.05H3.692a.568.568 0 0 1-.57-.567c0-.312.255-.566.57-.566h7.993c.315 0 .571.254.571.566a.568.568 0 0 1-.57.566zM11.685 7.54H3.692a.568.568 0 0 1-.57-.566c0-.313.255-.566.57-.566h7.993c.315 0 .571.253.571.566a.568.568 0 0 1-.57.566z"/>
        </g>
    </g>
</svg>
