<svg xmlns="http://www.w3.org/2000/svg" width="35" height="24" viewBox="0 0 35 24">
    <g fill="none" fill-rule="nonzero">
        <path fill="#92DBEF" d="M35 21.917a2.06 2.06 0 0 1-2.069 2.052H2.07A2.06 2.06 0 0 1 0 21.917V2.083A2.06 2.06 0 0 1 2.069.03H32.93A2.06 2.06 0 0 1 35 2.083v19.834z"/>
        <path fill="#202121" d="M1.47 21.917V2.083A2.06 2.06 0 0 1 3.54.03H2.069A2.06 2.06 0 0 0 0 2.083v19.834a2.06 2.06 0 0 0 2.069 2.052H3.54a2.06 2.06 0 0 1-2.07-2.052z" opacity=".15"/>
        <path fill="#263B80" d="M22.725 4.71c-.767-.87-2.191-1.304-4.163-1.304h-5.479c-.329 0-.657.326-.767.652l-2.191 14.235c0 .326.219.543.438.543h3.396l.877-5.324v.217c.11-.326.438-.652.767-.652h1.644c3.177 0 5.587-1.304 6.354-4.89V7.86c-.11 0-.11 0 0 0 .11-1.412-.11-2.282-.876-3.151"/>
        <path fill="#232C65" d="M23.601 8.187V7.86l.002-.032a3.108 3.108 0 0 0-.517-.288c-.665-.273-1.345-.324-1.66-.332l-.001-.002h-1.598l.002.002h-3.352c-.57.02-.727.476-.768.674l-.873 5.629V13.729c.11-.326.438-.652.767-.652h1.644c3.177 0 5.587-1.304 6.354-4.89z"/>
        <path fill="#139AD6" d="M24.677 9.208a2.846 2.846 0 0 0-1.074-1.379l-.002.032v.326c-.767 3.586-3.177 4.89-6.354 4.89h-1.644c-.329 0-.657.326-.767.652v-.084a.926.926 0 0 0-.034.084l-.619 3.746-.224 1.361-.252 1.521c0 .218.11.435.438.435h2.731c.55 0 .722-.424.775-.653l.024-.142.524-3.226s.068-.76.817-.76h.279c2.74 0 4.93-1.087 5.478-4.347.153-.908.145-1.764-.096-2.456z"/>
    </g>
</svg>
