<svg xmlns="http://www.w3.org/2000/svg" width="35" height="24" viewBox="0 0 35 24">
    <g fill="none" fill-rule="nonzero">
        <path fill="#FFF" d="M35 21.917a2.06 2.06 0 0 1-2.069 2.052H2.07A2.06 2.06 0 0 1 0 21.917V2.083A2.06 2.06 0 0 1 2.069.03H32.93A2.06 2.06 0 0 1 35 2.083v19.834z"/>
        <path fill="#F79F1A" d="M7.768 12.138l-.821-3.91c-.14-.54-.55-.7-1.06-.72H2.118l-.034.178c2.935.705 4.876 2.408 5.683 4.452z"/>
        <g fill="#059BBF">
            <path d="M16.499 7.586h-2.435l-1.52 8.85h2.43zM9.252 16.426l3.829-8.834h-2.577l-2.381 6.036-.255-.912c-.467-1.096-1.801-2.674-3.367-3.667l2.177 7.38 2.574-.003zM23.443 13.542c.009-1.004-.642-1.77-2.044-2.404-.851-.408-1.37-.681-1.364-1.096 0-.366.44-.76 1.392-.76a4.522 4.522 0 0 1 1.82.34l.22.1.33-1.918a6.352 6.352 0 0 0-2.18-.37c-2.404 0-4.095 1.2-4.11 2.92-.016 1.272 1.209 1.98 2.13 2.405.947.432 1.265.708 1.259 1.096-.006.593-.754.863-1.454.863-.974 0-1.49-.133-2.29-.464l-.311-.141-.342 1.983c.568.246 1.618.46 2.708.47 2.556 0 4.217-1.185 4.236-3.024zM26.334 15.109l3.115.003c.073.308.296 1.326.296 1.326h2.257l-1.97-8.843h-1.878c-.583 0-1.016.158-1.273.733l-3.612 8.11h2.556s.415-1.09.51-1.33zm1.668-4.286c-.013.025.201-.511.323-.845l.165.764.562 2.556h-2.018c.201-.509.968-2.475.968-2.475zM32.931.03H2.07A2.06 2.06 0 0 0 0 2.084v2.13h35v-2.13A2.06 2.06 0 0 0 32.931.03z"/>
        </g>
        <path fill="#F79F1A" d="M32.931 23.97H2.07A2.06 2.06 0 0 1 0 21.916v-2.13h35v2.13a2.06 2.06 0 0 1-2.069 2.052z"/>
        <path fill="#202121" d="M1.47 21.917V2.083A2.06 2.06 0 0 1 3.54.03H2.069A2.06 2.06 0 0 0 0 2.083v19.834a2.06 2.06 0 0 0 2.069 2.052H3.54a2.06 2.06 0 0 1-2.07-2.052z" opacity=".15"/>
    </g>
</svg>
