<svg xmlns="http://www.w3.org/2000/svg" width="18" height="18" viewBox="0 0 18 18">
    <g fill="#7A7C83" fill-rule="nonzero">
        <path d="M13.703 3.982h3.845c.268 0 .483-.22.483-.496a.488.488 0 0 0-.483-.497h-3.845C13.478 1.838 12.486.966 11.298.966c-1.189 0-2.18.872-2.406 2.023H1.325a.488.488 0 0 0-.483.497c0 .276.215.496.483.496h7.57c.226 1.152 1.218 2.024 2.406 2.024 1.189 0 2.177-.872 2.402-2.024zm-3.89-.496c0-.843.665-1.527 1.485-1.527.82 0 1.485.684 1.485 1.527 0 .842-.666 1.526-1.485 1.526-.82 0-1.486-.688-1.486-1.526zM13.705 15.723h3.844c.269 0 .484-.22.484-.496a.488.488 0 0 0-.484-.497h-3.844c-.226-1.152-1.217-2.023-2.405-2.023-1.189 0-2.18.871-2.406 2.023h-7.57a.488.488 0 0 0-.484.497c0 .276.215.496.483.496h7.575c.225 1.152 1.217 2.024 2.405 2.024 1.189 0 2.176-.869 2.402-2.024zm-3.89-.496c0-.843.665-1.527 1.485-1.527.82 0 1.485.684 1.485 1.527 0 .842-.666 1.526-1.485 1.526-.82 0-1.486-.684-1.486-1.526zM9.651 9.46h7.897c.268 0 .483-.22.483-.496a.488.488 0 0 0-.483-.497H9.65c-.225-1.151-1.217-2.023-2.405-2.023-1.189 0-2.18.872-2.406 2.023H1.325a.488.488 0 0 0-.483.497c0 .276.215.497.483.497H4.84c.226 1.151 1.217 2.023 2.406 2.023 1.185 0 2.18-.868 2.405-2.023zm-3.89-.496c0-.843.665-1.527 1.485-1.527.82 0 1.485.684 1.485 1.527 0 .842-.666 1.527-1.485 1.527-.82 0-1.486-.685-1.486-1.527z"/>
    </g>
</svg>
