<svg xmlns="http://www.w3.org/2000/svg" width="16" height="16" viewBox="0 0 16 16">
    <g fill="none" fill-rule="nonzero">
        <path fill="#7A7C83" d="M16 8A8 8 0 1 0 0 8a8 8 0 0 0 16 0z"/>
        <path fill="#FFF" d="M9.45 8l2.376-2.796a.735.735 0 0 0-.076-1.027.713.713 0 0 0-1.014.076L8.5 6.883l-2.236-2.63a.713.713 0 0 0-1.014-.076.735.735 0 0 0-.076 1.027L7.551 8l-2.377 2.796a.735.735 0 0 0 .076 1.027.71.71 0 0 0 1.014-.076L8.5 9.117l2.236 2.63a.713.713 0 0 0 1.014.076.735.735 0 0 0 .076-1.027L9.449 8z"/>
    </g>
</svg>
