<svg xmlns="http://www.w3.org/2000/svg" width="16" height="16" viewBox="0 0 16 16">
    <g fill="none" fill-rule="evenodd">
        <path fill="#7A7C83" d="M15.238.736a2.675 2.675 0 0 0-3.686 0L1.108 10.83c-.005.005-.008.01-.012.016l-.017.021a.27.27 0 0 0-.036.067l-.008.021-.004.008L.008 15.12a.269.269 0 0 0-.007.056L0 15.187a.27.27 0 0 0 .028.113c.014.03.031.059.056.083a.292.292 0 0 0 .272.074l4.3-.99c.008 0 .015-.005.023-.008a.273.273 0 0 0 .087-.045l.02-.015c.003-.002.006-.003.008-.006L15.238 4.3a2.463 2.463 0 0 0 0-3.563zm-.41.396c.72.697.782 1.79.189 2.558L12.182.95a2.082 2.082 0 0 1 2.646.182zM13.395 5.29l-2.867-2.771.41-.396 2.866 2.77-.41.397zM1.437 14.076a.296.296 0 0 0-.41 0l-.219.212.74-3.003 1.28-.138-.165 1.434.003.03c0 .011-.004.02-.003.032.002.009.006.016.009.025a.277.277 0 0 0 .216.212c.01.003.02.009.031.01l.032.002c.011 0 .022 0 .032-.002l1.484-.16-.142 1.238-3.108.715.22-.212a.274.274 0 0 0 0-.395zm3.634-1.534l6.48-6.264a.273.273 0 0 0 0-.396.296.296 0 0 0-.409 0l-6.48 6.264-1.383.149.154-1.336 6.481-6.264a.273.273 0 0 0 0-.396.296.296 0 0 0-.41 0l-6.48 6.264-.922.099 8.016-7.749 2.867 2.771-8.016 7.749.102-.89z"/>
        <text fill="#282A36" font-family="SFUIDisplay-Medium, SF UI Display" font-size="24" font-weight="400" transform="translate(-311 -175)">
            <tspan x="112.297" y="205">Virginia Freeman</tspan>
        </text>
    </g>
</svg>
