<svg xmlns="http://www.w3.org/2000/svg" width="44" height="44" viewBox="0 0 44 44">
    <g fill="#808792" fill-rule="evenodd">
        <path d="M22 0C9.87 0 0 9.869 0 22s9.87 22 22 22 22-9.869 22-22S34.13 0 22 0zm0 42.308c-11.197 0-20.308-9.11-20.308-20.308 0-11.197 9.11-20.308 20.308-20.308 11.197 0 20.308 9.11 20.308 20.308 0 11.197-9.11 20.308-20.308 20.308z"/>
        <path stroke="#979797" stroke-width=".5" d="M30.333 21h-7.666v-7.333a.666.666 0 1 0-1.334 0V21h-7.666a.666.666 0 1 0 0 1.333h7.666v8a.666.666 0 1 0 1.334 0v-8h7.666a.666.666 0 1 0 0-1.333z"/>
    </g>
</svg>
