<svg xmlns="http://www.w3.org/2000/svg" width="13" height="13" viewBox="0 0 13 13">
    <g fill="none" fill-rule="evenodd" transform="translate(-8 -10)">
        <path fill="#0C111D" d="M0 0h30v31.765H0z" opacity=".1"/>
        <circle cx="15" cy="16" r="12" fill="#FFF" opacity=".7"/>
        <path fill="#585353" d="M20.2 10.294a.25.25 0 0 0-.186-.052l-7.294.878a.225.225 0 0 0-.205.217v7.8c-.43-.482-1.112-.794-1.882-.794-1.297 0-2.353.884-2.353 1.97 0 1.087 1.056 1.972 2.353 1.972 1.297 0 2.353-.885 2.353-1.971 0-.051-.005-.101-.01-.15.004-.015.01-.028.01-.043V13.77l6.823-.822v3.998c-.43-.48-1.112-.793-1.882-.793-1.297 0-2.353.884-2.353 1.97 0 1.088 1.056 1.972 2.353 1.972 1.286 0 2.333-.869 2.351-1.942l.002-.008v-7.686a.212.212 0 0 0-.08-.165z" opacity=".8"/>
    </g>
</svg>
