<svg xmlns="http://www.w3.org/2000/svg" width="325" height="211" viewBox="0 0 325 211">
    <g fill="none" fill-rule="evenodd">
        <path fill="#EAEDF0" fill-rule="nonzero" d="M149.5 8C205.556 8 251 53.443 251 109.5S205.557 211 149.5 211 48 165.557 48 109.5 93.443 8 149.5 8z"/>
        <path fill="#EAEDF0" d="M80.633 129.021c-9.042-1.361-14.418-1.361-16.127 0h-3.47c-5.009 0-2.511 9.632 2.532 9.632h2.52c4.59 0-2.46 9.303-7.11 9.303H34.104c-4.684 0-5.698 10.369 0 10.369 4.249 0 12.048.646 22.19.646h7.274c4.471 0 4.553 9.38 0 9.38H50.417c-4.358 0-4.24 7.649 0 7.649h48.295l12.305-15.397" opacity=".615"/>
        <path stroke="#EAEDF0" stroke-linecap="round" stroke-width="2" d="M54.317 30.852H42.459c-.375-4.434-3.259-6.242-8.652-5.425C28.49 17.234 15.837 17.76 14 30.852M22.504 31.01L5 30.99"/>
        <path fill="#EAEDF0" d="M231.216 53c-7.444 3.303-2.873 4.954 13.715 4.954h9.414c4.564 0 4.576 8.601-.02 8.601h-4.355c-4.184 0-3.485 8.278.754 8.278 5.059 0 32.451.577 36.72.577 4.268 0 5.193 9.26 0 9.26h-20.991c-4.075 0-4.15 9.5 0 9.5h8.78c3.972 0 3.865 6.83 0 6.83h-44.017L220 87.25"/>
        <path stroke="#E1E2E8" stroke-linecap="round" stroke-width="2" d="M258 164.852h11.857c.376-4.434 3.26-6.242 8.652-5.425 5.319-8.193 17.97-7.668 19.808 5.425M289 165.01l17.504-.02"/>
        <path fill="#FFF" d="M30.543 139.021c9.042-1.361 14.417-1.361 16.127 0h3.47c5.008 0 2.51 9.632-2.532 9.632H34.036c-4.59 0-4.65 9.95 0 9.95h52.08c4.683 0 5.697 10.368 0 10.368H47.607c-4.471 0-4.554 9.38 0 9.38h13.151c4.358 0 4.24 7.649 0 7.649H12.464L.158 170.603M294.616 64.021c-9.042-1.361-14.418-1.361-16.128 0h-3.47c-5.008 0-2.51 9.632 2.533 9.632h13.571c4.59 0 4.651 9.95 0 9.95h-52.079c-4.683 0-5.698 10.368 0 10.368H277.551c4.47 0 4.553 9.38 0 9.38h-13.152c-4.357 0-4.24 7.649 0 7.649h48.295L325 95.603" opacity=".615"/>
        <rect width="16" height="9" x="3" y="149" fill="#EAEDF0" rx="4"/>
        <rect width="16" height="9" x="299" y="75" fill="#EAEDF0" rx="4"/>
        <g fill-rule="nonzero" transform="translate(16)">
            <path fill="#B3B4BA" d="M21.82 117.173a3.991 3.991 0 0 0-5.653 0 4.008 4.008 0 0 0 0 5.654A3.974 3.974 0 0 0 18.993 124a3.974 3.974 0 0 0 2.827-1.173 3.991 3.991 0 0 0 0-5.654zm-1.88 3.763a1.323 1.323 0 0 1-1.888.005 1.349 1.349 0 0 1 0-1.882 1.325 1.325 0 0 1 1.877-.006c.543.54.514 1.383.01 1.883z" opacity=".615"/>
            <circle cx="236.163" cy="192.163" r="3.163" stroke="#EB131D"/>
            <path fill="#B3B4BA" d="M57.984 6.732a2.996 2.996 0 0 0-4.243 0 3.008 3.008 0 0 0 0 4.244c.567.567 1.321.88 2.122.88.8 0 1.554-.313 2.121-.88a2.996 2.996 0 0 0 0-4.244zm-1.411 2.824a.992.992 0 0 1-1.417.005 1.013 1.013 0 0 1 0-1.414.994.994 0 0 1 1.41-.004.994.994 0 0 1 .007 1.413z"/>
            <path fill="#FFC033" d="M258.525 6.449a2.068 2.068 0 0 1-2.068-2.069V2.312a2.068 2.068 0 1 1 4.137 0V4.38a2.068 2.068 0 0 1-2.069 2.069z"/>
            <path fill="#F9A926" d="M258.525 16.79a2.068 2.068 0 0 1-2.068-2.068v-2.068a2.068 2.068 0 1 1 4.137 0v2.068a2.068 2.068 0 0 1-2.069 2.068z"/>
            <path fill="#FFC033" d="M254.389 10.585h-2.069a2.068 2.068 0 1 1 0-4.136h2.069a2.068 2.068 0 1 1 0 4.136z"/>
            <path fill="#F9A926" d="M264.73 10.585h-2.068a2.068 2.068 0 1 1 0-4.136h2.068a2.068 2.068 0 0 1 0 4.136z"/>
            <g>
                <path fill="#EB131D" d="M8.525 76.449a2.068 2.068 0 0 1-2.068-2.069v-2.068a2.068 2.068 0 1 1 4.137 0v2.068a2.068 2.068 0 0 1-2.069 2.069z"/>
                <path fill="#D2050E" d="M8.525 86.79a2.068 2.068 0 0 1-2.068-2.068v-2.068a2.068 2.068 0 1 1 4.137 0v2.068a2.068 2.068 0 0 1-2.069 2.068z"/>
                <path fill="#EB131D" d="M4.389 80.585H2.32a2.068 2.068 0 1 1 0-4.136H4.39a2.068 2.068 0 1 1 0 4.136z"/>
                <path fill="#DF0E18" d="M14.73 80.585h-2.068a2.068 2.068 0 1 1 0-4.136h2.068a2.068 2.068 0 0 1 0 4.136z"/>
            </g>
        </g>
        <g fill-rule="nonzero">
            <path fill="#FDFCFD" d="M199.533 41.157H91.823v107.804l26.523 26.424h81.187z"/>
            <path fill="#DEDEDF" d="M118.346 148.961H91.823l26.523 26.424z"/>
            <path fill="#B3B4BA" d="M235.893 114.102V102.44l-10.833-1.49c-.498-1.86-1.245-3.72-2.241-5.333l6.6-8.684-8.343-8.312-8.717 6.575c-1.743-.993-3.486-1.737-5.354-2.233l-1.494-10.793h-11.706l-1.494 10.793c-1.868.496-3.736 1.24-5.354 2.233l-8.717-6.575-8.343 8.312 6.6 8.684c-.996 1.736-1.743 3.473-2.241 5.334l-10.834 1.489v11.66l10.834 1.49c.498 1.86 1.245 3.721 2.24 5.334l-6.599 8.684 8.343 8.312 8.717-6.575c1.743.992 3.486 1.736 5.354 2.232l1.494 10.793h11.705l1.495-10.793c1.867-.496 3.735-1.24 5.354-2.232l8.716 6.575 8.343-8.312-6.6-8.684c.997-1.737 1.744-3.474 2.242-5.334l10.833-1.49zm-37.185 10.392c-8.854 0-16-7.146-16-16 0-8.855 7.145-16 16-16 8.854 0 16 7.145 16 16-.156 8.854-7.146 16-16 16z"/>
            <path fill="#F0582F" d="M109.38 56.168h72.595v15.879H109.38z"/>
            <path fill="#CECFD2" d="M109.38 80.855h27.395v32.751H109.38z"/>
            <g fill="#DEDEDF">
                <path d="M109.38 125.638h47.07v5.334h-47.07zM109.38 138.044h47.07v5.334h-47.07z"/>
            </g>
        </g>
    </g>
</svg>
