<svg xmlns="http://www.w3.org/2000/svg" width="325" height="211" viewBox="0 0 325 211">
    <g fill="none" fill-rule="evenodd">
        <path fill="#FFF5D5" fill-rule="nonzero" d="M149.5 8C205.556 8 251 53.443 251 109.5S205.557 211 149.5 211 48 165.557 48 109.5 93.443 8 149.5 8z"/>
        <path fill="#FFF5D5" d="M80.633 129.021c-9.042-1.361-14.418-1.361-16.127 0h-3.47c-5.009 0-2.511 9.632 2.532 9.632h2.52c4.59 0-2.46 9.303-7.11 9.303H34.104c-4.684 0-5.698 10.369 0 10.369 4.249 0 12.048.646 22.19.646h7.274c4.471 0 4.553 9.38 0 9.38H50.417c-4.358 0-4.24 7.649 0 7.649h48.295l12.305-15.397" opacity=".615"/>
        <path stroke="#EAEDF0" stroke-linecap="round" stroke-width="2" d="M54.317 30.852H42.459c-.375-4.434-3.259-6.242-8.652-5.425C28.49 17.234 15.837 17.76 14 30.852M22.504 31.01L5 30.99"/>
        <path fill="#FFF5D5" d="M231.216 53c-7.444 3.303-2.873 4.954 13.715 4.954h9.414c4.564 0 4.576 8.601-.02 8.601h-4.355c-4.184 0-3.485 8.278.754 8.278 5.059 0 32.451.577 36.72.577 4.268 0 5.193 9.26 0 9.26h-20.991c-4.075 0-4.15 9.5 0 9.5h8.78c3.972 0 3.865 6.83 0 6.83h-44.017L220 87.25"/>
        <path stroke="#E1E2E8" stroke-linecap="round" stroke-width="2" d="M258 164.852h11.857c.376-4.434 3.26-6.242 8.652-5.425 5.319-8.193 17.97-7.668 19.808 5.425M289 165.01l17.504-.02"/>
        <path fill="#FFF" d="M30.543 139.021c9.042-1.361 14.417-1.361 16.127 0h3.47c5.008 0 2.51 9.632-2.532 9.632H34.036c-4.59 0-4.65 9.95 0 9.95h52.08c4.683 0 5.697 10.368 0 10.368H47.607c-4.471 0-4.554 9.38 0 9.38h13.151c4.358 0 4.24 7.649 0 7.649H12.464L.158 170.603M294.616 64.021c-9.042-1.361-14.418-1.361-16.128 0h-3.47c-5.008 0-2.51 9.632 2.533 9.632h13.571c4.59 0 4.651 9.95 0 9.95h-52.079c-4.683 0-5.698 10.368 0 10.368H277.551c4.47 0 4.553 9.38 0 9.38h-13.152c-4.357 0-4.24 7.649 0 7.649h48.295L325 95.603" opacity=".615"/>
        <rect width="16" height="9" x="3" y="149" fill="#FFF5D5" rx="4"/>
        <rect width="16" height="9" x="299" y="75" fill="#FFF5D5" rx="4"/>
        <g fill-rule="nonzero" transform="translate(16)">
            <path fill="#FFC033" d="M21.82 117.173a3.991 3.991 0 0 0-5.653 0 4.008 4.008 0 0 0 0 5.654A3.974 3.974 0 0 0 18.993 124a3.974 3.974 0 0 0 2.827-1.173 3.991 3.991 0 0 0 0-5.654zm-1.88 3.763a1.323 1.323 0 0 1-1.888.005 1.349 1.349 0 0 1 0-1.882 1.325 1.325 0 0 1 1.877-.006c.543.54.514 1.383.01 1.883z" opacity=".615"/>
            <circle cx="236.163" cy="192.163" r="3.163" stroke="#EB131D"/>
            <path fill="#F9A926" d="M57.984 6.732a2.996 2.996 0 0 0-4.243 0 3.008 3.008 0 0 0 0 4.244c.567.567 1.321.88 2.122.88.8 0 1.554-.313 2.121-.88a2.996 2.996 0 0 0 0-4.244zm-1.411 2.824a.992.992 0 0 1-1.417.005 1.013 1.013 0 0 1 0-1.414.994.994 0 0 1 1.41-.004.994.994 0 0 1 .007 1.413z"/>
            <path fill="#FFC033" d="M258.525 6.449a2.068 2.068 0 0 1-2.068-2.069V2.312a2.068 2.068 0 1 1 4.137 0V4.38a2.068 2.068 0 0 1-2.069 2.069z"/>
            <path fill="#F9A926" d="M258.525 16.79a2.068 2.068 0 0 1-2.068-2.068v-2.068a2.068 2.068 0 1 1 4.137 0v2.068a2.068 2.068 0 0 1-2.069 2.068z"/>
            <path fill="#FFC033" d="M254.389 10.585h-2.069a2.068 2.068 0 1 1 0-4.136h2.069a2.068 2.068 0 1 1 0 4.136z"/>
            <path fill="#F9A926" d="M264.73 10.585h-2.068a2.068 2.068 0 1 1 0-4.136h2.068a2.068 2.068 0 0 1 0 4.136z"/>
            <g>
                <path fill="#EB131D" d="M8.525 76.449a2.068 2.068 0 0 1-2.068-2.069v-2.068a2.068 2.068 0 1 1 4.137 0v2.068a2.068 2.068 0 0 1-2.069 2.069z"/>
                <path fill="#D2050E" d="M8.525 86.79a2.068 2.068 0 0 1-2.068-2.068v-2.068a2.068 2.068 0 1 1 4.137 0v2.068a2.068 2.068 0 0 1-2.069 2.068z"/>
                <path fill="#EB131D" d="M4.389 80.585H2.32a2.068 2.068 0 1 1 0-4.136H4.39a2.068 2.068 0 1 1 0 4.136z"/>
                <path fill="#DF0E18" d="M14.73 80.585h-2.068a2.068 2.068 0 1 1 0-4.136h2.068a2.068 2.068 0 0 1 0 4.136z"/>
            </g>
        </g>
        <g fill-rule="nonzero" transform="translate(68.5 32)">
            <path fill="#646B79" d="M161.339 6.092c0-3.042-2.49-5.393-5.394-5.393H5.764C2.721.7.371 3.19.371 6.092v91.41h161.106V6.091h-.138z"/>
            <path fill="#F1F3F7" d="M.37 97.501v16.733c0 3.043 2.49 5.393 5.394 5.393h150.32c3.042 0 5.393-2.489 5.393-5.393V97.501H.37z"/>
            <path fill="#FCFCFD" d="M8.253 8.582h145.203v88.92H8.253z"/>
            <circle cx="80.855" cy="108.703" r="4.563" fill="#E1E2E8"/>
            <path fill="#DEDEDF" d="M57.484 119.766h46.603v20.467H57.484z"/>
            <path fill="#F1F3F7" d="M47.527 140.232h66.793v9.127H47.527z"/>
            <path fill="#DFE4E9" d="M29.273 18.4h15.35v15.35h-15.35z"/>
            <g fill="#F1F3F7">
                <path d="M53.612 18.4h78.825v4.978H53.612zM53.612 28.771h50.89v4.98h-50.89z"/>
            </g>
            <path fill="#DFE4E9" d="M29.273 45.367h15.35v15.35h-15.35z"/>
            <g fill="#F1F3F7">
                <path d="M53.612 45.366h78.825v4.98H53.612zM53.612 55.738h50.89v4.98h-50.89z"/>
            </g>
            <path fill="#DFE4E9" d="M29.273 72.333h15.35v15.35h-15.35z"/>
            <g fill="#F1F3F7">
                <path d="M53.612 72.333h78.825v4.979H53.612zM53.612 82.704h50.89v4.979h-50.89z"/>
            </g>
        </g>
        <g fill-rule="nonzero" transform="translate(178 115)">
            <path fill="#40596B" d="M37.134 0H3.183C1.326 0 0 1.29 0 3.095v58.81C0 63.71 1.326 65 3.183 65h33.95c1.857 0 3.184-1.29 3.184-3.095V3.095C40.317 1.29 38.99 0 37.134 0z"/>
            <path fill="#FFF" d="M3.475 6.211h33.42v49.782H3.475z"/>
            <ellipse cx="20.158" cy="60.357" fill="#ACB3BA" rx="2.652" ry="2.579"/>
            <path fill="#ACB3BA" d="M24.667 2.321H15.65c-.53 0-.796.258-.796.774s.266.774.796.774h9.018c.531 0 .796-.258.796-.774s-.265-.774-.796-.774z"/>
            <path fill="#E1E2E8" d="M6.101 12.059h28.115v16.802H6.101z"/>
            <path fill="#FF7058" d="M6.101 31.504h28.115v5.159H6.101z"/>
            <path fill="#CDD6E0" d="M6 39h28.115v5.933H6zM6.101 47.202h28.115v5.933H6.101z"/>
        </g>
    </g>
</svg>
