<!-- Generated by IcoMoon.io -->
<svg version="1.1" xmlns="http://www.w3.org/2000/svg" width="1024" height="1024" viewBox="0 0 1024 1024">
<title></title>
<g id="icomoon-ignore">
</g>
<path fill="#000" d="M981.163 366.933h-59.563v-106.974c0-25.719-20.924-46.626-46.626-46.626h-422.451l-85.333-119.467h-320.563c-25.702 0-46.626 20.924-46.626 46.626v745.591h0.102c-0.085 9.609 2.901 19.012 8.909 26.88 8.363 10.923 21.026 17.169 34.765 17.169h763.887c19.729 0 37.103-13.295 41.813-30.942l174.524-478.515v-3.021c0-29.389-18.022-50.722-42.837-50.722zM34.133 140.493c0-6.895 5.615-12.493 12.493-12.493h302.985l85.333 119.467h440.013c6.895 0 12.493 5.598 12.493 12.493v106.974h-670.174c-2.458 0-4.898 0.205-7.27 0.614-16.606 2.782-30.413 14.899-34.526 30.31l-141.346 385.485v-642.85zM816.964 888.883c-1.126 4.181-4.966 7.117-9.301 7.117h-763.887c-4.147 0-6.571-2.372-7.646-3.789-1.075-1.399-2.731-4.369-2.099-6.963l173.926-477.065c1.126-4.181 4.966-7.117 9.301-7.117h763.904c6.485 0 8.141 9.318 8.567 13.978l-172.766 473.839z"></path>
</svg>
