<svg xmlns="http://www.w3.org/2000/svg" width="19" height="19" viewBox="0 0 19 19">
    <g fill="none" fill-rule="evenodd">
        <path fill="#0063da" fill-rule="nonzero" d="M18.343 9.801a.62.62 0 0 1-.004-.738l.338-.47c.266-.37.36-.837.254-1.28-.107-.443-.401-.82-.81-1.034l-.516-.272a.628.628 0 0 1-.333-.661l.1-.568a1.575 1.575 0 0 0-.338-1.26 1.634 1.634 0 0 0-1.187-.587l-.587-.023a.639.639 0 0 1-.591-.455l-.17-.548A1.62 1.62 0 0 0 12.942.762c-.219 0-.437.043-.64.128l-.54.226a.662.662 0 0 1-.733-.16L10.637.53a1.637 1.637 0 0 0-2.425.015l-.38.436a.665.665 0 0 1-.735.17L6.554.934a1.68 1.68 0 0 0-.616-.12c-.726 0-1.369.478-1.56 1.166l-.154.556a.642.642 0 0 1-.587.463l-.584.035a1.62 1.62 0 0 0-1.178.602c-.286.358-.4.82-.318 1.264l.108.563a.628.628 0 0 1-.322.67l-.512.28a1.593 1.593 0 0 0-.793 1.045c-.1.443 0 .91.273 1.275l.346.463a.62.62 0 0 1 .004.738l-.338.47c-.266.37-.36.837-.254 1.28.107.443.401.82.81 1.034l.516.272a.628.628 0 0 1 .333.661l-.1.568c-.075.447.048.906.338 1.26.294.353.726.567 1.187.587l.587.023a.639.639 0 0 1 .591.455l.163.552a1.62 1.62 0 0 0 1.556 1.143c.218 0 .436-.043.638-.128l.54-.226a.662.662 0 0 1 .734.16l.393.427a1.637 1.637 0 0 0 2.425-.015l.385-.436a.665.665 0 0 1 .734-.17l.543.217c.199.078.405.12.616.12.726 0 1.369-.478 1.56-1.166l.154-.556a.642.642 0 0 1 .587-.463l.588-.035a1.626 1.626 0 0 0 1.178-.602c.286-.358.4-.817.318-1.264l-.108-.563a.628.628 0 0 1 .322-.67l.512-.28c.405-.22.694-.602.793-1.045.1-.443 0-.91-.273-1.275l-.346-.467z"/>
        <path fill="#FFF" d="M11.703 7.213l-3.326 3.239-1.08-1.064a.768.768 0 0 0-1.073 0 .735.735 0 0 0-.006 1.052l1.62 1.591a.769.769 0 0 0 1.073 0l3.865-3.76a.735.735 0 0 0 .006-1.052.781.781 0 0 0-1.08-.006z"/>
    </g>
</svg>
