<svg width="876" height="840" viewBox="0 0 876 840" fill="none" xmlns="http://www.w3.org/2000/svg">
<path d="M814.003 379.1C814.003 379.1 724.003 364.4 726.003 311.1C728.003 257.8 777.303 249.8 777.303 249.8C777.303 249.8 815.303 237.9 808.603 199.5C801.903 161.1 737.303 119.8 639.303 137.1C541.303 154.4 410.003 171.8 356.003 143.1C302.003 114.4 199.303 120.5 160.703 204.1C122.103 287.7 182.003 337.1 148.703 382.4C115.403 427.7 0.00269127 473.1 35.4027 586.5C70.7027 699.8 179.003 605.1 178.003 690.1C177.003 775.1 203.003 835.1 343.003 787.1C483.003 739.1 537.003 735.1 578.003 787.1C619.003 839.1 840.403 796.9 769.003 605.1C769.003 605.1 759.503 569.1 783.003 554.6C806.503 540.1 879.503 523.1 875.503 460.6C871.503 398.1 839.703 385.7 814.003 379.1Z" fill="#1D56C0"/>
<mask id="mask0" mask-type="alpha" maskUnits="userSpaceOnUse" x="28" y="127" width="848" height="681">
<path d="M814.003 379.1C814.003 379.1 724.003 364.4 726.003 311.1C728.003 257.8 777.303 249.8 777.303 249.8C777.303 249.8 815.303 237.9 808.603 199.5C801.903 161.1 737.303 119.8 639.303 137.1C541.303 154.4 410.003 171.8 356.003 143.1C302.003 114.4 199.303 120.5 160.703 204.1C122.103 287.7 182.003 337.1 148.703 382.4C115.403 427.7 0.00269127 473.1 35.4027 586.5C70.7027 699.8 179.003 605.1 178.003 690.1C177.003 775.1 203.003 835.1 343.003 787.1C483.003 739.1 537.003 735.1 578.003 787.1C619.003 839.1 840.403 796.9 769.003 605.1C769.003 605.1 759.503 569.1 783.003 554.6C806.503 540.1 879.503 523.1 875.503 460.6C871.503 398.1 839.703 385.7 814.003 379.1Z" fill="#1D56C0"/>
</mask>
<g mask="url(#mask0)">
<path d="M686.535 -47.5122C851.256 93.9098 870.142 342.015 728.712 506.637C587.29 671.358 339.184 690.245 174.562 548.814C9.94039 407.383 -9.03653 159.386 132.286 -5.32635C273.717 -169.948 521.822 -188.835 686.535 -47.5122Z" fill="url(#paint0_linear)"/>
</g>
<path d="M493.101 309.2C374.901 309.2 279.101 405 279.101 523.2C279.101 641.4 374.901 737.2 493.101 737.2C611.301 737.2 707.101 641.4 707.101 523.2C707.001 405 611.201 309.2 493.101 309.2ZM493.101 613.1C443.401 613.1 403.101 572.8 403.101 523.1C403.101 473.4 443.401 433.1 493.101 433.1C542.801 433.1 583.101 473.4 583.101 523.1C583.001 572.8 542.801 613.1 493.101 613.1Z" fill="#174EA5"/>
<path d="M493.101 259.2C374.901 259.2 279.101 355 279.101 473.2C279.101 591.4 374.901 687.2 493.101 687.2C611.301 687.2 707.101 591.4 707.101 473.2C707.001 355 611.201 259.2 493.101 259.2ZM493.101 563.1C443.401 563.1 403.101 522.8 403.101 473.1C403.101 423.4 443.401 383.1 493.101 383.1C542.801 383.1 583.101 423.4 583.101 473.1C583.001 522.8 542.801 563.1 493.101 563.1Z" fill="#F2A136"/>
<path d="M479.801 320.9C479.801 320.9 477.001 340.3 469.601 341L445.101 343.7L507.601 384.4C507.601 384.4 543.901 391.2 559.501 414.4C575.101 437.6 559.501 416.6 559.501 416.6L595.101 358.6L584.901 334.3L524.301 327.3C524.301 327.3 486.001 322.6 479.801 320.9Z" fill="#DB8A2A"/>
<path d="M524.301 559.6C524.301 559.6 605.901 552.8 625.701 526.7C625.701 526.7 687.201 455.8 676.501 375.1L618.401 356.1C618.401 356.1 605.101 538.6 524.301 559.6Z" fill="#DB8A2A"/>
<path d="M363.801 643.1C363.801 643.1 362.101 598.1 368.101 559.6C374.101 521.1 401.801 520.9 425.901 533C425.901 533 409.001 511.8 406.101 492.5L342.701 462.8L323.601 603.8C323.601 603.8 350.001 634.1 363.801 643.1Z" fill="#DB8A2A"/>
<path d="M661.001 476.8C661.001 476.8 638.701 570.5 589.301 602.1C539.901 633.7 382.001 645.5 331.201 547L323.501 603.8C323.501 603.8 384.001 687.2 488.001 687.2C592.001 687.2 670.501 622.2 693.901 547.1C693.901 547.1 736.601 443.9 670.001 356.2L661.001 476.8Z" fill="#DB8A2A"/>
<path d="M421.601 467.6L357.101 459.1C357.101 459.1 331.901 458.8 332.001 481.5L300.001 572.1C300.001 572.1 276.601 523.7 279.001 482.1C281.401 440.5 278.801 476.8 278.801 476.8L406.001 347.9C406.001 347.9 437.101 435.1 421.601 467.6Z" fill="#DB8A2A"/>
<path d="M643.301 261.6C643.301 261.6 623.501 235.4 564.101 253.6C564.101 253.6 564.301 256.6 567.601 258.1C567.601 258.1 540.101 262.6 534.601 284.9L539.801 286.6C539.801 286.6 502.301 293.3 496.601 327.3C496.601 327.3 676.801 363.6 703.401 271.1C703.401 271.1 713.601 218.1 674.201 218.3C674.201 218.3 666.701 218.7 663.201 223.2C663.201 223.2 648.401 225.1 652.801 246.4C652.801 246.4 649.701 257 653.201 263.5C653.101 263.5 649.001 268 643.301 261.6Z" fill="#26346D"/>
<path d="M669.601 303.7C669.601 303.7 727.101 441.5 612.101 586.2C612.101 586.2 604.201 622.5 606.501 635.8C606.501 635.8 606.601 638.5 603.901 638.6C603.901 638.6 600.901 623.8 601.401 620.1C601.401 620.1 597.701 634.4 599.601 644.9C599.601 644.9 596.501 648.6 595.201 645.6L594.001 642.3V648.1C594.001 648.1 590.201 652.1 589.401 648.1C589.401 648.1 588.001 643.6 587.001 640.9V646.1C587.001 646.1 582.901 646.4 583.101 641.3C583.101 641.3 579.901 599.6 597.401 580.1C597.401 580.1 667.201 473.4 653.301 382.5C653.301 382.5 650.701 341.3 669.601 303.7Z" fill="#F1EDE1"/>
<path d="M631.101 289.2C631.101 289.2 542.501 329.1 509.501 310.6C509.501 310.6 514.501 277.1 557.001 238.1C557.001 238.1 565.301 228.5 566.501 221.3C566.501 221.3 565.901 222 562.901 225.1L553.401 231.9L561.201 200.8C561.201 200.8 562.701 196.8 560.101 196.6C560.101 196.6 547.801 217.4 543.301 237.2C543.301 237.2 492.801 273.4 479.801 321C479.801 321 509.001 347.8 562.601 339.5" fill="#F1EDE1"/>
<path d="M536.701 248.6C538.901 249.5 541.201 250.3 543.501 251.2C547.101 247.3 551.101 243.4 555.401 239.4C555.401 239.4 565.101 229.7 566.301 222.5C566.301 222.5 564.301 223.2 561.301 226.3L551.801 233.1L559.601 201.9C559.601 201.9 561.101 197.9 558.501 197.6C558.501 197.6 546.101 218.5 541.701 238.3C541.701 238.3 537.801 241.1 532.001 246.1C533.401 247.1 535.001 247.9 536.701 248.6Z" fill="#F1EDE1"/>
<path d="M553.301 201.1C553.301 201.1 549.601 209.5 547.801 218.8L546.401 223.4L553.901 206.7C553.901 206.7 555.701 200.9 553.801 199.9L553.301 201.1Z" fill="#F1EDE1"/>
<path d="M560.801 190.9L551.001 225.2C551.001 225.2 548.401 232.8 554.201 231.3L571.601 225.9C571.601 225.9 573.401 225.7 574.101 223L584.401 186.2C584.401 186.2 586.001 181.2 583.001 181.4L564.201 185.3C564.201 185.4 562.301 185.7 560.801 190.9Z" fill="#26346D"/>
<path opacity="0.7" d="M561.601 192.6L552.901 223.1C552.901 223.1 550.601 229.9 555.701 228.5L571.201 223.7C571.201 223.7 572.801 223.6 573.401 221.1L582.601 188.4C582.601 188.4 584.001 184 581.301 184.2L564.601 187.7C564.601 187.7 562.901 188 561.601 192.6Z" fill="#1888ED"/>
<path d="M563.001 223.4L552.801 232.2C553.301 234.4 553.601 236.7 553.601 239.1C553.601 240.1 550.701 243 550.701 244C551.601 243.2 553.501 241.7 556.201 239.5C556.201 239.5 564.701 228.8 568.701 220.9C568.601 220.9 565.501 220.9 563.001 223.4Z" fill="#F1EDE1"/>
<path d="M551.401 223.7C551.401 223.7 551.601 229.1 553.401 229.3C555.401 229.6 557.601 228.8 557.601 228.8L553.401 236.8L547.801 234.1L549.001 224.7L550.901 221.3L551.401 223.7Z" fill="#F1EDE1"/>
<g opacity="0.4">
<path opacity="0.4" d="M123.7 524.7C123.7 530.2 119.2 534.7 113.7 534.7H10C4.5 534.7 0 530.2 0 524.7V420.9C0 415.4 4.5 410.9 10 410.9H113.7C119.2 410.9 123.7 415.4 123.7 420.9V524.7Z" fill="#1888ED"/>
</g>
<g opacity="0.4">
<path opacity="0.4" d="M852.7 372.3C852.7 377.8 848.2 382.3 842.7 382.3H766C760.5 382.3 756 377.8 756 372.3V318.9C756 313.4 760.5 308.9 766 308.9H842.7C848.2 308.9 852.7 313.4 852.7 318.9V372.3Z" fill="#1888ED"/>
</g>
<g opacity="0.4">
<path opacity="0.4" d="M771.8 196.7C771.8 202.2 767.3 206.7 761.8 206.7H672C666.5 206.7 662 202.2 662 196.7V106.9C662 101.4 666.5 96.8999 672 96.8999H761.8C767.3 96.8999 771.8 101.4 771.8 106.9V196.7Z" fill="#1888ED"/>
</g>
<g opacity="0.4">
<path opacity="0.4" d="M418.001 829.8C418.001 835.3 413.501 839.8 408.001 839.8H297.001C291.501 839.8 287.001 835.3 287.001 829.8V718.9C287.001 713.4 291.501 708.9 297.001 708.9H408.001C413.501 708.9 418.001 713.4 418.001 718.9V829.8Z" fill="#1888ED"/>
</g>
<g opacity="0.4">
<path opacity="0.4" d="M825.8 721.7C825.8 727.2 821.3 731.7 815.8 731.7H718C712.5 731.7 708 727.2 708 721.7V623.9C708 618.4 712.5 613.9 718 613.9H815.8C821.3 613.9 825.8 618.4 825.8 623.9V721.7Z" fill="#1888ED"/>
</g>
<path d="M560.001 440.1C560.001 440.1 482.001 393.1 336.001 426.1C336.001 426.1 328.501 427.1 325.501 444.1C325.501 444.1 277.501 615.6 264.001 699.1L246.501 738.1C246.501 738.1 259.301 730.8 262.001 723.4C262.001 723.4 274.301 711.1 275.701 703.4L277.001 694.7C277.001 694.7 312.701 622 321.301 607.4C330.001 592.7 367.301 532.1 352.001 470.7C352.001 470.7 477.301 560 560.001 548.7C560.001 548.7 612.701 542 619.301 482C619.401 482.1 591.101 452.9 560.001 440.1Z" fill="#F1EDE1"/>
<path opacity="0.4" d="M270.201 666C267.801 678 265.701 689.2 264.001 699.1L246.501 738.1C246.501 738.1 259.301 730.8 262.001 723.4C262.001 723.4 274.301 711.1 275.701 703.4L277.001 694.7C277.001 694.7 282.401 683.7 289.501 669.4C282.801 669.4 276.301 668.2 270.201 666Z" fill="#1888ED"/>
<path d="M644.001 286.6C644.001 286.6 633.501 286.1 626.501 292.1L564.001 330.6C564.001 330.6 559.001 352.6 579.501 364.1C579.501 364.1 564.301 381.5 554.701 437.3C557.101 438.5 589.201 449.6 619.401 482.1C619.401 482.1 620.601 462.6 613.601 453.1C613.601 453.1 618.601 404.6 638.101 389.1C638.101 389.1 642.601 391.6 653.601 384.3C653.601 384.3 649.101 342.1 670.101 303.6L667.101 299.4C667.001 299.5 655.001 288.1 644.001 286.6Z" fill="#F83461"/>
<path d="M595.001 351.8C595.001 351.8 569.301 350.5 564.001 330.6C564.001 330.6 557.701 349.1 579.501 365.1C579.501 365.1 592.001 366.5 595.001 351.8Z" fill="#AF2F7C"/>
<path d="M613.701 367.8C613.701 367.8 620.001 386.6 638.001 389.1C638.001 389.1 646.201 389.8 653.601 384.3C653.601 384.3 653.701 372.8 653.601 370.1C653.701 370.1 646.001 389.2 613.701 367.8Z" fill="#AF2F7C"/>
<path fill-rule="evenodd" clip-rule="evenodd" d="M770.801 472.8C770.801 472.8 798.901 490 775.901 509C752.901 528 719.201 514.6 733.301 501.4C733.301 501.5 762.301 496.8 770.801 472.8Z" fill="#174EA5"/>
<path d="M751.2 459.6C751.2 459.6 741.8 467.2 747.2 476.3C747.2 476.3 749.7 480.7 756.7 481.1C756.7 481.1 752.3 484.4 747.8 480.1C747.8 480.1 739.1 492.3 731.6 486.9C731.6 486.9 721.9 484 729.7 497.1C729.7 497.1 745.3 521.2 768.9 500.8C768.9 500.8 788 486.9 770.8 472.8C770.8 472.8 771.3 465.3 768.2 461.1C765.3 457.1 759.2 454.5 751.2 459.6Z" fill="#F2A136"/>
<path d="M764.9 460.9L771.9 456.8C771.9 456.8 774.4 454.5 775.7 456.8C777 459.1 773.2 460.9 773.2 460.9L767.8 466.5L764.9 460.9Z" fill="#F83461"/>
<path d="M658.701 268.7C658.701 268.7 654.401 280.3 649.401 288C649.401 288 645.401 286.6 644.001 286.6C642.601 286.6 610.501 310.6 620.201 323.9C629.901 337.2 659.701 307.4 664.501 297.2C669.301 287 692.201 231.4 672.701 225.7C672.701 225.7 659.501 220 653.501 242.7C648.701 261.2 653.401 266.2 658.701 268.7Z" fill="#F1EDE1"/>
<path d="M656.901 234C656.901 234 667.601 231 680.501 241.1V242L676.801 241C676.801 241 672.901 248.4 665.501 245.8C658.701 243.4 662.701 235.8 659.601 235.4C659.601 235.4 658.001 235.2 656.901 238.2C656.901 238.2 654.801 243.6 653.301 244.1C653.301 243.8 653.301 236.7 656.901 234Z" fill="#26346D"/>
<path opacity="0.2" d="M652.601 247.6C652.601 247.6 653.001 246.3 659.901 250.5C659.901 250.5 656.201 250.8 654.101 250.5C654.101 250.5 651.401 250 652.401 247.5" fill="#3760BF"/>
<path opacity="0.2" d="M392.102 416.8C392.102 416.8 383.102 460.5 360.902 476.8L352.102 470.8C352.102 470.8 354.102 479.6 354.602 484.1C354.602 484.1 333.802 507.1 306.402 515.1L325.902 442.1C325.902 442.1 329.802 427.5 336.002 426.1C336.002 426.1 378.602 416.4 392.102 416.8Z" fill="#3760BF"/>
<path d="M182.001 602.1C182.001 602.1 235.301 533.4 241.301 522.8C247.301 512.1 376.001 338.1 390.001 312.8C390.001 312.8 407.301 282.8 435.301 312.8C435.301 312.8 510.801 378.4 545.401 433.3C545.401 433.3 491.901 409.2 402.601 415.8C402.601 415.8 398.601 392.8 394.001 378.2C394.001 378.2 384.001 467.5 240.701 549.5C240.701 549.5 237.101 551.8 236.301 556.5C236.301 556.4 238.501 574.1 182.001 602.1Z" fill="#F1EDE1"/>
<path d="M522.601 118.4C522.601 183.8 469.601 236.8 404.201 236.8C338.801 236.8 285.801 183.8 285.801 118.4C285.801 53 338.801 0 404.201 0C469.601 0 522.601 53 522.601 118.4Z" fill="#F83461"/>
<path d="M522.601 118.4C522.601 183.8 469.601 236.8 404.201 236.8C338.801 236.8 285.801 183.8 285.801 118.4C285.801 53 338.801 0 404.201 0C469.601 0 522.601 53 522.601 118.4Z" fill="#F83461"/>
<path fill-rule="evenodd" clip-rule="evenodd" d="M343.066 219.821C333.054 213.774 324.01 206.286 316.222 197.645C329.14 186.986 337.199 181.2 337.199 181.2C350.599 121.1 388.099 57.8 388.099 57.8C396.099 58.6 391.499 70.7 391.499 70.7L367.999 165.2L396.899 144.8C405.999 135.3 416.499 135.7 416.499 135.7C412.899 157.5 378.999 184.3 378.999 184.3C365.866 196.338 353.922 208.179 343.066 219.821Z" fill="#F1EDE1"/>
<path d="M388.001 63.6L358.401 167.7C358.401 167.7 350.501 190.9 368.101 186.3L421.001 169.9C421.001 169.9 425.801 169.1 429.201 156L458.301 49.1C458.301 49.1 462.001 33.6 450.901 36L401.101 46.4C401.201 46.3 391.301 47.1 388.001 63.6Z" fill="#26346D"/>
<path opacity="0.7" d="M396.001 63.5L372.301 164.1C372.301 164.1 357.001 181.9 372.701 177.9L418.201 164.1C418.201 164.1 423.001 163.6 424.801 156.2L452.601 52.1C452.601 52.1 457.101 40 450.101 41.6L408.101 50.7C407.901 50.7 398.501 51.6 396.001 63.5Z" fill="#1888ED"/>
<path d="M419.719 89.1286L423.19 89.1961L423.637 85.3283L427.155 85.3967L427.394 82.1944L424.189 81.8828L426.663 67.6611L420.647 68.5033C415.27 73.4292 412.152 78.427 409.721 81.2374L409.787 84.3238L420.305 84.8217L419.719 89.1286ZM413.149 81.5399C415.359 79.0164 418.285 75.1579 422.066 71.7612L422.152 71.7782L420.716 81.6871L413.695 81.5506L413.149 81.5399Z" fill="#1888ED"/>
<path d="M410.617 122.996C415.85 124.036 419.499 119.863 420.725 113.685C421.952 107.508 418.264 103.127 413.059 102.093C407.855 101.06 405.121 104.18 403.895 110.357C402.665 116.548 405.385 121.957 410.617 122.996ZM411.117 119.34C408.572 118.834 407.413 115.616 408.284 111.229C409.147 106.881 410.043 105.25 412.56 105.75C415.09 106.252 417.199 108.466 416.333 112.827C415.462 117.215 413.662 119.845 411.117 119.34Z" fill="#1888ED"/>
<path d="M405.553 156.419L409.591 155.974L410.102 152.841L412.994 152.897L414.089 150.068L410.794 150.004L413.212 136.665L406.872 137.065C401.495 141.991 398.884 144.195 396.454 147.005L395.631 152.036L406.056 152.384L405.553 156.419ZM399.601 148.447C401.811 145.923 404.808 143.029 408.588 139.632L408.674 139.649L406.755 149.313L399.616 149.174L399.601 148.447Z" fill="#1888ED"/>
<path fill-rule="evenodd" clip-rule="evenodd" d="M343.444 220.048C333.331 213.992 324.198 206.469 316.338 197.773C330.047 186.392 338.702 180.2 338.702 180.2C340.802 170.7 343.502 161.1 346.602 151.7C350.402 148.8 354.202 145.8 357.902 142.7C358.202 147 358.702 151.2 359.902 155.3C360.002 155.8 360.202 156.2 360.402 156.6C360.402 160 362.502 163.4 366.902 163.4C368.002 163.4 369.002 163.2 369.802 162.8L369.402 164.3L398.702 141.4C407.302 134.9 413.702 136.3 413.702 136.3C402.502 158.4 380.502 183.3 380.502 183.3C366.96 195.747 354.607 208.096 343.444 220.048Z" fill="#F1EDE1"/>
<path d="M370.101 141.8C370.101 141.8 366.501 153.1 370.101 157.6C373.701 162 381.801 156.3 381.801 156.3L370.201 178.5L354.501 171L358.001 144.9L368.901 135.3L370.101 141.8Z" fill="#F1EDE1"/>
<path d="M380.802 89.1001L367.202 154.4C367.202 154.4 366.702 160.6 374.002 159.4C374.002 159.4 382.902 164.3 382.302 164.5C381.702 164.7 354.102 171.2 354.102 171.2L350.402 154.2L359.402 122.6L380.802 89.1001Z" fill="#F1EDE1"/>
<path d="M372.801 68C372.801 68 361.701 93.6 356.201 121.6L352.101 135.6L374.801 84.9C374.801 84.9 380.301 67.4 374.401 64.4L372.801 68Z" fill="#F1EDE1"/>
<path d="M517.6 189.6C517.6 204.6 505.5 216.7 490.5 216.7C475.5 216.7 463.4 204.6 463.4 189.6C463.4 174.6 475.5 162.5 490.5 162.5C505.4 162.6 517.6 174.7 517.6 189.6Z" fill="#0063DA"/>
<path opacity="0.2" d="M394.001 378.1L394.701 373.1C394.701 373.1 410.701 403.7 423.201 414.4C423.201 414.4 413.201 414.8 402.601 415.8C402.701 415.8 398.501 391.3 394.001 378.1Z" fill="#3760BF"/>
<g opacity="0.4">
<path opacity="0.4" d="M242.401 273.2C242.401 278.7 237.901 283.2 232.401 283.2H122.001C116.501 283.2 112.001 278.7 112.001 273.2V162.9C112.001 157.4 116.501 152.9 122.001 152.9H232.301C237.801 152.9 242.301 157.4 242.301 162.9V273.2H242.401Z" fill="#1888ED"/>
</g>
<path d="M752.072 688.339C748.682 686.027 747.808 681.406 750.12 678.016L755.701 669.833C758.012 666.443 762.633 665.57 766.023 667.881C767.265 668.71 779.691 674.209 785.272 666.025C788.063 661.934 786.763 655.05 780.625 650.865C775.632 647.459 769.651 649.378 768.255 651.424C765.945 654.811 761.323 655.687 757.933 653.375C754.543 651.064 753.671 646.44 755.981 643.052C762.788 633.071 777.908 631.028 788.996 638.59C805.362 649.751 803.154 666.175 796.151 676.442C790.37 684.92 781.29 688.226 770.587 685.743C768.258 685.203 766.106 684.447 764.253 683.662L762.394 686.387C760.083 689.777 755.462 690.65 752.072 688.339Z" fill="#1888ED"/>
<path d="M751.233 702.753C748.921 706.143 744.3 707.017 740.911 704.705C737.521 702.393 736.647 697.772 738.959 694.382C741.27 690.992 745.892 690.119 749.281 692.43C752.671 694.742 753.545 699.363 751.233 702.753Z" fill="#1888ED"/>
<path d="M58.285 494.09C54.182 494.09 50.8565 490.765 50.8565 486.662V476.757C50.8565 472.654 54.182 469.328 58.285 469.328C59.7782 469.314 73.1422 466.855 73.1422 456.95C73.1422 451.997 68.1898 447.043 60.7613 447.043C54.7169 447.043 50.8565 451.998 50.8565 454.474C50.8565 458.574 47.5311 461.902 43.428 461.902C39.3249 461.902 35.9993 458.574 35.9993 454.474C35.9993 442.392 47.3402 432.185 60.761 432.185C80.5708 432.185 87.9993 446.998 87.9993 459.426C87.9993 469.688 82.361 477.535 72.1194 481.514C69.8908 482.38 67.687 482.967 65.7135 483.363V486.662C65.7135 490.765 62.3881 494.09 58.285 494.09Z" fill="#1888ED"/>
<path d="M65.7135 506.471C65.7135 510.574 62.388 513.9 58.285 513.9C54.1819 513.9 50.8564 510.574 50.8564 506.471C50.8564 502.368 54.1819 499.043 58.285 499.043C62.388 499.043 65.7135 502.368 65.7135 506.471Z" fill="#1888ED"/>
<path d="M809.454 367.173C809.454 369.784 807.338 371.9 804.727 371.9C802.116 371.9 800 369.784 800 367.173C800 364.562 802.116 362.445 804.727 362.445C807.338 362.445 809.454 364.562 809.454 367.173Z" fill="#1888ED"/>
<path d="M809.454 354.566C809.454 357.178 807.337 359.294 804.727 359.294C802.116 359.294 800 357.178 800 354.566V324.627C800 322.016 802.116 319.9 804.727 319.9C807.337 319.9 809.454 322.016 809.454 324.627V354.566H809.454Z" fill="#1888ED"/>
<path d="M376.376 810.536C378.182 815.409 375.697 820.823 370.824 822.629C365.951 824.436 360.537 821.951 358.731 817.078C356.924 812.205 359.41 806.791 364.282 804.985C369.155 803.178 374.569 805.663 376.376 810.536Z" fill="#1888ED"/>
<path d="M367.653 787.009C369.46 791.882 366.972 797.297 362.102 799.102C357.229 800.909 351.815 798.423 350.009 793.55L329.294 737.675C327.487 732.802 329.973 727.388 334.846 725.582C339.716 723.776 345.132 726.261 346.939 731.134L367.653 787.009L367.653 787.009Z" fill="#1888ED"/>
<path d="M204.801 184.018C208.852 180.762 214.774 181.406 218.03 185.457C221.286 189.508 220.641 195.429 216.591 198.685C212.54 201.941 206.618 201.297 203.362 197.246C200.106 193.196 200.751 187.274 204.801 184.018Z" fill="#1888ED"/>
<path d="M185.244 199.738C189.295 196.482 195.219 197.129 198.472 201.177C201.728 205.227 201.084 211.149 197.033 214.405L150.586 251.739C146.536 254.995 140.614 254.351 137.358 250.3C134.104 246.252 134.746 240.328 138.797 237.072L185.244 199.738L185.244 199.738Z" fill="#1888ED"/>
<path d="M712.33 130.901C716.117 129.322 720.466 131.112 722.045 134.899L725.856 144.042C727.435 147.829 725.645 152.178 721.857 153.756C720.485 154.345 709.096 161.756 712.907 170.898C714.812 175.47 721.29 178.137 728.146 175.279C733.726 172.954 735.382 166.895 734.43 164.609C732.852 160.824 734.641 156.473 738.428 154.894C742.215 153.316 746.565 155.108 748.143 158.893C752.791 170.044 746.251 183.829 733.863 188.993C715.578 196.615 703.022 185.8 698.241 174.329C694.293 164.858 696.478 155.445 704.4 147.832C706.123 146.175 707.932 144.785 709.601 143.66L708.332 140.616C706.753 136.828 708.543 132.479 712.33 130.901Z" fill="#1888ED"/>
<path d="M700.71 122.331C699.131 118.544 700.921 114.195 704.708 112.616C708.495 111.037 712.844 112.827 714.423 116.615C716.002 120.402 714.212 124.751 710.425 126.329C706.637 127.908 702.289 126.118 700.71 122.331Z" fill="#1888ED"/>
<defs>
<linearGradient id="paint0_linear" x1="174.522" y1="548.892" x2="686.498" y2="-47.4718" gradientUnits="userSpaceOnUse">
<stop stop-color="#2F54BF"/>
<stop offset="1" stop-color="#E93667"/>
</linearGradient>
</defs>
</svg>
