<?xml version="1.0" encoding="UTF-8"?>
<svg width="29px" height="28px" viewBox="0 0 29 28" version="1.1" xmlns="http://www.w3.org/2000/svg" xmlns:xlink="http://www.w3.org/1999/xlink">
    <!-- Generator: Sketch 41.2 (35397) - http://www.bohemiancoding.com/sketch -->
    <title>twitter active</title>
    <desc>Created with Sketch.</desc>
    <defs></defs>
    <g id="Page-1" stroke="none" stroke-width="1" fill="none" fill-rule="evenodd">
        <g id="Welcome-Customer" transform="translate(-311.000000, -978.000000)">
            <g id="Group-2" transform="translate(265.000000, 978.000000)">
                <g id="twitter-active" transform="translate(46.236618, 0.000000)">
                    <g id="Capa_1">
                        <g id="Group">
                            <ellipse id="Oval" fill="#C2C5D7" cx="14.0002292" cy="14" rx="14" ry="14"></ellipse>
                            <path d="M20.7811728,10.114426 C20.3523944,10.3086503 19.8911544,10.4400159 19.4074409,10.498684 C19.9013209,10.1964156 20.2803368,9.71814277 20.4592323,9.14731277 C19.9971004,9.42735289 19.4850277,9.63050497 18.9404934,9.74000667 C18.5042238,9.26537783 17.8826378,8.96875758 17.194345,8.96875758 C15.8737645,8.96875758 14.8027102,10.0628636 14.8027102,11.4118663 C14.8027102,11.6033576 14.8239351,11.7897473 14.864958,11.9686669 C12.8773096,11.8668176 11.1149304,10.8942384 9.93525464,9.41569214 C9.72942672,9.7764465 9.61135213,10.1964156 9.61135213,10.6440789 C9.61135213,11.4914873 10.0338879,12.2395971 10.675272,12.6776039 C10.2834142,12.6650321 9.91438647,12.555166 9.59208921,12.3716915 C9.59191085,12.3820768 9.59191085,12.3924622 9.59191085,12.4026653 C9.59191085,13.5864133 10.4166494,14.5737506 11.5105338,14.7980378 C11.3100567,14.8541552 11.0983429,14.8838536 10.8805648,14.8838536 C10.7261047,14.8838536 10.5764603,14.8687311 10.4305615,14.840308 C10.7348444,15.8107008 11.6179067,16.517087 12.664704,16.5369467 C11.8460297,17.1923171 10.8149282,17.5827699 9.69411136,17.5827699 C9.50148212,17.5827699 9.31063648,17.5712914 9.12389313,17.5485165 C10.1817487,18.2419665 11.4391896,18.6462665 12.7897346,18.6462665 C17.1888158,18.6462665 19.594541,14.9235731 19.594541,11.6948216 C19.594541,11.5889638 19.5922223,11.4834705 19.5875849,11.3788882 C20.0552459,11.0345318 20.4606591,10.6043595 20.7811728,10.114426 L20.7811728,10.114426 Z" id="Shape" fill="#F1F2F2"></path>
                        </g>
                    </g>
                </g>
            </g>
        </g>
    </g>
</svg>