<?xml version="1.0" encoding="UTF-8"?>
<svg width="28px" height="28px" viewBox="0 0 28 28" version="1.1" xmlns="http://www.w3.org/2000/svg" xmlns:xlink="http://www.w3.org/1999/xlink">
    <!-- Generator: Sketch 41.2 (35397) - http://www.bohemiancoding.com/sketch -->
    <title>vk active</title>
    <desc>Created with Sketch.</desc>
    <defs></defs>
    <g id="Page-1" stroke="none" stroke-width="1" fill="none" fill-rule="evenodd">
        <g id="Welcome-Customer" transform="translate(-265.000000, -978.000000)">
            <g id="Group-2" transform="translate(265.000000, 978.000000)">
                <g id="vk-active">
                    <g id="Capa_1">
                        <g id="Group">
                            <circle id="XMLID_11_" fill="#C2C5D7" cx="14" cy="14" r="14"></circle>
                            <path d="M13.2013201,17.9016425 L13.9368307,17.9016425 C13.9368307,17.9016425 14.159004,17.8767287 14.2724293,17.7518181 C14.3768341,17.6371461 14.3734932,17.4217947 14.3734932,17.4217947 C14.3734932,17.4217947 14.3591271,16.4136365 14.8171716,16.2651772 C15.2687013,16.1189363 15.8485235,17.2395481 16.4630917,17.6704214 C16.9278181,17.99652 17.2809568,17.9250206 17.2809568,17.9250206 L18.9242041,17.9016425 C18.9242041,17.9016425 19.7838311,17.8475487 19.3762349,17.1571276 C19.3428254,17.1006448 19.1388603,16.6463934 18.1544487,15.7129768 C17.1240991,14.7360463 17.2620804,14.8940616 18.5032441,13.2041851 C19.2591345,12.1750378 19.5613237,11.5467307 19.4669418,11.2776269 C19.3769031,11.0213213 18.8209687,11.0890665 18.8209687,11.0890665 L16.9707494,11.1008408 C16.9707494,11.1008408 16.8336033,11.0817288 16.7318713,11.1438429 C16.632478,11.2047624 16.5684987,11.3467372 16.5684987,11.3467372 C16.5684987,11.3467372 16.2756643,12.1431276 15.885107,12.8204092 C15.0612282,14.2495434 14.7318103,14.3249676 14.5971699,14.2362333 C14.2839556,14.0294141 14.3621339,13.4053731 14.3621339,12.9620428 C14.3621339,11.5771051 14.5677695,10.9996496 13.9617208,10.8501664 C13.7605955,10.8005094 13.6125913,10.7677459 13.0982517,10.762456 C12.4380796,10.7554596 11.8793053,10.7645037 11.5629171,10.9228603 C11.3524372,11.028147 11.1900669,11.2627809 11.2889591,11.2762617 C11.4112379,11.2929847 11.6882029,11.3525391 11.8350377,11.5567986 C12.0246367,11.8202713 12.0179548,12.4120608 12.0179548,12.4120608 C12.0179548,12.4120608 12.1268699,14.042383 11.7635413,14.2449361 C11.5141392,14.3838394 11.1720257,14.1002309 10.4375174,12.8036862 C10.0611591,12.1395441 9.77701117,11.4054384 9.77701117,11.4054384 C9.77701117,11.4054384 9.72221955,11.2682415 9.6244967,11.1948651 C9.5058929,11.1059601 9.34018167,11.0776334 9.34018167,11.0776334 L7.5820056,11.0894078 C7.5820056,11.0894078 7.31807038,11.0969161 7.22118276,11.2141477 C7.1349862,11.3184105 7.21433381,11.5341031 7.21433381,11.5341031 C7.21433381,11.5341031 8.5908061,14.8237567 10.1493603,16.4815524 C11.5784526,18.0014686 13.2013201,17.9016425 13.2013201,17.9016425 L13.2013201,17.9016425 Z" id="Shape" fill="#FFFFFF"></path>
                        </g>
                    </g>
                </g>
            </g>
        </g>
    </g>
</svg>