<?xml version="1.0" encoding="utf-8"?>
<!-- Generator: Adobe Illustrator 22.1.0, SVG Export Plug-In . SVG Version: 6.00 Build 0)  -->
<svg version="1.1" id="Слой_1" xmlns="http://www.w3.org/2000/svg" xmlns:xlink="http://www.w3.org/1999/xlink" x="0px" y="0px"
	 viewBox="0 0 48 48" style="enable-background:new 0 0 48 48;" xml:space="preserve">
<style type="text/css">
	.st0{fill:#0063DA;}
</style>
<path class="st0" d="M46,1c-0.6,0-1,0.4-1,1v5h-6V2c0-0.6-0.4-1-1-1H10C9.4,1,9,1.4,9,2v5H3V2c0-0.6-0.4-1-1-1S1,1.4,1,2v44
	c0,0.6,0.4,1,1,1s1-0.4,1-1v-5h6v5c0,0.6,0.4,1,1,1h28c0.6,0,1-0.4,1-1v-5h6v5c0,0.6,0.4,1,1,1s1-0.4,1-1V2C47,1.4,46.6,1,46,1z
	 M9,39H3v-6h6V39z M9,31H3v-6h6V31z M9,23H3v-6h6V23z M9,15H3V9h6V15z M37,25H11v-2h26V25z M45,39h-6v-6h6V39z M45,31h-6v-6h6V31z
	 M45,23h-6v-6h6V23z M45,15h-6V9h6V15z"/>
</svg>
