<?xml version="1.0" encoding="utf-8"?>
<!-- Generator: Adobe Illustrator 22.1.0, SVG Export Plug-In . SVG Version: 6.00 Build 0)  -->
<svg version="1.1" id="Слой_1" xmlns="http://www.w3.org/2000/svg" xmlns:xlink="http://www.w3.org/1999/xlink" x="0px" y="0px"
	 viewBox="0 0 48 48" style="enable-background:new 0 0 48 48;" xml:space="preserve">
<style type="text/css">
	.st0{fill:#0063DA;}
</style>
<path class="st0" d="M42.5,1.8c0-0.3-0.2-0.5-0.4-0.6C41.8,1,41.6,1,41.3,1l-5.2,1.1l-4.2,8.9l10.9-2.2c0.5-0.1,0.9-0.6,0.8-1.2
	L42.5,1.8z"/>
<path class="st0" d="M12.3,14.9l7.3-1.5l4.2-8.9l-7.3,1.5L12.3,14.9z"/>
<path class="st0" d="M33.6,2.6l-7.3,1.5l-4.2,8.9l7.3-1.5L33.6,2.6z"/>
<path class="st0" d="M14,6.6L2.7,8.9C2.2,9,1.8,9.5,1.9,10.1l1.2,5.7c0.1,0.5,0.5,0.8,1,0.8c0.1,0,0.1,0,0.2,0l5.6-1.1L14,6.6z"/>
<path class="st0" d="M44,19H4c-0.6,0-1,0.4-1,1v26c0,0.6,0.4,1,1,1h40c0.6,0,1-0.4,1-1V20C45,19.4,44.6,19,44,19z M30.5,33.8l-11,7
	C19.4,40.9,19.2,41,19,41c-0.2,0-0.3,0-0.5-0.1C18.2,40.7,18,40.4,18,40V26c0-0.4,0.2-0.7,0.5-0.9c0.3-0.2,0.7-0.2,1,0l11,7
	c0.3,0.2,0.5,0.5,0.5,0.8S30.8,33.7,30.5,33.8z"/>
</svg>
