<?xml version="1.0" encoding="utf-8"?>
<!-- Generator: Adobe Illustrator 22.1.0, SVG Export Plug-In . SVG Version: 6.00 Build 0)  -->
<svg version="1.1" id="Слой_1" xmlns="http://www.w3.org/2000/svg" xmlns:xlink="http://www.w3.org/1999/xlink" x="0px" y="0px"
	 viewBox="0 0 48 48" style="enable-background:new 0 0 48 48;" xml:space="preserve">
<style type="text/css">
	.st0{fill:#0063DA;}
</style>
<path class="st0" d="M17,27H9c-0.6,0-1,0.4-1,1v18c0,0.6,0.4,1,1,1h8c0.6,0,1-0.4,1-1V28C18,27.4,17.6,27,17,27z"/>
<path class="st0" d="M43.8,16.4l-12-15c-0.4-0.5-1.2-0.5-1.6,0l-12,15c-0.2,0.3-0.3,0.7-0.1,1.1c0.2,0.3,0.5,0.6,0.9,0.6h7v28
	c0,0.6,0.4,1,1,1h8c0.6,0,1-0.4,1-1V18h7c0.4,0,0.7-0.2,0.9-0.6C44.1,17.1,44,16.7,43.8,16.4z"/>
</svg>
