<?xml version="1.0" encoding="utf-8"?>
<!-- Generator: Adobe Illustrator 22.1.0, SVG Export Plug-In . SVG Version: 6.00 Build 0)  -->
<svg version="1.1" id="Слой_1" xmlns="http://www.w3.org/2000/svg" xmlns:xlink="http://www.w3.org/1999/xlink" x="0px" y="0px"
	 viewBox="0 0 48 48" style="enable-background:new 0 0 48 48;" xml:space="preserve">
<style type="text/css">
	.st0{fill:#0063DA;}
</style>
<path class="st0" d="M24,17.5c4.1,0,7.4-3.3,7.4-7.4c0-4.1-3.3-7.4-7.4-7.4s-7.4,3.3-7.4,7.4C16.6,14.2,19.9,17.5,24,17.5z"/>
<path class="st0" d="M10.1,45.3c4.1,0,7.4-3.3,7.4-7.4c0-4.1-3.3-7.4-7.4-7.4c-4.1,0-7.4,3.3-7.4,7.4C2.7,42,6,45.3,10.1,45.3z"/>
<path class="st0" d="M37.9,45.3c4.1,0,7.4-3.3,7.4-7.4c0-4.1-3.3-7.4-7.4-7.4s-7.4,3.3-7.4,7.4C30.5,42,33.8,45.3,37.9,45.3z"/>
<path class="st0" d="M32.3,30.6L25.9,25v-5.8c-0.6,0.1-1.2,0.2-1.9,0.2c-0.6,0-1.3-0.1-1.9-0.2V25l-6.4,5.6c1,0.8,1.8,1.7,2.4,2.8
	l5.8-5.1l5.8,5.1C30.5,32.3,31.3,31.3,32.3,30.6z"/>
</svg>
