<?xml version="1.0" encoding="utf-8"?>
<!-- Generator: Adobe Illustrator 22.1.0, SVG Export Plug-In . SVG Version: 6.00 Build 0)  -->
<svg version="1.1" id="Слой_1" xmlns="http://www.w3.org/2000/svg" xmlns:xlink="http://www.w3.org/1999/xlink" x="0px" y="0px"
	 viewBox="0 0 48 48" style="enable-background:new 0 0 48 48;" xml:space="preserve">
<style type="text/css">
	.st0{fill:#0063DA;}
</style>
<path class="st0" d="M44,2H4C2.9,2,2,2.9,2,4v40c0,1.1,0.9,2,2,2h40c1.1,0,2-0.9,2-2V4C46,2.9,45.1,2,44,2z M5,6c0-0.6,0.4-1,1-1h6
	c0.6,0,1,0.4,1,1s-0.4,1-1,1H7v5c0,0.6-0.4,1-1,1s-1-0.4-1-1V6z M12,43H6c-0.6,0-1-0.4-1-1v-6c0-0.6,0.4-1,1-1s1,0.4,1,1v5h5
	c0.6,0,1,0.4,1,1S12.6,43,12,43z M25,35c0,0.6-0.4,1-1,1s-1-0.4-1-1v-4.1c-3.1-0.4-5.5-2.9-5.9-5.9H13c-0.6,0-1-0.4-1-1s0.4-1,1-1
	h4.1c0.4-3.1,2.9-5.5,5.9-5.9V13c0-0.6,0.4-1,1-1s1,0.4,1,1v4.1c3.1,0.4,5.5,2.9,5.9,5.9H35c0.6,0,1,0.4,1,1s-0.4,1-1,1h-4.1
	c-0.4,3.1-2.9,5.5-5.9,5.9V35z M43,42c0,0.6-0.4,1-1,1h-6c-0.6,0-1-0.4-1-1s0.4-1,1-1h5v-5c0-0.6,0.4-1,1-1s1,0.4,1,1V42z M43,12
	c0,0.6-0.4,1-1,1s-1-0.4-1-1V7h-5c-0.6,0-1-0.4-1-1s0.4-1,1-1h6c0.6,0,1,0.4,1,1V12z"/>
</svg>
