<?xml version="1.0" encoding="utf-8"?>
<!-- Generator: Adobe Illustrator 22.1.0, SVG Export Plug-In . SVG Version: 6.00 Build 0)  -->
<svg version="1.1" id="Слой_1" xmlns="http://www.w3.org/2000/svg" xmlns:xlink="http://www.w3.org/1999/xlink" x="0px" y="0px"
	 viewBox="0 0 48 48" style="enable-background:new 0 0 48 48;" xml:space="preserve">
<style type="text/css">
	.st0{fill:#0063DA;}
</style>
<path class="st0" d="M20.7,24.7c5.8,0,10.4-4.8,10.4-10.7c0-5.9-4.7-10.7-10.4-10.7S10.2,8.1,10.2,14C10.2,19.9,14.9,24.7,20.7,24.7
	z M24.4,18.3c0.7,0,1.1,0.7,0.7,1.2c-0.9,1-2.5,1.7-4.3,1.7s-3.4-0.7-4.3-1.7c-0.4-0.5,0-1.2,0.7-1.2H24.4z M44.7,36.3l-9.6,8.2
	c-0.3,0.2-0.7,0.2-1,0l-4.8-4.9c-0.3-0.3-0.3-0.8,0-1l1-1c0.3-0.3,0.7-0.3,1,0l2.7,2.8c0.4,0.4,1,0.4,1.4,0.1l7.3-6.3
	c0.3-0.3,0.8-0.2,1,0.1l0.9,1.1C45.1,35.6,45,36.1,44.7,36.3z M28.3,40.7l0.4,0.4c0.6,0.6,0.2,1.6-0.6,1.7c-2.1,0.2-4.6,0.4-7.5,0.4
	c-10.1,0-15-1.7-16.8-2.5C3.4,40.5,3,39.9,3,39.3v-3.5c0-5.3,3.9-9.7,8.9-10.3c0.2,0,0.4,0,0.5,0.1c2.3,1.7,5.1,2.7,8.2,2.7
	s5.9-1,8.2-2.7c0.1-0.1,0.4-0.2,0.5-0.1c5,0.6,8.9,5,8.9,10.3c0,0,0,0.1,0,0.1l-2.6,2.2c-0.4,0.3-1,0.3-1.4-0.1l-1.7-1.7
	c-0.4-0.4-1-0.7-1.6-0.7c-0.6,0-1.2,0.2-1.6,0.7l-1,1C27.4,38.3,27.4,39.8,28.3,40.7z"/>
<path class="st0" d="M15.8,19c0-0.6,0.4-1,1-1h8.5c0.6,0,1,0.4,1,1v1.6c0,0.6-0.4,1-1,1h-8.5c-0.6,0-1-0.4-1-1V19z"/>
</svg>
