<?xml version="1.0" encoding="utf-8"?>
<!-- Generator: Adobe Illustrator 22.1.0, SVG Export Plug-In . SVG Version: 6.00 Build 0)  -->
<svg version="1.1" id="Слой_1" xmlns="http://www.w3.org/2000/svg" xmlns:xlink="http://www.w3.org/1999/xlink" x="0px" y="0px"
	 viewBox="0 0 48 48" style="enable-background:new 0 0 48 48;" xml:space="preserve">
<style type="text/css">
	.st0{fill:#0063DA;}
</style>
<path class="st0" d="M25.4,0C24.6,0,24,0.6,24,1.4v4.3c0,0.8,0.6,1.4,1.4,1.4c0.8,0,1.4-0.6,1.4-1.4V1.4C26.8,0.6,26.2,0,25.4,0z"/>
<path class="st0" d="M37.7,3.3c-0.5-0.5-1.4-0.5-2,0l-2.8,2.8c-0.5,0.5-0.5,1.4,0,2c0.5,0.5,1.4,0.5,2,0l2.8-2.8
	C38.2,4.8,38.2,3.9,37.7,3.3z"/>
<path class="st0" d="M45.1,19.8h-2.8c-0.8,0-1.4,0.6-1.4,1.4s0.6,1.4,1.4,1.4h2.8c0.8,0,1.4-0.6,1.4-1.4S45.9,19.8,45.1,19.8z"/>
<path class="st0" d="M5.7,19.8H2.9c-0.8,0-1.4,0.6-1.4,1.4s0.6,1.4,1.4,1.4h2.8c0.8,0,1.4-0.6,1.4-1.4S6.5,19.8,5.7,19.8z"/>
<path class="st0" d="M18,6.1l-2.8-2.8c-0.5-0.5-1.4-0.5-2,0c-0.5,0.5-0.5,1.4,0,2L16,8.1c0.5,0.5,1.4,0.5,2,0
	C18.5,7.6,18.5,6.7,18,6.1z"/>
<path class="st0" d="M9.2,10.1L6.3,8.7C5.7,8.3,4.8,8.6,4.5,9.3c-0.3,0.7-0.1,1.5,0.6,1.9l2.8,1.4C8.6,13,9.4,12.7,9.8,12
	C10.1,11.3,9.9,10.4,9.2,10.1z"/>
<path class="st0" d="M43.5,9.3c-0.3-0.7-1.2-1-1.9-0.6l-2.8,1.4c-0.7,0.3-1,1.2-0.6,1.9c0.3,0.7,1.2,1,1.9,0.6l2.8-1.4
	C43.6,10.8,43.9,10,43.5,9.3z"/>
<path class="st0" d="M38.1,29.6c0-4.8,0-8,0-12.7c0-1.6-1.3-2.8-2.8-2.8s-2.8,1.3-2.8,2.8v-2.8c0-1.6-1.3-2.8-2.8-2.8
	s-2.8,1.3-2.8,2.8v-2.8c0-1.6-1.3-2.8-2.8-2.8s-2.8,1.3-2.8,2.8v2.8c0-1.6-1.3-2.8-2.8-2.8s-2.8,1.3-2.8,2.8v3C16,17,16.5,17,17,17
	h7c3.1,0,5.6,2.5,5.6,5.6c0,2.5-1.7,4.6-4,5.3c0.7,1.4,1.1,2.9,1.1,4.5c0,0.8-0.6,1.4-1.4,1.4c-0.8,0-1.4-0.6-1.4-1.4
	c0-3.9-3.2-7-7-7h7c1.6,0,2.8-1.3,2.8-2.8c0-1.6-1.3-2.8-2.8-2.8c-3.1,0-3.9,0-7,0c-3.9,0-7,3.2-7,7v2.8c0,3.8,2.2,7.3,5.6,8.9v3.9
	c-1.6,0-2.8,1.3-2.8,2.8v1.4c0,0.8,0.6,1.4,1.4,1.4h19.7c0.8,0,1.4-0.6,1.4-1.4v-1.4c0-1.6-1.3-2.8-2.8-2.8v-3.9
	C35.8,36.9,38.1,33.4,38.1,29.6z"/>
</svg>
