<?xml version="1.0" encoding="utf-8"?>
<!-- Generator: Adobe Illustrator 22.1.0, SVG Export Plug-In . SVG Version: 6.00 Build 0)  -->
<svg version="1.1" id="Слой_1" xmlns="http://www.w3.org/2000/svg" xmlns:xlink="http://www.w3.org/1999/xlink" x="0px" y="0px"
	 viewBox="0 0 80 12" style="enable-background:new 0 0 80 12;" xml:space="preserve">
<style type="text/css">
	.st0{fill:#808792;}
</style>
<path class="st0" d="M4.9,11.8H1.3c-0.4,0-0.7-0.1-1-0.3c-0.2-0.3-0.3-0.6-0.3-1V1.3C0,0.5,0.3,0,1.1,0c0.7,0,1,0.4,1,1.4V10h2.6
	c0.9,0,1.4,0.3,1.4,0.9C6.1,11.5,5.7,11.9,4.9,11.8L4.9,11.8z"/>
<path class="st0" d="M9.3,12c-0.7,0-1-0.4-1-1.3V1.3c0-0.9,0.3-1.3,1-1.3s1,0.4,1,1.3v9.3C10.4,11.5,10,11.9,9.3,12L9.3,12z"/>
<path class="st0" d="M22.3,12c-0.5,0-0.9-0.3-1.2-0.7l-5.6-7.6v7c0,0.9-0.4,1.3-1.1,1.3c-0.7,0-1-0.4-1-1.3V1.3
	c0-0.9,0.3-1.3,0.9-1.3c0.5,0,0.9,0.3,1.1,0.7l5.7,7.6v-7c0-0.9,0.3-1.3,1-1.3s1.1,0.4,1.1,1.3v9.5C23.2,11.6,22.9,12,22.3,12
	L22.3,12z"/>
<path class="st0" d="M34,12c-0.3,0-0.7-0.2-1.1-0.6l-4.8-4.9v4.3c0,0.9-0.4,1.3-1.1,1.3s-1-0.4-1-1.3V1.3C26,0.4,26.3,0,27,0
	s1.1,0.4,1.1,1.3v3.4l4.4-4.1C32.9,0.2,33.3,0,33.6,0s0.5,0.1,0.7,0.3s0.3,0.4,0.3,0.7s-0.2,0.6-0.7,1L30,5.5l4.5,4.6
	c0.3,0.2,0.4,0.6,0.5,0.9c0,0.3-0.1,0.5-0.3,0.7C34.6,11.9,34.3,12,34,12L34,12z"/>
<path class="st0" d="M60.5,0.1L60.5,0.1c-0.1,0-0.1,0-0.2,0c-0.1,0-0.2,0-0.3,0c-0.3,0-0.6,0.1-0.8,0.4C59,0.7,59,1,59,1.3V7
	c0,0.6-0.1,1.2-0.3,1.8v0.1c-0.1,0.1-0.1,0.2-0.2,0.3c-0.1,0.1-0.1,0.1-0.2,0.2l-0.1,0.1c-0.1,0.1-0.2,0.1-0.3,0.2
	c-0.1,0-0.1,0.1-0.2,0.1c-0.1,0-0.2,0.1-0.3,0.1s-0.2,0-0.3,0.1c-0.1,0-0.2,0-0.3,0s-0.2,0-0.3,0h-0.1c-0.2,0-0.5,0-0.7-0.1
	c-0.9-0.2-1.6-0.8-1.7-1.7c-0.1-0.4-0.1-0.8-0.1-1.2V1.3c0-0.6-0.2-1.1-0.6-1.2C53.2,0,53,0,52.8,0c-0.7,0-1,0.4-1,1.3v5.9
	c0,0.9,0.2,1.9,0.7,2.7l0.1,0.1c0,0,0,0,0,0.1c0.1,0.2,0.3,0.4,0.5,0.6c0.9,0.9,1.8,1.3,3.3,1.3s2.5-0.4,3.3-1.3
	c0.8-0.8,1.3-2,1.3-3.5V1.3C61.1,0.7,60.9,0.2,60.5,0.1L60.5,0.1z"/>
<path class="st0" d="M69.4,11c-0.9,0.7-1.9,1-3,0.9c-0.7,0-1.4-0.1-2.1-0.3c-0.9-0.3-1.4-0.8-1.4-1.3c0-0.3,0.1-0.5,0.3-0.7
	s0.4-0.3,0.7-0.2c0.3,0,0.5,0.1,0.8,0.2l0.8,0.3c0.4,0.1,0.9,0.2,1.3,0.2c0.5,0,0.9-0.2,1.3-0.5c0.3-0.3,0.5-0.8,0.5-1.2
	c0-0.7-0.5-1.2-1.4-1.6l-2.6-1.1C63.5,5.2,63,4.3,63,3.3s0.4-1.9,1.2-2.4C65,0.3,66,0,66.9,0c1.1,0,1.9,0.2,2.5,0.7
	c0.3,0.2,0.5,0.5,0.5,0.9c0,0.2-0.1,0.5-0.3,0.6c-0.2,0.2-0.4,0.2-0.7,0.2c-0.4,0-0.7-0.1-1-0.3c-0.4-0.2-0.8-0.3-1.2-0.3
	c-0.4,0-0.8,0.1-1.1,0.4c-0.3,0.3-0.5,0.6-0.5,1c0,0.3,0.2,0.7,0.5,0.8c0.4,0.2,0.8,0.4,1.3,0.6c0.9,0.3,1.8,0.7,2.6,1.2
	c0.8,0.6,1.2,1.5,1.2,2.4C70.7,9.3,70.3,10.3,69.4,11L69.4,11z"/>
<path class="st0" d="M78.7,11.8h-4.5c-0.9,0-1.3-0.3-1.3-1.2V1.5c0-0.9,0.4-1.3,1.2-1.3h4.5c0.8,0,1.3,0.3,1.3,1c0,0.6-0.4,1-1.3,1
	H75V5h3.4c0.9,0,1.3,0.3,1.3,0.9s-0.4,0.9-1.3,0.9H75V10h3.7c0.8,0,1.3,0.3,1.3,1C80,11.6,79.6,11.9,78.7,11.8L78.7,11.8z"/>
<path class="st0" d="M48.2,0.3c-0.7,0-1.1,0.3-1.3,0.7c-0.2,0.4-3.3,7.2-3.3,7.2s-4.1-7.2-4.3-7.6c-0.2-0.3-0.7-0.5-1-0.4
	s-0.7,0.3-0.7,0.8s0,9.5,0,9.5c0,0.6,0.5,1,1.1,1s1.1-0.5,1.1-1V5l2.8,6c0.2,0.3,0.6,0.5,0.9,0.5h0.1c0.4,0,0.7-0.2,0.9-0.5l2.8-6
	v5.6c0,0.6,0.5,1.1,1.1,1.1s1.1-0.5,1.1-1.1c0,0,0-8.6,0-9.2S48.8,0.4,48.2,0.3z"/>
</svg>
