<svg xmlns="http://www.w3.org/2000/svg">
  <symbol  id="characteristics__icon_parameter_chest" viewBox="0 0 12 12">
    <path d="M12 0H0v2h12V0zM9.818 5H2.182v2h7.636V5zM9.818 10H2.182v2h7.636v-2z"/>
  </symbol>
  <symbol  id="characteristics__icon_parameter_height" viewBox="0 0 13 13">
    <path d="M8.286.5V0h-.5v.5h.5zM12.5.5h.5V0h-.5v.5zm0 12v.5h.5v-.5h-.5zm-4.214 0h-.5v.5h.5v-.5zM.5 5.467v-.5H0v.5h.5zm4.725 0h.5v-.5h-.5v.5zm0 3.193l.402.297.098-.132V8.66h-.5zm-1.12 1.52l-.403-.297-.098.133v.164h.5zm0 2.278v.5h.5v-.5h-.5zm-2.428 0h-.5v.5h.5v-.5zm0-2.278h.5v-.202l-.14-.146-.36.348zM.5 8.963H0v.202l.14.145.36-.347zm3.674-6.827c0 .583-.537 1.137-1.306 1.137v1c1.226 0 2.306-.912 2.306-2.137h-1zM2.868 3.273c-.769 0-1.306-.554-1.306-1.137h-1c0 1.225 1.08 2.137 2.306 2.137v-1zM1.562 2.136C1.562 1.554 2.099 1 2.868 1V0C1.642 0 .562.911.562 2.136h1zM2.868 1c.769 0 1.306.554 1.306 1.136h1C5.174.911 4.094 0 2.868 0v1zm5.418 0H12.5V0H8.286v1zM12 .5v12h1V.5h-1zm.5 11.5H8.286v1H12.5v-1zm-3.714.5V.5h-1v12h1zm-.199-9.045h2.128v-1H8.587v1zm0 4.363h2.128v-1H8.587v1zm0-2.182h1.535v-1H8.587v1zm0 4.364h1.535V9H8.587v1zM.5 5.967h4.725v-1H.5v1zm4.225-.5V8.66h1V5.467h-1zm.097 2.897l-1.12 1.52.805.593 1.12-1.52-.805-.593zM3.604 10.18v2.278h1V10.18h-1zm.5 1.778H1.677v1h2.427v-1zm-1.927.5V10.18h-1v2.278h1zm-.14-2.626L.858 8.615l-.718.695 1.176 1.218.72-.696zM1 8.962V5.468H0v3.496h1z"/>
  </symbol>
  <symbol id="characteristics__icon_parameter_hips" viewBox="0 0 12 12">
    <path d="M12 10H0v2h12v-2zM9.818 0H2.182v2h7.636V0zM9.818 5H2.182v2h7.636V5z"/>
  </symbol>
  <symbol id="characteristics__icon_parameter_waist" viewBox="0 0 12 12">
    <path d="M12 5H0v2h12V5zM9.818 0H2.182v2h7.636V0zM9.818 10H2.182v2h7.636v-2z"/>
  </symbol>
  <symbol  id="characteristics__icon_parameter_weight" viewBox="0 0 13 13">
    <path d="M.5.5V0H0v.5h.5zm12 0h.5V0h-.5v.5zm0 12v.5h.5v-.5h-.5zm-12 0H0v.5h.5v-.5zm9.818-6l.005.5.495-.004V6.5h-.5zm-7.636 0h-.5v.497L2.679 7l.003-.5zm4.23-2.2L5.547 6.21l.813.58 1.364-1.908-.814-.582zM.5 1h12V0H.5v1zM12 .5v12h1V.5h-1zm.5 11.5H.5v1h12v-1zM1 12.5V.5H0v12h1zm9.818-6A4.318 4.318 0 0 0 6.5 2.182v1A3.318 3.318 0 0 1 9.818 6.5h1zM6.5 2.182A4.318 4.318 0 0 0 2.182 6.5h1A3.318 3.318 0 0 1 6.5 3.182v-1zM2.679 7c4.917.031 3.22.04 7.644 0l-.01-1c-4.416.04-2.711.031-7.628 0l-.006 1z"/>
  </symbol>
</svg>
